<svg xmlns="http://www.w3.org/2000/svg" viewBox="0 0 660 280" font-family="Segoe UI, Helvetica, Arial, sans-serif" role="img" aria-label="A Module 5 wrap-up: the perceive-to-reach pipeline at the top, the eight-unit arc as a timeline beneath, and an arrow to Module 6 differential motion where the Jacobian returns as velocity, manipulability, singularity theory, and SVD."><defs><marker id="aw" markerWidth="9" markerHeight="9" refX="7" refY="3" orient="auto"><path d="M0,0 L7,3 L0,6 Z" fill="#8b5cf6"/></marker></defs>
<style>.t{font-size:15px;font-weight:700;fill:#0f172a}.c{font-size:10px;fill:#64748b}.b{font-size:10px;font-weight:700;fill:#334155}.u{font-size:9px;fill:#475569}</style>
<text x="330" y="22" text-anchor="middle" class="t">Module 5 complete — the road to differential motion</text>
<rect x="40" y="40" width="580" height="40" rx="9" fill="#ecfdf5" stroke="#a7f3d0"/>
<text x="330" y="65" text-anchor="middle" class="b">perceive → place → solve → verify → select → reach   (Reach the Fruit ✓)</text>
<rect x="40" y="110" width="72" height="40" rx="6" fill="#f8fafc" stroke="#e2e8f0"/><text x="76.0" y="127" text-anchor="middle" class="b">U1</text><text x="76.0" y="142" text-anchor="middle" class="u">inverse pro</text><rect x="113" y="110" width="72" height="40" rx="6" fill="#f8fafc" stroke="#e2e8f0"/><text x="149.0" y="127" text-anchor="middle" class="b">U2</text><text x="149.0" y="142" text-anchor="middle" class="u">one/two joi</text><rect x="186" y="110" width="72" height="40" rx="6" fill="#f8fafc" stroke="#e2e8f0"/><text x="222.0" y="127" text-anchor="middle" class="b">U3</text><text x="222.0" y="142" text-anchor="middle" class="u">closed form</text><rect x="259" y="110" width="72" height="40" rx="6" fill="#f8fafc" stroke="#e2e8f0"/><text x="295.0" y="127" text-anchor="middle" class="b">U4</text><text x="295.0" y="142" text-anchor="middle" class="u">numerical (</text><rect x="332" y="110" width="72" height="40" rx="6" fill="#f8fafc" stroke="#e2e8f0"/><text x="368.0" y="127" text-anchor="middle" class="b">U5</text><text x="368.0" y="142" text-anchor="middle" class="u">in practice</text><rect x="405" y="110" width="72" height="40" rx="6" fill="#f8fafc" stroke="#e2e8f0"/><text x="441.0" y="127" text-anchor="middle" class="b">U6</text><text x="441.0" y="142" text-anchor="middle" class="u">singulariti</text><rect x="478" y="110" width="72" height="40" rx="6" fill="#f8fafc" stroke="#e2e8f0"/><text x="514.0" y="127" text-anchor="middle" class="b">U7</text><text x="514.0" y="142" text-anchor="middle" class="u">verify/perc</text><rect x="551" y="110" width="72" height="40" rx="6" fill="#f8fafc" stroke="#e2e8f0"/><text x="587.0" y="127" text-anchor="middle" class="b">U8</text><text x="587.0" y="142" text-anchor="middle" class="u">capstone</text><line x1="330" y1="152" x2="330" y2="188" stroke="#8b5cf6" stroke-width="2" marker-end="url(#aw)"/><rect x="150" y="192" width="360" height="56" rx="10" fill="#faf5ff" stroke="#e9d5ff"/><text x="330" y="214" text-anchor="middle" class="b" fill="#8b5cf6">Module 6 — Differential Kinematics</text><text x="330" y="234" text-anchor="middle" class="c">the Jacobian as velocity · manipulability · singularity theory · SVD</text></svg>
