<svg viewBox="0 0 470 380" xmlns="http://www.w3.org/2000/svg" role="img" aria-label="Three columns showing position, velocity, and acceleration for C0, C1, and C2 motions, marking where the first discontinuity appears in each">
<title>Three columns showing position, velocity, and acceleration for C0, C1, and C2 motions, marking where the first discontinuity appears in each</title>
<rect width="470" height="380" fill="white"/><text x="235" y="18" text-anchor="middle" font-family="system-ui,-apple-system,Segoe UI,Roboto,sans-serif" font-size="16" font-weight="650" fill="#0f172a">Where the first discontinuity lives</text><text x="80" y="24" text-anchor="middle" font-family="system-ui,-apple-system,Segoe UI,Roboto,sans-serif" font-size="14" font-weight="650" fill="#0f172a">C⁰</text><rect x="20" y="40" width="120" height="80" fill="#f8fafc" stroke="#e2e8f0"/><path d="M 20.0 108.6 L 22.4 107.4 L 24.8 106.3 L 27.2 105.1 L 29.6 104.0 L 32.0 102.9 L 34.4 101.7 L 36.8 100.6 L 39.2 99.4 L 41.6 98.3 L 44.0 97.1 L 46.4 96.0 L 48.8 94.9 L 51.2 93.7 L 53.6 92.6 L 56.0 91.4 L 58.4 90.3 L 60.8 89.1 L 63.2 88.0 L 65.6 86.9 L 68.0 85.7 L 70.4 84.6 L 72.8 83.4 L 75.2 82.3 L 77.6 81.1 L 80.0 51.4 L 82.4 52.6 L 84.8 53.7 L 87.2 54.9 L 89.6 56.0 L 92.0 57.1 L 94.4 58.3 L 96.8 59.4 L 99.2 60.6 L 101.6 61.7 L 104.0 62.9 L 106.4 64.0 L 108.8 65.1 L 111.2 66.3 L 113.6 67.4 L 116.0 68.6 L 118.4 69.7 L 120.8 70.9 L 123.2 72.0 L 125.6 73.1 L 128.0 74.3 L 130.4 75.4 L 132.8 76.6 L 135.2 77.7 L 137.6 78.9 L 140.0 80.0" fill="none" stroke="#10b981" stroke-width="2.3"/><text x="26" y="53" font-family="system-ui,-apple-system,Segoe UI,Roboto,sans-serif" font-size="10" fill="#64748b">position</text><rect x="20" y="148" width="120" height="80" fill="#f8fafc" stroke="#e2e8f0"/><path d="M 20.0 159.4 L 22.4 159.4 L 24.8 159.4 L 27.2 159.4 L 29.6 159.4 L 32.0 159.4 L 34.4 159.4 L 36.8 159.4 L 39.2 159.4 L 41.6 159.4 L 44.0 159.4 L 46.4 159.4 L 48.8 159.4 L 51.2 159.4 L 53.6 159.4 L 56.0 159.4 L 58.4 159.4 L 60.8 159.4 L 63.2 159.4 L 65.6 159.4 L 68.0 159.4 L 70.4 159.4 L 72.8 159.4 L 75.2 159.4 L 77.6 159.4 L 80.0 216.6 L 82.4 216.6 L 84.8 216.6 L 87.2 216.6 L 89.6 216.6 L 92.0 216.6 L 94.4 216.6 L 96.8 216.6 L 99.2 216.6 L 101.6 216.6 L 104.0 216.6 L 106.4 216.6 L 108.8 216.6 L 111.2 216.6 L 113.6 216.6 L 116.0 216.6 L 118.4 216.6 L 120.8 216.6 L 123.2 216.6 L 125.6 216.6 L 128.0 216.6 L 130.4 216.6 L 132.8 216.6 L 135.2 216.6 L 137.6 216.6 L 140.0 216.6" fill="none" stroke="#b91c1c" stroke-width="2.3"/><text x="26" y="161" font-family="system-ui,-apple-system,Segoe UI,Roboto,sans-serif" font-size="10" fill="#64748b">velocity</text><text x="80" y="222" text-anchor="middle" font-family="system-ui,-apple-system,Segoe UI,Roboto,sans-serif" font-size="10" font-weight="650" fill="#b91c1c">jump</text><rect x="20" y="256" width="120" height="80" fill="#f8fafc" stroke="#e2e8f0"/><path d="M 20.0 296.0 L 22.4 296.0 L 24.8 296.0 L 27.2 296.0 L 29.6 296.0 L 32.0 296.0 L 34.4 296.0 L 36.8 296.0 L 39.2 296.0 L 41.6 296.0 L 44.0 296.0 L 46.4 296.0 L 48.8 296.0 L 51.2 296.0 L 53.6 296.0 L 56.0 296.0 L 58.4 296.0 L 60.8 296.0 L 63.2 296.0 L 65.6 296.0 L 68.0 296.0 L 70.4 296.0 L 72.8 296.0 L 75.2 296.0 L 77.6 296.0 L 80.0 296.0 L 82.4 296.0 L 84.8 296.0 L 87.2 296.0 L 89.6 296.0 L 92.0 296.0 L 94.4 296.0 L 96.8 296.0 L 99.2 296.0 L 101.6 296.0 L 104.0 296.0 L 106.4 296.0 L 108.8 296.0 L 111.2 296.0 L 113.6 296.0 L 116.0 296.0 L 118.4 296.0 L 120.8 296.0 L 123.2 296.0 L 125.6 296.0 L 128.0 296.0 L 130.4 296.0 L 132.8 296.0 L 135.2 296.0 L 137.6 296.0 L 140.0 296.0" fill="none" stroke="#10b981" stroke-width="2.3"/><text x="26" y="269" font-family="system-ui,-apple-system,Segoe UI,Roboto,sans-serif" font-size="10" fill="#64748b">acceleration</text><text x="235" y="24" text-anchor="middle" font-family="system-ui,-apple-system,Segoe UI,Roboto,sans-serif" font-size="14" font-weight="650" fill="#0f172a">C¹</text><rect x="175" y="40" width="120" height="80" fill="#f8fafc" stroke="#e2e8f0"/><path d="M 175.0 108.6 L 177.4 108.5 L 179.8 108.3 L 182.2 108.0 L 184.6 107.5 L 187.0 107.0 L 189.4 106.3 L 191.8 105.5 L 194.2 104.7 L 196.6 103.7 L 199.0 102.6 L 201.4 101.5 L 203.8 100.3 L 206.2 99.0 L 208.6 97.6 L 211.0 96.2 L 213.4 94.8 L 215.8 93.2 L 218.2 91.7 L 220.6 90.1 L 223.0 88.5 L 225.4 86.8 L 227.8 85.1 L 230.2 83.4 L 232.6 81.7 L 235.0 80.0 L 237.4 78.3 L 239.8 76.6 L 242.2 74.9 L 244.6 73.2 L 247.0 71.5 L 249.4 69.9 L 251.8 68.3 L 254.2 66.8 L 256.6 65.2 L 259.0 63.8 L 261.4 62.4 L 263.8 61.0 L 266.2 59.7 L 268.6 58.5 L 271.0 57.4 L 273.4 56.3 L 275.8 55.3 L 278.2 54.5 L 280.6 53.7 L 283.0 53.0 L 285.4 52.5 L 287.8 52.0 L 290.2 51.7 L 292.6 51.5 L 295.0 51.4" fill="none" stroke="#10b981" stroke-width="2.3"/><text x="181" y="53" font-family="system-ui,-apple-system,Segoe UI,Roboto,sans-serif" font-size="10" fill="#64748b">position</text><rect x="175" y="148" width="120" height="80" fill="#f8fafc" stroke="#e2e8f0"/><path d="M 175.0 216.6 L 177.4 212.1 L 179.8 207.8 L 182.2 203.7 L 184.6 199.7 L 187.0 196.0 L 189.4 192.4 L 191.8 189.1 L 194.2 185.9 L 196.6 182.8 L 199.0 180.0 L 201.4 177.3 L 203.8 174.9 L 206.2 172.6 L 208.6 170.5 L 211.0 168.6 L 213.4 166.8 L 215.8 165.3 L 218.2 163.9 L 220.6 162.7 L 223.0 161.7 L 225.4 160.9 L 227.8 160.3 L 230.2 159.8 L 232.6 159.5 L 235.0 159.4 L 237.4 159.5 L 239.8 159.8 L 242.2 160.3 L 244.6 160.9 L 247.0 161.7 L 249.4 162.7 L 251.8 163.9 L 254.2 165.3 L 256.6 166.8 L 259.0 168.6 L 261.4 170.5 L 263.8 172.6 L 266.2 174.9 L 268.6 177.3 L 271.0 180.0 L 273.4 182.8 L 275.8 185.9 L 278.2 189.1 L 280.6 192.4 L 283.0 196.0 L 285.4 199.7 L 287.8 203.7 L 290.2 207.8 L 292.6 212.1 L 295.0 216.6" fill="none" stroke="#10b981" stroke-width="2.3"/><text x="181" y="161" font-family="system-ui,-apple-system,Segoe UI,Roboto,sans-serif" font-size="10" fill="#64748b">velocity</text><rect x="175" y="256" width="120" height="80" fill="#f8fafc" stroke="#e2e8f0"/><path d="M 175.0 267.4 L 177.4 268.6 L 179.8 269.7 L 182.2 270.9 L 184.6 272.0 L 187.0 273.1 L 189.4 274.3 L 191.8 275.4 L 194.2 276.6 L 196.6 277.7 L 199.0 278.9 L 201.4 280.0 L 203.8 281.1 L 206.2 282.3 L 208.6 283.4 L 211.0 284.6 L 213.4 285.7 L 215.8 286.9 L 218.2 288.0 L 220.6 289.1 L 223.0 290.3 L 225.4 291.4 L 227.8 292.6 L 230.2 293.7 L 232.6 294.9 L 235.0 296.0 L 237.4 297.1 L 239.8 298.3 L 242.2 299.4 L 244.6 300.6 L 247.0 301.7 L 249.4 302.9 L 251.8 304.0 L 254.2 305.1 L 256.6 306.3 L 259.0 307.4 L 261.4 308.6 L 263.8 309.7 L 266.2 310.9 L 268.6 312.0 L 271.0 313.1 L 273.4 314.3 L 275.8 315.4 L 278.2 316.6 L 280.6 317.7 L 283.0 318.9 L 285.4 320.0 L 287.8 321.1 L 290.2 322.3 L 292.6 323.4 L 295.0 324.6" fill="none" stroke="#b91c1c" stroke-width="2.3"/><text x="181" y="269" font-family="system-ui,-apple-system,Segoe UI,Roboto,sans-serif" font-size="10" fill="#64748b">acceleration</text><text x="235" y="330" text-anchor="middle" font-family="system-ui,-apple-system,Segoe UI,Roboto,sans-serif" font-size="10" font-weight="650" fill="#b91c1c">jump</text><text x="390" y="24" text-anchor="middle" font-family="system-ui,-apple-system,Segoe UI,Roboto,sans-serif" font-size="14" font-weight="650" fill="#0f172a">C²</text><rect x="330" y="40" width="120" height="80" fill="#f8fafc" stroke="#e2e8f0"/><path d="M 330.0 108.6 L 332.4 108.6 L 334.8 108.5 L 337.2 108.5 L 339.6 108.3 L 342.0 108.1 L 344.4 107.8 L 346.8 107.3 L 349.2 106.8 L 351.6 106.1 L 354.0 105.3 L 356.4 104.3 L 358.8 103.2 L 361.2 102.0 L 363.6 100.7 L 366.0 99.3 L 368.4 97.7 L 370.8 96.0 L 373.2 94.2 L 375.6 92.4 L 378.0 90.4 L 380.4 88.4 L 382.8 86.4 L 385.2 84.3 L 387.6 82.1 L 390.0 80.0 L 392.4 77.9 L 394.8 75.7 L 397.2 73.6 L 399.6 71.6 L 402.0 69.6 L 404.4 67.6 L 406.8 65.8 L 409.2 64.0 L 411.6 62.3 L 414.0 60.7 L 416.4 59.3 L 418.8 58.0 L 421.2 56.8 L 423.6 55.7 L 426.0 54.7 L 428.4 53.9 L 430.8 53.2 L 433.2 52.7 L 435.6 52.2 L 438.0 51.9 L 440.4 51.7 L 442.8 51.5 L 445.2 51.5 L 447.6 51.4 L 450.0 51.4" fill="none" stroke="#10b981" stroke-width="2.3"/><text x="336" y="53" font-family="system-ui,-apple-system,Segoe UI,Roboto,sans-serif" font-size="10" fill="#64748b">position</text><rect x="330" y="148" width="120" height="80" fill="#f8fafc" stroke="#e2e8f0"/><path d="M 330.0 216.6 L 332.4 216.2 L 334.8 215.2 L 337.2 213.7 L 339.6 211.6 L 342.0 209.2 L 344.4 206.4 L 346.8 203.3 L 349.2 200.1 L 351.6 196.7 L 354.0 193.2 L 356.4 189.6 L 358.8 186.2 L 361.2 182.7 L 363.6 179.4 L 366.0 176.3 L 368.4 173.3 L 370.8 170.5 L 373.2 168.0 L 375.6 165.8 L 378.0 163.9 L 380.4 162.3 L 382.8 161.1 L 385.2 160.2 L 387.6 159.6 L 390.0 159.4 L 392.4 159.6 L 394.8 160.2 L 397.2 161.1 L 399.6 162.3 L 402.0 163.9 L 404.4 165.8 L 406.8 168.0 L 409.2 170.5 L 411.6 173.3 L 414.0 176.3 L 416.4 179.4 L 418.8 182.7 L 421.2 186.2 L 423.6 189.6 L 426.0 193.2 L 428.4 196.7 L 430.8 200.1 L 433.2 203.3 L 435.6 206.4 L 438.0 209.2 L 440.4 211.6 L 442.8 213.7 L 445.2 215.2 L 447.6 216.2 L 450.0 216.6" fill="none" stroke="#10b981" stroke-width="2.3"/><text x="336" y="161" font-family="system-ui,-apple-system,Segoe UI,Roboto,sans-serif" font-size="10" fill="#64748b">velocity</text><rect x="330" y="256" width="120" height="80" fill="#f8fafc" stroke="#e2e8f0"/><path d="M 330.0 296.0 L 332.4 290.4 L 334.8 285.5 L 337.2 281.2 L 339.6 277.6 L 342.0 274.6 L 344.4 272.1 L 346.8 270.2 L 349.2 268.8 L 351.6 267.9 L 354.0 267.5 L 356.4 267.4 L 358.8 267.8 L 361.2 268.5 L 363.6 269.6 L 366.0 271.0 L 368.4 272.7 L 370.8 274.6 L 373.2 276.8 L 375.6 279.2 L 378.0 281.7 L 380.4 284.4 L 382.8 287.2 L 385.2 290.1 L 387.6 293.0 L 390.0 296.0 L 392.4 299.0 L 394.8 301.9 L 397.2 304.8 L 399.6 307.6 L 402.0 310.3 L 404.4 312.8 L 406.8 315.2 L 409.2 317.4 L 411.6 319.3 L 414.0 321.0 L 416.4 322.4 L 418.8 323.5 L 421.2 324.2 L 423.6 324.6 L 426.0 324.5 L 428.4 324.1 L 430.8 323.2 L 433.2 321.8 L 435.6 319.9 L 438.0 317.4 L 440.4 314.4 L 442.8 310.8 L 445.2 306.5 L 447.6 301.6 L 450.0 296.0" fill="none" stroke="#10b981" stroke-width="2.3"/><text x="336" y="269" font-family="system-ui,-apple-system,Segoe UI,Roboto,sans-serif" font-size="10" fill="#64748b">acceleration</text><text x="235" y="372" text-anchor="middle" font-family="system-ui,-apple-system,Segoe UI,Roboto,sans-serif" font-size="11" fill="#64748b">C⁰: velocity jumps · C¹: acceleration jumps · C²: continuous through acceleration</text>
</svg>
