<svg viewBox="0 0 520 270" xmlns="http://www.w3.org/2000/svg" role="img" aria-label="A reference curve sampled at a fine rate (faithful) versus a coarse rate (slideshow that misses peaks), plus the reference data-structure table of timestamped position, velocity, and acceleration">
<title>A reference curve sampled at a fine rate (faithful) versus a coarse rate (slideshow that misses peaks), plus the reference data-structure table of timestamped position, velocity, and acceleration</title>
<rect width="520" height="270" fill="white"/>
<text x="260" y="24" text-anchor="middle" font-family="system-ui,-apple-system,Segoe UI,Roboto,sans-serif" font-size="14" font-weight="650" fill="#0f172a">Discretizing the reference: rate must be fine enough</text>
<text x="150" y="48" text-anchor="middle" font-family="system-ui,-apple-system,Segoe UI,Roboto,sans-serif" font-size="11" font-weight="600" fill="#10b981">fine rate: faithful</text>
<rect x="30" y="58" width="240" height="100" fill="#f8fafc" stroke="#e2e8f0"/>
<path d="M 30.0 150.0 L 31.2 150.0 L 32.4 150.0 L 33.6 150.0 L 34.8 150.0 L 36.0 150.0 L 37.2 150.0 L 38.4 150.0 L 39.6 150.0 L 40.9 149.9 L 42.1 149.9 L 43.3 149.9 L 44.5 149.8 L 45.7 149.8 L 46.9 149.8 L 48.1 149.7 L 49.3 149.6 L 50.5 149.6 L 51.7 149.5 L 52.9 149.4 L 54.1 149.3 L 55.3 149.2 L 56.5 149.1 L 57.7 149.0 L 58.9 148.8 L 60.2 148.7 L 61.4 148.5 L 62.6 148.4 L 63.8 148.2 L 65.0 148.0 L 66.2 147.8 L 67.4 147.6 L 68.6 147.4 L 69.8 147.2 L 71.0 147.0 L 72.2 146.7 L 73.4 146.5 L 74.6 146.2 L 75.8 145.9 L 77.0 145.6 L 78.2 145.3 L 79.4 145.0 L 80.7 144.7 L 81.9 144.3 L 83.1 144.0 L 84.3 143.6 L 85.5 143.2 L 86.7 142.8 L 87.9 142.4 L 89.1 142.0 L 90.3 141.6 L 91.5 141.2 L 92.7 140.7 L 93.9 140.3 L 95.1 139.8 L 96.3 139.3 L 97.5 138.9 L 98.7 138.4 L 99.9 137.8 L 101.2 137.3 L 102.4 136.8 L 103.6 136.3 L 104.8 135.7 L 106.0 135.1 L 107.2 134.6 L 108.4 134.0 L 109.6 133.4 L 110.8 132.8 L 112.0 132.2 L 113.2 131.6 L 114.4 131.0 L 115.6 130.3 L 116.8 129.7 L 118.0 129.1 L 119.2 128.4 L 120.5 127.7 L 121.7 127.1 L 122.9 126.4 L 124.1 125.7 L 125.3 125.0 L 126.5 124.3 L 127.7 123.6 L 128.9 122.9 L 130.1 122.2 L 131.3 121.5 L 132.5 120.8 L 133.7 120.1 L 134.9 119.3 L 136.1 118.6 L 137.3 117.9 L 138.5 117.1 L 139.7 116.4 L 141.0 115.6 L 142.2 114.9 L 143.4 114.1 L 144.6 113.4 L 145.8 112.6 L 147.0 111.9 L 148.2 111.1 L 149.4 110.4 L 150.6 109.6 L 151.8 108.9 L 153.0 108.1 L 154.2 107.4 L 155.4 106.6 L 156.6 105.9 L 157.8 105.1 L 159.0 104.4 L 160.3 103.6 L 161.5 102.9 L 162.7 102.1 L 163.9 101.4 L 165.1 100.7 L 166.3 99.9 L 167.5 99.2 L 168.7 98.5 L 169.9 97.8 L 171.1 97.1 L 172.3 96.4 L 173.5 95.7 L 174.7 95.0 L 175.9 94.3 L 177.1 93.6 L 178.3 92.9 L 179.5 92.3 L 180.8 91.6 L 182.0 90.9 L 183.2 90.3 L 184.4 89.7 L 185.6 89.0 L 186.8 88.4 L 188.0 87.8 L 189.2 87.2 L 190.4 86.6 L 191.6 86.0 L 192.8 85.4 L 194.0 84.9 L 195.2 84.3 L 196.4 83.7 L 197.6 83.2 L 198.8 82.7 L 200.1 82.2 L 201.3 81.6 L 202.5 81.1 L 203.7 80.7 L 204.9 80.2 L 206.1 79.7 L 207.3 79.3 L 208.5 78.8 L 209.7 78.4 L 210.9 78.0 L 212.1 77.6 L 213.3 77.2 L 214.5 76.8 L 215.7 76.4 L 216.9 76.0 L 218.1 75.7 L 219.3 75.3 L 220.6 75.0 L 221.8 74.7 L 223.0 74.4 L 224.2 74.1 L 225.4 73.8 L 226.6 73.5 L 227.8 73.3 L 229.0 73.0 L 230.2 72.8 L 231.4 72.6 L 232.6 72.4 L 233.8 72.2 L 235.0 72.0 L 236.2 71.8 L 237.4 71.6 L 238.6 71.5 L 239.8 71.3 L 241.1 71.2 L 242.3 71.0 L 243.5 70.9 L 244.7 70.8 L 245.9 70.7 L 247.1 70.6 L 248.3 70.5 L 249.5 70.4 L 250.7 70.4 L 251.9 70.3 L 253.1 70.2 L 254.3 70.2 L 255.5 70.2 L 256.7 70.1 L 257.9 70.1 L 259.1 70.1 L 260.4 70.0 L 261.6 70.0 L 262.8 70.0 L 264.0 70.0 L 265.2 70.0 L 266.4 70.0 L 267.6 70.0 L 268.8 70.0 L 270.0 70.0" fill="none" stroke="#0d9488" stroke-width="2"/>
<circle cx="30.0" cy="150.0" r="2" fill="#10b981"/><circle cx="39.6" cy="150.0" r="2" fill="#10b981"/><circle cx="49.2" cy="149.6" r="2" fill="#10b981"/><circle cx="58.8" cy="148.9" r="2" fill="#10b981"/><circle cx="68.4" cy="147.5" r="2" fill="#10b981"/><circle cx="78.0" cy="145.4" r="2" fill="#10b981"/><circle cx="87.6" cy="142.5" r="2" fill="#10b981"/><circle cx="97.2" cy="139.0" r="2" fill="#10b981"/><circle cx="106.8" cy="134.8" r="2" fill="#10b981"/><circle cx="116.4" cy="129.9" r="2" fill="#10b981"/><circle cx="126.0" cy="124.6" r="2" fill="#10b981"/><circle cx="135.6" cy="118.9" r="2" fill="#10b981"/><circle cx="145.2" cy="113.0" r="2" fill="#10b981"/><circle cx="154.8" cy="107.0" r="2" fill="#10b981"/><circle cx="164.4" cy="101.1" r="2" fill="#10b981"/><circle cx="174.0" cy="95.4" r="2" fill="#10b981"/><circle cx="183.6" cy="90.1" r="2" fill="#10b981"/><circle cx="193.2" cy="85.2" r="2" fill="#10b981"/><circle cx="202.8" cy="81.0" r="2" fill="#10b981"/><circle cx="212.4" cy="77.5" r="2" fill="#10b981"/><circle cx="222.0" cy="74.6" r="2" fill="#10b981"/><circle cx="231.6" cy="72.5" r="2" fill="#10b981"/><circle cx="241.2" cy="71.1" r="2" fill="#10b981"/><circle cx="250.8" cy="70.4" r="2" fill="#10b981"/><circle cx="260.4" cy="70.0" r="2" fill="#10b981"/><circle cx="270.0" cy="70.0" r="2" fill="#10b981"/>
<text x="150" y="172" text-anchor="middle" font-family="system-ui,-apple-system,Segoe UI,Roboto,sans-serif" font-size="9" font-weight="400" fill="#64748b">dense samples trace the curve</text>
<text x="395" y="48" text-anchor="middle" font-family="system-ui,-apple-system,Segoe UI,Roboto,sans-serif" font-size="11" font-weight="600" fill="#b91c1c">coarse rate: misses peaks</text>
<rect x="280" y="58" width="210" height="100" fill="#f8fafc" stroke="#e2e8f0"/>
<path d="M 280.0 150.0 L 281.1 150.0 L 282.1 150.0 L 283.2 150.0 L 284.2 150.0 L 285.3 150.0 L 286.3 150.0 L 287.4 150.0 L 288.4 150.0 L 289.5 149.9 L 290.6 149.9 L 291.6 149.9 L 292.7 149.8 L 293.7 149.8 L 294.8 149.8 L 295.8 149.7 L 296.9 149.6 L 297.9 149.6 L 299.0 149.5 L 300.1 149.4 L 301.1 149.3 L 302.2 149.2 L 303.2 149.1 L 304.3 149.0 L 305.3 148.8 L 306.4 148.7 L 307.4 148.5 L 308.5 148.4 L 309.5 148.2 L 310.6 148.0 L 311.7 147.8 L 312.7 147.6 L 313.8 147.4 L 314.8 147.2 L 315.9 147.0 L 316.9 146.7 L 318.0 146.5 L 319.0 146.2 L 320.1 145.9 L 321.2 145.6 L 322.2 145.3 L 323.3 145.0 L 324.3 144.7 L 325.4 144.3 L 326.4 144.0 L 327.5 143.6 L 328.5 143.2 L 329.6 142.8 L 330.7 142.4 L 331.7 142.0 L 332.8 141.6 L 333.8 141.2 L 334.9 140.7 L 335.9 140.3 L 337.0 139.8 L 338.0 139.3 L 339.1 138.9 L 340.2 138.4 L 341.2 137.8 L 342.3 137.3 L 343.3 136.8 L 344.4 136.3 L 345.4 135.7 L 346.5 135.1 L 347.5 134.6 L 348.6 134.0 L 349.6 133.4 L 350.7 132.8 L 351.8 132.2 L 352.8 131.6 L 353.9 131.0 L 354.9 130.3 L 356.0 129.7 L 357.0 129.1 L 358.1 128.4 L 359.1 127.7 L 360.2 127.1 L 361.3 126.4 L 362.3 125.7 L 363.4 125.0 L 364.4 124.3 L 365.5 123.6 L 366.5 122.9 L 367.6 122.2 L 368.6 121.5 L 369.7 120.8 L 370.8 120.1 L 371.8 119.3 L 372.9 118.6 L 373.9 117.9 L 375.0 117.1 L 376.0 116.4 L 377.1 115.6 L 378.1 114.9 L 379.2 114.1 L 380.3 113.4 L 381.3 112.6 L 382.4 111.9 L 383.4 111.1 L 384.5 110.4 L 385.5 109.6 L 386.6 108.9 L 387.6 108.1 L 388.7 107.4 L 389.7 106.6 L 390.8 105.9 L 391.9 105.1 L 392.9 104.4 L 394.0 103.6 L 395.0 102.9 L 396.1 102.1 L 397.1 101.4 L 398.2 100.7 L 399.2 99.9 L 400.3 99.2 L 401.4 98.5 L 402.4 97.8 L 403.5 97.1 L 404.5 96.4 L 405.6 95.7 L 406.6 95.0 L 407.7 94.3 L 408.7 93.6 L 409.8 92.9 L 410.9 92.3 L 411.9 91.6 L 413.0 90.9 L 414.0 90.3 L 415.1 89.7 L 416.1 89.0 L 417.2 88.4 L 418.2 87.8 L 419.3 87.2 L 420.4 86.6 L 421.4 86.0 L 422.5 85.4 L 423.5 84.9 L 424.6 84.3 L 425.6 83.7 L 426.7 83.2 L 427.7 82.7 L 428.8 82.2 L 429.8 81.6 L 430.9 81.1 L 432.0 80.7 L 433.0 80.2 L 434.1 79.7 L 435.1 79.3 L 436.2 78.8 L 437.2 78.4 L 438.3 78.0 L 439.3 77.6 L 440.4 77.2 L 441.5 76.8 L 442.5 76.4 L 443.6 76.0 L 444.6 75.7 L 445.7 75.3 L 446.7 75.0 L 447.8 74.7 L 448.8 74.4 L 449.9 74.1 L 451.0 73.8 L 452.0 73.5 L 453.1 73.3 L 454.1 73.0 L 455.2 72.8 L 456.2 72.6 L 457.3 72.4 L 458.3 72.2 L 459.4 72.0 L 460.5 71.8 L 461.5 71.6 L 462.6 71.5 L 463.6 71.3 L 464.7 71.2 L 465.7 71.0 L 466.8 70.9 L 467.8 70.8 L 468.9 70.7 L 469.9 70.6 L 471.0 70.5 L 472.1 70.4 L 473.1 70.4 L 474.2 70.3 L 475.2 70.2 L 476.3 70.2 L 477.3 70.2 L 478.4 70.1 L 479.4 70.1 L 480.5 70.1 L 481.6 70.0 L 482.6 70.0 L 483.7 70.0 L 484.7 70.0 L 485.8 70.0 L 486.8 70.0 L 487.9 70.0 L 488.9 70.0 L 490.0 70.0" fill="none" stroke="#64748b" stroke-width="1.5" stroke-dasharray="3 3"/>
<circle cx="280.0" cy="150.0" r="3" fill="#b91c1c"/><circle cx="332.5" cy="141.7" r="3" fill="#b91c1c"/><circle cx="385.0" cy="110.0" r="3" fill="#b91c1c"/><circle cx="437.5" cy="78.3" r="3" fill="#b91c1c"/><circle cx="490.0" cy="70.0" r="3" fill="#b91c1c"/>
<path d="M 280.0 150.0 L 332.5 141.7 L 385.0 110.0 L 437.5 78.3 L 490.0 70.0" fill="none" stroke="#b91c1c" stroke-width="1.5"/>
<text x="385" y="172" text-anchor="middle" font-family="system-ui,-apple-system,Segoe UI,Roboto,sans-serif" font-size="9" font-weight="400" fill="#b91c1c">slideshow: time-axis tunneling</text>
<!-- data structure table -->
<text x="260" y="196" text-anchor="middle" font-family="system-ui,-apple-system,Segoe UI,Roboto,sans-serif" font-size="11" font-weight="600" fill="#0f172a">reference data structure (handed to execution)</text>
<rect x="90" y="204" width="340" height="52" rx="6" fill="#f8fafc" stroke="#e2e8f0"/>
<text x="120" y="222" text-anchor="middle" font-family="system-ui,-apple-system,Segoe UI,Roboto,sans-serif" font-size="10" font-weight="400" fill="#64748b">t_k</text><text x="200" y="222" text-anchor="middle" font-family="system-ui,-apple-system,Segoe UI,Roboto,sans-serif" font-size="10" font-weight="400" fill="#64748b">q_d</text><text x="280" y="222" text-anchor="middle" font-family="system-ui,-apple-system,Segoe UI,Roboto,sans-serif" font-size="10" font-weight="400" fill="#64748b">q̇_d</text><text x="360" y="222" text-anchor="middle" font-family="system-ui,-apple-system,Segoe UI,Roboto,sans-serif" font-size="10" font-weight="400" fill="#64748b">q̈_d</text>
<text x="120" y="242" text-anchor="middle" font-family="system-ui,-apple-system,Segoe UI,Roboto,sans-serif" font-size="10" font-weight="400" fill="#0f172a">0.00</text><text x="200" y="242" text-anchor="middle" font-family="system-ui,-apple-system,Segoe UI,Roboto,sans-serif" font-size="10" font-weight="400" fill="#0f172a">…</text><text x="280" y="242" text-anchor="middle" font-family="system-ui,-apple-system,Segoe UI,Roboto,sans-serif" font-size="10" font-weight="400" fill="#0f172a">…</text><text x="360" y="242" text-anchor="middle" font-family="system-ui,-apple-system,Segoe UI,Roboto,sans-serif" font-size="10" font-weight="400" fill="#0f172a">…</text>
<text x="260" y="252" text-anchor="middle" font-family="system-ui,-apple-system,Segoe UI,Roboto,sans-serif" font-size="9" font-weight="400" fill="#64748b">+ duration T, rate f, validated</text>
</svg>
