<svg viewBox="0 0 520 360" xmlns="http://www.w3.org/2000/svg" role="img" aria-label="For identical start and goal tool positions, the joint move traces a curved tool path while the Cartesian move traces a straight line">
<title>For identical start and goal tool positions, the joint move traces a curved tool path while the Cartesian move traces a straight line</title>
<rect width="520" height="360" fill="white"/>
<text x="260" y="26" text-anchor="middle" font-family="system-ui,-apple-system,Segoe UI,Roboto,sans-serif" font-size="14" font-weight="650" fill="#0f172a">Same endpoints: joint move curves, Cartesian move goes straight</text>
<rect x="40" y="44" width="440" height="300" fill="#f8fafc" stroke="#e2e8f0"/>
<!-- arms -->
<line x1="150" y1="250" x2="259" y2="300" stroke="#334155" stroke-width="5"/>
<line x1="259" y1="300" x2="300" y2="220" stroke="#334155" stroke-width="5"/>
<line x1="150" y1="250" x2="265" y2="216" stroke="#64748b" stroke-width="4" stroke-dasharray="4 3"/>
<line x1="265" y1="216" x2="210" y2="145" stroke="#64748b" stroke-width="4" stroke-dasharray="4 3"/>
<path d="M 300.0 220.0 L 300.0 220.0 L 299.9 219.8 L 299.8 219.5 L 299.5 218.9 L 299.0 217.9 L 298.4 216.5 L 297.5 214.7 L 296.4 212.4 L 295.0 209.8 L 293.3 206.7 L 291.3 203.3 L 289.0 199.6 L 286.3 195.7 L 283.2 191.6 L 279.9 187.4 L 276.2 183.1 L 272.2 178.9 L 268.0 174.8 L 263.6 170.9 L 259.0 167.3 L 254.3 163.9 L 249.7 160.8 L 245.0 158.0 L 240.5 155.6 L 236.2 153.5 L 232.1 151.7 L 228.2 150.2 L 224.7 148.9 L 221.6 147.9 L 218.9 147.1 L 216.5 146.5 L 214.6 146.0 L 213.0 145.6 L 211.8 145.4 L 211.0 145.2 L 210.4 145.1 L 210.1 145.0 L 210.0 145.0 L 210.0 145.0" fill="none" stroke="#8b5cf6" stroke-width="3"/>
<path d="M 300.0 220.0 L 300.0 220.0 L 299.9 219.9 L 299.6 219.7 L 299.2 219.3 L 298.4 218.7 L 297.4 217.9 L 296.1 216.7 L 294.4 215.4 L 292.4 213.7 L 290.1 211.7 L 287.4 209.5 L 284.4 207.0 L 281.1 204.3 L 277.6 201.3 L 273.8 198.2 L 269.8 194.9 L 265.7 191.4 L 261.5 187.9 L 257.2 184.3 L 252.8 180.7 L 248.5 177.1 L 244.3 173.6 L 240.2 170.1 L 236.2 166.8 L 232.4 163.7 L 228.9 160.7 L 225.6 158.0 L 222.6 155.5 L 219.9 153.3 L 217.6 151.3 L 215.6 149.6 L 213.9 148.3 L 212.6 147.1 L 211.6 146.3 L 210.8 145.7 L 210.4 145.3 L 210.1 145.1 L 210.0 145.0 L 210.0 145.0" fill="none" stroke="#10b981" stroke-width="3"/>
<circle cx="300" cy="220" r="5" fill="#0f172a"/>
<circle cx="210" cy="145" r="8" fill="#e11d48"/>
<text x="64" y="72" text-anchor="start" font-family="system-ui,-apple-system,Segoe UI,Roboto,sans-serif" font-size="11" font-weight="400" fill="#8b5cf6">joint move (curved)</text>
<line x1="170" y1="68" x2="195" y2="68" stroke="#8b5cf6" stroke-width="3"/>
<text x="64" y="90" text-anchor="start" font-family="system-ui,-apple-system,Segoe UI,Roboto,sans-serif" font-size="11" font-weight="400" fill="#10b981">Cartesian (straight)</text>
<line x1="170" y1="86" x2="195" y2="86" stroke="#10b981" stroke-width="3"/>
<text x="310.0" y="224.0" text-anchor="start" font-family="system-ui,-apple-system,Segoe UI,Roboto,sans-serif" font-size="10" font-weight="400" fill="#64748b">start</text>
<text x="198.0" y="139.0" text-anchor="end" font-family="system-ui,-apple-system,Segoe UI,Roboto,sans-serif" font-size="10" font-weight="400" fill="#e11d48">fruit (goal)</text>
</svg>
