<svg viewBox="0 0 680 360" xmlns="http://www.w3.org/2000/svg" role="img" aria-label="A setpoint move where the PD response rises then flattens short of the target with a labelled residual gap, while the PID response rises, briefly stalls, then breaks through and lands on the target; an inset shows the small PD command sitting inside the deadband while the PID accumulated command crosses the breakaway threshold">
<title>A setpoint move where the PD response rises then flattens short of the target with a labelled residual gap, while the PID response rises, briefly stalls, then breaks through and lands on the target; an inset shows the small PD command sitting inside the deadband while the PID accumulated command crosses the breakaway threshold</title>
<rect width="680" height="360" fill="white"/>
<defs><marker id="ah" markerWidth="9" markerHeight="9" refX="6" refY="3" orient="auto"><path d="M0,0 L6,3 L0,6 z" fill="#64748b"/></marker><marker id="ahs" markerWidth="9" markerHeight="9" refX="6" refY="3" orient="auto"><path d="M0,0 L6,3 L0,6 z" fill="#0ea5e9"/></marker><marker id="ahe" markerWidth="9" markerHeight="9" refX="6" refY="3" orient="auto"><path d="M0,0 L6,3 L0,6 z" fill="#10b981"/></marker></defs>
<text x="230" y="24" text-anchor="middle" font-family="system-ui,-apple-system,Segoe UI,Roboto,sans-serif" font-size="15" font-weight="650" fill="#0f172a">Integral wins the last millimetre</text>
<line x1="70" y1="300" x2="430" y2="300" stroke="#64748b" stroke-width="1.3"/>
<line x1="70" y1="300" x2="70" y2="70" stroke="#64748b" stroke-width="1.3"/>
<text x="430" y="316" text-anchor="end" font-family="system-ui,-apple-system,Segoe UI,Roboto,sans-serif" font-size="11" font-weight="400" fill="#64748b">time</text>
<text x="64" y="76" text-anchor="end" font-family="system-ui,-apple-system,Segoe UI,Roboto,sans-serif" font-size="11" font-weight="400" fill="#64748b">position</text>
<line x1="70" y1="100" x2="430" y2="100" stroke="#0d9488" stroke-width="1.4" stroke-dasharray="5 4"/>
<text x="430" y="95" text-anchor="end" font-family="system-ui,-apple-system,Segoe UI,Roboto,sans-serif" font-size="10" font-weight="600" fill="#0d9488">target</text>
<polyline points="70.0,300.0 73.0,286.2 76.0,273.4 79.0,261.6 82.0,250.7 85.0,240.7 88.0,231.4 91.0,222.8 94.0,214.9 97.0,207.6 100.0,200.9 103.0,194.7 106.0,188.9 109.0,188.4 112.0,188.4 115.0,188.4 118.0,188.4 121.0,188.4 124.0,188.4 127.0,188.4 130.0,188.4 133.0,188.4 136.0,188.4 139.0,188.4 142.0,188.4 145.0,188.4 148.0,188.4 151.0,188.4 154.0,188.4 157.0,188.4 160.0,188.4 163.0,188.4 166.0,188.4 169.0,188.4 172.0,188.4 175.0,188.4 178.0,188.4 181.0,188.4 184.0,188.4 187.0,188.4 190.0,188.4 193.0,188.4 196.0,188.4 199.0,188.4 202.0,188.4 205.0,188.4 208.0,188.4 211.0,188.4 214.0,188.4 217.0,188.4 220.0,188.4 223.0,188.4 226.0,188.4 229.0,188.4 232.0,188.4 235.0,188.4 238.0,188.4 241.0,188.4 244.0,188.4 247.0,188.4 250.0,188.4 253.0,188.4 256.0,188.4 259.0,188.4 262.0,188.4 265.0,188.4 268.0,188.4 271.0,188.4 274.0,188.4 277.0,188.4 280.0,188.4 283.0,188.4 286.0,188.4 289.0,188.4 292.0,188.4 295.0,188.4 298.0,188.4 301.0,188.4 304.0,188.4 307.0,188.4 310.0,188.4 313.0,188.4 316.0,188.4 319.0,188.4 322.0,188.4 325.0,188.4 328.0,188.4 331.0,188.4 334.0,188.4 337.0,188.4 340.0,188.4 343.0,188.4 346.0,188.4 349.0,188.4 352.0,188.4 355.0,188.4 358.0,188.4 361.0,188.4 364.0,188.4 367.0,188.4 370.0,188.4 373.0,188.4 376.0,188.4 379.0,188.4 382.0,188.4 385.0,188.4 388.0,188.4 391.0,188.4 394.0,188.4 397.0,188.4 400.0,188.4 403.0,188.4 406.0,188.4 409.0,188.4 412.0,188.4 415.0,188.4 418.0,188.4 421.0,188.4 424.0,188.4 427.0,188.4 430.0,188.4" fill="none" stroke="#e11d48" stroke-width="2.6"/>
<polyline points="70.0,300.0 73.0,286.2 76.0,273.4 79.0,261.6 82.0,250.7 85.0,240.7 88.0,231.4 91.0,222.8 94.0,214.9 97.0,207.6 100.0,200.9 103.0,194.7 106.0,188.9 109.0,188.4 112.0,188.4 115.0,188.4 118.0,188.4 121.0,188.4 124.0,188.4 127.0,188.4 130.0,188.4 133.0,188.4 136.0,188.4 139.0,188.4 142.0,188.4 145.0,188.4 148.0,188.4 151.0,188.4 154.0,188.4 157.0,188.4 160.0,188.4 163.0,188.4 166.0,188.4 169.0,188.4 172.0,188.4 175.0,188.4 178.0,188.4 181.0,188.4 184.0,188.4 187.0,188.4 190.0,188.4 193.0,188.4 196.0,188.4 199.0,188.4 202.0,188.4 205.0,188.4 208.0,188.4 211.0,188.4 214.0,188.4 217.0,188.4 220.0,188.4 223.0,188.4 226.0,188.4 229.0,188.4 232.0,188.4 235.0,188.4 238.0,188.4 241.0,188.4 244.0,188.4 247.0,188.4 250.0,188.4 253.0,184.1 256.0,180.1 259.0,176.3 262.0,172.7 265.0,169.4 268.0,166.3 271.0,163.4 274.0,160.7 277.0,158.1 280.0,155.7 283.0,153.5 286.0,151.4 289.0,149.4 292.0,147.5 295.0,145.8 298.0,144.2 301.0,142.7 304.0,141.2 307.0,139.9 310.0,138.6 313.0,137.5 316.0,136.4 319.0,135.3 322.0,134.4 325.0,133.5 328.0,132.6 331.0,131.8 334.0,131.1 337.0,130.4 340.0,129.7 343.0,129.1 346.0,128.5 349.0,128.0 352.0,127.5 355.0,127.0 358.0,126.6 361.0,126.2 364.0,125.8 367.0,125.4 370.0,125.1 373.0,124.8 376.0,124.5 379.0,124.2 382.0,123.9 385.0,123.7 388.0,123.4 391.0,123.2 394.0,123.0 397.0,122.8 400.0,122.7 403.0,122.5 406.0,122.3 409.0,122.2 412.0,122.0 415.0,121.9 418.0,121.8 421.0,121.7 424.0,121.6 427.0,121.5 430.0,121.4" fill="none" stroke="#10b981" stroke-width="2.6"/>
<line x1="405.99999999999994" y1="188.4" x2="405.99999999999994" y2="100" stroke="#d97706" stroke-width="1.4"/>
<text x="411.99999999999994" y="144.2" text-anchor="start" font-family="system-ui,-apple-system,Segoe UI,Roboto,sans-serif" font-size="10" font-weight="600" fill="#d97706">residual</text>
<text x="411.99999999999994" y="157.2" text-anchor="start" font-family="system-ui,-apple-system,Segoe UI,Roboto,sans-serif" font-size="9" font-weight="400" fill="#d97706">≈(load+deadband)/Kp</text>
<text x="345.99999999999994" y="180.4" text-anchor="middle" font-family="system-ui,-apple-system,Segoe UI,Roboto,sans-serif" font-size="10" font-weight="600" fill="#e11d48">PD — stuck short</text>
<text x="345.99999999999994" y="122.0" text-anchor="middle" font-family="system-ui,-apple-system,Segoe UI,Roboto,sans-serif" font-size="10" font-weight="600" fill="#10b981">PID — breaks through</text>
<rect x="470" y="90" width="170" height="180" rx="8" fill="#f8fafc" stroke="#64748b" stroke-width="1.2"/>
<text x="555.0" y="84" text-anchor="middle" font-family="system-ui,-apple-system,Segoe UI,Roboto,sans-serif" font-size="9.5" font-weight="600" fill="#64748b">delivered command vs threshold</text>
<rect x="482" y="160" width="146" height="98" fill="#f1f5f9"/>
<line x1="482" y1="160" x2="628" y2="160" stroke="#d97706" stroke-width="1.4" stroke-dasharray="4 3"/>
<text x="626" y="156" text-anchor="end" font-family="system-ui,-apple-system,Segoe UI,Roboto,sans-serif" font-size="9" font-weight="600" fill="#d97706">breakaway</text>
<rect x="500" y="178" width="26" height="76" fill="#e11d48" opacity="0.8"/>
<text x="513" y="268" text-anchor="middle" font-family="system-ui,-apple-system,Segoe UI,Roboto,sans-serif" font-size="9" font-weight="600" fill="#e11d48">PD</text>
<rect x="565" y="110" width="26" height="144" fill="#10b981" opacity="0.85"/>
<text x="578" y="268" text-anchor="middle" font-family="system-ui,-apple-system,Segoe UI,Roboto,sans-serif" font-size="9" font-weight="600" fill="#10b981">PID</text>
<text x="555.0" y="106" text-anchor="middle" font-family="system-ui,-apple-system,Segoe UI,Roboto,sans-serif" font-size="9" font-weight="600" fill="#8b5cf6">integral accumulates ↑</text>
</svg>
