<svg viewBox="0 0 480 240" xmlns="http://www.w3.org/2000/svg" role="img" aria-label="Step responses for low, medium, and high proportional gain, each settling short of the target line by an offset equal to load over Kp, the offset bracket shrinking as the gain grows and the highest gain overshooting">
<title>Step responses for low, medium, and high proportional gain, each settling short of the target line by an offset equal to load over Kp, the offset bracket shrinking as the gain grows and the highest gain overshooting</title>
<rect width="480" height="240" fill="white"/>
<text x="240" y="24" text-anchor="middle" font-family="system-ui,-apple-system,Segoe UI,Roboto,sans-serif" font-size="13" font-weight="650" fill="#0f172a">Proportional control: higher Kp → smaller offset (e_ss = load/Kp)</text>
<rect x="64" y="46" width="360" height="150" fill="#f8fafc" stroke="#e2e8f0"/>
<line x1="64" y1="80.61538461538463" x2="424" y2="80.61538461538463" stroke="#0f172a" stroke-width="1.4" stroke-dasharray="5 4"/>
<text x="422" y="76.61538461538461" text-anchor="end" font-family="system-ui,-apple-system,Segoe UI,Roboto,sans-serif" font-size="9" font-weight="400" fill="#0f172a">target</text>
<path d="M 64.0 196.0 L 64.2 196.0 L 64.5 196.0 L 64.7 196.0 L 65.0 195.9 L 65.2 195.9 L 65.4 195.8 L 65.7 195.8 L 65.9 195.7 L 66.2 195.7 L 66.4 195.6 L 66.6 195.5 L 66.9 195.4 L 67.1 195.3 L 67.4 195.2 L 67.6 195.1 L 67.8 195.0 L 68.1 194.9 L 68.3 194.8 L 68.6 194.6 L 68.8 194.5 L 69.0 194.3 L 69.3 194.2 L 69.5 194.0 L 69.8 193.9 L 70.0 193.7 L 70.2 193.5 L 70.5 193.3 L 70.7 193.1 L 71.0 192.9 L 71.2 192.7 L 71.4 192.5 L 71.7 192.3 L 71.9 192.0 L 72.2 191.8 L 72.4 191.6 L 72.6 191.3 L 72.9 191.1 L 73.1 190.8 L 73.4 190.6 L 73.6 190.3 L 73.8 190.0 L 74.1 189.7 L 74.3 189.4 L 74.6 189.2 L 74.8 188.9 L 75.0 188.6 L 75.3 188.3 L 75.5 187.9 L 75.8 187.6 L 76.0 187.3 L 76.2 187.0 L 76.5 186.6 L 76.7 186.3 L 77.0 185.9 L 77.2 185.6 L 77.4 185.2 L 77.7 184.9 L 77.9 184.5 L 78.2 184.2 L 78.4 183.8 L 78.6 183.4 L 78.9 183.0 L 79.1 182.6 L 79.4 182.2 L 79.6 181.8 L 79.8 181.4 L 80.1 181.0 L 80.3 180.6 L 80.6 180.2 L 80.8 179.8 L 81.0 179.4 L 81.3 179.0 L 81.5 178.5 L 81.8 178.1 L 82.0 177.7 L 82.2 177.2 L 82.5 176.8 L 82.7 176.3 L 83.0 175.9 L 83.2 175.4 L 83.4 175.0 L 83.7 174.5 L 83.9 174.0 L 84.2 173.6 L 84.4 173.1 L 84.6 172.6 L 84.9 172.2 L 85.1 171.7 L 85.4 171.2 L 85.6 170.7 L 85.8 170.2 L 86.1 169.7 L 86.3 169.3 L 86.6 168.8 L 86.8 168.3 L 87.0 167.8 L 87.3 167.3 L 87.5 166.8 L 87.8 166.3 L 88.0 165.8 L 88.2 165.2 L 88.5 164.7 L 88.7 164.2 L 89.0 163.7 L 89.2 163.2 L 89.4 162.7 L 89.7 162.2 L 89.9 161.6 L 90.2 161.1 L 90.4 160.6 L 90.6 160.1 L 90.9 159.6 L 91.1 159.0 L 91.4 158.5 L 91.6 158.0 L 91.8 157.4 L 92.1 156.9 L 92.3 156.4 L 92.6 155.9 L 92.8 155.3 L 93.0 154.8 L 93.3 154.3 L 93.5 153.7 L 93.8 153.2 L 94.0 152.7 L 94.2 152.1 L 94.5 151.6 L 94.7 151.1 L 95.0 150.5 L 95.2 150.0 L 95.4 149.5 L 95.7 148.9 L 95.9 148.4 L 96.2 147.9 L 96.4 147.4 L 96.6 146.8 L 96.9 146.3 L 97.1 145.8 L 97.4 145.2 L 97.6 144.7 L 97.8 144.2 L 98.1 143.7 L 98.3 143.1 L 98.6 142.6 L 98.8 142.1 L 99.0 141.6 L 99.3 141.0 L 99.5 140.5 L 99.8 140.0 L 100.0 139.5 L 100.2 139.0 L 100.5 138.5 L 100.7 138.0 L 101.0 137.4 L 101.2 136.9 L 101.4 136.4 L 101.7 135.9 L 101.9 135.4 L 102.2 134.9 L 102.4 134.4 L 102.6 133.9 L 102.9 133.4 L 103.1 132.9 L 103.4 132.5 L 103.6 132.0 L 103.8 131.5 L 104.1 131.0 L 104.3 130.5 L 104.6 130.0 L 104.8 129.6 L 105.0 129.1 L 105.3 128.6 L 105.5 128.2 L 105.8 127.7 L 106.0 127.2 L 106.2 126.8 L 106.5 126.3 L 106.7 125.9 L 107.0 125.4 L 107.2 125.0 L 107.4 124.5 L 107.7 124.1 L 107.9 123.7 L 108.2 123.2 L 108.4 122.8 L 108.6 122.4 L 108.9 121.9 L 109.1 121.5 L 109.4 121.1 L 109.6 120.7 L 109.8 120.3 L 110.1 119.9 L 110.3 119.5 L 110.6 119.1 L 110.8 118.7 L 111.0 118.3 L 111.3 117.9 L 111.5 117.5 L 111.8 117.2 L 112.0 116.8 L 112.2 116.4 L 112.5 116.0 L 112.7 115.7 L 113.0 115.3 L 113.2 115.0 L 113.4 114.6 L 113.7 114.3 L 113.9 113.9 L 114.2 113.6 L 114.4 113.2 L 114.6 112.9 L 114.9 112.6 L 115.1 112.3 L 115.4 112.0 L 115.6 111.6 L 115.8 111.3 L 116.1 111.0 L 116.3 110.7 L 116.6 110.4 L 116.8 110.1 L 117.0 109.9 L 117.3 109.6 L 117.5 109.3 L 117.8 109.0 L 118.0 108.8 L 118.2 108.5 L 118.5 108.2 L 118.7 108.0 L 119.0 107.7 L 119.2 107.5 L 119.4 107.3 L 119.7 107.0 L 119.9 106.8 L 120.2 106.6 L 120.4 106.4 L 120.6 106.1 L 120.9 105.9 L 121.1 105.7 L 121.4 105.5 L 121.6 105.3 L 121.8 105.1 L 122.1 104.9 L 122.3 104.8 L 122.6 104.6 L 122.8 104.4 L 123.0 104.2 L 123.3 104.1 L 123.5 103.9 L 123.8 103.8 L 124.0 103.6 L 124.2 103.5 L 124.5 103.4 L 124.7 103.2 L 125.0 103.1 L 125.2 103.0 L 125.4 102.9 L 125.7 102.7 L 125.9 102.6 L 126.2 102.5 L 126.4 102.4 L 126.6 102.3 L 126.9 102.2 L 127.1 102.2 L 127.4 102.1 L 127.6 102.0 L 127.8 101.9 L 128.1 101.9 L 128.3 101.8 L 128.6 101.8 L 128.8 101.7 L 129.0 101.7 L 129.3 101.6 L 129.5 101.6 L 129.8 101.6 L 130.0 101.5 L 130.2 101.5 L 130.5 101.5 L 130.7 101.5 L 131.0 101.5 L 131.2 101.5 L 131.4 101.5 L 131.7 101.5 L 131.9 101.5 L 132.2 101.5 L 132.4 101.6 L 132.6 101.6 L 132.9 101.6 L 133.1 101.6 L 133.4 101.7 L 133.6 101.7 L 133.8 101.8 L 134.1 101.8 L 134.3 101.9 L 134.6 102.0 L 134.8 102.0 L 135.0 102.1 L 135.3 102.2 L 135.5 102.3 L 135.8 102.3 L 136.0 102.4 L 136.2 102.5 L 136.5 102.6 L 136.7 102.7 L 137.0 102.8 L 137.2 102.9 L 137.4 103.1 L 137.7 103.2 L 137.9 103.3 L 138.2 103.4 L 138.4 103.6 L 138.6 103.7 L 138.9 103.8 L 139.1 104.0 L 139.4 104.1 L 139.6 104.3 L 139.8 104.4 L 140.1 104.6 L 140.3 104.8 L 140.6 104.9 L 140.8 105.1 L 141.0 105.3 L 141.3 105.4 L 141.5 105.6 L 141.8 105.8 L 142.0 106.0 L 142.2 106.2 L 142.5 106.4 L 142.7 106.6 L 143.0 106.8 L 143.2 107.0 L 143.4 107.2 L 143.7 107.4 L 143.9 107.6 L 144.2 107.8 L 144.4 108.1 L 144.6 108.3 L 144.9 108.5 L 145.1 108.8 L 145.4 109.0 L 145.6 109.2 L 145.8 109.5 L 146.1 109.7 L 146.3 110.0 L 146.6 110.2 L 146.8 110.5 L 147.0 110.7 L 147.3 111.0 L 147.5 111.2 L 147.8 111.5 L 148.0 111.8 L 148.2 112.0 L 148.5 112.3 L 148.7 112.6 L 149.0 112.8 L 149.2 113.1 L 149.4 113.4 L 149.7 113.7 L 149.9 114.0 L 150.2 114.2 L 150.4 114.5 L 150.6 114.8 L 150.9 115.1 L 151.1 115.4 L 151.4 115.7 L 151.6 116.0 L 151.8 116.3 L 152.1 116.6 L 152.3 116.9 L 152.6 117.2 L 152.8 117.5 L 153.0 117.8 L 153.3 118.2 L 153.5 118.5 L 153.8 118.8 L 154.0 119.1 L 154.2 119.4 L 154.5 119.7 L 154.7 120.1 L 155.0 120.4 L 155.2 120.7 L 155.4 121.0 L 155.7 121.3 L 155.9 121.7 L 156.2 122.0 L 156.4 122.3 L 156.6 122.7 L 156.9 123.0 L 157.1 123.3 L 157.4 123.7 L 157.6 124.0 L 157.8 124.3 L 158.1 124.7 L 158.3 125.0 L 158.6 125.3 L 158.8 125.7 L 159.0 126.0 L 159.3 126.3 L 159.5 126.7 L 159.8 127.0 L 160.0 127.4 L 160.2 127.7 L 160.5 128.0 L 160.7 128.4 L 161.0 128.7 L 161.2 129.0 L 161.4 129.4 L 161.7 129.7 L 161.9 130.1 L 162.2 130.4 L 162.4 130.7 L 162.6 131.1 L 162.9 131.4 L 163.1 131.8 L 163.4 132.1 L 163.6 132.4 L 163.8 132.8 L 164.1 133.1 L 164.3 133.5 L 164.6 133.8 L 164.8 134.1 L 165.0 134.5 L 165.3 134.8 L 165.5 135.1 L 165.8 135.5 L 166.0 135.8 L 166.2 136.1 L 166.5 136.5 L 166.7 136.8 L 167.0 137.1 L 167.2 137.5 L 167.4 137.8 L 167.7 138.1 L 167.9 138.4 L 168.2 138.8 L 168.4 139.1 L 168.6 139.4 L 168.9 139.7 L 169.1 140.1 L 169.4 140.4 L 169.6 140.7 L 169.8 141.0 L 170.1 141.3 L 170.3 141.6 L 170.6 142.0 L 170.8 142.3 L 171.0 142.6 L 171.3 142.9 L 171.5 143.2 L 171.8 143.5 L 172.0 143.8 L 172.2 144.1 L 172.5 144.4 L 172.7 144.7 L 173.0 145.0 L 173.2 145.3 L 173.4 145.6 L 173.7 145.9 L 173.9 146.2 L 174.2 146.4 L 174.4 146.7 L 174.6 147.0 L 174.9 147.3 L 175.1 147.6 L 175.4 147.9 L 175.6 148.1 L 175.8 148.4 L 176.1 148.7 L 176.3 148.9 L 176.6 149.2 L 176.8 149.5 L 177.0 149.7 L 177.3 150.0 L 177.5 150.3 L 177.8 150.5 L 178.0 150.8 L 178.2 151.0 L 178.5 151.3 L 178.7 151.5 L 179.0 151.7 L 179.2 152.0 L 179.4 152.2 L 179.7 152.5 L 179.9 152.7 L 180.2 152.9 L 180.4 153.1 L 180.6 153.4 L 180.9 153.6 L 181.1 153.8 L 181.4 154.0 L 181.6 154.2 L 181.8 154.5 L 182.1 154.7 L 182.3 154.9 L 182.6 155.1 L 182.8 155.3 L 183.0 155.5 L 183.3 155.7 L 183.5 155.9 L 183.8 156.0 L 184.0 156.2 L 184.2 156.4 L 184.5 156.6 L 184.7 156.8 L 185.0 156.9 L 185.2 157.1 L 185.4 157.3 L 185.7 157.4 L 185.9 157.6 L 186.2 157.8 L 186.4 157.9 L 186.6 158.1 L 186.9 158.2 L 187.1 158.4 L 187.4 158.5 L 187.6 158.7 L 187.8 158.8 L 188.1 158.9 L 188.3 159.1 L 188.6 159.2 L 188.8 159.3 L 189.0 159.4 L 189.3 159.6 L 189.5 159.7 L 189.8 159.8 L 190.0 159.9 L 190.2 160.0 L 190.5 160.1 L 190.7 160.2 L 191.0 160.3 L 191.2 160.4 L 191.4 160.5 L 191.7 160.6 L 191.9 160.7 L 192.2 160.8 L 192.4 160.8 L 192.6 160.9 L 192.9 161.0 L 193.1 161.1 L 193.4 161.1 L 193.6 161.2 L 193.8 161.2 L 194.1 161.3 L 194.3 161.4 L 194.6 161.4 L 194.8 161.5 L 195.0 161.5 L 195.3 161.5 L 195.5 161.6 L 195.8 161.6 L 196.0 161.6 L 196.2 161.7 L 196.5 161.7 L 196.7 161.7 L 197.0 161.7 L 197.2 161.8 L 197.4 161.8 L 197.7 161.8 L 197.9 161.8 L 198.2 161.8 L 198.4 161.8 L 198.6 161.8 L 198.9 161.8 L 199.1 161.8 L 199.4 161.8 L 199.6 161.8 L 199.8 161.8 L 200.1 161.7 L 200.3 161.7 L 200.6 161.7 L 200.8 161.7 L 201.0 161.6 L 201.3 161.6 L 201.5 161.6 L 201.8 161.5 L 202.0 161.5 L 202.2 161.4 L 202.5 161.4 L 202.7 161.3 L 203.0 161.3 L 203.2 161.2 L 203.4 161.2 L 203.7 161.1 L 203.9 161.0 L 204.2 161.0 L 204.4 160.9 L 204.6 160.8 L 204.9 160.7 L 205.1 160.7 L 205.4 160.6 L 205.6 160.5 L 205.8 160.4 L 206.1 160.3 L 206.3 160.2 L 206.6 160.1 L 206.8 160.1 L 207.0 160.0 L 207.3 159.9 L 207.5 159.8 L 207.8 159.6 L 208.0 159.5 L 208.2 159.4 L 208.5 159.3 L 208.7 159.2 L 209.0 159.1 L 209.2 159.0 L 209.4 158.8 L 209.7 158.7 L 209.9 158.6 L 210.2 158.5 L 210.4 158.3 L 210.6 158.2 L 210.9 158.1 L 211.1 157.9 L 211.4 157.8 L 211.6 157.6 L 211.8 157.5 L 212.1 157.4 L 212.3 157.2 L 212.6 157.1 L 212.8 156.9 L 213.0 156.8 L 213.3 156.6 L 213.5 156.4 L 213.8 156.3 L 214.0 156.1 L 214.2 156.0 L 214.5 155.8 L 214.7 155.6 L 215.0 155.5 L 215.2 155.3 L 215.4 155.1 L 215.7 155.0 L 215.9 154.8 L 216.2 154.6 L 216.4 154.4 L 216.6 154.3 L 216.9 154.1 L 217.1 153.9 L 217.4 153.7 L 217.6 153.5 L 217.8 153.3 L 218.1 153.2 L 218.3 153.0 L 218.6 152.8 L 218.8 152.6 L 219.0 152.4 L 219.3 152.2 L 219.5 152.0 L 219.8 151.8 L 220.0 151.6 L 220.2 151.4 L 220.5 151.2 L 220.7 151.0 L 221.0 150.8 L 221.2 150.6 L 221.4 150.4 L 221.7 150.2 L 221.9 150.0 L 222.2 149.8 L 222.4 149.6 L 222.6 149.4 L 222.9 149.2 L 223.1 149.0 L 223.4 148.8 L 223.6 148.6 L 223.8 148.4 L 224.1 148.1 L 224.3 147.9 L 224.6 147.7 L 224.8 147.5 L 225.0 147.3 L 225.3 147.1 L 225.5 146.9 L 225.8 146.7 L 226.0 146.4 L 226.2 146.2 L 226.5 146.0 L 226.7 145.8 L 227.0 145.6 L 227.2 145.4 L 227.4 145.1 L 227.7 144.9 L 227.9 144.7 L 228.2 144.5 L 228.4 144.3 L 228.6 144.1 L 228.9 143.8 L 229.1 143.6 L 229.4 143.4 L 229.6 143.2 L 229.8 143.0 L 230.1 142.8 L 230.3 142.5 L 230.6 142.3 L 230.8 142.1 L 231.0 141.9 L 231.3 141.7 L 231.5 141.5 L 231.8 141.2 L 232.0 141.0 L 232.2 140.8 L 232.5 140.6 L 232.7 140.4 L 233.0 140.2 L 233.2 140.0 L 233.4 139.8 L 233.7 139.5 L 233.9 139.3 L 234.2 139.1 L 234.4 138.9 L 234.6 138.7 L 234.9 138.5 L 235.1 138.3 L 235.4 138.1 L 235.6 137.9 L 235.8 137.7 L 236.1 137.5 L 236.3 137.2 L 236.6 137.0 L 236.8 136.8 L 237.0 136.6 L 237.3 136.4 L 237.5 136.2 L 237.8 136.0 L 238.0 135.8 L 238.2 135.6 L 238.5 135.4 L 238.7 135.2 L 239.0 135.1 L 239.2 134.9 L 239.4 134.7 L 239.7 134.5 L 239.9 134.3 L 240.2 134.1 L 240.4 133.9 L 240.6 133.7 L 240.9 133.5 L 241.1 133.3 L 241.4 133.2 L 241.6 133.0 L 241.8 132.8 L 242.1 132.6 L 242.3 132.4 L 242.6 132.3 L 242.8 132.1 L 243.0 131.9 L 243.3 131.7 L 243.5 131.6 L 243.8 131.4 L 244.0 131.2 L 244.2 131.1 L 244.5 130.9 L 244.7 130.7 L 245.0 130.6 L 245.2 130.4 L 245.4 130.2 L 245.7 130.1 L 245.9 129.9 L 246.2 129.8 L 246.4 129.6 L 246.6 129.5 L 246.9 129.3 L 247.1 129.2 L 247.4 129.0 L 247.6 128.9 L 247.8 128.7 L 248.1 128.6 L 248.3 128.5 L 248.6 128.3 L 248.8 128.2 L 249.0 128.0 L 249.3 127.9 L 249.5 127.8 L 249.8 127.6 L 250.0 127.5 L 250.2 127.4 L 250.5 127.3 L 250.7 127.1 L 251.0 127.0 L 251.2 126.9 L 251.4 126.8 L 251.7 126.7 L 251.9 126.6 L 252.2 126.4 L 252.4 126.3 L 252.6 126.2 L 252.9 126.1 L 253.1 126.0 L 253.4 125.9 L 253.6 125.8 L 253.8 125.7 L 254.1 125.6 L 254.3 125.5 L 254.6 125.4 L 254.8 125.3 L 255.0 125.3 L 255.3 125.2 L 255.5 125.1 L 255.8 125.0 L 256.0 124.9 L 256.2 124.8 L 256.5 124.8 L 256.7 124.7 L 257.0 124.6 L 257.2 124.5 L 257.4 124.5 L 257.7 124.4 L 257.9 124.3 L 258.2 124.3 L 258.4 124.2 L 258.6 124.2 L 258.9 124.1 L 259.1 124.0 L 259.4 124.0 L 259.6 123.9 L 259.8 123.9 L 260.1 123.8 L 260.3 123.8 L 260.6 123.8 L 260.8 123.7 L 261.0 123.7 L 261.3 123.6 L 261.5 123.6 L 261.8 123.6 L 262.0 123.5 L 262.2 123.5 L 262.5 123.5 L 262.7 123.5 L 263.0 123.4 L 263.2 123.4 L 263.4 123.4 L 263.7 123.4 L 263.9 123.4 L 264.2 123.4 L 264.4 123.3 L 264.6 123.3 L 264.9 123.3 L 265.1 123.3 L 265.4 123.3 L 265.6 123.3 L 265.8 123.3 L 266.1 123.3 L 266.3 123.3 L 266.6 123.3 L 266.8 123.3 L 267.0 123.3 L 267.3 123.4 L 267.5 123.4 L 267.8 123.4 L 268.0 123.4 L 268.2 123.4 L 268.5 123.4 L 268.7 123.5 L 269.0 123.5 L 269.2 123.5 L 269.4 123.5 L 269.7 123.6 L 269.9 123.6 L 270.2 123.6 L 270.4 123.7 L 270.6 123.7 L 270.9 123.8 L 271.1 123.8 L 271.4 123.8 L 271.6 123.9 L 271.8 123.9 L 272.1 124.0 L 272.3 124.0 L 272.6 124.1 L 272.8 124.1 L 273.0 124.2 L 273.3 124.2 L 273.5 124.3 L 273.8 124.4 L 274.0 124.4 L 274.2 124.5 L 274.5 124.5 L 274.7 124.6 L 275.0 124.7 L 275.2 124.7 L 275.4 124.8 L 275.7 124.9 L 275.9 125.0 L 276.2 125.0 L 276.4 125.1 L 276.6 125.2 L 276.9 125.3 L 277.1 125.3 L 277.4 125.4 L 277.6 125.5 L 277.8 125.6 L 278.1 125.7 L 278.3 125.8 L 278.6 125.9 L 278.8 125.9 L 279.0 126.0 L 279.3 126.1 L 279.5 126.2 L 279.8 126.3 L 280.0 126.4 L 280.2 126.5 L 280.5 126.6 L 280.7 126.7 L 281.0 126.8 L 281.2 126.9 L 281.4 127.0 L 281.7 127.1 L 281.9 127.2 L 282.2 127.3 L 282.4 127.4 L 282.6 127.5 L 282.9 127.7 L 283.1 127.8 L 283.4 127.9 L 283.6 128.0 L 283.8 128.1 L 284.1 128.2 L 284.3 128.3 L 284.6 128.4 L 284.8 128.6 L 285.0 128.7 L 285.3 128.8 L 285.5 128.9 L 285.8 129.0 L 286.0 129.2 L 286.2 129.3 L 286.5 129.4 L 286.7 129.5 L 287.0 129.7 L 287.2 129.8 L 287.4 129.9 L 287.7 130.0 L 287.9 130.2 L 288.2 130.3 L 288.4 130.4 L 288.6 130.5 L 288.9 130.7 L 289.1 130.8 L 289.4 130.9 L 289.6 131.1 L 289.8 131.2 L 290.1 131.3 L 290.3 131.5 L 290.6 131.6 L 290.8 131.7 L 291.0 131.9 L 291.3 132.0 L 291.5 132.1 L 291.8 132.3 L 292.0 132.4 L 292.2 132.5 L 292.5 132.7 L 292.7 132.8 L 293.0 132.9 L 293.2 133.1 L 293.4 133.2 L 293.7 133.4 L 293.9 133.5 L 294.2 133.6 L 294.4 133.8 L 294.6 133.9 L 294.9 134.0 L 295.1 134.2 L 295.4 134.3 L 295.6 134.5 L 295.8 134.6 L 296.1 134.7 L 296.3 134.9 L 296.6 135.0 L 296.8 135.2 L 297.0 135.3 L 297.3 135.4 L 297.5 135.6 L 297.8 135.7 L 298.0 135.8 L 298.2 136.0 L 298.5 136.1 L 298.7 136.3 L 299.0 136.4 L 299.2 136.5 L 299.4 136.7 L 299.7 136.8 L 299.9 136.9 L 300.2 137.1 L 300.4 137.2 L 300.6 137.3 L 300.9 137.5 L 301.1 137.6 L 301.4 137.8 L 301.6 137.9 L 301.8 138.0 L 302.1 138.2 L 302.3 138.3 L 302.6 138.4 L 302.8 138.6 L 303.0 138.7 L 303.3 138.8 L 303.5 138.9 L 303.8 139.1 L 304.0 139.2 L 304.2 139.3 L 304.5 139.5 L 304.7 139.6 L 305.0 139.7 L 305.2 139.8 L 305.4 140.0 L 305.7 140.1 L 305.9 140.2 L 306.2 140.4 L 306.4 140.5 L 306.6 140.6 L 306.9 140.7 L 307.1 140.8 L 307.4 141.0 L 307.6 141.1 L 307.8 141.2 L 308.1 141.3 L 308.3 141.4 L 308.6 141.6 L 308.8 141.7 L 309.0 141.8 L 309.3 141.9 L 309.5 142.0 L 309.8 142.1 L 310.0 142.2 L 310.2 142.4 L 310.5 142.5 L 310.7 142.6 L 311.0 142.7 L 311.2 142.8 L 311.4 142.9 L 311.7 143.0 L 311.9 143.1 L 312.2 143.2 L 312.4 143.3 L 312.6 143.4 L 312.9 143.5 L 313.1 143.6 L 313.4 143.7 L 313.6 143.8 L 313.8 143.9 L 314.1 144.0 L 314.3 144.1 L 314.6 144.2 L 314.8 144.3 L 315.0 144.4 L 315.3 144.5 L 315.5 144.6 L 315.8 144.7 L 316.0 144.7 L 316.2 144.8 L 316.5 144.9 L 316.7 145.0 L 317.0 145.1 L 317.2 145.2 L 317.4 145.3 L 317.7 145.3 L 317.9 145.4 L 318.2 145.5 L 318.4 145.6 L 318.6 145.6 L 318.9 145.7 L 319.1 145.8 L 319.4 145.9 L 319.6 145.9 L 319.8 146.0 L 320.1 146.1 L 320.3 146.1 L 320.6 146.2 L 320.8 146.3 L 321.0 146.3 L 321.3 146.4 L 321.5 146.4 L 321.8 146.5 L 322.0 146.6 L 322.2 146.6 L 322.5 146.7 L 322.7 146.7 L 323.0 146.8 L 323.2 146.8 L 323.4 146.9 L 323.7 146.9 L 323.9 147.0 L 324.2 147.0 L 324.4 147.1 L 324.6 147.1 L 324.9 147.2 L 325.1 147.2 L 325.4 147.2 L 325.6 147.3 L 325.8 147.3 L 326.1 147.4 L 326.3 147.4 L 326.6 147.4 L 326.8 147.5 L 327.0 147.5 L 327.3 147.5 L 327.5 147.6 L 327.8 147.6 L 328.0 147.6 L 328.2 147.6 L 328.5 147.7 L 328.7 147.7 L 329.0 147.7 L 329.2 147.7 L 329.4 147.7 L 329.7 147.8 L 329.9 147.8 L 330.2 147.8 L 330.4 147.8 L 330.6 147.8 L 330.9 147.8 L 331.1 147.8 L 331.4 147.8 L 331.6 147.9 L 331.8 147.9 L 332.1 147.9 L 332.3 147.9 L 332.6 147.9 L 332.8 147.9 L 333.0 147.9 L 333.3 147.9 L 333.5 147.9 L 333.8 147.9 L 334.0 147.9 L 334.2 147.9 L 334.5 147.9 L 334.7 147.8 L 335.0 147.8 L 335.2 147.8 L 335.4 147.8 L 335.7 147.8 L 335.9 147.8 L 336.2 147.8 L 336.4 147.8 L 336.6 147.7 L 336.9 147.7 L 337.1 147.7 L 337.4 147.7 L 337.6 147.7 L 337.8 147.6 L 338.1 147.6 L 338.3 147.6 L 338.6 147.6 L 338.8 147.5 L 339.0 147.5 L 339.3 147.5 L 339.5 147.4 L 339.8 147.4 L 340.0 147.4 L 340.2 147.3 L 340.5 147.3 L 340.7 147.3 L 341.0 147.2 L 341.2 147.2 L 341.4 147.1 L 341.7 147.1 L 341.9 147.1 L 342.2 147.0 L 342.4 147.0 L 342.6 146.9 L 342.9 146.9 L 343.1 146.8 L 343.4 146.8 L 343.6 146.7 L 343.8 146.7 L 344.1 146.6 L 344.3 146.6 L 344.6 146.5 L 344.8 146.5 L 345.0 146.4 L 345.3 146.4 L 345.5 146.3 L 345.8 146.3 L 346.0 146.2 L 346.2 146.2 L 346.5 146.1 L 346.7 146.0 L 347.0 146.0 L 347.2 145.9 L 347.4 145.9 L 347.7 145.8 L 347.9 145.7 L 348.2 145.7 L 348.4 145.6 L 348.6 145.5 L 348.9 145.5 L 349.1 145.4 L 349.4 145.3 L 349.6 145.3 L 349.8 145.2 L 350.1 145.1 L 350.3 145.1 L 350.6 145.0 L 350.8 144.9 L 351.0 144.8 L 351.3 144.8 L 351.5 144.7 L 351.8 144.6 L 352.0 144.5 L 352.2 144.5 L 352.5 144.4 L 352.7 144.3 L 353.0 144.2 L 353.2 144.2 L 353.4 144.1 L 353.7 144.0 L 353.9 143.9 L 354.2 143.9 L 354.4 143.8 L 354.6 143.7 L 354.9 143.6 L 355.1 143.5 L 355.4 143.4 L 355.6 143.4 L 355.8 143.3 L 356.1 143.2 L 356.3 143.1 L 356.6 143.0 L 356.8 143.0 L 357.0 142.9 L 357.3 142.8 L 357.5 142.7 L 357.8 142.6 L 358.0 142.5 L 358.2 142.4 L 358.5 142.4 L 358.7 142.3 L 359.0 142.2 L 359.2 142.1 L 359.4 142.0 L 359.7 141.9 L 359.9 141.8 L 360.2 141.8 L 360.4 141.7 L 360.6 141.6 L 360.9 141.5 L 361.1 141.4 L 361.4 141.3 L 361.6 141.2 L 361.8 141.1 L 362.1 141.1 L 362.3 141.0 L 362.6 140.9 L 362.8 140.8 L 363.0 140.7 L 363.3 140.6 L 363.5 140.5 L 363.8 140.4 L 364.0 140.3 L 364.2 140.3 L 364.5 140.2 L 364.7 140.1 L 365.0 140.0 L 365.2 139.9 L 365.4 139.8 L 365.7 139.7 L 365.9 139.6 L 366.2 139.6 L 366.4 139.5 L 366.6 139.4 L 366.9 139.3 L 367.1 139.2 L 367.4 139.1 L 367.6 139.0 L 367.8 138.9 L 368.1 138.9 L 368.3 138.8 L 368.6 138.7 L 368.8 138.6 L 369.0 138.5 L 369.3 138.4 L 369.5 138.3 L 369.8 138.3 L 370.0 138.2 L 370.2 138.1 L 370.5 138.0 L 370.7 137.9 L 371.0 137.8 L 371.2 137.8 L 371.4 137.7 L 371.7 137.6 L 371.9 137.5 L 372.2 137.4 L 372.4 137.3 L 372.6 137.3 L 372.9 137.2 L 373.1 137.1 L 373.4 137.0 L 373.6 136.9 L 373.8 136.9 L 374.1 136.8 L 374.3 136.7 L 374.6 136.6 L 374.8 136.6 L 375.0 136.5 L 375.3 136.4 L 375.5 136.3 L 375.8 136.3 L 376.0 136.2 L 376.2 136.1 L 376.5 136.0 L 376.7 136.0 L 377.0 135.9 L 377.2 135.8 L 377.4 135.7 L 377.7 135.7 L 377.9 135.6 L 378.2 135.5 L 378.4 135.5 L 378.6 135.4 L 378.9 135.3 L 379.1 135.3 L 379.4 135.2 L 379.6 135.1 L 379.8 135.1 L 380.1 135.0 L 380.3 134.9 L 380.6 134.9 L 380.8 134.8 L 381.0 134.7 L 381.3 134.7 L 381.5 134.6 L 381.8 134.6 L 382.0 134.5 L 382.2 134.4 L 382.5 134.4 L 382.7 134.3 L 383.0 134.3 L 383.2 134.2 L 383.4 134.2 L 383.7 134.1 L 383.9 134.0 L 384.2 134.0 L 384.4 133.9 L 384.6 133.9 L 384.9 133.8 L 385.1 133.8 L 385.4 133.7 L 385.6 133.7 L 385.8 133.6 L 386.1 133.6 L 386.3 133.5 L 386.6 133.5 L 386.8 133.5 L 387.0 133.4 L 387.3 133.4 L 387.5 133.3 L 387.8 133.3 L 388.0 133.2 L 388.2 133.2 L 388.5 133.2 L 388.7 133.1 L 389.0 133.1 L 389.2 133.0 L 389.4 133.0 L 389.7 133.0 L 389.9 132.9 L 390.2 132.9 L 390.4 132.9 L 390.6 132.8 L 390.9 132.8 L 391.1 132.8 L 391.4 132.7 L 391.6 132.7 L 391.8 132.7 L 392.1 132.7 L 392.3 132.6 L 392.6 132.6 L 392.8 132.6 L 393.0 132.6 L 393.3 132.5 L 393.5 132.5 L 393.8 132.5 L 394.0 132.5 L 394.2 132.4 L 394.5 132.4 L 394.7 132.4 L 395.0 132.4 L 395.2 132.4 L 395.4 132.4 L 395.7 132.3 L 395.9 132.3 L 396.2 132.3 L 396.4 132.3 L 396.6 132.3 L 396.9 132.3 L 397.1 132.3 L 397.4 132.3 L 397.6 132.2 L 397.8 132.2 L 398.1 132.2 L 398.3 132.2 L 398.6 132.2 L 398.8 132.2 L 399.0 132.2 L 399.3 132.2 L 399.5 132.2 L 399.8 132.2 L 400.0 132.2 L 400.2 132.2 L 400.5 132.2 L 400.7 132.2 L 401.0 132.2 L 401.2 132.2 L 401.4 132.2 L 401.7 132.2 L 401.9 132.2 L 402.2 132.2 L 402.4 132.2 L 402.6 132.2 L 402.9 132.2 L 403.1 132.3 L 403.4 132.3 L 403.6 132.3 L 403.8 132.3 L 404.1 132.3 L 404.3 132.3 L 404.6 132.3 L 404.8 132.3 L 405.0 132.4 L 405.3 132.4 L 405.5 132.4 L 405.8 132.4 L 406.0 132.4 L 406.2 132.4 L 406.5 132.5 L 406.7 132.5 L 407.0 132.5 L 407.2 132.5 L 407.4 132.5 L 407.7 132.6 L 407.9 132.6 L 408.2 132.6 L 408.4 132.6 L 408.6 132.7 L 408.9 132.7 L 409.1 132.7 L 409.4 132.7 L 409.6 132.8 L 409.8 132.8 L 410.1 132.8 L 410.3 132.9 L 410.6 132.9 L 410.8 132.9 L 411.0 132.9 L 411.3 133.0 L 411.5 133.0 L 411.8 133.0 L 412.0 133.1 L 412.2 133.1 L 412.5 133.1 L 412.7 133.2 L 413.0 133.2 L 413.2 133.3 L 413.4 133.3 L 413.7 133.3 L 413.9 133.4 L 414.2 133.4 L 414.4 133.4 L 414.6 133.5 L 414.9 133.5 L 415.1 133.6 L 415.4 133.6 L 415.6 133.6 L 415.8 133.7 L 416.1 133.7 L 416.3 133.8 L 416.6 133.8 L 416.8 133.9 L 417.0 133.9 L 417.3 133.9 L 417.5 134.0 L 417.8 134.0 L 418.0 134.1 L 418.2 134.1 L 418.5 134.2 L 418.7 134.2 L 419.0 134.3 L 419.2 134.3 L 419.4 134.4 L 419.7 134.4 L 419.9 134.5 L 420.2 134.5 L 420.4 134.6 L 420.6 134.6 L 420.9 134.7 L 421.1 134.7 L 421.4 134.8 L 421.6 134.8 L 421.8 134.9 L 422.1 134.9 L 422.3 135.0 L 422.6 135.0 L 422.8 135.1 L 423.0 135.1 L 423.3 135.2 L 423.5 135.2 L 423.8 135.3 L 424.0 135.3" fill="none" stroke="#0ea5e9" stroke-width="2.4"/>
<line x1="378" y1="80.61538461538461" x2="378" y2="138.30769230769232" stroke="#0ea5e9" stroke-width="1"/>
<text x="384" y="109.46153846153847" text-anchor="start" font-family="system-ui,-apple-system,Segoe UI,Roboto,sans-serif" font-size="8" font-weight="400" fill="#0ea5e9">0.50</text>
<path d="M 64.0 196.0 L 64.2 196.0 L 64.5 195.9 L 64.7 195.8 L 65.0 195.7 L 65.2 195.6 L 65.4 195.4 L 65.7 195.2 L 65.9 194.9 L 66.2 194.7 L 66.4 194.4 L 66.6 194.1 L 66.9 193.7 L 67.1 193.4 L 67.4 193.0 L 67.6 192.5 L 67.8 192.1 L 68.1 191.6 L 68.3 191.1 L 68.6 190.5 L 68.8 190.0 L 69.0 189.4 L 69.3 188.8 L 69.5 188.2 L 69.8 187.5 L 70.0 186.8 L 70.2 186.1 L 70.5 185.4 L 70.7 184.6 L 71.0 183.8 L 71.2 183.0 L 71.4 182.2 L 71.7 181.3 L 71.9 180.5 L 72.2 179.6 L 72.4 178.6 L 72.6 177.7 L 72.9 176.7 L 73.1 175.8 L 73.4 174.8 L 73.6 173.7 L 73.8 172.7 L 74.1 171.7 L 74.3 170.6 L 74.6 169.5 L 74.8 168.4 L 75.0 167.2 L 75.3 166.1 L 75.5 164.9 L 75.8 163.8 L 76.0 162.6 L 76.2 161.4 L 76.5 160.1 L 76.7 158.9 L 77.0 157.7 L 77.2 156.4 L 77.4 155.1 L 77.7 153.8 L 77.9 152.5 L 78.2 151.2 L 78.4 149.9 L 78.6 148.6 L 78.9 147.2 L 79.1 145.9 L 79.4 144.5 L 79.6 143.1 L 79.8 141.8 L 80.1 140.4 L 80.3 139.0 L 80.6 137.6 L 80.8 136.2 L 81.0 134.8 L 81.3 133.4 L 81.5 131.9 L 81.8 130.5 L 82.0 129.1 L 82.2 127.6 L 82.5 126.2 L 82.7 124.8 L 83.0 123.3 L 83.2 121.9 L 83.4 120.4 L 83.7 119.0 L 83.9 117.5 L 84.2 116.1 L 84.4 114.6 L 84.6 113.2 L 84.9 111.8 L 85.1 110.3 L 85.4 108.9 L 85.6 107.4 L 85.8 106.0 L 86.1 104.6 L 86.3 103.2 L 86.6 101.7 L 86.8 100.3 L 87.0 98.9 L 87.3 97.5 L 87.5 96.1 L 87.8 94.7 L 88.0 93.3 L 88.2 92.0 L 88.5 90.6 L 88.7 89.2 L 89.0 87.9 L 89.2 86.6 L 89.4 85.2 L 89.7 83.9 L 89.9 82.6 L 90.2 81.3 L 90.4 80.0 L 90.6 78.7 L 90.9 77.5 L 91.1 76.2 L 91.4 75.0 L 91.6 73.8 L 91.8 72.6 L 92.1 71.4 L 92.3 70.2 L 92.6 69.0 L 92.8 67.9 L 93.0 66.7 L 93.3 65.6 L 93.5 64.5 L 93.8 63.4 L 94.0 62.3 L 94.2 61.3 L 94.5 60.2 L 94.7 59.2 L 95.0 58.2 L 95.2 57.2 L 95.4 56.2 L 95.7 55.3 L 95.9 54.3 L 96.2 53.4 L 96.4 52.5 L 96.6 51.7 L 96.9 50.8 L 97.1 50.0 L 97.4 49.1 L 97.6 48.4 L 97.8 47.6 L 98.1 46.8 L 98.3 46.1 L 98.6 45.4 L 98.8 44.7 L 99.0 44.0 L 99.3 43.3 L 99.5 42.7 L 99.8 42.1 L 100.0 41.5 L 100.2 41.0 L 100.5 40.4 L 100.7 39.9 L 101.0 39.4 L 101.2 38.9 L 101.4 38.5 L 101.7 38.0 L 101.9 37.6 L 102.2 37.2 L 102.4 36.9 L 102.6 36.5 L 102.9 36.2 L 103.1 35.9 L 103.4 35.6 L 103.6 35.4 L 103.8 35.1 L 104.1 34.9 L 104.3 34.8 L 104.6 34.6 L 104.8 34.5 L 105.0 34.3 L 105.3 34.2 L 105.5 34.2 L 105.8 34.1 L 106.0 34.1 L 106.2 34.1 L 106.5 34.1 L 106.7 34.1 L 107.0 34.2 L 107.2 34.3 L 107.4 34.4 L 107.7 34.5 L 107.9 34.7 L 108.2 34.9 L 108.4 35.0 L 108.6 35.3 L 108.9 35.5 L 109.1 35.8 L 109.4 36.0 L 109.6 36.3 L 109.8 36.6 L 110.1 37.0 L 110.3 37.3 L 110.6 37.7 L 110.8 38.1 L 111.0 38.5 L 111.3 39.0 L 111.5 39.4 L 111.8 39.9 L 112.0 40.4 L 112.2 40.9 L 112.5 41.5 L 112.7 42.0 L 113.0 42.6 L 113.2 43.2 L 113.4 43.8 L 113.7 44.4 L 113.9 45.0 L 114.2 45.7 L 114.4 46.4 L 114.6 47.1 L 114.9 47.8 L 115.1 48.5 L 115.4 49.2 L 115.6 50.0 L 115.8 50.7 L 116.1 51.5 L 116.3 52.3 L 116.6 53.1 L 116.8 53.9 L 117.0 54.8 L 117.3 55.6 L 117.5 56.5 L 117.8 57.3 L 118.0 58.2 L 118.2 59.1 L 118.5 60.0 L 118.7 61.0 L 119.0 61.9 L 119.2 62.8 L 119.4 63.8 L 119.7 64.7 L 119.9 65.7 L 120.2 66.7 L 120.4 67.7 L 120.6 68.7 L 120.9 69.7 L 121.1 70.7 L 121.4 71.7 L 121.6 72.7 L 121.8 73.8 L 122.1 74.8 L 122.3 75.8 L 122.6 76.9 L 122.8 77.9 L 123.0 79.0 L 123.3 80.1 L 123.5 81.1 L 123.8 82.2 L 124.0 83.3 L 124.2 84.4 L 124.5 85.4 L 124.7 86.5 L 125.0 87.6 L 125.2 88.7 L 125.4 89.8 L 125.7 90.9 L 125.9 92.0 L 126.2 93.1 L 126.4 94.1 L 126.6 95.2 L 126.9 96.3 L 127.1 97.4 L 127.4 98.5 L 127.6 99.6 L 127.8 100.7 L 128.1 101.8 L 128.3 102.8 L 128.6 103.9 L 128.8 105.0 L 129.0 106.0 L 129.3 107.1 L 129.5 108.2 L 129.8 109.2 L 130.0 110.3 L 130.2 111.3 L 130.5 112.3 L 130.7 113.4 L 131.0 114.4 L 131.2 115.4 L 131.4 116.4 L 131.7 117.4 L 131.9 118.4 L 132.2 119.4 L 132.4 120.4 L 132.6 121.4 L 132.9 122.3 L 133.1 123.3 L 133.4 124.2 L 133.6 125.2 L 133.8 126.1 L 134.1 127.0 L 134.3 127.9 L 134.6 128.8 L 134.8 129.7 L 135.0 130.6 L 135.3 131.4 L 135.5 132.3 L 135.8 133.1 L 136.0 133.9 L 136.2 134.7 L 136.5 135.5 L 136.7 136.3 L 137.0 137.1 L 137.2 137.9 L 137.4 138.6 L 137.7 139.3 L 137.9 140.1 L 138.2 140.8 L 138.4 141.5 L 138.6 142.1 L 138.9 142.8 L 139.1 143.5 L 139.4 144.1 L 139.6 144.7 L 139.8 145.3 L 140.1 145.9 L 140.3 146.5 L 140.6 147.0 L 140.8 147.6 L 141.0 148.1 L 141.3 148.6 L 141.5 149.1 L 141.8 149.6 L 142.0 150.0 L 142.2 150.5 L 142.5 150.9 L 142.7 151.3 L 143.0 151.7 L 143.2 152.1 L 143.4 152.5 L 143.7 152.8 L 143.9 153.1 L 144.2 153.5 L 144.4 153.8 L 144.6 154.0 L 144.9 154.3 L 145.1 154.5 L 145.4 154.8 L 145.6 155.0 L 145.8 155.2 L 146.1 155.3 L 146.3 155.5 L 146.6 155.7 L 146.8 155.8 L 147.0 155.9 L 147.3 156.0 L 147.5 156.0 L 147.8 156.1 L 148.0 156.1 L 148.2 156.2 L 148.5 156.2 L 148.7 156.2 L 149.0 156.1 L 149.2 156.1 L 149.4 156.0 L 149.7 156.0 L 149.9 155.9 L 150.2 155.8 L 150.4 155.6 L 150.6 155.5 L 150.9 155.3 L 151.1 155.1 L 151.4 155.0 L 151.6 154.8 L 151.8 154.5 L 152.1 154.3 L 152.3 154.0 L 152.6 153.8 L 152.8 153.5 L 153.0 153.2 L 153.3 152.9 L 153.5 152.5 L 153.8 152.2 L 154.0 151.8 L 154.2 151.5 L 154.5 151.1 L 154.7 150.7 L 155.0 150.3 L 155.2 149.8 L 155.4 149.4 L 155.7 149.0 L 155.9 148.5 L 156.2 148.0 L 156.4 147.5 L 156.6 147.0 L 156.9 146.5 L 157.1 146.0 L 157.4 145.4 L 157.6 144.9 L 157.8 144.3 L 158.1 143.7 L 158.3 143.1 L 158.6 142.6 L 158.8 141.9 L 159.0 141.3 L 159.3 140.7 L 159.5 140.1 L 159.8 139.4 L 160.0 138.8 L 160.2 138.1 L 160.5 137.4 L 160.7 136.7 L 161.0 136.0 L 161.2 135.3 L 161.4 134.6 L 161.7 133.9 L 161.9 133.2 L 162.2 132.5 L 162.4 131.7 L 162.6 131.0 L 162.9 130.2 L 163.1 129.5 L 163.4 128.7 L 163.6 128.0 L 163.8 127.2 L 164.1 126.4 L 164.3 125.6 L 164.6 124.8 L 164.8 124.1 L 165.0 123.3 L 165.3 122.5 L 165.5 121.7 L 165.8 120.9 L 166.0 120.0 L 166.2 119.2 L 166.5 118.4 L 166.7 117.6 L 167.0 116.8 L 167.2 116.0 L 167.4 115.2 L 167.7 114.3 L 167.9 113.5 L 168.2 112.7 L 168.4 111.9 L 168.6 111.0 L 168.9 110.2 L 169.1 109.4 L 169.4 108.6 L 169.6 107.8 L 169.8 106.9 L 170.1 106.1 L 170.3 105.3 L 170.6 104.5 L 170.8 103.7 L 171.0 102.9 L 171.3 102.1 L 171.5 101.3 L 171.8 100.5 L 172.0 99.7 L 172.2 98.9 L 172.5 98.1 L 172.7 97.3 L 173.0 96.5 L 173.2 95.8 L 173.4 95.0 L 173.7 94.2 L 173.9 93.5 L 174.2 92.7 L 174.4 92.0 L 174.6 91.2 L 174.9 90.5 L 175.1 89.8 L 175.4 89.1 L 175.6 88.3 L 175.8 87.6 L 176.1 86.9 L 176.3 86.2 L 176.6 85.6 L 176.8 84.9 L 177.0 84.2 L 177.3 83.6 L 177.5 82.9 L 177.8 82.3 L 178.0 81.6 L 178.2 81.0 L 178.5 80.4 L 178.7 79.8 L 179.0 79.2 L 179.2 78.6 L 179.4 78.0 L 179.7 77.5 L 179.9 76.9 L 180.2 76.4 L 180.4 75.8 L 180.6 75.3 L 180.9 74.8 L 181.1 74.3 L 181.4 73.8 L 181.6 73.3 L 181.8 72.9 L 182.1 72.4 L 182.3 71.9 L 182.6 71.5 L 182.8 71.1 L 183.0 70.7 L 183.3 70.3 L 183.5 69.9 L 183.8 69.5 L 184.0 69.2 L 184.2 68.8 L 184.5 68.5 L 184.7 68.1 L 185.0 67.8 L 185.2 67.5 L 185.4 67.2 L 185.7 67.0 L 185.9 66.7 L 186.2 66.4 L 186.4 66.2 L 186.6 66.0 L 186.9 65.8 L 187.1 65.6 L 187.4 65.4 L 187.6 65.2 L 187.8 65.0 L 188.1 64.9 L 188.3 64.8 L 188.6 64.6 L 188.8 64.5 L 189.0 64.4 L 189.3 64.4 L 189.5 64.3 L 189.8 64.2 L 190.0 64.2 L 190.2 64.1 L 190.5 64.1 L 190.7 64.1 L 191.0 64.1 L 191.2 64.1 L 191.4 64.2 L 191.7 64.2 L 191.9 64.3 L 192.2 64.3 L 192.4 64.4 L 192.6 64.5 L 192.9 64.6 L 193.1 64.7 L 193.4 64.9 L 193.6 65.0 L 193.8 65.2 L 194.1 65.3 L 194.3 65.5 L 194.6 65.7 L 194.8 65.9 L 195.0 66.1 L 195.3 66.3 L 195.5 66.6 L 195.8 66.8 L 196.0 67.1 L 196.2 67.3 L 196.5 67.6 L 196.7 67.9 L 197.0 68.2 L 197.2 68.5 L 197.4 68.8 L 197.7 69.2 L 197.9 69.5 L 198.2 69.8 L 198.4 70.2 L 198.6 70.6 L 198.9 71.0 L 199.1 71.3 L 199.4 71.7 L 199.6 72.1 L 199.8 72.6 L 200.1 73.0 L 200.3 73.4 L 200.6 73.9 L 200.8 74.3 L 201.0 74.8 L 201.3 75.2 L 201.5 75.7 L 201.8 76.2 L 202.0 76.7 L 202.2 77.2 L 202.5 77.7 L 202.7 78.2 L 203.0 78.7 L 203.2 79.2 L 203.4 79.7 L 203.7 80.3 L 203.9 80.8 L 204.2 81.3 L 204.4 81.9 L 204.6 82.4 L 204.9 83.0 L 205.1 83.6 L 205.4 84.1 L 205.6 84.7 L 205.8 85.3 L 206.1 85.9 L 206.3 86.5 L 206.6 87.0 L 206.8 87.6 L 207.0 88.2 L 207.3 88.8 L 207.5 89.4 L 207.8 90.0 L 208.0 90.6 L 208.2 91.2 L 208.5 91.9 L 208.7 92.5 L 209.0 93.1 L 209.2 93.7 L 209.4 94.3 L 209.7 94.9 L 209.9 95.6 L 210.2 96.2 L 210.4 96.8 L 210.6 97.4 L 210.9 98.0 L 211.1 98.7 L 211.4 99.3 L 211.6 99.9 L 211.8 100.5 L 212.1 101.1 L 212.3 101.7 L 212.6 102.4 L 212.8 103.0 L 213.0 103.6 L 213.3 104.2 L 213.5 104.8 L 213.8 105.4 L 214.0 106.0 L 214.2 106.6 L 214.5 107.2 L 214.7 107.8 L 215.0 108.4 L 215.2 109.0 L 215.4 109.6 L 215.7 110.1 L 215.9 110.7 L 216.2 111.3 L 216.4 111.9 L 216.6 112.4 L 216.9 113.0 L 217.1 113.5 L 217.4 114.1 L 217.6 114.6 L 217.8 115.2 L 218.1 115.7 L 218.3 116.2 L 218.6 116.8 L 218.8 117.3 L 219.0 117.8 L 219.3 118.3 L 219.5 118.8 L 219.8 119.3 L 220.0 119.8 L 220.2 120.2 L 220.5 120.7 L 220.7 121.2 L 221.0 121.6 L 221.2 122.1 L 221.4 122.5 L 221.7 123.0 L 221.9 123.4 L 222.2 123.8 L 222.4 124.2 L 222.6 124.6 L 222.9 125.0 L 223.1 125.4 L 223.4 125.8 L 223.6 126.2 L 223.8 126.5 L 224.1 126.9 L 224.3 127.2 L 224.6 127.6 L 224.8 127.9 L 225.0 128.2 L 225.3 128.5 L 225.5 128.8 L 225.8 129.1 L 226.0 129.4 L 226.2 129.7 L 226.5 129.9 L 226.7 130.2 L 227.0 130.5 L 227.2 130.7 L 227.4 130.9 L 227.7 131.1 L 227.9 131.3 L 228.2 131.6 L 228.4 131.7 L 228.6 131.9 L 228.9 132.1 L 229.1 132.3 L 229.4 132.4 L 229.6 132.6 L 229.8 132.7 L 230.1 132.8 L 230.3 132.9 L 230.6 133.0 L 230.8 133.1 L 231.0 133.2 L 231.3 133.3 L 231.5 133.3 L 231.8 133.4 L 232.0 133.4 L 232.2 133.5 L 232.5 133.5 L 232.7 133.5 L 233.0 133.5 L 233.2 133.5 L 233.4 133.5 L 233.7 133.5 L 233.9 133.5 L 234.2 133.4 L 234.4 133.4 L 234.6 133.3 L 234.9 133.2 L 235.1 133.2 L 235.4 133.1 L 235.6 133.0 L 235.8 132.9 L 236.1 132.8 L 236.3 132.6 L 236.6 132.5 L 236.8 132.4 L 237.0 132.2 L 237.3 132.1 L 237.5 131.9 L 237.8 131.7 L 238.0 131.5 L 238.2 131.3 L 238.5 131.1 L 238.7 130.9 L 239.0 130.7 L 239.2 130.5 L 239.4 130.3 L 239.7 130.0 L 239.9 129.8 L 240.2 129.5 L 240.4 129.3 L 240.6 129.0 L 240.9 128.7 L 241.1 128.4 L 241.4 128.1 L 241.6 127.8 L 241.8 127.5 L 242.1 127.2 L 242.3 126.9 L 242.6 126.6 L 242.8 126.2 L 243.0 125.9 L 243.3 125.6 L 243.5 125.2 L 243.8 124.9 L 244.0 124.5 L 244.2 124.1 L 244.5 123.8 L 244.7 123.4 L 245.0 123.0 L 245.2 122.6 L 245.4 122.2 L 245.7 121.8 L 245.9 121.4 L 246.2 121.0 L 246.4 120.6 L 246.6 120.2 L 246.9 119.8 L 247.1 119.4 L 247.4 118.9 L 247.6 118.5 L 247.8 118.1 L 248.1 117.7 L 248.3 117.2 L 248.6 116.8 L 248.8 116.3 L 249.0 115.9 L 249.3 115.4 L 249.5 115.0 L 249.8 114.5 L 250.0 114.1 L 250.2 113.6 L 250.5 113.2 L 250.7 112.7 L 251.0 112.2 L 251.2 111.8 L 251.4 111.3 L 251.7 110.8 L 251.9 110.4 L 252.2 109.9 L 252.4 109.4 L 252.6 109.0 L 252.9 108.5 L 253.1 108.0 L 253.4 107.6 L 253.6 107.1 L 253.8 106.6 L 254.1 106.2 L 254.3 105.7 L 254.6 105.2 L 254.8 104.8 L 255.0 104.3 L 255.3 103.9 L 255.5 103.4 L 255.8 102.9 L 256.0 102.5 L 256.2 102.0 L 256.5 101.6 L 256.7 101.1 L 257.0 100.7 L 257.2 100.2 L 257.4 99.8 L 257.7 99.3 L 257.9 98.9 L 258.2 98.5 L 258.4 98.0 L 258.6 97.6 L 258.9 97.2 L 259.1 96.8 L 259.4 96.3 L 259.6 95.9 L 259.8 95.5 L 260.1 95.1 L 260.3 94.7 L 260.6 94.3 L 260.8 93.9 L 261.0 93.5 L 261.3 93.1 L 261.5 92.8 L 261.8 92.4 L 262.0 92.0 L 262.2 91.6 L 262.5 91.3 L 262.7 90.9 L 263.0 90.6 L 263.2 90.2 L 263.4 89.9 L 263.7 89.6 L 263.9 89.2 L 264.2 88.9 L 264.4 88.6 L 264.6 88.3 L 264.9 88.0 L 265.1 87.7 L 265.4 87.4 L 265.6 87.1 L 265.8 86.8 L 266.1 86.5 L 266.3 86.3 L 266.6 86.0 L 266.8 85.7 L 267.0 85.5 L 267.3 85.2 L 267.5 85.0 L 267.8 84.8 L 268.0 84.6 L 268.2 84.3 L 268.5 84.1 L 268.7 83.9 L 269.0 83.7 L 269.2 83.5 L 269.4 83.4 L 269.7 83.2 L 269.9 83.0 L 270.2 82.9 L 270.4 82.7 L 270.6 82.6 L 270.9 82.4 L 271.1 82.3 L 271.4 82.2 L 271.6 82.1 L 271.8 82.0 L 272.1 81.9 L 272.3 81.8 L 272.6 81.7 L 272.8 81.6 L 273.0 81.5 L 273.3 81.5 L 273.5 81.4 L 273.8 81.3 L 274.0 81.3 L 274.2 81.3 L 274.5 81.2 L 274.7 81.2 L 275.0 81.2 L 275.2 81.2 L 275.4 81.2 L 275.7 81.2 L 275.9 81.2 L 276.2 81.2 L 276.4 81.3 L 276.6 81.3 L 276.9 81.3 L 277.1 81.4 L 277.4 81.5 L 277.6 81.5 L 277.8 81.6 L 278.1 81.7 L 278.3 81.8 L 278.6 81.8 L 278.8 81.9 L 279.0 82.0 L 279.3 82.2 L 279.5 82.3 L 279.8 82.4 L 280.0 82.5 L 280.2 82.7 L 280.5 82.8 L 280.7 83.0 L 281.0 83.1 L 281.2 83.3 L 281.4 83.5 L 281.7 83.6 L 281.9 83.8 L 282.2 84.0 L 282.4 84.2 L 282.6 84.4 L 282.9 84.6 L 283.1 84.8 L 283.4 85.0 L 283.6 85.2 L 283.8 85.4 L 284.1 85.7 L 284.3 85.9 L 284.6 86.1 L 284.8 86.4 L 285.0 86.6 L 285.3 86.9 L 285.5 87.1 L 285.8 87.4 L 286.0 87.7 L 286.2 87.9 L 286.5 88.2 L 286.7 88.5 L 287.0 88.8 L 287.2 89.1 L 287.4 89.4 L 287.7 89.7 L 287.9 90.0 L 288.2 90.3 L 288.4 90.6 L 288.6 90.9 L 288.9 91.2 L 289.1 91.5 L 289.4 91.8 L 289.6 92.1 L 289.8 92.5 L 290.1 92.8 L 290.3 93.1 L 290.6 93.4 L 290.8 93.8 L 291.0 94.1 L 291.3 94.4 L 291.5 94.8 L 291.8 95.1 L 292.0 95.5 L 292.2 95.8 L 292.5 96.1 L 292.7 96.5 L 293.0 96.8 L 293.2 97.2 L 293.4 97.5 L 293.7 97.9 L 293.9 98.2 L 294.2 98.6 L 294.4 98.9 L 294.6 99.3 L 294.9 99.6 L 295.1 100.0 L 295.4 100.3 L 295.6 100.7 L 295.8 101.1 L 296.1 101.4 L 296.3 101.8 L 296.6 102.1 L 296.8 102.5 L 297.0 102.8 L 297.3 103.2 L 297.5 103.5 L 297.8 103.9 L 298.0 104.2 L 298.2 104.5 L 298.5 104.9 L 298.7 105.2 L 299.0 105.6 L 299.2 105.9 L 299.4 106.2 L 299.7 106.6 L 299.9 106.9 L 300.2 107.2 L 300.4 107.6 L 300.6 107.9 L 300.9 108.2 L 301.1 108.5 L 301.4 108.9 L 301.6 109.2 L 301.8 109.5 L 302.1 109.8 L 302.3 110.1 L 302.6 110.4 L 302.8 110.7 L 303.0 111.0 L 303.3 111.3 L 303.5 111.6 L 303.8 111.9 L 304.0 112.2 L 304.2 112.4 L 304.5 112.7 L 304.7 113.0 L 305.0 113.3 L 305.2 113.5 L 305.4 113.8 L 305.7 114.1 L 305.9 114.3 L 306.2 114.6 L 306.4 114.8 L 306.6 115.0 L 306.9 115.3 L 307.1 115.5 L 307.4 115.7 L 307.6 116.0 L 307.8 116.2 L 308.1 116.4 L 308.3 116.6 L 308.6 116.8 L 308.8 117.0 L 309.0 117.2 L 309.3 117.4 L 309.5 117.6 L 309.8 117.7 L 310.0 117.9 L 310.2 118.1 L 310.5 118.3 L 310.7 118.4 L 311.0 118.6 L 311.2 118.7 L 311.4 118.9 L 311.7 119.0 L 311.9 119.1 L 312.2 119.3 L 312.4 119.4 L 312.6 119.5 L 312.9 119.6 L 313.1 119.7 L 313.4 119.8 L 313.6 119.9 L 313.8 120.0 L 314.1 120.1 L 314.3 120.1 L 314.6 120.2 L 314.8 120.3 L 315.0 120.3 L 315.3 120.4 L 315.5 120.5 L 315.8 120.5 L 316.0 120.5 L 316.2 120.6 L 316.5 120.6 L 316.7 120.6 L 317.0 120.6 L 317.2 120.6 L 317.4 120.7 L 317.7 120.7 L 317.9 120.7 L 318.2 120.6 L 318.4 120.6 L 318.6 120.6 L 318.9 120.6 L 319.1 120.5 L 319.4 120.5 L 319.6 120.5 L 319.8 120.4 L 320.1 120.4 L 320.3 120.3 L 320.6 120.2 L 320.8 120.2 L 321.0 120.1 L 321.3 120.0 L 321.5 119.9 L 321.8 119.9 L 322.0 119.8 L 322.2 119.7 L 322.5 119.6 L 322.7 119.5 L 323.0 119.3 L 323.2 119.2 L 323.4 119.1 L 323.7 119.0 L 323.9 118.8 L 324.2 118.7 L 324.4 118.6 L 324.6 118.4 L 324.9 118.3 L 325.1 118.1 L 325.4 118.0 L 325.6 117.8 L 325.8 117.7 L 326.1 117.5 L 326.3 117.3 L 326.6 117.1 L 326.8 117.0 L 327.0 116.8 L 327.3 116.6 L 327.5 116.4 L 327.8 116.2 L 328.0 116.0 L 328.2 115.8 L 328.5 115.6 L 328.7 115.4 L 329.0 115.2 L 329.2 115.0 L 329.4 114.8 L 329.7 114.5 L 329.9 114.3 L 330.2 114.1 L 330.4 113.9 L 330.6 113.6 L 330.9 113.4 L 331.1 113.2 L 331.4 112.9 L 331.6 112.7 L 331.8 112.5 L 332.1 112.2 L 332.3 112.0 L 332.6 111.7 L 332.8 111.5 L 333.0 111.2 L 333.3 111.0 L 333.5 110.7 L 333.8 110.5 L 334.0 110.2 L 334.2 109.9 L 334.5 109.7 L 334.7 109.4 L 335.0 109.2 L 335.2 108.9 L 335.4 108.6 L 335.7 108.4 L 335.9 108.1 L 336.2 107.9 L 336.4 107.6 L 336.6 107.3 L 336.9 107.1 L 337.1 106.8 L 337.4 106.5 L 337.6 106.3 L 337.8 106.0 L 338.1 105.7 L 338.3 105.5 L 338.6 105.2 L 338.8 104.9 L 339.0 104.7 L 339.3 104.4 L 339.5 104.1 L 339.8 103.9 L 340.0 103.6 L 340.2 103.4 L 340.5 103.1 L 340.7 102.8 L 341.0 102.6 L 341.2 102.3 L 341.4 102.1 L 341.7 101.8 L 341.9 101.6 L 342.2 101.3 L 342.4 101.1 L 342.6 100.8 L 342.9 100.6 L 343.1 100.3 L 343.4 100.1 L 343.6 99.8 L 343.8 99.6 L 344.1 99.4 L 344.3 99.1 L 344.6 98.9 L 344.8 98.7 L 345.0 98.4 L 345.3 98.2 L 345.5 98.0 L 345.8 97.8 L 346.0 97.6 L 346.2 97.3 L 346.5 97.1 L 346.7 96.9 L 347.0 96.7 L 347.2 96.5 L 347.4 96.3 L 347.7 96.1 L 347.9 95.9 L 348.2 95.7 L 348.4 95.5 L 348.6 95.4 L 348.9 95.2 L 349.1 95.0 L 349.4 94.8 L 349.6 94.6 L 349.8 94.5 L 350.1 94.3 L 350.3 94.1 L 350.6 94.0 L 350.8 93.8 L 351.0 93.7 L 351.3 93.5 L 351.5 93.4 L 351.8 93.3 L 352.0 93.1 L 352.2 93.0 L 352.5 92.9 L 352.7 92.7 L 353.0 92.6 L 353.2 92.5 L 353.4 92.4 L 353.7 92.3 L 353.9 92.2 L 354.2 92.1 L 354.4 92.0 L 354.6 91.9 L 354.9 91.8 L 355.1 91.7 L 355.4 91.6 L 355.6 91.6 L 355.8 91.5 L 356.1 91.4 L 356.3 91.4 L 356.6 91.3 L 356.8 91.2 L 357.0 91.2 L 357.3 91.1 L 357.5 91.1 L 357.8 91.1 L 358.0 91.0 L 358.2 91.0 L 358.5 91.0 L 358.7 90.9 L 359.0 90.9 L 359.2 90.9 L 359.4 90.9 L 359.7 90.9 L 359.9 90.9 L 360.2 90.9 L 360.4 90.9 L 360.6 90.9 L 360.9 90.9 L 361.1 91.0 L 361.4 91.0 L 361.6 91.0 L 361.8 91.0 L 362.1 91.1 L 362.3 91.1 L 362.6 91.2 L 362.8 91.2 L 363.0 91.3 L 363.3 91.3 L 363.5 91.4 L 363.8 91.4 L 364.0 91.5 L 364.2 91.6 L 364.5 91.6 L 364.7 91.7 L 365.0 91.8 L 365.2 91.9 L 365.4 92.0 L 365.7 92.1 L 365.9 92.1 L 366.2 92.2 L 366.4 92.3 L 366.6 92.5 L 366.9 92.6 L 367.1 92.7 L 367.4 92.8 L 367.6 92.9 L 367.8 93.0 L 368.1 93.1 L 368.3 93.3 L 368.6 93.4 L 368.8 93.5 L 369.0 93.7 L 369.3 93.8 L 369.5 93.9 L 369.8 94.1 L 370.0 94.2 L 370.2 94.4 L 370.5 94.5 L 370.7 94.7 L 371.0 94.8 L 371.2 95.0 L 371.4 95.2 L 371.7 95.3 L 371.9 95.5 L 372.2 95.7 L 372.4 95.8 L 372.6 96.0 L 372.9 96.2 L 373.1 96.3 L 373.4 96.5 L 373.6 96.7 L 373.8 96.9 L 374.1 97.1 L 374.3 97.2 L 374.6 97.4 L 374.8 97.6 L 375.0 97.8 L 375.3 98.0 L 375.5 98.2 L 375.8 98.4 L 376.0 98.6 L 376.2 98.7 L 376.5 98.9 L 376.7 99.1 L 377.0 99.3 L 377.2 99.5 L 377.4 99.7 L 377.7 99.9 L 377.9 100.1 L 378.2 100.3 L 378.4 100.5 L 378.6 100.7 L 378.9 100.9 L 379.1 101.1 L 379.4 101.3 L 379.6 101.5 L 379.8 101.7 L 380.1 101.9 L 380.3 102.1 L 380.6 102.3 L 380.8 102.5 L 381.0 102.7 L 381.3 102.9 L 381.5 103.1 L 381.8 103.3 L 382.0 103.5 L 382.2 103.7 L 382.5 103.9 L 382.7 104.1 L 383.0 104.3 L 383.2 104.5 L 383.4 104.7 L 383.7 104.9 L 383.9 105.1 L 384.2 105.3 L 384.4 105.5 L 384.6 105.6 L 384.9 105.8 L 385.1 106.0 L 385.4 106.2 L 385.6 106.4 L 385.8 106.6 L 386.1 106.7 L 386.3 106.9 L 386.6 107.1 L 386.8 107.3 L 387.0 107.4 L 387.3 107.6 L 387.5 107.8 L 387.8 108.0 L 388.0 108.1 L 388.2 108.3 L 388.5 108.5 L 388.7 108.6 L 389.0 108.8 L 389.2 108.9 L 389.4 109.1 L 389.7 109.2 L 389.9 109.4 L 390.2 109.5 L 390.4 109.7 L 390.6 109.8 L 390.9 110.0 L 391.1 110.1 L 391.4 110.2 L 391.6 110.4 L 391.8 110.5 L 392.1 110.6 L 392.3 110.7 L 392.6 110.9 L 392.8 111.0 L 393.0 111.1 L 393.3 111.2 L 393.5 111.3 L 393.8 111.4 L 394.0 111.5 L 394.2 111.6 L 394.5 111.7 L 394.7 111.8 L 395.0 111.9 L 395.2 112.0 L 395.4 112.1 L 395.7 112.2 L 395.9 112.3 L 396.2 112.4 L 396.4 112.4 L 396.6 112.5 L 396.9 112.6 L 397.1 112.6 L 397.4 112.7 L 397.6 112.8 L 397.8 112.8 L 398.1 112.9 L 398.3 112.9 L 398.6 113.0 L 398.8 113.0 L 399.0 113.1 L 399.3 113.1 L 399.5 113.1 L 399.8 113.2 L 400.0 113.2 L 400.2 113.2 L 400.5 113.3 L 400.7 113.3 L 401.0 113.3 L 401.2 113.3 L 401.4 113.3 L 401.7 113.3 L 401.9 113.3 L 402.2 113.3 L 402.4 113.3 L 402.6 113.3 L 402.9 113.3 L 403.1 113.3 L 403.4 113.3 L 403.6 113.3 L 403.8 113.3 L 404.1 113.2 L 404.3 113.2 L 404.6 113.2 L 404.8 113.2 L 405.0 113.1 L 405.3 113.1 L 405.5 113.0 L 405.8 113.0 L 406.0 112.9 L 406.2 112.9 L 406.5 112.8 L 406.7 112.8 L 407.0 112.7 L 407.2 112.7 L 407.4 112.6 L 407.7 112.5 L 407.9 112.5 L 408.2 112.4 L 408.4 112.3 L 408.6 112.3 L 408.9 112.2 L 409.1 112.1 L 409.4 112.0 L 409.6 111.9 L 409.8 111.8 L 410.1 111.8 L 410.3 111.7 L 410.6 111.6 L 410.8 111.5 L 411.0 111.4 L 411.3 111.3 L 411.5 111.2 L 411.8 111.1 L 412.0 111.0 L 412.2 110.8 L 412.5 110.7 L 412.7 110.6 L 413.0 110.5 L 413.2 110.4 L 413.4 110.3 L 413.7 110.1 L 413.9 110.0 L 414.2 109.9 L 414.4 109.8 L 414.6 109.7 L 414.9 109.5 L 415.1 109.4 L 415.4 109.3 L 415.6 109.1 L 415.8 109.0 L 416.1 108.9 L 416.3 108.7 L 416.6 108.6 L 416.8 108.4 L 417.0 108.3 L 417.3 108.2 L 417.5 108.0 L 417.8 107.9 L 418.0 107.7 L 418.2 107.6 L 418.5 107.4 L 418.7 107.3 L 419.0 107.2 L 419.2 107.0 L 419.4 106.9 L 419.7 106.7 L 419.9 106.6 L 420.2 106.4 L 420.4 106.3 L 420.6 106.1 L 420.9 106.0 L 421.1 105.8 L 421.4 105.7 L 421.6 105.5 L 421.8 105.4 L 422.1 105.2 L 422.3 105.1 L 422.6 104.9 L 422.8 104.8 L 423.0 104.6 L 423.3 104.5 L 423.5 104.3 L 423.8 104.2 L 424.0 104.0" fill="none" stroke="#0d9488" stroke-width="2.4"/>
<line x1="378" y1="80.61538461538461" x2="378" y2="103.6923076923077" stroke="#0d9488" stroke-width="1"/>
<text x="384" y="92.15384615384616" text-anchor="start" font-family="system-ui,-apple-system,Segoe UI,Roboto,sans-serif" font-size="8" font-weight="400" fill="#0d9488">0.20</text>
<path d="M 64.0 196.0 L 64.2 195.9 L 64.5 195.8 L 64.7 195.6 L 65.0 195.3 L 65.2 195.0 L 65.4 194.6 L 65.7 194.2 L 65.9 193.6 L 66.2 193.0 L 66.4 192.4 L 66.6 191.7 L 66.9 190.9 L 67.1 190.0 L 67.4 189.1 L 67.6 188.1 L 67.8 187.1 L 68.1 186.0 L 68.3 184.8 L 68.6 183.6 L 68.8 182.3 L 69.0 181.0 L 69.3 179.6 L 69.5 178.1 L 69.8 176.5 L 70.0 174.9 L 70.2 173.3 L 70.5 171.6 L 70.7 169.8 L 71.0 167.9 L 71.2 166.0 L 71.4 164.1 L 71.7 162.1 L 71.9 160.0 L 72.2 157.9 L 72.4 155.8 L 72.6 153.6 L 72.9 151.3 L 73.1 149.0 L 73.4 146.7 L 73.6 144.4 L 73.8 142.0 L 74.1 139.5 L 74.3 137.1 L 74.6 134.6 L 74.8 132.0 L 75.0 129.5 L 75.3 126.9 L 75.5 124.3 L 75.8 121.7 L 76.0 119.1 L 76.2 116.4 L 76.5 113.8 L 76.7 111.1 L 77.0 108.4 L 77.2 105.8 L 77.4 103.1 L 77.7 100.4 L 77.9 97.7 L 78.2 95.0 L 78.4 92.3 L 78.6 89.6 L 78.9 87.0 L 79.1 84.3 L 79.4 81.7 L 79.6 79.1 L 79.8 76.4 L 80.1 73.8 L 80.3 71.3 L 80.6 68.7 L 80.8 66.2 L 81.0 63.7 L 81.3 61.2 L 81.5 58.8 L 81.8 56.4 L 82.0 54.0 L 82.2 51.7 L 82.5 49.4 L 82.7 47.2 L 83.0 44.9 L 83.2 42.8 L 83.4 40.6 L 83.7 38.6 L 83.9 36.5 L 84.2 34.5 L 84.4 32.6 L 84.6 30.7 L 84.9 28.9 L 85.1 27.1 L 85.4 25.4 L 85.6 23.8 L 85.8 22.2 L 86.1 20.6 L 86.3 19.1 L 86.6 17.7 L 86.8 16.4 L 87.0 15.1 L 87.3 13.8 L 87.5 12.7 L 87.8 11.6 L 88.0 10.5 L 88.2 9.6 L 88.5 8.7 L 88.7 7.8 L 89.0 7.1 L 89.2 6.4 L 89.4 5.7 L 89.7 5.2 L 89.9 4.7 L 90.2 4.3 L 90.4 3.9 L 90.6 3.6 L 90.9 3.4 L 91.1 3.3 L 91.4 3.2 L 91.6 3.2 L 91.8 3.3 L 92.1 3.4 L 92.3 3.6 L 92.6 3.9 L 92.8 4.3 L 93.0 4.7 L 93.3 5.1 L 93.5 5.7 L 93.8 6.3 L 94.0 7.0 L 94.2 7.7 L 94.5 8.5 L 94.7 9.4 L 95.0 10.3 L 95.2 11.3 L 95.4 12.3 L 95.7 13.4 L 95.9 14.6 L 96.2 15.8 L 96.4 17.1 L 96.6 18.4 L 96.9 19.8 L 97.1 21.2 L 97.4 22.7 L 97.6 24.2 L 97.8 25.8 L 98.1 27.5 L 98.3 29.1 L 98.6 30.8 L 98.8 32.6 L 99.0 34.4 L 99.3 36.2 L 99.5 38.1 L 99.8 40.0 L 100.0 41.9 L 100.2 43.9 L 100.5 45.9 L 100.7 48.0 L 101.0 50.0 L 101.2 52.1 L 101.4 54.2 L 101.7 56.3 L 101.9 58.5 L 102.2 60.6 L 102.4 62.8 L 102.6 65.0 L 102.9 67.2 L 103.1 69.5 L 103.4 71.7 L 103.6 73.9 L 103.8 76.2 L 104.1 78.4 L 104.3 80.7 L 104.6 82.9 L 104.8 85.2 L 105.0 87.4 L 105.3 89.7 L 105.5 91.9 L 105.8 94.1 L 106.0 96.3 L 106.2 98.5 L 106.5 100.7 L 106.7 102.9 L 107.0 105.0 L 107.2 107.2 L 107.4 109.3 L 107.7 111.4 L 107.9 113.5 L 108.2 115.5 L 108.4 117.5 L 108.6 119.5 L 108.9 121.5 L 109.1 123.4 L 109.4 125.3 L 109.6 127.1 L 109.8 129.0 L 110.1 130.7 L 110.3 132.5 L 110.6 134.2 L 110.8 135.9 L 111.0 137.5 L 111.3 139.1 L 111.5 140.6 L 111.8 142.1 L 112.0 143.5 L 112.2 144.9 L 112.5 146.3 L 112.7 147.6 L 113.0 148.8 L 113.2 150.0 L 113.4 151.2 L 113.7 152.3 L 113.9 153.3 L 114.2 154.3 L 114.4 155.2 L 114.6 156.1 L 114.9 156.9 L 115.1 157.7 L 115.4 158.4 L 115.6 159.0 L 115.8 159.6 L 116.1 160.2 L 116.3 160.6 L 116.6 161.1 L 116.8 161.4 L 117.0 161.7 L 117.3 162.0 L 117.5 162.1 L 117.8 162.3 L 118.0 162.3 L 118.2 162.3 L 118.5 162.3 L 118.7 162.2 L 119.0 162.0 L 119.2 161.8 L 119.4 161.5 L 119.7 161.2 L 119.9 160.8 L 120.2 160.3 L 120.4 159.8 L 120.6 159.3 L 120.9 158.7 L 121.1 158.0 L 121.4 157.3 L 121.6 156.5 L 121.8 155.7 L 122.1 154.9 L 122.3 153.9 L 122.6 153.0 L 122.8 152.0 L 123.0 150.9 L 123.3 149.8 L 123.5 148.6 L 123.8 147.5 L 124.0 146.2 L 124.2 144.9 L 124.5 143.6 L 124.7 142.3 L 125.0 140.9 L 125.2 139.5 L 125.4 138.0 L 125.7 136.5 L 125.9 135.0 L 126.2 133.4 L 126.4 131.8 L 126.6 130.2 L 126.9 128.5 L 127.1 126.9 L 127.4 125.2 L 127.6 123.5 L 127.8 121.7 L 128.1 120.0 L 128.3 118.2 L 128.6 116.4 L 128.8 114.6 L 129.0 112.7 L 129.3 110.9 L 129.5 109.1 L 129.8 107.2 L 130.0 105.3 L 130.2 103.5 L 130.5 101.6 L 130.7 99.7 L 131.0 97.8 L 131.2 95.9 L 131.4 94.1 L 131.7 92.2 L 131.9 90.3 L 132.2 88.4 L 132.4 86.6 L 132.6 84.7 L 132.9 82.9 L 133.1 81.0 L 133.4 79.2 L 133.6 77.4 L 133.8 75.6 L 134.1 73.8 L 134.3 72.1 L 134.6 70.4 L 134.8 68.6 L 135.0 67.0 L 135.3 65.3 L 135.5 63.6 L 135.8 62.0 L 136.0 60.4 L 136.2 58.9 L 136.5 57.4 L 136.7 55.9 L 137.0 54.4 L 137.2 53.0 L 137.4 51.6 L 137.7 50.2 L 137.9 48.9 L 138.2 47.6 L 138.4 46.3 L 138.6 45.1 L 138.9 43.9 L 139.1 42.8 L 139.4 41.7 L 139.6 40.6 L 139.8 39.6 L 140.1 38.7 L 140.3 37.8 L 140.6 36.9 L 140.8 36.0 L 141.0 35.3 L 141.3 34.5 L 141.5 33.8 L 141.8 33.2 L 142.0 32.6 L 142.2 32.0 L 142.5 31.5 L 142.7 31.1 L 143.0 30.7 L 143.2 30.3 L 143.4 30.0 L 143.7 29.7 L 143.9 29.5 L 144.2 29.4 L 144.4 29.3 L 144.6 29.2 L 144.9 29.2 L 145.1 29.2 L 145.4 29.3 L 145.6 29.4 L 145.8 29.6 L 146.1 29.8 L 146.3 30.1 L 146.6 30.4 L 146.8 30.8 L 147.0 31.2 L 147.3 31.7 L 147.5 32.2 L 147.8 32.7 L 148.0 33.3 L 148.2 33.9 L 148.5 34.6 L 148.7 35.3 L 149.0 36.1 L 149.2 36.9 L 149.4 37.7 L 149.7 38.6 L 149.9 39.5 L 150.2 40.5 L 150.4 41.5 L 150.6 42.5 L 150.9 43.6 L 151.1 44.7 L 151.4 45.8 L 151.6 47.0 L 151.8 48.1 L 152.1 49.4 L 152.3 50.6 L 152.6 51.9 L 152.8 53.2 L 153.0 54.5 L 153.3 55.9 L 153.5 57.2 L 153.8 58.6 L 154.0 60.1 L 154.2 61.5 L 154.5 62.9 L 154.7 64.4 L 155.0 65.9 L 155.2 67.4 L 155.4 68.9 L 155.7 70.4 L 155.9 72.0 L 156.2 73.5 L 156.4 75.1 L 156.6 76.6 L 156.9 78.2 L 157.1 79.8 L 157.4 81.4 L 157.6 82.9 L 157.8 84.5 L 158.1 86.1 L 158.3 87.7 L 158.6 89.2 L 158.8 90.8 L 159.0 92.3 L 159.3 93.9 L 159.5 95.4 L 159.8 97.0 L 160.0 98.5 L 160.2 100.0 L 160.5 101.5 L 160.7 103.0 L 161.0 104.5 L 161.2 105.9 L 161.4 107.4 L 161.7 108.8 L 161.9 110.2 L 162.2 111.6 L 162.4 112.9 L 162.6 114.2 L 162.9 115.6 L 163.1 116.8 L 163.4 118.1 L 163.6 119.3 L 163.8 120.5 L 164.1 121.7 L 164.3 122.9 L 164.6 124.0 L 164.8 125.1 L 165.0 126.1 L 165.3 127.1 L 165.5 128.1 L 165.8 129.1 L 166.0 130.0 L 166.2 130.9 L 166.5 131.7 L 166.7 132.5 L 167.0 133.3 L 167.2 134.1 L 167.4 134.8 L 167.7 135.4 L 167.9 136.0 L 168.2 136.6 L 168.4 137.2 L 168.6 137.7 L 168.9 138.2 L 169.1 138.6 L 169.4 139.0 L 169.6 139.3 L 169.8 139.6 L 170.1 139.9 L 170.3 140.1 L 170.6 140.3 L 170.8 140.4 L 171.0 140.5 L 171.3 140.6 L 171.5 140.6 L 171.8 140.6 L 172.0 140.5 L 172.2 140.4 L 172.5 140.3 L 172.7 140.1 L 173.0 139.9 L 173.2 139.6 L 173.4 139.3 L 173.7 139.0 L 173.9 138.6 L 174.2 138.2 L 174.4 137.7 L 174.6 137.2 L 174.9 136.7 L 175.1 136.2 L 175.4 135.6 L 175.6 134.9 L 175.8 134.3 L 176.1 133.6 L 176.3 132.8 L 176.6 132.1 L 176.8 131.3 L 177.0 130.5 L 177.3 129.6 L 177.5 128.7 L 177.8 127.8 L 178.0 126.9 L 178.2 125.9 L 178.5 124.9 L 178.7 123.9 L 179.0 122.8 L 179.2 121.8 L 179.4 120.7 L 179.7 119.6 L 179.9 118.5 L 180.2 117.3 L 180.4 116.1 L 180.6 115.0 L 180.9 113.8 L 181.1 112.5 L 181.4 111.3 L 181.6 110.1 L 181.8 108.8 L 182.1 107.6 L 182.3 106.3 L 182.6 105.0 L 182.8 103.7 L 183.0 102.4 L 183.3 101.1 L 183.5 99.8 L 183.8 98.5 L 184.0 97.2 L 184.2 95.8 L 184.5 94.5 L 184.7 93.2 L 185.0 91.9 L 185.2 90.6 L 185.4 89.3 L 185.7 88.0 L 185.9 86.7 L 186.2 85.4 L 186.4 84.1 L 186.6 82.8 L 186.9 81.5 L 187.1 80.3 L 187.4 79.0 L 187.6 77.8 L 187.8 76.6 L 188.1 75.4 L 188.3 74.2 L 188.6 73.0 L 188.8 71.9 L 189.0 70.7 L 189.3 69.6 L 189.5 68.5 L 189.8 67.4 L 190.0 66.4 L 190.2 65.3 L 190.5 64.3 L 190.7 63.3 L 191.0 62.4 L 191.2 61.4 L 191.4 60.5 L 191.7 59.6 L 191.9 58.8 L 192.2 57.9 L 192.4 57.1 L 192.6 56.4 L 192.9 55.6 L 193.1 54.9 L 193.4 54.2 L 193.6 53.6 L 193.8 52.9 L 194.1 52.4 L 194.3 51.8 L 194.6 51.3 L 194.8 50.8 L 195.0 50.3 L 195.3 49.9 L 195.5 49.5 L 195.8 49.1 L 196.0 48.8 L 196.2 48.5 L 196.5 48.2 L 196.7 48.0 L 197.0 47.8 L 197.2 47.7 L 197.4 47.5 L 197.7 47.4 L 197.9 47.4 L 198.2 47.4 L 198.4 47.4 L 198.6 47.4 L 198.9 47.5 L 199.1 47.6 L 199.4 47.8 L 199.6 47.9 L 199.8 48.2 L 200.1 48.4 L 200.3 48.7 L 200.6 49.0 L 200.8 49.3 L 201.0 49.7 L 201.3 50.1 L 201.5 50.5 L 201.8 51.0 L 202.0 51.5 L 202.2 52.0 L 202.5 52.6 L 202.7 53.2 L 203.0 53.8 L 203.2 54.4 L 203.4 55.1 L 203.7 55.8 L 203.9 56.5 L 204.2 57.2 L 204.4 58.0 L 204.6 58.7 L 204.9 59.6 L 205.1 60.4 L 205.4 61.2 L 205.6 62.1 L 205.8 63.0 L 206.1 63.9 L 206.3 64.8 L 206.6 65.8 L 206.8 66.7 L 207.0 67.7 L 207.3 68.7 L 207.5 69.7 L 207.8 70.7 L 208.0 71.7 L 208.2 72.8 L 208.5 73.8 L 208.7 74.9 L 209.0 75.9 L 209.2 77.0 L 209.4 78.1 L 209.7 79.2 L 209.9 80.3 L 210.2 81.4 L 210.4 82.4 L 210.6 83.6 L 210.9 84.7 L 211.1 85.8 L 211.4 86.9 L 211.6 88.0 L 211.8 89.1 L 212.1 90.2 L 212.3 91.3 L 212.6 92.3 L 212.8 93.4 L 213.0 94.5 L 213.3 95.6 L 213.5 96.6 L 213.8 97.7 L 214.0 98.7 L 214.2 99.8 L 214.5 100.8 L 214.7 101.8 L 215.0 102.8 L 215.2 103.8 L 215.4 104.7 L 215.7 105.7 L 215.9 106.6 L 216.2 107.6 L 216.4 108.5 L 216.6 109.4 L 216.9 110.2 L 217.1 111.1 L 217.4 111.9 L 217.6 112.7 L 217.8 113.5 L 218.1 114.3 L 218.3 115.0 L 218.6 115.7 L 218.8 116.4 L 219.0 117.1 L 219.3 117.8 L 219.5 118.4 L 219.8 119.0 L 220.0 119.6 L 220.2 120.1 L 220.5 120.6 L 220.7 121.1 L 221.0 121.6 L 221.2 122.1 L 221.4 122.5 L 221.7 122.9 L 221.9 123.2 L 222.2 123.6 L 222.4 123.9 L 222.6 124.2 L 222.9 124.4 L 223.1 124.6 L 223.4 124.8 L 223.6 125.0 L 223.8 125.1 L 224.1 125.2 L 224.3 125.3 L 224.6 125.4 L 224.8 125.4 L 225.0 125.4 L 225.3 125.4 L 225.5 125.3 L 225.8 125.2 L 226.0 125.1 L 226.2 124.9 L 226.5 124.8 L 226.7 124.6 L 227.0 124.3 L 227.2 124.1 L 227.4 123.8 L 227.7 123.5 L 227.9 123.2 L 228.2 122.8 L 228.4 122.4 L 228.6 122.0 L 228.9 121.6 L 229.1 121.1 L 229.4 120.6 L 229.6 120.1 L 229.8 119.6 L 230.1 119.0 L 230.3 118.5 L 230.6 117.9 L 230.8 117.3 L 231.0 116.6 L 231.3 116.0 L 231.5 115.3 L 231.8 114.6 L 232.0 113.9 L 232.2 113.2 L 232.5 112.4 L 232.7 111.7 L 233.0 110.9 L 233.2 110.1 L 233.4 109.3 L 233.7 108.5 L 233.9 107.7 L 234.2 106.9 L 234.4 106.0 L 234.6 105.2 L 234.9 104.3 L 235.1 103.4 L 235.4 102.5 L 235.6 101.6 L 235.8 100.7 L 236.1 99.8 L 236.3 98.9 L 236.6 98.0 L 236.8 97.1 L 237.0 96.2 L 237.3 95.3 L 237.5 94.3 L 237.8 93.4 L 238.0 92.5 L 238.2 91.6 L 238.5 90.6 L 238.7 89.7 L 239.0 88.8 L 239.2 87.9 L 239.4 87.0 L 239.7 86.1 L 239.9 85.2 L 240.2 84.3 L 240.4 83.4 L 240.6 82.5 L 240.9 81.7 L 241.1 80.8 L 241.4 80.0 L 241.6 79.1 L 241.8 78.3 L 242.1 77.5 L 242.3 76.7 L 242.6 75.9 L 242.8 75.1 L 243.0 74.4 L 243.3 73.6 L 243.5 72.9 L 243.8 72.2 L 244.0 71.5 L 244.2 70.8 L 244.5 70.2 L 244.7 69.5 L 245.0 68.9 L 245.2 68.3 L 245.4 67.7 L 245.7 67.1 L 245.9 66.6 L 246.2 66.0 L 246.4 65.5 L 246.6 65.0 L 246.9 64.6 L 247.1 64.1 L 247.4 63.7 L 247.6 63.3 L 247.8 62.9 L 248.1 62.6 L 248.3 62.3 L 248.6 61.9 L 248.8 61.7 L 249.0 61.4 L 249.3 61.2 L 249.5 60.9 L 249.8 60.8 L 250.0 60.6 L 250.2 60.5 L 250.5 60.3 L 250.7 60.2 L 251.0 60.2 L 251.2 60.1 L 251.4 60.1 L 251.7 60.1 L 251.9 60.1 L 252.2 60.2 L 252.4 60.2 L 252.6 60.3 L 252.9 60.5 L 253.1 60.6 L 253.4 60.8 L 253.6 61.0 L 253.8 61.2 L 254.1 61.4 L 254.3 61.7 L 254.6 61.9 L 254.8 62.2 L 255.0 62.5 L 255.3 62.9 L 255.5 63.2 L 255.8 63.6 L 256.0 64.0 L 256.2 64.4 L 256.5 64.9 L 256.7 65.3 L 257.0 65.8 L 257.2 66.3 L 257.4 66.8 L 257.7 67.3 L 257.9 67.9 L 258.2 68.5 L 258.4 69.0 L 258.6 69.6 L 258.9 70.2 L 259.1 70.8 L 259.4 71.5 L 259.6 72.1 L 259.8 72.8 L 260.1 73.4 L 260.3 74.1 L 260.6 74.8 L 260.8 75.5 L 261.0 76.2 L 261.3 76.9 L 261.5 77.6 L 261.8 78.4 L 262.0 79.1 L 262.2 79.9 L 262.5 80.6 L 262.7 81.4 L 263.0 82.1 L 263.2 82.9 L 263.4 83.7 L 263.7 84.4 L 263.9 85.2 L 264.2 86.0 L 264.4 86.7 L 264.6 87.5 L 264.9 88.3 L 265.1 89.1 L 265.4 89.8 L 265.6 90.6 L 265.8 91.4 L 266.1 92.1 L 266.3 92.9 L 266.6 93.6 L 266.8 94.4 L 267.0 95.1 L 267.3 95.8 L 267.5 96.6 L 267.8 97.3 L 268.0 98.0 L 268.2 98.7 L 268.5 99.4 L 268.7 100.1 L 269.0 100.7 L 269.2 101.4 L 269.4 102.0 L 269.7 102.7 L 269.9 103.3 L 270.2 103.9 L 270.4 104.5 L 270.6 105.1 L 270.9 105.7 L 271.1 106.2 L 271.4 106.8 L 271.6 107.3 L 271.8 107.8 L 272.1 108.3 L 272.3 108.8 L 272.6 109.3 L 272.8 109.7 L 273.0 110.1 L 273.3 110.5 L 273.5 110.9 L 273.8 111.3 L 274.0 111.7 L 274.2 112.0 L 274.5 112.3 L 274.7 112.6 L 275.0 112.9 L 275.2 113.2 L 275.4 113.4 L 275.7 113.6 L 275.9 113.8 L 276.2 114.0 L 276.4 114.2 L 276.6 114.3 L 276.9 114.4 L 277.1 114.5 L 277.4 114.6 L 277.6 114.7 L 277.8 114.7 L 278.1 114.7 L 278.3 114.7 L 278.6 114.7 L 278.8 114.7 L 279.0 114.6 L 279.3 114.6 L 279.5 114.5 L 279.8 114.3 L 280.0 114.2 L 280.2 114.0 L 280.5 113.9 L 280.7 113.7 L 281.0 113.5 L 281.2 113.2 L 281.4 113.0 L 281.7 112.7 L 281.9 112.5 L 282.2 112.2 L 282.4 111.8 L 282.6 111.5 L 282.9 111.2 L 283.1 110.8 L 283.4 110.4 L 283.6 110.0 L 283.8 109.6 L 284.1 109.2 L 284.3 108.7 L 284.6 108.3 L 284.8 107.8 L 285.0 107.3 L 285.3 106.9 L 285.5 106.4 L 285.8 105.8 L 286.0 105.3 L 286.2 104.8 L 286.5 104.2 L 286.7 103.7 L 287.0 103.1 L 287.2 102.5 L 287.4 101.9 L 287.7 101.4 L 287.9 100.8 L 288.2 100.2 L 288.4 99.5 L 288.6 98.9 L 288.9 98.3 L 289.1 97.7 L 289.4 97.0 L 289.6 96.4 L 289.8 95.8 L 290.1 95.1 L 290.3 94.5 L 290.6 93.8 L 290.8 93.2 L 291.0 92.5 L 291.3 91.9 L 291.5 91.3 L 291.8 90.6 L 292.0 90.0 L 292.2 89.3 L 292.5 88.7 L 292.7 88.0 L 293.0 87.4 L 293.2 86.8 L 293.4 86.2 L 293.7 85.5 L 293.9 84.9 L 294.2 84.3 L 294.4 83.7 L 294.6 83.1 L 294.9 82.5 L 295.1 82.0 L 295.4 81.4 L 295.6 80.8 L 295.8 80.3 L 296.1 79.7 L 296.3 79.2 L 296.6 78.7 L 296.8 78.1 L 297.0 77.6 L 297.3 77.2 L 297.5 76.7 L 297.8 76.2 L 298.0 75.7 L 298.2 75.3 L 298.5 74.9 L 298.7 74.5 L 299.0 74.1 L 299.2 73.7 L 299.4 73.3 L 299.7 72.9 L 299.9 72.6 L 300.2 72.3 L 300.4 71.9 L 300.6 71.6 L 300.9 71.4 L 301.1 71.1 L 301.4 70.8 L 301.6 70.6 L 301.8 70.4 L 302.1 70.2 L 302.3 70.0 L 302.6 69.8 L 302.8 69.7 L 303.0 69.5 L 303.3 69.4 L 303.5 69.3 L 303.8 69.2 L 304.0 69.1 L 304.2 69.1 L 304.5 69.0 L 304.7 69.0 L 305.0 69.0 L 305.2 69.0 L 305.4 69.1 L 305.7 69.1 L 305.9 69.2 L 306.2 69.2 L 306.4 69.3 L 306.6 69.4 L 306.9 69.6 L 307.1 69.7 L 307.4 69.9 L 307.6 70.0 L 307.8 70.2 L 308.1 70.4 L 308.3 70.7 L 308.6 70.9 L 308.8 71.1 L 309.0 71.4 L 309.3 71.7 L 309.5 72.0 L 309.8 72.3 L 310.0 72.6 L 310.2 72.9 L 310.5 73.3 L 310.7 73.6 L 311.0 74.0 L 311.2 74.4 L 311.4 74.7 L 311.7 75.1 L 311.9 75.5 L 312.2 76.0 L 312.4 76.4 L 312.6 76.8 L 312.9 77.3 L 313.1 77.7 L 313.4 78.2 L 313.6 78.7 L 313.8 79.2 L 314.1 79.6 L 314.3 80.1 L 314.6 80.6 L 314.8 81.1 L 315.0 81.7 L 315.3 82.2 L 315.5 82.7 L 315.8 83.2 L 316.0 83.7 L 316.2 84.3 L 316.5 84.8 L 316.7 85.3 L 317.0 85.9 L 317.2 86.4 L 317.4 87.0 L 317.7 87.5 L 317.9 88.0 L 318.2 88.6 L 318.4 89.1 L 318.6 89.7 L 318.9 90.2 L 319.1 90.7 L 319.4 91.3 L 319.6 91.8 L 319.8 92.3 L 320.1 92.8 L 320.3 93.4 L 320.6 93.9 L 320.8 94.4 L 321.0 94.9 L 321.3 95.4 L 321.5 95.9 L 321.8 96.4 L 322.0 96.9 L 322.2 97.3 L 322.5 97.8 L 322.7 98.2 L 323.0 98.7 L 323.2 99.1 L 323.4 99.6 L 323.7 100.0 L 323.9 100.4 L 324.2 100.8 L 324.4 101.2 L 324.6 101.6 L 324.9 102.0 L 325.1 102.3 L 325.4 102.7 L 325.6 103.0 L 325.8 103.3 L 326.1 103.7 L 326.3 104.0 L 326.6 104.2 L 326.8 104.5 L 327.0 104.8 L 327.3 105.0 L 327.5 105.3 L 327.8 105.5 L 328.0 105.7 L 328.2 105.9 L 328.5 106.1 L 328.7 106.3 L 329.0 106.4 L 329.2 106.6 L 329.4 106.7 L 329.7 106.8 L 329.9 106.9 L 330.2 107.0 L 330.4 107.1 L 330.6 107.2 L 330.9 107.2 L 331.1 107.3 L 331.4 107.3 L 331.6 107.3 L 331.8 107.3 L 332.1 107.3 L 332.3 107.2 L 332.6 107.2 L 332.8 107.1 L 333.0 107.0 L 333.3 106.9 L 333.5 106.8 L 333.8 106.7 L 334.0 106.6 L 334.2 106.4 L 334.5 106.3 L 334.7 106.1 L 335.0 105.9 L 335.2 105.7 L 335.4 105.5 L 335.7 105.3 L 335.9 105.1 L 336.2 104.8 L 336.4 104.6 L 336.6 104.3 L 336.9 104.1 L 337.1 103.8 L 337.4 103.5 L 337.6 103.2 L 337.8 102.9 L 338.1 102.5 L 338.3 102.2 L 338.6 101.9 L 338.8 101.5 L 339.0 101.2 L 339.3 100.8 L 339.5 100.4 L 339.8 100.0 L 340.0 99.7 L 340.2 99.3 L 340.5 98.9 L 340.7 98.4 L 341.0 98.0 L 341.2 97.6 L 341.4 97.2 L 341.7 96.8 L 341.9 96.3 L 342.2 95.9 L 342.4 95.5 L 342.6 95.0 L 342.9 94.6 L 343.1 94.1 L 343.4 93.7 L 343.6 93.2 L 343.8 92.8 L 344.1 92.3 L 344.3 91.9 L 344.6 91.4 L 344.8 91.0 L 345.0 90.5 L 345.3 90.1 L 345.5 89.6 L 345.8 89.2 L 346.0 88.7 L 346.2 88.3 L 346.5 87.8 L 346.7 87.4 L 347.0 87.0 L 347.2 86.5 L 347.4 86.1 L 347.7 85.7 L 347.9 85.3 L 348.2 84.9 L 348.4 84.4 L 348.6 84.0 L 348.9 83.6 L 349.1 83.3 L 349.4 82.9 L 349.6 82.5 L 349.8 82.1 L 350.1 81.8 L 350.3 81.4 L 350.6 81.1 L 350.8 80.7 L 351.0 80.4 L 351.3 80.1 L 351.5 79.8 L 351.8 79.5 L 352.0 79.2 L 352.2 78.9 L 352.5 78.6 L 352.7 78.3 L 353.0 78.1 L 353.2 77.8 L 353.4 77.6 L 353.7 77.4 L 353.9 77.2 L 354.2 77.0 L 354.4 76.8 L 354.6 76.6 L 354.9 76.4 L 355.1 76.3 L 355.4 76.1 L 355.6 76.0 L 355.8 75.9 L 356.1 75.7 L 356.3 75.6 L 356.6 75.6 L 356.8 75.5 L 357.0 75.4 L 357.3 75.4 L 357.5 75.3 L 357.8 75.3 L 358.0 75.3 L 358.2 75.3 L 358.5 75.3 L 358.7 75.3 L 359.0 75.3 L 359.2 75.3 L 359.4 75.4 L 359.7 75.5 L 359.9 75.5 L 360.2 75.6 L 360.4 75.7 L 360.6 75.8 L 360.9 75.9 L 361.1 76.1 L 361.4 76.2 L 361.6 76.4 L 361.8 76.5 L 362.1 76.7 L 362.3 76.9 L 362.6 77.1 L 362.8 77.3 L 363.0 77.5 L 363.3 77.7 L 363.5 77.9 L 363.8 78.2 L 364.0 78.4 L 364.2 78.6 L 364.5 78.9 L 364.7 79.2 L 365.0 79.5 L 365.2 79.7 L 365.4 80.0 L 365.7 80.3 L 365.9 80.6 L 366.2 80.9 L 366.4 81.3 L 366.6 81.6 L 366.9 81.9 L 367.1 82.3 L 367.4 82.6 L 367.6 82.9 L 367.8 83.3 L 368.1 83.6 L 368.3 84.0 L 368.6 84.4 L 368.8 84.7 L 369.0 85.1 L 369.3 85.5 L 369.5 85.8 L 369.8 86.2 L 370.0 86.6 L 370.2 86.9 L 370.5 87.3 L 370.7 87.7 L 371.0 88.1 L 371.2 88.5 L 371.4 88.8 L 371.7 89.2 L 371.9 89.6 L 372.2 90.0 L 372.4 90.3 L 372.6 90.7 L 372.9 91.1 L 373.1 91.5 L 373.4 91.8 L 373.6 92.2 L 373.8 92.6 L 374.1 92.9 L 374.3 93.3 L 374.6 93.6 L 374.8 94.0 L 375.0 94.3 L 375.3 94.6 L 375.5 95.0 L 375.8 95.3 L 376.0 95.6 L 376.2 95.9 L 376.5 96.3 L 376.7 96.6 L 377.0 96.9 L 377.2 97.2 L 377.4 97.4 L 377.7 97.7 L 377.9 98.0 L 378.2 98.2 L 378.4 98.5 L 378.6 98.7 L 378.9 99.0 L 379.1 99.2 L 379.4 99.4 L 379.6 99.7 L 379.8 99.9 L 380.1 100.1 L 380.3 100.3 L 380.6 100.4 L 380.8 100.6 L 381.0 100.8 L 381.3 100.9 L 381.5 101.1 L 381.8 101.2 L 382.0 101.3 L 382.2 101.4 L 382.5 101.5 L 382.7 101.6 L 383.0 101.7 L 383.2 101.8 L 383.4 101.9 L 383.7 101.9 L 383.9 102.0 L 384.2 102.0 L 384.4 102.0 L 384.6 102.0 L 384.9 102.1 L 385.1 102.1 L 385.4 102.0 L 385.6 102.0 L 385.8 102.0 L 386.1 101.9 L 386.3 101.9 L 386.6 101.8 L 386.8 101.8 L 387.0 101.7 L 387.3 101.6 L 387.5 101.5 L 387.8 101.4 L 388.0 101.3 L 388.2 101.2 L 388.5 101.0 L 388.7 100.9 L 389.0 100.7 L 389.2 100.6 L 389.4 100.4 L 389.7 100.2 L 389.9 100.1 L 390.2 99.9 L 390.4 99.7 L 390.6 99.5 L 390.9 99.2 L 391.1 99.0 L 391.4 98.8 L 391.6 98.6 L 391.8 98.3 L 392.1 98.1 L 392.3 97.8 L 392.6 97.6 L 392.8 97.3 L 393.0 97.1 L 393.3 96.8 L 393.5 96.5 L 393.8 96.2 L 394.0 96.0 L 394.2 95.7 L 394.5 95.4 L 394.7 95.1 L 395.0 94.8 L 395.2 94.5 L 395.4 94.2 L 395.7 93.9 L 395.9 93.6 L 396.2 93.3 L 396.4 92.9 L 396.6 92.6 L 396.9 92.3 L 397.1 92.0 L 397.4 91.7 L 397.6 91.4 L 397.8 91.1 L 398.1 90.7 L 398.3 90.4 L 398.6 90.1 L 398.8 89.8 L 399.0 89.5 L 399.3 89.2 L 399.5 88.8 L 399.8 88.5 L 400.0 88.2 L 400.2 87.9 L 400.5 87.6 L 400.7 87.3 L 401.0 87.0 L 401.2 86.7 L 401.4 86.4 L 401.7 86.2 L 401.9 85.9 L 402.2 85.6 L 402.4 85.3 L 402.6 85.0 L 402.9 84.8 L 403.1 84.5 L 403.4 84.3 L 403.6 84.0 L 403.8 83.8 L 404.1 83.5 L 404.3 83.3 L 404.6 83.1 L 404.8 82.9 L 405.0 82.6 L 405.3 82.4 L 405.5 82.2 L 405.8 82.0 L 406.0 81.8 L 406.2 81.7 L 406.5 81.5 L 406.7 81.3 L 407.0 81.2 L 407.2 81.0 L 407.4 80.9 L 407.7 80.7 L 407.9 80.6 L 408.2 80.5 L 408.4 80.4 L 408.6 80.3 L 408.9 80.2 L 409.1 80.1 L 409.4 80.0 L 409.6 79.9 L 409.8 79.9 L 410.1 79.8 L 410.3 79.7 L 410.6 79.7 L 410.8 79.7 L 411.0 79.7 L 411.3 79.6 L 411.5 79.6 L 411.8 79.6 L 412.0 79.6 L 412.2 79.7 L 412.5 79.7 L 412.7 79.7 L 413.0 79.8 L 413.2 79.8 L 413.4 79.9 L 413.7 79.9 L 413.9 80.0 L 414.2 80.1 L 414.4 80.2 L 414.6 80.3 L 414.9 80.4 L 415.1 80.5 L 415.4 80.6 L 415.6 80.7 L 415.8 80.8 L 416.1 81.0 L 416.3 81.1 L 416.6 81.3 L 416.8 81.4 L 417.0 81.6 L 417.3 81.8 L 417.5 81.9 L 417.8 82.1 L 418.0 82.3 L 418.2 82.5 L 418.5 82.7 L 418.7 82.9 L 419.0 83.1 L 419.2 83.3 L 419.4 83.5 L 419.7 83.8 L 419.9 84.0 L 420.2 84.2 L 420.4 84.5 L 420.6 84.7 L 420.9 84.9 L 421.1 85.2 L 421.4 85.4 L 421.6 85.7 L 421.8 85.9 L 422.1 86.2 L 422.3 86.4 L 422.6 86.7 L 422.8 86.9 L 423.0 87.2 L 423.3 87.5 L 423.5 87.7 L 423.8 88.0 L 424.0 88.3" fill="none" stroke="#8b5cf6" stroke-width="2.4"/>
<line x1="378" y1="80.61538461538461" x2="378" y2="89.84615384615385" stroke="#8b5cf6" stroke-width="1"/>
<text x="384" y="85.23076923076923" text-anchor="start" font-family="system-ui,-apple-system,Segoe UI,Roboto,sans-serif" font-size="8" font-weight="400" fill="#8b5cf6">0.08</text>
<text x="124" y="64" text-anchor="start" font-family="system-ui,-apple-system,Segoe UI,Roboto,sans-serif" font-size="10" font-weight="400" fill="#0ea5e9">low Kp</text>
<text x="124" y="80" text-anchor="start" font-family="system-ui,-apple-system,Segoe UI,Roboto,sans-serif" font-size="10" font-weight="400" fill="#0d9488">med Kp</text>
<text x="124" y="96" text-anchor="start" font-family="system-ui,-apple-system,Segoe UI,Roboto,sans-serif" font-size="10" font-weight="400" fill="#8b5cf6">high Kp (overshoots)</text>
<text x="240" y="218" text-anchor="middle" font-family="system-ui,-apple-system,Segoe UI,Roboto,sans-serif" font-size="10" font-weight="400" fill="#64748b">each settles short of target by e_ss = load/Kp; the brackets shrink as Kp grows</text>
</svg>
