<svg viewBox="0 0 560 240" xmlns="http://www.w3.org/2000/svg" role="img" aria-label="The PID controller as three parallel blocks P, I, and D each fed the error and summed into one command, beside a step response showing the progression from P with offset to PI with overshoot to a clean precise PID converging on the target">
<title>The PID controller as three parallel blocks P, I, and D each fed the error and summed into one command, beside a step response showing the progression from P with offset to PI with overshoot to a clean precise PID converging on the target</title>
<rect width="560" height="240" fill="white"/>
<defs><marker id="ah" markerWidth="9" markerHeight="9" refX="6" refY="3" orient="auto"><path d="M0,0 L6,3 L0,6 z" fill="#64748b"/></marker></defs>
<text x="280" y="22" text-anchor="middle" font-family="system-ui,-apple-system,Segoe UI,Roboto,sans-serif" font-size="13.5" font-weight="650" fill="#0f172a">The PID controller: three parallel actions → one command</text>
<text x="30" y="84" text-anchor="middle" font-family="system-ui,-apple-system,Segoe UI,Roboto,sans-serif" font-size="12" font-weight="400" fill="#b91c1c">e</text>
<line x1="40" y1="84" x2="64" y2="69" stroke="#64748b" stroke-width="1.5"/>
<rect x="64" y="52" width="92" height="34" rx="8" fill="#f8fafc" stroke="#0d9488" stroke-width="2"/>
<text x="110.0" y="68" text-anchor="middle" font-family="system-ui,-apple-system,Segoe UI,Roboto,sans-serif" font-size="11" font-weight="650" fill="#0d9488">P</text>
<text x="110.0" y="81" text-anchor="middle" font-family="system-ui,-apple-system,Segoe UI,Roboto,sans-serif" font-size="9" font-weight="400" fill="#64748b">Kp·e</text>
<line x1="156" y1="69" x2="200" y2="100" stroke="#64748b" stroke-width="1.5"/>
<line x1="40" y1="84" x2="64" y2="117" stroke="#64748b" stroke-width="1.5"/>
<rect x="64" y="100" width="92" height="34" rx="8" fill="#f8fafc" stroke="#8b5cf6" stroke-width="2"/>
<text x="110.0" y="116" text-anchor="middle" font-family="system-ui,-apple-system,Segoe UI,Roboto,sans-serif" font-size="11" font-weight="650" fill="#8b5cf6">I</text>
<text x="110.0" y="129" text-anchor="middle" font-family="system-ui,-apple-system,Segoe UI,Roboto,sans-serif" font-size="9" font-weight="400" fill="#64748b">Ki·∫e</text>
<line x1="156" y1="117" x2="200" y2="100" stroke="#64748b" stroke-width="1.5"/>
<line x1="40" y1="84" x2="64" y2="165" stroke="#64748b" stroke-width="1.5"/>
<rect x="64" y="148" width="92" height="34" rx="8" fill="#f8fafc" stroke="#0ea5e9" stroke-width="2"/>
<text x="110.0" y="164" text-anchor="middle" font-family="system-ui,-apple-system,Segoe UI,Roboto,sans-serif" font-size="11" font-weight="650" fill="#0ea5e9">D</text>
<text x="110.0" y="177" text-anchor="middle" font-family="system-ui,-apple-system,Segoe UI,Roboto,sans-serif" font-size="9" font-weight="400" fill="#64748b">Kd·ė</text>
<line x1="156" y1="165" x2="200" y2="100" stroke="#64748b" stroke-width="1.5"/>
<circle cx="214" cy="100" r="16" fill="#f8fafc" stroke="#0f172a" stroke-width="2"/>
<text x="214" y="105" text-anchor="middle" font-family="system-ui,-apple-system,Segoe UI,Roboto,sans-serif" font-size="15" font-weight="400" fill="#0f172a">∑</text>
<line x1="230" y1="100" x2="262" y2="100" stroke="#64748b" stroke-width="2" marker-end="url(#ah)"/>
<text x="250" y="92" text-anchor="middle" font-family="system-ui,-apple-system,Segoe UI,Roboto,sans-serif" font-size="11" font-weight="400" fill="#8b5cf6">u</text>
<rect x="280" y="46" width="250" height="150" fill="#f8fafc" stroke="#e2e8f0"/>
<line x1="280" y1="88.85714285714285" x2="530" y2="88.85714285714285" stroke="#0f172a" stroke-width="1.2" stroke-dasharray="5 4"/>
<path d="M 280.0 196.0 L 280.2 196.0 L 280.3 195.9 L 280.5 195.8 L 280.7 195.7 L 280.8 195.6 L 281.0 195.4 L 281.2 195.2 L 281.3 195.0 L 281.5 194.8 L 281.7 194.5 L 281.8 194.2 L 282.0 193.9 L 282.2 193.6 L 282.3 193.2 L 282.5 192.8 L 282.7 192.4 L 282.8 192.0 L 283.0 191.5 L 283.2 191.0 L 283.3 190.5 L 283.5 190.0 L 283.7 189.4 L 283.8 188.9 L 284.0 188.3 L 284.2 187.7 L 284.3 187.0 L 284.5 186.4 L 284.7 185.7 L 284.8 185.0 L 285.0 184.3 L 285.2 183.6 L 285.3 182.8 L 285.5 182.0 L 285.7 181.2 L 285.8 180.4 L 286.0 179.6 L 286.2 178.8 L 286.3 177.9 L 286.5 177.0 L 286.7 176.1 L 286.8 175.2 L 287.0 174.3 L 287.2 173.4 L 287.3 172.4 L 287.5 171.5 L 287.7 170.5 L 287.8 169.5 L 288.0 168.5 L 288.2 167.5 L 288.3 166.5 L 288.5 165.4 L 288.7 164.4 L 288.8 163.3 L 289.0 162.3 L 289.2 161.2 L 289.3 160.1 L 289.5 159.0 L 289.7 157.9 L 289.8 156.8 L 290.0 155.6 L 290.2 154.5 L 290.3 153.4 L 290.5 152.2 L 290.7 151.1 L 290.8 149.9 L 291.0 148.8 L 291.2 147.6 L 291.3 146.4 L 291.5 145.3 L 291.7 144.1 L 291.8 142.9 L 292.0 141.7 L 292.2 140.5 L 292.3 139.4 L 292.5 138.2 L 292.7 137.0 L 292.8 135.8 L 293.0 134.6 L 293.2 133.4 L 293.3 132.2 L 293.5 131.0 L 293.7 129.8 L 293.8 128.6 L 294.0 127.5 L 294.2 126.3 L 294.3 125.1 L 294.5 123.9 L 294.7 122.7 L 294.8 121.6 L 295.0 120.4 L 295.2 119.2 L 295.3 118.1 L 295.5 116.9 L 295.7 115.8 L 295.8 114.6 L 296.0 113.5 L 296.2 112.3 L 296.3 111.2 L 296.5 110.1 L 296.7 109.0 L 296.8 107.9 L 297.0 106.8 L 297.2 105.7 L 297.3 104.6 L 297.5 103.5 L 297.7 102.5 L 297.8 101.4 L 298.0 100.4 L 298.2 99.4 L 298.3 98.3 L 298.5 97.3 L 298.7 96.3 L 298.8 95.3 L 299.0 94.3 L 299.2 93.4 L 299.3 92.4 L 299.5 91.5 L 299.7 90.5 L 299.8 89.6 L 300.0 88.7 L 300.2 87.8 L 300.3 86.9 L 300.5 86.1 L 300.7 85.2 L 300.8 84.4 L 301.0 83.5 L 301.2 82.7 L 301.3 81.9 L 301.5 81.1 L 301.7 80.4 L 301.8 79.6 L 302.0 78.9 L 302.2 78.1 L 302.3 77.4 L 302.5 76.7 L 302.7 76.0 L 302.8 75.4 L 303.0 74.7 L 303.2 74.1 L 303.3 73.5 L 303.5 72.8 L 303.7 72.3 L 303.8 71.7 L 304.0 71.1 L 304.2 70.6 L 304.3 70.1 L 304.5 69.5 L 304.7 69.1 L 304.8 68.6 L 305.0 68.1 L 305.2 67.7 L 305.3 67.2 L 305.5 66.8 L 305.7 66.4 L 305.8 66.1 L 306.0 65.7 L 306.2 65.4 L 306.3 65.0 L 306.5 64.7 L 306.7 64.4 L 306.8 64.1 L 307.0 63.9 L 307.2 63.6 L 307.3 63.4 L 307.5 63.2 L 307.7 63.0 L 307.8 62.8 L 308.0 62.7 L 308.2 62.5 L 308.3 62.4 L 308.5 62.3 L 308.7 62.2 L 308.8 62.1 L 309.0 62.0 L 309.2 62.0 L 309.3 61.9 L 309.5 61.9 L 309.7 61.9 L 309.8 61.9 L 310.0 62.0 L 310.2 62.0 L 310.3 62.1 L 310.5 62.1 L 310.7 62.2 L 310.8 62.3 L 311.0 62.4 L 311.2 62.6 L 311.3 62.7 L 311.5 62.9 L 311.7 63.0 L 311.8 63.2 L 312.0 63.4 L 312.2 63.7 L 312.3 63.9 L 312.5 64.1 L 312.7 64.4 L 312.8 64.7 L 313.0 64.9 L 313.2 65.2 L 313.3 65.5 L 313.5 65.9 L 313.7 66.2 L 313.8 66.5 L 314.0 66.9 L 314.2 67.3 L 314.3 67.6 L 314.5 68.0 L 314.7 68.4 L 314.8 68.8 L 315.0 69.3 L 315.2 69.7 L 315.3 70.1 L 315.5 70.6 L 315.7 71.1 L 315.8 71.5 L 316.0 72.0 L 316.2 72.5 L 316.3 73.0 L 316.5 73.5 L 316.7 74.0 L 316.8 74.6 L 317.0 75.1 L 317.2 75.6 L 317.3 76.2 L 317.5 76.7 L 317.7 77.3 L 317.8 77.9 L 318.0 78.5 L 318.2 79.0 L 318.3 79.6 L 318.5 80.2 L 318.7 80.8 L 318.8 81.4 L 319.0 82.0 L 319.2 82.7 L 319.3 83.3 L 319.5 83.9 L 319.7 84.5 L 319.8 85.2 L 320.0 85.8 L 320.2 86.5 L 320.3 87.1 L 320.5 87.8 L 320.7 88.4 L 320.8 89.1 L 321.0 89.7 L 321.2 90.4 L 321.3 91.1 L 321.5 91.7 L 321.7 92.4 L 321.8 93.1 L 322.0 93.7 L 322.2 94.4 L 322.3 95.1 L 322.5 95.7 L 322.7 96.4 L 322.8 97.1 L 323.0 97.8 L 323.2 98.4 L 323.3 99.1 L 323.5 99.8 L 323.7 100.5 L 323.8 101.1 L 324.0 101.8 L 324.2 102.5 L 324.3 103.1 L 324.5 103.8 L 324.7 104.4 L 324.8 105.1 L 325.0 105.8 L 325.2 106.4 L 325.3 107.1 L 325.5 107.7 L 325.7 108.3 L 325.8 109.0 L 326.0 109.6 L 326.2 110.3 L 326.3 110.9 L 326.5 111.5 L 326.7 112.1 L 326.8 112.7 L 327.0 113.4 L 327.2 114.0 L 327.3 114.6 L 327.5 115.2 L 327.7 115.7 L 327.8 116.3 L 328.0 116.9 L 328.2 117.5 L 328.3 118.0 L 328.5 118.6 L 328.7 119.2 L 328.8 119.7 L 329.0 120.3 L 329.2 120.8 L 329.3 121.3 L 329.5 121.8 L 329.7 122.3 L 329.8 122.9 L 330.0 123.4 L 330.2 123.8 L 330.3 124.3 L 330.5 124.8 L 330.7 125.3 L 330.8 125.7 L 331.0 126.2 L 331.2 126.6 L 331.3 127.1 L 331.5 127.5 L 331.7 127.9 L 331.8 128.3 L 332.0 128.7 L 332.2 129.1 L 332.3 129.5 L 332.5 129.9 L 332.7 130.3 L 332.8 130.6 L 333.0 131.0 L 333.2 131.3 L 333.3 131.7 L 333.5 132.0 L 333.7 132.3 L 333.8 132.6 L 334.0 132.9 L 334.2 133.2 L 334.3 133.5 L 334.5 133.8 L 334.7 134.0 L 334.8 134.3 L 335.0 134.5 L 335.2 134.8 L 335.3 135.0 L 335.5 135.2 L 335.7 135.4 L 335.8 135.6 L 336.0 135.8 L 336.2 136.0 L 336.3 136.1 L 336.5 136.3 L 336.7 136.4 L 336.8 136.6 L 337.0 136.7 L 337.2 136.8 L 337.3 136.9 L 337.5 137.0 L 337.7 137.1 L 337.8 137.2 L 338.0 137.3 L 338.2 137.4 L 338.3 137.4 L 338.5 137.5 L 338.7 137.5 L 338.8 137.5 L 339.0 137.6 L 339.2 137.6 L 339.3 137.6 L 339.5 137.6 L 339.7 137.6 L 339.8 137.5 L 340.0 137.5 L 340.2 137.5 L 340.3 137.4 L 340.5 137.4 L 340.7 137.3 L 340.8 137.2 L 341.0 137.2 L 341.2 137.1 L 341.3 137.0 L 341.5 136.9 L 341.7 136.7 L 341.8 136.6 L 342.0 136.5 L 342.2 136.4 L 342.3 136.2 L 342.5 136.1 L 342.7 135.9 L 342.8 135.7 L 343.0 135.6 L 343.2 135.4 L 343.3 135.2 L 343.5 135.0 L 343.7 134.8 L 343.8 134.6 L 344.0 134.4 L 344.2 134.2 L 344.3 134.0 L 344.5 133.7 L 344.7 133.5 L 344.8 133.2 L 345.0 133.0 L 345.2 132.7 L 345.3 132.5 L 345.5 132.2 L 345.7 131.9 L 345.8 131.7 L 346.0 131.4 L 346.2 131.1 L 346.3 130.8 L 346.5 130.5 L 346.7 130.2 L 346.8 129.9 L 347.0 129.6 L 347.2 129.3 L 347.3 129.0 L 347.5 128.6 L 347.7 128.3 L 347.8 128.0 L 348.0 127.7 L 348.2 127.3 L 348.3 127.0 L 348.5 126.6 L 348.7 126.3 L 348.8 126.0 L 349.0 125.6 L 349.2 125.2 L 349.3 124.9 L 349.5 124.5 L 349.7 124.2 L 349.8 123.8 L 350.0 123.4 L 350.2 123.1 L 350.3 122.7 L 350.5 122.3 L 350.7 122.0 L 350.8 121.6 L 351.0 121.2 L 351.2 120.8 L 351.3 120.5 L 351.5 120.1 L 351.7 119.7 L 351.8 119.3 L 352.0 119.0 L 352.2 118.6 L 352.3 118.2 L 352.5 117.8 L 352.7 117.4 L 352.8 117.1 L 353.0 116.7 L 353.2 116.3 L 353.3 115.9 L 353.5 115.5 L 353.7 115.2 L 353.8 114.8 L 354.0 114.4 L 354.2 114.0 L 354.3 113.7 L 354.5 113.3 L 354.7 112.9 L 354.8 112.6 L 355.0 112.2 L 355.2 111.8 L 355.3 111.5 L 355.5 111.1 L 355.7 110.7 L 355.8 110.4 L 356.0 110.0 L 356.2 109.7 L 356.3 109.3 L 356.5 109.0 L 356.7 108.6 L 356.8 108.3 L 357.0 107.9 L 357.2 107.6 L 357.3 107.3 L 357.5 106.9 L 357.7 106.6 L 357.8 106.3 L 358.0 106.0 L 358.2 105.7 L 358.3 105.3 L 358.5 105.0 L 358.7 104.7 L 358.8 104.4 L 359.0 104.1 L 359.2 103.8 L 359.3 103.5 L 359.5 103.3 L 359.7 103.0 L 359.8 102.7 L 360.0 102.4 L 360.2 102.1 L 360.3 101.9 L 360.5 101.6 L 360.7 101.4 L 360.8 101.1 L 361.0 100.9 L 361.2 100.6 L 361.3 100.4 L 361.5 100.1 L 361.7 99.9 L 361.8 99.7 L 362.0 99.5 L 362.2 99.3 L 362.3 99.0 L 362.5 98.8 L 362.7 98.6 L 362.8 98.4 L 363.0 98.3 L 363.2 98.1 L 363.3 97.9 L 363.5 97.7 L 363.7 97.5 L 363.8 97.4 L 364.0 97.2 L 364.2 97.1 L 364.3 96.9 L 364.5 96.8 L 364.7 96.6 L 364.8 96.5 L 365.0 96.4 L 365.2 96.3 L 365.3 96.1 L 365.5 96.0 L 365.7 95.9 L 365.8 95.8 L 366.0 95.7 L 366.2 95.6 L 366.3 95.5 L 366.5 95.5 L 366.7 95.4 L 366.8 95.3 L 367.0 95.3 L 367.2 95.2 L 367.3 95.1 L 367.5 95.1 L 367.7 95.0 L 367.8 95.0 L 368.0 95.0 L 368.2 94.9 L 368.3 94.9 L 368.5 94.9 L 368.7 94.9 L 368.8 94.9 L 369.0 94.9 L 369.2 94.9 L 369.3 94.9 L 369.5 94.9 L 369.7 94.9 L 369.8 94.9 L 370.0 95.0 L 370.2 95.0 L 370.3 95.0 L 370.5 95.1 L 370.7 95.1 L 370.8 95.2 L 371.0 95.2 L 371.2 95.3 L 371.3 95.3 L 371.5 95.4 L 371.7 95.5 L 371.8 95.6 L 372.0 95.6 L 372.2 95.7 L 372.3 95.8 L 372.5 95.9 L 372.7 96.0 L 372.8 96.1 L 373.0 96.2 L 373.2 96.3 L 373.3 96.4 L 373.5 96.5 L 373.7 96.7 L 373.8 96.8 L 374.0 96.9 L 374.2 97.0 L 374.3 97.2 L 374.5 97.3 L 374.7 97.4 L 374.8 97.6 L 375.0 97.7 L 375.2 97.9 L 375.3 98.0 L 375.5 98.2 L 375.7 98.3 L 375.8 98.5 L 376.0 98.7 L 376.2 98.8 L 376.3 99.0 L 376.5 99.2 L 376.7 99.3 L 376.8 99.5 L 377.0 99.7 L 377.2 99.9 L 377.3 100.1 L 377.5 100.3 L 377.7 100.4 L 377.8 100.6 L 378.0 100.8 L 378.2 101.0 L 378.3 101.2 L 378.5 101.4 L 378.7 101.6 L 378.8 101.8 L 379.0 102.0 L 379.2 102.2 L 379.3 102.4 L 379.5 102.6 L 379.7 102.8 L 379.8 103.0 L 380.0 103.2 L 380.2 103.4 L 380.3 103.6 L 380.5 103.9 L 380.7 104.1 L 380.8 104.3 L 381.0 104.5 L 381.2 104.7 L 381.3 104.9 L 381.5 105.1 L 381.7 105.3 L 381.8 105.6 L 382.0 105.8 L 382.2 106.0 L 382.3 106.2 L 382.5 106.4 L 382.7 106.6 L 382.8 106.8 L 383.0 107.1 L 383.2 107.3 L 383.3 107.5 L 383.5 107.7 L 383.7 107.9 L 383.8 108.1 L 384.0 108.3 L 384.2 108.5 L 384.3 108.8 L 384.5 109.0 L 384.7 109.2 L 384.8 109.4 L 385.0 109.6 L 385.2 109.8 L 385.3 110.0 L 385.5 110.2 L 385.7 110.4 L 385.8 110.6 L 386.0 110.8 L 386.2 111.0 L 386.3 111.2 L 386.5 111.4 L 386.7 111.6 L 386.8 111.8 L 387.0 111.9 L 387.2 112.1 L 387.3 112.3 L 387.5 112.5 L 387.7 112.7 L 387.8 112.9 L 388.0 113.0 L 388.2 113.2 L 388.3 113.4 L 388.5 113.6 L 388.7 113.7 L 388.8 113.9 L 389.0 114.1 L 389.2 114.2 L 389.3 114.4 L 389.5 114.5 L 389.7 114.7 L 389.8 114.8 L 390.0 115.0 L 390.2 115.1 L 390.3 115.3 L 390.5 115.4 L 390.7 115.6 L 390.8 115.7 L 391.0 115.8 L 391.2 116.0 L 391.3 116.1 L 391.5 116.2 L 391.7 116.4 L 391.8 116.5 L 392.0 116.6 L 392.2 116.7 L 392.3 116.8 L 392.5 116.9 L 392.7 117.0 L 392.8 117.2 L 393.0 117.3 L 393.2 117.4 L 393.3 117.5 L 393.5 117.5 L 393.7 117.6 L 393.8 117.7 L 394.0 117.8 L 394.2 117.9 L 394.3 118.0 L 394.5 118.0 L 394.7 118.1 L 394.8 118.2 L 395.0 118.3 L 395.2 118.3 L 395.3 118.4 L 395.5 118.4 L 395.7 118.5 L 395.8 118.5 L 396.0 118.6 L 396.2 118.6 L 396.3 118.7 L 396.5 118.7 L 396.7 118.8 L 396.8 118.8 L 397.0 118.8 L 397.2 118.9 L 397.3 118.9 L 397.5 118.9 L 397.7 118.9 L 397.8 118.9 L 398.0 119.0 L 398.2 119.0 L 398.3 119.0 L 398.5 119.0 L 398.7 119.0 L 398.8 119.0 L 399.0 119.0 L 399.2 119.0 L 399.3 119.0 L 399.5 118.9 L 399.7 118.9 L 399.8 118.9 L 400.0 118.9 L 400.2 118.9 L 400.3 118.9 L 400.5 118.8 L 400.7 118.8 L 400.8 118.8 L 401.0 118.7 L 401.2 118.7 L 401.3 118.7 L 401.5 118.6 L 401.7 118.6 L 401.8 118.5 L 402.0 118.5 L 402.2 118.4 L 402.3 118.4 L 402.5 118.3 L 402.7 118.2 L 402.8 118.2 L 403.0 118.1 L 403.2 118.1 L 403.3 118.0 L 403.5 117.9 L 403.7 117.9 L 403.8 117.8 L 404.0 117.7 L 404.2 117.6 L 404.3 117.6 L 404.5 117.5 L 404.7 117.4 L 404.8 117.3 L 405.0 117.2 L 405.2 117.1 L 405.3 117.0 L 405.5 117.0 L 405.7 116.9 L 405.8 116.8 L 406.0 116.7 L 406.2 116.6 L 406.3 116.5 L 406.5 116.4 L 406.7 116.3 L 406.8 116.2 L 407.0 116.1 L 407.2 116.0 L 407.3 115.9 L 407.5 115.8 L 407.7 115.7 L 407.8 115.5 L 408.0 115.4 L 408.2 115.3 L 408.3 115.2 L 408.5 115.1 L 408.7 115.0 L 408.8 114.9 L 409.0 114.8 L 409.2 114.6 L 409.3 114.5 L 409.5 114.4 L 409.7 114.3 L 409.8 114.2 L 410.0 114.1 L 410.2 113.9 L 410.3 113.8 L 410.5 113.7 L 410.7 113.6 L 410.8 113.5 L 411.0 113.3 L 411.2 113.2 L 411.3 113.1 L 411.5 113.0 L 411.7 112.9 L 411.8 112.7 L 412.0 112.6 L 412.2 112.5 L 412.3 112.4 L 412.5 112.3 L 412.7 112.1 L 412.8 112.0 L 413.0 111.9 L 413.2 111.8 L 413.3 111.7 L 413.5 111.5 L 413.7 111.4 L 413.8 111.3 L 414.0 111.2 L 414.2 111.1 L 414.3 110.9 L 414.5 110.8 L 414.7 110.7 L 414.8 110.6 L 415.0 110.5 L 415.2 110.4 L 415.3 110.3 L 415.5 110.1 L 415.7 110.0 L 415.8 109.9 L 416.0 109.8 L 416.2 109.7 L 416.3 109.6 L 416.5 109.5 L 416.7 109.4 L 416.8 109.3 L 417.0 109.2 L 417.2 109.1 L 417.3 109.0 L 417.5 108.9 L 417.7 108.8 L 417.8 108.7 L 418.0 108.6 L 418.2 108.5 L 418.3 108.4 L 418.5 108.3 L 418.7 108.2 L 418.8 108.1 L 419.0 108.0 L 419.2 107.9 L 419.3 107.8 L 419.5 107.7 L 419.7 107.6 L 419.8 107.6 L 420.0 107.5 L 420.2 107.4 L 420.3 107.3 L 420.5 107.2 L 420.7 107.2 L 420.8 107.1 L 421.0 107.0 L 421.2 106.9 L 421.3 106.9 L 421.5 106.8 L 421.7 106.7 L 421.8 106.7 L 422.0 106.6 L 422.2 106.5 L 422.3 106.5 L 422.5 106.4 L 422.7 106.4 L 422.8 106.3 L 423.0 106.3 L 423.2 106.2 L 423.3 106.1 L 423.5 106.1 L 423.7 106.1 L 423.8 106.0 L 424.0 106.0 L 424.2 105.9 L 424.3 105.9 L 424.5 105.8 L 424.7 105.8 L 424.8 105.8 L 425.0 105.7 L 425.2 105.7 L 425.3 105.7 L 425.5 105.6 L 425.7 105.6 L 425.8 105.6 L 426.0 105.6 L 426.2 105.5 L 426.3 105.5 L 426.5 105.5 L 426.7 105.5 L 426.8 105.5 L 427.0 105.4 L 427.2 105.4 L 427.3 105.4 L 427.5 105.4 L 427.7 105.4 L 427.8 105.4 L 428.0 105.4 L 428.2 105.4 L 428.3 105.4 L 428.5 105.4 L 428.7 105.4 L 428.8 105.4 L 429.0 105.4 L 429.2 105.4 L 429.3 105.4 L 429.5 105.4 L 429.7 105.4 L 429.8 105.4 L 430.0 105.4 L 430.2 105.5 L 430.3 105.5 L 430.5 105.5 L 430.7 105.5 L 430.8 105.5 L 431.0 105.6 L 431.2 105.6 L 431.3 105.6 L 431.5 105.6 L 431.7 105.7 L 431.8 105.7 L 432.0 105.7 L 432.2 105.8 L 432.3 105.8 L 432.5 105.8 L 432.7 105.9 L 432.8 105.9 L 433.0 105.9 L 433.2 106.0 L 433.3 106.0 L 433.5 106.0 L 433.7 106.1 L 433.8 106.1 L 434.0 106.2 L 434.2 106.2 L 434.3 106.3 L 434.5 106.3 L 434.7 106.4 L 434.8 106.4 L 435.0 106.5 L 435.2 106.5 L 435.3 106.6 L 435.5 106.6 L 435.7 106.7 L 435.8 106.7 L 436.0 106.8 L 436.2 106.8 L 436.3 106.9 L 436.5 106.9 L 436.7 107.0 L 436.8 107.1 L 437.0 107.1 L 437.2 107.2 L 437.3 107.2 L 437.5 107.3 L 437.7 107.4 L 437.8 107.4 L 438.0 107.5 L 438.2 107.6 L 438.3 107.6 L 438.5 107.7 L 438.7 107.7 L 438.8 107.8 L 439.0 107.9 L 439.2 107.9 L 439.3 108.0 L 439.5 108.1 L 439.7 108.1 L 439.8 108.2 L 440.0 108.3 L 440.2 108.3 L 440.3 108.4 L 440.5 108.5 L 440.7 108.5 L 440.8 108.6 L 441.0 108.7 L 441.2 108.8 L 441.3 108.8 L 441.5 108.9 L 441.7 109.0 L 441.8 109.0 L 442.0 109.1 L 442.2 109.2 L 442.3 109.2 L 442.5 109.3 L 442.7 109.4 L 442.8 109.4 L 443.0 109.5 L 443.2 109.6 L 443.3 109.6 L 443.5 109.7 L 443.7 109.8 L 443.8 109.8 L 444.0 109.9 L 444.2 110.0 L 444.3 110.0 L 444.5 110.1 L 444.7 110.2 L 444.8 110.2 L 445.0 110.3 L 445.2 110.4 L 445.3 110.4 L 445.5 110.5 L 445.7 110.5 L 445.8 110.6 L 446.0 110.7 L 446.2 110.7 L 446.3 110.8 L 446.5 110.8 L 446.7 110.9 L 446.8 111.0 L 447.0 111.0 L 447.2 111.1 L 447.3 111.1 L 447.5 111.2 L 447.7 111.2 L 447.8 111.3 L 448.0 111.4 L 448.2 111.4 L 448.3 111.5 L 448.5 111.5 L 448.7 111.6 L 448.8 111.6 L 449.0 111.7 L 449.2 111.7 L 449.3 111.8 L 449.5 111.8 L 449.7 111.9 L 449.8 111.9 L 450.0 111.9 L 450.2 112.0 L 450.3 112.0 L 450.5 112.1 L 450.7 112.1 L 450.8 112.2 L 451.0 112.2 L 451.2 112.2 L 451.3 112.3 L 451.5 112.3 L 451.7 112.4 L 451.8 112.4 L 452.0 112.4 L 452.2 112.5 L 452.3 112.5 L 452.5 112.5 L 452.7 112.6 L 452.8 112.6 L 453.0 112.6 L 453.2 112.6 L 453.3 112.7 L 453.5 112.7 L 453.7 112.7 L 453.8 112.7 L 454.0 112.8 L 454.2 112.8 L 454.3 112.8 L 454.5 112.8 L 454.7 112.9 L 454.8 112.9 L 455.0 112.9 L 455.2 112.9 L 455.3 112.9 L 455.5 112.9 L 455.7 113.0 L 455.8 113.0 L 456.0 113.0 L 456.2 113.0 L 456.3 113.0 L 456.5 113.0 L 456.7 113.0 L 456.8 113.0 L 457.0 113.0 L 457.2 113.0 L 457.3 113.0 L 457.5 113.0 L 457.7 113.1 L 457.8 113.1 L 458.0 113.1 L 458.2 113.1 L 458.3 113.1 L 458.5 113.1 L 458.7 113.0 L 458.8 113.0 L 459.0 113.0 L 459.2 113.0 L 459.3 113.0 L 459.5 113.0 L 459.7 113.0 L 459.8 113.0 L 460.0 113.0 L 460.2 113.0 L 460.3 113.0 L 460.5 113.0 L 460.7 113.0 L 460.8 112.9 L 461.0 112.9 L 461.2 112.9 L 461.3 112.9 L 461.5 112.9 L 461.7 112.9 L 461.8 112.8 L 462.0 112.8 L 462.2 112.8 L 462.3 112.8 L 462.5 112.8 L 462.7 112.8 L 462.8 112.7 L 463.0 112.7 L 463.2 112.7 L 463.3 112.7 L 463.5 112.6 L 463.7 112.6 L 463.8 112.6 L 464.0 112.6 L 464.2 112.5 L 464.3 112.5 L 464.5 112.5 L 464.7 112.5 L 464.8 112.4 L 465.0 112.4 L 465.2 112.4 L 465.3 112.3 L 465.5 112.3 L 465.7 112.3 L 465.8 112.2 L 466.0 112.2 L 466.2 112.2 L 466.3 112.1 L 466.5 112.1 L 466.7 112.1 L 466.8 112.0 L 467.0 112.0 L 467.2 112.0 L 467.3 111.9 L 467.5 111.9 L 467.7 111.9 L 467.8 111.8 L 468.0 111.8 L 468.2 111.8 L 468.3 111.7 L 468.5 111.7 L 468.7 111.7 L 468.8 111.6 L 469.0 111.6 L 469.2 111.5 L 469.3 111.5 L 469.5 111.5 L 469.7 111.4 L 469.8 111.4 L 470.0 111.4 L 470.2 111.3 L 470.3 111.3 L 470.5 111.2 L 470.7 111.2 L 470.8 111.2 L 471.0 111.1 L 471.2 111.1 L 471.3 111.0 L 471.5 111.0 L 471.7 111.0 L 471.8 110.9 L 472.0 110.9 L 472.2 110.9 L 472.3 110.8 L 472.5 110.8 L 472.7 110.7 L 472.8 110.7 L 473.0 110.7 L 473.2 110.6 L 473.3 110.6 L 473.5 110.5 L 473.7 110.5 L 473.8 110.5 L 474.0 110.4 L 474.2 110.4 L 474.3 110.4 L 474.5 110.3 L 474.7 110.3 L 474.8 110.3 L 475.0 110.2 L 475.2 110.2 L 475.3 110.1 L 475.5 110.1 L 475.7 110.1 L 475.8 110.0 L 476.0 110.0 L 476.2 110.0 L 476.3 109.9 L 476.5 109.9 L 476.7 109.9 L 476.8 109.8 L 477.0 109.8 L 477.2 109.8 L 477.3 109.7 L 477.5 109.7 L 477.7 109.7 L 477.8 109.7 L 478.0 109.6 L 478.2 109.6 L 478.3 109.6 L 478.5 109.5 L 478.7 109.5 L 478.8 109.5 L 479.0 109.5 L 479.2 109.4 L 479.3 109.4 L 479.5 109.4 L 479.7 109.4 L 479.8 109.3 L 480.0 109.3 L 480.2 109.3 L 480.3 109.3 L 480.5 109.2 L 480.7 109.2 L 480.8 109.2 L 481.0 109.2 L 481.2 109.1 L 481.3 109.1 L 481.5 109.1 L 481.7 109.1 L 481.8 109.1 L 482.0 109.0 L 482.2 109.0 L 482.3 109.0 L 482.5 109.0 L 482.7 109.0 L 482.8 109.0 L 483.0 108.9 L 483.2 108.9 L 483.3 108.9 L 483.5 108.9 L 483.7 108.9 L 483.8 108.9 L 484.0 108.9 L 484.2 108.8 L 484.3 108.8 L 484.5 108.8 L 484.7 108.8 L 484.8 108.8 L 485.0 108.8 L 485.2 108.8 L 485.3 108.8 L 485.5 108.8 L 485.7 108.8 L 485.8 108.8 L 486.0 108.8 L 486.2 108.7 L 486.3 108.7 L 486.5 108.7 L 486.7 108.7 L 486.8 108.7 L 487.0 108.7 L 487.2 108.7 L 487.3 108.7 L 487.5 108.7 L 487.7 108.7 L 487.8 108.7 L 488.0 108.7 L 488.2 108.7 L 488.3 108.7 L 488.5 108.7 L 488.7 108.7 L 488.8 108.7 L 489.0 108.7 L 489.2 108.7 L 489.3 108.7 L 489.5 108.7 L 489.7 108.8 L 489.8 108.8 L 490.0 108.8 L 490.2 108.8 L 490.3 108.8 L 490.5 108.8 L 490.7 108.8 L 490.8 108.8 L 491.0 108.8 L 491.2 108.8 L 491.3 108.8 L 491.5 108.8 L 491.7 108.8 L 491.8 108.9 L 492.0 108.9 L 492.2 108.9 L 492.3 108.9 L 492.5 108.9 L 492.7 108.9 L 492.8 108.9 L 493.0 108.9 L 493.2 109.0 L 493.3 109.0 L 493.5 109.0 L 493.7 109.0 L 493.8 109.0 L 494.0 109.0 L 494.2 109.0 L 494.3 109.1 L 494.5 109.1 L 494.7 109.1 L 494.8 109.1 L 495.0 109.1 L 495.2 109.1 L 495.3 109.2 L 495.5 109.2 L 495.7 109.2 L 495.8 109.2 L 496.0 109.2 L 496.2 109.3 L 496.3 109.3 L 496.5 109.3 L 496.7 109.3 L 496.8 109.3 L 497.0 109.3 L 497.2 109.4 L 497.3 109.4 L 497.5 109.4 L 497.7 109.4 L 497.8 109.4 L 498.0 109.5 L 498.2 109.5 L 498.3 109.5 L 498.5 109.5 L 498.7 109.6 L 498.8 109.6 L 499.0 109.6 L 499.2 109.6 L 499.3 109.6 L 499.5 109.7 L 499.7 109.7 L 499.8 109.7 L 500.0 109.7 L 500.2 109.7 L 500.3 109.8 L 500.5 109.8 L 500.7 109.8 L 500.8 109.8 L 501.0 109.9 L 501.2 109.9 L 501.3 109.9 L 501.5 109.9 L 501.7 109.9 L 501.8 110.0 L 502.0 110.0 L 502.2 110.0 L 502.3 110.0 L 502.5 110.0 L 502.7 110.1 L 502.8 110.1 L 503.0 110.1 L 503.2 110.1 L 503.3 110.2 L 503.5 110.2 L 503.7 110.2 L 503.8 110.2 L 504.0 110.2 L 504.2 110.3 L 504.3 110.3 L 504.5 110.3 L 504.7 110.3 L 504.8 110.3 L 505.0 110.4 L 505.2 110.4 L 505.3 110.4 L 505.5 110.4 L 505.7 110.4 L 505.8 110.5 L 506.0 110.5 L 506.2 110.5 L 506.3 110.5 L 506.5 110.5 L 506.7 110.5 L 506.8 110.6 L 507.0 110.6 L 507.2 110.6 L 507.3 110.6 L 507.5 110.6 L 507.7 110.7 L 507.8 110.7 L 508.0 110.7 L 508.2 110.7 L 508.3 110.7 L 508.5 110.7 L 508.7 110.7 L 508.8 110.8 L 509.0 110.8 L 509.2 110.8 L 509.3 110.8 L 509.5 110.8 L 509.7 110.8 L 509.8 110.9 L 510.0 110.9 L 510.2 110.9 L 510.3 110.9 L 510.5 110.9 L 510.7 110.9 L 510.8 110.9 L 511.0 110.9 L 511.2 111.0 L 511.3 111.0 L 511.5 111.0 L 511.7 111.0 L 511.8 111.0 L 512.0 111.0 L 512.2 111.0 L 512.3 111.0 L 512.5 111.0 L 512.7 111.0 L 512.8 111.0 L 513.0 111.1 L 513.2 111.1 L 513.3 111.1 L 513.5 111.1 L 513.7 111.1 L 513.8 111.1 L 514.0 111.1 L 514.2 111.1 L 514.3 111.1 L 514.5 111.1 L 514.7 111.1 L 514.8 111.1 L 515.0 111.1 L 515.2 111.1 L 515.3 111.1 L 515.5 111.1 L 515.7 111.1 L 515.8 111.2 L 516.0 111.2 L 516.2 111.2 L 516.3 111.2 L 516.5 111.2 L 516.7 111.2 L 516.8 111.2 L 517.0 111.2 L 517.2 111.2 L 517.3 111.2 L 517.5 111.2 L 517.7 111.2 L 517.8 111.2 L 518.0 111.2 L 518.2 111.2 L 518.3 111.2 L 518.5 111.2 L 518.7 111.2 L 518.8 111.2 L 519.0 111.2 L 519.2 111.2 L 519.3 111.2 L 519.5 111.1 L 519.7 111.1 L 519.8 111.1 L 520.0 111.1 L 520.2 111.1 L 520.3 111.1 L 520.5 111.1 L 520.7 111.1 L 520.8 111.1 L 521.0 111.1 L 521.2 111.1 L 521.3 111.1 L 521.5 111.1 L 521.7 111.1 L 521.8 111.1 L 522.0 111.1 L 522.2 111.1 L 522.3 111.1 L 522.5 111.1 L 522.7 111.0 L 522.8 111.0 L 523.0 111.0 L 523.2 111.0 L 523.3 111.0 L 523.5 111.0 L 523.7 111.0 L 523.8 111.0 L 524.0 111.0 L 524.2 111.0 L 524.3 111.0 L 524.5 111.0 L 524.7 110.9 L 524.8 110.9 L 525.0 110.9 L 525.2 110.9 L 525.3 110.9 L 525.5 110.9 L 525.7 110.9 L 525.8 110.9 L 526.0 110.9 L 526.2 110.9 L 526.3 110.8 L 526.5 110.8 L 526.7 110.8 L 526.8 110.8 L 527.0 110.8 L 527.2 110.8 L 527.3 110.8 L 527.5 110.8 L 527.7 110.7 L 527.8 110.7 L 528.0 110.7 L 528.2 110.7 L 528.3 110.7 L 528.5 110.7 L 528.7 110.7 L 528.8 110.7 L 529.0 110.7 L 529.2 110.6 L 529.3 110.6 L 529.5 110.6 L 529.7 110.6 L 529.8 110.6 L 530.0 110.6" fill="none" stroke="#e11d48" stroke-width="2.2"/>
<path d="M 280.0 196.0 L 280.2 196.0 L 280.3 195.9 L 280.5 195.8 L 280.7 195.7 L 280.8 195.6 L 281.0 195.4 L 281.2 195.2 L 281.3 195.0 L 281.5 194.8 L 281.7 194.5 L 281.8 194.2 L 282.0 193.9 L 282.2 193.5 L 282.3 193.2 L 282.5 192.8 L 282.7 192.3 L 282.8 191.9 L 283.0 191.4 L 283.2 190.9 L 283.3 190.4 L 283.5 189.8 L 283.7 189.2 L 283.8 188.6 L 284.0 188.0 L 284.2 187.4 L 284.3 186.7 L 284.5 186.0 L 284.7 185.3 L 284.8 184.5 L 285.0 183.8 L 285.2 183.0 L 285.3 182.2 L 285.5 181.4 L 285.7 180.5 L 285.8 179.7 L 286.0 178.8 L 286.2 177.9 L 286.3 176.9 L 286.5 176.0 L 286.7 175.0 L 286.8 174.0 L 287.0 173.0 L 287.2 172.0 L 287.3 171.0 L 287.5 169.9 L 287.7 168.8 L 287.8 167.8 L 288.0 166.6 L 288.2 165.5 L 288.3 164.4 L 288.5 163.2 L 288.7 162.1 L 288.8 160.9 L 289.0 159.7 L 289.2 158.5 L 289.3 157.3 L 289.5 156.0 L 289.7 154.8 L 289.8 153.5 L 290.0 152.2 L 290.2 151.0 L 290.3 149.7 L 290.5 148.4 L 290.7 147.1 L 290.8 145.7 L 291.0 144.4 L 291.2 143.1 L 291.3 141.7 L 291.5 140.4 L 291.7 139.0 L 291.8 137.6 L 292.0 136.3 L 292.2 134.9 L 292.3 133.5 L 292.5 132.1 L 292.7 130.7 L 292.8 129.3 L 293.0 127.9 L 293.2 126.5 L 293.3 125.1 L 293.5 123.7 L 293.7 122.3 L 293.8 120.9 L 294.0 119.4 L 294.2 118.0 L 294.3 116.6 L 294.5 115.2 L 294.7 113.8 L 294.8 112.4 L 295.0 110.9 L 295.2 109.5 L 295.3 108.1 L 295.5 106.7 L 295.7 105.3 L 295.8 103.9 L 296.0 102.5 L 296.2 101.1 L 296.3 99.7 L 296.5 98.3 L 296.7 97.0 L 296.8 95.6 L 297.0 94.2 L 297.2 92.9 L 297.3 91.5 L 297.5 90.2 L 297.7 88.8 L 297.8 87.5 L 298.0 86.2 L 298.2 84.9 L 298.3 83.6 L 298.5 82.3 L 298.7 81.0 L 298.8 79.7 L 299.0 78.5 L 299.2 77.2 L 299.3 76.0 L 299.5 74.8 L 299.7 73.5 L 299.8 72.3 L 300.0 71.1 L 300.2 70.0 L 300.3 68.8 L 300.5 67.7 L 300.7 66.5 L 300.8 65.4 L 301.0 64.3 L 301.2 63.2 L 301.3 62.1 L 301.5 61.1 L 301.7 60.0 L 301.8 59.0 L 302.0 58.0 L 302.2 57.0 L 302.3 56.0 L 302.5 55.1 L 302.7 54.1 L 302.8 53.2 L 303.0 52.3 L 303.2 51.4 L 303.3 50.5 L 303.5 49.6 L 303.7 48.8 L 303.8 48.0 L 304.0 47.2 L 304.2 46.4 L 304.3 45.6 L 304.5 44.9 L 304.7 44.2 L 304.8 43.5 L 305.0 42.8 L 305.2 42.1 L 305.3 41.5 L 305.5 40.9 L 305.7 40.3 L 305.8 39.7 L 306.0 39.1 L 306.2 38.6 L 306.3 38.1 L 306.5 37.6 L 306.7 37.1 L 306.8 36.6 L 307.0 36.2 L 307.2 35.8 L 307.3 35.4 L 307.5 35.0 L 307.7 34.7 L 307.8 34.3 L 308.0 34.0 L 308.2 33.7 L 308.3 33.5 L 308.5 33.2 L 308.7 33.0 L 308.8 32.8 L 309.0 32.6 L 309.2 32.4 L 309.3 32.3 L 309.5 32.2 L 309.7 32.1 L 309.8 32.0 L 310.0 32.0 L 310.2 31.9 L 310.3 31.9 L 310.5 31.9 L 310.7 32.0 L 310.8 32.0 L 311.0 32.1 L 311.2 32.2 L 311.3 32.3 L 311.5 32.4 L 311.7 32.6 L 311.8 32.7 L 312.0 32.9 L 312.2 33.1 L 312.3 33.4 L 312.5 33.6 L 312.7 33.9 L 312.8 34.2 L 313.0 34.5 L 313.2 34.8 L 313.3 35.2 L 313.5 35.5 L 313.7 35.9 L 313.8 36.3 L 314.0 36.7 L 314.2 37.2 L 314.3 37.6 L 314.5 38.1 L 314.7 38.6 L 314.8 39.1 L 315.0 39.6 L 315.2 40.2 L 315.3 40.7 L 315.5 41.3 L 315.7 41.9 L 315.8 42.5 L 316.0 43.1 L 316.2 43.7 L 316.3 44.4 L 316.5 45.1 L 316.7 45.7 L 316.8 46.4 L 317.0 47.1 L 317.2 47.9 L 317.3 48.6 L 317.5 49.3 L 317.7 50.1 L 317.8 50.9 L 318.0 51.7 L 318.2 52.4 L 318.3 53.3 L 318.5 54.1 L 318.7 54.9 L 318.8 55.7 L 319.0 56.6 L 319.2 57.5 L 319.3 58.3 L 319.5 59.2 L 319.7 60.1 L 319.8 61.0 L 320.0 61.9 L 320.2 62.8 L 320.3 63.7 L 320.5 64.7 L 320.7 65.6 L 320.8 66.5 L 321.0 67.5 L 321.2 68.4 L 321.3 69.4 L 321.5 70.4 L 321.7 71.3 L 321.8 72.3 L 322.0 73.3 L 322.2 74.3 L 322.3 75.3 L 322.5 76.3 L 322.7 77.3 L 322.8 78.3 L 323.0 79.3 L 323.2 80.3 L 323.3 81.3 L 323.5 82.3 L 323.7 83.3 L 323.8 84.3 L 324.0 85.3 L 324.2 86.3 L 324.3 87.4 L 324.5 88.4 L 324.7 89.4 L 324.8 90.4 L 325.0 91.4 L 325.2 92.4 L 325.3 93.4 L 325.5 94.4 L 325.7 95.4 L 325.8 96.4 L 326.0 97.4 L 326.2 98.4 L 326.3 99.4 L 326.5 100.4 L 326.7 101.4 L 326.8 102.3 L 327.0 103.3 L 327.2 104.3 L 327.3 105.2 L 327.5 106.2 L 327.7 107.1 L 327.8 108.1 L 328.0 109.0 L 328.2 109.9 L 328.3 110.8 L 328.5 111.8 L 328.7 112.7 L 328.8 113.6 L 329.0 114.5 L 329.2 115.3 L 329.3 116.2 L 329.5 117.1 L 329.7 117.9 L 329.8 118.8 L 330.0 119.6 L 330.2 120.4 L 330.3 121.2 L 330.5 122.0 L 330.7 122.8 L 330.8 123.6 L 331.0 124.4 L 331.2 125.1 L 331.3 125.9 L 331.5 126.6 L 331.7 127.3 L 331.8 128.1 L 332.0 128.8 L 332.2 129.4 L 332.3 130.1 L 332.5 130.8 L 332.7 131.4 L 332.8 132.1 L 333.0 132.7 L 333.2 133.3 L 333.3 133.9 L 333.5 134.5 L 333.7 135.0 L 333.8 135.6 L 334.0 136.1 L 334.2 136.6 L 334.3 137.1 L 334.5 137.6 L 334.7 138.1 L 334.8 138.6 L 335.0 139.0 L 335.2 139.5 L 335.3 139.9 L 335.5 140.3 L 335.7 140.7 L 335.8 141.1 L 336.0 141.4 L 336.2 141.8 L 336.3 142.1 L 336.5 142.4 L 336.7 142.7 L 336.8 143.0 L 337.0 143.2 L 337.2 143.5 L 337.3 143.7 L 337.5 143.9 L 337.7 144.1 L 337.8 144.3 L 338.0 144.5 L 338.2 144.6 L 338.3 144.8 L 338.5 144.9 L 338.7 145.0 L 338.8 145.1 L 339.0 145.2 L 339.2 145.2 L 339.3 145.3 L 339.5 145.3 L 339.7 145.3 L 339.8 145.3 L 340.0 145.3 L 340.2 145.2 L 340.3 145.2 L 340.5 145.1 L 340.7 145.0 L 340.8 144.9 L 341.0 144.8 L 341.2 144.7 L 341.3 144.5 L 341.5 144.4 L 341.7 144.2 L 341.8 144.0 L 342.0 143.8 L 342.2 143.6 L 342.3 143.3 L 342.5 143.1 L 342.7 142.8 L 342.8 142.5 L 343.0 142.2 L 343.2 141.9 L 343.3 141.6 L 343.5 141.3 L 343.7 140.9 L 343.8 140.6 L 344.0 140.2 L 344.2 139.8 L 344.3 139.4 L 344.5 139.0 L 344.7 138.6 L 344.8 138.1 L 345.0 137.7 L 345.2 137.2 L 345.3 136.7 L 345.5 136.2 L 345.7 135.7 L 345.8 135.2 L 346.0 134.7 L 346.2 134.2 L 346.3 133.6 L 346.5 133.1 L 346.7 132.5 L 346.8 131.9 L 347.0 131.4 L 347.2 130.8 L 347.3 130.2 L 347.5 129.5 L 347.7 128.9 L 347.8 128.3 L 348.0 127.6 L 348.2 127.0 L 348.3 126.3 L 348.5 125.7 L 348.7 125.0 L 348.8 124.3 L 349.0 123.6 L 349.2 122.9 L 349.3 122.2 L 349.5 121.5 L 349.7 120.8 L 349.8 120.1 L 350.0 119.3 L 350.2 118.6 L 350.3 117.9 L 350.5 117.1 L 350.7 116.4 L 350.8 115.6 L 351.0 114.9 L 351.2 114.1 L 351.3 113.3 L 351.5 112.6 L 351.7 111.8 L 351.8 111.0 L 352.0 110.2 L 352.2 109.4 L 352.3 108.6 L 352.5 107.9 L 352.7 107.1 L 352.8 106.3 L 353.0 105.5 L 353.2 104.7 L 353.3 103.9 L 353.5 103.1 L 353.7 102.3 L 353.8 101.5 L 354.0 100.7 L 354.2 99.9 L 354.3 99.1 L 354.5 98.3 L 354.7 97.5 L 354.8 96.7 L 355.0 95.9 L 355.2 95.1 L 355.3 94.3 L 355.5 93.5 L 355.7 92.7 L 355.8 92.0 L 356.0 91.2 L 356.2 90.4 L 356.3 89.6 L 356.5 88.8 L 356.7 88.1 L 356.8 87.3 L 357.0 86.6 L 357.2 85.8 L 357.3 85.0 L 357.5 84.3 L 357.7 83.6 L 357.8 82.8 L 358.0 82.1 L 358.2 81.4 L 358.3 80.6 L 358.5 79.9 L 358.7 79.2 L 358.8 78.5 L 359.0 77.8 L 359.2 77.1 L 359.3 76.5 L 359.5 75.8 L 359.7 75.1 L 359.8 74.5 L 360.0 73.8 L 360.2 73.2 L 360.3 72.5 L 360.5 71.9 L 360.7 71.3 L 360.8 70.7 L 361.0 70.1 L 361.2 69.5 L 361.3 68.9 L 361.5 68.3 L 361.7 67.8 L 361.8 67.2 L 362.0 66.7 L 362.2 66.1 L 362.3 65.6 L 362.5 65.1 L 362.7 64.6 L 362.8 64.1 L 363.0 63.6 L 363.2 63.1 L 363.3 62.6 L 363.5 62.2 L 363.7 61.8 L 363.8 61.3 L 364.0 60.9 L 364.2 60.5 L 364.3 60.1 L 364.5 59.7 L 364.7 59.3 L 364.8 59.0 L 365.0 58.6 L 365.2 58.3 L 365.3 57.9 L 365.5 57.6 L 365.7 57.3 L 365.8 57.0 L 366.0 56.7 L 366.2 56.5 L 366.3 56.2 L 366.5 56.0 L 366.7 55.7 L 366.8 55.5 L 367.0 55.3 L 367.2 55.1 L 367.3 54.9 L 367.5 54.7 L 367.7 54.6 L 367.8 54.4 L 368.0 54.3 L 368.2 54.2 L 368.3 54.0 L 368.5 53.9 L 368.7 53.9 L 368.8 53.8 L 369.0 53.7 L 369.2 53.7 L 369.3 53.6 L 369.5 53.6 L 369.7 53.6 L 369.8 53.6 L 370.0 53.6 L 370.2 53.6 L 370.3 53.6 L 370.5 53.7 L 370.7 53.7 L 370.8 53.8 L 371.0 53.9 L 371.2 54.0 L 371.3 54.1 L 371.5 54.2 L 371.7 54.3 L 371.8 54.4 L 372.0 54.6 L 372.2 54.7 L 372.3 54.9 L 372.5 55.1 L 372.7 55.3 L 372.8 55.5 L 373.0 55.7 L 373.2 55.9 L 373.3 56.1 L 373.5 56.4 L 373.7 56.6 L 373.8 56.9 L 374.0 57.2 L 374.2 57.5 L 374.3 57.8 L 374.5 58.1 L 374.7 58.4 L 374.8 58.7 L 375.0 59.0 L 375.2 59.4 L 375.3 59.7 L 375.5 60.1 L 375.7 60.4 L 375.8 60.8 L 376.0 61.2 L 376.2 61.6 L 376.3 62.0 L 376.5 62.4 L 376.7 62.8 L 376.8 63.2 L 377.0 63.7 L 377.2 64.1 L 377.3 64.5 L 377.5 65.0 L 377.7 65.5 L 377.8 65.9 L 378.0 66.4 L 378.2 66.9 L 378.3 67.4 L 378.5 67.9 L 378.7 68.3 L 378.8 68.8 L 379.0 69.4 L 379.2 69.9 L 379.3 70.4 L 379.5 70.9 L 379.7 71.4 L 379.8 72.0 L 380.0 72.5 L 380.2 73.1 L 380.3 73.6 L 380.5 74.1 L 380.7 74.7 L 380.8 75.3 L 381.0 75.8 L 381.2 76.4 L 381.3 76.9 L 381.5 77.5 L 381.7 78.1 L 381.8 78.7 L 382.0 79.2 L 382.2 79.8 L 382.3 80.4 L 382.5 81.0 L 382.7 81.5 L 382.8 82.1 L 383.0 82.7 L 383.2 83.3 L 383.3 83.9 L 383.5 84.5 L 383.7 85.1 L 383.8 85.6 L 384.0 86.2 L 384.2 86.8 L 384.3 87.4 L 384.5 88.0 L 384.7 88.6 L 384.8 89.2 L 385.0 89.7 L 385.2 90.3 L 385.3 90.9 L 385.5 91.5 L 385.7 92.0 L 385.8 92.6 L 386.0 93.2 L 386.2 93.8 L 386.3 94.3 L 386.5 94.9 L 386.7 95.4 L 386.8 96.0 L 387.0 96.6 L 387.2 97.1 L 387.3 97.7 L 387.5 98.2 L 387.7 98.7 L 387.8 99.3 L 388.0 99.8 L 388.2 100.3 L 388.3 100.9 L 388.5 101.4 L 388.7 101.9 L 388.8 102.4 L 389.0 102.9 L 389.2 103.4 L 389.3 103.9 L 389.5 104.4 L 389.7 104.9 L 389.8 105.3 L 390.0 105.8 L 390.2 106.3 L 390.3 106.7 L 390.5 107.2 L 390.7 107.6 L 390.8 108.0 L 391.0 108.5 L 391.2 108.9 L 391.3 109.3 L 391.5 109.7 L 391.7 110.1 L 391.8 110.5 L 392.0 110.9 L 392.2 111.3 L 392.3 111.7 L 392.5 112.0 L 392.7 112.4 L 392.8 112.7 L 393.0 113.1 L 393.2 113.4 L 393.3 113.7 L 393.5 114.1 L 393.7 114.4 L 393.8 114.7 L 394.0 115.0 L 394.2 115.2 L 394.3 115.5 L 394.5 115.8 L 394.7 116.1 L 394.8 116.3 L 395.0 116.5 L 395.2 116.8 L 395.3 117.0 L 395.5 117.2 L 395.7 117.4 L 395.8 117.6 L 396.0 117.8 L 396.2 118.0 L 396.3 118.2 L 396.5 118.3 L 396.7 118.5 L 396.8 118.6 L 397.0 118.7 L 397.2 118.9 L 397.3 119.0 L 397.5 119.1 L 397.7 119.2 L 397.8 119.3 L 398.0 119.4 L 398.2 119.4 L 398.3 119.5 L 398.5 119.5 L 398.7 119.6 L 398.8 119.6 L 399.0 119.6 L 399.2 119.7 L 399.3 119.7 L 399.5 119.7 L 399.7 119.6 L 399.8 119.6 L 400.0 119.6 L 400.2 119.6 L 400.3 119.5 L 400.5 119.5 L 400.7 119.4 L 400.8 119.3 L 401.0 119.2 L 401.2 119.1 L 401.3 119.0 L 401.5 118.9 L 401.7 118.8 L 401.8 118.7 L 402.0 118.6 L 402.2 118.4 L 402.3 118.3 L 402.5 118.1 L 402.7 117.9 L 402.8 117.8 L 403.0 117.6 L 403.2 117.4 L 403.3 117.2 L 403.5 117.0 L 403.7 116.8 L 403.8 116.5 L 404.0 116.3 L 404.2 116.1 L 404.3 115.8 L 404.5 115.6 L 404.7 115.3 L 404.8 115.1 L 405.0 114.8 L 405.2 114.5 L 405.3 114.2 L 405.5 113.9 L 405.7 113.6 L 405.8 113.3 L 406.0 113.0 L 406.2 112.7 L 406.3 112.4 L 406.5 112.1 L 406.7 111.7 L 406.8 111.4 L 407.0 111.0 L 407.2 110.7 L 407.3 110.3 L 407.5 110.0 L 407.7 109.6 L 407.8 109.2 L 408.0 108.9 L 408.2 108.5 L 408.3 108.1 L 408.5 107.7 L 408.7 107.3 L 408.8 106.9 L 409.0 106.5 L 409.2 106.1 L 409.3 105.7 L 409.5 105.3 L 409.7 104.9 L 409.8 104.5 L 410.0 104.1 L 410.2 103.6 L 410.3 103.2 L 410.5 102.8 L 410.7 102.3 L 410.8 101.9 L 411.0 101.5 L 411.2 101.0 L 411.3 100.6 L 411.5 100.1 L 411.7 99.7 L 411.8 99.3 L 412.0 98.8 L 412.2 98.4 L 412.3 97.9 L 412.5 97.5 L 412.7 97.0 L 412.8 96.6 L 413.0 96.1 L 413.2 95.6 L 413.3 95.2 L 413.5 94.7 L 413.7 94.3 L 413.8 93.8 L 414.0 93.4 L 414.2 92.9 L 414.3 92.5 L 414.5 92.0 L 414.7 91.6 L 414.8 91.1 L 415.0 90.7 L 415.2 90.2 L 415.3 89.8 L 415.5 89.3 L 415.7 88.9 L 415.8 88.4 L 416.0 88.0 L 416.2 87.6 L 416.3 87.1 L 416.5 86.7 L 416.7 86.3 L 416.8 85.8 L 417.0 85.4 L 417.2 85.0 L 417.3 84.6 L 417.5 84.2 L 417.7 83.7 L 417.8 83.3 L 418.0 82.9 L 418.2 82.5 L 418.3 82.1 L 418.5 81.7 L 418.7 81.3 L 418.8 80.9 L 419.0 80.6 L 419.2 80.2 L 419.3 79.8 L 419.5 79.4 L 419.7 79.1 L 419.8 78.7 L 420.0 78.3 L 420.2 78.0 L 420.3 77.6 L 420.5 77.3 L 420.7 77.0 L 420.8 76.6 L 421.0 76.3 L 421.2 76.0 L 421.3 75.7 L 421.5 75.3 L 421.7 75.0 L 421.8 74.7 L 422.0 74.4 L 422.2 74.2 L 422.3 73.9 L 422.5 73.6 L 422.7 73.3 L 422.8 73.1 L 423.0 72.8 L 423.2 72.5 L 423.3 72.3 L 423.5 72.1 L 423.7 71.8 L 423.8 71.6 L 424.0 71.4 L 424.2 71.1 L 424.3 70.9 L 424.5 70.7 L 424.7 70.5 L 424.8 70.4 L 425.0 70.2 L 425.2 70.0 L 425.3 69.8 L 425.5 69.7 L 425.7 69.5 L 425.8 69.4 L 426.0 69.2 L 426.2 69.1 L 426.3 68.9 L 426.5 68.8 L 426.7 68.7 L 426.8 68.6 L 427.0 68.5 L 427.2 68.4 L 427.3 68.3 L 427.5 68.2 L 427.7 68.2 L 427.8 68.1 L 428.0 68.0 L 428.2 68.0 L 428.3 67.9 L 428.5 67.9 L 428.7 67.9 L 428.8 67.9 L 429.0 67.8 L 429.2 67.8 L 429.3 67.8 L 429.5 67.8 L 429.7 67.8 L 429.8 67.9 L 430.0 67.9 L 430.2 67.9 L 430.3 67.9 L 430.5 68.0 L 430.7 68.0 L 430.8 68.1 L 431.0 68.2 L 431.2 68.2 L 431.3 68.3 L 431.5 68.4 L 431.7 68.5 L 431.8 68.6 L 432.0 68.7 L 432.2 68.8 L 432.3 68.9 L 432.5 69.0 L 432.7 69.1 L 432.8 69.3 L 433.0 69.4 L 433.2 69.6 L 433.3 69.7 L 433.5 69.9 L 433.7 70.0 L 433.8 70.2 L 434.0 70.4 L 434.2 70.5 L 434.3 70.7 L 434.5 70.9 L 434.7 71.1 L 434.8 71.3 L 435.0 71.5 L 435.2 71.7 L 435.3 71.9 L 435.5 72.2 L 435.7 72.4 L 435.8 72.6 L 436.0 72.9 L 436.2 73.1 L 436.3 73.3 L 436.5 73.6 L 436.7 73.8 L 436.8 74.1 L 437.0 74.3 L 437.2 74.6 L 437.3 74.9 L 437.5 75.1 L 437.7 75.4 L 437.8 75.7 L 438.0 76.0 L 438.2 76.3 L 438.3 76.6 L 438.5 76.8 L 438.7 77.1 L 438.8 77.4 L 439.0 77.7 L 439.2 78.0 L 439.3 78.3 L 439.5 78.7 L 439.7 79.0 L 439.8 79.3 L 440.0 79.6 L 440.2 79.9 L 440.3 80.2 L 440.5 80.6 L 440.7 80.9 L 440.8 81.2 L 441.0 81.5 L 441.2 81.9 L 441.3 82.2 L 441.5 82.5 L 441.7 82.8 L 441.8 83.2 L 442.0 83.5 L 442.2 83.8 L 442.3 84.2 L 442.5 84.5 L 442.7 84.9 L 442.8 85.2 L 443.0 85.5 L 443.2 85.9 L 443.3 86.2 L 443.5 86.5 L 443.7 86.9 L 443.8 87.2 L 444.0 87.6 L 444.2 87.9 L 444.3 88.2 L 444.5 88.6 L 444.7 88.9 L 444.8 89.2 L 445.0 89.6 L 445.2 89.9 L 445.3 90.2 L 445.5 90.6 L 445.7 90.9 L 445.8 91.2 L 446.0 91.5 L 446.2 91.9 L 446.3 92.2 L 446.5 92.5 L 446.7 92.8 L 446.8 93.1 L 447.0 93.5 L 447.2 93.8 L 447.3 94.1 L 447.5 94.4 L 447.7 94.7 L 447.8 95.0 L 448.0 95.3 L 448.2 95.6 L 448.3 95.9 L 448.5 96.2 L 448.7 96.5 L 448.8 96.7 L 449.0 97.0 L 449.2 97.3 L 449.3 97.6 L 449.5 97.9 L 449.7 98.1 L 449.8 98.4 L 450.0 98.6 L 450.2 98.9 L 450.3 99.2 L 450.5 99.4 L 450.7 99.7 L 450.8 99.9 L 451.0 100.1 L 451.2 100.4 L 451.3 100.6 L 451.5 100.8 L 451.7 101.1 L 451.8 101.3 L 452.0 101.5 L 452.2 101.7 L 452.3 101.9 L 452.5 102.1 L 452.7 102.3 L 452.8 102.5 L 453.0 102.7 L 453.2 102.8 L 453.3 103.0 L 453.5 103.2 L 453.7 103.4 L 453.8 103.5 L 454.0 103.7 L 454.2 103.8 L 454.3 104.0 L 454.5 104.1 L 454.7 104.3 L 454.8 104.4 L 455.0 104.5 L 455.2 104.6 L 455.3 104.8 L 455.5 104.9 L 455.7 105.0 L 455.8 105.1 L 456.0 105.2 L 456.2 105.3 L 456.3 105.4 L 456.5 105.4 L 456.7 105.5 L 456.8 105.6 L 457.0 105.7 L 457.2 105.7 L 457.3 105.8 L 457.5 105.8 L 457.7 105.9 L 457.8 105.9 L 458.0 105.9 L 458.2 106.0 L 458.3 106.0 L 458.5 106.0 L 458.7 106.0 L 458.8 106.0 L 459.0 106.0 L 459.2 106.0 L 459.3 106.0 L 459.5 106.0 L 459.7 106.0 L 459.8 106.0 L 460.0 105.9 L 460.2 105.9 L 460.3 105.9 L 460.5 105.8 L 460.7 105.8 L 460.8 105.7 L 461.0 105.7 L 461.2 105.6 L 461.3 105.5 L 461.5 105.5 L 461.7 105.4 L 461.8 105.3 L 462.0 105.2 L 462.2 105.1 L 462.3 105.0 L 462.5 104.9 L 462.7 104.8 L 462.8 104.7 L 463.0 104.6 L 463.2 104.5 L 463.3 104.4 L 463.5 104.2 L 463.7 104.1 L 463.8 104.0 L 464.0 103.8 L 464.2 103.7 L 464.3 103.5 L 464.5 103.4 L 464.7 103.2 L 464.8 103.1 L 465.0 102.9 L 465.2 102.7 L 465.3 102.6 L 465.5 102.4 L 465.7 102.2 L 465.8 102.0 L 466.0 101.8 L 466.2 101.7 L 466.3 101.5 L 466.5 101.3 L 466.7 101.1 L 466.8 100.9 L 467.0 100.7 L 467.2 100.5 L 467.3 100.3 L 467.5 100.0 L 467.7 99.8 L 467.8 99.6 L 468.0 99.4 L 468.2 99.2 L 468.3 98.9 L 468.5 98.7 L 468.7 98.5 L 468.8 98.3 L 469.0 98.0 L 469.2 97.8 L 469.3 97.6 L 469.5 97.3 L 469.7 97.1 L 469.8 96.8 L 470.0 96.6 L 470.2 96.3 L 470.3 96.1 L 470.5 95.8 L 470.7 95.6 L 470.8 95.3 L 471.0 95.1 L 471.2 94.8 L 471.3 94.6 L 471.5 94.3 L 471.7 94.1 L 471.8 93.8 L 472.0 93.6 L 472.2 93.3 L 472.3 93.1 L 472.5 92.8 L 472.7 92.5 L 472.8 92.3 L 473.0 92.0 L 473.2 91.8 L 473.3 91.5 L 473.5 91.2 L 473.7 91.0 L 473.8 90.7 L 474.0 90.5 L 474.2 90.2 L 474.3 90.0 L 474.5 89.7 L 474.7 89.4 L 474.8 89.2 L 475.0 88.9 L 475.2 88.7 L 475.3 88.4 L 475.5 88.2 L 475.7 87.9 L 475.8 87.7 L 476.0 87.4 L 476.2 87.2 L 476.3 86.9 L 476.5 86.7 L 476.7 86.5 L 476.8 86.2 L 477.0 86.0 L 477.2 85.7 L 477.3 85.5 L 477.5 85.3 L 477.7 85.0 L 477.8 84.8 L 478.0 84.6 L 478.2 84.4 L 478.3 84.1 L 478.5 83.9 L 478.7 83.7 L 478.8 83.5 L 479.0 83.3 L 479.2 83.1 L 479.3 82.8 L 479.5 82.6 L 479.7 82.4 L 479.8 82.2 L 480.0 82.0 L 480.2 81.8 L 480.3 81.7 L 480.5 81.5 L 480.7 81.3 L 480.8 81.1 L 481.0 80.9 L 481.2 80.7 L 481.3 80.6 L 481.5 80.4 L 481.7 80.2 L 481.8 80.1 L 482.0 79.9 L 482.2 79.8 L 482.3 79.6 L 482.5 79.5 L 482.7 79.3 L 482.8 79.2 L 483.0 79.0 L 483.2 78.9 L 483.3 78.8 L 483.5 78.6 L 483.7 78.5 L 483.8 78.4 L 484.0 78.3 L 484.2 78.2 L 484.3 78.0 L 484.5 77.9 L 484.7 77.8 L 484.8 77.7 L 485.0 77.6 L 485.2 77.6 L 485.3 77.5 L 485.5 77.4 L 485.7 77.3 L 485.8 77.2 L 486.0 77.2 L 486.2 77.1 L 486.3 77.0 L 486.5 77.0 L 486.7 76.9 L 486.8 76.9 L 487.0 76.8 L 487.2 76.8 L 487.3 76.7 L 487.5 76.7 L 487.7 76.7 L 487.8 76.6 L 488.0 76.6 L 488.2 76.6 L 488.3 76.6 L 488.5 76.6 L 488.7 76.6 L 488.8 76.6 L 489.0 76.6 L 489.2 76.6 L 489.3 76.6 L 489.5 76.6 L 489.7 76.6 L 489.8 76.6 L 490.0 76.6 L 490.2 76.7 L 490.3 76.7 L 490.5 76.7 L 490.7 76.8 L 490.8 76.8 L 491.0 76.9 L 491.2 76.9 L 491.3 77.0 L 491.5 77.0 L 491.7 77.1 L 491.8 77.2 L 492.0 77.2 L 492.2 77.3 L 492.3 77.4 L 492.5 77.4 L 492.7 77.5 L 492.8 77.6 L 493.0 77.7 L 493.2 77.8 L 493.3 77.9 L 493.5 78.0 L 493.7 78.1 L 493.8 78.2 L 494.0 78.3 L 494.2 78.4 L 494.3 78.5 L 494.5 78.6 L 494.7 78.8 L 494.8 78.9 L 495.0 79.0 L 495.2 79.1 L 495.3 79.3 L 495.5 79.4 L 495.7 79.5 L 495.8 79.7 L 496.0 79.8 L 496.2 80.0 L 496.3 80.1 L 496.5 80.2 L 496.7 80.4 L 496.8 80.6 L 497.0 80.7 L 497.2 80.9 L 497.3 81.0 L 497.5 81.2 L 497.7 81.3 L 497.8 81.5 L 498.0 81.7 L 498.2 81.8 L 498.3 82.0 L 498.5 82.2 L 498.7 82.4 L 498.8 82.5 L 499.0 82.7 L 499.2 82.9 L 499.3 83.1 L 499.5 83.2 L 499.7 83.4 L 499.8 83.6 L 500.0 83.8 L 500.2 84.0 L 500.3 84.2 L 500.5 84.4 L 500.7 84.5 L 500.8 84.7 L 501.0 84.9 L 501.2 85.1 L 501.3 85.3 L 501.5 85.5 L 501.7 85.7 L 501.8 85.9 L 502.0 86.1 L 502.2 86.3 L 502.3 86.5 L 502.5 86.7 L 502.7 86.8 L 502.8 87.0 L 503.0 87.2 L 503.2 87.4 L 503.3 87.6 L 503.5 87.8 L 503.7 88.0 L 503.8 88.2 L 504.0 88.4 L 504.2 88.6 L 504.3 88.8 L 504.5 89.0 L 504.7 89.2 L 504.8 89.4 L 505.0 89.5 L 505.2 89.7 L 505.3 89.9 L 505.5 90.1 L 505.7 90.3 L 505.8 90.5 L 506.0 90.7 L 506.2 90.8 L 506.3 91.0 L 506.5 91.2 L 506.7 91.4 L 506.8 91.6 L 507.0 91.7 L 507.2 91.9 L 507.3 92.1 L 507.5 92.3 L 507.7 92.4 L 507.8 92.6 L 508.0 92.8 L 508.2 92.9 L 508.3 93.1 L 508.5 93.3 L 508.7 93.4 L 508.8 93.6 L 509.0 93.8 L 509.2 93.9 L 509.3 94.1 L 509.5 94.2 L 509.7 94.4 L 509.8 94.5 L 510.0 94.7 L 510.2 94.8 L 510.3 94.9 L 510.5 95.1 L 510.7 95.2 L 510.8 95.3 L 511.0 95.5 L 511.2 95.6 L 511.3 95.7 L 511.5 95.9 L 511.7 96.0 L 511.8 96.1 L 512.0 96.2 L 512.2 96.3 L 512.3 96.4 L 512.5 96.5 L 512.7 96.7 L 512.8 96.8 L 513.0 96.9 L 513.2 97.0 L 513.3 97.0 L 513.5 97.1 L 513.7 97.2 L 513.8 97.3 L 514.0 97.4 L 514.2 97.5 L 514.3 97.6 L 514.5 97.6 L 514.7 97.7 L 514.8 97.8 L 515.0 97.8 L 515.2 97.9 L 515.3 98.0 L 515.5 98.0 L 515.7 98.1 L 515.8 98.1 L 516.0 98.2 L 516.2 98.2 L 516.3 98.3 L 516.5 98.3 L 516.7 98.3 L 516.8 98.4 L 517.0 98.4 L 517.2 98.4 L 517.3 98.5 L 517.5 98.5 L 517.7 98.5 L 517.8 98.5 L 518.0 98.5 L 518.2 98.5 L 518.3 98.5 L 518.5 98.5 L 518.7 98.5 L 518.8 98.5 L 519.0 98.5 L 519.2 98.5 L 519.3 98.5 L 519.5 98.5 L 519.7 98.5 L 519.8 98.5 L 520.0 98.4 L 520.2 98.4 L 520.3 98.4 L 520.5 98.4 L 520.7 98.3 L 520.8 98.3 L 521.0 98.3 L 521.2 98.2 L 521.3 98.2 L 521.5 98.1 L 521.7 98.1 L 521.8 98.0 L 522.0 98.0 L 522.2 97.9 L 522.3 97.8 L 522.5 97.8 L 522.7 97.7 L 522.8 97.6 L 523.0 97.6 L 523.2 97.5 L 523.3 97.4 L 523.5 97.3 L 523.7 97.3 L 523.8 97.2 L 524.0 97.1 L 524.2 97.0 L 524.3 96.9 L 524.5 96.8 L 524.7 96.7 L 524.8 96.6 L 525.0 96.5 L 525.2 96.4 L 525.3 96.3 L 525.5 96.2 L 525.7 96.1 L 525.8 96.0 L 526.0 95.9 L 526.2 95.8 L 526.3 95.7 L 526.5 95.6 L 526.7 95.4 L 526.8 95.3 L 527.0 95.2 L 527.2 95.1 L 527.3 95.0 L 527.5 94.8 L 527.7 94.7 L 527.8 94.6 L 528.0 94.5 L 528.2 94.3 L 528.3 94.2 L 528.5 94.1 L 528.7 93.9 L 528.8 93.8 L 529.0 93.7 L 529.2 93.5 L 529.3 93.4 L 529.5 93.2 L 529.7 93.1 L 529.8 93.0 L 530.0 92.8" fill="none" stroke="#d97706" stroke-width="2.2"/>
<path d="M 280.0 196.0 L 280.2 196.0 L 280.3 195.9 L 280.5 195.8 L 280.7 195.7 L 280.8 195.6 L 281.0 195.5 L 281.2 195.3 L 281.3 195.1 L 281.5 194.9 L 281.7 194.7 L 281.8 194.5 L 282.0 194.2 L 282.2 193.9 L 282.3 193.7 L 282.5 193.4 L 282.7 193.1 L 282.8 192.7 L 283.0 192.4 L 283.2 192.1 L 283.3 191.7 L 283.5 191.4 L 283.7 191.0 L 283.8 190.6 L 284.0 190.2 L 284.2 189.9 L 284.3 189.5 L 284.5 189.1 L 284.7 188.6 L 284.8 188.2 L 285.0 187.8 L 285.2 187.4 L 285.3 186.9 L 285.5 186.5 L 285.7 186.1 L 285.8 185.6 L 286.0 185.2 L 286.2 184.7 L 286.3 184.3 L 286.5 183.8 L 286.7 183.4 L 286.8 182.9 L 287.0 182.4 L 287.2 182.0 L 287.3 181.5 L 287.5 181.0 L 287.7 180.5 L 287.8 180.1 L 288.0 179.6 L 288.2 179.1 L 288.3 178.6 L 288.5 178.1 L 288.7 177.7 L 288.8 177.2 L 289.0 176.7 L 289.2 176.2 L 289.3 175.7 L 289.5 175.3 L 289.7 174.8 L 289.8 174.3 L 290.0 173.8 L 290.2 173.3 L 290.3 172.8 L 290.5 172.3 L 290.7 171.9 L 290.8 171.4 L 291.0 170.9 L 291.2 170.4 L 291.3 169.9 L 291.5 169.4 L 291.7 169.0 L 291.8 168.5 L 292.0 168.0 L 292.2 167.5 L 292.3 167.0 L 292.5 166.6 L 292.7 166.1 L 292.8 165.6 L 293.0 165.1 L 293.2 164.6 L 293.3 164.2 L 293.5 163.7 L 293.7 163.2 L 293.8 162.7 L 294.0 162.3 L 294.2 161.8 L 294.3 161.3 L 294.5 160.9 L 294.7 160.4 L 294.8 159.9 L 295.0 159.5 L 295.2 159.0 L 295.3 158.5 L 295.5 158.1 L 295.7 157.6 L 295.8 157.1 L 296.0 156.7 L 296.2 156.2 L 296.3 155.8 L 296.5 155.3 L 296.7 154.9 L 296.8 154.4 L 297.0 154.0 L 297.2 153.5 L 297.3 153.1 L 297.5 152.6 L 297.7 152.2 L 297.8 151.7 L 298.0 151.3 L 298.2 150.8 L 298.3 150.4 L 298.5 150.0 L 298.7 149.5 L 298.8 149.1 L 299.0 148.6 L 299.2 148.2 L 299.3 147.8 L 299.5 147.3 L 299.7 146.9 L 299.8 146.5 L 300.0 146.1 L 300.2 145.6 L 300.3 145.2 L 300.5 144.8 L 300.7 144.4 L 300.8 143.9 L 301.0 143.5 L 301.2 143.1 L 301.3 142.7 L 301.5 142.3 L 301.7 141.9 L 301.8 141.4 L 302.0 141.0 L 302.2 140.6 L 302.3 140.2 L 302.5 139.8 L 302.7 139.4 L 302.8 139.0 L 303.0 138.6 L 303.2 138.2 L 303.3 137.8 L 303.5 137.4 L 303.7 137.0 L 303.8 136.6 L 304.0 136.2 L 304.2 135.8 L 304.3 135.4 L 304.5 135.0 L 304.7 134.6 L 304.8 134.3 L 305.0 133.9 L 305.2 133.5 L 305.3 133.1 L 305.5 132.7 L 305.7 132.3 L 305.8 132.0 L 306.0 131.6 L 306.2 131.2 L 306.3 130.8 L 306.5 130.5 L 306.7 130.1 L 306.8 129.7 L 307.0 129.4 L 307.2 129.0 L 307.3 128.6 L 307.5 128.3 L 307.7 127.9 L 307.8 127.5 L 308.0 127.2 L 308.2 126.8 L 308.3 126.5 L 308.5 126.1 L 308.7 125.7 L 308.8 125.4 L 309.0 125.0 L 309.2 124.7 L 309.3 124.3 L 309.5 124.0 L 309.7 123.6 L 309.8 123.3 L 310.0 123.0 L 310.2 122.6 L 310.3 122.3 L 310.5 121.9 L 310.7 121.6 L 310.8 121.3 L 311.0 120.9 L 311.2 120.6 L 311.3 120.3 L 311.5 119.9 L 311.7 119.6 L 311.8 119.3 L 312.0 118.9 L 312.2 118.6 L 312.3 118.3 L 312.5 118.0 L 312.7 117.7 L 312.8 117.3 L 313.0 117.0 L 313.2 116.7 L 313.3 116.4 L 313.5 116.1 L 313.7 115.8 L 313.8 115.4 L 314.0 115.1 L 314.2 114.8 L 314.3 114.5 L 314.5 114.2 L 314.7 113.9 L 314.8 113.6 L 315.0 113.3 L 315.2 113.0 L 315.3 112.7 L 315.5 112.4 L 315.7 112.1 L 315.8 111.8 L 316.0 111.5 L 316.2 111.2 L 316.3 110.9 L 316.5 110.6 L 316.7 110.4 L 316.8 110.1 L 317.0 109.8 L 317.2 109.5 L 317.3 109.2 L 317.5 108.9 L 317.7 108.7 L 317.8 108.4 L 318.0 108.1 L 318.2 107.8 L 318.3 107.5 L 318.5 107.3 L 318.7 107.0 L 318.8 106.7 L 319.0 106.5 L 319.2 106.2 L 319.3 105.9 L 319.5 105.6 L 319.7 105.4 L 319.8 105.1 L 320.0 104.9 L 320.2 104.6 L 320.3 104.3 L 320.5 104.1 L 320.7 103.8 L 320.8 103.6 L 321.0 103.3 L 321.2 103.1 L 321.3 102.8 L 321.5 102.6 L 321.7 102.3 L 321.8 102.1 L 322.0 101.8 L 322.2 101.6 L 322.3 101.3 L 322.5 101.1 L 322.7 100.8 L 322.8 100.6 L 323.0 100.4 L 323.2 100.1 L 323.3 99.9 L 323.5 99.6 L 323.7 99.4 L 323.8 99.2 L 324.0 98.9 L 324.2 98.7 L 324.3 98.5 L 324.5 98.3 L 324.7 98.0 L 324.8 97.8 L 325.0 97.6 L 325.2 97.3 L 325.3 97.1 L 325.5 96.9 L 325.7 96.7 L 325.8 96.5 L 326.0 96.2 L 326.2 96.0 L 326.3 95.8 L 326.5 95.6 L 326.7 95.4 L 326.8 95.2 L 327.0 95.0 L 327.2 94.8 L 327.3 94.5 L 327.5 94.3 L 327.7 94.1 L 327.8 93.9 L 328.0 93.7 L 328.2 93.5 L 328.3 93.3 L 328.5 93.1 L 328.7 92.9 L 328.8 92.7 L 329.0 92.5 L 329.2 92.3 L 329.3 92.1 L 329.5 91.9 L 329.7 91.8 L 329.8 91.6 L 330.0 91.4 L 330.2 91.2 L 330.3 91.0 L 330.5 90.8 L 330.7 90.6 L 330.8 90.4 L 331.0 90.3 L 331.2 90.1 L 331.3 89.9 L 331.5 89.7 L 331.7 89.5 L 331.8 89.4 L 332.0 89.2 L 332.2 89.0 L 332.3 88.8 L 332.5 88.7 L 332.7 88.5 L 332.8 88.3 L 333.0 88.1 L 333.2 88.0 L 333.3 87.8 L 333.5 87.6 L 333.7 87.5 L 333.8 87.3 L 334.0 87.1 L 334.2 87.0 L 334.3 86.8 L 334.5 86.7 L 334.7 86.5 L 334.8 86.3 L 335.0 86.2 L 335.2 86.0 L 335.3 85.9 L 335.5 85.7 L 335.7 85.6 L 335.8 85.4 L 336.0 85.3 L 336.2 85.1 L 336.3 85.0 L 336.5 84.8 L 336.7 84.7 L 336.8 84.5 L 337.0 84.4 L 337.2 84.2 L 337.3 84.1 L 337.5 83.9 L 337.7 83.8 L 337.8 83.7 L 338.0 83.5 L 338.2 83.4 L 338.3 83.2 L 338.5 83.1 L 338.7 83.0 L 338.8 82.8 L 339.0 82.7 L 339.2 82.6 L 339.3 82.4 L 339.5 82.3 L 339.7 82.2 L 339.8 82.0 L 340.0 81.9 L 340.2 81.8 L 340.3 81.7 L 340.5 81.5 L 340.7 81.4 L 340.8 81.3 L 341.0 81.2 L 341.2 81.0 L 341.3 80.9 L 341.5 80.8 L 341.7 80.7 L 341.8 80.6 L 342.0 80.4 L 342.2 80.3 L 342.3 80.2 L 342.5 80.1 L 342.7 80.0 L 342.8 79.9 L 343.0 79.8 L 343.2 79.7 L 343.3 79.5 L 343.5 79.4 L 343.7 79.3 L 343.8 79.2 L 344.0 79.1 L 344.2 79.0 L 344.3 78.9 L 344.5 78.8 L 344.7 78.7 L 344.8 78.6 L 345.0 78.5 L 345.2 78.4 L 345.3 78.3 L 345.5 78.2 L 345.7 78.1 L 345.8 78.0 L 346.0 77.9 L 346.2 77.8 L 346.3 77.7 L 346.5 77.6 L 346.7 77.5 L 346.8 77.4 L 347.0 77.3 L 347.2 77.3 L 347.3 77.2 L 347.5 77.1 L 347.7 77.0 L 347.8 76.9 L 348.0 76.8 L 348.2 76.7 L 348.3 76.6 L 348.5 76.6 L 348.7 76.5 L 348.8 76.4 L 349.0 76.3 L 349.2 76.2 L 349.3 76.1 L 349.5 76.1 L 349.7 76.0 L 349.8 75.9 L 350.0 75.8 L 350.2 75.8 L 350.3 75.7 L 350.5 75.6 L 350.7 75.5 L 350.8 75.5 L 351.0 75.4 L 351.2 75.3 L 351.3 75.2 L 351.5 75.2 L 351.7 75.1 L 351.8 75.0 L 352.0 75.0 L 352.2 74.9 L 352.3 74.8 L 352.5 74.8 L 352.7 74.7 L 352.8 74.6 L 353.0 74.6 L 353.2 74.5 L 353.3 74.4 L 353.5 74.4 L 353.7 74.3 L 353.8 74.3 L 354.0 74.2 L 354.2 74.1 L 354.3 74.1 L 354.5 74.0 L 354.7 74.0 L 354.8 73.9 L 355.0 73.9 L 355.2 73.8 L 355.3 73.7 L 355.5 73.7 L 355.7 73.6 L 355.8 73.6 L 356.0 73.5 L 356.2 73.5 L 356.3 73.4 L 356.5 73.4 L 356.7 73.3 L 356.8 73.3 L 357.0 73.2 L 357.2 73.2 L 357.3 73.1 L 357.5 73.1 L 357.7 73.0 L 357.8 73.0 L 358.0 73.0 L 358.2 72.9 L 358.3 72.9 L 358.5 72.8 L 358.7 72.8 L 358.8 72.7 L 359.0 72.7 L 359.2 72.7 L 359.3 72.6 L 359.5 72.6 L 359.7 72.5 L 359.8 72.5 L 360.0 72.5 L 360.2 72.4 L 360.3 72.4 L 360.5 72.4 L 360.7 72.3 L 360.8 72.3 L 361.0 72.3 L 361.2 72.2 L 361.3 72.2 L 361.5 72.2 L 361.7 72.1 L 361.8 72.1 L 362.0 72.1 L 362.2 72.0 L 362.3 72.0 L 362.5 72.0 L 362.7 71.9 L 362.8 71.9 L 363.0 71.9 L 363.2 71.9 L 363.3 71.8 L 363.5 71.8 L 363.7 71.8 L 363.8 71.8 L 364.0 71.7 L 364.2 71.7 L 364.3 71.7 L 364.5 71.7 L 364.7 71.6 L 364.8 71.6 L 365.0 71.6 L 365.2 71.6 L 365.3 71.6 L 365.5 71.5 L 365.7 71.5 L 365.8 71.5 L 366.0 71.5 L 366.2 71.5 L 366.3 71.4 L 366.5 71.4 L 366.7 71.4 L 366.8 71.4 L 367.0 71.4 L 367.2 71.4 L 367.3 71.4 L 367.5 71.3 L 367.7 71.3 L 367.8 71.3 L 368.0 71.3 L 368.2 71.3 L 368.3 71.3 L 368.5 71.3 L 368.7 71.3 L 368.8 71.2 L 369.0 71.2 L 369.2 71.2 L 369.3 71.2 L 369.5 71.2 L 369.7 71.2 L 369.8 71.2 L 370.0 71.2 L 370.2 71.2 L 370.3 71.2 L 370.5 71.2 L 370.7 71.2 L 370.8 71.2 L 371.0 71.1 L 371.2 71.1 L 371.3 71.1 L 371.5 71.1 L 371.7 71.1 L 371.8 71.1 L 372.0 71.1 L 372.2 71.1 L 372.3 71.1 L 372.5 71.1 L 372.7 71.1 L 372.8 71.1 L 373.0 71.1 L 373.2 71.1 L 373.3 71.1 L 373.5 71.1 L 373.7 71.1 L 373.8 71.1 L 374.0 71.1 L 374.2 71.1 L 374.3 71.1 L 374.5 71.1 L 374.7 71.1 L 374.8 71.1 L 375.0 71.1 L 375.2 71.1 L 375.3 71.2 L 375.5 71.2 L 375.7 71.2 L 375.8 71.2 L 376.0 71.2 L 376.2 71.2 L 376.3 71.2 L 376.5 71.2 L 376.7 71.2 L 376.8 71.2 L 377.0 71.2 L 377.2 71.2 L 377.3 71.2 L 377.5 71.2 L 377.7 71.3 L 377.8 71.3 L 378.0 71.3 L 378.2 71.3 L 378.3 71.3 L 378.5 71.3 L 378.7 71.3 L 378.8 71.3 L 379.0 71.3 L 379.2 71.3 L 379.3 71.4 L 379.5 71.4 L 379.7 71.4 L 379.8 71.4 L 380.0 71.4 L 380.2 71.4 L 380.3 71.4 L 380.5 71.5 L 380.7 71.5 L 380.8 71.5 L 381.0 71.5 L 381.2 71.5 L 381.3 71.5 L 381.5 71.5 L 381.7 71.6 L 381.8 71.6 L 382.0 71.6 L 382.2 71.6 L 382.3 71.6 L 382.5 71.7 L 382.7 71.7 L 382.8 71.7 L 383.0 71.7 L 383.2 71.7 L 383.3 71.7 L 383.5 71.8 L 383.7 71.8 L 383.8 71.8 L 384.0 71.8 L 384.2 71.8 L 384.3 71.9 L 384.5 71.9 L 384.7 71.9 L 384.8 71.9 L 385.0 71.9 L 385.2 72.0 L 385.3 72.0 L 385.5 72.0 L 385.7 72.0 L 385.8 72.1 L 386.0 72.1 L 386.2 72.1 L 386.3 72.1 L 386.5 72.1 L 386.7 72.2 L 386.8 72.2 L 387.0 72.2 L 387.2 72.2 L 387.3 72.3 L 387.5 72.3 L 387.7 72.3 L 387.8 72.3 L 388.0 72.4 L 388.2 72.4 L 388.3 72.4 L 388.5 72.4 L 388.7 72.5 L 388.8 72.5 L 389.0 72.5 L 389.2 72.5 L 389.3 72.6 L 389.5 72.6 L 389.7 72.6 L 389.8 72.7 L 390.0 72.7 L 390.2 72.7 L 390.3 72.7 L 390.5 72.8 L 390.7 72.8 L 390.8 72.8 L 391.0 72.8 L 391.2 72.9 L 391.3 72.9 L 391.5 72.9 L 391.7 73.0 L 391.8 73.0 L 392.0 73.0 L 392.2 73.0 L 392.3 73.1 L 392.5 73.1 L 392.7 73.1 L 392.8 73.2 L 393.0 73.2 L 393.2 73.2 L 393.3 73.3 L 393.5 73.3 L 393.7 73.3 L 393.8 73.3 L 394.0 73.4 L 394.2 73.4 L 394.3 73.4 L 394.5 73.5 L 394.7 73.5 L 394.8 73.5 L 395.0 73.6 L 395.2 73.6 L 395.3 73.6 L 395.5 73.7 L 395.7 73.7 L 395.8 73.7 L 396.0 73.8 L 396.2 73.8 L 396.3 73.8 L 396.5 73.9 L 396.7 73.9 L 396.8 73.9 L 397.0 74.0 L 397.2 74.0 L 397.3 74.0 L 397.5 74.1 L 397.7 74.1 L 397.8 74.1 L 398.0 74.2 L 398.2 74.2 L 398.3 74.2 L 398.5 74.3 L 398.7 74.3 L 398.8 74.3 L 399.0 74.4 L 399.2 74.4 L 399.3 74.4 L 399.5 74.5 L 399.7 74.5 L 399.8 74.5 L 400.0 74.6 L 400.2 74.6 L 400.3 74.6 L 400.5 74.7 L 400.7 74.7 L 400.8 74.7 L 401.0 74.8 L 401.2 74.8 L 401.3 74.9 L 401.5 74.9 L 401.7 74.9 L 401.8 75.0 L 402.0 75.0 L 402.2 75.0 L 402.3 75.1 L 402.5 75.1 L 402.7 75.1 L 402.8 75.2 L 403.0 75.2 L 403.2 75.3 L 403.3 75.3 L 403.5 75.3 L 403.7 75.4 L 403.8 75.4 L 404.0 75.4 L 404.2 75.5 L 404.3 75.5 L 404.5 75.5 L 404.7 75.6 L 404.8 75.6 L 405.0 75.7 L 405.2 75.7 L 405.3 75.7 L 405.5 75.8 L 405.7 75.8 L 405.8 75.8 L 406.0 75.9 L 406.2 75.9 L 406.3 76.0 L 406.5 76.0 L 406.7 76.0 L 406.8 76.1 L 407.0 76.1 L 407.2 76.1 L 407.3 76.2 L 407.5 76.2 L 407.7 76.3 L 407.8 76.3 L 408.0 76.3 L 408.2 76.4 L 408.3 76.4 L 408.5 76.4 L 408.7 76.5 L 408.8 76.5 L 409.0 76.6 L 409.2 76.6 L 409.3 76.6 L 409.5 76.7 L 409.7 76.7 L 409.8 76.7 L 410.0 76.8 L 410.2 76.8 L 410.3 76.9 L 410.5 76.9 L 410.7 76.9 L 410.8 77.0 L 411.0 77.0 L 411.2 77.0 L 411.3 77.1 L 411.5 77.1 L 411.7 77.2 L 411.8 77.2 L 412.0 77.2 L 412.2 77.3 L 412.3 77.3 L 412.5 77.4 L 412.7 77.4 L 412.8 77.4 L 413.0 77.5 L 413.2 77.5 L 413.3 77.5 L 413.5 77.6 L 413.7 77.6 L 413.8 77.7 L 414.0 77.7 L 414.2 77.7 L 414.3 77.8 L 414.5 77.8 L 414.7 77.9 L 414.8 77.9 L 415.0 77.9 L 415.2 78.0 L 415.3 78.0 L 415.5 78.0 L 415.7 78.1 L 415.8 78.1 L 416.0 78.2 L 416.2 78.2 L 416.3 78.2 L 416.5 78.3 L 416.7 78.3 L 416.8 78.3 L 417.0 78.4 L 417.2 78.4 L 417.3 78.5 L 417.5 78.5 L 417.7 78.5 L 417.8 78.6 L 418.0 78.6 L 418.2 78.7 L 418.3 78.7 L 418.5 78.7 L 418.7 78.8 L 418.8 78.8 L 419.0 78.8 L 419.2 78.9 L 419.3 78.9 L 419.5 79.0 L 419.7 79.0 L 419.8 79.0 L 420.0 79.1 L 420.2 79.1 L 420.3 79.1 L 420.5 79.2 L 420.7 79.2 L 420.8 79.3 L 421.0 79.3 L 421.2 79.3 L 421.3 79.4 L 421.5 79.4 L 421.7 79.4 L 421.8 79.5 L 422.0 79.5 L 422.2 79.6 L 422.3 79.6 L 422.5 79.6 L 422.7 79.7 L 422.8 79.7 L 423.0 79.7 L 423.2 79.8 L 423.3 79.8 L 423.5 79.9 L 423.7 79.9 L 423.8 79.9 L 424.0 80.0 L 424.2 80.0 L 424.3 80.0 L 424.5 80.1 L 424.7 80.1 L 424.8 80.1 L 425.0 80.2 L 425.2 80.2 L 425.3 80.3 L 425.5 80.3 L 425.7 80.3 L 425.8 80.4 L 426.0 80.4 L 426.2 80.4 L 426.3 80.5 L 426.5 80.5 L 426.7 80.5 L 426.8 80.6 L 427.0 80.6 L 427.2 80.7 L 427.3 80.7 L 427.5 80.7 L 427.7 80.8 L 427.8 80.8 L 428.0 80.8 L 428.2 80.9 L 428.3 80.9 L 428.5 80.9 L 428.7 81.0 L 428.8 81.0 L 429.0 81.1 L 429.2 81.1 L 429.3 81.1 L 429.5 81.2 L 429.7 81.2 L 429.8 81.2 L 430.0 81.3 L 430.2 81.3 L 430.3 81.3 L 430.5 81.4 L 430.7 81.4 L 430.8 81.4 L 431.0 81.5 L 431.2 81.5 L 431.3 81.5 L 431.5 81.6 L 431.7 81.6 L 431.8 81.6 L 432.0 81.7 L 432.2 81.7 L 432.3 81.7 L 432.5 81.8 L 432.7 81.8 L 432.8 81.9 L 433.0 81.9 L 433.2 81.9 L 433.3 82.0 L 433.5 82.0 L 433.7 82.0 L 433.8 82.1 L 434.0 82.1 L 434.2 82.1 L 434.3 82.2 L 434.5 82.2 L 434.7 82.2 L 434.8 82.3 L 435.0 82.3 L 435.2 82.3 L 435.3 82.4 L 435.5 82.4 L 435.7 82.4 L 435.8 82.5 L 436.0 82.5 L 436.2 82.5 L 436.3 82.6 L 436.5 82.6 L 436.7 82.6 L 436.8 82.7 L 437.0 82.7 L 437.2 82.7 L 437.3 82.7 L 437.5 82.8 L 437.7 82.8 L 437.8 82.8 L 438.0 82.9 L 438.2 82.9 L 438.3 82.9 L 438.5 83.0 L 438.7 83.0 L 438.8 83.0 L 439.0 83.1 L 439.2 83.1 L 439.3 83.1 L 439.5 83.2 L 439.7 83.2 L 439.8 83.2 L 440.0 83.3 L 440.2 83.3 L 440.3 83.3 L 440.5 83.3 L 440.7 83.4 L 440.8 83.4 L 441.0 83.4 L 441.2 83.5 L 441.3 83.5 L 441.5 83.5 L 441.7 83.6 L 441.8 83.6 L 442.0 83.6 L 442.2 83.7 L 442.3 83.7 L 442.5 83.7 L 442.7 83.7 L 442.8 83.8 L 443.0 83.8 L 443.2 83.8 L 443.3 83.9 L 443.5 83.9 L 443.7 83.9 L 443.8 84.0 L 444.0 84.0 L 444.2 84.0 L 444.3 84.0 L 444.5 84.1 L 444.7 84.1 L 444.8 84.1 L 445.0 84.2 L 445.2 84.2 L 445.3 84.2 L 445.5 84.2 L 445.7 84.3 L 445.8 84.3 L 446.0 84.3 L 446.2 84.4 L 446.3 84.4 L 446.5 84.4 L 446.7 84.4 L 446.8 84.5 L 447.0 84.5 L 447.2 84.5 L 447.3 84.6 L 447.5 84.6 L 447.7 84.6 L 447.8 84.6 L 448.0 84.7 L 448.2 84.7 L 448.3 84.7 L 448.5 84.7 L 448.7 84.8 L 448.8 84.8 L 449.0 84.8 L 449.2 84.9 L 449.3 84.9 L 449.5 84.9 L 449.7 84.9 L 449.8 85.0 L 450.0 85.0 L 450.2 85.0 L 450.3 85.0 L 450.5 85.1 L 450.7 85.1 L 450.8 85.1 L 451.0 85.1 L 451.2 85.2 L 451.3 85.2 L 451.5 85.2 L 451.7 85.2 L 451.8 85.3 L 452.0 85.3 L 452.2 85.3 L 452.3 85.3 L 452.5 85.4 L 452.7 85.4 L 452.8 85.4 L 453.0 85.4 L 453.2 85.5 L 453.3 85.5 L 453.5 85.5 L 453.7 85.5 L 453.8 85.6 L 454.0 85.6 L 454.2 85.6 L 454.3 85.6 L 454.5 85.7 L 454.7 85.7 L 454.8 85.7 L 455.0 85.7 L 455.2 85.8 L 455.3 85.8 L 455.5 85.8 L 455.7 85.8 L 455.8 85.9 L 456.0 85.9 L 456.2 85.9 L 456.3 85.9 L 456.5 86.0 L 456.7 86.0 L 456.8 86.0 L 457.0 86.0 L 457.2 86.0 L 457.3 86.1 L 457.5 86.1 L 457.7 86.1 L 457.8 86.1 L 458.0 86.2 L 458.2 86.2 L 458.3 86.2 L 458.5 86.2 L 458.7 86.2 L 458.8 86.3 L 459.0 86.3 L 459.2 86.3 L 459.3 86.3 L 459.5 86.4 L 459.7 86.4 L 459.8 86.4 L 460.0 86.4 L 460.2 86.4 L 460.3 86.5 L 460.5 86.5 L 460.7 86.5 L 460.8 86.5 L 461.0 86.5 L 461.2 86.6 L 461.3 86.6 L 461.5 86.6 L 461.7 86.6 L 461.8 86.7 L 462.0 86.7 L 462.2 86.7 L 462.3 86.7 L 462.5 86.7 L 462.7 86.8 L 462.8 86.8 L 463.0 86.8 L 463.2 86.8 L 463.3 86.8 L 463.5 86.9 L 463.7 86.9 L 463.8 86.9 L 464.0 86.9 L 464.2 86.9 L 464.3 87.0 L 464.5 87.0 L 464.7 87.0 L 464.8 87.0 L 465.0 87.0 L 465.2 87.0 L 465.3 87.1 L 465.5 87.1 L 465.7 87.1 L 465.8 87.1 L 466.0 87.1 L 466.2 87.2 L 466.3 87.2 L 466.5 87.2 L 466.7 87.2 L 466.8 87.2 L 467.0 87.3 L 467.2 87.3 L 467.3 87.3 L 467.5 87.3 L 467.7 87.3 L 467.8 87.3 L 468.0 87.4 L 468.2 87.4 L 468.3 87.4 L 468.5 87.4 L 468.7 87.4 L 468.8 87.4 L 469.0 87.5 L 469.2 87.5 L 469.3 87.5 L 469.5 87.5 L 469.7 87.5 L 469.8 87.5 L 470.0 87.6 L 470.2 87.6 L 470.3 87.6 L 470.5 87.6 L 470.7 87.6 L 470.8 87.6 L 471.0 87.7 L 471.2 87.7 L 471.3 87.7 L 471.5 87.7 L 471.7 87.7 L 471.8 87.7 L 472.0 87.8 L 472.2 87.8 L 472.3 87.8 L 472.5 87.8 L 472.7 87.8 L 472.8 87.8 L 473.0 87.9 L 473.2 87.9 L 473.3 87.9 L 473.5 87.9 L 473.7 87.9 L 473.8 87.9 L 474.0 87.9 L 474.2 88.0 L 474.3 88.0 L 474.5 88.0 L 474.7 88.0 L 474.8 88.0 L 475.0 88.0 L 475.2 88.0 L 475.3 88.1 L 475.5 88.1 L 475.7 88.1 L 475.8 88.1 L 476.0 88.1 L 476.2 88.1 L 476.3 88.1 L 476.5 88.2 L 476.7 88.2 L 476.8 88.2 L 477.0 88.2 L 477.2 88.2 L 477.3 88.2 L 477.5 88.2 L 477.7 88.3 L 477.8 88.3 L 478.0 88.3 L 478.2 88.3 L 478.3 88.3 L 478.5 88.3 L 478.7 88.3 L 478.8 88.3 L 479.0 88.4 L 479.2 88.4 L 479.3 88.4 L 479.5 88.4 L 479.7 88.4 L 479.8 88.4 L 480.0 88.4 L 480.2 88.4 L 480.3 88.5 L 480.5 88.5 L 480.7 88.5 L 480.8 88.5 L 481.0 88.5 L 481.2 88.5 L 481.3 88.5 L 481.5 88.5 L 481.7 88.6 L 481.8 88.6 L 482.0 88.6 L 482.2 88.6 L 482.3 88.6 L 482.5 88.6 L 482.7 88.6 L 482.8 88.6 L 483.0 88.6 L 483.2 88.7 L 483.3 88.7 L 483.5 88.7 L 483.7 88.7 L 483.8 88.7 L 484.0 88.7 L 484.2 88.7 L 484.3 88.7 L 484.5 88.7 L 484.7 88.8 L 484.8 88.8 L 485.0 88.8 L 485.2 88.8 L 485.3 88.8 L 485.5 88.8 L 485.7 88.8 L 485.8 88.8 L 486.0 88.8 L 486.2 88.8 L 486.3 88.9 L 486.5 88.9 L 486.7 88.9 L 486.8 88.9 L 487.0 88.9 L 487.2 88.9 L 487.3 88.9 L 487.5 88.9 L 487.7 88.9 L 487.8 88.9 L 488.0 89.0 L 488.2 89.0 L 488.3 89.0 L 488.5 89.0 L 488.7 89.0 L 488.8 89.0 L 489.0 89.0 L 489.2 89.0 L 489.3 89.0 L 489.5 89.0 L 489.7 89.0 L 489.8 89.1 L 490.0 89.1 L 490.2 89.1 L 490.3 89.1 L 490.5 89.1 L 490.7 89.1 L 490.8 89.1 L 491.0 89.1 L 491.2 89.1 L 491.3 89.1 L 491.5 89.1 L 491.7 89.1 L 491.8 89.2 L 492.0 89.2 L 492.2 89.2 L 492.3 89.2 L 492.5 89.2 L 492.7 89.2 L 492.8 89.2 L 493.0 89.2 L 493.2 89.2 L 493.3 89.2 L 493.5 89.2 L 493.7 89.2 L 493.8 89.2 L 494.0 89.3 L 494.2 89.3 L 494.3 89.3 L 494.5 89.3 L 494.7 89.3 L 494.8 89.3 L 495.0 89.3 L 495.2 89.3 L 495.3 89.3 L 495.5 89.3 L 495.7 89.3 L 495.8 89.3 L 496.0 89.3 L 496.2 89.3 L 496.3 89.3 L 496.5 89.4 L 496.7 89.4 L 496.8 89.4 L 497.0 89.4 L 497.2 89.4 L 497.3 89.4 L 497.5 89.4 L 497.7 89.4 L 497.8 89.4 L 498.0 89.4 L 498.2 89.4 L 498.3 89.4 L 498.5 89.4 L 498.7 89.4 L 498.8 89.4 L 499.0 89.4 L 499.2 89.5 L 499.3 89.5 L 499.5 89.5 L 499.7 89.5 L 499.8 89.5 L 500.0 89.5 L 500.2 89.5 L 500.3 89.5 L 500.5 89.5 L 500.7 89.5 L 500.8 89.5 L 501.0 89.5 L 501.2 89.5 L 501.3 89.5 L 501.5 89.5 L 501.7 89.5 L 501.8 89.5 L 502.0 89.5 L 502.2 89.5 L 502.3 89.6 L 502.5 89.6 L 502.7 89.6 L 502.8 89.6 L 503.0 89.6 L 503.2 89.6 L 503.3 89.6 L 503.5 89.6 L 503.7 89.6 L 503.8 89.6 L 504.0 89.6 L 504.2 89.6 L 504.3 89.6 L 504.5 89.6 L 504.7 89.6 L 504.8 89.6 L 505.0 89.6 L 505.2 89.6 L 505.3 89.6 L 505.5 89.6 L 505.7 89.6 L 505.8 89.6 L 506.0 89.6 L 506.2 89.7 L 506.3 89.7 L 506.5 89.7 L 506.7 89.7 L 506.8 89.7 L 507.0 89.7 L 507.2 89.7 L 507.3 89.7 L 507.5 89.7 L 507.7 89.7 L 507.8 89.7 L 508.0 89.7 L 508.2 89.7 L 508.3 89.7 L 508.5 89.7 L 508.7 89.7 L 508.8 89.7 L 509.0 89.7 L 509.2 89.7 L 509.3 89.7 L 509.5 89.7 L 509.7 89.7 L 509.8 89.7 L 510.0 89.7 L 510.2 89.7 L 510.3 89.7 L 510.5 89.7 L 510.7 89.7 L 510.8 89.7 L 511.0 89.7 L 511.2 89.8 L 511.3 89.8 L 511.5 89.8 L 511.7 89.8 L 511.8 89.8 L 512.0 89.8 L 512.2 89.8 L 512.3 89.8 L 512.5 89.8 L 512.7 89.8 L 512.8 89.8 L 513.0 89.8 L 513.2 89.8 L 513.3 89.8 L 513.5 89.8 L 513.7 89.8 L 513.8 89.8 L 514.0 89.8 L 514.2 89.8 L 514.3 89.8 L 514.5 89.8 L 514.7 89.8 L 514.8 89.8 L 515.0 89.8 L 515.2 89.8 L 515.3 89.8 L 515.5 89.8 L 515.7 89.8 L 515.8 89.8 L 516.0 89.8 L 516.2 89.8 L 516.3 89.8 L 516.5 89.8 L 516.7 89.8 L 516.8 89.8 L 517.0 89.8 L 517.2 89.8 L 517.3 89.8 L 517.5 89.8 L 517.7 89.8 L 517.8 89.8 L 518.0 89.8 L 518.2 89.8 L 518.3 89.8 L 518.5 89.8 L 518.7 89.8 L 518.8 89.8 L 519.0 89.8 L 519.2 89.8 L 519.3 89.8 L 519.5 89.8 L 519.7 89.8 L 519.8 89.8 L 520.0 89.8 L 520.2 89.8 L 520.3 89.8 L 520.5 89.9 L 520.7 89.9 L 520.8 89.9 L 521.0 89.9 L 521.2 89.9 L 521.3 89.9 L 521.5 89.9 L 521.7 89.9 L 521.8 89.9 L 522.0 89.9 L 522.2 89.9 L 522.3 89.9 L 522.5 89.9 L 522.7 89.9 L 522.8 89.9 L 523.0 89.9 L 523.2 89.9 L 523.3 89.9 L 523.5 89.9 L 523.7 89.9 L 523.8 89.9 L 524.0 89.9 L 524.2 89.9 L 524.3 89.9 L 524.5 89.9 L 524.7 89.9 L 524.8 89.9 L 525.0 89.9 L 525.2 89.9 L 525.3 89.9 L 525.5 89.9 L 525.7 89.9 L 525.8 89.9 L 526.0 89.9 L 526.2 89.9 L 526.3 89.9 L 526.5 89.9 L 526.7 89.9 L 526.8 89.9 L 527.0 89.9 L 527.2 89.9 L 527.3 89.9 L 527.5 89.9 L 527.7 89.9 L 527.8 89.9 L 528.0 89.9 L 528.2 89.9 L 528.3 89.9 L 528.5 89.9 L 528.7 89.9 L 528.8 89.9 L 529.0 89.9 L 529.2 89.9 L 529.3 89.9 L 529.5 89.9 L 529.7 89.9 L 529.8 89.9 L 530.0 89.9" fill="none" stroke="#10b981" stroke-width="2.2"/>
<text x="526" y="62" text-anchor="end" font-family="system-ui,-apple-system,Segoe UI,Roboto,sans-serif" font-size="10" font-weight="400" fill="#e11d48">P</text>
<text x="526" y="78" text-anchor="end" font-family="system-ui,-apple-system,Segoe UI,Roboto,sans-serif" font-size="10" font-weight="400" fill="#d97706">PI</text>
<text x="526" y="94" text-anchor="end" font-family="system-ui,-apple-system,Segoe UI,Roboto,sans-serif" font-size="10" font-weight="400" fill="#10b981">PID</text>
<text x="405.0" y="216" text-anchor="middle" font-family="system-ui,-apple-system,Segoe UI,Roboto,sans-serif" font-size="10" font-weight="400" fill="#64748b">P → PI → PID: offset removed, overshoot damped</text>
</svg>
