<svg viewBox="0 0 470 250" xmlns="http://www.w3.org/2000/svg" role="img" aria-label="The same trajectory hit by a disturbance kick partway through: feedforward only steps off the reference and never recovers while feedforward plus feedback dips then returns to the reference, with the feedback command spiking exactly at the disturbance">
<title>The same trajectory hit by a disturbance kick partway through: feedforward only steps off the reference and never recovers while feedforward plus feedback dips then returns to the reference, with the feedback command spiking exactly at the disturbance</title>
<rect width="470" height="250" fill="white"/>
<text x="235" y="24" text-anchor="middle" font-family="system-ui,-apple-system,Segoe UI,Roboto,sans-serif" font-size="12.5" font-weight="650" fill="#0f172a">Why feedback is still essential: disturbance rejection</text>
<rect x="55" y="46" width="360" height="128" fill="#f8fafc" stroke="#e2e8f0"/>
<line x1="222.99999999999997" y1="46" x2="222.99999999999997" y2="174" stroke="#d97706" stroke-width="1.2" stroke-dasharray="3 3"/>
<text x="222.99999999999997" y="43" text-anchor="middle" font-family="system-ui,-apple-system,Segoe UI,Roboto,sans-serif" font-size="9" font-weight="400" fill="#d97706">disturbance</text>
<path d="M 55.0 162.4 L 55.5 162.4 L 56.0 162.4 L 56.4 162.4 L 56.9 162.4 L 57.4 162.4 L 57.9 162.4 L 58.4 162.4 L 58.8 162.4 L 59.3 162.4 L 59.8 162.4 L 60.3 162.4 L 60.8 162.4 L 61.2 162.4 L 61.7 162.4 L 62.2 162.4 L 62.7 162.4 L 63.2 162.4 L 63.6 162.4 L 64.1 162.4 L 64.6 162.4 L 65.1 162.3 L 65.6 162.3 L 66.0 162.3 L 66.5 162.3 L 67.0 162.3 L 67.5 162.3 L 68.0 162.3 L 68.4 162.3 L 68.9 162.3 L 69.4 162.3 L 69.9 162.3 L 70.4 162.3 L 70.8 162.3 L 71.3 162.3 L 71.8 162.3 L 72.3 162.3 L 72.8 162.3 L 73.2 162.3 L 73.7 162.3 L 74.2 162.3 L 74.7 162.3 L 75.2 162.3 L 75.6 162.2 L 76.1 162.2 L 76.6 162.2 L 77.1 162.2 L 77.6 162.2 L 78.0 162.2 L 78.5 162.2 L 79.0 162.2 L 79.5 162.2 L 80.0 162.2 L 80.4 162.1 L 80.9 162.1 L 81.4 162.1 L 81.9 162.1 L 82.4 162.1 L 82.8 162.1 L 83.3 162.1 L 83.8 162.0 L 84.3 162.0 L 84.8 162.0 L 85.2 162.0 L 85.7 162.0 L 86.2 162.0 L 86.7 161.9 L 87.2 161.9 L 87.6 161.9 L 88.1 161.9 L 88.6 161.9 L 89.1 161.9 L 89.6 161.8 L 90.0 161.8 L 90.5 161.8 L 91.0 161.8 L 91.5 161.7 L 92.0 161.7 L 92.4 161.7 L 92.9 161.7 L 93.4 161.6 L 93.9 161.6 L 94.4 161.6 L 94.8 161.6 L 95.3 161.5 L 95.8 161.5 L 96.3 161.5 L 96.8 161.5 L 97.2 161.4 L 97.7 161.4 L 98.2 161.4 L 98.7 161.3 L 99.2 161.3 L 99.6 161.3 L 100.1 161.2 L 100.6 161.2 L 101.1 161.2 L 101.6 161.1 L 102.0 161.1 L 102.5 161.1 L 103.0 161.0 L 103.5 161.0 L 104.0 160.9 L 104.4 160.9 L 104.9 160.9 L 105.4 160.8 L 105.9 160.8 L 106.4 160.7 L 106.8 160.7 L 107.3 160.7 L 107.8 160.6 L 108.3 160.6 L 108.8 160.5 L 109.2 160.5 L 109.7 160.4 L 110.2 160.4 L 110.7 160.3 L 111.2 160.3 L 111.6 160.2 L 112.1 160.2 L 112.6 160.1 L 113.1 160.1 L 113.6 160.0 L 114.0 160.0 L 114.5 159.9 L 115.0 159.9 L 115.5 159.8 L 116.0 159.8 L 116.4 159.7 L 116.9 159.7 L 117.4 159.6 L 117.9 159.5 L 118.4 159.5 L 118.8 159.4 L 119.3 159.4 L 119.8 159.3 L 120.3 159.3 L 120.8 159.2 L 121.2 159.1 L 121.7 159.1 L 122.2 159.0 L 122.7 158.9 L 123.2 158.9 L 123.6 158.8 L 124.1 158.7 L 124.6 158.7 L 125.1 158.6 L 125.6 158.5 L 126.0 158.5 L 126.5 158.4 L 127.0 158.3 L 127.5 158.2 L 128.0 158.2 L 128.4 158.1 L 128.9 158.0 L 129.4 158.0 L 129.9 157.9 L 130.4 157.8 L 130.8 157.7 L 131.3 157.6 L 131.8 157.6 L 132.3 157.5 L 132.8 157.4 L 133.2 157.3 L 133.7 157.2 L 134.2 157.2 L 134.7 157.1 L 135.2 157.0 L 135.6 156.9 L 136.1 156.8 L 136.6 156.7 L 137.1 156.7 L 137.6 156.6 L 138.0 156.5 L 138.5 156.4 L 139.0 156.3 L 139.5 156.2 L 140.0 156.1 L 140.4 156.0 L 140.9 155.9 L 141.4 155.9 L 141.9 155.8 L 142.4 155.7 L 142.8 155.6 L 143.3 155.5 L 143.8 155.4 L 144.3 155.3 L 144.8 155.2 L 145.2 155.1 L 145.7 155.0 L 146.2 154.9 L 146.7 154.8 L 147.2 154.7 L 147.6 154.6 L 148.1 154.5 L 148.6 154.4 L 149.1 154.3 L 149.6 154.2 L 150.0 154.1 L 150.5 154.0 L 151.0 153.9 L 151.5 153.7 L 152.0 153.6 L 152.4 153.5 L 152.9 153.4 L 153.4 153.3 L 153.9 153.2 L 154.4 153.1 L 154.8 153.0 L 155.3 152.9 L 155.8 152.8 L 156.3 152.6 L 156.8 152.5 L 157.2 152.4 L 157.7 152.3 L 158.2 152.2 L 158.7 152.1 L 159.2 151.9 L 159.6 151.8 L 160.1 151.7 L 160.6 151.6 L 161.1 151.5 L 161.6 151.3 L 162.0 151.2 L 162.5 151.1 L 163.0 151.0 L 163.5 150.9 L 164.0 150.7 L 164.4 150.6 L 164.9 150.5 L 165.4 150.4 L 165.9 150.2 L 166.4 150.1 L 166.8 150.0 L 167.3 149.8 L 167.8 149.7 L 168.3 149.6 L 168.8 149.5 L 169.2 149.3 L 169.7 149.2 L 170.2 149.1 L 170.7 148.9 L 171.2 148.8 L 171.6 148.7 L 172.1 148.5 L 172.6 148.4 L 173.1 148.3 L 173.6 148.1 L 174.0 148.0 L 174.5 147.8 L 175.0 147.7 L 175.5 147.6 L 176.0 147.4 L 176.4 147.3 L 176.9 147.2 L 177.4 147.0 L 177.9 146.9 L 178.4 146.7 L 178.8 146.6 L 179.3 146.4 L 179.8 146.3 L 180.3 146.2 L 180.8 146.0 L 181.2 145.9 L 181.7 145.7 L 182.2 145.6 L 182.7 145.4 L 183.2 145.3 L 183.6 145.1 L 184.1 145.0 L 184.6 144.8 L 185.1 144.7 L 185.6 144.5 L 186.0 144.4 L 186.5 144.2 L 187.0 144.1 L 187.5 143.9 L 188.0 143.8 L 188.4 143.6 L 188.9 143.5 L 189.4 143.3 L 189.9 143.2 L 190.4 143.0 L 190.8 142.9 L 191.3 142.7 L 191.8 142.6 L 192.3 142.4 L 192.8 142.3 L 193.2 142.1 L 193.7 141.9 L 194.2 141.8 L 194.7 141.6 L 195.2 141.5 L 195.6 141.3 L 196.1 141.2 L 196.6 141.0 L 197.1 140.8 L 197.6 140.7 L 198.0 140.5 L 198.5 140.4 L 199.0 140.2 L 199.5 140.0 L 200.0 139.9 L 200.4 139.7 L 200.9 139.6 L 201.4 139.4 L 201.9 139.2 L 202.4 139.1 L 202.8 138.9 L 203.3 138.7 L 203.8 138.6 L 204.3 138.4 L 204.8 138.2 L 205.2 138.1 L 205.7 137.9 L 206.2 137.7 L 206.7 137.6 L 207.2 137.4 L 207.6 137.3 L 208.1 137.1 L 208.6 136.9 L 209.1 136.8 L 209.6 136.6 L 210.0 136.4 L 210.5 136.2 L 211.0 136.1 L 211.5 135.9 L 212.0 135.7 L 212.4 135.6 L 212.9 135.4 L 213.4 135.2 L 213.9 135.1 L 214.4 134.9 L 214.8 134.7 L 215.3 134.6 L 215.8 134.4 L 216.3 134.2 L 216.8 134.0 L 217.2 133.9 L 217.7 133.7 L 218.2 133.5 L 218.7 133.4 L 219.2 133.2 L 219.6 133.0 L 220.1 132.8 L 220.6 132.7 L 221.1 132.5 L 221.6 132.3 L 222.0 132.2 L 222.5 132.0 L 223.0 131.8 L 223.5 131.6 L 224.0 131.5 L 224.4 131.3 L 224.9 131.1 L 225.4 130.9 L 225.9 130.8 L 226.4 130.6 L 226.8 130.4 L 227.3 130.2 L 227.8 130.1 L 228.3 129.9 L 228.8 129.7 L 229.2 129.5 L 229.7 129.4 L 230.2 129.2 L 230.7 129.0 L 231.2 128.9 L 231.6 128.7 L 232.1 128.5 L 232.6 128.3 L 233.1 128.2 L 233.6 128.0 L 234.0 127.8 L 234.5 127.6 L 235.0 127.5 L 235.5 127.3 L 236.0 127.1 L 236.4 126.9 L 236.9 126.8 L 237.4 126.6 L 237.9 126.4 L 238.4 126.2 L 238.8 126.1 L 239.3 125.9 L 239.8 125.7 L 240.3 125.5 L 240.8 125.4 L 241.2 125.2 L 241.7 125.0 L 242.2 124.8 L 242.7 124.7 L 243.2 124.5 L 243.6 124.3 L 244.1 124.1 L 244.6 124.0 L 245.1 123.8 L 245.6 123.6 L 246.0 123.5 L 246.5 123.3 L 247.0 123.1 L 247.5 122.9 L 248.0 122.8 L 248.4 122.6 L 248.9 122.4 L 249.4 122.2 L 249.9 122.1 L 250.4 121.9 L 250.8 121.7 L 251.3 121.6 L 251.8 121.4 L 252.3 121.2 L 252.8 121.0 L 253.2 120.9 L 253.7 120.7 L 254.2 120.5 L 254.7 120.4 L 255.2 120.2 L 255.6 120.0 L 256.1 119.8 L 256.6 119.7 L 257.1 119.5 L 257.6 119.3 L 258.0 119.2 L 258.5 119.0 L 259.0 118.8 L 259.5 118.7 L 260.0 118.5 L 260.4 118.3 L 260.9 118.2 L 261.4 118.0 L 261.9 117.8 L 262.4 117.7 L 262.8 117.5 L 263.3 117.3 L 263.8 117.2 L 264.3 117.0 L 264.8 116.8 L 265.2 116.7 L 265.7 116.5 L 266.2 116.3 L 266.7 116.2 L 267.2 116.0 L 267.6 115.8 L 268.1 115.7 L 268.6 115.5 L 269.1 115.4 L 269.6 115.2 L 270.0 115.0 L 270.5 114.9 L 271.0 114.7 L 271.5 114.5 L 272.0 114.4 L 272.4 114.2 L 272.9 114.1 L 273.4 113.9 L 273.9 113.7 L 274.4 113.6 L 274.8 113.4 L 275.3 113.3 L 275.8 113.1 L 276.3 113.0 L 276.8 112.8 L 277.2 112.6 L 277.7 112.5 L 278.2 112.3 L 278.7 112.2 L 279.2 112.0 L 279.6 111.9 L 280.1 111.7 L 280.6 111.6 L 281.1 111.4 L 281.6 111.3 L 282.0 111.1 L 282.5 111.0 L 283.0 110.8 L 283.5 110.7 L 284.0 110.5 L 284.4 110.4 L 284.9 110.2 L 285.4 110.1 L 285.9 109.9 L 286.4 109.8 L 286.8 109.6 L 287.3 109.5 L 287.8 109.3 L 288.3 109.2 L 288.8 109.0 L 289.2 108.9 L 289.7 108.7 L 290.2 108.6 L 290.7 108.5 L 291.2 108.3 L 291.6 108.2 L 292.1 108.0 L 292.6 107.9 L 293.1 107.8 L 293.6 107.6 L 294.0 107.5 L 294.5 107.3 L 295.0 107.2 L 295.5 107.1 L 296.0 106.9 L 296.4 106.8 L 296.9 106.7 L 297.4 106.5 L 297.9 106.4 L 298.4 106.2 L 298.8 106.1 L 299.3 106.0 L 299.8 105.8 L 300.3 105.7 L 300.8 105.6 L 301.2 105.5 L 301.7 105.3 L 302.2 105.2 L 302.7 105.1 L 303.2 104.9 L 303.6 104.8 L 304.1 104.7 L 304.6 104.6 L 305.1 104.4 L 305.6 104.3 L 306.0 104.2 L 306.5 104.1 L 307.0 103.9 L 307.5 103.8 L 308.0 103.7 L 308.4 103.6 L 308.9 103.4 L 309.4 103.3 L 309.9 103.2 L 310.4 103.1 L 310.8 103.0 L 311.3 102.8 L 311.8 102.7 L 312.3 102.6 L 312.8 102.5 L 313.2 102.4 L 313.7 102.3 L 314.2 102.2 L 314.7 102.0 L 315.2 101.9 L 315.6 101.8 L 316.1 101.7 L 316.6 101.6 L 317.1 101.5 L 317.6 101.4 L 318.0 101.3 L 318.5 101.2 L 319.0 101.1 L 319.5 100.9 L 320.0 100.8 L 320.4 100.7 L 320.9 100.6 L 321.4 100.5 L 321.9 100.4 L 322.4 100.3 L 322.8 100.2 L 323.3 100.1 L 323.8 100.0 L 324.3 99.9 L 324.8 99.8 L 325.2 99.7 L 325.7 99.6 L 326.2 99.5 L 326.7 99.4 L 327.2 99.3 L 327.6 99.2 L 328.1 99.1 L 328.6 99.1 L 329.1 99.0 L 329.6 98.9 L 330.0 98.8 L 330.5 98.7 L 331.0 98.6 L 331.5 98.5 L 332.0 98.4 L 332.4 98.3 L 332.9 98.2 L 333.4 98.2 L 333.9 98.1 L 334.4 98.0 L 334.8 97.9 L 335.3 97.8 L 335.8 97.7 L 336.3 97.7 L 336.8 97.6 L 337.2 97.5 L 337.7 97.4 L 338.2 97.3 L 338.7 97.3 L 339.2 97.2 L 339.6 97.1 L 340.1 97.0 L 340.6 97.0 L 341.1 96.9 L 341.6 96.8 L 342.0 96.7 L 342.5 96.7 L 343.0 96.6 L 343.5 96.5 L 344.0 96.4 L 344.4 96.4 L 344.9 96.3 L 345.4 96.2 L 345.9 96.2 L 346.4 96.1 L 346.8 96.0 L 347.3 96.0 L 347.8 95.9 L 348.3 95.8 L 348.8 95.8 L 349.2 95.7 L 349.7 95.7 L 350.2 95.6 L 350.7 95.5 L 351.2 95.5 L 351.6 95.4 L 352.1 95.4 L 352.6 95.3 L 353.1 95.2 L 353.6 95.2 L 354.0 95.1 L 354.5 95.1 L 355.0 95.0 L 355.5 95.0 L 356.0 94.9 L 356.4 94.9 L 356.9 94.8 L 357.4 94.8 L 357.9 94.7 L 358.4 94.7 L 358.8 94.6 L 359.3 94.6 L 359.8 94.5 L 360.3 94.5 L 360.8 94.4 L 361.2 94.4 L 361.7 94.3 L 362.2 94.3 L 362.7 94.2 L 363.2 94.2 L 363.6 94.2 L 364.1 94.1 L 364.6 94.1 L 365.1 94.0 L 365.6 94.0 L 366.0 94.0 L 366.5 93.9 L 367.0 93.9 L 367.5 93.9 L 368.0 93.8 L 368.4 93.8 L 368.9 93.7 L 369.4 93.7 L 369.9 93.7 L 370.4 93.6 L 370.8 93.6 L 371.3 93.6 L 371.8 93.5 L 372.3 93.5 L 372.8 93.5 L 373.2 93.5 L 373.7 93.4 L 374.2 93.4 L 374.7 93.4 L 375.2 93.3 L 375.6 93.3 L 376.1 93.3 L 376.6 93.3 L 377.1 93.2 L 377.6 93.2 L 378.0 93.2 L 378.5 93.2 L 379.0 93.1 L 379.5 93.1 L 380.0 93.1 L 380.4 93.1 L 380.9 93.1 L 381.4 93.0 L 381.9 93.0 L 382.4 93.0 L 382.8 93.0 L 383.3 93.0 L 383.8 92.9 L 384.3 92.9 L 384.8 92.9 L 385.2 92.9 L 385.7 92.9 L 386.2 92.9 L 386.7 92.8 L 387.2 92.8 L 387.6 92.8 L 388.1 92.8 L 388.6 92.8 L 389.1 92.8 L 389.6 92.8 L 390.0 92.8 L 390.5 92.7 L 391.0 92.7 L 391.5 92.7 L 392.0 92.7 L 392.4 92.7 L 392.9 92.7 L 393.4 92.7 L 393.9 92.7 L 394.4 92.7 L 394.8 92.7 L 395.3 92.7 L 395.8 92.6 L 396.3 92.6 L 396.8 92.6 L 397.2 92.6 L 397.7 92.6 L 398.2 92.6 L 398.7 92.6 L 399.2 92.6 L 399.6 92.6 L 400.1 92.6 L 400.6 92.6 L 401.1 92.6 L 401.6 92.6 L 402.0 92.6 L 402.5 92.6 L 403.0 92.6 L 403.5 92.6 L 404.0 92.6 L 404.4 92.6 L 404.9 92.6 L 405.4 92.6 L 405.9 92.6 L 406.4 92.6 L 406.8 92.6 L 407.3 92.6 L 407.8 92.6 L 408.3 92.5 L 408.8 92.5 L 409.2 92.5 L 409.7 92.5 L 410.2 92.5 L 410.7 92.5 L 411.2 92.5 L 411.6 92.5 L 412.1 92.5 L 412.6 92.5 L 413.1 92.5 L 413.6 92.5 L 414.0 92.5 L 414.5 92.5 L 415.0 92.5" fill="none" stroke="#0d9488" stroke-width="2.0"/>
<path d="M 55.0 162.4 L 55.5 162.4 L 56.0 162.4 L 56.4 162.4 L 56.9 162.4 L 57.4 162.4 L 57.9 162.4 L 58.4 162.4 L 58.8 162.4 L 59.3 162.4 L 59.8 162.4 L 60.3 162.4 L 60.8 162.4 L 61.2 162.4 L 61.7 162.4 L 62.2 162.4 L 62.7 162.4 L 63.2 162.4 L 63.6 162.4 L 64.1 162.4 L 64.6 162.4 L 65.1 162.3 L 65.6 162.3 L 66.0 162.3 L 66.5 162.3 L 67.0 162.3 L 67.5 162.3 L 68.0 162.3 L 68.4 162.3 L 68.9 162.3 L 69.4 162.3 L 69.9 162.3 L 70.4 162.3 L 70.8 162.3 L 71.3 162.3 L 71.8 162.3 L 72.3 162.3 L 72.8 162.3 L 73.2 162.3 L 73.7 162.3 L 74.2 162.3 L 74.7 162.3 L 75.2 162.3 L 75.6 162.2 L 76.1 162.2 L 76.6 162.2 L 77.1 162.2 L 77.6 162.2 L 78.0 162.2 L 78.5 162.2 L 79.0 162.2 L 79.5 162.2 L 80.0 162.2 L 80.4 162.1 L 80.9 162.1 L 81.4 162.1 L 81.9 162.1 L 82.4 162.1 L 82.8 162.1 L 83.3 162.1 L 83.8 162.0 L 84.3 162.0 L 84.8 162.0 L 85.2 162.0 L 85.7 162.0 L 86.2 162.0 L 86.7 161.9 L 87.2 161.9 L 87.6 161.9 L 88.1 161.9 L 88.6 161.9 L 89.1 161.9 L 89.6 161.8 L 90.0 161.8 L 90.5 161.8 L 91.0 161.8 L 91.5 161.7 L 92.0 161.7 L 92.4 161.7 L 92.9 161.7 L 93.4 161.6 L 93.9 161.6 L 94.4 161.6 L 94.8 161.6 L 95.3 161.5 L 95.8 161.5 L 96.3 161.5 L 96.8 161.5 L 97.2 161.4 L 97.7 161.4 L 98.2 161.4 L 98.7 161.3 L 99.2 161.3 L 99.6 161.3 L 100.1 161.2 L 100.6 161.2 L 101.1 161.2 L 101.6 161.1 L 102.0 161.1 L 102.5 161.1 L 103.0 161.0 L 103.5 161.0 L 104.0 160.9 L 104.4 160.9 L 104.9 160.9 L 105.4 160.8 L 105.9 160.8 L 106.4 160.7 L 106.8 160.7 L 107.3 160.7 L 107.8 160.6 L 108.3 160.6 L 108.8 160.5 L 109.2 160.5 L 109.7 160.4 L 110.2 160.4 L 110.7 160.3 L 111.2 160.3 L 111.6 160.2 L 112.1 160.2 L 112.6 160.1 L 113.1 160.1 L 113.6 160.0 L 114.0 160.0 L 114.5 159.9 L 115.0 159.9 L 115.5 159.8 L 116.0 159.8 L 116.4 159.7 L 116.9 159.7 L 117.4 159.6 L 117.9 159.5 L 118.4 159.5 L 118.8 159.4 L 119.3 159.4 L 119.8 159.3 L 120.3 159.2 L 120.8 159.2 L 121.2 159.1 L 121.7 159.1 L 122.2 159.0 L 122.7 158.9 L 123.2 158.9 L 123.6 158.8 L 124.1 158.7 L 124.6 158.7 L 125.1 158.6 L 125.6 158.5 L 126.0 158.5 L 126.5 158.4 L 127.0 158.3 L 127.5 158.2 L 128.0 158.2 L 128.4 158.1 L 128.9 158.0 L 129.4 157.9 L 129.9 157.9 L 130.4 157.8 L 130.8 157.7 L 131.3 157.6 L 131.8 157.6 L 132.3 157.5 L 132.8 157.4 L 133.2 157.3 L 133.7 157.2 L 134.2 157.2 L 134.7 157.1 L 135.2 157.0 L 135.6 156.9 L 136.1 156.8 L 136.6 156.7 L 137.1 156.7 L 137.6 156.6 L 138.0 156.5 L 138.5 156.4 L 139.0 156.3 L 139.5 156.2 L 140.0 156.1 L 140.4 156.0 L 140.9 155.9 L 141.4 155.8 L 141.9 155.8 L 142.4 155.7 L 142.8 155.6 L 143.3 155.5 L 143.8 155.4 L 144.3 155.3 L 144.8 155.2 L 145.2 155.1 L 145.7 155.0 L 146.2 154.9 L 146.7 154.8 L 147.2 154.7 L 147.6 154.6 L 148.1 154.5 L 148.6 154.4 L 149.1 154.3 L 149.6 154.2 L 150.0 154.1 L 150.5 154.0 L 151.0 153.8 L 151.5 153.7 L 152.0 153.6 L 152.4 153.5 L 152.9 153.4 L 153.4 153.3 L 153.9 153.2 L 154.4 153.1 L 154.8 153.0 L 155.3 152.9 L 155.8 152.7 L 156.3 152.6 L 156.8 152.5 L 157.2 152.4 L 157.7 152.3 L 158.2 152.2 L 158.7 152.0 L 159.2 151.9 L 159.6 151.8 L 160.1 151.7 L 160.6 151.6 L 161.1 151.5 L 161.6 151.3 L 162.0 151.2 L 162.5 151.1 L 163.0 151.0 L 163.5 150.8 L 164.0 150.7 L 164.4 150.6 L 164.9 150.5 L 165.4 150.3 L 165.9 150.2 L 166.4 150.1 L 166.8 150.0 L 167.3 149.8 L 167.8 149.7 L 168.3 149.6 L 168.8 149.4 L 169.2 149.3 L 169.7 149.2 L 170.2 149.0 L 170.7 148.9 L 171.2 148.8 L 171.6 148.6 L 172.1 148.5 L 172.6 148.4 L 173.1 148.2 L 173.6 148.1 L 174.0 148.0 L 174.5 147.8 L 175.0 147.7 L 175.5 147.6 L 176.0 147.4 L 176.4 147.3 L 176.9 147.1 L 177.4 147.0 L 177.9 146.9 L 178.4 146.7 L 178.8 146.6 L 179.3 146.4 L 179.8 146.3 L 180.3 146.1 L 180.8 146.0 L 181.2 145.9 L 181.7 145.7 L 182.2 145.6 L 182.7 145.4 L 183.2 145.3 L 183.6 145.1 L 184.1 145.0 L 184.6 144.8 L 185.1 144.7 L 185.6 144.5 L 186.0 144.4 L 186.5 144.2 L 187.0 144.1 L 187.5 143.9 L 188.0 143.8 L 188.4 143.6 L 188.9 143.5 L 189.4 143.3 L 189.9 143.2 L 190.4 143.0 L 190.8 142.9 L 191.3 142.7 L 191.8 142.5 L 192.3 142.4 L 192.8 142.2 L 193.2 142.1 L 193.7 141.9 L 194.2 141.8 L 194.7 141.6 L 195.2 141.4 L 195.6 141.3 L 196.1 141.1 L 196.6 141.0 L 197.1 140.8 L 197.6 140.7 L 198.0 140.5 L 198.5 140.3 L 199.0 140.2 L 199.5 140.0 L 200.0 139.9 L 200.4 139.7 L 200.9 139.5 L 201.4 139.4 L 201.9 139.3 L 202.4 139.1 L 202.8 139.0 L 203.3 138.8 L 203.8 138.7 L 204.3 138.6 L 204.8 138.5 L 205.2 138.3 L 205.7 138.2 L 206.2 138.1 L 206.7 138.0 L 207.2 137.9 L 207.6 137.8 L 208.1 137.7 L 208.6 137.6 L 209.1 137.5 L 209.6 137.4 L 210.0 137.3 L 210.5 137.2 L 211.0 137.1 L 211.5 137.1 L 212.0 137.0 L 212.4 136.9 L 212.9 136.8 L 213.4 136.8 L 213.9 136.7 L 214.4 136.7 L 214.8 136.6 L 215.3 136.5 L 215.8 136.5 L 216.3 136.4 L 216.8 136.4 L 217.2 136.4 L 217.7 136.3 L 218.2 136.3 L 218.7 136.3 L 219.2 136.2 L 219.6 136.2 L 220.1 136.2 L 220.6 136.2 L 221.1 136.1 L 221.6 136.1 L 222.0 136.1 L 222.5 136.1 L 223.0 136.1 L 223.5 136.1 L 224.0 136.1 L 224.4 136.1 L 224.9 136.1 L 225.4 136.1 L 225.9 136.1 L 226.4 136.2 L 226.8 136.2 L 227.3 136.2 L 227.8 136.2 L 228.3 136.3 L 228.8 136.3 L 229.2 136.3 L 229.7 136.4 L 230.2 136.4 L 230.7 136.5 L 231.2 136.5 L 231.6 136.6 L 232.1 136.6 L 232.6 136.7 L 233.1 136.7 L 233.6 136.8 L 234.0 136.8 L 234.5 136.9 L 235.0 137.0 L 235.5 137.1 L 236.0 137.1 L 236.4 137.2 L 236.9 137.3 L 237.4 137.4 L 237.9 137.5 L 238.4 137.6 L 238.8 137.7 L 239.3 137.8 L 239.8 137.9 L 240.3 138.0 L 240.8 138.1 L 241.2 138.2 L 241.7 138.3 L 242.2 138.4 L 242.7 138.5 L 243.2 138.6 L 243.6 138.8 L 244.1 138.9 L 244.6 139.0 L 245.1 139.2 L 245.6 139.3 L 246.0 139.4 L 246.5 139.6 L 247.0 139.7 L 247.5 139.8 L 248.0 140.0 L 248.4 140.1 L 248.9 140.3 L 249.4 140.4 L 249.9 140.5 L 250.4 140.7 L 250.8 140.8 L 251.3 141.0 L 251.8 141.1 L 252.3 141.2 L 252.8 141.4 L 253.2 141.5 L 253.7 141.6 L 254.2 141.8 L 254.7 141.9 L 255.2 142.0 L 255.6 142.1 L 256.1 142.3 L 256.6 142.4 L 257.1 142.5 L 257.6 142.6 L 258.0 142.8 L 258.5 142.9 L 259.0 143.0 L 259.5 143.1 L 260.0 143.3 L 260.4 143.4 L 260.9 143.5 L 261.4 143.6 L 261.9 143.7 L 262.4 143.9 L 262.8 144.0 L 263.3 144.1 L 263.8 144.2 L 264.3 144.3 L 264.8 144.4 L 265.2 144.6 L 265.7 144.7 L 266.2 144.8 L 266.7 144.9 L 267.2 145.0 L 267.6 145.1 L 268.1 145.2 L 268.6 145.4 L 269.1 145.5 L 269.6 145.6 L 270.0 145.7 L 270.5 145.8 L 271.0 145.9 L 271.5 146.0 L 272.0 146.1 L 272.4 146.2 L 272.9 146.3 L 273.4 146.4 L 273.9 146.5 L 274.4 146.6 L 274.8 146.7 L 275.3 146.9 L 275.8 147.0 L 276.3 147.1 L 276.8 147.2 L 277.2 147.3 L 277.7 147.4 L 278.2 147.5 L 278.7 147.6 L 279.2 147.7 L 279.6 147.8 L 280.1 147.9 L 280.6 148.0 L 281.1 148.1 L 281.6 148.2 L 282.0 148.3 L 282.5 148.4 L 283.0 148.5 L 283.5 148.6 L 284.0 148.7 L 284.4 148.8 L 284.9 148.9 L 285.4 148.9 L 285.9 149.0 L 286.4 149.1 L 286.8 149.2 L 287.3 149.3 L 287.8 149.4 L 288.3 149.5 L 288.8 149.6 L 289.2 149.7 L 289.7 149.8 L 290.2 149.9 L 290.7 150.0 L 291.2 150.1 L 291.6 150.2 L 292.1 150.3 L 292.6 150.4 L 293.1 150.5 L 293.6 150.5 L 294.0 150.6 L 294.5 150.7 L 295.0 150.8 L 295.5 150.9 L 296.0 151.0 L 296.4 151.1 L 296.9 151.2 L 297.4 151.3 L 297.9 151.4 L 298.4 151.5 L 298.8 151.5 L 299.3 151.6 L 299.8 151.7 L 300.3 151.8 L 300.8 151.9 L 301.2 152.0 L 301.7 152.1 L 302.2 152.2 L 302.7 152.3 L 303.2 152.3 L 303.6 152.4 L 304.1 152.5 L 304.6 152.6 L 305.1 152.7 L 305.6 152.8 L 306.0 152.9 L 306.5 153.0 L 307.0 153.1 L 307.5 153.1 L 308.0 153.2 L 308.4 153.3 L 308.9 153.4 L 309.4 153.5 L 309.9 153.6 L 310.4 153.7 L 310.8 153.8 L 311.3 153.9 L 311.8 153.9 L 312.3 154.0 L 312.8 154.1 L 313.2 154.2 L 313.7 154.3 L 314.2 154.4 L 314.7 154.5 L 315.2 154.6 L 315.6 154.6 L 316.1 154.7 L 316.6 154.8 L 317.1 154.9 L 317.6 155.0 L 318.0 155.1 L 318.5 155.2 L 319.0 155.3 L 319.5 155.4 L 320.0 155.4 L 320.4 155.5 L 320.9 155.6 L 321.4 155.7 L 321.9 155.8 L 322.4 155.9 L 322.8 156.0 L 323.3 156.1 L 323.8 156.2 L 324.3 156.2 L 324.8 156.3 L 325.2 156.4 L 325.7 156.5 L 326.2 156.6 L 326.7 156.7 L 327.2 156.8 L 327.6 156.9 L 328.1 157.0 L 328.6 157.0 L 329.1 157.1 L 329.6 157.2 L 330.0 157.3 L 330.5 157.4 L 331.0 157.5 L 331.5 157.6 L 332.0 157.7 L 332.4 157.8 L 332.9 157.9 L 333.4 158.0 L 333.9 158.1 L 334.4 158.1 L 334.8 158.2 L 335.3 158.3 L 335.8 158.4 L 336.3 158.5 L 336.8 158.6 L 337.2 158.7 L 337.7 158.8 L 338.2 158.9 L 338.7 159.0 L 339.2 159.1 L 339.6 159.2 L 340.1 159.3 L 340.6 159.4 L 341.1 159.4 L 341.6 159.5 L 342.0 159.6 L 342.5 159.7 L 343.0 159.8 L 343.5 159.9 L 344.0 160.0 L 344.4 160.1 L 344.9 160.2 L 345.4 160.3 L 345.9 160.4 L 346.4 160.5 L 346.8 160.6 L 347.3 160.7 L 347.8 160.8 L 348.3 160.9 L 348.8 161.0 L 349.2 161.1 L 349.7 161.2 L 350.2 161.3 L 350.7 161.4 L 351.2 161.5 L 351.6 161.6 L 352.1 161.7 L 352.6 161.8 L 353.1 161.9 L 353.6 162.0 L 354.0 162.1 L 354.5 162.2 L 355.0 162.3 L 355.5 162.4 L 356.0 162.5 L 356.4 162.6 L 356.9 162.7 L 357.4 162.8 L 357.9 162.9 L 358.4 163.0 L 358.8 163.1 L 359.3 163.2 L 359.8 163.3 L 360.3 163.4 L 360.8 163.5 L 361.2 163.6 L 361.7 163.7 L 362.2 163.8 L 362.7 163.9 L 363.2 164.0 L 363.6 164.1 L 364.1 164.2 L 364.6 164.3 L 365.1 164.4 L 365.6 164.5 L 366.0 164.6 L 366.5 164.7 L 367.0 164.8 L 367.5 164.9 L 368.0 165.0 L 368.4 165.1 L 368.9 165.2 L 369.4 165.3 L 369.9 165.4 L 370.4 165.5 L 370.8 165.7 L 371.3 165.8 L 371.8 165.9 L 372.3 166.0 L 372.8 166.1 L 373.2 166.2 L 373.7 166.3 L 374.2 166.4 L 374.7 166.5 L 375.2 166.6 L 375.6 166.7 L 376.1 166.8 L 376.6 166.9 L 377.1 167.0 L 377.6 167.2 L 378.0 167.3 L 378.5 167.4 L 379.0 167.5 L 379.5 167.6 L 380.0 167.7 L 380.4 167.8 L 380.9 167.9 L 381.4 168.0 L 381.9 168.1 L 382.4 168.2 L 382.8 168.3 L 383.3 168.5 L 383.8 168.6 L 384.3 168.7 L 384.8 168.8 L 385.2 168.9 L 385.7 169.0 L 386.2 169.1 L 386.7 169.2 L 387.2 169.3 L 387.6 169.4 L 388.1 169.6 L 388.6 169.7 L 389.1 169.8 L 389.6 169.9 L 390.0 170.0 L 390.5 170.1 L 391.0 170.2 L 391.5 170.3 L 392.0 170.4 L 392.4 170.5 L 392.9 170.7 L 393.4 170.8 L 393.9 170.9 L 394.4 171.0 L 394.8 171.1 L 395.3 171.2 L 395.8 171.3 L 396.3 171.4 L 396.8 171.5 L 397.2 171.6 L 397.7 171.8 L 398.2 171.9 L 398.7 172.0 L 399.2 172.1 L 399.6 172.2 L 400.1 172.3 L 400.6 172.4 L 401.1 172.5 L 401.6 172.6 L 402.0 172.7 L 402.5 172.8 L 403.0 173.0 L 403.5 173.1 L 404.0 173.2 L 404.4 173.3 L 404.9 173.4 L 405.4 173.5 L 405.9 173.6 L 406.4 173.7 L 406.8 173.8 L 407.3 173.9 L 407.8 174.0 L 408.3 174.0 L 408.8 174.0 L 409.2 174.0 L 409.7 174.0 L 410.2 174.0 L 410.7 174.0 L 411.2 174.0 L 411.6 174.0 L 412.1 174.0 L 412.6 174.0 L 413.1 174.0 L 413.6 174.0 L 414.0 174.0 L 414.5 174.0 L 415.0 174.0" fill="none" stroke="#e11d48" stroke-width="2.4" stroke-dasharray="6 3"/>
<path d="M 55.0 162.4 L 55.5 162.4 L 56.0 162.4 L 56.4 162.4 L 56.9 162.4 L 57.4 162.4 L 57.9 162.4 L 58.4 162.4 L 58.8 162.4 L 59.3 162.4 L 59.8 162.4 L 60.3 162.4 L 60.8 162.4 L 61.2 162.4 L 61.7 162.4 L 62.2 162.4 L 62.7 162.4 L 63.2 162.4 L 63.6 162.4 L 64.1 162.4 L 64.6 162.4 L 65.1 162.3 L 65.6 162.3 L 66.0 162.3 L 66.5 162.3 L 67.0 162.3 L 67.5 162.3 L 68.0 162.3 L 68.4 162.3 L 68.9 162.3 L 69.4 162.3 L 69.9 162.3 L 70.4 162.3 L 70.8 162.3 L 71.3 162.3 L 71.8 162.3 L 72.3 162.3 L 72.8 162.3 L 73.2 162.3 L 73.7 162.3 L 74.2 162.3 L 74.7 162.3 L 75.2 162.3 L 75.6 162.2 L 76.1 162.2 L 76.6 162.2 L 77.1 162.2 L 77.6 162.2 L 78.0 162.2 L 78.5 162.2 L 79.0 162.2 L 79.5 162.2 L 80.0 162.2 L 80.4 162.1 L 80.9 162.1 L 81.4 162.1 L 81.9 162.1 L 82.4 162.1 L 82.8 162.1 L 83.3 162.1 L 83.8 162.0 L 84.3 162.0 L 84.8 162.0 L 85.2 162.0 L 85.7 162.0 L 86.2 162.0 L 86.7 161.9 L 87.2 161.9 L 87.6 161.9 L 88.1 161.9 L 88.6 161.9 L 89.1 161.9 L 89.6 161.8 L 90.0 161.8 L 90.5 161.8 L 91.0 161.8 L 91.5 161.7 L 92.0 161.7 L 92.4 161.7 L 92.9 161.7 L 93.4 161.6 L 93.9 161.6 L 94.4 161.6 L 94.8 161.6 L 95.3 161.5 L 95.8 161.5 L 96.3 161.5 L 96.8 161.5 L 97.2 161.4 L 97.7 161.4 L 98.2 161.4 L 98.7 161.3 L 99.2 161.3 L 99.6 161.3 L 100.1 161.2 L 100.6 161.2 L 101.1 161.2 L 101.6 161.1 L 102.0 161.1 L 102.5 161.1 L 103.0 161.0 L 103.5 161.0 L 104.0 160.9 L 104.4 160.9 L 104.9 160.9 L 105.4 160.8 L 105.9 160.8 L 106.4 160.7 L 106.8 160.7 L 107.3 160.7 L 107.8 160.6 L 108.3 160.6 L 108.8 160.5 L 109.2 160.5 L 109.7 160.4 L 110.2 160.4 L 110.7 160.3 L 111.2 160.3 L 111.6 160.2 L 112.1 160.2 L 112.6 160.1 L 113.1 160.1 L 113.6 160.0 L 114.0 160.0 L 114.5 159.9 L 115.0 159.9 L 115.5 159.8 L 116.0 159.8 L 116.4 159.7 L 116.9 159.7 L 117.4 159.6 L 117.9 159.5 L 118.4 159.5 L 118.8 159.4 L 119.3 159.4 L 119.8 159.3 L 120.3 159.2 L 120.8 159.2 L 121.2 159.1 L 121.7 159.1 L 122.2 159.0 L 122.7 158.9 L 123.2 158.9 L 123.6 158.8 L 124.1 158.7 L 124.6 158.7 L 125.1 158.6 L 125.6 158.5 L 126.0 158.5 L 126.5 158.4 L 127.0 158.3 L 127.5 158.2 L 128.0 158.2 L 128.4 158.1 L 128.9 158.0 L 129.4 158.0 L 129.9 157.9 L 130.4 157.8 L 130.8 157.7 L 131.3 157.6 L 131.8 157.6 L 132.3 157.5 L 132.8 157.4 L 133.2 157.3 L 133.7 157.2 L 134.2 157.2 L 134.7 157.1 L 135.2 157.0 L 135.6 156.9 L 136.1 156.8 L 136.6 156.7 L 137.1 156.7 L 137.6 156.6 L 138.0 156.5 L 138.5 156.4 L 139.0 156.3 L 139.5 156.2 L 140.0 156.1 L 140.4 156.0 L 140.9 155.9 L 141.4 155.9 L 141.9 155.8 L 142.4 155.7 L 142.8 155.6 L 143.3 155.5 L 143.8 155.4 L 144.3 155.3 L 144.8 155.2 L 145.2 155.1 L 145.7 155.0 L 146.2 154.9 L 146.7 154.8 L 147.2 154.7 L 147.6 154.6 L 148.1 154.5 L 148.6 154.4 L 149.1 154.3 L 149.6 154.2 L 150.0 154.1 L 150.5 154.0 L 151.0 153.9 L 151.5 153.7 L 152.0 153.6 L 152.4 153.5 L 152.9 153.4 L 153.4 153.3 L 153.9 153.2 L 154.4 153.1 L 154.8 153.0 L 155.3 152.9 L 155.8 152.8 L 156.3 152.6 L 156.8 152.5 L 157.2 152.4 L 157.7 152.3 L 158.2 152.2 L 158.7 152.1 L 159.2 151.9 L 159.6 151.8 L 160.1 151.7 L 160.6 151.6 L 161.1 151.5 L 161.6 151.3 L 162.0 151.2 L 162.5 151.1 L 163.0 151.0 L 163.5 150.9 L 164.0 150.7 L 164.4 150.6 L 164.9 150.5 L 165.4 150.4 L 165.9 150.2 L 166.4 150.1 L 166.8 150.0 L 167.3 149.8 L 167.8 149.7 L 168.3 149.6 L 168.8 149.5 L 169.2 149.3 L 169.7 149.2 L 170.2 149.1 L 170.7 148.9 L 171.2 148.8 L 171.6 148.7 L 172.1 148.5 L 172.6 148.4 L 173.1 148.3 L 173.6 148.1 L 174.0 148.0 L 174.5 147.8 L 175.0 147.7 L 175.5 147.6 L 176.0 147.4 L 176.4 147.3 L 176.9 147.2 L 177.4 147.0 L 177.9 146.9 L 178.4 146.7 L 178.8 146.6 L 179.3 146.4 L 179.8 146.3 L 180.3 146.2 L 180.8 146.0 L 181.2 145.9 L 181.7 145.7 L 182.2 145.6 L 182.7 145.4 L 183.2 145.3 L 183.6 145.1 L 184.1 145.0 L 184.6 144.8 L 185.1 144.7 L 185.6 144.5 L 186.0 144.4 L 186.5 144.2 L 187.0 144.1 L 187.5 143.9 L 188.0 143.8 L 188.4 143.6 L 188.9 143.5 L 189.4 143.3 L 189.9 143.2 L 190.4 143.0 L 190.8 142.9 L 191.3 142.7 L 191.8 142.6 L 192.3 142.4 L 192.8 142.3 L 193.2 142.1 L 193.7 141.9 L 194.2 141.8 L 194.7 141.6 L 195.2 141.5 L 195.6 141.3 L 196.1 141.2 L 196.6 141.0 L 197.1 140.8 L 197.6 140.7 L 198.0 140.5 L 198.5 140.4 L 199.0 140.2 L 199.5 140.0 L 200.0 139.9 L 200.4 139.7 L 200.9 139.6 L 201.4 139.4 L 201.9 139.3 L 202.4 139.1 L 202.8 139.0 L 203.3 138.9 L 203.8 138.7 L 204.3 138.6 L 204.8 138.5 L 205.2 138.3 L 205.7 138.2 L 206.2 138.1 L 206.7 138.0 L 207.2 137.8 L 207.6 137.7 L 208.1 137.6 L 208.6 137.5 L 209.1 137.4 L 209.6 137.3 L 210.0 137.2 L 210.5 137.0 L 211.0 136.9 L 211.5 136.8 L 212.0 136.7 L 212.4 136.6 L 212.9 136.5 L 213.4 136.4 L 213.9 136.3 L 214.4 136.2 L 214.8 136.1 L 215.3 136.0 L 215.8 135.9 L 216.3 135.8 L 216.8 135.7 L 217.2 135.6 L 217.7 135.5 L 218.2 135.4 L 218.7 135.3 L 219.2 135.2 L 219.6 135.1 L 220.1 135.0 L 220.6 134.9 L 221.1 134.8 L 221.6 134.7 L 222.0 134.7 L 222.5 134.6 L 223.0 134.5 L 223.5 134.4 L 224.0 134.3 L 224.4 134.2 L 224.9 134.1 L 225.4 134.0 L 225.9 133.9 L 226.4 133.8 L 226.8 133.7 L 227.3 133.6 L 227.8 133.5 L 228.3 133.4 L 228.8 133.4 L 229.2 133.3 L 229.7 133.2 L 230.2 133.1 L 230.7 133.0 L 231.2 132.9 L 231.6 132.8 L 232.1 132.7 L 232.6 132.6 L 233.1 132.5 L 233.6 132.4 L 234.0 132.3 L 234.5 132.2 L 235.0 132.1 L 235.5 132.0 L 236.0 131.9 L 236.4 131.8 L 236.9 131.7 L 237.4 131.7 L 237.9 131.6 L 238.4 131.5 L 238.8 131.4 L 239.3 131.3 L 239.8 131.2 L 240.3 131.1 L 240.8 131.0 L 241.2 130.9 L 241.7 130.8 L 242.2 130.7 L 242.7 130.6 L 243.2 130.5 L 243.6 130.4 L 244.1 130.3 L 244.6 130.2 L 245.1 130.1 L 245.6 130.0 L 246.0 129.9 L 246.5 129.8 L 247.0 129.7 L 247.5 129.6 L 248.0 129.5 L 248.4 129.3 L 248.9 129.2 L 249.4 129.1 L 249.9 129.0 L 250.4 128.9 L 250.8 128.7 L 251.3 128.6 L 251.8 128.5 L 252.3 128.3 L 252.8 128.2 L 253.2 128.0 L 253.7 127.9 L 254.2 127.7 L 254.7 127.6 L 255.2 127.4 L 255.6 127.3 L 256.1 127.1 L 256.6 126.9 L 257.1 126.8 L 257.6 126.6 L 258.0 126.5 L 258.5 126.3 L 259.0 126.1 L 259.5 125.9 L 260.0 125.8 L 260.4 125.6 L 260.9 125.4 L 261.4 125.2 L 261.9 125.1 L 262.4 124.9 L 262.8 124.7 L 263.3 124.5 L 263.8 124.3 L 264.3 124.2 L 264.8 124.0 L 265.2 123.8 L 265.7 123.6 L 266.2 123.4 L 266.7 123.2 L 267.2 123.0 L 267.6 122.9 L 268.1 122.7 L 268.6 122.5 L 269.1 122.3 L 269.6 122.1 L 270.0 121.9 L 270.5 121.7 L 271.0 121.5 L 271.5 121.3 L 272.0 121.1 L 272.4 120.9 L 272.9 120.8 L 273.4 120.6 L 273.9 120.4 L 274.4 120.2 L 274.8 120.0 L 275.3 119.8 L 275.8 119.6 L 276.3 119.4 L 276.8 119.2 L 277.2 119.0 L 277.7 118.8 L 278.2 118.6 L 278.7 118.4 L 279.2 118.2 L 279.6 118.0 L 280.1 117.9 L 280.6 117.7 L 281.1 117.5 L 281.6 117.3 L 282.0 117.1 L 282.5 116.9 L 283.0 116.7 L 283.5 116.5 L 284.0 116.3 L 284.4 116.1 L 284.9 115.9 L 285.4 115.8 L 285.9 115.6 L 286.4 115.4 L 286.8 115.2 L 287.3 115.0 L 287.8 114.8 L 288.3 114.6 L 288.8 114.4 L 289.2 114.3 L 289.7 114.1 L 290.2 113.9 L 290.7 113.7 L 291.2 113.5 L 291.6 113.3 L 292.1 113.1 L 292.6 113.0 L 293.1 112.8 L 293.6 112.6 L 294.0 112.4 L 294.5 112.2 L 295.0 112.1 L 295.5 111.9 L 296.0 111.7 L 296.4 111.5 L 296.9 111.4 L 297.4 111.2 L 297.9 111.0 L 298.4 110.8 L 298.8 110.7 L 299.3 110.5 L 299.8 110.3 L 300.3 110.1 L 300.8 110.0 L 301.2 109.8 L 301.7 109.6 L 302.2 109.5 L 302.7 109.3 L 303.2 109.1 L 303.6 109.0 L 304.1 108.8 L 304.6 108.6 L 305.1 108.5 L 305.6 108.3 L 306.0 108.1 L 306.5 108.0 L 307.0 107.8 L 307.5 107.7 L 308.0 107.5 L 308.4 107.3 L 308.9 107.2 L 309.4 107.0 L 309.9 106.9 L 310.4 106.7 L 310.8 106.6 L 311.3 106.4 L 311.8 106.3 L 312.3 106.1 L 312.8 106.0 L 313.2 105.8 L 313.7 105.7 L 314.2 105.5 L 314.7 105.4 L 315.2 105.2 L 315.6 105.1 L 316.1 104.9 L 316.6 104.8 L 317.1 104.6 L 317.6 104.5 L 318.0 104.4 L 318.5 104.2 L 319.0 104.1 L 319.5 103.9 L 320.0 103.8 L 320.4 103.7 L 320.9 103.5 L 321.4 103.4 L 321.9 103.3 L 322.4 103.1 L 322.8 103.0 L 323.3 102.9 L 323.8 102.7 L 324.3 102.6 L 324.8 102.5 L 325.2 102.3 L 325.7 102.2 L 326.2 102.1 L 326.7 102.0 L 327.2 101.8 L 327.6 101.7 L 328.1 101.6 L 328.6 101.5 L 329.1 101.3 L 329.6 101.2 L 330.0 101.1 L 330.5 101.0 L 331.0 100.9 L 331.5 100.8 L 332.0 100.6 L 332.4 100.5 L 332.9 100.4 L 333.4 100.3 L 333.9 100.2 L 334.4 100.1 L 334.8 100.0 L 335.3 99.9 L 335.8 99.8 L 336.3 99.6 L 336.8 99.5 L 337.2 99.4 L 337.7 99.3 L 338.2 99.2 L 338.7 99.1 L 339.2 99.0 L 339.6 98.9 L 340.1 98.8 L 340.6 98.7 L 341.1 98.6 L 341.6 98.5 L 342.0 98.4 L 342.5 98.3 L 343.0 98.2 L 343.5 98.1 L 344.0 98.0 L 344.4 98.0 L 344.9 97.9 L 345.4 97.8 L 345.9 97.7 L 346.4 97.6 L 346.8 97.5 L 347.3 97.4 L 347.8 97.3 L 348.3 97.3 L 348.8 97.2 L 349.2 97.1 L 349.7 97.0 L 350.2 96.9 L 350.7 96.8 L 351.2 96.8 L 351.6 96.7 L 352.1 96.6 L 352.6 96.5 L 353.1 96.4 L 353.6 96.4 L 354.0 96.3 L 354.5 96.2 L 355.0 96.2 L 355.5 96.1 L 356.0 96.0 L 356.4 95.9 L 356.9 95.9 L 357.4 95.8 L 357.9 95.7 L 358.4 95.7 L 358.8 95.6 L 359.3 95.5 L 359.8 95.5 L 360.3 95.4 L 360.8 95.3 L 361.2 95.3 L 361.7 95.2 L 362.2 95.2 L 362.7 95.1 L 363.2 95.0 L 363.6 95.0 L 364.1 94.9 L 364.6 94.9 L 365.1 94.8 L 365.6 94.8 L 366.0 94.7 L 366.5 94.6 L 367.0 94.6 L 367.5 94.5 L 368.0 94.5 L 368.4 94.4 L 368.9 94.4 L 369.4 94.3 L 369.9 94.3 L 370.4 94.2 L 370.8 94.2 L 371.3 94.1 L 371.8 94.1 L 372.3 94.1 L 372.8 94.0 L 373.2 94.0 L 373.7 93.9 L 374.2 93.9 L 374.7 93.8 L 375.2 93.8 L 375.6 93.8 L 376.1 93.7 L 376.6 93.7 L 377.1 93.6 L 377.6 93.6 L 378.0 93.6 L 378.5 93.5 L 379.0 93.5 L 379.5 93.5 L 380.0 93.4 L 380.4 93.4 L 380.9 93.4 L 381.4 93.3 L 381.9 93.3 L 382.4 93.3 L 382.8 93.2 L 383.3 93.2 L 383.8 93.2 L 384.3 93.2 L 384.8 93.1 L 385.2 93.1 L 385.7 93.1 L 386.2 93.0 L 386.7 93.0 L 387.2 93.0 L 387.6 93.0 L 388.1 92.9 L 388.6 92.9 L 389.1 92.9 L 389.6 92.9 L 390.0 92.9 L 390.5 92.8 L 391.0 92.8 L 391.5 92.8 L 392.0 92.8 L 392.4 92.7 L 392.9 92.7 L 393.4 92.7 L 393.9 92.7 L 394.4 92.7 L 394.8 92.7 L 395.3 92.6 L 395.8 92.6 L 396.3 92.6 L 396.8 92.6 L 397.2 92.6 L 397.7 92.6 L 398.2 92.5 L 398.7 92.5 L 399.2 92.5 L 399.6 92.5 L 400.1 92.5 L 400.6 92.5 L 401.1 92.5 L 401.6 92.5 L 402.0 92.4 L 402.5 92.4 L 403.0 92.4 L 403.5 92.4 L 404.0 92.4 L 404.4 92.4 L 404.9 92.4 L 405.4 92.4 L 405.9 92.4 L 406.4 92.3 L 406.8 92.3 L 407.3 92.3 L 407.8 92.3 L 408.3 92.3 L 408.8 92.3 L 409.2 92.3 L 409.7 92.3 L 410.2 92.3 L 410.7 92.3 L 411.2 92.3 L 411.6 92.3 L 412.1 92.3 L 412.6 92.2 L 413.1 92.2 L 413.6 92.2 L 414.0 92.2 L 414.5 92.2 L 415.0 92.2" fill="none" stroke="#10b981" stroke-width="2.4"/>
<text x="63" y="60" text-anchor="start" font-family="system-ui,-apple-system,Segoe UI,Roboto,sans-serif" font-size="9" font-weight="400" fill="#0d9488">reference</text>
<text x="63" y="74" text-anchor="start" font-family="system-ui,-apple-system,Segoe UI,Roboto,sans-serif" font-size="9" font-weight="400" fill="#e11d48">feedforward only — can't recover</text>
<text x="63" y="88" text-anchor="start" font-family="system-ui,-apple-system,Segoe UI,Roboto,sans-serif" font-size="9" font-weight="400" fill="#10b981">ff + feedback — rejects it</text>
<rect x="55" y="198" width="360" height="34" fill="#f8fafc" stroke="#e2e8f0"/>
<path d="M 55.0 215.0 L 55.5 215.0 L 56.0 215.0 L 56.4 215.0 L 56.9 215.0 L 57.4 215.0 L 57.9 215.0 L 58.4 215.0 L 58.8 215.0 L 59.3 215.0 L 59.8 215.0 L 60.3 215.0 L 60.8 215.0 L 61.2 215.0 L 61.7 215.0 L 62.2 215.0 L 62.7 215.0 L 63.2 215.0 L 63.6 215.0 L 64.1 215.0 L 64.6 215.0 L 65.1 215.0 L 65.6 215.0 L 66.0 215.0 L 66.5 215.0 L 67.0 215.0 L 67.5 215.0 L 68.0 215.0 L 68.4 215.0 L 68.9 215.0 L 69.4 215.0 L 69.9 215.0 L 70.4 215.0 L 70.8 215.0 L 71.3 215.0 L 71.8 215.0 L 72.3 215.0 L 72.8 215.0 L 73.2 215.0 L 73.7 215.0 L 74.2 215.0 L 74.7 215.0 L 75.2 215.0 L 75.6 215.0 L 76.1 215.0 L 76.6 215.0 L 77.1 215.0 L 77.6 215.0 L 78.0 215.0 L 78.5 215.0 L 79.0 215.0 L 79.5 215.0 L 80.0 215.0 L 80.4 215.0 L 80.9 215.0 L 81.4 215.0 L 81.9 215.0 L 82.4 215.0 L 82.8 215.0 L 83.3 215.0 L 83.8 215.0 L 84.3 215.0 L 84.8 215.0 L 85.2 215.0 L 85.7 215.0 L 86.2 215.0 L 86.7 215.0 L 87.2 215.0 L 87.6 215.0 L 88.1 215.0 L 88.6 215.0 L 89.1 215.0 L 89.6 215.0 L 90.0 215.0 L 90.5 215.0 L 91.0 215.0 L 91.5 215.0 L 92.0 215.0 L 92.4 215.0 L 92.9 215.0 L 93.4 215.0 L 93.9 215.0 L 94.4 215.0 L 94.8 215.0 L 95.3 215.0 L 95.8 215.0 L 96.3 215.0 L 96.8 215.0 L 97.2 215.0 L 97.7 215.0 L 98.2 215.0 L 98.7 215.0 L 99.2 215.0 L 99.6 215.0 L 100.1 215.0 L 100.6 215.0 L 101.1 215.0 L 101.6 215.0 L 102.0 215.0 L 102.5 215.0 L 103.0 215.0 L 103.5 215.0 L 104.0 215.0 L 104.4 215.0 L 104.9 215.0 L 105.4 215.0 L 105.9 215.0 L 106.4 215.0 L 106.8 215.0 L 107.3 215.0 L 107.8 215.0 L 108.3 215.0 L 108.8 215.0 L 109.2 215.0 L 109.7 215.0 L 110.2 215.0 L 110.7 215.0 L 111.2 215.0 L 111.6 215.0 L 112.1 215.0 L 112.6 215.0 L 113.1 215.0 L 113.6 215.0 L 114.0 215.0 L 114.5 215.0 L 115.0 215.0 L 115.5 215.0 L 116.0 215.0 L 116.4 215.0 L 116.9 215.0 L 117.4 215.0 L 117.9 215.0 L 118.4 215.0 L 118.8 215.0 L 119.3 215.0 L 119.8 215.0 L 120.3 215.0 L 120.8 215.0 L 121.2 215.0 L 121.7 215.0 L 122.2 215.0 L 122.7 215.0 L 123.2 215.0 L 123.6 215.0 L 124.1 215.0 L 124.6 215.0 L 125.1 215.0 L 125.6 215.0 L 126.0 215.0 L 126.5 215.0 L 127.0 215.0 L 127.5 215.0 L 128.0 215.0 L 128.4 215.0 L 128.9 215.0 L 129.4 215.0 L 129.9 215.0 L 130.4 215.0 L 130.8 215.0 L 131.3 215.0 L 131.8 215.0 L 132.3 215.0 L 132.8 215.0 L 133.2 215.0 L 133.7 215.0 L 134.2 215.0 L 134.7 215.0 L 135.2 215.0 L 135.6 215.0 L 136.1 215.0 L 136.6 215.0 L 137.1 215.0 L 137.6 215.0 L 138.0 215.0 L 138.5 215.0 L 139.0 215.0 L 139.5 215.0 L 140.0 215.0 L 140.4 215.0 L 140.9 215.0 L 141.4 215.0 L 141.9 215.0 L 142.4 215.0 L 142.8 215.0 L 143.3 215.0 L 143.8 215.0 L 144.3 215.0 L 144.8 215.0 L 145.2 215.0 L 145.7 215.0 L 146.2 215.0 L 146.7 215.0 L 147.2 215.0 L 147.6 215.0 L 148.1 215.0 L 148.6 215.0 L 149.1 215.0 L 149.6 215.0 L 150.0 215.0 L 150.5 215.0 L 151.0 215.0 L 151.5 215.0 L 152.0 215.0 L 152.4 215.0 L 152.9 215.0 L 153.4 215.0 L 153.9 215.0 L 154.4 215.0 L 154.8 215.0 L 155.3 215.0 L 155.8 215.0 L 156.3 215.0 L 156.8 215.0 L 157.2 215.0 L 157.7 215.0 L 158.2 215.0 L 158.7 215.0 L 159.2 215.0 L 159.6 215.0 L 160.1 215.0 L 160.6 215.0 L 161.1 215.0 L 161.6 215.0 L 162.0 215.0 L 162.5 215.0 L 163.0 215.0 L 163.5 215.0 L 164.0 215.0 L 164.4 215.0 L 164.9 215.0 L 165.4 215.0 L 165.9 215.0 L 166.4 215.0 L 166.8 215.0 L 167.3 215.0 L 167.8 215.0 L 168.3 215.0 L 168.8 215.0 L 169.2 215.0 L 169.7 215.0 L 170.2 215.0 L 170.7 215.0 L 171.2 215.0 L 171.6 215.0 L 172.1 215.0 L 172.6 215.0 L 173.1 215.0 L 173.6 215.0 L 174.0 215.0 L 174.5 215.0 L 175.0 215.0 L 175.5 215.0 L 176.0 215.0 L 176.4 215.0 L 176.9 215.0 L 177.4 215.0 L 177.9 215.0 L 178.4 215.0 L 178.8 215.0 L 179.3 215.0 L 179.8 215.0 L 180.3 215.0 L 180.8 215.0 L 181.2 215.0 L 181.7 215.0 L 182.2 215.0 L 182.7 215.0 L 183.2 215.0 L 183.6 215.0 L 184.1 215.0 L 184.6 215.0 L 185.1 215.0 L 185.6 215.0 L 186.0 215.0 L 186.5 215.0 L 187.0 215.0 L 187.5 215.0 L 188.0 215.0 L 188.4 215.0 L 188.9 215.0 L 189.4 215.0 L 189.9 215.0 L 190.4 215.0 L 190.8 215.0 L 191.3 215.0 L 191.8 215.0 L 192.3 215.0 L 192.8 215.0 L 193.2 215.0 L 193.7 215.0 L 194.2 215.0 L 194.7 215.0 L 195.2 215.0 L 195.6 215.0 L 196.1 215.0 L 196.6 215.0 L 197.1 215.0 L 197.6 215.0 L 198.0 215.0 L 198.5 215.0 L 199.0 215.0 L 199.5 215.0 L 200.0 214.6 L 200.4 214.1 L 200.9 213.7 L 201.4 213.3 L 201.9 212.9 L 202.4 212.5 L 202.8 212.2 L 203.3 211.8 L 203.8 211.5 L 204.3 211.1 L 204.8 210.8 L 205.2 210.5 L 205.7 210.2 L 206.2 209.9 L 206.7 209.6 L 207.2 209.3 L 207.6 209.0 L 208.1 208.7 L 208.6 208.5 L 209.1 208.2 L 209.6 208.0 L 210.0 207.7 L 210.5 207.5 L 211.0 207.3 L 211.5 207.1 L 212.0 206.8 L 212.4 206.6 L 212.9 206.4 L 213.4 206.2 L 213.9 206.0 L 214.4 205.9 L 214.8 205.7 L 215.3 205.5 L 215.8 205.3 L 216.3 205.2 L 216.8 205.0 L 217.2 204.9 L 217.7 204.7 L 218.2 204.6 L 218.7 204.4 L 219.2 204.3 L 219.6 204.2 L 220.1 204.0 L 220.6 203.9 L 221.1 203.8 L 221.6 203.7 L 222.0 203.6 L 222.5 203.4 L 223.0 203.3 L 223.5 203.2 L 224.0 203.1 L 224.4 203.0 L 224.9 202.9 L 225.4 202.8 L 225.9 202.8 L 226.4 202.7 L 226.8 202.6 L 227.3 202.5 L 227.8 202.4 L 228.3 202.3 L 228.8 202.3 L 229.2 202.2 L 229.7 202.1 L 230.2 202.1 L 230.7 202.0 L 231.2 201.9 L 231.6 201.9 L 232.1 201.8 L 232.6 201.8 L 233.1 201.7 L 233.6 201.7 L 234.0 201.6 L 234.5 201.6 L 235.0 201.5 L 235.5 201.5 L 236.0 201.4 L 236.4 201.4 L 236.9 201.3 L 237.4 201.3 L 237.9 201.2 L 238.4 201.2 L 238.8 201.2 L 239.3 201.1 L 239.8 201.1 L 240.3 201.1 L 240.8 201.0 L 241.2 201.0 L 241.7 201.0 L 242.2 201.0 L 242.7 200.9 L 243.2 200.9 L 243.6 200.9 L 244.1 200.8 L 244.6 200.8 L 245.1 200.8 L 245.6 200.8 L 246.0 200.8 L 246.5 200.7 L 247.0 200.7 L 247.5 201.1 L 248.0 201.5 L 248.4 201.9 L 248.9 202.3 L 249.4 202.7 L 249.9 203.1 L 250.4 203.4 L 250.8 203.8 L 251.3 204.1 L 251.8 204.4 L 252.3 204.8 L 252.8 205.1 L 253.2 205.4 L 253.7 205.7 L 254.2 205.9 L 254.7 206.2 L 255.2 206.5 L 255.6 206.7 L 256.1 207.0 L 256.6 207.2 L 257.1 207.5 L 257.6 207.7 L 258.0 208.0 L 258.5 208.2 L 259.0 208.4 L 259.5 208.6 L 260.0 208.8 L 260.4 209.0 L 260.9 209.2 L 261.4 209.4 L 261.9 209.6 L 262.4 209.7 L 262.8 209.9 L 263.3 210.1 L 263.8 210.2 L 264.3 210.4 L 264.8 210.5 L 265.2 210.7 L 265.7 210.8 L 266.2 211.0 L 266.7 211.1 L 267.2 211.2 L 267.6 211.4 L 268.1 211.5 L 268.6 211.6 L 269.1 211.7 L 269.6 211.8 L 270.0 212.0 L 270.5 212.1 L 271.0 212.2 L 271.5 212.3 L 272.0 212.4 L 272.4 212.5 L 272.9 212.6 L 273.4 212.6 L 273.9 212.7 L 274.4 212.8 L 274.8 212.9 L 275.3 213.0 L 275.8 213.1 L 276.3 213.1 L 276.8 213.2 L 277.2 213.3 L 277.7 213.4 L 278.2 213.4 L 278.7 213.5 L 279.2 213.6 L 279.6 213.6 L 280.1 213.7 L 280.6 213.7 L 281.1 213.8 L 281.6 213.8 L 282.0 213.9 L 282.5 213.9 L 283.0 214.0 L 283.5 214.0 L 284.0 214.1 L 284.4 214.1 L 284.9 214.2 L 285.4 214.2 L 285.9 214.3 L 286.4 214.3 L 286.8 214.3 L 287.3 214.4 L 287.8 214.4 L 288.3 214.5 L 288.8 214.5 L 289.2 214.5 L 289.7 214.6 L 290.2 214.6 L 290.7 214.6 L 291.2 214.6 L 291.6 214.7 L 292.1 214.7 L 292.6 214.7 L 293.1 214.8 L 293.6 214.8 L 294.0 214.8 L 294.5 214.8 L 295.0 214.8 L 295.5 214.9 L 296.0 214.9 L 296.4 214.9 L 296.9 214.9 L 297.4 214.9 L 297.9 215.0 L 298.4 215.0 L 298.8 215.0 L 299.3 215.0 L 299.8 215.0 L 300.3 215.1 L 300.8 215.1 L 301.2 215.1 L 301.7 215.1 L 302.2 215.1 L 302.7 215.1 L 303.2 215.1 L 303.6 215.1 L 304.1 215.2 L 304.6 215.2 L 305.1 215.2 L 305.6 215.2 L 306.0 215.2 L 306.5 215.2 L 307.0 215.2 L 307.5 215.2 L 308.0 215.2 L 308.4 215.2 L 308.9 215.3 L 309.4 215.3 L 309.9 215.3 L 310.4 215.3 L 310.8 215.3 L 311.3 215.3 L 311.8 215.3 L 312.3 215.3 L 312.8 215.3 L 313.2 215.3 L 313.7 215.3 L 314.2 215.3 L 314.7 215.3 L 315.2 215.3 L 315.6 215.3 L 316.1 215.3 L 316.6 215.3 L 317.1 215.3 L 317.6 215.3 L 318.0 215.3 L 318.5 215.4 L 319.0 215.4 L 319.5 215.4 L 320.0 215.4 L 320.4 215.4 L 320.9 215.4 L 321.4 215.4 L 321.9 215.4 L 322.4 215.4 L 322.8 215.4 L 323.3 215.4 L 323.8 215.4 L 324.3 215.4 L 324.8 215.4 L 325.2 215.4 L 325.7 215.4 L 326.2 215.4 L 326.7 215.4 L 327.2 215.4 L 327.6 215.4 L 328.1 215.4 L 328.6 215.4 L 329.1 215.4 L 329.6 215.4 L 330.0 215.4 L 330.5 215.4 L 331.0 215.4 L 331.5 215.4 L 332.0 215.4 L 332.4 215.4 L 332.9 215.4 L 333.4 215.4 L 333.9 215.4 L 334.4 215.4 L 334.8 215.4 L 335.3 215.4 L 335.8 215.4 L 336.3 215.4 L 336.8 215.4 L 337.2 215.4 L 337.7 215.4 L 338.2 215.4 L 338.7 215.4 L 339.2 215.4 L 339.6 215.4 L 340.1 215.4 L 340.6 215.4 L 341.1 215.4 L 341.6 215.4 L 342.0 215.4 L 342.5 215.4 L 343.0 215.4 L 343.5 215.4 L 344.0 215.4 L 344.4 215.4 L 344.9 215.4 L 345.4 215.4 L 345.9 215.3 L 346.4 215.3 L 346.8 215.3 L 347.3 215.3 L 347.8 215.3 L 348.3 215.3 L 348.8 215.3 L 349.2 215.3 L 349.7 215.3 L 350.2 215.3 L 350.7 215.3 L 351.2 215.3 L 351.6 215.3 L 352.1 215.3 L 352.6 215.3 L 353.1 215.3 L 353.6 215.3 L 354.0 215.3 L 354.5 215.3 L 355.0 215.3 L 355.5 215.3 L 356.0 215.3 L 356.4 215.3 L 356.9 215.3 L 357.4 215.3 L 357.9 215.3 L 358.4 215.3 L 358.8 215.3 L 359.3 215.3 L 359.8 215.3 L 360.3 215.3 L 360.8 215.3 L 361.2 215.3 L 361.7 215.3 L 362.2 215.3 L 362.7 215.3 L 363.2 215.3 L 363.6 215.3 L 364.1 215.3 L 364.6 215.3 L 365.1 215.3 L 365.6 215.3 L 366.0 215.3 L 366.5 215.3 L 367.0 215.3 L 367.5 215.3 L 368.0 215.3 L 368.4 215.3 L 368.9 215.3 L 369.4 215.3 L 369.9 215.3 L 370.4 215.3 L 370.8 215.3 L 371.3 215.3 L 371.8 215.3 L 372.3 215.3 L 372.8 215.3 L 373.2 215.3 L 373.7 215.3 L 374.2 215.2 L 374.7 215.2 L 375.2 215.2 L 375.6 215.2 L 376.1 215.2 L 376.6 215.2 L 377.1 215.2 L 377.6 215.2 L 378.0 215.2 L 378.5 215.2 L 379.0 215.2 L 379.5 215.2 L 380.0 215.2 L 380.4 215.2 L 380.9 215.2 L 381.4 215.2 L 381.9 215.2 L 382.4 215.2 L 382.8 215.2 L 383.3 215.2 L 383.8 215.2 L 384.3 215.2 L 384.8 215.2 L 385.2 215.2 L 385.7 215.2 L 386.2 215.2 L 386.7 215.2 L 387.2 215.2 L 387.6 215.2 L 388.1 215.2 L 388.6 215.2 L 389.1 215.2 L 389.6 215.2 L 390.0 215.2 L 390.5 215.2 L 391.0 215.2 L 391.5 215.2 L 392.0 215.2 L 392.4 215.2 L 392.9 215.2 L 393.4 215.2 L 393.9 215.2 L 394.4 215.2 L 394.8 215.2 L 395.3 215.2 L 395.8 215.2 L 396.3 215.2 L 396.8 215.2 L 397.2 215.2 L 397.7 215.2 L 398.2 215.2 L 398.7 215.2 L 399.2 215.2 L 399.6 215.2 L 400.1 215.2 L 400.6 215.2 L 401.1 215.2 L 401.6 215.2 L 402.0 215.2 L 402.5 215.2 L 403.0 215.2 L 403.5 215.2 L 404.0 215.2 L 404.4 215.2 L 404.9 215.2 L 405.4 215.2 L 405.9 215.2 L 406.4 215.2 L 406.8 215.2 L 407.3 215.2 L 407.8 215.2 L 408.3 215.2 L 408.8 215.2 L 409.2 215.1 L 409.7 215.1 L 410.2 215.1 L 410.7 215.1 L 411.2 215.1 L 411.6 215.1 L 412.1 215.1 L 412.6 215.1 L 413.1 215.1 L 413.6 215.1 L 414.0 215.1 L 414.5 215.1 L 415.0 215.0" fill="none" stroke="#8b5cf6" stroke-width="1.6"/>
<text x="63" y="211" text-anchor="start" font-family="system-ui,-apple-system,Segoe UI,Roboto,sans-serif" font-size="8.5" font-weight="400" fill="#8b5cf6">feedback command spikes at the disturbance</text>
</svg>
