<svg viewBox="0 0 760 270" xmlns="http://www.w3.org/2000/svg" font-family="system-ui,-apple-system,Segoe UI,Roboto,sans-serif">
  <defs><marker id="a29" markerWidth="8" markerHeight="8" refX="6" refY="3" orient="auto" markerUnits="strokeWidth"><path d="M0,0 L6,3 L0,6 Z" fill="#475569"/></marker></defs>
  <text x="380" y="24" text-anchor="middle" font-size="16" font-weight="600" fill="#111827">analyze(q): one SVD &#8594; the full capability report</text>
  <rect x="60" y="100" width="120" height="60" rx="8" fill="#eef2ff" stroke="#6366f1" stroke-width="1.8"/>
  <text x="120" y="128" text-anchor="middle" font-size="13" fill="#3730a3">q (pose)</text>
  <text x="120" y="146" text-anchor="middle" font-size="11" fill="#6366f1">J = U&#931;V&#7488;</text>
  <line x1="182" y1="130" x2="250" y2="130" stroke="#475569" stroke-width="2" marker-end="url(#a29)"/>
  <text x="216" y="120" text-anchor="middle" font-size="11" fill="#475569">SVD</text>
  <g font-size="12.5" fill="#065f46">
    <rect x="255" y="60" width="200" height="26" rx="5" fill="#ecfdf5" stroke="#10b981"/><text x="266" y="78">&#963; (singular values)</text>
    <rect x="255" y="92" width="200" height="26" rx="5" fill="#ecfdf5" stroke="#10b981"/><text x="266" y="110">w = &#8719;&#963;  (volume)</text>
    <rect x="255" y="124" width="200" height="26" rx="5" fill="#ecfdf5" stroke="#10b981"/><text x="266" y="142">&#954; = &#963;&#8321;/&#963;&#8345;  (shape)</text>
    <rect x="255" y="156" width="200" height="26" rx="5" fill="#ecfdf5" stroke="#10b981"/><text x="266" y="174">ellipsoid axes (u&#7522;, &#963;&#7522;)</text>
    <rect x="255" y="188" width="200" height="26" rx="5" fill="#fef2f2" stroke="#f87171"/><text x="266" y="206" fill="#b91c1c">singular flag (&#963;&#8345; &lt; &#949;)</text>
  </g>
  <line x1="460" y1="135" x2="540" y2="135" stroke="#475569" stroke-width="2" marker-end="url(#a29)"/>
  <rect x="545" y="105" width="150" height="60" rx="8" fill="#fffbeb" stroke="#f59e0b" stroke-width="1.8"/>
  <text x="620" y="130" text-anchor="middle" font-size="12.5" fill="#92400e">reused by the</text>
  <text x="620" y="148" text-anchor="middle" font-size="12.5" fill="#92400e" font-weight="600">tracker (L8.3)</text>
  <text x="380" y="250" text-anchor="middle" font-size="12" fill="#6b7280">Units 4&#8211;6 collapsed into one reusable diagnostic &#8212; capability, then geometry, then the numbers</text>
</svg>
