<svg viewBox="0 0 760 270" xmlns="http://www.w3.org/2000/svg" font-family="system-ui,-apple-system,Segoe UI,Roboto,sans-serif">
  <defs><marker id="a31" markerWidth="8" markerHeight="8" refX="6" refY="3" orient="auto" markerUnits="strokeWidth"><path d="M0,0 L6,3 L0,6 Z" fill="#475569"/></marker></defs>
  <text x="380" y="24" text-anchor="middle" font-size="16" font-weight="600" fill="#111827">Analyzer + tracker: &#963;_min schedules damping; null space carries secondary goals</text>
  <text x="200" y="56" text-anchor="middle" font-size="12.5" fill="#6b7280">peak joint rate vs nearness to singularity</text>
  <g stroke="#475569" stroke-width="1.5" fill="none"><line x1="80" y1="210" x2="360" y2="210" marker-end="url(#a31)"/><line x1="80" y1="215" x2="80" y2="70" marker-end="url(#a31)"/></g>
  <text x="360" y="226" font-size="10.5" fill="#6b7280">&#963;_min &#8594; 0</text><text x="60" y="72" font-size="10.5" fill="#6b7280">||q&#775;||</text>
  <path d="M 350 195 C 250 195 150 188 110 90" stroke="#dc2626" stroke-width="2.6" fill="none"/>
  <text x="150" y="100" font-size="11" fill="#dc2626" font-weight="600">undamped &#8594; blows up</text>
  <path d="M 350 195 C 250 193 150 180 95 150" stroke="#2563eb" stroke-width="2.6" fill="none"/>
  <text x="150" y="170" font-size="11" fill="#2563eb" font-weight="600">scheduled damping &#8212; bounded</text>
  <line x1="540" y1="120" x2="540" y2="120"/>
  <text x="580" y="80" text-anchor="middle" font-size="12.5" fill="#6b7280">redundant arm</text>
  <ellipse cx="580" cy="140" rx="70" ry="30" fill="rgba(56,189,248,0.10)" stroke="#38bdf8" stroke-width="2"/>
  <text x="580" y="144" text-anchor="middle" font-size="11" fill="#0369a1">tool twist honored</text>
  <path d="M 510 185 C 560 205 600 205 650 185" fill="none" stroke="#a78bfa" stroke-width="2.4" marker-end="url(#a31)"/>
  <text x="580" y="212" text-anchor="middle" font-size="11" fill="#7c3aed">null-space self-motion (secondary goal)</text>
  <text x="380" y="254" text-anchor="middle" font-size="12" fill="#6b7280">robust through singular regions, with the commanded tool motion honored as geometry allows</text>
</svg>
