<svg viewBox="0 0 560 330" xmlns="http://www.w3.org/2000/svg" role="img" aria-label="A straight tool path realized with a consistent IK branch gives smooth arm poses while a branch flip at the midpoint makes the arm jump">
<title>A straight tool path realized with a consistent IK branch gives smooth arm poses while a branch flip at the midpoint makes the arm jump</title>
<rect width="560" height="330" fill="white"/>
<text x="280" y="24" text-anchor="middle" font-family="system-ui,-apple-system,Segoe UI,Roboto,sans-serif" font-size="15" font-weight="650" fill="#0f172a">Same straight tool path: branch-consistent vs a branch flip</text>
<text x="280" y="48" text-anchor="middle" font-family="system-ui,-apple-system,Segoe UI,Roboto,sans-serif" font-size="12" font-weight="600" fill="#10b981">consistent IK branch — joints sweep smoothly</text>
<rect x="40" y="58" width="480" height="100" fill="#f8fafc" stroke="#e2e8f0"/>
<line x1="70" y1="150" x2="125" y2="175" stroke="#334155" stroke-width="3"/><line x1="125" y1="175" x2="145" y2="135" stroke="#334155" stroke-width="3"/><line x1="70" y1="150" x2="125" y2="175" stroke="#334155" stroke-width="3"/><line x1="125" y1="175" x2="144" y2="134" stroke="#334155" stroke-width="3"/><line x1="70" y1="150" x2="125" y2="173" stroke="#334155" stroke-width="3"/><line x1="125" y1="173" x2="140" y2="131" stroke="#334155" stroke-width="3"/><line x1="70" y1="150" x2="127" y2="169" stroke="#334155" stroke-width="3"/><line x1="127" y1="169" x2="133" y2="125" stroke="#334155" stroke-width="3"/><line x1="70" y1="150" x2="129" y2="161" stroke="#334155" stroke-width="3"/><line x1="129" y1="161" x2="122" y2="116" stroke="#334155" stroke-width="3"/><line x1="70" y1="150" x2="130" y2="149" stroke="#334155" stroke-width="3"/><line x1="130" y1="149" x2="112" y2="108" stroke="#334155" stroke-width="3"/><line x1="70" y1="150" x2="129" y2="139" stroke="#334155" stroke-width="3"/><line x1="129" y1="139" x2="105" y2="101" stroke="#334155" stroke-width="3"/><line x1="70" y1="150" x2="128" y2="134" stroke="#334155" stroke-width="3"/><line x1="128" y1="134" x2="101" y2="98" stroke="#334155" stroke-width="3"/><line x1="70" y1="150" x2="128" y2="133" stroke="#334155" stroke-width="3"/><line x1="128" y1="133" x2="100" y2="98" stroke="#334155" stroke-width="3"/>
<line x1="145" y1="150" x2="100" y2="112" stroke="#0d9488" stroke-width="1.5" stroke-dasharray="3 3"/>
<text x="280" y="178" text-anchor="middle" font-family="system-ui,-apple-system,Segoe UI,Roboto,sans-serif" font-size="12" font-weight="600" fill="#b91c1c">branch flip at midpoint — the arm jumps</text>
<rect x="40" y="188" width="480" height="120" fill="#f8fafc" stroke="#e2e8f0"/>
<line x1="70" y1="290" x2="125" y2="315" stroke="#334155" stroke-width="3"/><line x1="125" y1="315" x2="145" y2="275" stroke="#334155" stroke-width="3"/><line x1="70" y1="290" x2="125" y2="315" stroke="#334155" stroke-width="3"/><line x1="125" y1="315" x2="144" y2="274" stroke="#334155" stroke-width="3"/><line x1="70" y1="290" x2="125" y2="313" stroke="#334155" stroke-width="3"/><line x1="125" y1="313" x2="140" y2="271" stroke="#334155" stroke-width="3"/><line x1="70" y1="290" x2="127" y2="309" stroke="#334155" stroke-width="3"/><line x1="127" y1="309" x2="133" y2="265" stroke="#334155" stroke-width="3"/><line x1="70" y1="290" x2="85" y2="232" stroke="#b91c1c" stroke-width="3"/><line x1="85" y1="232" x2="122" y2="256" stroke="#b91c1c" stroke-width="3"/><line x1="70" y1="290" x2="71" y2="230" stroke="#334155" stroke-width="3"/><line x1="71" y1="230" x2="112" y2="248" stroke="#334155" stroke-width="3"/><line x1="70" y1="290" x2="61" y2="231" stroke="#334155" stroke-width="3"/><line x1="61" y1="231" x2="105" y2="241" stroke="#334155" stroke-width="3"/><line x1="70" y1="290" x2="56" y2="232" stroke="#334155" stroke-width="3"/><line x1="56" y1="232" x2="101" y2="238" stroke="#334155" stroke-width="3"/><line x1="70" y1="290" x2="55" y2="232" stroke="#334155" stroke-width="3"/><line x1="55" y1="232" x2="100" y2="238" stroke="#334155" stroke-width="3"/>
<text x="122.5" y="210" text-anchor="middle" font-family="system-ui,-apple-system,Segoe UI,Roboto,sans-serif" font-size="10" font-weight="400" fill="#b91c1c">flip → joint jump</text>
</svg>
