<svg viewBox="0 0 380 380" xmlns="http://www.w3.org/2000/svg" role="img" aria-label="Overlaid cubic and quintic position, velocity, and acceleration curves; the acceleration panel marks the cubic's nonzero endpoints versus the quintic's zero endpoints">
<title>Overlaid cubic and quintic position, velocity, and acceleration curves; the acceleration panel marks the cubic's nonzero endpoints versus the quintic's zero endpoints</title>
<rect width="380" height="380" fill="white"/><text x="190" y="22" text-anchor="middle" font-family="system-ui,-apple-system,Segoe UI,Roboto,sans-serif" font-size="16" font-weight="650" fill="#0f172a">Cubic (C¹) vs quintic (C²)</text><rect x="40" y="40" width="300" height="86" fill="#f8fafc" stroke="#e2e8f0"/><line x1="40" y1="113.7" x2="340" y2="113.7" stroke="#334155" stroke-dasharray="3 3"/><path d="M 40.0 113.7 L 45.0 113.7 L 50.0 113.5 L 55.0 113.3 L 60.0 112.9 L 65.0 112.5 L 70.0 112.0 L 75.0 111.4 L 80.0 110.7 L 85.0 110.0 L 90.0 109.2 L 95.0 108.3 L 100.0 107.3 L 105.0 106.3 L 110.0 105.2 L 115.0 104.1 L 120.0 102.9 L 125.0 101.7 L 130.0 100.4 L 135.0 99.1 L 140.0 97.8 L 145.0 96.4 L 150.0 95.0 L 155.0 93.6 L 160.0 92.1 L 165.0 90.6 L 170.0 89.1 L 175.0 87.6 L 180.0 86.1 L 185.0 84.5 L 190.0 83.0 L 195.0 81.5 L 200.0 79.9 L 205.0 78.4 L 210.0 76.9 L 215.0 75.4 L 220.0 73.9 L 225.0 72.4 L 230.0 71.0 L 235.0 69.6 L 240.0 68.2 L 245.0 66.9 L 250.0 65.6 L 255.0 64.3 L 260.0 63.1 L 265.0 61.9 L 270.0 60.8 L 275.0 59.7 L 280.0 58.7 L 285.0 57.7 L 290.0 56.8 L 295.0 56.0 L 300.0 55.3 L 305.0 54.6 L 310.0 54.0 L 315.0 53.5 L 320.0 53.1 L 325.0 52.7 L 330.0 52.5 L 335.0 52.3 L 340.0 52.3" fill="none" stroke="#b91c1c" stroke-width="2.3"/><path d="M 40.0 113.7 L 45.0 113.7 L 50.0 113.7 L 55.0 113.6 L 60.0 113.5 L 65.0 113.4 L 70.0 113.2 L 75.0 112.9 L 80.0 112.5 L 85.0 112.1 L 90.0 111.5 L 95.0 110.9 L 100.0 110.2 L 105.0 109.3 L 110.0 108.4 L 115.0 107.4 L 120.0 106.2 L 125.0 105.0 L 130.0 103.7 L 135.0 102.3 L 140.0 100.8 L 145.0 99.3 L 150.0 97.6 L 155.0 96.0 L 160.0 94.2 L 165.0 92.4 L 170.0 90.6 L 175.0 88.7 L 180.0 86.8 L 185.0 84.9 L 190.0 83.0 L 195.0 81.1 L 200.0 79.2 L 205.0 77.3 L 210.0 75.4 L 215.0 73.6 L 220.0 71.8 L 225.0 70.0 L 230.0 68.4 L 235.0 66.7 L 240.0 65.2 L 245.0 63.7 L 250.0 62.3 L 255.0 61.0 L 260.0 59.8 L 265.0 58.6 L 270.0 57.6 L 275.0 56.7 L 280.0 55.8 L 285.0 55.1 L 290.0 54.5 L 295.0 53.9 L 300.0 53.5 L 305.0 53.1 L 310.0 52.8 L 315.0 52.6 L 320.0 52.5 L 325.0 52.4 L 330.0 52.3 L 335.0 52.3 L 340.0 52.3" fill="none" stroke="#10b981" stroke-width="2.3" stroke-dasharray="6 3"/><text x="48" y="55" font-family="system-ui,-apple-system,Segoe UI,Roboto,sans-serif" font-size="11.5" font-weight="600" fill="#0f172a">position — nearly identical</text><rect x="40" y="140" width="300" height="86" fill="#f8fafc" stroke="#e2e8f0"/><line x1="40" y1="213.7" x2="340" y2="213.7" stroke="#334155" stroke-dasharray="3 3"/><path d="M 40.0 213.7 L 45.0 210.5 L 50.0 207.4 L 55.0 204.4 L 60.0 201.5 L 65.0 198.7 L 70.0 196.0 L 75.0 193.5 L 80.0 191.0 L 85.0 188.7 L 90.0 186.4 L 95.0 184.3 L 100.0 182.3 L 105.0 180.4 L 110.0 178.5 L 115.0 176.9 L 120.0 175.3 L 125.0 173.8 L 130.0 172.4 L 135.0 171.2 L 140.0 170.0 L 145.0 169.0 L 150.0 168.1 L 155.0 167.2 L 160.0 166.5 L 165.0 165.9 L 170.0 165.4 L 175.0 165.1 L 180.0 164.8 L 185.0 164.6 L 190.0 164.6 L 195.0 164.6 L 200.0 164.8 L 205.0 165.1 L 210.0 165.4 L 215.0 165.9 L 220.0 166.5 L 225.0 167.2 L 230.0 168.1 L 235.0 169.0 L 240.0 170.0 L 245.0 171.2 L 250.0 172.4 L 255.0 173.8 L 260.0 175.3 L 265.0 176.9 L 270.0 178.5 L 275.0 180.4 L 280.0 182.3 L 285.0 184.3 L 290.0 186.4 L 295.0 188.7 L 300.0 191.0 L 305.0 193.5 L 310.0 196.0 L 315.0 198.7 L 320.0 201.5 L 325.0 204.4 L 330.0 207.4 L 335.0 210.5 L 340.0 213.7" fill="none" stroke="#b91c1c" stroke-width="2.3"/><path d="M 40.0 213.7 L 45.0 213.5 L 50.0 212.7 L 55.0 211.5 L 60.0 209.9 L 65.0 208.0 L 70.0 205.8 L 75.0 203.3 L 80.0 200.6 L 85.0 197.7 L 90.0 194.8 L 95.0 191.7 L 100.0 188.6 L 105.0 185.4 L 110.0 182.3 L 115.0 179.2 L 120.0 176.1 L 125.0 173.2 L 130.0 170.4 L 135.0 167.7 L 140.0 165.2 L 145.0 162.8 L 150.0 160.7 L 155.0 158.8 L 160.0 157.1 L 165.0 155.7 L 170.0 154.5 L 175.0 153.5 L 180.0 152.8 L 185.0 152.4 L 190.0 152.3 L 195.0 152.4 L 200.0 152.8 L 205.0 153.5 L 210.0 154.5 L 215.0 155.7 L 220.0 157.1 L 225.0 158.8 L 230.0 160.7 L 235.0 162.8 L 240.0 165.2 L 245.0 167.7 L 250.0 170.4 L 255.0 173.2 L 260.0 176.1 L 265.0 179.2 L 270.0 182.3 L 275.0 185.4 L 280.0 188.6 L 285.0 191.7 L 290.0 194.8 L 295.0 197.7 L 300.0 200.6 L 305.0 203.3 L 310.0 205.8 L 315.0 208.0 L 320.0 209.9 L 325.0 211.5 L 330.0 212.7 L 335.0 213.5 L 340.0 213.7" fill="none" stroke="#10b981" stroke-width="2.3" stroke-dasharray="6 3"/><text x="48" y="155" font-family="system-ui,-apple-system,Segoe UI,Roboto,sans-serif" font-size="11.5" font-weight="600" fill="#0f172a">velocity — quintic peaks higher</text><rect x="40" y="240" width="300" height="86" fill="#f8fafc" stroke="#e2e8f0"/><line x1="40" y1="283.0" x2="340" y2="283.0" stroke="#334155" stroke-dasharray="3 3"/><path d="M 40.0 252.3 L 45.0 253.3 L 50.0 254.3 L 55.0 255.4 L 60.0 256.4 L 65.0 257.4 L 70.0 258.4 L 75.0 259.5 L 80.0 260.5 L 85.0 261.5 L 90.0 262.5 L 95.0 263.5 L 100.0 264.6 L 105.0 265.6 L 110.0 266.6 L 115.0 267.6 L 120.0 268.7 L 125.0 269.7 L 130.0 270.7 L 135.0 271.7 L 140.0 272.8 L 145.0 273.8 L 150.0 274.8 L 155.0 275.8 L 160.0 276.9 L 165.0 277.9 L 170.0 278.9 L 175.0 279.9 L 180.0 281.0 L 185.0 282.0 L 190.0 283.0 L 195.0 284.0 L 200.0 285.0 L 205.0 286.1 L 210.0 287.1 L 215.0 288.1 L 220.0 289.1 L 225.0 290.2 L 230.0 291.2 L 235.0 292.2 L 240.0 293.2 L 245.0 294.3 L 250.0 295.3 L 255.0 296.3 L 260.0 297.3 L 265.0 298.4 L 270.0 299.4 L 275.0 300.4 L 280.0 301.4 L 285.0 302.5 L 290.0 303.5 L 295.0 304.5 L 300.0 305.5 L 305.0 306.5 L 310.0 307.6 L 315.0 308.6 L 320.0 309.6 L 325.0 310.6 L 330.0 311.7 L 335.0 312.7 L 340.0 313.7" fill="none" stroke="#b91c1c" stroke-width="2.3"/><path d="M 40.0 283.0 L 45.0 278.1 L 50.0 273.8 L 55.0 269.9 L 60.0 266.4 L 65.0 263.4 L 70.0 260.9 L 75.0 258.7 L 80.0 257.0 L 85.0 255.6 L 90.0 254.6 L 95.0 253.9 L 100.0 253.5 L 105.0 253.5 L 110.0 253.7 L 115.0 254.2 L 120.0 255.0 L 125.0 256.0 L 130.0 257.2 L 135.0 258.6 L 140.0 260.2 L 145.0 262.0 L 150.0 264.0 L 155.0 266.1 L 160.0 268.3 L 165.0 270.6 L 170.0 272.9 L 175.0 275.4 L 180.0 277.9 L 185.0 280.4 L 190.0 283.0 L 195.0 285.6 L 200.0 288.1 L 205.0 290.6 L 210.0 293.1 L 215.0 295.4 L 220.0 297.7 L 225.0 299.9 L 230.0 302.0 L 235.0 304.0 L 240.0 305.8 L 245.0 307.4 L 250.0 308.8 L 255.0 310.0 L 260.0 311.0 L 265.0 311.8 L 270.0 312.3 L 275.0 312.5 L 280.0 312.5 L 285.0 312.1 L 290.0 311.4 L 295.0 310.4 L 300.0 309.0 L 305.0 307.3 L 310.0 305.1 L 315.0 302.6 L 320.0 299.6 L 325.0 296.1 L 330.0 292.2 L 335.0 287.9 L 340.0 283.0" fill="none" stroke="#10b981" stroke-width="2.3" stroke-dasharray="6 3"/><text x="48" y="255" font-family="system-ui,-apple-system,Segoe UI,Roboto,sans-serif" font-size="11.5" font-weight="600" fill="#0f172a">acceleration — cubic ≠0 (jump) vs quintic =0</text><circle cx="40.0" cy="252.3" r="4" fill="#b91c1c"/><circle cx="40.0" cy="283.0" r="4" fill="#10b981"/><circle cx="340.0" cy="313.7" r="4" fill="#b91c1c"/><circle cx="340.0" cy="283.0" r="4" fill="#10b981"/><g font-family="system-ui,-apple-system,Segoe UI,Roboto,sans-serif" font-size="11.5"><line x1="60" y1="350" x2="84" y2="350" stroke="#b91c1c" stroke-width="2.3"/><text x="90" y="354" fill="#334155">cubic</text><line x1="170" y1="350" x2="194" y2="350" stroke="#10b981" stroke-width="2.3" stroke-dasharray="6 3"/><text x="200" y="354" fill="#334155">quintic</text></g>
</svg>
