<svg viewBox="0 0 520 280" xmlns="http://www.w3.org/2000/svg" role="img" aria-label="Workspace arm and disk obstacle beside the configuration space showing the forbidden region as a shaded band, the robot as a point, and the blocked direct edge">
<title>Workspace arm and disk obstacle beside the configuration space showing the forbidden region as a shaded band, the robot as a point, and the blocked direct edge</title>
<rect width="520" height="280" fill="white"/>
<text x="260" y="24" text-anchor="middle" font-family="system-ui,-apple-system,Segoe UI,Roboto,sans-serif" font-size="13" font-weight="650" fill="#0f172a">Obstacle → forbidden region: workspace vs configuration space</text>
<text x="140" y="48" text-anchor="middle" font-family="system-ui,-apple-system,Segoe UI,Roboto,sans-serif" font-size="12" font-weight="600" fill="#0f172a">workspace: arm + obstacle</text>
<rect x="40" y="58" width="220" height="200" fill="#f8fafc" stroke="#e2e8f0"/>
<circle cx="225" cy="152" r="9" fill="#e11d48"/><text x="225.0" y="139.5" text-anchor="middle" font-family="system-ui,-apple-system,Segoe UI,Roboto,sans-serif" font-size="9" font-weight="400" fill="#e11d48">obstacle</text>
<line x1="150" y1="160" x2="210" y2="167" stroke="#0f172a" stroke-width="5"/>
<line x1="210" y1="167" x2="218" y2="122" stroke="#0f172a" stroke-width="5"/>
<circle cx="218" cy="122" r="4" fill="#8b5cf6"/>
<text x="140" y="250" text-anchor="middle" font-family="system-ui,-apple-system,Segoe UI,Roboto,sans-serif" font-size="9" font-weight="400" fill="#64748b">arm clears the disk (free pose)</text>
<text x="400" y="52" text-anchor="middle" font-family="system-ui,-apple-system,Segoe UI,Roboto,sans-serif" font-size="11" font-weight="600" fill="#0f172a">configuration space: robot = point</text>
<rect x="300" y="58" width="200" height="200" fill="#f8fafc" stroke="#e2e8f0"/>
<rect x="376.8" y="102.9" width="3.5" height="3.5" fill="#e11d48" opacity="0.5"/><rect x="379.7" y="108.7" width="3.5" height="3.5" fill="#e11d48" opacity="0.5"/><rect x="379.7" y="105.8" width="3.5" height="3.5" fill="#e11d48" opacity="0.5"/><rect x="379.7" y="102.9" width="3.5" height="3.5" fill="#e11d48" opacity="0.5"/><rect x="379.7" y="100.0" width="3.5" height="3.5" fill="#e11d48" opacity="0.5"/><rect x="382.6" y="114.5" width="3.5" height="3.5" fill="#e11d48" opacity="0.5"/><rect x="382.6" y="111.6" width="3.5" height="3.5" fill="#e11d48" opacity="0.5"/><rect x="382.6" y="108.7" width="3.5" height="3.5" fill="#e11d48" opacity="0.5"/><rect x="382.6" y="105.8" width="3.5" height="3.5" fill="#e11d48" opacity="0.5"/><rect x="382.6" y="102.9" width="3.5" height="3.5" fill="#e11d48" opacity="0.5"/><rect x="385.5" y="117.4" width="3.5" height="3.5" fill="#e11d48" opacity="0.5"/><rect x="385.5" y="114.5" width="3.5" height="3.5" fill="#e11d48" opacity="0.5"/><rect x="385.5" y="111.6" width="3.5" height="3.5" fill="#e11d48" opacity="0.5"/><rect x="385.5" y="108.7" width="3.5" height="3.5" fill="#e11d48" opacity="0.5"/><rect x="385.5" y="105.8" width="3.5" height="3.5" fill="#e11d48" opacity="0.5"/><rect x="388.4" y="123.2" width="3.5" height="3.5" fill="#e11d48" opacity="0.5"/><rect x="388.4" y="120.3" width="3.5" height="3.5" fill="#e11d48" opacity="0.5"/><rect x="388.4" y="117.4" width="3.5" height="3.5" fill="#e11d48" opacity="0.5"/><rect x="388.4" y="114.5" width="3.5" height="3.5" fill="#e11d48" opacity="0.5"/><rect x="388.4" y="111.6" width="3.5" height="3.5" fill="#e11d48" opacity="0.5"/><rect x="388.4" y="108.7" width="3.5" height="3.5" fill="#e11d48" opacity="0.5"/><rect x="391.3" y="129.0" width="3.5" height="3.5" fill="#e11d48" opacity="0.5"/><rect x="391.3" y="126.1" width="3.5" height="3.5" fill="#e11d48" opacity="0.5"/><rect x="391.3" y="123.2" width="3.5" height="3.5" fill="#e11d48" opacity="0.5"/><rect x="391.3" y="120.3" width="3.5" height="3.5" fill="#e11d48" opacity="0.5"/><rect x="391.3" y="117.4" width="3.5" height="3.5" fill="#e11d48" opacity="0.5"/><rect x="391.3" y="114.5" width="3.5" height="3.5" fill="#e11d48" opacity="0.5"/><rect x="391.3" y="111.6" width="3.5" height="3.5" fill="#e11d48" opacity="0.5"/><rect x="394.2" y="137.7" width="3.5" height="3.5" fill="#e11d48" opacity="0.5"/><rect x="394.2" y="134.8" width="3.5" height="3.5" fill="#e11d48" opacity="0.5"/><rect x="394.2" y="131.9" width="3.5" height="3.5" fill="#e11d48" opacity="0.5"/><rect x="394.2" y="129.0" width="3.5" height="3.5" fill="#e11d48" opacity="0.5"/><rect x="394.2" y="126.1" width="3.5" height="3.5" fill="#e11d48" opacity="0.5"/><rect x="394.2" y="123.2" width="3.5" height="3.5" fill="#e11d48" opacity="0.5"/><rect x="394.2" y="120.3" width="3.5" height="3.5" fill="#e11d48" opacity="0.5"/><rect x="394.2" y="117.4" width="3.5" height="3.5" fill="#e11d48" opacity="0.5"/><rect x="394.2" y="114.5" width="3.5" height="3.5" fill="#e11d48" opacity="0.5"/><rect x="397.1" y="152.2" width="3.5" height="3.5" fill="#e11d48" opacity="0.5"/><rect x="397.1" y="149.3" width="3.5" height="3.5" fill="#e11d48" opacity="0.5"/><rect x="397.1" y="146.4" width="3.5" height="3.5" fill="#e11d48" opacity="0.5"/><rect x="397.1" y="143.5" width="3.5" height="3.5" fill="#e11d48" opacity="0.5"/><rect x="397.1" y="140.6" width="3.5" height="3.5" fill="#e11d48" opacity="0.5"/><rect x="397.1" y="137.7" width="3.5" height="3.5" fill="#e11d48" opacity="0.5"/><rect x="397.1" y="134.8" width="3.5" height="3.5" fill="#e11d48" opacity="0.5"/><rect x="397.1" y="131.9" width="3.5" height="3.5" fill="#e11d48" opacity="0.5"/><rect x="397.1" y="129.0" width="3.5" height="3.5" fill="#e11d48" opacity="0.5"/><rect x="397.1" y="126.1" width="3.5" height="3.5" fill="#e11d48" opacity="0.5"/><rect x="397.1" y="123.2" width="3.5" height="3.5" fill="#e11d48" opacity="0.5"/><rect x="397.1" y="120.3" width="3.5" height="3.5" fill="#e11d48" opacity="0.5"/><rect x="400.0" y="166.7" width="3.5" height="3.5" fill="#e11d48" opacity="0.5"/><rect x="400.0" y="163.8" width="3.5" height="3.5" fill="#e11d48" opacity="0.5"/><rect x="400.0" y="160.9" width="3.5" height="3.5" fill="#e11d48" opacity="0.5"/><rect x="400.0" y="158.0" width="3.5" height="3.5" fill="#e11d48" opacity="0.5"/><rect x="400.0" y="155.1" width="3.5" height="3.5" fill="#e11d48" opacity="0.5"/><rect x="400.0" y="152.2" width="3.5" height="3.5" fill="#e11d48" opacity="0.5"/><rect x="400.0" y="149.3" width="3.5" height="3.5" fill="#e11d48" opacity="0.5"/><rect x="400.0" y="146.4" width="3.5" height="3.5" fill="#e11d48" opacity="0.5"/><rect x="400.0" y="143.5" width="3.5" height="3.5" fill="#e11d48" opacity="0.5"/><rect x="400.0" y="140.6" width="3.5" height="3.5" fill="#e11d48" opacity="0.5"/><rect x="400.0" y="137.7" width="3.5" height="3.5" fill="#e11d48" opacity="0.5"/><rect x="400.0" y="134.8" width="3.5" height="3.5" fill="#e11d48" opacity="0.5"/><rect x="400.0" y="131.9" width="3.5" height="3.5" fill="#e11d48" opacity="0.5"/><rect x="400.0" y="129.0" width="3.5" height="3.5" fill="#e11d48" opacity="0.5"/><rect x="402.9" y="181.2" width="3.5" height="3.5" fill="#e11d48" opacity="0.5"/><rect x="402.9" y="178.3" width="3.5" height="3.5" fill="#e11d48" opacity="0.5"/><rect x="402.9" y="175.4" width="3.5" height="3.5" fill="#e11d48" opacity="0.5"/><rect x="402.9" y="172.5" width="3.5" height="3.5" fill="#e11d48" opacity="0.5"/><rect x="402.9" y="169.6" width="3.5" height="3.5" fill="#e11d48" opacity="0.5"/><rect x="402.9" y="166.7" width="3.5" height="3.5" fill="#e11d48" opacity="0.5"/><rect x="402.9" y="163.8" width="3.5" height="3.5" fill="#e11d48" opacity="0.5"/><rect x="402.9" y="160.9" width="3.5" height="3.5" fill="#e11d48" opacity="0.5"/><rect x="402.9" y="158.0" width="3.5" height="3.5" fill="#e11d48" opacity="0.5"/><rect x="402.9" y="155.1" width="3.5" height="3.5" fill="#e11d48" opacity="0.5"/><rect x="402.9" y="152.2" width="3.5" height="3.5" fill="#e11d48" opacity="0.5"/><rect x="402.9" y="149.3" width="3.5" height="3.5" fill="#e11d48" opacity="0.5"/><rect x="402.9" y="146.4" width="3.5" height="3.5" fill="#e11d48" opacity="0.5"/><rect x="402.9" y="143.5" width="3.5" height="3.5" fill="#e11d48" opacity="0.5"/><rect x="405.8" y="189.9" width="3.5" height="3.5" fill="#e11d48" opacity="0.5"/><rect x="405.8" y="187.0" width="3.5" height="3.5" fill="#e11d48" opacity="0.5"/><rect x="405.8" y="184.1" width="3.5" height="3.5" fill="#e11d48" opacity="0.5"/><rect x="405.8" y="181.2" width="3.5" height="3.5" fill="#e11d48" opacity="0.5"/><rect x="405.8" y="178.3" width="3.5" height="3.5" fill="#e11d48" opacity="0.5"/><rect x="405.8" y="175.4" width="3.5" height="3.5" fill="#e11d48" opacity="0.5"/><rect x="405.8" y="172.5" width="3.5" height="3.5" fill="#e11d48" opacity="0.5"/><rect x="405.8" y="169.6" width="3.5" height="3.5" fill="#e11d48" opacity="0.5"/><rect x="405.8" y="166.7" width="3.5" height="3.5" fill="#e11d48" opacity="0.5"/><rect x="405.8" y="163.8" width="3.5" height="3.5" fill="#e11d48" opacity="0.5"/><rect x="405.8" y="160.9" width="3.5" height="3.5" fill="#e11d48" opacity="0.5"/><rect x="405.8" y="158.0" width="3.5" height="3.5" fill="#e11d48" opacity="0.5"/><rect x="408.7" y="195.7" width="3.5" height="3.5" fill="#e11d48" opacity="0.5"/><rect x="408.7" y="192.8" width="3.5" height="3.5" fill="#e11d48" opacity="0.5"/><rect x="408.7" y="189.9" width="3.5" height="3.5" fill="#e11d48" opacity="0.5"/><rect x="408.7" y="187.0" width="3.5" height="3.5" fill="#e11d48" opacity="0.5"/><rect x="408.7" y="184.1" width="3.5" height="3.5" fill="#e11d48" opacity="0.5"/><rect x="408.7" y="181.2" width="3.5" height="3.5" fill="#e11d48" opacity="0.5"/><rect x="408.7" y="178.3" width="3.5" height="3.5" fill="#e11d48" opacity="0.5"/><rect x="408.7" y="175.4" width="3.5" height="3.5" fill="#e11d48" opacity="0.5"/><rect x="408.7" y="172.5" width="3.5" height="3.5" fill="#e11d48" opacity="0.5"/><rect x="411.6" y="201.5" width="3.5" height="3.5" fill="#e11d48" opacity="0.5"/><rect x="411.6" y="198.6" width="3.5" height="3.5" fill="#e11d48" opacity="0.5"/><rect x="411.6" y="195.7" width="3.5" height="3.5" fill="#e11d48" opacity="0.5"/><rect x="411.6" y="192.8" width="3.5" height="3.5" fill="#e11d48" opacity="0.5"/><rect x="411.6" y="189.9" width="3.5" height="3.5" fill="#e11d48" opacity="0.5"/><rect x="411.6" y="187.0" width="3.5" height="3.5" fill="#e11d48" opacity="0.5"/><rect x="411.6" y="184.1" width="3.5" height="3.5" fill="#e11d48" opacity="0.5"/><rect x="411.6" y="181.2" width="3.5" height="3.5" fill="#e11d48" opacity="0.5"/><rect x="414.5" y="204.4" width="3.5" height="3.5" fill="#e11d48" opacity="0.5"/><rect x="414.5" y="201.5" width="3.5" height="3.5" fill="#e11d48" opacity="0.5"/><rect x="414.5" y="198.6" width="3.5" height="3.5" fill="#e11d48" opacity="0.5"/><rect x="414.5" y="195.7" width="3.5" height="3.5" fill="#e11d48" opacity="0.5"/><rect x="414.5" y="192.8" width="3.5" height="3.5" fill="#e11d48" opacity="0.5"/><rect x="414.5" y="189.9" width="3.5" height="3.5" fill="#e11d48" opacity="0.5"/><rect x="417.4" y="207.3" width="3.5" height="3.5" fill="#e11d48" opacity="0.5"/><rect x="417.4" y="204.4" width="3.5" height="3.5" fill="#e11d48" opacity="0.5"/><rect x="417.4" y="201.5" width="3.5" height="3.5" fill="#e11d48" opacity="0.5"/><rect x="417.4" y="198.6" width="3.5" height="3.5" fill="#e11d48" opacity="0.5"/><rect x="417.4" y="195.7" width="3.5" height="3.5" fill="#e11d48" opacity="0.5"/><rect x="420.3" y="210.2" width="3.5" height="3.5" fill="#e11d48" opacity="0.5"/><rect x="420.3" y="207.3" width="3.5" height="3.5" fill="#e11d48" opacity="0.5"/><rect x="420.3" y="204.4" width="3.5" height="3.5" fill="#e11d48" opacity="0.5"/><rect x="420.3" y="201.5" width="3.5" height="3.5" fill="#e11d48" opacity="0.5"/><rect x="420.3" y="198.6" width="3.5" height="3.5" fill="#e11d48" opacity="0.5"/><rect x="423.2" y="213.1" width="3.5" height="3.5" fill="#e11d48" opacity="0.5"/><rect x="423.2" y="210.2" width="3.5" height="3.5" fill="#e11d48" opacity="0.5"/><rect x="423.2" y="207.3" width="3.5" height="3.5" fill="#e11d48" opacity="0.5"/><rect x="423.2" y="204.4" width="3.5" height="3.5" fill="#e11d48" opacity="0.5"/><rect x="423.2" y="201.5" width="3.5" height="3.5" fill="#e11d48" opacity="0.5"/><rect x="426.1" y="213.1" width="3.5" height="3.5" fill="#e11d48" opacity="0.5"/><rect x="426.1" y="210.2" width="3.5" height="3.5" fill="#e11d48" opacity="0.5"/><rect x="426.1" y="207.3" width="3.5" height="3.5" fill="#e11d48" opacity="0.5"/>
<line x1="396" y1="110" x2="364" y2="110" stroke="#0ea5e9" stroke-width="1.5" stroke-dasharray="4 3"/>
<circle cx="396" cy="110" r="5" fill="#10b981"/><text x="388.3828781551211" y="112.99073427692886" text-anchor="end" font-family="system-ui,-apple-system,Segoe UI,Roboto,sans-serif" font-size="9" font-weight="400" fill="#10b981">start</text>
<circle cx="364" cy="110" r="5" fill="#0f172a"/><text x="372.09998471170206" y="112.99073427692886" text-anchor="start" font-family="system-ui,-apple-system,Segoe UI,Roboto,sans-serif" font-size="9" font-weight="400" fill="#0f172a">goal</text>
<text x="400.0" y="274" text-anchor="middle" font-family="system-ui,-apple-system,Segoe UI,Roboto,sans-serif" font-size="9" font-weight="400" fill="#e11d48">shaded = forbidden (C-obstacle); direct edge blocked</text>
<text x="294" y="158.0" text-anchor="end" font-family="system-ui,-apple-system,Segoe UI,Roboto,sans-serif" font-size="9" font-weight="400" fill="#64748b">q₂</text><text x="496" y="274" text-anchor="end" font-family="system-ui,-apple-system,Segoe UI,Roboto,sans-serif" font-size="9" font-weight="400" fill="#64748b">q₁</text>
</svg>
