<svg viewBox="0 0 560 360" xmlns="http://www.w3.org/2000/svg" role="img" aria-label="A routed joint path through a via-point with a speed plot showing stop-at-each dipping to zero at the via while flow-through stays positive">
<title>A routed joint path through a via-point with a speed plot showing stop-at-each dipping to zero at the via while flow-through stays positive</title>
<rect width="560" height="360" fill="white"/>
<text x="280" y="26" text-anchor="middle" font-family="system-ui,-apple-system,Segoe UI,Roboto,sans-serif" font-size="16" font-weight="650" fill="#0f172a">Via-points: stop at each vs flow through</text>
<text x="280" y="50" text-anchor="middle" font-family="system-ui,-apple-system,Segoe UI,Roboto,sans-serif" font-size="12" font-weight="400" fill="#64748b">joint angle through start, via, goal</text>
<rect x="60" y="60" width="440" height="86" fill="#f8fafc" stroke="#e2e8f0"/>
<path d="M 60.0 146.0 L 62.8 144.8 L 65.5 143.5 L 68.3 142.3 L 71.1 141.1 L 73.8 139.8 L 76.6 138.6 L 79.4 137.4 L 82.1 136.1 L 84.9 134.9 L 87.7 133.7 L 90.4 132.5 L 93.2 131.2 L 96.0 130.0 L 98.7 128.8 L 101.5 127.6 L 104.3 126.4 L 107.0 125.2 L 109.8 124.0 L 112.6 122.8 L 115.3 121.7 L 118.1 120.5 L 120.9 119.3 L 123.6 118.2 L 126.4 117.0 L 129.2 115.9 L 131.9 114.7 L 134.7 113.6 L 137.5 112.5 L 140.3 111.3 L 143.0 110.2 L 145.8 109.1 L 148.6 108.0 L 151.3 107.0 L 154.1 105.9 L 156.9 104.8 L 159.6 103.8 L 162.4 102.7 L 165.2 101.7 L 167.9 100.7 L 170.7 99.7 L 173.5 98.7 L 176.2 97.7 L 179.0 96.7 L 181.8 95.8 L 184.5 94.8 L 187.3 93.9 L 190.1 93.0 L 192.8 92.1 L 195.6 91.2 L 198.4 90.3 L 201.1 89.4 L 203.9 88.6 L 206.7 87.8 L 209.4 86.9 L 212.2 86.1 L 215.0 85.4 L 217.7 84.6 L 220.5 83.8 L 223.3 83.1 L 226.0 82.4 L 228.8 81.7 L 231.6 81.0 L 234.3 80.3 L 237.1 79.7 L 239.9 79.1 L 242.6 78.5 L 245.4 77.9 L 248.2 77.3 L 250.9 76.8 L 253.7 76.2 L 256.5 75.7 L 259.2 75.2 L 262.0 74.8 L 264.8 74.3 L 267.5 73.9 L 270.3 73.5 L 273.1 73.1 L 275.8 72.8 L 278.6 72.4 L 281.4 72.1 L 284.2 71.8 L 286.9 71.6 L 289.7 71.3 L 292.5 71.1 L 295.2 70.9 L 298.0 70.8 L 300.8 70.6 L 303.5 70.5 L 306.3 70.4 L 309.1 70.3 L 311.8 70.2 L 314.6 70.1 L 317.4 70.1 L 320.1 70.1 L 322.9 70.1 L 325.7 70.1 L 328.4 70.2 L 331.2 70.2 L 334.0 70.3 L 336.7 70.4 L 339.5 70.5 L 342.3 70.7 L 345.0 70.8 L 347.8 71.0 L 350.6 71.2 L 353.3 71.4 L 356.1 71.6 L 358.9 71.8 L 361.6 72.1 L 364.4 72.3 L 367.2 72.6 L 369.9 72.9 L 372.7 73.2 L 375.5 73.5 L 378.2 73.8 L 381.0 74.2 L 383.8 74.5 L 386.5 74.9 L 389.3 75.3 L 392.1 75.7 L 394.8 76.1 L 397.6 76.5 L 400.4 76.9 L 403.1 77.3 L 405.9 77.8 L 408.7 78.2 L 411.4 78.7 L 414.2 79.2 L 417.0 79.6 L 419.7 80.1 L 422.5 80.6 L 425.3 81.1 L 428.1 81.6 L 430.8 82.2 L 433.6 82.7 L 436.4 83.2 L 439.1 83.8 L 441.9 84.3 L 444.7 84.9 L 447.4 85.4 L 450.2 86.0 L 453.0 86.6 L 455.7 87.2 L 458.5 87.7 L 461.3 88.3 L 464.0 88.9 L 466.8 89.5 L 469.6 90.1 L 472.3 90.7 L 475.1 91.3 L 477.9 91.9 L 480.6 92.5 L 483.4 93.2 L 486.2 93.8 L 488.9 94.4 L 491.7 95.0 L 494.5 95.6 L 497.2 96.2 L 500.0 96.9" fill="none" stroke="#0f172a" stroke-width="2.6"/>
<circle cx="60" cy="146" r="4" fill="#0f172a"/>
<circle cx="280" cy="72" r="5" fill="#8b5cf6"/>
<circle cx="500" cy="97" r="4" fill="#0f172a"/>
<text x="280.0" y="52" text-anchor="middle" font-family="system-ui,-apple-system,Segoe UI,Roboto,sans-serif" font-size="10" font-weight="400" fill="#8b5cf6">via</text>
<text x="280" y="168" text-anchor="middle" font-family="system-ui,-apple-system,Segoe UI,Roboto,sans-serif" font-size="12" font-weight="400" fill="#64748b">speed vs time</text>
<rect x="60" y="178" width="440" height="150" fill="#f8fafc" stroke="#e2e8f0"/>
<path d="M 60.0 328.0 L 62.8 320.5 L 65.5 313.3 L 68.3 306.2 L 71.1 299.3 L 73.8 292.6 L 76.6 286.1 L 79.4 279.8 L 82.1 273.7 L 84.9 267.8 L 87.7 262.0 L 90.4 256.5 L 93.2 251.1 L 96.0 245.9 L 98.7 240.9 L 101.5 236.1 L 104.3 231.5 L 107.0 227.1 L 109.8 222.9 L 112.6 218.9 L 115.3 215.0 L 118.1 211.4 L 120.9 207.9 L 123.6 204.6 L 126.4 201.5 L 129.2 198.6 L 131.9 195.9 L 134.7 193.4 L 137.5 191.1 L 140.3 189.0 L 143.0 187.0 L 145.8 185.3 L 148.6 183.7 L 151.3 182.3 L 154.1 181.1 L 156.9 180.1 L 159.6 179.3 L 162.4 178.7 L 165.2 178.3 L 167.9 178.0 L 170.7 178.0 L 173.5 178.1 L 176.2 178.5 L 179.0 179.0 L 181.8 179.7 L 184.5 180.6 L 187.3 181.7 L 190.1 183.0 L 192.8 184.5 L 195.6 186.1 L 198.4 188.0 L 201.1 190.0 L 203.9 192.2 L 206.7 194.7 L 209.4 197.3 L 212.2 200.1 L 215.0 203.1 L 217.7 206.2 L 220.5 209.6 L 223.3 213.2 L 226.0 216.9 L 228.8 220.9 L 231.6 225.0 L 234.3 229.3 L 237.1 233.8 L 239.9 238.5 L 242.6 243.4 L 245.4 248.5 L 248.2 253.8 L 250.9 259.2 L 253.7 264.9 L 256.5 270.7 L 259.2 276.7 L 262.0 283.0 L 264.8 289.4 L 267.5 296.0 L 270.3 302.7 L 273.1 309.7 L 275.8 316.9 L 278.6 324.2 L 281.4 326.8 L 284.2 324.3 L 286.9 321.9 L 289.7 319.6 L 292.5 317.3 L 295.2 315.1 L 298.0 313.0 L 300.8 310.9 L 303.5 308.9 L 306.3 307.0 L 309.1 305.1 L 311.8 303.3 L 314.6 301.5 L 317.4 299.8 L 320.1 298.2 L 322.9 296.6 L 325.7 295.1 L 328.4 293.7 L 331.2 292.3 L 334.0 291.0 L 336.7 289.7 L 339.5 288.5 L 342.3 287.4 L 345.0 286.4 L 347.8 285.4 L 350.6 284.4 L 353.3 283.6 L 356.1 282.7 L 358.9 282.0 L 361.6 281.3 L 364.4 280.7 L 367.2 280.2 L 369.9 279.7 L 372.7 279.2 L 375.5 278.9 L 378.2 278.6 L 381.0 278.3 L 383.8 278.2 L 386.5 278.0 L 389.3 278.0 L 392.1 278.0 L 394.8 278.1 L 397.6 278.2 L 400.4 278.4 L 403.1 278.7 L 405.9 279.0 L 408.7 279.4 L 411.4 279.9 L 414.2 280.4 L 417.0 281.0 L 419.7 281.7 L 422.5 282.4 L 425.3 283.1 L 428.1 284.0 L 430.8 284.9 L 433.6 285.8 L 436.4 286.9 L 439.1 288.0 L 441.9 289.1 L 444.7 290.3 L 447.4 291.6 L 450.2 293.0 L 453.0 294.4 L 455.7 295.8 L 458.5 297.4 L 461.3 299.0 L 464.0 300.6 L 466.8 302.4 L 469.6 304.2 L 472.3 306.0 L 475.1 307.9 L 477.9 309.9 L 480.6 311.9 L 483.4 314.0 L 486.2 316.2 L 488.9 318.4 L 491.7 320.7 L 494.5 323.1 L 497.2 325.5 L 500.0 328.0" fill="none" stroke="#b91c1c" stroke-width="2.6" stroke-dasharray="5 4"/>
<path d="M 60.0 256.9 L 62.8 256.9 L 65.5 256.9 L 68.3 257.0 L 71.1 257.0 L 73.8 257.1 L 76.6 257.2 L 79.4 257.3 L 82.1 257.4 L 84.9 257.6 L 87.7 257.7 L 90.4 257.9 L 93.2 258.1 L 96.0 258.3 L 98.7 258.5 L 101.5 258.8 L 104.3 259.0 L 107.0 259.3 L 109.8 259.6 L 112.6 259.9 L 115.3 260.3 L 118.1 260.6 L 120.9 261.0 L 123.6 261.4 L 126.4 261.7 L 129.2 262.2 L 131.9 262.6 L 134.7 263.0 L 137.5 263.5 L 140.3 264.0 L 143.0 264.5 L 145.8 265.0 L 148.6 265.5 L 151.3 266.1 L 154.1 266.6 L 156.9 267.2 L 159.6 267.8 L 162.4 268.4 L 165.2 269.1 L 167.9 269.7 L 170.7 270.4 L 173.5 271.1 L 176.2 271.8 L 179.0 272.5 L 181.8 273.2 L 184.5 274.0 L 187.3 274.7 L 190.1 275.5 L 192.8 276.3 L 195.6 277.1 L 198.4 278.0 L 201.1 278.8 L 203.9 279.7 L 206.7 280.6 L 209.4 281.5 L 212.2 282.4 L 215.0 283.4 L 217.7 284.3 L 220.5 285.3 L 223.3 286.3 L 226.0 287.3 L 228.8 288.3 L 231.6 289.3 L 234.3 290.4 L 237.1 291.5 L 239.9 292.5 L 242.6 293.6 L 245.4 294.8 L 248.2 295.9 L 250.9 297.1 L 253.7 298.2 L 256.5 299.4 L 259.2 300.6 L 262.0 301.9 L 264.8 303.1 L 267.5 304.4 L 270.3 305.6 L 273.1 306.9 L 275.8 308.2 L 278.6 309.6 L 281.4 310.9 L 284.2 312.2 L 286.9 313.5 L 289.7 314.8 L 292.5 316.1 L 295.2 317.3 L 298.0 318.6 L 300.8 319.8 L 303.5 321.0 L 306.3 322.2 L 309.1 323.4 L 311.8 324.5 L 314.6 325.7 L 317.4 326.8 L 320.1 327.9 L 322.9 327.0 L 325.7 325.9 L 328.4 324.9 L 331.2 323.8 L 334.0 322.8 L 336.7 321.8 L 339.5 320.8 L 342.3 319.9 L 345.0 318.9 L 347.8 318.0 L 350.6 317.1 L 353.3 316.1 L 356.1 315.3 L 358.9 314.4 L 361.6 313.5 L 364.4 312.7 L 367.2 311.9 L 369.9 311.1 L 372.7 310.3 L 375.5 309.5 L 378.2 308.8 L 381.0 308.0 L 383.8 307.3 L 386.5 306.6 L 389.3 305.9 L 392.1 305.3 L 394.8 304.6 L 397.6 304.0 L 400.4 303.4 L 403.1 302.8 L 405.9 302.2 L 408.7 301.6 L 411.4 301.1 L 414.2 300.6 L 417.0 300.0 L 419.7 299.5 L 422.5 299.1 L 425.3 298.6 L 428.1 298.1 L 430.8 297.7 L 433.6 297.3 L 436.4 296.9 L 439.1 296.5 L 441.9 296.2 L 444.7 295.8 L 447.4 295.5 L 450.2 295.2 L 453.0 294.9 L 455.7 294.6 L 458.5 294.3 L 461.3 294.1 L 464.0 293.9 L 466.8 293.7 L 469.6 293.5 L 472.3 293.3 L 475.1 293.1 L 477.9 293.0 L 480.6 292.9 L 483.4 292.7 L 486.2 292.7 L 488.9 292.6 L 491.7 292.5 L 494.5 292.5 L 497.2 292.5 L 500.0 292.4" fill="none" stroke="#10b981" stroke-width="2.6"/>
<circle cx="280" cy="328" r="4" fill="#b91c1c"/>
<text x="280.0" y="344" text-anchor="middle" font-family="system-ui,-apple-system,Segoe UI,Roboto,sans-serif" font-size="10" font-weight="400" fill="#b91c1c">stop-at-each: speed -> 0 at via</text>
<text x="470" y="196" text-anchor="end" font-family="system-ui,-apple-system,Segoe UI,Roboto,sans-serif" font-size="10" font-weight="400" fill="#10b981">flow-through: stays positive</text>
</svg>
