<svg viewBox="0 0 520 250" xmlns="http://www.w3.org/2000/svg" role="img" aria-label="Plan produces a collision-free path in configuration space with no timing; Parameterize lays a velocity profile under the limit line onto that fixed route, illustrating plan-then-time decoupling">
<title>Plan produces a collision-free path in configuration space with no timing; Parameterize lays a velocity profile under the limit line onto that fixed route, illustrating plan-then-time decoupling</title>
<rect width="520" height="250" fill="white"/>
<text x="260" y="24" text-anchor="middle" font-family="system-ui,-apple-system,Segoe UI,Roboto,sans-serif" font-size="14" font-weight="650" fill="#0f172a">Plan, then Parameterize (plan-then-time)</text>
<text x="115" y="48" text-anchor="middle" font-family="system-ui,-apple-system,Segoe UI,Roboto,sans-serif" font-size="11" font-weight="600" fill="#10b981">PLAN: route (geometry)</text>
<rect x="40" y="58" width="150" height="150" fill="#f8fafc" stroke="#e2e8f0"/><rect x="99.7" y="96.3" width="3.6" height="3.6" fill="#e11d48" opacity="0.4"/><rect x="99.7" y="93.2" width="3.6" height="3.6" fill="#e11d48" opacity="0.4"/><rect x="99.7" y="90.2" width="3.6" height="3.6" fill="#e11d48" opacity="0.4"/><rect x="102.8" y="99.4" width="3.6" height="3.6" fill="#e11d48" opacity="0.4"/><rect x="102.8" y="96.3" width="3.6" height="3.6" fill="#e11d48" opacity="0.4"/><rect x="102.8" y="93.2" width="3.6" height="3.6" fill="#e11d48" opacity="0.4"/><rect x="105.8" y="105.5" width="3.6" height="3.6" fill="#e11d48" opacity="0.4"/><rect x="105.8" y="102.4" width="3.6" height="3.6" fill="#e11d48" opacity="0.4"/><rect x="105.8" y="99.4" width="3.6" height="3.6" fill="#e11d48" opacity="0.4"/><rect x="105.8" y="96.3" width="3.6" height="3.6" fill="#e11d48" opacity="0.4"/><rect x="108.9" y="114.7" width="3.6" height="3.6" fill="#e11d48" opacity="0.4"/><rect x="108.9" y="111.6" width="3.6" height="3.6" fill="#e11d48" opacity="0.4"/><rect x="108.9" y="108.5" width="3.6" height="3.6" fill="#e11d48" opacity="0.4"/><rect x="108.9" y="105.5" width="3.6" height="3.6" fill="#e11d48" opacity="0.4"/><rect x="108.9" y="102.4" width="3.6" height="3.6" fill="#e11d48" opacity="0.4"/><rect x="108.9" y="99.4" width="3.6" height="3.6" fill="#e11d48" opacity="0.4"/><rect x="112.0" y="123.8" width="3.6" height="3.6" fill="#e11d48" opacity="0.4"/><rect x="112.0" y="120.8" width="3.6" height="3.6" fill="#e11d48" opacity="0.4"/><rect x="112.0" y="117.7" width="3.6" height="3.6" fill="#e11d48" opacity="0.4"/><rect x="112.0" y="114.7" width="3.6" height="3.6" fill="#e11d48" opacity="0.4"/><rect x="112.0" y="111.6" width="3.6" height="3.6" fill="#e11d48" opacity="0.4"/><rect x="112.0" y="108.5" width="3.6" height="3.6" fill="#e11d48" opacity="0.4"/><rect x="112.0" y="105.5" width="3.6" height="3.6" fill="#e11d48" opacity="0.4"/><rect x="115.0" y="139.2" width="3.6" height="3.6" fill="#e11d48" opacity="0.4"/><rect x="115.0" y="136.1" width="3.6" height="3.6" fill="#e11d48" opacity="0.4"/><rect x="115.0" y="133.0" width="3.6" height="3.6" fill="#e11d48" opacity="0.4"/><rect x="115.0" y="130.0" width="3.6" height="3.6" fill="#e11d48" opacity="0.4"/><rect x="115.0" y="126.9" width="3.6" height="3.6" fill="#e11d48" opacity="0.4"/><rect x="115.0" y="123.8" width="3.6" height="3.6" fill="#e11d48" opacity="0.4"/><rect x="115.0" y="120.8" width="3.6" height="3.6" fill="#e11d48" opacity="0.4"/><rect x="115.0" y="117.7" width="3.6" height="3.6" fill="#e11d48" opacity="0.4"/><rect x="115.0" y="114.7" width="3.6" height="3.6" fill="#e11d48" opacity="0.4"/><rect x="118.1" y="154.5" width="3.6" height="3.6" fill="#e11d48" opacity="0.4"/><rect x="118.1" y="151.4" width="3.6" height="3.6" fill="#e11d48" opacity="0.4"/><rect x="118.1" y="148.3" width="3.6" height="3.6" fill="#e11d48" opacity="0.4"/><rect x="118.1" y="145.3" width="3.6" height="3.6" fill="#e11d48" opacity="0.4"/><rect x="118.1" y="142.2" width="3.6" height="3.6" fill="#e11d48" opacity="0.4"/><rect x="118.1" y="139.2" width="3.6" height="3.6" fill="#e11d48" opacity="0.4"/><rect x="118.1" y="136.1" width="3.6" height="3.6" fill="#e11d48" opacity="0.4"/><rect x="118.1" y="133.0" width="3.6" height="3.6" fill="#e11d48" opacity="0.4"/><rect x="118.1" y="130.0" width="3.6" height="3.6" fill="#e11d48" opacity="0.4"/><rect x="121.2" y="160.6" width="3.6" height="3.6" fill="#e11d48" opacity="0.4"/><rect x="121.2" y="157.5" width="3.6" height="3.6" fill="#e11d48" opacity="0.4"/><rect x="121.2" y="154.5" width="3.6" height="3.6" fill="#e11d48" opacity="0.4"/><rect x="121.2" y="151.4" width="3.6" height="3.6" fill="#e11d48" opacity="0.4"/><rect x="121.2" y="148.3" width="3.6" height="3.6" fill="#e11d48" opacity="0.4"/><rect x="121.2" y="145.3" width="3.6" height="3.6" fill="#e11d48" opacity="0.4"/><rect x="124.2" y="166.7" width="3.6" height="3.6" fill="#e11d48" opacity="0.4"/><rect x="124.2" y="163.6" width="3.6" height="3.6" fill="#e11d48" opacity="0.4"/><rect x="124.2" y="160.6" width="3.6" height="3.6" fill="#e11d48" opacity="0.4"/><rect x="124.2" y="157.5" width="3.6" height="3.6" fill="#e11d48" opacity="0.4"/><rect x="124.2" y="154.5" width="3.6" height="3.6" fill="#e11d48" opacity="0.4"/><rect x="127.3" y="169.8" width="3.6" height="3.6" fill="#e11d48" opacity="0.4"/><rect x="127.3" y="166.7" width="3.6" height="3.6" fill="#e11d48" opacity="0.4"/><rect x="127.3" y="163.6" width="3.6" height="3.6" fill="#e11d48" opacity="0.4"/><rect x="127.3" y="160.6" width="3.6" height="3.6" fill="#e11d48" opacity="0.4"/><rect x="130.3" y="172.8" width="3.6" height="3.6" fill="#e11d48" opacity="0.4"/><rect x="130.3" y="169.8" width="3.6" height="3.6" fill="#e11d48" opacity="0.4"/><rect x="130.3" y="166.7" width="3.6" height="3.6" fill="#e11d48" opacity="0.4"/><rect x="130.3" y="163.6" width="3.6" height="3.6" fill="#e11d48" opacity="0.4"/><rect x="133.4" y="172.8" width="3.6" height="3.6" fill="#e11d48" opacity="0.4"/><rect x="133.4" y="169.8" width="3.6" height="3.6" fill="#e11d48" opacity="0.4"/><path d="M 112.3 97.0 L 102.2 74.3 L 88.1 97.0" fill="none" stroke="#10b981" stroke-width="2.5"/>
<text x="115" y="224" text-anchor="middle" font-family="system-ui,-apple-system,Segoe UI,Roboto,sans-serif" font-size="9" font-weight="400" fill="#64748b">collision-free path, no clock</text>
<line x1="208" y1="125" x2="248" y2="125" stroke="#64748b" stroke-width="2" marker-end="url(#ah2)"/>
<defs><marker id="ah2" markerWidth="8" markerHeight="8" refX="6" refY="3" orient="auto"><path d="M0,0 L6,3 L0,6 z" fill="#64748b"/></marker></defs>
<text x="390" y="48" text-anchor="middle" font-family="system-ui,-apple-system,Segoe UI,Roboto,sans-serif" font-size="11" font-weight="600" fill="#0d9488">PARAMETERIZE: schedule (timing)</text>
<rect x="300" y="58" width="180" height="150" fill="#f8fafc" stroke="#e2e8f0"/>
<line x1="300" y1="110" x2="480" y2="110" stroke="#64748b" stroke-width="1.3" stroke-dasharray="4 3"/><text x="476" y="106" text-anchor="end" font-family="system-ui,-apple-system,Segoe UI,Roboto,sans-serif" font-size="9" font-weight="400" fill="#64748b">limit</text>
<path d="M 300.0 200.0 L 303.1 193.9 L 306.1 187.8 L 309.2 181.7 L 312.2 175.6 L 315.3 169.5 L 318.3 163.4 L 321.4 157.3 L 324.4 151.2 L 327.5 145.1 L 330.5 139.0 L 333.6 132.9 L 336.6 132.5 L 339.7 132.5 L 342.7 132.5 L 345.8 132.5 L 348.8 132.5 L 351.9 132.5 L 354.9 132.5 L 358.0 132.5 L 361.0 132.5 L 364.1 132.5 L 367.1 132.5 L 370.2 132.5 L 373.2 132.5 L 376.3 132.5 L 379.3 132.5 L 382.4 132.5 L 385.4 132.5 L 388.5 132.5 L 391.5 132.5 L 394.6 132.5 L 397.6 132.5 L 400.7 132.5 L 403.7 132.5 L 406.8 132.5 L 409.8 132.5 L 412.9 132.5 L 415.9 132.5 L 419.0 132.5 L 422.0 132.5 L 425.1 132.5 L 428.1 132.5 L 431.2 132.5 L 434.2 132.5 L 437.3 132.5 L 440.3 132.5 L 443.4 132.5 L 446.4 132.9 L 449.5 139.0 L 452.5 145.1 L 455.6 151.2 L 458.6 157.3 L 461.7 163.4 L 464.7 169.5 L 467.8 175.6 L 470.8 181.7 L 473.9 187.8 L 476.9 193.9 L 480.0 200.0" fill="none" stroke="#0d9488" stroke-width="2.5"/>
<text x="390" y="224" text-anchor="middle" font-family="system-ui,-apple-system,Segoe UI,Roboto,sans-serif" font-size="9" font-weight="400" fill="#64748b">timing laid on the fixed route (T_k ≥ min feasible)</text>
</svg>
