<svg viewBox="0 0 700 340" xmlns="http://www.w3.org/2000/svg" role="img" aria-label="SLERP shown as evenly turning gripper orientations and as a shortest great-circle arc on the space of rotations versus an invalid naive chord">
<title>SLERP shown as evenly turning gripper orientations and as a shortest great-circle arc on the space of rotations versus an invalid naive chord</title>
<rect width="700" height="340" fill="white"/>
<text x="350" y="26" text-anchor="middle" font-family="system-ui,-apple-system,Segoe UI,Roboto,sans-serif" font-size="15" font-weight="650" fill="#0f172a">SLERP: shortest arc, constant rate, always a valid orientation</text>
<!-- left: grippers turning evenly -->
<text x="190" y="58" text-anchor="middle" font-family="system-ui,-apple-system,Segoe UI,Roboto,sans-serif" font-size="12" font-weight="600" fill="#10b981">tool turns directly and evenly</text>
<rect x="70" y="70" width="250" height="180" fill="#f8fafc" stroke="#e2e8f0"/>
<line x1="92.3" y1="153.1" x2="127.7" y2="146.9" stroke="#10b981" stroke-width="2.5"/><line x1="129.5" y1="156.7" x2="126.0" y2="137.0" stroke="#10b981" stroke-width="2.5"/><line x1="132.4" y1="159.0" x2="163.6" y2="141.0" stroke="#10b981" stroke-width="2.5"/><line x1="168.6" y1="149.7" x2="158.6" y2="132.3" stroke="#10b981" stroke-width="2.5"/><line x1="174.4" y1="163.8" x2="197.6" y2="136.2" stroke="#10b981" stroke-width="2.5"/><line x1="205.2" y1="142.6" x2="189.9" y2="129.8" stroke="#10b981" stroke-width="2.5"/><line x1="217.8" y1="166.9" x2="230.2" y2="133.1" stroke="#10b981" stroke-width="2.5"/><line x1="239.6" y1="136.5" x2="220.8" y2="129.7" stroke="#10b981" stroke-width="2.5"/>
<text x="190" y="236" text-anchor="middle" font-family="system-ui,-apple-system,Segoe UI,Roboto,sans-serif" font-size="11" font-weight="400" fill="#64748b">constant-rate ticks</text>
<!-- right: sphere of rotations -->
<text x="490" y="58" text-anchor="middle" font-family="system-ui,-apple-system,Segoe UI,Roboto,sans-serif" font-size="12" font-weight="600" fill="#64748b">space of rotations</text>
<circle cx="400" cy="190" r="110" fill="#f8fafc" stroke="#e2e8f0"/>
<ellipse cx="400" cy="190" rx="110" ry="34" fill="none" stroke="#e2e8f0"/>
<path d="M 304.7 135.0 L 307.5 130.5 L 310.4 126.1 L 313.6 121.9 L 317.0 117.8 L 320.5 113.9 L 324.3 110.2 L 328.2 106.7 L 332.3 103.3 L 336.5 100.2 L 340.9 97.2 L 345.4 94.5 L 350.1 92.0 L 354.8 89.7 L 359.7 87.7 L 364.6 85.8 L 369.7 84.3 L 374.8 82.9 L 380.0 81.8 L 385.2 81.0 L 390.4 80.4 L 395.7 80.1 L 401.0 80.0 L 406.2 80.2 L 411.5 80.6 L 416.7 81.3 L 421.9 82.2 L 427.1 83.4 L 432.2 84.8 L 437.2 86.5 L 442.1 88.4 L 446.9 90.5 L 451.6 92.9 L 456.2 95.5 L 460.7 98.3 L 465.0 101.3 L 469.2 104.5 L 473.2 107.9 L 477.1 111.5 L 480.8 115.3 L 484.3 119.3" fill="none" stroke="#10b981" stroke-width="3"/>
<line x1="305" y1="135" x2="484" y2="119" stroke="#b91c1c" stroke-width="2" stroke-dasharray="5 4"/>
<circle cx="305" cy="135" r="5" fill="#0f172a"/><circle cx="484" cy="119" r="5" fill="#0f172a"/>
<text x="298.7372055837117" y="127.0" text-anchor="end" font-family="system-ui,-apple-system,Segoe UI,Roboto,sans-serif" font-size="12" font-weight="400" fill="#0f172a">A</text><text x="492.26488874308757" y="119.29336293448068" text-anchor="start" font-family="system-ui,-apple-system,Segoe UI,Roboto,sans-serif" font-size="12" font-weight="400" fill="#0f172a">B</text>
<text x="400" y="72" text-anchor="middle" font-family="system-ui,-apple-system,Segoe UI,Roboto,sans-serif" font-size="11" font-weight="400" fill="#10b981">SLERP great-circle arc (valid)</text>
<text x="410" y="240" text-anchor="start" font-family="system-ui,-apple-system,Segoe UI,Roboto,sans-serif" font-size="10" font-weight="400" fill="#b91c1c">naive chord: shrinks, invalid</text>
</svg>
