<svg viewBox="0 0 560 380" xmlns="http://www.w3.org/2000/svg" role="img" aria-label="Two time plots contrasting independent joint timing where one joint waits with synchronized timing where all joints finish together">
<title>Two time plots contrasting independent joint timing where one joint waits with synchronized timing where all joints finish together</title>
<rect width="560" height="380" fill="white"/>
<text x="280" y="26" text-anchor="middle" font-family="system-ui,-apple-system,Segoe UI,Roboto,sans-serif" font-size="16" font-weight="650" fill="#0f172a">Synchronizing joints: the slowest joint sets the pace</text>
<!-- top: independent -->
<text x="280" y="52" text-anchor="middle" font-family="system-ui,-apple-system,Segoe UI,Roboto,sans-serif" font-size="12" font-weight="600" fill="#b91c1c">independent timing — joints finish at different times</text>
<rect x="60" y="62" width="440" height="120" fill="#f8fafc" stroke="#e2e8f0"/>
<path d="M 60.0 182.0 L 63.7 182.0 L 67.4 182.0 L 71.1 182.0 L 74.8 182.0 L 78.5 181.9 L 82.2 181.9 L 85.9 181.8 L 89.6 181.7 L 93.3 181.5 L 97.0 181.4 L 100.7 181.2 L 104.4 180.9 L 108.1 180.7 L 111.8 180.4 L 115.5 180.0 L 119.2 179.6 L 122.9 179.2 L 126.6 178.7 L 130.3 178.2 L 133.9 177.6 L 137.6 177.0 L 141.3 176.4 L 145.0 175.7 L 148.7 174.9 L 152.4 174.1 L 156.1 173.2 L 159.8 172.3 L 163.5 171.4 L 167.2 170.4 L 170.9 169.3 L 174.6 168.2 L 178.3 167.1 L 182.0 165.9 L 185.7 164.6 L 189.4 163.4 L 193.1 162.0 L 196.8 160.7 L 200.5 159.3 L 204.2 157.8 L 207.9 156.3 L 211.6 154.8 L 215.3 153.2 L 219.0 151.6 L 222.7 150.0 L 226.4 148.3 L 230.1 146.7 L 233.8 144.9 L 237.5 143.2 L 241.2 141.4 L 244.9 139.7 L 248.6 137.9 L 252.3 136.0 L 256.0 134.2 L 259.7 132.3 L 263.4 130.5 L 267.1 128.6 L 270.8 126.7 L 274.5 124.8 L 278.2 122.9 L 281.8 121.1 L 285.5 119.2 L 289.2 117.3 L 292.9 115.4 L 296.6 113.5 L 300.3 111.7 L 304.0 109.8 L 307.7 108.0 L 311.4 106.1 L 315.1 104.3 L 318.8 102.6 L 322.5 100.8 L 326.2 99.1 L 329.9 97.3 L 333.6 95.7 L 337.3 94.0 L 341.0 92.4 L 344.7 90.8 L 348.4 89.2 L 352.1 87.7 L 355.8 86.2 L 359.5 84.7 L 363.2 83.3 L 366.9 82.0 L 370.6 80.6 L 374.3 79.4 L 378.0 78.1 L 381.7 76.9 L 385.4 75.8 L 389.1 74.7 L 392.8 73.6 L 396.5 72.6 L 400.2 71.7 L 403.9 70.8 L 407.6 69.9 L 411.3 69.1 L 415.0 68.3 L 418.7 67.6 L 422.4 67.0 L 426.1 66.4 L 429.7 65.8 L 433.4 65.3 L 437.1 64.8 L 440.8 64.4 L 444.5 64.0 L 448.2 63.6 L 451.9 63.3 L 455.6 63.1 L 459.3 62.8 L 463.0 62.6 L 466.7 62.5 L 470.4 62.3 L 474.1 62.2 L 477.8 62.1 L 481.5 62.1 L 485.2 62.0 L 488.9 62.0 L 492.6 62.0 L 496.3 62.0 L 500.0 62.0" fill="none" stroke="#0d9488" stroke-width="2.6"/>
<path d="M 60.0 182.0 L 63.7 182.0 L 67.4 181.9 L 71.1 181.7 L 74.8 181.4 L 78.5 180.8 L 82.2 180.0 L 85.9 179.0 L 89.6 177.6 L 93.3 176.0 L 97.0 174.1 L 100.7 171.8 L 104.4 169.3 L 108.1 166.5 L 111.8 163.4 L 115.5 160.0 L 119.2 156.3 L 122.9 152.4 L 126.6 148.3 L 130.3 144.1 L 133.9 139.7 L 137.6 135.1 L 141.3 130.5 L 145.0 125.8 L 148.7 121.1 L 152.4 116.3 L 156.1 111.7 L 159.8 107.1 L 163.5 102.6 L 167.2 98.2 L 170.9 94.0 L 174.6 90.0 L 178.3 86.2 L 182.0 82.7 L 185.7 79.4 L 189.4 76.4 L 193.1 73.6 L 196.8 71.2 L 200.5 69.1 L 204.2 67.3 L 207.9 65.8 L 211.6 64.6 L 215.3 63.6 L 219.0 62.9 L 222.7 62.5 L 226.4 62.2 L 230.1 62.0 L 233.8 62.0 L 237.5 62.0 L 241.2 62.0 L 244.9 62.0 L 248.6 62.0 L 252.3 62.0 L 256.0 62.0 L 259.7 62.0 L 263.4 62.0 L 267.1 62.0 L 270.8 62.0 L 274.5 62.0 L 278.2 62.0 L 281.8 62.0 L 285.5 62.0 L 289.2 62.0 L 292.9 62.0 L 296.6 62.0 L 300.3 62.0 L 304.0 62.0 L 307.7 62.0 L 311.4 62.0 L 315.1 62.0 L 318.8 62.0 L 322.5 62.0 L 326.2 62.0 L 329.9 62.0 L 333.6 62.0 L 337.3 62.0 L 341.0 62.0 L 344.7 62.0 L 348.4 62.0 L 352.1 62.0 L 355.8 62.0 L 359.5 62.0 L 363.2 62.0 L 366.9 62.0 L 370.6 62.0 L 374.3 62.0 L 378.0 62.0 L 381.7 62.0 L 385.4 62.0 L 389.1 62.0 L 392.8 62.0 L 396.5 62.0 L 400.2 62.0 L 403.9 62.0 L 407.6 62.0 L 411.3 62.0 L 415.0 62.0 L 418.7 62.0 L 422.4 62.0 L 426.1 62.0 L 429.7 62.0 L 433.4 62.0 L 437.1 62.0 L 440.8 62.0 L 444.5 62.0 L 448.2 62.0 L 451.9 62.0 L 455.6 62.0 L 459.3 62.0 L 463.0 62.0 L 466.7 62.0 L 470.4 62.0 L 474.1 62.0 L 477.8 62.0 L 481.5 62.0 L 485.2 62.0 L 488.9 62.0 L 492.6 62.0 L 496.3 62.0 L 500.0 62.0" fill="none" stroke="#8b5cf6" stroke-width="2.6"/>
<line x1="236" y1="62" x2="236" y2="182" stroke="#b91c1c" stroke-width="1.2" stroke-dasharray="3 3"/>
<text x="235.99999999999997" y="196" text-anchor="middle" font-family="system-ui,-apple-system,Segoe UI,Roboto,sans-serif" font-size="10" font-weight="400" fill="#b91c1c">joint 2 done, waits</text>
<text x="498" y="196" text-anchor="end" font-family="system-ui,-apple-system,Segoe UI,Roboto,sans-serif" font-size="10" font-weight="400" fill="#64748b">joint 1 done</text>
<!-- bottom: synchronized -->
<text x="280" y="232" text-anchor="middle" font-family="system-ui,-apple-system,Segoe UI,Roboto,sans-serif" font-size="12" font-weight="600" fill="#10b981">synchronized — common T*, all arrive together</text>
<rect x="60" y="242" width="440" height="120" fill="#f8fafc" stroke="#e2e8f0"/>
<path d="M 60.0 362.0 L 63.7 362.0 L 67.4 362.0 L 71.1 362.0 L 74.8 362.0 L 78.5 361.9 L 82.2 361.9 L 85.9 361.8 L 89.6 361.7 L 93.3 361.5 L 97.0 361.4 L 100.7 361.2 L 104.4 360.9 L 108.1 360.7 L 111.8 360.4 L 115.5 360.0 L 119.2 359.6 L 122.9 359.2 L 126.6 358.7 L 130.3 358.2 L 133.9 357.6 L 137.6 357.0 L 141.3 356.4 L 145.0 355.7 L 148.7 354.9 L 152.4 354.1 L 156.1 353.2 L 159.8 352.3 L 163.5 351.4 L 167.2 350.4 L 170.9 349.3 L 174.6 348.2 L 178.3 347.1 L 182.0 345.9 L 185.7 344.6 L 189.4 343.4 L 193.1 342.0 L 196.8 340.7 L 200.5 339.3 L 204.2 337.8 L 207.9 336.3 L 211.6 334.8 L 215.3 333.2 L 219.0 331.6 L 222.7 330.0 L 226.4 328.3 L 230.1 326.7 L 233.8 324.9 L 237.5 323.2 L 241.2 321.4 L 244.9 319.7 L 248.6 317.9 L 252.3 316.0 L 256.0 314.2 L 259.7 312.3 L 263.4 310.5 L 267.1 308.6 L 270.8 306.7 L 274.5 304.8 L 278.2 302.9 L 281.8 301.1 L 285.5 299.2 L 289.2 297.3 L 292.9 295.4 L 296.6 293.5 L 300.3 291.7 L 304.0 289.8 L 307.7 288.0 L 311.4 286.1 L 315.1 284.3 L 318.8 282.6 L 322.5 280.8 L 326.2 279.1 L 329.9 277.3 L 333.6 275.7 L 337.3 274.0 L 341.0 272.4 L 344.7 270.8 L 348.4 269.2 L 352.1 267.7 L 355.8 266.2 L 359.5 264.7 L 363.2 263.3 L 366.9 262.0 L 370.6 260.6 L 374.3 259.4 L 378.0 258.1 L 381.7 256.9 L 385.4 255.8 L 389.1 254.7 L 392.8 253.6 L 396.5 252.6 L 400.2 251.7 L 403.9 250.8 L 407.6 249.9 L 411.3 249.1 L 415.0 248.3 L 418.7 247.6 L 422.4 247.0 L 426.1 246.4 L 429.7 245.8 L 433.4 245.3 L 437.1 244.8 L 440.8 244.4 L 444.5 244.0 L 448.2 243.6 L 451.9 243.3 L 455.6 243.1 L 459.3 242.8 L 463.0 242.6 L 466.7 242.5 L 470.4 242.3 L 474.1 242.2 L 477.8 242.1 L 481.5 242.1 L 485.2 242.0 L 488.9 242.0 L 492.6 242.0 L 496.3 242.0 L 500.0 242.0" fill="none" stroke="#0d9488" stroke-width="2.6"/>
<path d="M 60.0 362.0 L 63.7 362.0 L 67.4 362.0 L 71.1 362.0 L 74.8 362.0 L 78.5 362.0 L 82.2 361.9 L 85.9 361.9 L 89.6 361.8 L 93.3 361.8 L 97.0 361.7 L 100.7 361.6 L 104.4 361.5 L 108.1 361.3 L 111.8 361.2 L 115.5 361.0 L 119.2 360.8 L 122.9 360.6 L 126.6 360.4 L 130.3 360.1 L 133.9 359.8 L 137.6 359.5 L 141.3 359.2 L 145.0 358.8 L 148.7 358.4 L 152.4 358.0 L 156.1 357.6 L 159.8 357.2 L 163.5 356.7 L 167.2 356.2 L 170.9 355.7 L 174.6 355.1 L 178.3 354.5 L 182.0 353.9 L 185.7 353.3 L 189.4 352.7 L 193.1 352.0 L 196.8 351.3 L 200.5 350.6 L 204.2 349.9 L 207.9 349.2 L 211.6 348.4 L 215.3 347.6 L 219.0 346.8 L 222.7 346.0 L 226.4 345.2 L 230.1 344.3 L 233.8 343.5 L 237.5 342.6 L 241.2 341.7 L 244.9 340.8 L 248.6 339.9 L 252.3 339.0 L 256.0 338.1 L 259.7 337.2 L 263.4 336.2 L 267.1 335.3 L 270.8 334.4 L 274.5 333.4 L 278.2 332.5 L 281.8 331.5 L 285.5 330.6 L 289.2 329.6 L 292.9 328.7 L 296.6 327.8 L 300.3 326.8 L 304.0 325.9 L 307.7 325.0 L 311.4 324.1 L 315.1 323.2 L 318.8 322.3 L 322.5 321.4 L 326.2 320.5 L 329.9 319.7 L 333.6 318.8 L 337.3 318.0 L 341.0 317.2 L 344.7 316.4 L 348.4 315.6 L 352.1 314.8 L 355.8 314.1 L 359.5 313.4 L 363.2 312.7 L 366.9 312.0 L 370.6 311.3 L 374.3 310.7 L 378.0 310.1 L 381.7 309.5 L 385.4 308.9 L 389.1 308.3 L 392.8 307.8 L 396.5 307.3 L 400.2 306.8 L 403.9 306.4 L 407.6 306.0 L 411.3 305.6 L 415.0 305.2 L 418.7 304.8 L 422.4 304.5 L 426.1 304.2 L 429.7 303.9 L 433.4 303.6 L 437.1 303.4 L 440.8 303.2 L 444.5 303.0 L 448.2 302.8 L 451.9 302.7 L 455.6 302.5 L 459.3 302.4 L 463.0 302.3 L 466.7 302.2 L 470.4 302.2 L 474.1 302.1 L 477.8 302.1 L 481.5 302.0 L 485.2 302.0 L 488.9 302.0 L 492.6 302.0 L 496.3 302.0 L 500.0 302.0" fill="none" stroke="#8b5cf6" stroke-width="2.6"/>
<line x1="500" y1="242" x2="500" y2="362" stroke="#0f172a" stroke-width="1.2" stroke-dasharray="3 3"/>
<text x="478" y="376" text-anchor="end" font-family="system-ui,-apple-system,Segoe UI,Roboto,sans-serif" font-size="10" font-weight="400" fill="#0f172a">common T* (slowest joint)</text>
<text x="120" y="258" text-anchor="start" font-family="system-ui,-apple-system,Segoe UI,Roboto,sans-serif" font-size="10" font-weight="400" fill="#0d9488">joint 1 (bottleneck, at limit)</text>
<text x="120" y="272" text-anchor="start" font-family="system-ui,-apple-system,Segoe UI,Roboto,sans-serif" font-size="10" font-weight="400" fill="#8b5cf6">joint 2 (stretched, below limit)</text>
</svg>
