<svg viewBox="0 0 470 250" xmlns="http://www.w3.org/2000/svg" role="img" aria-label="A single step response annotated with the four metrics: the ten-to-ninety-percent rise-time bracket, the overshoot peak above the target, the settling band and settling-time mark, and the near-zero steady-state error at the end">
<title>A single step response annotated with the four metrics: the ten-to-ninety-percent rise-time bracket, the overshoot peak above the target, the settling band and settling-time mark, and the near-zero steady-state error at the end</title>
<rect width="470" height="250" fill="white"/>
<text x="235" y="24" text-anchor="middle" font-family="system-ui,-apple-system,Segoe UI,Roboto,sans-serif" font-size="14" font-weight="650" fill="#0f172a">The shape of a response: four numbers</text>
<rect x="70" y="46" width="360" height="150" fill="#f8fafc" stroke="#e2e8f0"/>
<rect x="70" y="78.3076923076923" width="360" height="4.615384615384615" fill="#0ea5e9" opacity="0.15"/>
<line x1="70" y1="80.61538461538461" x2="430" y2="80.61538461538461" stroke="#0f172a" stroke-width="1.2" stroke-dasharray="5 4"/>
<text x="428" y="75.61538461538461" text-anchor="end" font-family="system-ui,-apple-system,Segoe UI,Roboto,sans-serif" font-size="9" font-weight="400" fill="#0f172a">target</text>
<path d="M 70.0 196.0 L 70.2 196.0 L 70.4 195.8 L 70.5 195.6 L 70.7 195.4 L 70.9 195.2 L 71.1 194.9 L 71.3 194.7 L 71.4 194.4 L 71.6 194.2 L 71.8 193.9 L 72.0 193.6 L 72.2 193.3 L 72.3 193.0 L 72.5 192.6 L 72.7 192.3 L 72.9 191.9 L 73.1 191.6 L 73.2 191.2 L 73.4 190.8 L 73.6 190.5 L 73.8 190.1 L 74.0 189.7 L 74.1 189.2 L 74.3 188.8 L 74.5 188.4 L 74.7 188.0 L 74.9 187.5 L 75.0 187.1 L 75.2 186.6 L 75.4 186.1 L 75.6 185.7 L 75.8 185.2 L 75.9 184.7 L 76.1 184.2 L 76.3 183.7 L 76.5 183.2 L 76.7 182.7 L 76.8 182.1 L 77.0 181.6 L 77.2 181.1 L 77.4 180.5 L 77.6 180.0 L 77.7 179.5 L 77.9 178.9 L 78.1 178.4 L 78.3 177.8 L 78.5 177.2 L 78.6 176.7 L 78.8 176.1 L 79.0 175.5 L 79.2 174.9 L 79.4 174.3 L 79.5 173.8 L 79.7 173.2 L 79.9 172.6 L 80.1 172.0 L 80.3 171.4 L 80.4 170.8 L 80.6 170.2 L 80.8 169.5 L 81.0 168.9 L 81.2 168.3 L 81.3 167.7 L 81.5 167.1 L 81.7 166.5 L 81.9 165.8 L 82.1 165.2 L 82.2 164.6 L 82.4 164.0 L 82.6 163.3 L 82.8 162.7 L 83.0 162.1 L 83.1 161.5 L 83.3 160.8 L 83.5 160.2 L 83.7 159.6 L 83.9 158.9 L 84.0 158.3 L 84.2 157.6 L 84.4 157.0 L 84.6 156.4 L 84.8 155.7 L 84.9 155.1 L 85.1 154.5 L 85.3 153.8 L 85.5 153.2 L 85.7 152.6 L 85.8 151.9 L 86.0 151.3 L 86.2 150.6 L 86.4 150.0 L 86.6 149.4 L 86.7 148.7 L 86.9 148.1 L 87.1 147.5 L 87.3 146.8 L 87.5 146.2 L 87.6 145.6 L 87.8 145.0 L 88.0 144.3 L 88.2 143.7 L 88.4 143.1 L 88.5 142.5 L 88.7 141.8 L 88.9 141.2 L 89.1 140.6 L 89.3 140.0 L 89.4 139.4 L 89.6 138.7 L 89.8 138.1 L 90.0 137.5 L 90.2 136.9 L 90.3 136.3 L 90.5 135.7 L 90.7 135.1 L 90.9 134.5 L 91.1 133.9 L 91.2 133.3 L 91.4 132.7 L 91.6 132.1 L 91.8 131.5 L 92.0 130.9 L 92.1 130.4 L 92.3 129.8 L 92.5 129.2 L 92.7 128.6 L 92.9 128.0 L 93.0 127.5 L 93.2 126.9 L 93.4 126.3 L 93.6 125.8 L 93.8 125.2 L 93.9 124.6 L 94.1 124.1 L 94.3 123.5 L 94.5 123.0 L 94.7 122.4 L 94.8 121.9 L 95.0 121.3 L 95.2 120.8 L 95.4 120.3 L 95.6 119.7 L 95.7 119.2 L 95.9 118.7 L 96.1 118.1 L 96.3 117.6 L 96.5 117.1 L 96.6 116.6 L 96.8 116.1 L 97.0 115.5 L 97.2 115.0 L 97.4 114.5 L 97.5 114.0 L 97.7 113.5 L 97.9 113.0 L 98.1 112.5 L 98.3 112.1 L 98.4 111.6 L 98.6 111.1 L 98.8 110.6 L 99.0 110.1 L 99.2 109.7 L 99.3 109.2 L 99.5 108.7 L 99.7 108.2 L 99.9 107.8 L 100.1 107.3 L 100.2 106.9 L 100.4 106.4 L 100.6 106.0 L 100.8 105.5 L 101.0 105.1 L 101.1 104.6 L 101.3 104.2 L 101.5 103.8 L 101.7 103.4 L 101.9 102.9 L 102.0 102.5 L 102.2 102.1 L 102.4 101.7 L 102.6 101.3 L 102.8 100.8 L 102.9 100.4 L 103.1 100.0 L 103.3 99.6 L 103.5 99.2 L 103.7 98.9 L 103.8 98.5 L 104.0 98.1 L 104.2 97.7 L 104.4 97.3 L 104.6 96.9 L 104.7 96.6 L 104.9 96.2 L 105.1 95.8 L 105.3 95.5 L 105.5 95.1 L 105.6 94.7 L 105.8 94.4 L 106.0 94.0 L 106.2 93.7 L 106.4 93.3 L 106.5 93.0 L 106.7 92.7 L 106.9 92.3 L 107.1 92.0 L 107.3 91.7 L 107.4 91.3 L 107.6 91.0 L 107.8 90.7 L 108.0 90.4 L 108.2 90.1 L 108.3 89.7 L 108.5 89.4 L 108.7 89.1 L 108.9 88.8 L 109.1 88.5 L 109.2 88.2 L 109.4 87.9 L 109.6 87.7 L 109.8 87.4 L 110.0 87.1 L 110.1 86.8 L 110.3 86.5 L 110.5 86.2 L 110.7 86.0 L 110.9 85.7 L 111.0 85.4 L 111.2 85.2 L 111.4 84.9 L 111.6 84.7 L 111.8 84.4 L 111.9 84.1 L 112.1 83.9 L 112.3 83.6 L 112.5 83.4 L 112.7 83.2 L 112.8 82.9 L 113.0 82.7 L 113.2 82.5 L 113.4 82.2 L 113.6 82.0 L 113.7 81.8 L 113.9 81.5 L 114.1 81.3 L 114.3 81.1 L 114.5 80.9 L 114.6 80.7 L 114.8 80.5 L 115.0 80.3 L 115.2 80.1 L 115.4 79.9 L 115.5 79.7 L 115.7 79.5 L 115.9 79.3 L 116.1 79.1 L 116.3 78.9 L 116.4 78.7 L 116.6 78.5 L 116.8 78.3 L 117.0 78.1 L 117.2 78.0 L 117.3 77.8 L 117.5 77.6 L 117.7 77.4 L 117.9 77.3 L 118.1 77.1 L 118.2 76.9 L 118.4 76.8 L 118.6 76.6 L 118.8 76.5 L 119.0 76.3 L 119.1 76.2 L 119.3 76.0 L 119.5 75.9 L 119.7 75.7 L 119.9 75.6 L 120.0 75.4 L 120.2 75.3 L 120.4 75.1 L 120.6 75.0 L 120.8 74.9 L 120.9 74.7 L 121.1 74.6 L 121.3 74.5 L 121.5 74.3 L 121.7 74.2 L 121.8 74.1 L 122.0 74.0 L 122.2 73.9 L 122.4 73.7 L 122.6 73.6 L 122.7 73.5 L 122.9 73.4 L 123.1 73.3 L 123.3 73.2 L 123.5 73.1 L 123.6 73.0 L 123.8 72.9 L 124.0 72.8 L 124.2 72.7 L 124.4 72.6 L 124.5 72.5 L 124.7 72.4 L 124.9 72.3 L 125.1 72.2 L 125.3 72.1 L 125.4 72.0 L 125.6 71.9 L 125.8 71.8 L 126.0 71.8 L 126.2 71.7 L 126.3 71.6 L 126.5 71.5 L 126.7 71.4 L 126.9 71.4 L 127.1 71.3 L 127.2 71.2 L 127.4 71.1 L 127.6 71.1 L 127.8 71.0 L 128.0 70.9 L 128.1 70.9 L 128.3 70.8 L 128.5 70.7 L 128.7 70.7 L 128.9 70.6 L 129.0 70.6 L 129.2 70.5 L 129.4 70.5 L 129.6 70.4 L 129.8 70.3 L 129.9 70.3 L 130.1 70.2 L 130.3 70.2 L 130.5 70.1 L 130.7 70.1 L 130.8 70.0 L 131.0 70.0 L 131.2 70.0 L 131.4 69.9 L 131.6 69.9 L 131.7 69.8 L 131.9 69.8 L 132.1 69.7 L 132.3 69.7 L 132.5 69.7 L 132.6 69.6 L 132.8 69.6 L 133.0 69.6 L 133.2 69.5 L 133.4 69.5 L 133.5 69.5 L 133.7 69.4 L 133.9 69.4 L 134.1 69.4 L 134.3 69.4 L 134.4 69.3 L 134.6 69.3 L 134.8 69.3 L 135.0 69.3 L 135.2 69.2 L 135.3 69.2 L 135.5 69.2 L 135.7 69.2 L 135.9 69.2 L 136.1 69.1 L 136.2 69.1 L 136.4 69.1 L 136.6 69.1 L 136.8 69.1 L 137.0 69.1 L 137.1 69.0 L 137.3 69.0 L 137.5 69.0 L 137.7 69.0 L 137.9 69.0 L 138.0 69.0 L 138.2 69.0 L 138.4 69.0 L 138.6 69.0 L 138.8 69.0 L 138.9 68.9 L 139.1 68.9 L 139.3 68.9 L 139.5 68.9 L 139.7 68.9 L 139.8 68.9 L 140.0 68.9 L 140.2 68.9 L 140.4 68.9 L 140.6 68.9 L 140.7 68.9 L 140.9 68.9 L 141.1 68.9 L 141.3 68.9 L 141.5 68.9 L 141.6 68.9 L 141.8 68.9 L 142.0 68.9 L 142.2 68.9 L 142.4 68.9 L 142.5 68.9 L 142.7 68.9 L 142.9 68.9 L 143.1 68.9 L 143.3 69.0 L 143.4 69.0 L 143.6 69.0 L 143.8 69.0 L 144.0 69.0 L 144.2 69.0 L 144.3 69.0 L 144.5 69.0 L 144.7 69.0 L 144.9 69.0 L 145.1 69.0 L 145.2 69.1 L 145.4 69.1 L 145.6 69.1 L 145.8 69.1 L 146.0 69.1 L 146.1 69.1 L 146.3 69.1 L 146.5 69.1 L 146.7 69.1 L 146.9 69.2 L 147.0 69.2 L 147.2 69.2 L 147.4 69.2 L 147.6 69.2 L 147.8 69.2 L 147.9 69.2 L 148.1 69.3 L 148.3 69.3 L 148.5 69.3 L 148.7 69.3 L 148.8 69.3 L 149.0 69.3 L 149.2 69.4 L 149.4 69.4 L 149.6 69.4 L 149.7 69.4 L 149.9 69.4 L 150.1 69.4 L 150.3 69.5 L 150.5 69.5 L 150.6 69.5 L 150.8 69.5 L 151.0 69.5 L 151.2 69.6 L 151.4 69.6 L 151.5 69.6 L 151.7 69.6 L 151.9 69.6 L 152.1 69.7 L 152.3 69.7 L 152.4 69.7 L 152.6 69.7 L 152.8 69.7 L 153.0 69.8 L 153.2 69.8 L 153.3 69.8 L 153.5 69.8 L 153.7 69.8 L 153.9 69.9 L 154.1 69.9 L 154.2 69.9 L 154.4 69.9 L 154.6 69.9 L 154.8 70.0 L 155.0 70.0 L 155.1 70.0 L 155.3 70.0 L 155.5 70.1 L 155.7 70.1 L 155.9 70.1 L 156.0 70.1 L 156.2 70.1 L 156.4 70.2 L 156.6 70.2 L 156.8 70.2 L 156.9 70.2 L 157.1 70.3 L 157.3 70.3 L 157.5 70.3 L 157.7 70.3 L 157.8 70.3 L 158.0 70.4 L 158.2 70.4 L 158.4 70.4 L 158.6 70.4 L 158.7 70.5 L 158.9 70.5 L 159.1 70.5 L 159.3 70.5 L 159.5 70.5 L 159.6 70.6 L 159.8 70.6 L 160.0 70.6 L 160.2 70.6 L 160.4 70.7 L 160.5 70.7 L 160.7 70.7 L 160.9 70.7 L 161.1 70.8 L 161.3 70.8 L 161.4 70.8 L 161.6 70.8 L 161.8 70.8 L 162.0 70.9 L 162.2 70.9 L 162.3 70.9 L 162.5 70.9 L 162.7 71.0 L 162.9 71.0 L 163.1 71.0 L 163.2 71.0 L 163.4 71.0 L 163.6 71.1 L 163.8 71.1 L 164.0 71.1 L 164.1 71.1 L 164.3 71.2 L 164.5 71.2 L 164.7 71.2 L 164.9 71.2 L 165.0 71.2 L 165.2 71.3 L 165.4 71.3 L 165.6 71.3 L 165.8 71.3 L 165.9 71.3 L 166.1 71.4 L 166.3 71.4 L 166.5 71.4 L 166.7 71.4 L 166.8 71.5 L 167.0 71.5 L 167.2 71.5 L 167.4 71.5 L 167.6 71.5 L 167.7 71.6 L 167.9 71.6 L 168.1 71.6 L 168.3 71.6 L 168.5 71.6 L 168.6 71.7 L 168.8 71.7 L 169.0 71.7 L 169.2 71.7 L 169.4 71.7 L 169.5 71.8 L 169.7 71.8 L 169.9 71.8 L 170.1 71.8 L 170.3 71.8 L 170.4 71.9 L 170.6 71.9 L 170.8 71.9 L 171.0 71.9 L 171.2 71.9 L 171.3 72.0 L 171.5 72.0 L 171.7 72.0 L 171.9 72.0 L 172.1 72.0 L 172.2 72.1 L 172.4 72.1 L 172.6 72.1 L 172.8 72.1 L 173.0 72.1 L 173.1 72.2 L 173.3 72.2 L 173.5 72.2 L 173.7 72.2 L 173.9 72.2 L 174.0 72.2 L 174.2 72.3 L 174.4 72.3 L 174.6 72.3 L 174.8 72.3 L 174.9 72.3 L 175.1 72.4 L 175.3 72.4 L 175.5 72.4 L 175.7 72.4 L 175.8 72.4 L 176.0 72.4 L 176.2 72.5 L 176.4 72.5 L 176.6 72.5 L 176.7 72.5 L 176.9 72.5 L 177.1 72.5 L 177.3 72.6 L 177.5 72.6 L 177.6 72.6 L 177.8 72.6 L 178.0 72.6 L 178.2 72.6 L 178.4 72.7 L 178.5 72.7 L 178.7 72.7 L 178.9 72.7 L 179.1 72.7 L 179.3 72.7 L 179.4 72.7 L 179.6 72.8 L 179.8 72.8 L 180.0 72.8 L 180.2 72.8 L 180.3 72.8 L 180.5 72.8 L 180.7 72.9 L 180.9 72.9 L 181.1 72.9 L 181.2 72.9 L 181.4 72.9 L 181.6 72.9 L 181.8 72.9 L 182.0 73.0 L 182.1 73.0 L 182.3 73.0 L 182.5 73.0 L 182.7 73.0 L 182.9 73.0 L 183.0 73.0 L 183.2 73.1 L 183.4 73.1 L 183.6 73.1 L 183.8 73.1 L 183.9 73.1 L 184.1 73.1 L 184.3 73.1 L 184.5 73.1 L 184.7 73.2 L 184.8 73.2 L 185.0 73.2 L 185.2 73.2 L 185.4 73.2 L 185.6 73.2 L 185.7 73.2 L 185.9 73.2 L 186.1 73.3 L 186.3 73.3 L 186.5 73.3 L 186.6 73.3 L 186.8 73.3 L 187.0 73.3 L 187.2 73.3 L 187.4 73.3 L 187.5 73.4 L 187.7 73.4 L 187.9 73.4 L 188.1 73.4 L 188.3 73.4 L 188.4 73.4 L 188.6 73.4 L 188.8 73.4 L 189.0 73.4 L 189.2 73.5 L 189.3 73.5 L 189.5 73.5 L 189.7 73.5 L 189.9 73.5 L 190.1 73.5 L 190.2 73.5 L 190.4 73.5 L 190.6 73.5 L 190.8 73.6 L 191.0 73.6 L 191.1 73.6 L 191.3 73.6 L 191.5 73.6 L 191.7 73.6 L 191.9 73.6 L 192.0 73.6 L 192.2 73.6 L 192.4 73.6 L 192.6 73.7 L 192.8 73.7 L 192.9 73.7 L 193.1 73.7 L 193.3 73.7 L 193.5 73.7 L 193.7 73.7 L 193.8 73.7 L 194.0 73.7 L 194.2 73.7 L 194.4 73.7 L 194.6 73.8 L 194.7 73.8 L 194.9 73.8 L 195.1 73.8 L 195.3 73.8 L 195.5 73.8 L 195.6 73.8 L 195.8 73.8 L 196.0 73.8 L 196.2 73.8 L 196.4 73.8 L 196.5 73.9 L 196.7 73.9 L 196.9 73.9 L 197.1 73.9 L 197.3 73.9 L 197.4 73.9 L 197.6 73.9 L 197.8 73.9 L 198.0 73.9 L 198.2 73.9 L 198.3 73.9 L 198.5 73.9 L 198.7 73.9 L 198.9 74.0 L 199.1 74.0 L 199.2 74.0 L 199.4 74.0 L 199.6 74.0 L 199.8 74.0 L 200.0 74.0 L 200.1 74.0 L 200.3 74.0 L 200.5 74.0 L 200.7 74.0 L 200.9 74.0 L 201.0 74.0 L 201.2 74.1 L 201.4 74.1 L 201.6 74.1 L 201.8 74.1 L 201.9 74.1 L 202.1 74.1 L 202.3 74.1 L 202.5 74.1 L 202.7 74.1 L 202.8 74.1 L 203.0 74.1 L 203.2 74.1 L 203.4 74.1 L 203.6 74.1 L 203.7 74.1 L 203.9 74.2 L 204.1 74.2 L 204.3 74.2 L 204.5 74.2 L 204.6 74.2 L 204.8 74.2 L 205.0 74.2 L 205.2 74.2 L 205.4 74.2 L 205.5 74.2 L 205.7 74.2 L 205.9 74.2 L 206.1 74.2 L 206.3 74.2 L 206.4 74.2 L 206.6 74.2 L 206.8 74.3 L 207.0 74.3 L 207.2 74.3 L 207.3 74.3 L 207.5 74.3 L 207.7 74.3 L 207.9 74.3 L 208.1 74.3 L 208.2 74.3 L 208.4 74.3 L 208.6 74.3 L 208.8 74.3 L 209.0 74.3 L 209.1 74.3 L 209.3 74.3 L 209.5 74.3 L 209.7 74.3 L 209.9 74.4 L 210.0 74.4 L 210.2 74.4 L 210.4 74.4 L 210.6 74.4 L 210.8 74.4 L 210.9 74.4 L 211.1 74.4 L 211.3 74.4 L 211.5 74.4 L 211.7 74.4 L 211.8 74.4 L 212.0 74.4 L 212.2 74.4 L 212.4 74.4 L 212.6 74.4 L 212.7 74.4 L 212.9 74.4 L 213.1 74.4 L 213.3 74.4 L 213.5 74.5 L 213.6 74.5 L 213.8 74.5 L 214.0 74.5 L 214.2 74.5 L 214.4 74.5 L 214.5 74.5 L 214.7 74.5 L 214.9 74.5 L 215.1 74.5 L 215.3 74.5 L 215.4 74.5 L 215.6 74.5 L 215.8 74.5 L 216.0 74.5 L 216.2 74.5 L 216.3 74.5 L 216.5 74.5 L 216.7 74.5 L 216.9 74.5 L 217.1 74.5 L 217.2 74.6 L 217.4 74.6 L 217.6 74.6 L 217.8 74.6 L 218.0 74.6 L 218.1 74.6 L 218.3 74.6 L 218.5 74.6 L 218.7 74.6 L 218.9 74.6 L 219.0 74.6 L 219.2 74.6 L 219.4 74.6 L 219.6 74.6 L 219.8 74.6 L 219.9 74.6 L 220.1 74.6 L 220.3 74.6 L 220.5 74.6 L 220.7 74.6 L 220.8 74.6 L 221.0 74.6 L 221.2 74.7 L 221.4 74.7 L 221.6 74.7 L 221.7 74.7 L 221.9 74.7 L 222.1 74.7 L 222.3 74.7 L 222.5 74.7 L 222.6 74.7 L 222.8 74.7 L 223.0 74.7 L 223.2 74.7 L 223.4 74.7 L 223.5 74.7 L 223.7 74.7 L 223.9 74.7 L 224.1 74.7 L 224.3 74.7 L 224.4 74.7 L 224.6 74.7 L 224.8 74.7 L 225.0 74.7 L 225.2 74.7 L 225.3 74.7 L 225.5 74.8 L 225.7 74.8 L 225.9 74.8 L 226.1 74.8 L 226.2 74.8 L 226.4 74.8 L 226.6 74.8 L 226.8 74.8 L 227.0 74.8 L 227.1 74.8 L 227.3 74.8 L 227.5 74.8 L 227.7 74.8 L 227.9 74.8 L 228.0 74.8 L 228.2 74.8 L 228.4 74.8 L 228.6 74.8 L 228.8 74.8 L 228.9 74.8 L 229.1 74.8 L 229.3 74.8 L 229.5 74.8 L 229.7 74.8 L 229.8 74.8 L 230.0 74.8 L 230.2 74.9 L 230.4 74.9 L 230.6 74.9 L 230.7 74.9 L 230.9 74.9 L 231.1 74.9 L 231.3 74.9 L 231.5 74.9 L 231.6 74.9 L 231.8 74.9 L 232.0 74.9 L 232.2 74.9 L 232.4 74.9 L 232.5 74.9 L 232.7 74.9 L 232.9 74.9 L 233.1 74.9 L 233.3 74.9 L 233.4 74.9 L 233.6 74.9 L 233.8 74.9 L 234.0 74.9 L 234.2 74.9 L 234.3 74.9 L 234.5 74.9 L 234.7 74.9 L 234.9 75.0 L 235.1 75.0 L 235.2 75.0 L 235.4 75.0 L 235.6 75.0 L 235.8 75.0 L 236.0 75.0 L 236.1 75.0 L 236.3 75.0 L 236.5 75.0 L 236.7 75.0 L 236.9 75.0 L 237.0 75.0 L 237.2 75.0 L 237.4 75.0 L 237.6 75.0 L 237.8 75.0 L 237.9 75.0 L 238.1 75.0 L 238.3 75.0 L 238.5 75.0 L 238.7 75.0 L 238.8 75.0 L 239.0 75.0 L 239.2 75.0 L 239.4 75.0 L 239.6 75.0 L 239.7 75.1 L 239.9 75.1 L 240.1 75.1 L 240.3 75.1 L 240.5 75.1 L 240.6 75.1 L 240.8 75.1 L 241.0 75.1 L 241.2 75.1 L 241.4 75.1 L 241.5 75.1 L 241.7 75.1 L 241.9 75.1 L 242.1 75.1 L 242.3 75.1 L 242.4 75.1 L 242.6 75.1 L 242.8 75.1 L 243.0 75.1 L 243.2 75.1 L 243.3 75.1 L 243.5 75.1 L 243.7 75.1 L 243.9 75.1 L 244.1 75.1 L 244.2 75.1 L 244.4 75.1 L 244.6 75.1 L 244.8 75.2 L 245.0 75.2 L 245.1 75.2 L 245.3 75.2 L 245.5 75.2 L 245.7 75.2 L 245.9 75.2 L 246.0 75.2 L 246.2 75.2 L 246.4 75.2 L 246.6 75.2 L 246.8 75.2 L 246.9 75.2 L 247.1 75.2 L 247.3 75.2 L 247.5 75.2 L 247.7 75.2 L 247.8 75.2 L 248.0 75.2 L 248.2 75.2 L 248.4 75.2 L 248.6 75.2 L 248.7 75.2 L 248.9 75.2 L 249.1 75.2 L 249.3 75.2 L 249.5 75.2 L 249.6 75.3 L 249.8 75.3 L 250.0 75.3 L 250.2 75.3 L 250.4 75.3 L 250.5 75.3 L 250.7 75.3 L 250.9 75.3 L 251.1 75.3 L 251.3 75.3 L 251.4 75.3 L 251.6 75.3 L 251.8 75.3 L 252.0 75.3 L 252.2 75.3 L 252.3 75.3 L 252.5 75.3 L 252.7 75.3 L 252.9 75.3 L 253.1 75.3 L 253.2 75.3 L 253.4 75.3 L 253.6 75.3 L 253.8 75.3 L 254.0 75.3 L 254.1 75.3 L 254.3 75.3 L 254.5 75.3 L 254.7 75.4 L 254.9 75.4 L 255.0 75.4 L 255.2 75.4 L 255.4 75.4 L 255.6 75.4 L 255.8 75.4 L 255.9 75.4 L 256.1 75.4 L 256.3 75.4 L 256.5 75.4 L 256.7 75.4 L 256.8 75.4 L 257.0 75.4 L 257.2 75.4 L 257.4 75.4 L 257.6 75.4 L 257.7 75.4 L 257.9 75.4 L 258.1 75.4 L 258.3 75.4 L 258.5 75.4 L 258.6 75.4 L 258.8 75.4 L 259.0 75.4 L 259.2 75.4 L 259.4 75.4 L 259.5 75.4 L 259.7 75.5 L 259.9 75.5 L 260.1 75.5 L 260.3 75.5 L 260.4 75.5 L 260.6 75.5 L 260.8 75.5 L 261.0 75.5 L 261.2 75.5 L 261.3 75.5 L 261.5 75.5 L 261.7 75.5 L 261.9 75.5 L 262.1 75.5 L 262.2 75.5 L 262.4 75.5 L 262.6 75.5 L 262.8 75.5 L 263.0 75.5 L 263.1 75.5 L 263.3 75.5 L 263.5 75.5 L 263.7 75.5 L 263.9 75.5 L 264.0 75.5 L 264.2 75.5 L 264.4 75.5 L 264.6 75.5 L 264.8 75.6 L 264.9 75.6 L 265.1 75.6 L 265.3 75.6 L 265.5 75.6 L 265.7 75.6 L 265.8 75.6 L 266.0 75.6 L 266.2 75.6 L 266.4 75.6 L 266.6 75.6 L 266.7 75.6 L 266.9 75.6 L 267.1 75.6 L 267.3 75.6 L 267.5 75.6 L 267.6 75.6 L 267.8 75.6 L 268.0 75.6 L 268.2 75.6 L 268.4 75.6 L 268.5 75.6 L 268.7 75.6 L 268.9 75.6 L 269.1 75.6 L 269.3 75.6 L 269.4 75.6 L 269.6 75.6 L 269.8 75.7 L 270.0 75.7 L 270.2 75.7 L 270.3 75.7 L 270.5 75.7 L 270.7 75.7 L 270.9 75.7 L 271.1 75.7 L 271.2 75.7 L 271.4 75.7 L 271.6 75.7 L 271.8 75.7 L 272.0 75.7 L 272.1 75.7 L 272.3 75.7 L 272.5 75.7 L 272.7 75.7 L 272.9 75.7 L 273.0 75.7 L 273.2 75.7 L 273.4 75.7 L 273.6 75.7 L 273.8 75.7 L 273.9 75.7 L 274.1 75.7 L 274.3 75.7 L 274.5 75.7 L 274.7 75.7 L 274.8 75.7 L 275.0 75.8 L 275.2 75.8 L 275.4 75.8 L 275.6 75.8 L 275.7 75.8 L 275.9 75.8 L 276.1 75.8 L 276.3 75.8 L 276.5 75.8 L 276.6 75.8 L 276.8 75.8 L 277.0 75.8 L 277.2 75.8 L 277.4 75.8 L 277.5 75.8 L 277.7 75.8 L 277.9 75.8 L 278.1 75.8 L 278.3 75.8 L 278.4 75.8 L 278.6 75.8 L 278.8 75.8 L 279.0 75.8 L 279.2 75.8 L 279.3 75.8 L 279.5 75.8 L 279.7 75.8 L 279.9 75.8 L 280.1 75.8 L 280.2 75.9 L 280.4 75.9 L 280.6 75.9 L 280.8 75.9 L 281.0 75.9 L 281.1 75.9 L 281.3 75.9 L 281.5 75.9 L 281.7 75.9 L 281.9 75.9 L 282.0 75.9 L 282.2 75.9 L 282.4 75.9 L 282.6 75.9 L 282.8 75.9 L 282.9 75.9 L 283.1 75.9 L 283.3 75.9 L 283.5 75.9 L 283.7 75.9 L 283.8 75.9 L 284.0 75.9 L 284.2 75.9 L 284.4 75.9 L 284.6 75.9 L 284.7 75.9 L 284.9 75.9 L 285.1 75.9 L 285.3 75.9 L 285.5 76.0 L 285.6 76.0 L 285.8 76.0 L 286.0 76.0 L 286.2 76.0 L 286.4 76.0 L 286.5 76.0 L 286.7 76.0 L 286.9 76.0 L 287.1 76.0 L 287.3 76.0 L 287.4 76.0 L 287.6 76.0 L 287.8 76.0 L 288.0 76.0 L 288.2 76.0 L 288.3 76.0 L 288.5 76.0 L 288.7 76.0 L 288.9 76.0 L 289.1 76.0 L 289.2 76.0 L 289.4 76.0 L 289.6 76.0 L 289.8 76.0 L 290.0 76.0 L 290.1 76.0 L 290.3 76.0 L 290.5 76.0 L 290.7 76.0 L 290.9 76.1 L 291.0 76.1 L 291.2 76.1 L 291.4 76.1 L 291.6 76.1 L 291.8 76.1 L 291.9 76.1 L 292.1 76.1 L 292.3 76.1 L 292.5 76.1 L 292.7 76.1 L 292.8 76.1 L 293.0 76.1 L 293.2 76.1 L 293.4 76.1 L 293.6 76.1 L 293.7 76.1 L 293.9 76.1 L 294.1 76.1 L 294.3 76.1 L 294.5 76.1 L 294.6 76.1 L 294.8 76.1 L 295.0 76.1 L 295.2 76.1 L 295.4 76.1 L 295.5 76.1 L 295.7 76.1 L 295.9 76.1 L 296.1 76.1 L 296.3 76.2 L 296.4 76.2 L 296.6 76.2 L 296.8 76.2 L 297.0 76.2 L 297.2 76.2 L 297.3 76.2 L 297.5 76.2 L 297.7 76.2 L 297.9 76.2 L 298.1 76.2 L 298.2 76.2 L 298.4 76.2 L 298.6 76.2 L 298.8 76.2 L 299.0 76.2 L 299.1 76.2 L 299.3 76.2 L 299.5 76.2 L 299.7 76.2 L 299.9 76.2 L 300.0 76.2 L 300.2 76.2 L 300.4 76.2 L 300.6 76.2 L 300.8 76.2 L 300.9 76.2 L 301.1 76.2 L 301.3 76.2 L 301.5 76.2 L 301.7 76.2 L 301.8 76.3 L 302.0 76.3 L 302.2 76.3 L 302.4 76.3 L 302.6 76.3 L 302.7 76.3 L 302.9 76.3 L 303.1 76.3 L 303.3 76.3 L 303.5 76.3 L 303.6 76.3 L 303.8 76.3 L 304.0 76.3 L 304.2 76.3 L 304.4 76.3 L 304.5 76.3 L 304.7 76.3 L 304.9 76.3 L 305.1 76.3 L 305.3 76.3 L 305.4 76.3 L 305.6 76.3 L 305.8 76.3 L 306.0 76.3 L 306.2 76.3 L 306.3 76.3 L 306.5 76.3 L 306.7 76.3 L 306.9 76.3 L 307.1 76.3 L 307.2 76.3 L 307.4 76.3 L 307.6 76.4 L 307.8 76.4 L 308.0 76.4 L 308.1 76.4 L 308.3 76.4 L 308.5 76.4 L 308.7 76.4 L 308.9 76.4 L 309.0 76.4 L 309.2 76.4 L 309.4 76.4 L 309.6 76.4 L 309.8 76.4 L 309.9 76.4 L 310.1 76.4 L 310.3 76.4 L 310.5 76.4 L 310.7 76.4 L 310.8 76.4 L 311.0 76.4 L 311.2 76.4 L 311.4 76.4 L 311.6 76.4 L 311.7 76.4 L 311.9 76.4 L 312.1 76.4 L 312.3 76.4 L 312.5 76.4 L 312.6 76.4 L 312.8 76.4 L 313.0 76.4 L 313.2 76.4 L 313.4 76.5 L 313.5 76.5 L 313.7 76.5 L 313.9 76.5 L 314.1 76.5 L 314.3 76.5 L 314.4 76.5 L 314.6 76.5 L 314.8 76.5 L 315.0 76.5 L 315.2 76.5 L 315.3 76.5 L 315.5 76.5 L 315.7 76.5 L 315.9 76.5 L 316.1 76.5 L 316.2 76.5 L 316.4 76.5 L 316.6 76.5 L 316.8 76.5 L 317.0 76.5 L 317.1 76.5 L 317.3 76.5 L 317.5 76.5 L 317.7 76.5 L 317.9 76.5 L 318.0 76.5 L 318.2 76.5 L 318.4 76.5 L 318.6 76.5 L 318.8 76.5 L 318.9 76.5 L 319.1 76.5 L 319.3 76.6 L 319.5 76.6 L 319.7 76.6 L 319.8 76.6 L 320.0 76.6 L 320.2 76.6 L 320.4 76.6 L 320.6 76.6 L 320.7 76.6 L 320.9 76.6 L 321.1 76.6 L 321.3 76.6 L 321.5 76.6 L 321.6 76.6 L 321.8 76.6 L 322.0 76.6 L 322.2 76.6 L 322.4 76.6 L 322.5 76.6 L 322.7 76.6 L 322.9 76.6 L 323.1 76.6 L 323.3 76.6 L 323.4 76.6 L 323.6 76.6 L 323.8 76.6 L 324.0 76.6 L 324.2 76.6 L 324.3 76.6 L 324.5 76.6 L 324.7 76.6 L 324.9 76.6 L 325.1 76.6 L 325.2 76.6 L 325.4 76.7 L 325.6 76.7 L 325.8 76.7 L 326.0 76.7 L 326.1 76.7 L 326.3 76.7 L 326.5 76.7 L 326.7 76.7 L 326.9 76.7 L 327.0 76.7 L 327.2 76.7 L 327.4 76.7 L 327.6 76.7 L 327.8 76.7 L 327.9 76.7 L 328.1 76.7 L 328.3 76.7 L 328.5 76.7 L 328.7 76.7 L 328.8 76.7 L 329.0 76.7 L 329.2 76.7 L 329.4 76.7 L 329.6 76.7 L 329.7 76.7 L 329.9 76.7 L 330.1 76.7 L 330.3 76.7 L 330.5 76.7 L 330.6 76.7 L 330.8 76.7 L 331.0 76.7 L 331.2 76.7 L 331.4 76.7 L 331.5 76.7 L 331.7 76.8 L 331.9 76.8 L 332.1 76.8 L 332.3 76.8 L 332.4 76.8 L 332.6 76.8 L 332.8 76.8 L 333.0 76.8 L 333.2 76.8 L 333.3 76.8 L 333.5 76.8 L 333.7 76.8 L 333.9 76.8 L 334.1 76.8 L 334.2 76.8 L 334.4 76.8 L 334.6 76.8 L 334.8 76.8 L 335.0 76.8 L 335.1 76.8 L 335.3 76.8 L 335.5 76.8 L 335.7 76.8 L 335.9 76.8 L 336.0 76.8 L 336.2 76.8 L 336.4 76.8 L 336.6 76.8 L 336.8 76.8 L 336.9 76.8 L 337.1 76.8 L 337.3 76.8 L 337.5 76.8 L 337.7 76.8 L 337.8 76.8 L 338.0 76.8 L 338.2 76.9 L 338.4 76.9 L 338.6 76.9 L 338.7 76.9 L 338.9 76.9 L 339.1 76.9 L 339.3 76.9 L 339.5 76.9 L 339.6 76.9 L 339.8 76.9 L 340.0 76.9 L 340.2 76.9 L 340.4 76.9 L 340.5 76.9 L 340.7 76.9 L 340.9 76.9 L 341.1 76.9 L 341.3 76.9 L 341.4 76.9 L 341.6 76.9 L 341.8 76.9 L 342.0 76.9 L 342.2 76.9 L 342.3 76.9 L 342.5 76.9 L 342.7 76.9 L 342.9 76.9 L 343.1 76.9 L 343.2 76.9 L 343.4 76.9 L 343.6 76.9 L 343.8 76.9 L 344.0 76.9 L 344.1 76.9 L 344.3 76.9 L 344.5 76.9 L 344.7 76.9 L 344.9 77.0 L 345.0 77.0 L 345.2 77.0 L 345.4 77.0 L 345.6 77.0 L 345.8 77.0 L 345.9 77.0 L 346.1 77.0 L 346.3 77.0 L 346.5 77.0 L 346.7 77.0 L 346.8 77.0 L 347.0 77.0 L 347.2 77.0 L 347.4 77.0 L 347.6 77.0 L 347.7 77.0 L 347.9 77.0 L 348.1 77.0 L 348.3 77.0 L 348.5 77.0 L 348.6 77.0 L 348.8 77.0 L 349.0 77.0 L 349.2 77.0 L 349.4 77.0 L 349.5 77.0 L 349.7 77.0 L 349.9 77.0 L 350.1 77.0 L 350.3 77.0 L 350.4 77.0 L 350.6 77.0 L 350.8 77.0 L 351.0 77.0 L 351.2 77.0 L 351.3 77.0 L 351.5 77.0 L 351.7 77.1 L 351.9 77.1 L 352.1 77.1 L 352.2 77.1 L 352.4 77.1 L 352.6 77.1 L 352.8 77.1 L 353.0 77.1 L 353.1 77.1 L 353.3 77.1 L 353.5 77.1 L 353.7 77.1 L 353.9 77.1 L 354.0 77.1 L 354.2 77.1 L 354.4 77.1 L 354.6 77.1 L 354.8 77.1 L 354.9 77.1 L 355.1 77.1 L 355.3 77.1 L 355.5 77.1 L 355.7 77.1 L 355.8 77.1 L 356.0 77.1 L 356.2 77.1 L 356.4 77.1 L 356.6 77.1 L 356.7 77.1 L 356.9 77.1 L 357.1 77.1 L 357.3 77.1 L 357.5 77.1 L 357.6 77.1 L 357.8 77.1 L 358.0 77.1 L 358.2 77.1 L 358.4 77.1 L 358.5 77.1 L 358.7 77.2 L 358.9 77.2 L 359.1 77.2 L 359.3 77.2 L 359.4 77.2 L 359.6 77.2 L 359.8 77.2 L 360.0 77.2 L 360.2 77.2 L 360.3 77.2 L 360.5 77.2 L 360.7 77.2 L 360.9 77.2 L 361.1 77.2 L 361.2 77.2 L 361.4 77.2 L 361.6 77.2 L 361.8 77.2 L 362.0 77.2 L 362.1 77.2 L 362.3 77.2 L 362.5 77.2 L 362.7 77.2 L 362.9 77.2 L 363.0 77.2 L 363.2 77.2 L 363.4 77.2 L 363.6 77.2 L 363.8 77.2 L 363.9 77.2 L 364.1 77.2 L 364.3 77.2 L 364.5 77.2 L 364.7 77.2 L 364.8 77.2 L 365.0 77.2 L 365.2 77.2 L 365.4 77.2 L 365.6 77.2 L 365.7 77.2 L 365.9 77.3 L 366.1 77.3 L 366.3 77.3 L 366.5 77.3 L 366.6 77.3 L 366.8 77.3 L 367.0 77.3 L 367.2 77.3 L 367.4 77.3 L 367.5 77.3 L 367.7 77.3 L 367.9 77.3 L 368.1 77.3 L 368.3 77.3 L 368.4 77.3 L 368.6 77.3 L 368.8 77.3 L 369.0 77.3 L 369.2 77.3 L 369.3 77.3 L 369.5 77.3 L 369.7 77.3 L 369.9 77.3 L 370.1 77.3 L 370.2 77.3 L 370.4 77.3 L 370.6 77.3 L 370.8 77.3 L 371.0 77.3 L 371.1 77.3 L 371.3 77.3 L 371.5 77.3 L 371.7 77.3 L 371.9 77.3 L 372.0 77.3 L 372.2 77.3 L 372.4 77.3 L 372.6 77.3 L 372.8 77.3 L 372.9 77.3 L 373.1 77.3 L 373.3 77.4 L 373.5 77.4 L 373.7 77.4 L 373.8 77.4 L 374.0 77.4 L 374.2 77.4 L 374.4 77.4 L 374.6 77.4 L 374.7 77.4 L 374.9 77.4 L 375.1 77.4 L 375.3 77.4 L 375.5 77.4 L 375.6 77.4 L 375.8 77.4 L 376.0 77.4 L 376.2 77.4 L 376.4 77.4 L 376.5 77.4 L 376.7 77.4 L 376.9 77.4 L 377.1 77.4 L 377.3 77.4 L 377.4 77.4 L 377.6 77.4 L 377.8 77.4 L 378.0 77.4 L 378.2 77.4 L 378.3 77.4 L 378.5 77.4 L 378.7 77.4 L 378.9 77.4 L 379.1 77.4 L 379.2 77.4 L 379.4 77.4 L 379.6 77.4 L 379.8 77.4 L 380.0 77.4 L 380.1 77.4 L 380.3 77.4 L 380.5 77.4 L 380.7 77.4 L 380.9 77.4 L 381.0 77.5 L 381.2 77.5 L 381.4 77.5 L 381.6 77.5 L 381.8 77.5 L 381.9 77.5 L 382.1 77.5 L 382.3 77.5 L 382.5 77.5 L 382.7 77.5 L 382.8 77.5 L 383.0 77.5 L 383.2 77.5 L 383.4 77.5 L 383.6 77.5 L 383.7 77.5 L 383.9 77.5 L 384.1 77.5 L 384.3 77.5 L 384.5 77.5 L 384.6 77.5 L 384.8 77.5 L 385.0 77.5 L 385.2 77.5 L 385.4 77.5 L 385.5 77.5 L 385.7 77.5 L 385.9 77.5 L 386.1 77.5 L 386.3 77.5 L 386.4 77.5 L 386.6 77.5 L 386.8 77.5 L 387.0 77.5 L 387.2 77.5 L 387.3 77.5 L 387.5 77.5 L 387.7 77.5 L 387.9 77.5 L 388.1 77.5 L 388.2 77.5 L 388.4 77.5 L 388.6 77.5 L 388.8 77.5 L 389.0 77.6 L 389.1 77.6 L 389.3 77.6 L 389.5 77.6 L 389.7 77.6 L 389.9 77.6 L 390.0 77.6 L 390.2 77.6 L 390.4 77.6 L 390.6 77.6 L 390.8 77.6 L 390.9 77.6 L 391.1 77.6 L 391.3 77.6 L 391.5 77.6 L 391.7 77.6 L 391.8 77.6 L 392.0 77.6 L 392.2 77.6 L 392.4 77.6 L 392.6 77.6 L 392.7 77.6 L 392.9 77.6 L 393.1 77.6 L 393.3 77.6 L 393.5 77.6 L 393.6 77.6 L 393.8 77.6 L 394.0 77.6 L 394.2 77.6 L 394.4 77.6 L 394.5 77.6 L 394.7 77.6 L 394.9 77.6 L 395.1 77.6 L 395.3 77.6 L 395.4 77.6 L 395.6 77.6 L 395.8 77.6 L 396.0 77.6 L 396.2 77.6 L 396.3 77.6 L 396.5 77.6 L 396.7 77.6 L 396.9 77.6 L 397.1 77.7 L 397.2 77.7 L 397.4 77.7 L 397.6 77.7 L 397.8 77.7 L 398.0 77.7 L 398.1 77.7 L 398.3 77.7 L 398.5 77.7 L 398.7 77.7 L 398.9 77.7 L 399.0 77.7 L 399.2 77.7 L 399.4 77.7 L 399.6 77.7 L 399.8 77.7 L 399.9 77.7 L 400.1 77.7 L 400.3 77.7 L 400.5 77.7 L 400.7 77.7 L 400.8 77.7 L 401.0 77.7 L 401.2 77.7 L 401.4 77.7 L 401.6 77.7 L 401.7 77.7 L 401.9 77.7 L 402.1 77.7 L 402.3 77.7 L 402.5 77.7 L 402.6 77.7 L 402.8 77.7 L 403.0 77.7 L 403.2 77.7 L 403.4 77.7 L 403.5 77.7 L 403.7 77.7 L 403.9 77.7 L 404.1 77.7 L 404.3 77.7 L 404.4 77.7 L 404.6 77.7 L 404.8 77.7 L 405.0 77.7 L 405.2 77.7 L 405.3 77.7 L 405.5 77.8 L 405.7 77.8 L 405.9 77.8 L 406.1 77.8 L 406.2 77.8 L 406.4 77.8 L 406.6 77.8 L 406.8 77.8 L 407.0 77.8 L 407.1 77.8 L 407.3 77.8 L 407.5 77.8 L 407.7 77.8 L 407.9 77.8 L 408.0 77.8 L 408.2 77.8 L 408.4 77.8 L 408.6 77.8 L 408.8 77.8 L 408.9 77.8 L 409.1 77.8 L 409.3 77.8 L 409.5 77.8 L 409.7 77.8 L 409.8 77.8 L 410.0 77.8 L 410.2 77.8 L 410.4 77.8 L 410.6 77.8 L 410.7 77.8 L 410.9 77.8 L 411.1 77.8 L 411.3 77.8 L 411.5 77.8 L 411.6 77.8 L 411.8 77.8 L 412.0 77.8 L 412.2 77.8 L 412.4 77.8 L 412.5 77.8 L 412.7 77.8 L 412.9 77.8 L 413.1 77.8 L 413.3 77.8 L 413.4 77.8 L 413.6 77.8 L 413.8 77.8 L 414.0 77.8 L 414.2 77.8 L 414.3 77.9 L 414.5 77.9 L 414.7 77.9 L 414.9 77.9 L 415.1 77.9 L 415.2 77.9 L 415.4 77.9 L 415.6 77.9 L 415.8 77.9 L 416.0 77.9 L 416.1 77.9 L 416.3 77.9 L 416.5 77.9 L 416.7 77.9 L 416.9 77.9 L 417.0 77.9 L 417.2 77.9 L 417.4 77.9 L 417.6 77.9 L 417.8 77.9 L 417.9 77.9 L 418.1 77.9 L 418.3 77.9 L 418.5 77.9 L 418.7 77.9 L 418.8 77.9 L 419.0 77.9 L 419.2 77.9 L 419.4 77.9 L 419.6 77.9 L 419.7 77.9 L 419.9 77.9 L 420.1 77.9 L 420.3 77.9 L 420.5 77.9 L 420.6 77.9 L 420.8 77.9 L 421.0 77.9 L 421.2 77.9 L 421.4 77.9 L 421.5 77.9 L 421.7 77.9 L 421.9 77.9 L 422.1 77.9 L 422.3 77.9 L 422.4 77.9 L 422.6 77.9 L 422.8 77.9 L 423.0 77.9 L 423.2 77.9 L 423.3 78.0 L 423.5 78.0 L 423.7 78.0 L 423.9 78.0 L 424.1 78.0 L 424.2 78.0 L 424.4 78.0 L 424.6 78.0 L 424.8 78.0 L 425.0 78.0 L 425.1 78.0 L 425.3 78.0 L 425.5 78.0 L 425.7 78.0 L 425.9 78.0 L 426.0 78.0 L 426.2 78.0 L 426.4 78.0 L 426.6 78.0 L 426.8 78.0 L 426.9 78.0 L 427.1 78.0 L 427.3 78.0 L 427.5 78.0 L 427.7 78.0 L 427.8 78.0 L 428.0 78.0 L 428.2 78.0 L 428.4 78.0 L 428.6 78.0 L 428.7 78.0 L 428.9 78.0 L 429.1 78.0 L 429.3 78.0 L 429.5 78.0 L 429.6 78.0 L 429.8 78.0 L 430.0 78.0" fill="none" stroke="#0d9488" stroke-width="2.6"/>
<line x1="76.12" y1="202" x2="107.08000000000001" y2="202" stroke="#334155" stroke-width="1.5"/>
<text x="91.60000000000001" y="214" text-anchor="middle" font-family="system-ui,-apple-system,Segoe UI,Roboto,sans-serif" font-size="9" font-weight="400" fill="#334155">rise time (10-90%)</text>
<line x1="140.92000000000002" y1="68.91103432609096" x2="140.92000000000002" y2="80.61538461538461" stroke="#d97706" stroke-width="1.4"/>
<text x="144.92000000000002" y="80.91103432609096" text-anchor="start" font-family="system-ui,-apple-system,Segoe UI,Roboto,sans-serif" font-size="9" font-weight="400" fill="#d97706">overshoot %</text>
<line x1="430.0" y1="46" x2="430.0" y2="196" stroke="#0ea5e9" stroke-width="1.2" stroke-dasharray="3 3"/>
<text x="433.0" y="58" text-anchor="start" font-family="system-ui,-apple-system,Segoe UI,Roboto,sans-serif" font-size="9" font-weight="400" fill="#0ea5e9">settling time</text>
<text x="428" y="190" text-anchor="end" font-family="system-ui,-apple-system,Segoe UI,Roboto,sans-serif" font-size="8.5" font-weight="400" fill="#e11d48">steady-state error -> 0 (integral)</text>
</svg>
