<svg viewBox="0 0 490 250" xmlns="http://www.w3.org/2000/svg" role="img" aria-label="Five small step-response panels left to right by increasing corrective strength: too weak settles short, good reaches the target cleanly, too strong overshoots, then sustained oscillation, then runaway divergence leaving the frame, beneath a corrective-strength arrow">
<title>Five small step-response panels left to right by increasing corrective strength: too weak settles short, good reaches the target cleanly, too strong overshoots, then sustained oscillation, then runaway divergence leaving the frame, beneath a corrective-strength arrow</title>
<defs><marker id="ah" markerWidth="9" markerHeight="9" refX="6" refY="3" orient="auto"><path d="M0,0 L6,3 L0,6 z" fill="#64748b"/></marker></defs>
<rect width="490" height="250" fill="white"/>
<text x="245" y="24" text-anchor="middle" font-family="system-ui,-apple-system,Segoe UI,Roboto,sans-serif" font-size="14" font-weight="650" fill="#0f172a">One knob, five fates: the correction spectrum</text>
<rect x="22" y="42" width="82" height="150" fill="#f8fafc" stroke="#e2e8f0"/>
<line x1="22" y1="117.0" x2="104" y2="117.0" stroke="#0f172a" stroke-width="0.9" stroke-dasharray="4 3"/>
<path d="M 22.0 182.2 L 22.1 182.2 L 22.1 182.0 L 22.2 181.8 L 22.3 181.6 L 22.3 181.4 L 22.4 181.2 L 22.5 181.0 L 22.5 180.8 L 22.6 180.6 L 22.7 180.4 L 22.7 180.2 L 22.8 180.0 L 22.9 179.8 L 22.9 179.6 L 23.0 179.4 L 23.0 179.2 L 23.1 179.0 L 23.2 178.8 L 23.2 178.6 L 23.3 178.4 L 23.4 178.2 L 23.4 178.0 L 23.5 177.8 L 23.6 177.6 L 23.6 177.4 L 23.7 177.2 L 23.8 177.0 L 23.8 176.8 L 23.9 176.6 L 24.0 176.4 L 24.0 176.2 L 24.1 176.0 L 24.2 175.8 L 24.2 175.6 L 24.3 175.4 L 24.4 175.2 L 24.4 175.0 L 24.5 174.8 L 24.6 174.6 L 24.6 174.5 L 24.7 174.3 L 24.8 174.1 L 24.8 173.9 L 24.9 173.7 L 25.0 173.5 L 25.0 173.3 L 25.1 173.1 L 25.1 173.0 L 25.2 172.8 L 25.3 172.6 L 25.3 172.4 L 25.4 172.2 L 25.5 172.0 L 25.5 171.8 L 25.6 171.7 L 25.7 171.5 L 25.7 171.3 L 25.8 171.1 L 25.9 170.9 L 25.9 170.8 L 26.0 170.6 L 26.1 170.4 L 26.1 170.2 L 26.2 170.0 L 26.3 169.9 L 26.3 169.7 L 26.4 169.5 L 26.5 169.3 L 26.5 169.2 L 26.6 169.0 L 26.7 168.8 L 26.7 168.6 L 26.8 168.5 L 26.9 168.3 L 26.9 168.1 L 27.0 168.0 L 27.1 167.8 L 27.1 167.6 L 27.2 167.4 L 27.2 167.3 L 27.3 167.1 L 27.4 166.9 L 27.4 166.8 L 27.5 166.6 L 27.6 166.4 L 27.6 166.3 L 27.7 166.1 L 27.8 165.9 L 27.8 165.8 L 27.9 165.6 L 28.0 165.5 L 28.0 165.3 L 28.1 165.1 L 28.2 165.0 L 28.2 164.8 L 28.3 164.7 L 28.4 164.5 L 28.4 164.3 L 28.5 164.2 L 28.6 164.0 L 28.6 163.9 L 28.7 163.7 L 28.8 163.6 L 28.8 163.4 L 28.9 163.3 L 29.0 163.1 L 29.0 162.9 L 29.1 162.8 L 29.2 162.6 L 29.2 162.5 L 29.3 162.3 L 29.3 162.2 L 29.4 162.0 L 29.5 161.9 L 29.5 161.7 L 29.6 161.6 L 29.7 161.5 L 29.7 161.3 L 29.8 161.2 L 29.9 161.0 L 29.9 160.9 L 30.0 160.7 L 30.1 160.6 L 30.1 160.4 L 30.2 160.3 L 30.3 160.2 L 30.3 160.0 L 30.4 159.9 L 30.5 159.7 L 30.5 159.6 L 30.6 159.5 L 30.7 159.3 L 30.7 159.2 L 30.8 159.1 L 30.9 158.9 L 30.9 158.8 L 31.0 158.7 L 31.1 158.5 L 31.1 158.4 L 31.2 158.3 L 31.2 158.1 L 31.3 158.0 L 31.4 157.9 L 31.4 157.7 L 31.5 157.6 L 31.6 157.5 L 31.6 157.3 L 31.7 157.2 L 31.8 157.1 L 31.8 157.0 L 31.9 156.8 L 32.0 156.7 L 32.0 156.6 L 32.1 156.5 L 32.2 156.3 L 32.2 156.2 L 32.3 156.1 L 32.4 156.0 L 32.4 155.9 L 32.5 155.7 L 32.6 155.6 L 32.6 155.5 L 32.7 155.4 L 32.8 155.3 L 32.8 155.1 L 32.9 155.0 L 33.0 154.9 L 33.0 154.8 L 33.1 154.7 L 33.2 154.6 L 33.2 154.5 L 33.3 154.3 L 33.3 154.2 L 33.4 154.1 L 33.5 154.0 L 33.5 153.9 L 33.6 153.8 L 33.7 153.7 L 33.7 153.6 L 33.8 153.5 L 33.9 153.4 L 33.9 153.2 L 34.0 153.1 L 34.1 153.0 L 34.1 152.9 L 34.2 152.8 L 34.3 152.7 L 34.3 152.6 L 34.4 152.5 L 34.5 152.4 L 34.5 152.3 L 34.6 152.2 L 34.7 152.1 L 34.7 152.0 L 34.8 151.9 L 34.9 151.8 L 34.9 151.7 L 35.0 151.6 L 35.1 151.5 L 35.1 151.4 L 35.2 151.3 L 35.3 151.2 L 35.3 151.1 L 35.4 151.0 L 35.4 150.9 L 35.5 150.8 L 35.6 150.7 L 35.6 150.7 L 35.7 150.6 L 35.8 150.5 L 35.8 150.4 L 35.9 150.3 L 36.0 150.2 L 36.0 150.1 L 36.1 150.0 L 36.2 149.9 L 36.2 149.8 L 36.3 149.8 L 36.4 149.7 L 36.4 149.6 L 36.5 149.5 L 36.6 149.4 L 36.6 149.3 L 36.7 149.3 L 36.8 149.2 L 36.8 149.1 L 36.9 149.0 L 37.0 148.9 L 37.0 148.8 L 37.1 148.8 L 37.2 148.7 L 37.2 148.6 L 37.3 148.5 L 37.4 148.4 L 37.4 148.4 L 37.5 148.3 L 37.5 148.2 L 37.6 148.1 L 37.7 148.1 L 37.7 148.0 L 37.8 147.9 L 37.9 147.8 L 37.9 147.8 L 38.0 147.7 L 38.1 147.6 L 38.1 147.5 L 38.2 147.5 L 38.3 147.4 L 38.3 147.3 L 38.4 147.2 L 38.5 147.2 L 38.5 147.1 L 38.6 147.0 L 38.7 147.0 L 38.7 146.9 L 38.8 146.8 L 38.9 146.8 L 38.9 146.7 L 39.0 146.6 L 39.1 146.6 L 39.1 146.5 L 39.2 146.4 L 39.3 146.4 L 39.3 146.3 L 39.4 146.2 L 39.4 146.2 L 39.5 146.1 L 39.6 146.1 L 39.6 146.0 L 39.7 145.9 L 39.8 145.9 L 39.8 145.8 L 39.9 145.8 L 40.0 145.7 L 40.0 145.6 L 40.1 145.6 L 40.2 145.5 L 40.2 145.5 L 40.3 145.4 L 40.4 145.3 L 40.4 145.3 L 40.5 145.2 L 40.6 145.2 L 40.6 145.1 L 40.7 145.1 L 40.8 145.0 L 40.8 145.0 L 40.9 144.9 L 41.0 144.9 L 41.0 144.8 L 41.1 144.7 L 41.2 144.7 L 41.2 144.6 L 41.3 144.6 L 41.4 144.5 L 41.4 144.5 L 41.5 144.4 L 41.5 144.4 L 41.6 144.3 L 41.7 144.3 L 41.7 144.2 L 41.8 144.2 L 41.9 144.2 L 41.9 144.1 L 42.0 144.1 L 42.1 144.0 L 42.1 144.0 L 42.2 143.9 L 42.3 143.9 L 42.3 143.8 L 42.4 143.8 L 42.5 143.7 L 42.5 143.7 L 42.6 143.7 L 42.7 143.6 L 42.7 143.6 L 42.8 143.5 L 42.9 143.5 L 42.9 143.4 L 43.0 143.4 L 43.1 143.4 L 43.1 143.3 L 43.2 143.3 L 43.3 143.2 L 43.3 143.2 L 43.4 143.2 L 43.5 143.1 L 43.5 143.1 L 43.6 143.1 L 43.6 143.0 L 43.7 143.0 L 43.8 142.9 L 43.8 142.9 L 43.9 142.9 L 44.0 142.8 L 44.0 142.8 L 44.1 142.8 L 44.2 142.7 L 44.2 142.7 L 44.3 142.7 L 44.4 142.6 L 44.4 142.6 L 44.5 142.6 L 44.6 142.5 L 44.6 142.5 L 44.7 142.5 L 44.8 142.4 L 44.8 142.4 L 44.9 142.4 L 45.0 142.3 L 45.0 142.3 L 45.1 142.3 L 45.2 142.2 L 45.2 142.2 L 45.3 142.2 L 45.4 142.2 L 45.4 142.1 L 45.5 142.1 L 45.6 142.1 L 45.6 142.0 L 45.7 142.0 L 45.7 142.0 L 45.8 142.0 L 45.9 141.9 L 45.9 141.9 L 46.0 141.9 L 46.1 141.9 L 46.1 141.8 L 46.2 141.8 L 46.3 141.8 L 46.3 141.8 L 46.4 141.7 L 46.5 141.7 L 46.5 141.7 L 46.6 141.7 L 46.7 141.6 L 46.7 141.6 L 46.8 141.6 L 46.9 141.6 L 46.9 141.6 L 47.0 141.5 L 47.1 141.5 L 47.1 141.5 L 47.2 141.5 L 47.3 141.4 L 47.3 141.4 L 47.4 141.4 L 47.5 141.4 L 47.5 141.4 L 47.6 141.3 L 47.6 141.3 L 47.7 141.3 L 47.8 141.3 L 47.8 141.3 L 47.9 141.3 L 48.0 141.2 L 48.0 141.2 L 48.1 141.2 L 48.2 141.2 L 48.2 141.2 L 48.3 141.1 L 48.4 141.1 L 48.4 141.1 L 48.5 141.1 L 48.6 141.1 L 48.6 141.1 L 48.7 141.1 L 48.8 141.0 L 48.8 141.0 L 48.9 141.0 L 49.0 141.0 L 49.0 141.0 L 49.1 141.0 L 49.2 140.9 L 49.2 140.9 L 49.3 140.9 L 49.4 140.9 L 49.4 140.9 L 49.5 140.9 L 49.6 140.9 L 49.6 140.9 L 49.7 140.8 L 49.7 140.8 L 49.8 140.8 L 49.9 140.8 L 49.9 140.8 L 50.0 140.8 L 50.1 140.8 L 50.1 140.8 L 50.2 140.8 L 50.3 140.7 L 50.3 140.7 L 50.4 140.7 L 50.5 140.7 L 50.5 140.7 L 50.6 140.7 L 50.7 140.7 L 50.7 140.7 L 50.8 140.7 L 50.9 140.7 L 50.9 140.6 L 51.0 140.6 L 51.1 140.6 L 51.1 140.6 L 51.2 140.6 L 51.3 140.6 L 51.3 140.6 L 51.4 140.6 L 51.5 140.6 L 51.5 140.6 L 51.6 140.6 L 51.7 140.6 L 51.7 140.6 L 51.8 140.6 L 51.8 140.5 L 51.9 140.5 L 52.0 140.5 L 52.0 140.5 L 52.1 140.5 L 52.2 140.5 L 52.2 140.5 L 52.3 140.5 L 52.4 140.5 L 52.4 140.5 L 52.5 140.5 L 52.6 140.5 L 52.6 140.5 L 52.7 140.5 L 52.8 140.5 L 52.8 140.5 L 52.9 140.5 L 53.0 140.5 L 53.0 140.5 L 53.1 140.5 L 53.2 140.5 L 53.2 140.4 L 53.3 140.4 L 53.4 140.4 L 53.4 140.4 L 53.5 140.4 L 53.6 140.4 L 53.6 140.4 L 53.7 140.4 L 53.8 140.4 L 53.8 140.4 L 53.9 140.4 L 53.9 140.4 L 54.0 140.4 L 54.1 140.4 L 54.1 140.4 L 54.2 140.4 L 54.3 140.4 L 54.3 140.4 L 54.4 140.4 L 54.5 140.4 L 54.5 140.4 L 54.6 140.4 L 54.7 140.4 L 54.7 140.4 L 54.8 140.4 L 54.9 140.4 L 54.9 140.4 L 55.0 140.4 L 55.1 140.4 L 55.1 140.4 L 55.2 140.4 L 55.3 140.4 L 55.3 140.4 L 55.4 140.4 L 55.5 140.4 L 55.5 140.4 L 55.6 140.4 L 55.7 140.4 L 55.7 140.4 L 55.8 140.4 L 55.8 140.4 L 55.9 140.4 L 56.0 140.4 L 56.0 140.4 L 56.1 140.4 L 56.2 140.4 L 56.2 140.4 L 56.3 140.4 L 56.4 140.4 L 56.4 140.4 L 56.5 140.4 L 56.6 140.4 L 56.6 140.4 L 56.7 140.4 L 56.8 140.4 L 56.8 140.5 L 56.9 140.5 L 57.0 140.5 L 57.0 140.5 L 57.1 140.5 L 57.2 140.5 L 57.2 140.5 L 57.3 140.5 L 57.4 140.5 L 57.4 140.5 L 57.5 140.5 L 57.6 140.5 L 57.6 140.5 L 57.7 140.5 L 57.8 140.5 L 57.8 140.5 L 57.9 140.5 L 57.9 140.5 L 58.0 140.5 L 58.1 140.5 L 58.1 140.5 L 58.2 140.5 L 58.3 140.5 L 58.3 140.5 L 58.4 140.5 L 58.5 140.5 L 58.5 140.5 L 58.6 140.6 L 58.7 140.6 L 58.7 140.6 L 58.8 140.6 L 58.9 140.6 L 58.9 140.6 L 59.0 140.6 L 59.1 140.6 L 59.1 140.6 L 59.2 140.6 L 59.3 140.6 L 59.3 140.6 L 59.4 140.6 L 59.5 140.6 L 59.5 140.6 L 59.6 140.6 L 59.7 140.6 L 59.7 140.6 L 59.8 140.6 L 59.9 140.6 L 59.9 140.7 L 60.0 140.7 L 60.0 140.7 L 60.1 140.7 L 60.2 140.7 L 60.2 140.7 L 60.3 140.7 L 60.4 140.7 L 60.4 140.7 L 60.5 140.7 L 60.6 140.7 L 60.6 140.7 L 60.7 140.7 L 60.8 140.7 L 60.8 140.7 L 60.9 140.7 L 61.0 140.8 L 61.0 140.8 L 61.1 140.8 L 61.2 140.8 L 61.2 140.8 L 61.3 140.8 L 61.4 140.8 L 61.4 140.8 L 61.5 140.8 L 61.6 140.8 L 61.6 140.8 L 61.7 140.8 L 61.8 140.8 L 61.8 140.8 L 61.9 140.8 L 62.0 140.8 L 62.0 140.9 L 62.1 140.9 L 62.1 140.9 L 62.2 140.9 L 62.3 140.9 L 62.3 140.9 L 62.4 140.9 L 62.5 140.9 L 62.5 140.9 L 62.6 140.9 L 62.7 140.9 L 62.7 140.9 L 62.8 140.9 L 62.9 140.9 L 62.9 141.0 L 63.0 141.0 L 63.1 141.0 L 63.1 141.0 L 63.2 141.0 L 63.3 141.0 L 63.3 141.0 L 63.4 141.0 L 63.5 141.0 L 63.5 141.0 L 63.6 141.0 L 63.7 141.0 L 63.7 141.0 L 63.8 141.0 L 63.9 141.1 L 63.9 141.1 L 64.0 141.1 L 64.0 141.1 L 64.1 141.1 L 64.2 141.1 L 64.2 141.1 L 64.3 141.1 L 64.4 141.1 L 64.4 141.1 L 64.5 141.1 L 64.6 141.1 L 64.6 141.1 L 64.7 141.2 L 64.8 141.2 L 64.8 141.2 L 64.9 141.2 L 65.0 141.2 L 65.0 141.2 L 65.1 141.2 L 65.2 141.2 L 65.2 141.2 L 65.3 141.2 L 65.4 141.2 L 65.4 141.2 L 65.5 141.2 L 65.6 141.2 L 65.6 141.3 L 65.7 141.3 L 65.8 141.3 L 65.8 141.3 L 65.9 141.3 L 66.0 141.3 L 66.0 141.3 L 66.1 141.3 L 66.1 141.3 L 66.2 141.3 L 66.3 141.3 L 66.3 141.3 L 66.4 141.3 L 66.5 141.4 L 66.5 141.4 L 66.6 141.4 L 66.7 141.4 L 66.7 141.4 L 66.8 141.4 L 66.9 141.4 L 66.9 141.4 L 67.0 141.4 L 67.1 141.4 L 67.1 141.4 L 67.2 141.4 L 67.3 141.4 L 67.3 141.5 L 67.4 141.5 L 67.5 141.5 L 67.5 141.5 L 67.6 141.5 L 67.7 141.5 L 67.7 141.5 L 67.8 141.5 L 67.9 141.5 L 67.9 141.5 L 68.0 141.5 L 68.1 141.5 L 68.1 141.5 L 68.2 141.6 L 68.2 141.6 L 68.3 141.6 L 68.4 141.6 L 68.4 141.6 L 68.5 141.6 L 68.6 141.6 L 68.6 141.6 L 68.7 141.6 L 68.8 141.6 L 68.8 141.6 L 68.9 141.6 L 69.0 141.6 L 69.0 141.6 L 69.1 141.7 L 69.2 141.7 L 69.2 141.7 L 69.3 141.7 L 69.4 141.7 L 69.4 141.7 L 69.5 141.7 L 69.6 141.7 L 69.6 141.7 L 69.7 141.7 L 69.8 141.7 L 69.8 141.7 L 69.9 141.7 L 70.0 141.8 L 70.0 141.8 L 70.1 141.8 L 70.2 141.8 L 70.2 141.8 L 70.3 141.8 L 70.3 141.8 L 70.4 141.8 L 70.5 141.8 L 70.5 141.8 L 70.6 141.8 L 70.7 141.8 L 70.7 141.8 L 70.8 141.8 L 70.9 141.9 L 70.9 141.9 L 71.0 141.9 L 71.1 141.9 L 71.1 141.9 L 71.2 141.9 L 71.3 141.9 L 71.3 141.9 L 71.4 141.9 L 71.5 141.9 L 71.5 141.9 L 71.6 141.9 L 71.7 141.9 L 71.7 141.9 L 71.8 141.9 L 71.9 142.0 L 71.9 142.0 L 72.0 142.0 L 72.1 142.0 L 72.1 142.0 L 72.2 142.0 L 72.2 142.0 L 72.3 142.0 L 72.4 142.0 L 72.4 142.0 L 72.5 142.0 L 72.6 142.0 L 72.6 142.0 L 72.7 142.0 L 72.8 142.0 L 72.8 142.1 L 72.9 142.1 L 73.0 142.1 L 73.0 142.1 L 73.1 142.1 L 73.2 142.1 L 73.2 142.1 L 73.3 142.1 L 73.4 142.1 L 73.4 142.1 L 73.5 142.1 L 73.6 142.1 L 73.6 142.1 L 73.7 142.1 L 73.8 142.1 L 73.8 142.1 L 73.9 142.2 L 74.0 142.2 L 74.0 142.2 L 74.1 142.2 L 74.2 142.2 L 74.2 142.2 L 74.3 142.2 L 74.3 142.2 L 74.4 142.2 L 74.5 142.2 L 74.5 142.2 L 74.6 142.2 L 74.7 142.2 L 74.7 142.2 L 74.8 142.2 L 74.9 142.2 L 74.9 142.3 L 75.0 142.3 L 75.1 142.3 L 75.1 142.3 L 75.2 142.3 L 75.3 142.3 L 75.3 142.3 L 75.4 142.3 L 75.5 142.3 L 75.5 142.3 L 75.6 142.3 L 75.7 142.3 L 75.7 142.3 L 75.8 142.3 L 75.9 142.3 L 75.9 142.3 L 76.0 142.3 L 76.1 142.3 L 76.1 142.4 L 76.2 142.4 L 76.3 142.4 L 76.3 142.4 L 76.4 142.4 L 76.4 142.4 L 76.5 142.4 L 76.6 142.4 L 76.6 142.4 L 76.7 142.4 L 76.8 142.4 L 76.8 142.4 L 76.9 142.4 L 77.0 142.4 L 77.0 142.4 L 77.1 142.4 L 77.2 142.4 L 77.2 142.4 L 77.3 142.5 L 77.4 142.5 L 77.4 142.5 L 77.5 142.5 L 77.6 142.5 L 77.6 142.5 L 77.7 142.5 L 77.8 142.5 L 77.8 142.5 L 77.9 142.5 L 78.0 142.5 L 78.0 142.5 L 78.1 142.5 L 78.2 142.5 L 78.2 142.5 L 78.3 142.5 L 78.4 142.5 L 78.4 142.5 L 78.5 142.5 L 78.5 142.5 L 78.6 142.5 L 78.7 142.6 L 78.7 142.6 L 78.8 142.6 L 78.9 142.6 L 78.9 142.6 L 79.0 142.6 L 79.1 142.6 L 79.1 142.6 L 79.2 142.6 L 79.3 142.6 L 79.3 142.6 L 79.4 142.6 L 79.5 142.6 L 79.5 142.6 L 79.6 142.6 L 79.7 142.6 L 79.7 142.6 L 79.8 142.6 L 79.9 142.6 L 79.9 142.6 L 80.0 142.6 L 80.1 142.6 L 80.1 142.6 L 80.2 142.7 L 80.3 142.7 L 80.3 142.7 L 80.4 142.7 L 80.4 142.7 L 80.5 142.7 L 80.6 142.7 L 80.6 142.7 L 80.7 142.7 L 80.8 142.7 L 80.8 142.7 L 80.9 142.7 L 81.0 142.7 L 81.0 142.7 L 81.1 142.7 L 81.2 142.7 L 81.2 142.7 L 81.3 142.7 L 81.4 142.7 L 81.4 142.7 L 81.5 142.7 L 81.6 142.7 L 81.6 142.7 L 81.7 142.7 L 81.8 142.7 L 81.8 142.8 L 81.9 142.8 L 82.0 142.8 L 82.0 142.8 L 82.1 142.8 L 82.2 142.8 L 82.2 142.8 L 82.3 142.8 L 82.4 142.8 L 82.4 142.8 L 82.5 142.8 L 82.5 142.8 L 82.6 142.8 L 82.7 142.8 L 82.7 142.8 L 82.8 142.8 L 82.9 142.8 L 82.9 142.8 L 83.0 142.8 L 83.1 142.8 L 83.1 142.8 L 83.2 142.8 L 83.3 142.8 L 83.3 142.8 L 83.4 142.8 L 83.5 142.8 L 83.5 142.8 L 83.6 142.8 L 83.7 142.8 L 83.7 142.8 L 83.8 142.9 L 83.9 142.9 L 83.9 142.9 L 84.0 142.9 L 84.1 142.9 L 84.1 142.9 L 84.2 142.9 L 84.3 142.9 L 84.3 142.9 L 84.4 142.9 L 84.5 142.9 L 84.5 142.9 L 84.6 142.9 L 84.6 142.9 L 84.7 142.9 L 84.8 142.9 L 84.8 142.9 L 84.9 142.9 L 85.0 142.9 L 85.0 142.9 L 85.1 142.9 L 85.2 142.9 L 85.2 142.9 L 85.3 142.9 L 85.4 142.9 L 85.4 142.9 L 85.5 142.9 L 85.6 142.9 L 85.6 142.9 L 85.7 142.9 L 85.8 142.9 L 85.8 142.9 L 85.9 142.9 L 86.0 142.9 L 86.0 142.9 L 86.1 142.9 L 86.2 143.0 L 86.2 143.0 L 86.3 143.0 L 86.4 143.0 L 86.4 143.0 L 86.5 143.0 L 86.6 143.0 L 86.6 143.0 L 86.7 143.0 L 86.7 143.0 L 86.8 143.0 L 86.9 143.0 L 86.9 143.0 L 87.0 143.0 L 87.1 143.0 L 87.1 143.0 L 87.2 143.0 L 87.3 143.0 L 87.3 143.0 L 87.4 143.0 L 87.5 143.0 L 87.5 143.0 L 87.6 143.0 L 87.7 143.0 L 87.7 143.0 L 87.8 143.0 L 87.9 143.0 L 87.9 143.0 L 88.0 143.0 L 88.1 143.0 L 88.1 143.0 L 88.2 143.0 L 88.3 143.0 L 88.3 143.0 L 88.4 143.0 L 88.5 143.0 L 88.5 143.0 L 88.6 143.0 L 88.6 143.0 L 88.7 143.0 L 88.8 143.0 L 88.8 143.0 L 88.9 143.0 L 89.0 143.0 L 89.0 143.0 L 89.1 143.0 L 89.2 143.0 L 89.2 143.0 L 89.3 143.0 L 89.4 143.0 L 89.4 143.1 L 89.5 143.1 L 89.6 143.1 L 89.6 143.1 L 89.7 143.1 L 89.8 143.1 L 89.8 143.1 L 89.9 143.1 L 90.0 143.1 L 90.0 143.1 L 90.1 143.1 L 90.2 143.1 L 90.2 143.1 L 90.3 143.1 L 90.4 143.1 L 90.4 143.1 L 90.5 143.1 L 90.6 143.1 L 90.6 143.1 L 90.7 143.1 L 90.7 143.1 L 90.8 143.1 L 90.9 143.1 L 90.9 143.1 L 91.0 143.1 L 91.1 143.1 L 91.1 143.1 L 91.2 143.1 L 91.3 143.1 L 91.3 143.1 L 91.4 143.1 L 91.5 143.1 L 91.5 143.1 L 91.6 143.1 L 91.7 143.1 L 91.7 143.1 L 91.8 143.1 L 91.9 143.1 L 91.9 143.1 L 92.0 143.1 L 92.1 143.1 L 92.1 143.1 L 92.2 143.1 L 92.3 143.1 L 92.3 143.1 L 92.4 143.1 L 92.5 143.1 L 92.5 143.1 L 92.6 143.1 L 92.7 143.1 L 92.7 143.1 L 92.8 143.1 L 92.8 143.1 L 92.9 143.1 L 93.0 143.1 L 93.0 143.1 L 93.1 143.1 L 93.2 143.1 L 93.2 143.1 L 93.3 143.1 L 93.4 143.1 L 93.4 143.1 L 93.5 143.1 L 93.6 143.1 L 93.6 143.1 L 93.7 143.1 L 93.8 143.1 L 93.8 143.1 L 93.9 143.1 L 94.0 143.1 L 94.0 143.1 L 94.1 143.1 L 94.2 143.1 L 94.2 143.1 L 94.3 143.1 L 94.4 143.1 L 94.4 143.1 L 94.5 143.1 L 94.6 143.1 L 94.6 143.1 L 94.7 143.1 L 94.8 143.1 L 94.8 143.1 L 94.9 143.1 L 94.9 143.1 L 95.0 143.1 L 95.1 143.1 L 95.1 143.1 L 95.2 143.1 L 95.3 143.2 L 95.3 143.2 L 95.4 143.2 L 95.5 143.2 L 95.5 143.2 L 95.6 143.2 L 95.7 143.2 L 95.7 143.2 L 95.8 143.2 L 95.9 143.2 L 95.9 143.2 L 96.0 143.2 L 96.1 143.2 L 96.1 143.2 L 96.2 143.2 L 96.3 143.2 L 96.3 143.2 L 96.4 143.2 L 96.5 143.2 L 96.5 143.2 L 96.6 143.2 L 96.7 143.2 L 96.7 143.2 L 96.8 143.2 L 96.8 143.2 L 96.9 143.2 L 97.0 143.2 L 97.0 143.2 L 97.1 143.2 L 97.2 143.2 L 97.2 143.2 L 97.3 143.2 L 97.4 143.2 L 97.4 143.2 L 97.5 143.2 L 97.6 143.2 L 97.6 143.2 L 97.7 143.2 L 97.8 143.2 L 97.8 143.2 L 97.9 143.2 L 98.0 143.2 L 98.0 143.2 L 98.1 143.2 L 98.2 143.2 L 98.2 143.2 L 98.3 143.2 L 98.4 143.2 L 98.4 143.2 L 98.5 143.2 L 98.6 143.2 L 98.6 143.2 L 98.7 143.2 L 98.8 143.2 L 98.8 143.2 L 98.9 143.2 L 98.9 143.2 L 99.0 143.2 L 99.1 143.2 L 99.1 143.2 L 99.2 143.2 L 99.3 143.2 L 99.3 143.2 L 99.4 143.2 L 99.5 143.2 L 99.5 143.2 L 99.6 143.2 L 99.7 143.2 L 99.7 143.2 L 99.8 143.2 L 99.9 143.2 L 99.9 143.2 L 100.0 143.2 L 100.1 143.2 L 100.1 143.2 L 100.2 143.2 L 100.3 143.2 L 100.3 143.2 L 100.4 143.2 L 100.5 143.2 L 100.5 143.2 L 100.6 143.2 L 100.7 143.2 L 100.7 143.2 L 100.8 143.2 L 100.9 143.2 L 100.9 143.2 L 101.0 143.2 L 101.0 143.2 L 101.1 143.2 L 101.2 143.2 L 101.2 143.2 L 101.3 143.2 L 101.4 143.2 L 101.4 143.2 L 101.5 143.2 L 101.6 143.2 L 101.6 143.2 L 101.7 143.2 L 101.8 143.2 L 101.8 143.2 L 101.9 143.2 L 102.0 143.2 L 102.0 143.2 L 102.1 143.2 L 102.2 143.2 L 102.2 143.2 L 102.3 143.2 L 102.4 143.2 L 102.4 143.2 L 102.5 143.2 L 102.6 143.2 L 102.6 143.2 L 102.7 143.2 L 102.8 143.2 L 102.8 143.2 L 102.9 143.2 L 103.0 143.2 L 103.0 143.2 L 103.1 143.2 L 103.1 143.2 L 103.2 143.2 L 103.3 143.2 L 103.3 143.2 L 103.4 143.2 L 103.5 143.2 L 103.5 143.2 L 103.6 143.2 L 103.7 143.2 L 103.7 143.2 L 103.8 143.2 L 103.9 143.2 L 103.9 143.2 L 104.0 143.2" fill="none" stroke="#64748b" stroke-width="2.0"/>
<text x="63.0" y="207" text-anchor="middle" font-family="system-ui,-apple-system,Segoe UI,Roboto,sans-serif" font-size="9.5" font-weight="650" fill="#64748b">too weak</text>
<text x="63.0" y="220" text-anchor="middle" font-family="system-ui,-apple-system,Segoe UI,Roboto,sans-serif" font-size="8" font-weight="400" fill="#64748b">sluggish, short</text>
<rect x="116" y="42" width="82" height="150" fill="#f8fafc" stroke="#e2e8f0"/>
<line x1="116" y1="117.0" x2="198" y2="117.0" stroke="#0f172a" stroke-width="0.9" stroke-dasharray="4 3"/>
<path d="M 116.0 182.2 L 116.1 182.2 L 116.1 182.0 L 116.2 181.8 L 116.3 181.6 L 116.3 181.4 L 116.4 181.1 L 116.5 180.9 L 116.5 180.7 L 116.6 180.4 L 116.7 180.2 L 116.7 179.9 L 116.8 179.7 L 116.9 179.4 L 116.9 179.1 L 117.0 178.9 L 117.0 178.6 L 117.1 178.3 L 117.2 178.0 L 117.2 177.8 L 117.3 177.5 L 117.4 177.2 L 117.4 176.9 L 117.5 176.6 L 117.6 176.3 L 117.6 176.1 L 117.7 175.8 L 117.8 175.5 L 117.8 175.2 L 117.9 174.9 L 118.0 174.6 L 118.0 174.3 L 118.1 174.0 L 118.2 173.7 L 118.2 173.4 L 118.3 173.1 L 118.4 172.8 L 118.4 172.5 L 118.5 172.2 L 118.6 171.9 L 118.6 171.6 L 118.7 171.3 L 118.8 170.9 L 118.8 170.6 L 118.9 170.3 L 119.0 170.0 L 119.0 169.7 L 119.1 169.4 L 119.1 169.1 L 119.2 168.8 L 119.3 168.5 L 119.3 168.2 L 119.4 167.9 L 119.5 167.6 L 119.5 167.3 L 119.6 167.0 L 119.7 166.7 L 119.7 166.4 L 119.8 166.1 L 119.9 165.8 L 119.9 165.5 L 120.0 165.2 L 120.1 164.9 L 120.1 164.6 L 120.2 164.3 L 120.3 164.0 L 120.3 163.7 L 120.4 163.4 L 120.5 163.1 L 120.5 162.8 L 120.6 162.5 L 120.7 162.2 L 120.7 161.9 L 120.8 161.7 L 120.9 161.4 L 120.9 161.1 L 121.0 160.8 L 121.1 160.5 L 121.1 160.2 L 121.2 159.9 L 121.2 159.7 L 121.3 159.4 L 121.4 159.1 L 121.4 158.8 L 121.5 158.5 L 121.6 158.3 L 121.6 158.0 L 121.7 157.7 L 121.8 157.4 L 121.8 157.2 L 121.9 156.9 L 122.0 156.6 L 122.0 156.3 L 122.1 156.1 L 122.2 155.8 L 122.2 155.5 L 122.3 155.3 L 122.4 155.0 L 122.4 154.8 L 122.5 154.5 L 122.6 154.2 L 122.6 154.0 L 122.7 153.7 L 122.8 153.5 L 122.8 153.2 L 122.9 153.0 L 123.0 152.7 L 123.0 152.5 L 123.1 152.2 L 123.2 152.0 L 123.2 151.7 L 123.3 151.5 L 123.3 151.2 L 123.4 151.0 L 123.5 150.7 L 123.5 150.5 L 123.6 150.2 L 123.7 150.0 L 123.7 149.8 L 123.8 149.5 L 123.9 149.3 L 123.9 149.1 L 124.0 148.8 L 124.1 148.6 L 124.1 148.4 L 124.2 148.1 L 124.3 147.9 L 124.3 147.7 L 124.4 147.4 L 124.5 147.2 L 124.5 147.0 L 124.6 146.8 L 124.7 146.5 L 124.7 146.3 L 124.8 146.1 L 124.9 145.9 L 124.9 145.7 L 125.0 145.4 L 125.1 145.2 L 125.1 145.0 L 125.2 144.8 L 125.2 144.6 L 125.3 144.4 L 125.4 144.2 L 125.4 144.0 L 125.5 143.7 L 125.6 143.5 L 125.6 143.3 L 125.7 143.1 L 125.8 142.9 L 125.8 142.7 L 125.9 142.5 L 126.0 142.3 L 126.0 142.1 L 126.1 141.9 L 126.2 141.7 L 126.2 141.5 L 126.3 141.3 L 126.4 141.1 L 126.4 141.0 L 126.5 140.8 L 126.6 140.6 L 126.6 140.4 L 126.7 140.2 L 126.8 140.0 L 126.8 139.8 L 126.9 139.6 L 127.0 139.4 L 127.0 139.3 L 127.1 139.1 L 127.2 138.9 L 127.2 138.7 L 127.3 138.5 L 127.3 138.4 L 127.4 138.2 L 127.5 138.0 L 127.5 137.8 L 127.6 137.6 L 127.7 137.5 L 127.7 137.3 L 127.8 137.1 L 127.9 137.0 L 127.9 136.8 L 128.0 136.6 L 128.1 136.4 L 128.1 136.3 L 128.2 136.1 L 128.3 136.0 L 128.3 135.8 L 128.4 135.6 L 128.5 135.5 L 128.5 135.3 L 128.6 135.1 L 128.7 135.0 L 128.7 134.8 L 128.8 134.7 L 128.9 134.5 L 128.9 134.3 L 129.0 134.2 L 129.1 134.0 L 129.1 133.9 L 129.2 133.7 L 129.3 133.6 L 129.3 133.4 L 129.4 133.3 L 129.4 133.1 L 129.5 133.0 L 129.6 132.8 L 129.6 132.7 L 129.7 132.5 L 129.8 132.4 L 129.8 132.2 L 129.9 132.1 L 130.0 132.0 L 130.0 131.8 L 130.1 131.7 L 130.2 131.5 L 130.2 131.4 L 130.3 131.2 L 130.4 131.1 L 130.4 131.0 L 130.5 130.8 L 130.6 130.7 L 130.6 130.6 L 130.7 130.4 L 130.8 130.3 L 130.8 130.2 L 130.9 130.0 L 131.0 129.9 L 131.0 129.8 L 131.1 129.6 L 131.2 129.5 L 131.2 129.4 L 131.3 129.3 L 131.4 129.1 L 131.4 129.0 L 131.5 128.9 L 131.5 128.8 L 131.6 128.6 L 131.7 128.5 L 131.7 128.4 L 131.8 128.3 L 131.9 128.1 L 131.9 128.0 L 132.0 127.9 L 132.1 127.8 L 132.1 127.7 L 132.2 127.5 L 132.3 127.4 L 132.3 127.3 L 132.4 127.2 L 132.5 127.1 L 132.5 127.0 L 132.6 126.8 L 132.7 126.7 L 132.7 126.6 L 132.8 126.5 L 132.9 126.4 L 132.9 126.3 L 133.0 126.2 L 133.1 126.1 L 133.1 126.0 L 133.2 125.9 L 133.3 125.7 L 133.3 125.6 L 133.4 125.5 L 133.4 125.4 L 133.5 125.3 L 133.6 125.2 L 133.6 125.1 L 133.7 125.0 L 133.8 124.9 L 133.8 124.8 L 133.9 124.7 L 134.0 124.6 L 134.0 124.5 L 134.1 124.4 L 134.2 124.3 L 134.2 124.2 L 134.3 124.1 L 134.4 124.0 L 134.4 123.9 L 134.5 123.8 L 134.6 123.7 L 134.6 123.6 L 134.7 123.5 L 134.8 123.4 L 134.8 123.4 L 134.9 123.3 L 135.0 123.2 L 135.0 123.1 L 135.1 123.0 L 135.2 122.9 L 135.2 122.8 L 135.3 122.7 L 135.4 122.6 L 135.4 122.5 L 135.5 122.5 L 135.5 122.4 L 135.6 122.3 L 135.7 122.2 L 135.7 122.1 L 135.8 122.0 L 135.9 121.9 L 135.9 121.9 L 136.0 121.8 L 136.1 121.7 L 136.1 121.6 L 136.2 121.5 L 136.3 121.4 L 136.3 121.4 L 136.4 121.3 L 136.5 121.2 L 136.5 121.1 L 136.6 121.0 L 136.7 121.0 L 136.7 120.9 L 136.8 120.8 L 136.9 120.7 L 136.9 120.7 L 137.0 120.6 L 137.1 120.5 L 137.1 120.4 L 137.2 120.4 L 137.3 120.3 L 137.3 120.2 L 137.4 120.1 L 137.5 120.1 L 137.5 120.0 L 137.6 119.9 L 137.6 119.9 L 137.7 119.8 L 137.8 119.7 L 137.8 119.6 L 137.9 119.6 L 138.0 119.5 L 138.0 119.4 L 138.1 119.4 L 138.2 119.3 L 138.2 119.2 L 138.3 119.2 L 138.4 119.1 L 138.4 119.0 L 138.5 119.0 L 138.6 118.9 L 138.6 118.8 L 138.7 118.8 L 138.8 118.7 L 138.8 118.6 L 138.9 118.6 L 139.0 118.5 L 139.0 118.5 L 139.1 118.4 L 139.2 118.3 L 139.2 118.3 L 139.3 118.2 L 139.4 118.1 L 139.4 118.1 L 139.5 118.0 L 139.6 118.0 L 139.6 117.9 L 139.7 117.9 L 139.7 117.8 L 139.8 117.7 L 139.9 117.7 L 139.9 117.6 L 140.0 117.6 L 140.1 117.5 L 140.1 117.5 L 140.2 117.4 L 140.3 117.3 L 140.3 117.3 L 140.4 117.2 L 140.5 117.2 L 140.5 117.1 L 140.6 117.1 L 140.7 117.0 L 140.7 117.0 L 140.8 116.9 L 140.9 116.9 L 140.9 116.8 L 141.0 116.8 L 141.1 116.7 L 141.1 116.7 L 141.2 116.6 L 141.3 116.6 L 141.3 116.5 L 141.4 116.5 L 141.5 116.4 L 141.5 116.4 L 141.6 116.3 L 141.6 116.3 L 141.7 116.2 L 141.8 116.2 L 141.8 116.1 L 141.9 116.1 L 142.0 116.0 L 142.0 116.0 L 142.1 115.9 L 142.2 115.9 L 142.2 115.9 L 142.3 115.8 L 142.4 115.8 L 142.4 115.7 L 142.5 115.7 L 142.6 115.6 L 142.6 115.6 L 142.7 115.5 L 142.8 115.5 L 142.8 115.5 L 142.9 115.4 L 143.0 115.4 L 143.0 115.3 L 143.1 115.3 L 143.2 115.3 L 143.2 115.2 L 143.3 115.2 L 143.4 115.1 L 143.4 115.1 L 143.5 115.1 L 143.6 115.0 L 143.6 115.0 L 143.7 114.9 L 143.7 114.9 L 143.8 114.9 L 143.9 114.8 L 143.9 114.8 L 144.0 114.7 L 144.1 114.7 L 144.1 114.7 L 144.2 114.6 L 144.3 114.6 L 144.3 114.6 L 144.4 114.5 L 144.5 114.5 L 144.5 114.5 L 144.6 114.4 L 144.7 114.4 L 144.7 114.4 L 144.8 114.3 L 144.9 114.3 L 144.9 114.3 L 145.0 114.2 L 145.1 114.2 L 145.1 114.2 L 145.2 114.1 L 145.3 114.1 L 145.3 114.1 L 145.4 114.0 L 145.5 114.0 L 145.5 114.0 L 145.6 113.9 L 145.7 113.9 L 145.7 113.9 L 145.8 113.8 L 145.8 113.8 L 145.9 113.8 L 146.0 113.7 L 146.0 113.7 L 146.1 113.7 L 146.2 113.7 L 146.2 113.6 L 146.3 113.6 L 146.4 113.6 L 146.4 113.5 L 146.5 113.5 L 146.6 113.5 L 146.6 113.5 L 146.7 113.4 L 146.8 113.4 L 146.8 113.4 L 146.9 113.4 L 147.0 113.3 L 147.0 113.3 L 147.1 113.3 L 147.2 113.3 L 147.2 113.2 L 147.3 113.2 L 147.4 113.2 L 147.4 113.1 L 147.5 113.1 L 147.6 113.1 L 147.6 113.1 L 147.7 113.1 L 147.8 113.0 L 147.8 113.0 L 147.9 113.0 L 147.9 113.0 L 148.0 112.9 L 148.1 112.9 L 148.1 112.9 L 148.2 112.9 L 148.3 112.8 L 148.3 112.8 L 148.4 112.8 L 148.5 112.8 L 148.5 112.8 L 148.6 112.7 L 148.7 112.7 L 148.7 112.7 L 148.8 112.7 L 148.9 112.6 L 148.9 112.6 L 149.0 112.6 L 149.1 112.6 L 149.1 112.6 L 149.2 112.5 L 149.3 112.5 L 149.3 112.5 L 149.4 112.5 L 149.5 112.5 L 149.5 112.4 L 149.6 112.4 L 149.7 112.4 L 149.7 112.4 L 149.8 112.4 L 149.8 112.4 L 149.9 112.3 L 150.0 112.3 L 150.0 112.3 L 150.1 112.3 L 150.2 112.3 L 150.2 112.2 L 150.3 112.2 L 150.4 112.2 L 150.4 112.2 L 150.5 112.2 L 150.6 112.2 L 150.6 112.1 L 150.7 112.1 L 150.8 112.1 L 150.8 112.1 L 150.9 112.1 L 151.0 112.1 L 151.0 112.1 L 151.1 112.0 L 151.2 112.0 L 151.2 112.0 L 151.3 112.0 L 151.4 112.0 L 151.4 112.0 L 151.5 111.9 L 151.6 111.9 L 151.6 111.9 L 151.7 111.9 L 151.8 111.9 L 151.8 111.9 L 151.9 111.9 L 151.9 111.9 L 152.0 111.8 L 152.1 111.8 L 152.1 111.8 L 152.2 111.8 L 152.3 111.8 L 152.3 111.8 L 152.4 111.8 L 152.5 111.7 L 152.5 111.7 L 152.6 111.7 L 152.7 111.7 L 152.7 111.7 L 152.8 111.7 L 152.9 111.7 L 152.9 111.7 L 153.0 111.7 L 153.1 111.6 L 153.1 111.6 L 153.2 111.6 L 153.3 111.6 L 153.3 111.6 L 153.4 111.6 L 153.5 111.6 L 153.5 111.6 L 153.6 111.6 L 153.7 111.5 L 153.7 111.5 L 153.8 111.5 L 153.9 111.5 L 153.9 111.5 L 154.0 111.5 L 154.0 111.5 L 154.1 111.5 L 154.2 111.5 L 154.2 111.5 L 154.3 111.5 L 154.4 111.4 L 154.4 111.4 L 154.5 111.4 L 154.6 111.4 L 154.6 111.4 L 154.7 111.4 L 154.8 111.4 L 154.8 111.4 L 154.9 111.4 L 155.0 111.4 L 155.0 111.4 L 155.1 111.4 L 155.2 111.3 L 155.2 111.3 L 155.3 111.3 L 155.4 111.3 L 155.4 111.3 L 155.5 111.3 L 155.6 111.3 L 155.6 111.3 L 155.7 111.3 L 155.8 111.3 L 155.8 111.3 L 155.9 111.3 L 156.0 111.3 L 156.0 111.3 L 156.1 111.2 L 156.1 111.2 L 156.2 111.2 L 156.3 111.2 L 156.3 111.2 L 156.4 111.2 L 156.5 111.2 L 156.5 111.2 L 156.6 111.2 L 156.7 111.2 L 156.7 111.2 L 156.8 111.2 L 156.9 111.2 L 156.9 111.2 L 157.0 111.2 L 157.1 111.2 L 157.1 111.2 L 157.2 111.2 L 157.3 111.2 L 157.3 111.1 L 157.4 111.1 L 157.5 111.1 L 157.5 111.1 L 157.6 111.1 L 157.7 111.1 L 157.7 111.1 L 157.8 111.1 L 157.9 111.1 L 157.9 111.1 L 158.0 111.1 L 158.0 111.1 L 158.1 111.1 L 158.2 111.1 L 158.2 111.1 L 158.3 111.1 L 158.4 111.1 L 158.4 111.1 L 158.5 111.1 L 158.6 111.1 L 158.6 111.1 L 158.7 111.1 L 158.8 111.1 L 158.8 111.1 L 158.9 111.1 L 159.0 111.1 L 159.0 111.1 L 159.1 111.1 L 159.2 111.1 L 159.2 111.1 L 159.3 111.0 L 159.4 111.0 L 159.4 111.0 L 159.5 111.0 L 159.6 111.0 L 159.6 111.0 L 159.7 111.0 L 159.8 111.0 L 159.8 111.0 L 159.9 111.0 L 160.0 111.0 L 160.0 111.0 L 160.1 111.0 L 160.1 111.0 L 160.2 111.0 L 160.3 111.0 L 160.3 111.0 L 160.4 111.0 L 160.5 111.0 L 160.5 111.0 L 160.6 111.0 L 160.7 111.0 L 160.7 111.0 L 160.8 111.0 L 160.9 111.0 L 160.9 111.0 L 161.0 111.0 L 161.1 111.0 L 161.1 111.0 L 161.2 111.0 L 161.3 111.0 L 161.3 111.0 L 161.4 111.0 L 161.5 111.0 L 161.5 111.0 L 161.6 111.0 L 161.7 111.0 L 161.7 111.0 L 161.8 111.0 L 161.9 111.0 L 161.9 111.0 L 162.0 111.0 L 162.1 111.0 L 162.1 111.0 L 162.2 111.0 L 162.2 111.0 L 162.3 111.0 L 162.4 111.0 L 162.4 111.0 L 162.5 111.0 L 162.6 111.0 L 162.6 111.0 L 162.7 111.0 L 162.8 111.0 L 162.8 111.0 L 162.9 111.0 L 163.0 111.0 L 163.0 111.0 L 163.1 111.0 L 163.2 111.0 L 163.2 111.0 L 163.3 111.0 L 163.4 111.0 L 163.4 111.0 L 163.5 111.0 L 163.6 111.0 L 163.6 111.0 L 163.7 111.0 L 163.8 111.0 L 163.8 111.0 L 163.9 111.0 L 164.0 111.0 L 164.0 111.0 L 164.1 111.0 L 164.2 111.1 L 164.2 111.1 L 164.3 111.1 L 164.3 111.1 L 164.4 111.1 L 164.5 111.1 L 164.5 111.1 L 164.6 111.1 L 164.7 111.1 L 164.7 111.1 L 164.8 111.1 L 164.9 111.1 L 164.9 111.1 L 165.0 111.1 L 165.1 111.1 L 165.1 111.1 L 165.2 111.1 L 165.3 111.1 L 165.3 111.1 L 165.4 111.1 L 165.5 111.1 L 165.5 111.1 L 165.6 111.1 L 165.7 111.1 L 165.7 111.1 L 165.8 111.1 L 165.9 111.1 L 165.9 111.1 L 166.0 111.1 L 166.1 111.1 L 166.1 111.1 L 166.2 111.1 L 166.2 111.1 L 166.3 111.1 L 166.4 111.1 L 166.4 111.1 L 166.5 111.1 L 166.6 111.1 L 166.6 111.1 L 166.7 111.2 L 166.8 111.2 L 166.8 111.2 L 166.9 111.2 L 167.0 111.2 L 167.0 111.2 L 167.1 111.2 L 167.2 111.2 L 167.2 111.2 L 167.3 111.2 L 167.4 111.2 L 167.4 111.2 L 167.5 111.2 L 167.6 111.2 L 167.6 111.2 L 167.7 111.2 L 167.8 111.2 L 167.8 111.2 L 167.9 111.2 L 168.0 111.2 L 168.0 111.2 L 168.1 111.2 L 168.2 111.2 L 168.2 111.2 L 168.3 111.2 L 168.3 111.2 L 168.4 111.2 L 168.5 111.3 L 168.5 111.3 L 168.6 111.3 L 168.7 111.3 L 168.7 111.3 L 168.8 111.3 L 168.9 111.3 L 168.9 111.3 L 169.0 111.3 L 169.1 111.3 L 169.1 111.3 L 169.2 111.3 L 169.3 111.3 L 169.3 111.3 L 169.4 111.3 L 169.5 111.3 L 169.5 111.3 L 169.6 111.3 L 169.7 111.3 L 169.7 111.3 L 169.8 111.3 L 169.9 111.3 L 169.9 111.3 L 170.0 111.4 L 170.1 111.4 L 170.1 111.4 L 170.2 111.4 L 170.3 111.4 L 170.3 111.4 L 170.4 111.4 L 170.4 111.4 L 170.5 111.4 L 170.6 111.4 L 170.6 111.4 L 170.7 111.4 L 170.8 111.4 L 170.8 111.4 L 170.9 111.4 L 171.0 111.4 L 171.0 111.4 L 171.1 111.4 L 171.2 111.4 L 171.2 111.4 L 171.3 111.5 L 171.4 111.5 L 171.4 111.5 L 171.5 111.5 L 171.6 111.5 L 171.6 111.5 L 171.7 111.5 L 171.8 111.5 L 171.8 111.5 L 171.9 111.5 L 172.0 111.5 L 172.0 111.5 L 172.1 111.5 L 172.2 111.5 L 172.2 111.5 L 172.3 111.5 L 172.4 111.5 L 172.4 111.5 L 172.5 111.5 L 172.5 111.5 L 172.6 111.6 L 172.7 111.6 L 172.7 111.6 L 172.8 111.6 L 172.9 111.6 L 172.9 111.6 L 173.0 111.6 L 173.1 111.6 L 173.1 111.6 L 173.2 111.6 L 173.3 111.6 L 173.3 111.6 L 173.4 111.6 L 173.5 111.6 L 173.5 111.6 L 173.6 111.6 L 173.7 111.6 L 173.7 111.6 L 173.8 111.7 L 173.9 111.7 L 173.9 111.7 L 174.0 111.7 L 174.1 111.7 L 174.1 111.7 L 174.2 111.7 L 174.3 111.7 L 174.3 111.7 L 174.4 111.7 L 174.4 111.7 L 174.5 111.7 L 174.6 111.7 L 174.6 111.7 L 174.7 111.7 L 174.8 111.7 L 174.8 111.7 L 174.9 111.7 L 175.0 111.8 L 175.0 111.8 L 175.1 111.8 L 175.2 111.8 L 175.2 111.8 L 175.3 111.8 L 175.4 111.8 L 175.4 111.8 L 175.5 111.8 L 175.6 111.8 L 175.6 111.8 L 175.7 111.8 L 175.8 111.8 L 175.8 111.8 L 175.9 111.8 L 176.0 111.8 L 176.0 111.8 L 176.1 111.9 L 176.2 111.9 L 176.2 111.9 L 176.3 111.9 L 176.4 111.9 L 176.4 111.9 L 176.5 111.9 L 176.5 111.9 L 176.6 111.9 L 176.7 111.9 L 176.7 111.9 L 176.8 111.9 L 176.9 111.9 L 176.9 111.9 L 177.0 111.9 L 177.1 111.9 L 177.1 112.0 L 177.2 112.0 L 177.3 112.0 L 177.3 112.0 L 177.4 112.0 L 177.5 112.0 L 177.5 112.0 L 177.6 112.0 L 177.7 112.0 L 177.7 112.0 L 177.8 112.0 L 177.9 112.0 L 177.9 112.0 L 178.0 112.0 L 178.1 112.0 L 178.1 112.0 L 178.2 112.0 L 178.3 112.1 L 178.3 112.1 L 178.4 112.1 L 178.5 112.1 L 178.5 112.1 L 178.6 112.1 L 178.6 112.1 L 178.7 112.1 L 178.8 112.1 L 178.8 112.1 L 178.9 112.1 L 179.0 112.1 L 179.0 112.1 L 179.1 112.1 L 179.2 112.1 L 179.2 112.1 L 179.3 112.2 L 179.4 112.2 L 179.4 112.2 L 179.5 112.2 L 179.6 112.2 L 179.6 112.2 L 179.7 112.2 L 179.8 112.2 L 179.8 112.2 L 179.9 112.2 L 180.0 112.2 L 180.0 112.2 L 180.1 112.2 L 180.2 112.2 L 180.2 112.2 L 180.3 112.2 L 180.4 112.3 L 180.4 112.3 L 180.5 112.3 L 180.6 112.3 L 180.6 112.3 L 180.7 112.3 L 180.7 112.3 L 180.8 112.3 L 180.9 112.3 L 180.9 112.3 L 181.0 112.3 L 181.1 112.3 L 181.1 112.3 L 181.2 112.3 L 181.3 112.3 L 181.3 112.3 L 181.4 112.4 L 181.5 112.4 L 181.5 112.4 L 181.6 112.4 L 181.7 112.4 L 181.7 112.4 L 181.8 112.4 L 181.9 112.4 L 181.9 112.4 L 182.0 112.4 L 182.1 112.4 L 182.1 112.4 L 182.2 112.4 L 182.3 112.4 L 182.3 112.4 L 182.4 112.4 L 182.5 112.5 L 182.5 112.5 L 182.6 112.5 L 182.6 112.5 L 182.7 112.5 L 182.8 112.5 L 182.8 112.5 L 182.9 112.5 L 183.0 112.5 L 183.0 112.5 L 183.1 112.5 L 183.2 112.5 L 183.2 112.5 L 183.3 112.5 L 183.4 112.5 L 183.4 112.5 L 183.5 112.6 L 183.6 112.6 L 183.6 112.6 L 183.7 112.6 L 183.8 112.6 L 183.8 112.6 L 183.9 112.6 L 184.0 112.6 L 184.0 112.6 L 184.1 112.6 L 184.2 112.6 L 184.2 112.6 L 184.3 112.6 L 184.4 112.6 L 184.4 112.6 L 184.5 112.6 L 184.6 112.7 L 184.6 112.7 L 184.7 112.7 L 184.7 112.7 L 184.8 112.7 L 184.9 112.7 L 184.9 112.7 L 185.0 112.7 L 185.1 112.7 L 185.1 112.7 L 185.2 112.7 L 185.3 112.7 L 185.3 112.7 L 185.4 112.7 L 185.5 112.7 L 185.5 112.7 L 185.6 112.8 L 185.7 112.8 L 185.7 112.8 L 185.8 112.8 L 185.9 112.8 L 185.9 112.8 L 186.0 112.8 L 186.1 112.8 L 186.1 112.8 L 186.2 112.8 L 186.3 112.8 L 186.3 112.8 L 186.4 112.8 L 186.5 112.8 L 186.5 112.8 L 186.6 112.8 L 186.7 112.9 L 186.7 112.9 L 186.8 112.9 L 186.8 112.9 L 186.9 112.9 L 187.0 112.9 L 187.0 112.9 L 187.1 112.9 L 187.2 112.9 L 187.2 112.9 L 187.3 112.9 L 187.4 112.9 L 187.4 112.9 L 187.5 112.9 L 187.6 112.9 L 187.6 112.9 L 187.7 113.0 L 187.8 113.0 L 187.8 113.0 L 187.9 113.0 L 188.0 113.0 L 188.0 113.0 L 188.1 113.0 L 188.2 113.0 L 188.2 113.0 L 188.3 113.0 L 188.4 113.0 L 188.4 113.0 L 188.5 113.0 L 188.6 113.0 L 188.6 113.0 L 188.7 113.0 L 188.8 113.1 L 188.8 113.1 L 188.9 113.1 L 188.9 113.1 L 189.0 113.1 L 189.1 113.1 L 189.1 113.1 L 189.2 113.1 L 189.3 113.1 L 189.3 113.1 L 189.4 113.1 L 189.5 113.1 L 189.5 113.1 L 189.6 113.1 L 189.7 113.1 L 189.7 113.1 L 189.8 113.1 L 189.9 113.2 L 189.9 113.2 L 190.0 113.2 L 190.1 113.2 L 190.1 113.2 L 190.2 113.2 L 190.3 113.2 L 190.3 113.2 L 190.4 113.2 L 190.5 113.2 L 190.5 113.2 L 190.6 113.2 L 190.7 113.2 L 190.7 113.2 L 190.8 113.2 L 190.8 113.2 L 190.9 113.2 L 191.0 113.3 L 191.0 113.3 L 191.1 113.3 L 191.2 113.3 L 191.2 113.3 L 191.3 113.3 L 191.4 113.3 L 191.4 113.3 L 191.5 113.3 L 191.6 113.3 L 191.6 113.3 L 191.7 113.3 L 191.8 113.3 L 191.8 113.3 L 191.9 113.3 L 192.0 113.3 L 192.0 113.3 L 192.1 113.4 L 192.2 113.4 L 192.2 113.4 L 192.3 113.4 L 192.4 113.4 L 192.4 113.4 L 192.5 113.4 L 192.6 113.4 L 192.6 113.4 L 192.7 113.4 L 192.8 113.4 L 192.8 113.4 L 192.9 113.4 L 192.9 113.4 L 193.0 113.4 L 193.1 113.4 L 193.1 113.4 L 193.2 113.5 L 193.3 113.5 L 193.3 113.5 L 193.4 113.5 L 193.5 113.5 L 193.5 113.5 L 193.6 113.5 L 193.7 113.5 L 193.7 113.5 L 193.8 113.5 L 193.9 113.5 L 193.9 113.5 L 194.0 113.5 L 194.1 113.5 L 194.1 113.5 L 194.2 113.5 L 194.3 113.5 L 194.3 113.5 L 194.4 113.6 L 194.5 113.6 L 194.5 113.6 L 194.6 113.6 L 194.7 113.6 L 194.7 113.6 L 194.8 113.6 L 194.9 113.6 L 194.9 113.6 L 195.0 113.6 L 195.0 113.6 L 195.1 113.6 L 195.2 113.6 L 195.2 113.6 L 195.3 113.6 L 195.4 113.6 L 195.4 113.6 L 195.5 113.6 L 195.6 113.7 L 195.6 113.7 L 195.7 113.7 L 195.8 113.7 L 195.8 113.7 L 195.9 113.7 L 196.0 113.7 L 196.0 113.7 L 196.1 113.7 L 196.2 113.7 L 196.2 113.7 L 196.3 113.7 L 196.4 113.7 L 196.4 113.7 L 196.5 113.7 L 196.6 113.7 L 196.6 113.7 L 196.7 113.7 L 196.8 113.8 L 196.8 113.8 L 196.9 113.8 L 197.0 113.8 L 197.0 113.8 L 197.1 113.8 L 197.1 113.8 L 197.2 113.8 L 197.3 113.8 L 197.3 113.8 L 197.4 113.8 L 197.5 113.8 L 197.5 113.8 L 197.6 113.8 L 197.7 113.8 L 197.7 113.8 L 197.8 113.8 L 197.9 113.8 L 197.9 113.9 L 198.0 113.9" fill="none" stroke="#10b981" stroke-width="2.0"/>
<text x="157.0" y="207" text-anchor="middle" font-family="system-ui,-apple-system,Segoe UI,Roboto,sans-serif" font-size="9.5" font-weight="650" fill="#10b981">good</text>
<text x="157.0" y="220" text-anchor="middle" font-family="system-ui,-apple-system,Segoe UI,Roboto,sans-serif" font-size="8" font-weight="400" fill="#64748b">clean</text>
<rect x="210" y="42" width="82" height="150" fill="#f8fafc" stroke="#e2e8f0"/>
<line x1="210" y1="117.0" x2="292" y2="117.0" stroke="#0f172a" stroke-width="0.9" stroke-dasharray="4 3"/>
<path d="M 210.0 182.2 L 210.1 182.2 L 210.1 182.0 L 210.2 181.7 L 210.3 181.4 L 210.3 181.0 L 210.4 180.5 L 210.5 180.0 L 210.5 179.4 L 210.6 178.7 L 210.7 178.0 L 210.7 177.2 L 210.8 176.4 L 210.9 175.5 L 210.9 174.5 L 211.0 173.5 L 211.0 172.5 L 211.1 171.4 L 211.2 170.3 L 211.2 169.1 L 211.3 167.9 L 211.4 166.6 L 211.4 165.3 L 211.5 164.0 L 211.6 162.6 L 211.6 161.2 L 211.7 159.8 L 211.8 158.3 L 211.8 156.8 L 211.9 155.3 L 212.0 153.8 L 212.0 152.2 L 212.1 150.7 L 212.2 149.1 L 212.2 147.5 L 212.3 145.9 L 212.4 144.3 L 212.4 142.6 L 212.5 141.0 L 212.6 139.4 L 212.6 137.7 L 212.7 136.1 L 212.8 134.4 L 212.8 132.8 L 212.9 131.2 L 213.0 129.5 L 213.0 127.9 L 213.1 126.3 L 213.1 124.7 L 213.2 123.1 L 213.3 121.6 L 213.3 120.0 L 213.4 118.5 L 213.5 117.0 L 213.5 115.5 L 213.6 114.0 L 213.7 112.6 L 213.7 111.2 L 213.8 109.8 L 213.9 108.4 L 213.9 107.1 L 214.0 105.8 L 214.1 104.5 L 214.1 103.2 L 214.2 102.0 L 214.3 100.8 L 214.3 99.7 L 214.4 98.6 L 214.5 97.5 L 214.5 96.5 L 214.6 95.5 L 214.7 94.5 L 214.7 93.6 L 214.8 92.7 L 214.9 91.9 L 214.9 91.1 L 215.0 90.3 L 215.1 89.6 L 215.1 88.9 L 215.2 88.3 L 215.2 87.7 L 215.3 87.1 L 215.4 86.6 L 215.4 86.2 L 215.5 85.7 L 215.6 85.4 L 215.6 85.0 L 215.7 84.7 L 215.8 84.4 L 215.8 84.2 L 215.9 84.0 L 216.0 83.9 L 216.0 83.8 L 216.1 83.7 L 216.2 83.7 L 216.2 83.7 L 216.3 83.8 L 216.4 83.9 L 216.4 84.0 L 216.5 84.2 L 216.6 84.4 L 216.6 84.6 L 216.7 84.9 L 216.8 85.2 L 216.8 85.5 L 216.9 85.9 L 217.0 86.3 L 217.0 86.7 L 217.1 87.2 L 217.2 87.7 L 217.2 88.2 L 217.3 88.7 L 217.3 89.3 L 217.4 89.9 L 217.5 90.5 L 217.5 91.2 L 217.6 91.8 L 217.7 92.5 L 217.7 93.2 L 217.8 93.9 L 217.9 94.6 L 217.9 95.4 L 218.0 96.2 L 218.1 96.9 L 218.1 97.7 L 218.2 98.5 L 218.3 99.4 L 218.3 100.2 L 218.4 101.0 L 218.5 101.9 L 218.5 102.7 L 218.6 103.6 L 218.7 104.4 L 218.7 105.3 L 218.8 106.2 L 218.9 107.0 L 218.9 107.9 L 219.0 108.8 L 219.1 109.7 L 219.1 110.5 L 219.2 111.4 L 219.2 112.2 L 219.3 113.1 L 219.4 114.0 L 219.4 114.8 L 219.5 115.6 L 219.6 116.5 L 219.6 117.3 L 219.7 118.1 L 219.8 118.9 L 219.8 119.7 L 219.9 120.4 L 220.0 121.2 L 220.0 121.9 L 220.1 122.7 L 220.2 123.4 L 220.2 124.1 L 220.3 124.8 L 220.4 125.4 L 220.4 126.1 L 220.5 126.7 L 220.6 127.3 L 220.6 127.9 L 220.7 128.5 L 220.8 129.1 L 220.8 129.6 L 220.9 130.1 L 221.0 130.6 L 221.0 131.1 L 221.1 131.6 L 221.2 132.0 L 221.2 132.4 L 221.3 132.8 L 221.3 133.2 L 221.4 133.5 L 221.5 133.8 L 221.5 134.1 L 221.6 134.4 L 221.7 134.7 L 221.7 134.9 L 221.8 135.1 L 221.9 135.3 L 221.9 135.5 L 222.0 135.6 L 222.1 135.8 L 222.1 135.9 L 222.2 135.9 L 222.3 136.0 L 222.3 136.1 L 222.4 136.1 L 222.5 136.1 L 222.5 136.1 L 222.6 136.0 L 222.7 136.0 L 222.7 135.9 L 222.8 135.8 L 222.9 135.7 L 222.9 135.5 L 223.0 135.4 L 223.1 135.2 L 223.1 135.0 L 223.2 134.8 L 223.3 134.6 L 223.3 134.3 L 223.4 134.1 L 223.4 133.8 L 223.5 133.5 L 223.6 133.2 L 223.6 132.9 L 223.7 132.6 L 223.8 132.3 L 223.8 131.9 L 223.9 131.6 L 224.0 131.2 L 224.0 130.8 L 224.1 130.5 L 224.2 130.1 L 224.2 129.7 L 224.3 129.2 L 224.4 128.8 L 224.4 128.4 L 224.5 128.0 L 224.6 127.5 L 224.6 127.1 L 224.7 126.6 L 224.8 126.2 L 224.8 125.7 L 224.9 125.3 L 225.0 124.8 L 225.0 124.4 L 225.1 123.9 L 225.2 123.4 L 225.2 123.0 L 225.3 122.5 L 225.4 122.1 L 225.4 121.6 L 225.5 121.1 L 225.5 120.7 L 225.6 120.2 L 225.7 119.8 L 225.7 119.3 L 225.8 118.9 L 225.9 118.5 L 225.9 118.0 L 226.0 117.6 L 226.1 117.2 L 226.1 116.8 L 226.2 116.4 L 226.3 116.0 L 226.3 115.6 L 226.4 115.2 L 226.5 114.8 L 226.5 114.5 L 226.6 114.1 L 226.7 113.8 L 226.7 113.4 L 226.8 113.1 L 226.9 112.8 L 226.9 112.5 L 227.0 112.2 L 227.1 111.9 L 227.1 111.6 L 227.2 111.3 L 227.3 111.1 L 227.3 110.8 L 227.4 110.6 L 227.4 110.4 L 227.5 110.1 L 227.6 109.9 L 227.6 109.8 L 227.7 109.6 L 227.8 109.4 L 227.8 109.3 L 227.9 109.1 L 228.0 109.0 L 228.0 108.9 L 228.1 108.8 L 228.2 108.7 L 228.2 108.6 L 228.3 108.5 L 228.4 108.4 L 228.4 108.4 L 228.5 108.4 L 228.6 108.3 L 228.6 108.3 L 228.7 108.3 L 228.8 108.3 L 228.8 108.3 L 228.9 108.4 L 229.0 108.4 L 229.0 108.4 L 229.1 108.5 L 229.2 108.6 L 229.2 108.6 L 229.3 108.7 L 229.4 108.8 L 229.4 108.9 L 229.5 109.0 L 229.5 109.2 L 229.6 109.3 L 229.7 109.4 L 229.7 109.6 L 229.8 109.7 L 229.9 109.9 L 229.9 110.1 L 230.0 110.2 L 230.1 110.4 L 230.1 110.6 L 230.2 110.8 L 230.3 111.0 L 230.3 111.2 L 230.4 111.4 L 230.5 111.6 L 230.5 111.8 L 230.6 112.1 L 230.7 112.3 L 230.7 112.5 L 230.8 112.7 L 230.9 113.0 L 230.9 113.2 L 231.0 113.4 L 231.1 113.7 L 231.1 113.9 L 231.2 114.2 L 231.3 114.4 L 231.3 114.7 L 231.4 114.9 L 231.5 115.1 L 231.5 115.4 L 231.6 115.6 L 231.6 115.9 L 231.7 116.1 L 231.8 116.4 L 231.8 116.6 L 231.9 116.8 L 232.0 117.1 L 232.0 117.3 L 232.1 117.5 L 232.2 117.8 L 232.2 118.0 L 232.3 118.2 L 232.4 118.4 L 232.4 118.7 L 232.5 118.9 L 232.6 119.1 L 232.6 119.3 L 232.7 119.5 L 232.8 119.7 L 232.8 119.9 L 232.9 120.1 L 233.0 120.2 L 233.0 120.4 L 233.1 120.6 L 233.2 120.8 L 233.2 120.9 L 233.3 121.1 L 233.4 121.2 L 233.4 121.4 L 233.5 121.5 L 233.6 121.6 L 233.6 121.8 L 233.7 121.9 L 233.7 122.0 L 233.8 122.1 L 233.9 122.2 L 233.9 122.3 L 234.0 122.4 L 234.1 122.5 L 234.1 122.6 L 234.2 122.6 L 234.3 122.7 L 234.3 122.8 L 234.4 122.8 L 234.5 122.9 L 234.5 122.9 L 234.6 123.0 L 234.7 123.0 L 234.7 123.0 L 234.8 123.0 L 234.9 123.0 L 234.9 123.0 L 235.0 123.0 L 235.1 123.0 L 235.1 123.0 L 235.2 123.0 L 235.3 123.0 L 235.3 122.9 L 235.4 122.9 L 235.5 122.9 L 235.5 122.8 L 235.6 122.8 L 235.6 122.7 L 235.7 122.7 L 235.8 122.6 L 235.8 122.5 L 235.9 122.5 L 236.0 122.4 L 236.0 122.3 L 236.1 122.2 L 236.2 122.1 L 236.2 122.1 L 236.3 122.0 L 236.4 121.9 L 236.4 121.8 L 236.5 121.7 L 236.6 121.6 L 236.6 121.4 L 236.7 121.3 L 236.8 121.2 L 236.8 121.1 L 236.9 121.0 L 237.0 120.9 L 237.0 120.7 L 237.1 120.6 L 237.2 120.5 L 237.2 120.4 L 237.3 120.2 L 237.4 120.1 L 237.4 120.0 L 237.5 119.9 L 237.6 119.7 L 237.6 119.6 L 237.7 119.5 L 237.7 119.3 L 237.8 119.2 L 237.9 119.1 L 237.9 119.0 L 238.0 118.8 L 238.1 118.7 L 238.1 118.6 L 238.2 118.4 L 238.3 118.3 L 238.3 118.2 L 238.4 118.1 L 238.5 117.9 L 238.5 117.8 L 238.6 117.7 L 238.7 117.6 L 238.7 117.5 L 238.8 117.4 L 238.9 117.3 L 238.9 117.2 L 239.0 117.0 L 239.1 116.9 L 239.1 116.8 L 239.2 116.7 L 239.3 116.7 L 239.3 116.6 L 239.4 116.5 L 239.5 116.4 L 239.5 116.3 L 239.6 116.2 L 239.7 116.1 L 239.7 116.1 L 239.8 116.0 L 239.8 115.9 L 239.9 115.9 L 240.0 115.8 L 240.0 115.7 L 240.1 115.7 L 240.2 115.6 L 240.2 115.6 L 240.3 115.5 L 240.4 115.5 L 240.4 115.4 L 240.5 115.4 L 240.6 115.4 L 240.6 115.3 L 240.7 115.3 L 240.8 115.3 L 240.8 115.3 L 240.9 115.3 L 241.0 115.2 L 241.0 115.2 L 241.1 115.2 L 241.2 115.2 L 241.2 115.2 L 241.3 115.2 L 241.4 115.2 L 241.4 115.2 L 241.5 115.3 L 241.6 115.3 L 241.6 115.3 L 241.7 115.3 L 241.8 115.3 L 241.8 115.3 L 241.9 115.4 L 241.9 115.4 L 242.0 115.4 L 242.1 115.5 L 242.1 115.5 L 242.2 115.5 L 242.3 115.6 L 242.3 115.6 L 242.4 115.7 L 242.5 115.7 L 242.5 115.8 L 242.6 115.8 L 242.7 115.9 L 242.7 115.9 L 242.8 116.0 L 242.9 116.0 L 242.9 116.1 L 243.0 116.2 L 243.1 116.2 L 243.1 116.3 L 243.2 116.3 L 243.3 116.4 L 243.3 116.5 L 243.4 116.5 L 243.5 116.6 L 243.5 116.7 L 243.6 116.7 L 243.7 116.8 L 243.7 116.9 L 243.8 116.9 L 243.8 117.0 L 243.9 117.1 L 244.0 117.2 L 244.0 117.2 L 244.1 117.3 L 244.2 117.4 L 244.2 117.4 L 244.3 117.5 L 244.4 117.6 L 244.4 117.6 L 244.5 117.7 L 244.6 117.8 L 244.6 117.8 L 244.7 117.9 L 244.8 118.0 L 244.8 118.0 L 244.9 118.1 L 245.0 118.1 L 245.0 118.2 L 245.1 118.3 L 245.2 118.3 L 245.2 118.4 L 245.3 118.4 L 245.4 118.5 L 245.4 118.5 L 245.5 118.6 L 245.6 118.6 L 245.6 118.7 L 245.7 118.7 L 245.8 118.8 L 245.8 118.8 L 245.9 118.9 L 245.9 118.9 L 246.0 118.9 L 246.1 119.0 L 246.1 119.0 L 246.2 119.1 L 246.3 119.1 L 246.3 119.1 L 246.4 119.1 L 246.5 119.2 L 246.5 119.2 L 246.6 119.2 L 246.7 119.2 L 246.7 119.3 L 246.8 119.3 L 246.9 119.3 L 246.9 119.3 L 247.0 119.3 L 247.1 119.3 L 247.1 119.3 L 247.2 119.4 L 247.3 119.4 L 247.3 119.4 L 247.4 119.4 L 247.5 119.4 L 247.5 119.4 L 247.6 119.4 L 247.7 119.4 L 247.7 119.4 L 247.8 119.3 L 247.9 119.3 L 247.9 119.3 L 248.0 119.3 L 248.0 119.3 L 248.1 119.3 L 248.2 119.3 L 248.2 119.3 L 248.3 119.2 L 248.4 119.2 L 248.4 119.2 L 248.5 119.2 L 248.6 119.2 L 248.6 119.1 L 248.7 119.1 L 248.8 119.1 L 248.8 119.1 L 248.9 119.0 L 249.0 119.0 L 249.0 119.0 L 249.1 118.9 L 249.2 118.9 L 249.2 118.9 L 249.3 118.9 L 249.4 118.8 L 249.4 118.8 L 249.5 118.8 L 249.6 118.7 L 249.6 118.7 L 249.7 118.6 L 249.8 118.6 L 249.8 118.6 L 249.9 118.5 L 250.0 118.5 L 250.0 118.5 L 250.1 118.4 L 250.1 118.4 L 250.2 118.4 L 250.3 118.3 L 250.3 118.3 L 250.4 118.3 L 250.5 118.2 L 250.5 118.2 L 250.6 118.1 L 250.7 118.1 L 250.7 118.1 L 250.8 118.0 L 250.9 118.0 L 250.9 118.0 L 251.0 117.9 L 251.1 117.9 L 251.1 117.9 L 251.2 117.8 L 251.3 117.8 L 251.3 117.8 L 251.4 117.7 L 251.5 117.7 L 251.5 117.7 L 251.6 117.7 L 251.7 117.6 L 251.7 117.6 L 251.8 117.6 L 251.9 117.5 L 251.9 117.5 L 252.0 117.5 L 252.0 117.5 L 252.1 117.4 L 252.2 117.4 L 252.2 117.4 L 252.3 117.4 L 252.4 117.4 L 252.4 117.3 L 252.5 117.3 L 252.6 117.3 L 252.6 117.3 L 252.7 117.3 L 252.8 117.3 L 252.8 117.3 L 252.9 117.2 L 253.0 117.2 L 253.0 117.2 L 253.1 117.2 L 253.2 117.2 L 253.2 117.2 L 253.3 117.2 L 253.4 117.2 L 253.4 117.2 L 253.5 117.2 L 253.6 117.2 L 253.6 117.2 L 253.7 117.2 L 253.8 117.2 L 253.8 117.2 L 253.9 117.2 L 254.0 117.2 L 254.0 117.2 L 254.1 117.2 L 254.1 117.2 L 254.2 117.2 L 254.3 117.2 L 254.3 117.2 L 254.4 117.2 L 254.5 117.2 L 254.5 117.2 L 254.6 117.2 L 254.7 117.3 L 254.7 117.3 L 254.8 117.3 L 254.9 117.3 L 254.9 117.3 L 255.0 117.3 L 255.1 117.3 L 255.1 117.3 L 255.2 117.4 L 255.3 117.4 L 255.3 117.4 L 255.4 117.4 L 255.5 117.4 L 255.5 117.4 L 255.6 117.5 L 255.7 117.5 L 255.7 117.5 L 255.8 117.5 L 255.9 117.5 L 255.9 117.5 L 256.0 117.6 L 256.1 117.6 L 256.1 117.6 L 256.2 117.6 L 256.2 117.6 L 256.3 117.7 L 256.4 117.7 L 256.4 117.7 L 256.5 117.7 L 256.6 117.7 L 256.6 117.8 L 256.7 117.8 L 256.8 117.8 L 256.8 117.8 L 256.9 117.8 L 257.0 117.8 L 257.0 117.9 L 257.1 117.9 L 257.2 117.9 L 257.2 117.9 L 257.3 117.9 L 257.4 118.0 L 257.4 118.0 L 257.5 118.0 L 257.6 118.0 L 257.6 118.0 L 257.7 118.0 L 257.8 118.1 L 257.8 118.1 L 257.9 118.1 L 258.0 118.1 L 258.0 118.1 L 258.1 118.1 L 258.2 118.1 L 258.2 118.2 L 258.3 118.2 L 258.3 118.2 L 258.4 118.2 L 258.5 118.2 L 258.5 118.2 L 258.6 118.2 L 258.7 118.2 L 258.7 118.2 L 258.8 118.3 L 258.9 118.3 L 258.9 118.3 L 259.0 118.3 L 259.1 118.3 L 259.1 118.3 L 259.2 118.3 L 259.3 118.3 L 259.3 118.3 L 259.4 118.3 L 259.5 118.3 L 259.5 118.3 L 259.6 118.3 L 259.7 118.3 L 259.7 118.3 L 259.8 118.3 L 259.9 118.3 L 259.9 118.3 L 260.0 118.3 L 260.1 118.3 L 260.1 118.3 L 260.2 118.3 L 260.2 118.3 L 260.3 118.3 L 260.4 118.3 L 260.4 118.3 L 260.5 118.3 L 260.6 118.3 L 260.6 118.3 L 260.7 118.3 L 260.8 118.3 L 260.8 118.3 L 260.9 118.3 L 261.0 118.3 L 261.0 118.3 L 261.1 118.3 L 261.2 118.3 L 261.2 118.3 L 261.3 118.3 L 261.4 118.2 L 261.4 118.2 L 261.5 118.2 L 261.6 118.2 L 261.6 118.2 L 261.7 118.2 L 261.8 118.2 L 261.8 118.2 L 261.9 118.2 L 262.0 118.2 L 262.0 118.2 L 262.1 118.2 L 262.2 118.1 L 262.2 118.1 L 262.3 118.1 L 262.3 118.1 L 262.4 118.1 L 262.5 118.1 L 262.5 118.1 L 262.6 118.1 L 262.7 118.1 L 262.7 118.1 L 262.8 118.0 L 262.9 118.0 L 262.9 118.0 L 263.0 118.0 L 263.1 118.0 L 263.1 118.0 L 263.2 118.0 L 263.3 118.0 L 263.3 118.0 L 263.4 118.0 L 263.5 117.9 L 263.5 117.9 L 263.6 117.9 L 263.7 117.9 L 263.7 117.9 L 263.8 117.9 L 263.9 117.9 L 263.9 117.9 L 264.0 117.9 L 264.1 117.9 L 264.1 117.9 L 264.2 117.8 L 264.3 117.8 L 264.3 117.8 L 264.4 117.8 L 264.4 117.8 L 264.5 117.8 L 264.6 117.8 L 264.6 117.8 L 264.7 117.8 L 264.8 117.8 L 264.8 117.8 L 264.9 117.8 L 265.0 117.8 L 265.0 117.8 L 265.1 117.8 L 265.2 117.8 L 265.2 117.7 L 265.3 117.7 L 265.4 117.7 L 265.4 117.7 L 265.5 117.7 L 265.6 117.7 L 265.6 117.7 L 265.7 117.7 L 265.8 117.7 L 265.8 117.7 L 265.9 117.7 L 266.0 117.7 L 266.0 117.7 L 266.1 117.7 L 266.2 117.7 L 266.2 117.7 L 266.3 117.7 L 266.4 117.7 L 266.4 117.7 L 266.5 117.7 L 266.5 117.7 L 266.6 117.7 L 266.7 117.7 L 266.7 117.7 L 266.8 117.7 L 266.9 117.7 L 266.9 117.7 L 267.0 117.7 L 267.1 117.7 L 267.1 117.7 L 267.2 117.7 L 267.3 117.7 L 267.3 117.7 L 267.4 117.8 L 267.5 117.8 L 267.5 117.8 L 267.6 117.8 L 267.7 117.8 L 267.7 117.8 L 267.8 117.8 L 267.9 117.8 L 267.9 117.8 L 268.0 117.8 L 268.1 117.8 L 268.1 117.8 L 268.2 117.8 L 268.3 117.8 L 268.3 117.8 L 268.4 117.8 L 268.4 117.8 L 268.5 117.8 L 268.6 117.8 L 268.6 117.8 L 268.7 117.8 L 268.8 117.8 L 268.8 117.9 L 268.9 117.9 L 269.0 117.9 L 269.0 117.9 L 269.1 117.9 L 269.2 117.9 L 269.2 117.9 L 269.3 117.9 L 269.4 117.9 L 269.4 117.9 L 269.5 117.9 L 269.6 117.9 L 269.6 117.9 L 269.7 117.9 L 269.8 117.9 L 269.8 117.9 L 269.9 117.9 L 270.0 117.9 L 270.0 117.9 L 270.1 118.0 L 270.2 118.0 L 270.2 118.0 L 270.3 118.0 L 270.4 118.0 L 270.4 118.0 L 270.5 118.0 L 270.5 118.0 L 270.6 118.0 L 270.7 118.0 L 270.7 118.0 L 270.8 118.0 L 270.9 118.0 L 270.9 118.0 L 271.0 118.0 L 271.1 118.0 L 271.1 118.0 L 271.2 118.0 L 271.3 118.0 L 271.3 118.0 L 271.4 118.0 L 271.5 118.0 L 271.5 118.0 L 271.6 118.0 L 271.7 118.0 L 271.7 118.0 L 271.8 118.0 L 271.9 118.0 L 271.9 118.0 L 272.0 118.0 L 272.1 118.0 L 272.1 118.0 L 272.2 118.0 L 272.3 118.0 L 272.3 118.0 L 272.4 118.0 L 272.5 118.0 L 272.5 118.0 L 272.6 118.0 L 272.6 118.0 L 272.7 118.0 L 272.8 118.0 L 272.8 118.0 L 272.9 118.0 L 273.0 118.0 L 273.0 118.0 L 273.1 118.0 L 273.2 118.0 L 273.2 118.0 L 273.3 118.0 L 273.4 118.0 L 273.4 118.0 L 273.5 118.0 L 273.6 118.0 L 273.6 118.0 L 273.7 118.0 L 273.8 118.0 L 273.8 118.0 L 273.9 118.0 L 274.0 118.0 L 274.0 118.0 L 274.1 118.0 L 274.2 118.0 L 274.2 118.0 L 274.3 118.0 L 274.4 118.0 L 274.4 118.0 L 274.5 118.0 L 274.6 118.0 L 274.6 118.0 L 274.7 118.0 L 274.7 118.0 L 274.8 118.0 L 274.9 118.0 L 274.9 118.0 L 275.0 118.0 L 275.1 118.0 L 275.1 118.0 L 275.2 118.0 L 275.3 118.0 L 275.3 118.0 L 275.4 118.0 L 275.5 118.0 L 275.5 118.0 L 275.6 118.0 L 275.7 117.9 L 275.7 117.9 L 275.8 117.9 L 275.9 117.9 L 275.9 117.9 L 276.0 117.9 L 276.1 117.9 L 276.1 117.9 L 276.2 117.9 L 276.3 117.9 L 276.3 117.9 L 276.4 117.9 L 276.5 117.9 L 276.5 117.9 L 276.6 117.9 L 276.6 117.9 L 276.7 117.9 L 276.8 117.9 L 276.8 117.9 L 276.9 117.9 L 277.0 117.9 L 277.0 117.9 L 277.1 117.9 L 277.2 117.9 L 277.2 117.9 L 277.3 117.9 L 277.4 117.9 L 277.4 117.9 L 277.5 117.9 L 277.6 117.9 L 277.6 117.9 L 277.7 117.9 L 277.8 117.9 L 277.8 117.9 L 277.9 117.9 L 278.0 117.9 L 278.0 117.9 L 278.1 117.9 L 278.2 117.9 L 278.2 117.9 L 278.3 117.9 L 278.4 117.9 L 278.4 117.9 L 278.5 117.9 L 278.6 117.9 L 278.6 117.9 L 278.7 117.9 L 278.7 117.9 L 278.8 117.9 L 278.9 117.9 L 278.9 117.9 L 279.0 117.9 L 279.1 117.9 L 279.1 117.9 L 279.2 117.9 L 279.3 117.9 L 279.3 117.9 L 279.4 117.9 L 279.5 117.9 L 279.5 117.9 L 279.6 117.9 L 279.7 117.9 L 279.7 117.9 L 279.8 117.9 L 279.9 117.9 L 279.9 117.9 L 280.0 117.9 L 280.1 117.9 L 280.1 117.9 L 280.2 117.9 L 280.3 117.9 L 280.3 117.9 L 280.4 117.9 L 280.5 117.9 L 280.5 117.9 L 280.6 117.9 L 280.7 117.9 L 280.7 117.9 L 280.8 117.9 L 280.8 117.9 L 280.9 117.9 L 281.0 117.9 L 281.0 117.9 L 281.1 117.9 L 281.2 117.9 L 281.2 117.9 L 281.3 117.9 L 281.4 117.9 L 281.4 117.9 L 281.5 117.9 L 281.6 117.9 L 281.6 117.9 L 281.7 117.9 L 281.8 117.9 L 281.8 117.9 L 281.9 117.9 L 282.0 117.9 L 282.0 117.9 L 282.1 117.9 L 282.2 117.9 L 282.2 117.9 L 282.3 117.9 L 282.4 117.9 L 282.4 117.9 L 282.5 117.9 L 282.6 117.9 L 282.6 117.9 L 282.7 117.9 L 282.8 117.9 L 282.8 117.9 L 282.9 117.9 L 282.9 117.9 L 283.0 117.9 L 283.1 117.9 L 283.1 117.9 L 283.2 117.9 L 283.3 117.9 L 283.3 118.0 L 283.4 118.0 L 283.5 118.0 L 283.5 118.0 L 283.6 118.0 L 283.7 118.0 L 283.7 118.0 L 283.8 118.0 L 283.9 118.0 L 283.9 118.0 L 284.0 118.0 L 284.1 118.0 L 284.1 118.0 L 284.2 118.0 L 284.3 118.0 L 284.3 118.0 L 284.4 118.0 L 284.5 118.0 L 284.5 118.0 L 284.6 118.0 L 284.7 118.0 L 284.7 118.0 L 284.8 118.0 L 284.8 118.0 L 284.9 118.0 L 285.0 118.0 L 285.0 118.0 L 285.1 118.0 L 285.2 118.0 L 285.2 118.0 L 285.3 118.0 L 285.4 118.0 L 285.4 118.0 L 285.5 118.0 L 285.6 118.0 L 285.6 118.0 L 285.7 118.0 L 285.8 118.0 L 285.8 118.0 L 285.9 118.0 L 286.0 118.0 L 286.0 118.0 L 286.1 118.0 L 286.2 118.0 L 286.2 118.0 L 286.3 118.0 L 286.4 118.0 L 286.4 118.0 L 286.5 118.0 L 286.6 118.0 L 286.6 118.0 L 286.7 118.0 L 286.8 118.0 L 286.8 118.0 L 286.9 118.0 L 286.9 118.0 L 287.0 118.0 L 287.1 117.9 L 287.1 117.9 L 287.2 117.9 L 287.3 117.9 L 287.3 117.9 L 287.4 117.9 L 287.5 117.9 L 287.5 117.9 L 287.6 117.9 L 287.7 117.9 L 287.7 117.9 L 287.8 117.9 L 287.9 117.9 L 287.9 117.9 L 288.0 117.9 L 288.1 117.9 L 288.1 117.9 L 288.2 117.9 L 288.3 117.9 L 288.3 117.9 L 288.4 117.9 L 288.5 117.9 L 288.5 117.9 L 288.6 117.9 L 288.7 117.9 L 288.7 117.9 L 288.8 117.9 L 288.9 117.9 L 288.9 117.9 L 289.0 117.9 L 289.0 117.9 L 289.1 117.9 L 289.2 117.9 L 289.2 117.9 L 289.3 117.9 L 289.4 117.9 L 289.4 117.9 L 289.5 117.9 L 289.6 117.9 L 289.6 117.9 L 289.7 117.9 L 289.8 117.9 L 289.8 117.9 L 289.9 117.9 L 290.0 117.9 L 290.0 117.9 L 290.1 117.9 L 290.2 117.9 L 290.2 117.9 L 290.3 117.9 L 290.4 117.9 L 290.4 117.9 L 290.5 117.9 L 290.6 117.9 L 290.6 117.9 L 290.7 117.9 L 290.8 117.9 L 290.8 117.9 L 290.9 117.9 L 291.0 117.9 L 291.0 117.9 L 291.1 117.9 L 291.1 117.9 L 291.2 117.9 L 291.3 117.9 L 291.3 117.9 L 291.4 117.9 L 291.5 117.9 L 291.5 117.9 L 291.6 117.9 L 291.7 117.9 L 291.7 117.9 L 291.8 117.9 L 291.9 117.9 L 291.9 117.9 L 292.0 117.9" fill="none" stroke="#d97706" stroke-width="2.0"/>
<text x="251.0" y="207" text-anchor="middle" font-family="system-ui,-apple-system,Segoe UI,Roboto,sans-serif" font-size="9.5" font-weight="650" fill="#d97706">too strong</text>
<text x="251.0" y="220" text-anchor="middle" font-family="system-ui,-apple-system,Segoe UI,Roboto,sans-serif" font-size="8" font-weight="400" fill="#64748b">overshoot</text>
<rect x="304" y="42" width="82" height="150" fill="#f8fafc" stroke="#e2e8f0"/>
<line x1="304" y1="117.0" x2="386" y2="117.0" stroke="#0f172a" stroke-width="0.9" stroke-dasharray="4 3"/>
<path d="M 304.0 182.2 L 304.1 182.2 L 304.1 182.2 L 304.2 182.2 L 304.3 182.2 L 304.3 182.1 L 304.4 182.1 L 304.5 182.0 L 304.5 181.9 L 304.6 181.8 L 304.7 181.7 L 304.7 181.6 L 304.8 181.5 L 304.9 181.4 L 304.9 181.3 L 305.0 181.1 L 305.0 181.0 L 305.1 180.8 L 305.2 180.6 L 305.2 180.4 L 305.3 180.2 L 305.4 180.0 L 305.4 179.8 L 305.5 179.6 L 305.6 179.4 L 305.6 179.1 L 305.7 178.9 L 305.8 178.6 L 305.8 178.3 L 305.9 178.0 L 306.0 177.7 L 306.0 177.4 L 306.1 177.1 L 306.2 176.8 L 306.2 176.5 L 306.3 176.1 L 306.4 175.8 L 306.4 175.4 L 306.5 175.0 L 306.6 174.6 L 306.6 174.2 L 306.7 173.8 L 306.8 173.4 L 306.8 173.0 L 306.9 172.6 L 307.0 172.2 L 307.0 171.7 L 307.1 171.3 L 307.1 170.8 L 307.2 170.3 L 307.3 169.8 L 307.3 169.4 L 307.4 168.9 L 307.5 168.4 L 307.5 167.8 L 307.6 167.3 L 307.7 166.8 L 307.7 166.3 L 307.8 165.7 L 307.9 165.2 L 307.9 164.6 L 308.0 164.0 L 308.1 163.5 L 308.1 162.9 L 308.2 162.3 L 308.3 161.7 L 308.3 161.1 L 308.4 160.5 L 308.5 159.9 L 308.5 159.2 L 308.6 158.6 L 308.7 158.0 L 308.7 157.3 L 308.8 156.7 L 308.9 156.0 L 308.9 155.3 L 309.0 154.7 L 309.1 154.0 L 309.1 153.3 L 309.2 152.6 L 309.2 151.9 L 309.3 151.2 L 309.4 150.5 L 309.4 149.8 L 309.5 149.1 L 309.6 148.4 L 309.6 147.7 L 309.7 146.9 L 309.8 146.2 L 309.8 145.4 L 309.9 144.7 L 310.0 144.0 L 310.0 143.2 L 310.1 142.4 L 310.2 141.7 L 310.2 140.9 L 310.3 140.1 L 310.4 139.4 L 310.4 138.6 L 310.5 137.8 L 310.6 137.0 L 310.6 136.2 L 310.7 135.5 L 310.8 134.7 L 310.8 133.9 L 310.9 133.1 L 311.0 132.3 L 311.0 131.5 L 311.1 130.7 L 311.2 129.9 L 311.2 129.0 L 311.3 128.2 L 311.3 127.4 L 311.4 126.6 L 311.5 125.8 L 311.5 125.0 L 311.6 124.1 L 311.7 123.3 L 311.7 122.5 L 311.8 121.7 L 311.9 120.9 L 311.9 120.0 L 312.0 119.2 L 312.1 118.4 L 312.1 117.6 L 312.2 116.7 L 312.3 115.9 L 312.3 115.1 L 312.4 114.3 L 312.5 113.4 L 312.5 112.6 L 312.6 111.8 L 312.7 111.0 L 312.7 110.2 L 312.8 109.3 L 312.9 108.5 L 312.9 107.7 L 313.0 106.9 L 313.1 106.1 L 313.1 105.3 L 313.2 104.4 L 313.2 103.6 L 313.3 102.8 L 313.4 102.0 L 313.4 101.2 L 313.5 100.4 L 313.6 99.6 L 313.6 98.8 L 313.7 98.0 L 313.8 97.3 L 313.8 96.5 L 313.9 95.7 L 314.0 94.9 L 314.0 94.1 L 314.1 93.4 L 314.2 92.6 L 314.2 91.8 L 314.3 91.1 L 314.4 90.3 L 314.4 89.6 L 314.5 88.8 L 314.6 88.1 L 314.6 87.3 L 314.7 86.6 L 314.8 85.9 L 314.8 85.2 L 314.9 84.4 L 315.0 83.7 L 315.0 83.0 L 315.1 82.3 L 315.2 81.6 L 315.2 80.9 L 315.3 80.3 L 315.3 79.6 L 315.4 78.9 L 315.5 78.2 L 315.5 77.6 L 315.6 76.9 L 315.7 76.3 L 315.7 75.6 L 315.8 75.0 L 315.9 74.4 L 315.9 73.7 L 316.0 73.1 L 316.1 72.5 L 316.1 71.9 L 316.2 71.3 L 316.3 70.8 L 316.3 70.2 L 316.4 69.6 L 316.5 69.0 L 316.5 68.5 L 316.6 67.9 L 316.7 67.4 L 316.7 66.9 L 316.8 66.3 L 316.9 65.8 L 316.9 65.3 L 317.0 64.8 L 317.1 64.3 L 317.1 63.8 L 317.2 63.4 L 317.3 62.9 L 317.3 62.5 L 317.4 62.0 L 317.4 61.6 L 317.5 61.1 L 317.6 60.7 L 317.6 60.3 L 317.7 59.9 L 317.8 59.5 L 317.8 59.1 L 317.9 58.7 L 318.0 58.4 L 318.0 58.0 L 318.1 57.7 L 318.2 57.3 L 318.2 57.0 L 318.3 56.7 L 318.4 56.4 L 318.4 56.1 L 318.5 55.8 L 318.6 55.5 L 318.6 55.2 L 318.7 55.0 L 318.8 54.7 L 318.8 54.5 L 318.9 54.3 L 319.0 54.0 L 319.0 53.8 L 319.1 53.6 L 319.2 53.4 L 319.2 53.3 L 319.3 53.1 L 319.4 52.9 L 319.4 52.8 L 319.5 52.6 L 319.5 52.5 L 319.6 52.4 L 319.7 52.3 L 319.7 52.2 L 319.8 52.1 L 319.9 52.0 L 319.9 52.0 L 320.0 51.9 L 320.1 51.9 L 320.1 51.8 L 320.2 51.8 L 320.3 51.8 L 320.3 51.8 L 320.4 51.8 L 320.5 51.8 L 320.5 51.8 L 320.6 51.9 L 320.7 51.9 L 320.7 52.0 L 320.8 52.0 L 320.9 52.1 L 320.9 52.2 L 321.0 52.3 L 321.1 52.4 L 321.1 52.5 L 321.2 52.7 L 321.3 52.8 L 321.3 53.0 L 321.4 53.1 L 321.4 53.3 L 321.5 53.5 L 321.6 53.7 L 321.6 53.9 L 321.7 54.1 L 321.8 54.3 L 321.8 54.6 L 321.9 54.8 L 322.0 55.1 L 322.0 55.3 L 322.1 55.6 L 322.2 55.9 L 322.2 56.2 L 322.3 56.5 L 322.4 56.8 L 322.4 57.1 L 322.5 57.4 L 322.6 57.8 L 322.6 58.1 L 322.7 58.5 L 322.8 58.8 L 322.8 59.2 L 322.9 59.6 L 323.0 60.0 L 323.0 60.4 L 323.1 60.8 L 323.2 61.3 L 323.2 61.7 L 323.3 62.1 L 323.4 62.6 L 323.4 63.0 L 323.5 63.5 L 323.5 64.0 L 323.6 64.5 L 323.7 65.0 L 323.7 65.5 L 323.8 66.0 L 323.9 66.5 L 323.9 67.0 L 324.0 67.5 L 324.1 68.1 L 324.1 68.6 L 324.2 69.2 L 324.3 69.8 L 324.3 70.3 L 324.4 70.9 L 324.5 71.5 L 324.5 72.1 L 324.6 72.7 L 324.7 73.3 L 324.7 73.9 L 324.8 74.5 L 324.9 75.2 L 324.9 75.8 L 325.0 76.5 L 325.1 77.1 L 325.1 77.8 L 325.2 78.4 L 325.3 79.1 L 325.3 79.8 L 325.4 80.4 L 325.5 81.1 L 325.5 81.8 L 325.6 82.5 L 325.6 83.2 L 325.7 83.9 L 325.8 84.6 L 325.8 85.4 L 325.9 86.1 L 326.0 86.8 L 326.0 87.5 L 326.1 88.3 L 326.2 89.0 L 326.2 89.8 L 326.3 90.5 L 326.4 91.3 L 326.4 92.0 L 326.5 92.8 L 326.6 93.6 L 326.6 94.3 L 326.7 95.1 L 326.8 95.9 L 326.8 96.7 L 326.9 97.5 L 327.0 98.3 L 327.0 99.0 L 327.1 99.8 L 327.2 100.6 L 327.2 101.4 L 327.3 102.2 L 327.4 103.0 L 327.4 103.9 L 327.5 104.7 L 327.6 105.5 L 327.6 106.3 L 327.7 107.1 L 327.7 107.9 L 327.8 108.7 L 327.9 109.6 L 327.9 110.4 L 328.0 111.2 L 328.1 112.0 L 328.1 112.8 L 328.2 113.7 L 328.3 114.5 L 328.3 115.3 L 328.4 116.1 L 328.5 117.0 L 328.5 117.8 L 328.6 118.6 L 328.7 119.4 L 328.7 120.3 L 328.8 121.1 L 328.9 121.9 L 328.9 122.7 L 329.0 123.6 L 329.1 124.4 L 329.1 125.2 L 329.2 126.0 L 329.3 126.8 L 329.3 127.6 L 329.4 128.5 L 329.5 129.3 L 329.5 130.1 L 329.6 130.9 L 329.6 131.7 L 329.7 132.5 L 329.8 133.3 L 329.8 134.1 L 329.9 134.9 L 330.0 135.7 L 330.0 136.5 L 330.1 137.2 L 330.2 138.0 L 330.2 138.8 L 330.3 139.6 L 330.4 140.4 L 330.4 141.1 L 330.5 141.9 L 330.6 142.7 L 330.6 143.4 L 330.7 144.2 L 330.8 144.9 L 330.8 145.6 L 330.9 146.4 L 331.0 147.1 L 331.0 147.9 L 331.1 148.6 L 331.2 149.3 L 331.2 150.0 L 331.3 150.7 L 331.4 151.4 L 331.4 152.1 L 331.5 152.8 L 331.6 153.5 L 331.6 154.2 L 331.7 154.9 L 331.7 155.5 L 331.8 156.2 L 331.9 156.8 L 331.9 157.5 L 332.0 158.1 L 332.1 158.8 L 332.1 159.4 L 332.2 160.0 L 332.3 160.6 L 332.3 161.3 L 332.4 161.9 L 332.5 162.4 L 332.5 163.0 L 332.6 163.6 L 332.7 164.2 L 332.7 164.8 L 332.8 165.3 L 332.9 165.9 L 332.9 166.4 L 333.0 166.9 L 333.1 167.5 L 333.1 168.0 L 333.2 168.5 L 333.3 169.0 L 333.3 169.5 L 333.4 170.0 L 333.5 170.5 L 333.5 170.9 L 333.6 171.4 L 333.7 171.8 L 333.7 172.3 L 333.8 172.7 L 333.8 173.1 L 333.9 173.6 L 334.0 174.0 L 334.0 174.4 L 334.1 174.7 L 334.2 175.1 L 334.2 175.5 L 334.3 175.9 L 334.4 176.2 L 334.4 176.5 L 334.5 176.9 L 334.6 177.2 L 334.6 177.5 L 334.7 177.8 L 334.8 178.1 L 334.8 178.4 L 334.9 178.7 L 335.0 178.9 L 335.0 179.2 L 335.1 179.4 L 335.2 179.7 L 335.2 179.9 L 335.3 180.1 L 335.4 180.3 L 335.4 180.5 L 335.5 180.7 L 335.6 180.8 L 335.6 181.0 L 335.7 181.2 L 335.8 181.3 L 335.8 181.4 L 335.9 181.6 L 335.9 181.7 L 336.0 181.8 L 336.1 181.9 L 336.1 181.9 L 336.2 182.0 L 336.3 182.1 L 336.3 182.1 L 336.4 182.2 L 336.5 182.2 L 336.5 182.2 L 336.6 182.2 L 336.7 182.2 L 336.7 182.2 L 336.8 182.2 L 336.9 182.1 L 336.9 182.1 L 337.0 182.0 L 337.1 182.0 L 337.1 181.9 L 337.2 181.8 L 337.3 181.7 L 337.3 181.6 L 337.4 181.5 L 337.5 181.4 L 337.5 181.2 L 337.6 181.1 L 337.7 180.9 L 337.7 180.8 L 337.8 180.6 L 337.8 180.4 L 337.9 180.2 L 338.0 180.0 L 338.0 179.8 L 338.1 179.5 L 338.2 179.3 L 338.2 179.0 L 338.3 178.8 L 338.4 178.5 L 338.4 178.2 L 338.5 177.9 L 338.6 177.6 L 338.6 177.3 L 338.7 177.0 L 338.8 176.7 L 338.8 176.4 L 338.9 176.0 L 339.0 175.7 L 339.0 175.3 L 339.1 174.9 L 339.2 174.5 L 339.2 174.1 L 339.3 173.7 L 339.4 173.3 L 339.4 172.9 L 339.5 172.5 L 339.6 172.0 L 339.6 171.6 L 339.7 171.1 L 339.8 170.7 L 339.8 170.2 L 339.9 169.7 L 339.9 169.2 L 340.0 168.7 L 340.1 168.2 L 340.1 167.7 L 340.2 167.2 L 340.3 166.7 L 340.3 166.1 L 340.4 165.6 L 340.5 165.0 L 340.5 164.4 L 340.6 163.9 L 340.7 163.3 L 340.7 162.7 L 340.8 162.1 L 340.9 161.5 L 340.9 160.9 L 341.0 160.3 L 341.1 159.7 L 341.1 159.1 L 341.2 158.4 L 341.3 157.8 L 341.3 157.1 L 341.4 156.5 L 341.5 155.8 L 341.5 155.2 L 341.6 154.5 L 341.7 153.8 L 341.7 153.1 L 341.8 152.4 L 341.9 151.7 L 341.9 151.0 L 342.0 150.3 L 342.0 149.6 L 342.1 148.9 L 342.2 148.2 L 342.2 147.5 L 342.3 146.7 L 342.4 146.0 L 342.4 145.2 L 342.5 144.5 L 342.6 143.7 L 342.6 143.0 L 342.7 142.2 L 342.8 141.5 L 342.8 140.7 L 342.9 139.9 L 343.0 139.2 L 343.0 138.4 L 343.1 137.6 L 343.2 136.8 L 343.2 136.0 L 343.3 135.2 L 343.4 134.4 L 343.4 133.6 L 343.5 132.9 L 343.6 132.0 L 343.6 131.2 L 343.7 130.4 L 343.8 129.6 L 343.8 128.8 L 343.9 128.0 L 344.0 127.2 L 344.0 126.4 L 344.1 125.6 L 344.1 124.7 L 344.2 123.9 L 344.3 123.1 L 344.3 122.3 L 344.4 121.5 L 344.5 120.6 L 344.5 119.8 L 344.6 119.0 L 344.7 118.2 L 344.7 117.3 L 344.8 116.5 L 344.9 115.7 L 344.9 114.9 L 345.0 114.0 L 345.1 113.2 L 345.1 112.4 L 345.2 111.6 L 345.3 110.7 L 345.3 109.9 L 345.4 109.1 L 345.5 108.3 L 345.5 107.5 L 345.6 106.7 L 345.7 105.8 L 345.7 105.0 L 345.8 104.2 L 345.9 103.4 L 345.9 102.6 L 346.0 101.8 L 346.0 101.0 L 346.1 100.2 L 346.2 99.4 L 346.2 98.6 L 346.3 97.8 L 346.4 97.0 L 346.4 96.3 L 346.5 95.5 L 346.6 94.7 L 346.6 93.9 L 346.7 93.2 L 346.8 92.4 L 346.8 91.6 L 346.9 90.9 L 347.0 90.1 L 347.0 89.4 L 347.1 88.6 L 347.2 87.9 L 347.2 87.1 L 347.3 86.4 L 347.4 85.7 L 347.4 85.0 L 347.5 84.2 L 347.6 83.5 L 347.6 82.8 L 347.7 82.1 L 347.8 81.4 L 347.8 80.7 L 347.9 80.1 L 348.0 79.4 L 348.0 78.7 L 348.1 78.1 L 348.1 77.4 L 348.2 76.7 L 348.3 76.1 L 348.3 75.5 L 348.4 74.8 L 348.5 74.2 L 348.5 73.6 L 348.6 73.0 L 348.7 72.4 L 348.7 71.8 L 348.8 71.2 L 348.9 70.6 L 348.9 70.0 L 349.0 69.4 L 349.1 68.9 L 349.1 68.3 L 349.2 67.8 L 349.3 67.3 L 349.3 66.7 L 349.4 66.2 L 349.5 65.7 L 349.5 65.2 L 349.6 64.7 L 349.7 64.2 L 349.7 63.7 L 349.8 63.2 L 349.9 62.8 L 349.9 62.3 L 350.0 61.9 L 350.1 61.4 L 350.1 61.0 L 350.2 60.6 L 350.2 60.2 L 350.3 59.8 L 350.4 59.4 L 350.4 59.0 L 350.5 58.6 L 350.6 58.3 L 350.6 57.9 L 350.7 57.6 L 350.8 57.2 L 350.8 56.9 L 350.9 56.6 L 351.0 56.3 L 351.0 56.0 L 351.1 55.7 L 351.2 55.4 L 351.2 55.2 L 351.3 54.9 L 351.4 54.7 L 351.4 54.4 L 351.5 54.2 L 351.6 54.0 L 351.6 53.8 L 351.7 53.6 L 351.8 53.4 L 351.8 53.2 L 351.9 53.0 L 352.0 52.9 L 352.0 52.7 L 352.1 52.6 L 352.2 52.5 L 352.2 52.4 L 352.3 52.3 L 352.3 52.2 L 352.4 52.1 L 352.5 52.0 L 352.5 51.9 L 352.6 51.9 L 352.7 51.8 L 352.7 51.8 L 352.8 51.8 L 352.9 51.8 L 352.9 51.8 L 353.0 51.8 L 353.1 51.8 L 353.1 51.8 L 353.2 51.9 L 353.3 51.9 L 353.3 52.0 L 353.4 52.1 L 353.5 52.2 L 353.5 52.2 L 353.6 52.3 L 353.7 52.5 L 353.7 52.6 L 353.8 52.7 L 353.9 52.9 L 353.9 53.0 L 354.0 53.2 L 354.1 53.4 L 354.1 53.5 L 354.2 53.7 L 354.2 53.9 L 354.3 54.2 L 354.4 54.4 L 354.4 54.6 L 354.5 54.9 L 354.6 55.1 L 354.6 55.4 L 354.7 55.7 L 354.8 55.9 L 354.8 56.2 L 354.9 56.5 L 355.0 56.9 L 355.0 57.2 L 355.1 57.5 L 355.2 57.9 L 355.2 58.2 L 355.3 58.6 L 355.4 58.9 L 355.4 59.3 L 355.5 59.7 L 355.6 60.1 L 355.6 60.5 L 355.7 60.9 L 355.8 61.4 L 355.8 61.8 L 355.9 62.2 L 356.0 62.7 L 356.0 63.2 L 356.1 63.6 L 356.2 64.1 L 356.2 64.6 L 356.3 65.1 L 356.3 65.6 L 356.4 66.1 L 356.5 66.6 L 356.5 67.2 L 356.6 67.7 L 356.7 68.2 L 356.7 68.8 L 356.8 69.3 L 356.9 69.9 L 356.9 70.5 L 357.0 71.1 L 357.1 71.7 L 357.1 72.3 L 357.2 72.9 L 357.3 73.5 L 357.3 74.1 L 357.4 74.7 L 357.5 75.3 L 357.5 76.0 L 357.6 76.6 L 357.7 77.3 L 357.7 77.9 L 357.8 78.6 L 357.9 79.3 L 357.9 79.9 L 358.0 80.6 L 358.1 81.3 L 358.1 82.0 L 358.2 82.7 L 358.3 83.4 L 358.3 84.1 L 358.4 84.8 L 358.4 85.6 L 358.5 86.3 L 358.6 87.0 L 358.6 87.7 L 358.7 88.5 L 358.8 89.2 L 358.8 90.0 L 358.9 90.7 L 359.0 91.5 L 359.0 92.3 L 359.1 93.0 L 359.2 93.8 L 359.2 94.6 L 359.3 95.3 L 359.4 96.1 L 359.4 96.9 L 359.5 97.7 L 359.6 98.5 L 359.6 99.3 L 359.7 100.1 L 359.8 100.9 L 359.8 101.7 L 359.9 102.5 L 360.0 103.3 L 360.0 104.1 L 360.1 104.9 L 360.2 105.7 L 360.2 106.5 L 360.3 107.3 L 360.4 108.1 L 360.4 109.0 L 360.5 109.8 L 360.5 110.6 L 360.6 111.4 L 360.7 112.2 L 360.7 113.1 L 360.8 113.9 L 360.9 114.7 L 360.9 115.5 L 361.0 116.4 L 361.1 117.2 L 361.1 118.0 L 361.2 118.8 L 361.3 119.7 L 361.3 120.5 L 361.4 121.3 L 361.5 122.1 L 361.5 123.0 L 361.6 123.8 L 361.7 124.6 L 361.7 125.4 L 361.8 126.2 L 361.9 127.0 L 361.9 127.9 L 362.0 128.7 L 362.1 129.5 L 362.1 130.3 L 362.2 131.1 L 362.3 131.9 L 362.3 132.7 L 362.4 133.5 L 362.4 134.3 L 362.5 135.1 L 362.6 135.9 L 362.6 136.7 L 362.7 137.5 L 362.8 138.2 L 362.8 139.0 L 362.9 139.8 L 363.0 140.6 L 363.0 141.3 L 363.1 142.1 L 363.2 142.9 L 363.2 143.6 L 363.3 144.4 L 363.4 145.1 L 363.4 145.9 L 363.5 146.6 L 363.6 147.3 L 363.6 148.1 L 363.7 148.8 L 363.8 149.5 L 363.8 150.2 L 363.9 150.9 L 364.0 151.6 L 364.0 152.3 L 364.1 153.0 L 364.2 153.7 L 364.2 154.4 L 364.3 155.0 L 364.4 155.7 L 364.4 156.4 L 364.5 157.0 L 364.5 157.7 L 364.6 158.3 L 364.7 158.9 L 364.7 159.6 L 364.8 160.2 L 364.9 160.8 L 364.9 161.4 L 365.0 162.0 L 365.1 162.6 L 365.1 163.2 L 365.2 163.8 L 365.3 164.3 L 365.3 164.9 L 365.4 165.5 L 365.5 166.0 L 365.5 166.6 L 365.6 167.1 L 365.7 167.6 L 365.7 168.1 L 365.8 168.6 L 365.9 169.1 L 365.9 169.6 L 366.0 170.1 L 366.1 170.6 L 366.1 171.1 L 366.2 171.5 L 366.3 172.0 L 366.3 172.4 L 366.4 172.8 L 366.5 173.2 L 366.5 173.7 L 366.6 174.1 L 366.6 174.5 L 366.7 174.8 L 366.8 175.2 L 366.8 175.6 L 366.9 175.9 L 367.0 176.3 L 367.0 176.6 L 367.1 177.0 L 367.2 177.3 L 367.2 177.6 L 367.3 177.9 L 367.4 178.2 L 367.4 178.5 L 367.5 178.7 L 367.6 179.0 L 367.6 179.2 L 367.7 179.5 L 367.8 179.7 L 367.8 179.9 L 367.9 180.2 L 368.0 180.4 L 368.0 180.5 L 368.1 180.7 L 368.2 180.9 L 368.2 181.1 L 368.3 181.2 L 368.4 181.3 L 368.4 181.5 L 368.5 181.6 L 368.6 181.7 L 368.6 181.8 L 368.7 181.9 L 368.7 182.0 L 368.8 182.0 L 368.9 182.1 L 368.9 182.1 L 369.0 182.2 L 369.1 182.2 L 369.1 182.2 L 369.2 182.2 L 369.3 182.2 L 369.3 182.2 L 369.4 182.2 L 369.5 182.1 L 369.5 182.1 L 369.6 182.0 L 369.7 182.0 L 369.7 181.9 L 369.8 181.8 L 369.9 181.7 L 369.9 181.6 L 370.0 181.5 L 370.1 181.3 L 370.1 181.2 L 370.2 181.0 L 370.3 180.9 L 370.3 180.7 L 370.4 180.5 L 370.5 180.3 L 370.5 180.1 L 370.6 179.9 L 370.6 179.7 L 370.7 179.5 L 370.8 179.2 L 370.8 179.0 L 370.9 178.7 L 371.0 178.4 L 371.0 178.2 L 371.1 177.9 L 371.2 177.6 L 371.2 177.3 L 371.3 176.9 L 371.4 176.6 L 371.4 176.3 L 371.5 175.9 L 371.6 175.6 L 371.6 175.2 L 371.7 174.8 L 371.8 174.4 L 371.8 174.0 L 371.9 173.6 L 372.0 173.2 L 372.0 172.8 L 372.1 172.4 L 372.2 171.9 L 372.2 171.5 L 372.3 171.0 L 372.4 170.5 L 372.4 170.1 L 372.5 169.6 L 372.6 169.1 L 372.6 168.6 L 372.7 168.1 L 372.7 167.6 L 372.8 167.0 L 372.9 166.5 L 372.9 166.0 L 373.0 165.4 L 373.1 164.9 L 373.1 164.3 L 373.2 163.7 L 373.3 163.1 L 373.3 162.6 L 373.4 162.0 L 373.5 161.4 L 373.5 160.8 L 373.6 160.1 L 373.7 159.5 L 373.7 158.9 L 373.8 158.2 L 373.9 157.6 L 373.9 157.0 L 374.0 156.3 L 374.1 155.6 L 374.1 155.0 L 374.2 154.3 L 374.3 153.6 L 374.3 152.9 L 374.4 152.2 L 374.5 151.5 L 374.5 150.8 L 374.6 150.1 L 374.7 149.4 L 374.7 148.7 L 374.8 148.0 L 374.8 147.3 L 374.9 146.5 L 375.0 145.8 L 375.0 145.0 L 375.1 144.3 L 375.2 143.5 L 375.2 142.8 L 375.3 142.0 L 375.4 141.3 L 375.4 140.5 L 375.5 139.7 L 375.6 138.9 L 375.6 138.2 L 375.7 137.4 L 375.8 136.6 L 375.8 135.8 L 375.9 135.0 L 376.0 134.2 L 376.0 133.4 L 376.1 132.6 L 376.2 131.8 L 376.2 131.0 L 376.3 130.2 L 376.4 129.4 L 376.4 128.6 L 376.5 127.8 L 376.6 127.0 L 376.6 126.2 L 376.7 125.3 L 376.8 124.5 L 376.8 123.7 L 376.9 122.9 L 376.9 122.1 L 377.0 121.2 L 377.1 120.4 L 377.1 119.6 L 377.2 118.8 L 377.3 117.9 L 377.3 117.1 L 377.4 116.3 L 377.5 115.5 L 377.5 114.6 L 377.6 113.8 L 377.7 113.0 L 377.7 112.2 L 377.8 111.3 L 377.9 110.5 L 377.9 109.7 L 378.0 108.9 L 378.1 108.1 L 378.1 107.2 L 378.2 106.4 L 378.3 105.6 L 378.3 104.8 L 378.4 104.0 L 378.5 103.2 L 378.5 102.4 L 378.6 101.6 L 378.7 100.8 L 378.7 100.0 L 378.8 99.2 L 378.8 98.4 L 378.9 97.6 L 379.0 96.8 L 379.0 96.0 L 379.1 95.3 L 379.2 94.5 L 379.2 93.7 L 379.3 92.9 L 379.4 92.2 L 379.4 91.4 L 379.5 90.7 L 379.6 89.9 L 379.6 89.2 L 379.7 88.4 L 379.8 87.7 L 379.8 86.9 L 379.9 86.2 L 380.0 85.5 L 380.0 84.8 L 380.1 84.1 L 380.2 83.3 L 380.2 82.6 L 380.3 81.9 L 380.4 81.2 L 380.4 80.6 L 380.5 79.9 L 380.6 79.2 L 380.6 78.5 L 380.7 77.9 L 380.8 77.2 L 380.8 76.6 L 380.9 75.9 L 380.9 75.3 L 381.0 74.7 L 381.1 74.0 L 381.1 73.4 L 381.2 72.8 L 381.3 72.2 L 381.3 71.6 L 381.4 71.0 L 381.5 70.4 L 381.5 69.9 L 381.6 69.3 L 381.7 68.7 L 381.7 68.2 L 381.8 67.6 L 381.9 67.1 L 381.9 66.6 L 382.0 66.1 L 382.1 65.5 L 382.1 65.0 L 382.2 64.6 L 382.3 64.1 L 382.3 63.6 L 382.4 63.1 L 382.5 62.7 L 382.5 62.2 L 382.6 61.8 L 382.7 61.3 L 382.7 60.9 L 382.8 60.5 L 382.9 60.1 L 382.9 59.7 L 383.0 59.3 L 383.0 58.9 L 383.1 58.5 L 383.2 58.2 L 383.2 57.8 L 383.3 57.5 L 383.4 57.2 L 383.4 56.8 L 383.5 56.5 L 383.6 56.2 L 383.6 55.9 L 383.7 55.6 L 383.8 55.4 L 383.8 55.1 L 383.9 54.8 L 384.0 54.6 L 384.0 54.4 L 384.1 54.1 L 384.2 53.9 L 384.2 53.7 L 384.3 53.5 L 384.4 53.3 L 384.4 53.2 L 384.5 53.0 L 384.6 52.8 L 384.6 52.7 L 384.7 52.6 L 384.8 52.4 L 384.8 52.3 L 384.9 52.2 L 385.0 52.1 L 385.0 52.1 L 385.1 52.0 L 385.1 51.9 L 385.2 51.9 L 385.3 51.8 L 385.3 51.8 L 385.4 51.8 L 385.5 51.8 L 385.5 51.8 L 385.6 51.8 L 385.7 51.8 L 385.7 51.9 L 385.8 51.9 L 385.9 51.9 L 385.9 52.0 L 386.0 52.1" fill="none" stroke="#0ea5e9" stroke-width="2.0"/>
<text x="345.0" y="207" text-anchor="middle" font-family="system-ui,-apple-system,Segoe UI,Roboto,sans-serif" font-size="9.5" font-weight="650" fill="#0ea5e9">oscillation</text>
<text x="345.0" y="220" text-anchor="middle" font-family="system-ui,-apple-system,Segoe UI,Roboto,sans-serif" font-size="8" font-weight="400" fill="#64748b">rings</text>
<rect x="398" y="42" width="82" height="150" fill="#f8fafc" stroke="#e2e8f0"/>
<line x1="398" y1="117.0" x2="480" y2="117.0" stroke="#0f172a" stroke-width="0.9" stroke-dasharray="4 3"/>
<path d="M 398.0 182.2 L 398.1 182.2 L 398.1 180.6 L 398.2 179.0 L 398.3 177.4 L 398.3 175.7 L 398.4 174.1 L 398.5 172.4 L 398.5 170.6 L 398.6 168.9 L 398.7 167.1 L 398.7 165.3 L 398.8 163.5 L 398.9 161.7 L 398.9 159.8 L 399.0 158.0 L 399.0 156.1 L 399.1 154.1 L 399.2 152.2 L 399.2 150.2 L 399.3 148.3 L 399.4 146.2 L 399.4 144.2 L 399.5 142.2 L 399.6 140.1 L 399.6 138.0 L 399.7 135.9 L 399.8 133.7 L 399.8 131.6 L 399.9 129.4 L 400.0 127.2 L 400.0 125.0 L 400.1 122.7 L 400.2 120.5 L 400.2 118.2 L 400.3 115.8 L 400.4 113.5 L 400.4 111.2 L 400.5 108.8 L 400.6 106.4 L 400.6 104.0 L 400.7 101.5 L 400.8 99.1 L 400.8 96.6 L 400.9 94.1 L 401.0 91.5 L 401.0 89.0 L 401.1 86.4 L 401.1 83.8 L 401.2 81.2 L 401.3 78.6 L 401.3 76.0 L 401.4 73.4 L 401.5 70.8 L 401.5 68.2 L 401.6 65.7 L 401.7 63.2 L 401.7 60.7 L 401.8 58.2 L 401.9 55.8 L 401.9 53.4 L 402.0 51.0 L 402.1 48.6 L 402.1 46.3 L 402.2 44.0 L 402.3 42.0 L 402.3 42.0 L 402.4 42.0 L 402.5 42.0 L 402.5 42.0 L 402.6 42.0 L 402.7 42.0 L 402.7 42.0 L 402.8 42.0 L 402.9 42.0 L 402.9 42.0 L 403.0 42.0 L 403.1 42.0 L 403.1 42.0 L 403.2 42.0 L 403.2 42.0 L 403.3 42.0 L 403.4 42.0 L 403.4 42.0 L 403.5 42.0 L 403.6 42.0 L 403.6 42.0 L 403.7 42.0 L 403.8 42.0 L 403.8 42.0 L 403.9 42.0 L 404.0 42.0 L 404.0 42.0 L 404.1 42.0 L 404.2 42.0 L 404.2 42.0 L 404.3 42.0 L 404.4 42.0 L 404.4 42.0 L 404.5 42.0 L 404.6 42.0 L 404.6 42.0 L 404.7 42.0 L 404.8 42.0 L 404.8 42.0 L 404.9 42.0 L 405.0 42.0 L 405.0 42.0 L 405.1 42.0 L 405.2 42.0 L 405.2 42.0 L 405.3 42.0 L 405.3 42.0 L 405.4 42.0 L 405.5 42.0 L 405.5 42.0 L 405.6 42.0 L 405.7 42.0 L 405.7 42.0 L 405.8 42.0 L 405.9 42.0 L 405.9 42.0 L 406.0 42.0 L 406.1 42.0 L 406.1 42.0 L 406.2 42.0 L 406.3 42.0 L 406.3 42.0 L 406.4 42.0 L 406.5 42.0 L 406.5 42.0 L 406.6 42.0 L 406.7 42.0 L 406.7 42.0 L 406.8 42.0 L 406.9 42.0 L 406.9 42.0 L 407.0 42.0 L 407.1 42.0 L 407.1 43.5 L 407.2 46.2 L 407.2 49.1 L 407.3 51.9 L 407.4 54.9 L 407.4 57.9 L 407.5 60.9 L 407.6 64.0 L 407.6 67.2 L 407.7 70.4 L 407.8 73.7 L 407.8 77.0 L 407.9 80.3 L 408.0 83.7 L 408.0 87.2 L 408.1 90.6 L 408.2 94.1 L 408.2 97.7 L 408.3 101.3 L 408.4 104.9 L 408.4 108.5 L 408.5 112.2 L 408.6 115.9 L 408.6 119.6 L 408.7 123.3 L 408.8 127.1 L 408.8 130.9 L 408.9 134.6 L 409.0 138.4 L 409.0 142.2 L 409.1 146.1 L 409.2 149.9 L 409.2 153.7 L 409.3 157.5 L 409.3 161.3 L 409.4 165.1 L 409.5 168.9 L 409.5 172.7 L 409.6 176.5 L 409.7 180.2 L 409.7 183.9 L 409.8 187.7 L 409.9 191.3 L 409.9 192.0 L 410.0 192.0 L 410.1 192.0 L 410.1 192.0 L 410.2 192.0 L 410.3 192.0 L 410.3 192.0 L 410.4 192.0 L 410.5 192.0 L 410.5 192.0 L 410.6 192.0 L 410.7 192.0 L 410.7 192.0 L 410.8 192.0 L 410.9 192.0 L 410.9 192.0 L 411.0 192.0 L 411.1 192.0 L 411.1 192.0 L 411.2 192.0 L 411.3 192.0 L 411.3 192.0 L 411.4 192.0 L 411.4 192.0 L 411.5 192.0 L 411.6 192.0 L 411.6 192.0 L 411.7 192.0 L 411.8 192.0 L 411.8 192.0 L 411.9 192.0 L 412.0 192.0 L 412.0 192.0 L 412.1 192.0 L 412.2 192.0 L 412.2 192.0 L 412.3 192.0 L 412.4 192.0 L 412.4 192.0 L 412.5 192.0 L 412.6 192.0 L 412.6 192.0 L 412.7 192.0 L 412.8 192.0 L 412.8 192.0 L 412.9 192.0 L 413.0 192.0 L 413.0 192.0 L 413.1 192.0 L 413.2 192.0 L 413.2 192.0 L 413.3 192.0 L 413.4 192.0 L 413.4 192.0 L 413.5 192.0 L 413.5 192.0 L 413.6 192.0 L 413.7 192.0 L 413.7 192.0 L 413.8 192.0 L 413.9 192.0 L 413.9 192.0 L 414.0 192.0 L 414.1 192.0 L 414.1 192.0 L 414.2 192.0 L 414.3 192.0 L 414.3 192.0 L 414.4 192.0 L 414.5 192.0 L 414.5 192.0 L 414.6 192.0 L 414.7 192.0 L 414.7 192.0 L 414.8 192.0 L 414.9 192.0 L 414.9 192.0 L 415.0 192.0 L 415.1 192.0 L 415.1 192.0 L 415.2 192.0 L 415.3 192.0 L 415.3 192.0 L 415.4 192.0 L 415.4 192.0 L 415.5 192.0 L 415.6 192.0 L 415.6 192.0 L 415.7 192.0 L 415.8 192.0 L 415.8 187.5 L 415.9 182.8 L 416.0 178.1 L 416.0 173.2 L 416.1 168.4 L 416.2 163.4 L 416.2 158.4 L 416.3 153.4 L 416.4 148.3 L 416.4 143.1 L 416.5 137.9 L 416.6 132.7 L 416.6 127.4 L 416.7 122.0 L 416.8 116.7 L 416.8 111.3 L 416.9 105.8 L 417.0 100.4 L 417.0 94.9 L 417.1 89.4 L 417.2 83.9 L 417.2 78.4 L 417.3 72.8 L 417.4 67.3 L 417.4 61.8 L 417.5 56.2 L 417.5 50.7 L 417.6 45.2 L 417.7 42.0 L 417.7 42.0 L 417.8 42.0 L 417.9 42.0 L 417.9 42.0 L 418.0 42.0 L 418.1 42.0 L 418.1 42.0 L 418.2 42.0 L 418.3 42.0 L 418.3 42.0 L 418.4 42.0 L 418.5 42.0 L 418.5 42.0 L 418.6 42.0 L 418.7 42.0 L 418.7 42.0 L 418.8 42.0 L 418.9 42.0 L 418.9 42.0 L 419.0 42.0 L 419.1 42.0 L 419.1 42.0 L 419.2 42.0 L 419.3 42.0 L 419.3 42.0 L 419.4 42.0 L 419.5 42.0 L 419.5 42.0 L 419.6 42.0 L 419.6 42.0 L 419.7 42.0 L 419.8 42.0 L 419.8 42.0 L 419.9 42.0 L 420.0 42.0 L 420.0 42.0 L 420.1 42.0 L 420.2 42.0 L 420.2 42.0 L 420.3 42.0 L 420.4 42.0 L 420.4 42.0 L 420.5 42.0 L 420.6 42.0 L 420.6 42.0 L 420.7 42.0 L 420.8 42.0 L 420.8 42.0 L 420.9 42.0 L 421.0 42.0 L 421.0 42.0 L 421.1 42.0 L 421.2 42.0 L 421.2 42.0 L 421.3 42.0 L 421.4 42.0 L 421.4 42.0 L 421.5 42.0 L 421.6 42.0 L 421.6 42.0 L 421.7 42.0 L 421.7 42.0 L 421.8 42.0 L 421.9 42.0 L 421.9 42.0 L 422.0 42.0 L 422.1 42.0 L 422.1 42.0 L 422.2 42.0 L 422.3 42.0 L 422.3 42.0 L 422.4 42.0 L 422.5 42.0 L 422.5 42.0 L 422.6 42.0 L 422.7 42.0 L 422.7 42.0 L 422.8 42.0 L 422.9 42.0 L 422.9 42.0 L 423.0 42.0 L 423.1 42.0 L 423.1 42.0 L 423.2 42.0 L 423.3 42.0 L 423.3 42.0 L 423.4 42.0 L 423.5 42.0 L 423.5 42.0 L 423.6 42.0 L 423.6 42.0 L 423.7 42.0 L 423.8 42.0 L 423.8 42.0 L 423.9 42.0 L 424.0 42.0 L 424.0 42.0 L 424.1 42.0 L 424.2 42.0 L 424.2 42.0 L 424.3 44.2 L 424.4 51.4 L 424.4 58.7 L 424.5 66.1 L 424.6 73.5 L 424.6 81.0 L 424.7 88.6 L 424.8 96.3 L 424.8 104.0 L 424.9 111.8 L 425.0 119.6 L 425.0 127.4 L 425.1 135.3 L 425.2 143.3 L 425.2 151.2 L 425.3 159.2 L 425.4 167.3 L 425.4 175.3 L 425.5 183.3 L 425.6 191.4 L 425.6 192.0 L 425.7 192.0 L 425.7 192.0 L 425.8 192.0 L 425.9 192.0 L 425.9 192.0 L 426.0 192.0 L 426.1 192.0 L 426.1 192.0 L 426.2 192.0 L 426.3 192.0 L 426.3 192.0 L 426.4 192.0 L 426.5 192.0 L 426.5 192.0 L 426.6 192.0 L 426.7 192.0 L 426.7 192.0 L 426.8 192.0 L 426.9 192.0 L 426.9 192.0 L 427.0 192.0 L 427.1 192.0 L 427.1 192.0 L 427.2 192.0 L 427.3 192.0 L 427.3 192.0 L 427.4 192.0 L 427.5 192.0 L 427.5 192.0 L 427.6 192.0 L 427.7 192.0 L 427.7 192.0 L 427.8 192.0 L 427.8 192.0 L 427.9 192.0 L 428.0 192.0 L 428.0 192.0 L 428.1 192.0 L 428.2 192.0 L 428.2 192.0 L 428.3 192.0 L 428.4 192.0 L 428.4 192.0 L 428.5 192.0 L 428.6 192.0 L 428.6 192.0 L 428.7 192.0 L 428.8 192.0 L 428.8 192.0 L 428.9 192.0 L 429.0 192.0 L 429.0 192.0 L 429.1 192.0 L 429.2 192.0 L 429.2 192.0 L 429.3 192.0 L 429.4 192.0 L 429.4 192.0 L 429.5 192.0 L 429.6 192.0 L 429.6 192.0 L 429.7 192.0 L 429.8 192.0 L 429.8 192.0 L 429.9 192.0 L 429.9 192.0 L 430.0 192.0 L 430.1 192.0 L 430.1 192.0 L 430.2 192.0 L 430.3 192.0 L 430.3 192.0 L 430.4 192.0 L 430.5 192.0 L 430.5 192.0 L 430.6 192.0 L 430.7 192.0 L 430.7 192.0 L 430.8 192.0 L 430.9 192.0 L 430.9 192.0 L 431.0 192.0 L 431.1 192.0 L 431.1 192.0 L 431.2 192.0 L 431.3 192.0 L 431.3 192.0 L 431.4 192.0 L 431.5 192.0 L 431.5 192.0 L 431.6 192.0 L 431.7 192.0 L 431.7 192.0 L 431.8 192.0 L 431.8 192.0 L 431.9 192.0 L 432.0 192.0 L 432.0 192.0 L 432.1 192.0 L 432.2 192.0 L 432.2 192.0 L 432.3 192.0 L 432.4 192.0 L 432.4 192.0 L 432.5 192.0 L 432.6 192.0 L 432.6 192.0 L 432.7 188.1 L 432.8 177.3 L 432.8 166.3 L 432.9 155.3 L 433.0 144.1 L 433.0 132.9 L 433.1 121.6 L 433.2 110.2 L 433.2 98.7 L 433.3 87.2 L 433.4 75.7 L 433.4 64.1 L 433.5 52.4 L 433.6 42.0 L 433.6 42.0 L 433.7 42.0 L 433.8 42.0 L 433.8 42.0 L 433.9 42.0 L 433.9 42.0 L 434.0 42.0 L 434.1 42.0 L 434.1 42.0 L 434.2 42.0 L 434.3 42.0 L 434.3 42.0 L 434.4 42.0 L 434.5 42.0 L 434.5 42.0 L 434.6 42.0 L 434.7 42.0 L 434.7 42.0 L 434.8 42.0 L 434.9 42.0 L 434.9 42.0 L 435.0 42.0 L 435.1 42.0 L 435.1 42.0 L 435.2 42.0 L 435.3 42.0 L 435.3 42.0 L 435.4 42.0 L 435.5 42.0 L 435.5 42.0 L 435.6 42.0 L 435.7 42.0 L 435.7 42.0 L 435.8 42.0 L 435.9 42.0 L 435.9 42.0 L 436.0 42.0 L 436.0 42.0 L 436.1 42.0 L 436.2 42.0 L 436.2 42.0 L 436.3 42.0 L 436.4 42.0 L 436.4 42.0 L 436.5 42.0 L 436.6 42.0 L 436.6 42.0 L 436.7 42.0 L 436.8 42.0 L 436.8 42.0 L 436.9 42.0 L 437.0 42.0 L 437.0 42.0 L 437.1 42.0 L 437.2 42.0 L 437.2 42.0 L 437.3 42.0 L 437.4 42.0 L 437.4 42.0 L 437.5 42.0 L 437.6 42.0 L 437.6 42.0 L 437.7 42.0 L 437.8 42.0 L 437.8 42.0 L 437.9 42.0 L 438.0 42.0 L 438.0 42.0 L 438.1 42.0 L 438.1 42.0 L 438.2 42.0 L 438.3 42.0 L 438.3 42.0 L 438.4 42.0 L 438.5 42.0 L 438.5 42.0 L 438.6 42.0 L 438.7 42.0 L 438.7 42.0 L 438.8 42.0 L 438.9 42.0 L 438.9 42.0 L 439.0 42.0 L 439.1 42.0 L 439.1 42.0 L 439.2 42.0 L 439.3 42.0 L 439.3 42.0 L 439.4 42.0 L 439.5 42.0 L 439.5 42.0 L 439.6 42.0 L 439.7 42.0 L 439.7 42.0 L 439.8 42.0 L 439.9 42.0 L 439.9 42.0 L 440.0 42.0 L 440.0 42.0 L 440.1 42.0 L 440.2 42.0 L 440.2 42.0 L 440.3 42.0 L 440.4 42.0 L 440.4 42.0 L 440.5 42.0 L 440.6 42.0 L 440.6 42.0 L 440.7 42.0 L 440.8 42.0 L 440.8 42.0 L 440.9 42.0 L 441.0 42.0 L 441.0 49.6 L 441.1 65.7 L 441.2 82.0 L 441.2 98.4 L 441.3 114.8 L 441.4 131.4 L 441.4 148.1 L 441.5 164.8 L 441.6 181.6 L 441.6 192.0 L 441.7 192.0 L 441.8 192.0 L 441.8 192.0 L 441.9 192.0 L 442.0 192.0 L 442.0 192.0 L 442.1 192.0 L 442.1 192.0 L 442.2 192.0 L 442.3 192.0 L 442.3 192.0 L 442.4 192.0 L 442.5 192.0 L 442.5 192.0 L 442.6 192.0 L 442.7 192.0 L 442.7 192.0 L 442.8 192.0 L 442.9 192.0 L 442.9 192.0 L 443.0 192.0 L 443.1 192.0 L 443.1 192.0 L 443.2 192.0 L 443.3 192.0 L 443.3 192.0 L 443.4 192.0 L 443.5 192.0 L 443.5 192.0 L 443.6 192.0 L 443.7 192.0 L 443.7 192.0 L 443.8 192.0 L 443.9 192.0 L 443.9 192.0 L 444.0 192.0 L 444.1 192.0 L 444.1 192.0 L 444.2 192.0 L 444.2 192.0 L 444.3 192.0 L 444.4 192.0 L 444.4 192.0 L 444.5 192.0 L 444.6 192.0 L 444.6 192.0 L 444.7 192.0 L 444.8 192.0 L 444.8 192.0 L 444.9 192.0 L 445.0 192.0 L 445.0 192.0 L 445.1 192.0 L 445.2 192.0 L 445.2 192.0 L 445.3 192.0 L 445.4 192.0 L 445.4 192.0 L 445.5 192.0 L 445.6 192.0 L 445.6 192.0 L 445.7 192.0 L 445.8 192.0 L 445.8 192.0 L 445.9 192.0 L 446.0 192.0 L 446.0 192.0 L 446.1 192.0 L 446.2 192.0 L 446.2 192.0 L 446.3 192.0 L 446.3 192.0 L 446.4 192.0 L 446.5 192.0 L 446.5 192.0 L 446.6 192.0 L 446.7 192.0 L 446.7 192.0 L 446.8 192.0 L 446.9 192.0 L 446.9 192.0 L 447.0 192.0 L 447.1 192.0 L 447.1 192.0 L 447.2 192.0 L 447.3 192.0 L 447.3 192.0 L 447.4 192.0 L 447.5 192.0 L 447.5 192.0 L 447.6 192.0 L 447.7 192.0 L 447.7 192.0 L 447.8 192.0 L 447.9 192.0 L 447.9 192.0 L 448.0 192.0 L 448.1 192.0 L 448.1 192.0 L 448.2 192.0 L 448.2 192.0 L 448.3 192.0 L 448.4 192.0 L 448.4 192.0 L 448.5 192.0 L 448.6 192.0 L 448.6 192.0 L 448.7 192.0 L 448.8 192.0 L 448.8 192.0 L 448.9 192.0 L 449.0 192.0 L 449.0 192.0 L 449.1 192.0 L 449.2 192.0 L 449.2 192.0 L 449.3 185.2 L 449.4 161.5 L 449.4 137.7 L 449.5 113.7 L 449.6 89.5 L 449.6 65.3 L 449.7 42.0 L 449.8 42.0 L 449.8 42.0 L 449.9 42.0 L 450.0 42.0 L 450.0 42.0 L 450.1 42.0 L 450.2 42.0 L 450.2 42.0 L 450.3 42.0 L 450.3 42.0 L 450.4 42.0 L 450.5 42.0 L 450.5 42.0 L 450.6 42.0 L 450.7 42.0 L 450.7 42.0 L 450.8 42.0 L 450.9 42.0 L 450.9 42.0 L 451.0 42.0 L 451.1 42.0 L 451.1 42.0 L 451.2 42.0 L 451.3 42.0 L 451.3 42.0 L 451.4 42.0 L 451.5 42.0 L 451.5 42.0 L 451.6 42.0 L 451.7 42.0 L 451.7 42.0 L 451.8 42.0 L 451.9 42.0 L 451.9 42.0 L 452.0 42.0 L 452.1 42.0 L 452.1 42.0 L 452.2 42.0 L 452.3 42.0 L 452.3 42.0 L 452.4 42.0 L 452.4 42.0 L 452.5 42.0 L 452.6 42.0 L 452.6 42.0 L 452.7 42.0 L 452.8 42.0 L 452.8 42.0 L 452.9 42.0 L 453.0 42.0 L 453.0 42.0 L 453.1 42.0 L 453.2 42.0 L 453.2 42.0 L 453.3 42.0 L 453.4 42.0 L 453.4 42.0 L 453.5 42.0 L 453.6 42.0 L 453.6 42.0 L 453.7 42.0 L 453.8 42.0 L 453.8 42.0 L 453.9 42.0 L 454.0 42.0 L 454.0 42.0 L 454.1 42.0 L 454.2 42.0 L 454.2 42.0 L 454.3 42.0 L 454.4 42.0 L 454.4 42.0 L 454.5 42.0 L 454.5 42.0 L 454.6 42.0 L 454.7 42.0 L 454.7 42.0 L 454.8 42.0 L 454.9 42.0 L 454.9 42.0 L 455.0 42.0 L 455.1 42.0 L 455.1 42.0 L 455.2 42.0 L 455.3 42.0 L 455.3 42.0 L 455.4 42.0 L 455.5 42.0 L 455.5 42.0 L 455.6 42.0 L 455.7 42.0 L 455.7 42.0 L 455.8 42.0 L 455.9 42.0 L 455.9 42.0 L 456.0 42.0 L 456.1 42.0 L 456.1 42.0 L 456.2 42.0 L 456.3 42.0 L 456.3 42.0 L 456.4 42.0 L 456.4 42.0 L 456.5 42.0 L 456.6 42.0 L 456.6 42.0 L 456.7 42.0 L 456.8 42.0 L 456.8 42.0 L 456.9 42.0 L 457.0 42.0 L 457.0 42.0 L 457.1 42.0 L 457.2 42.0 L 457.2 42.0 L 457.3 42.0 L 457.4 42.0 L 457.4 42.0 L 457.5 42.0 L 457.6 61.7 L 457.6 96.4 L 457.7 131.3 L 457.8 166.5 L 457.8 192.0 L 457.9 192.0 L 458.0 192.0 L 458.0 192.0 L 458.1 192.0 L 458.2 192.0 L 458.2 192.0 L 458.3 192.0 L 458.4 192.0 L 458.4 192.0 L 458.5 192.0 L 458.5 192.0 L 458.6 192.0 L 458.7 192.0 L 458.7 192.0 L 458.8 192.0 L 458.9 192.0 L 458.9 192.0 L 459.0 192.0 L 459.1 192.0 L 459.1 192.0 L 459.2 192.0 L 459.3 192.0 L 459.3 192.0 L 459.4 192.0 L 459.5 192.0 L 459.5 192.0 L 459.6 192.0 L 459.7 192.0 L 459.7 192.0 L 459.8 192.0 L 459.9 192.0 L 459.9 192.0 L 460.0 192.0 L 460.1 192.0 L 460.1 192.0 L 460.2 192.0 L 460.3 192.0 L 460.3 192.0 L 460.4 192.0 L 460.5 192.0 L 460.5 192.0 L 460.6 192.0 L 460.6 192.0 L 460.7 192.0 L 460.8 192.0 L 460.8 192.0 L 460.9 192.0 L 461.0 192.0 L 461.0 192.0 L 461.1 192.0 L 461.2 192.0 L 461.2 192.0 L 461.3 192.0 L 461.4 192.0 L 461.4 192.0 L 461.5 192.0 L 461.6 192.0 L 461.6 192.0 L 461.7 192.0 L 461.8 192.0 L 461.8 192.0 L 461.9 192.0 L 462.0 192.0 L 462.0 192.0 L 462.1 192.0 L 462.2 192.0 L 462.2 192.0 L 462.3 192.0 L 462.4 192.0 L 462.4 192.0 L 462.5 192.0 L 462.6 192.0 L 462.6 192.0 L 462.7 192.0 L 462.7 192.0 L 462.8 192.0 L 462.9 192.0 L 462.9 192.0 L 463.0 192.0 L 463.1 192.0 L 463.1 192.0 L 463.2 192.0 L 463.3 192.0 L 463.3 192.0 L 463.4 192.0 L 463.5 192.0 L 463.5 192.0 L 463.6 192.0 L 463.7 192.0 L 463.7 192.0 L 463.8 192.0 L 463.9 192.0 L 463.9 192.0 L 464.0 192.0 L 464.1 192.0 L 464.1 192.0 L 464.2 192.0 L 464.3 192.0 L 464.3 192.0 L 464.4 192.0 L 464.5 192.0 L 464.5 192.0 L 464.6 192.0 L 464.6 192.0 L 464.7 192.0 L 464.8 192.0 L 464.8 192.0 L 464.9 192.0 L 465.0 192.0 L 465.0 192.0 L 465.1 192.0 L 465.2 192.0 L 465.2 192.0 L 465.3 192.0 L 465.4 192.0 L 465.4 192.0 L 465.5 192.0 L 465.6 192.0 L 465.6 192.0 L 465.7 192.0 L 465.8 183.9 L 465.8 133.3 L 465.9 82.4 L 466.0 42.0 L 466.0 42.0 L 466.1 42.0 L 466.2 42.0 L 466.2 42.0 L 466.3 42.0 L 466.4 42.0 L 466.4 42.0 L 466.5 42.0 L 466.6 42.0 L 466.6 42.0 L 466.7 42.0 L 466.7 42.0 L 466.8 42.0 L 466.9 42.0 L 466.9 42.0 L 467.0 42.0 L 467.1 42.0 L 467.1 42.0 L 467.2 42.0 L 467.3 42.0 L 467.3 42.0 L 467.4 42.0 L 467.5 42.0 L 467.5 42.0 L 467.6 42.0 L 467.7 42.0 L 467.7 42.0 L 467.8 42.0 L 467.9 42.0 L 467.9 42.0 L 468.0 42.0 L 468.1 42.0 L 468.1 42.0 L 468.2 42.0 L 468.3 42.0 L 468.3 42.0 L 468.4 42.0 L 468.5 42.0 L 468.5 42.0 L 468.6 42.0 L 468.7 42.0 L 468.7 42.0 L 468.8 42.0 L 468.8 42.0 L 468.9 42.0 L 469.0 42.0 L 469.0 42.0 L 469.1 42.0 L 469.2 42.0 L 469.2 42.0 L 469.3 42.0 L 469.4 42.0 L 469.4 42.0 L 469.5 42.0 L 469.6 42.0 L 469.6 42.0 L 469.7 42.0 L 469.8 42.0 L 469.8 42.0 L 469.9 42.0 L 470.0 42.0 L 470.0 42.0 L 470.1 42.0 L 470.2 42.0 L 470.2 42.0 L 470.3 42.0 L 470.4 42.0 L 470.4 42.0 L 470.5 42.0 L 470.6 42.0 L 470.6 42.0 L 470.7 42.0 L 470.8 42.0 L 470.8 42.0 L 470.9 42.0 L 470.9 42.0 L 471.0 42.0 L 471.1 42.0 L 471.1 42.0 L 471.2 42.0 L 471.3 42.0 L 471.3 42.0 L 471.4 42.0 L 471.5 42.0 L 471.5 42.0 L 471.6 42.0 L 471.7 42.0 L 471.7 42.0 L 471.8 42.0 L 471.9 42.0 L 471.9 42.0 L 472.0 42.0 L 472.1 42.0 L 472.1 42.0 L 472.2 42.0 L 472.3 42.0 L 472.3 42.0 L 472.4 42.0 L 472.5 42.0 L 472.5 42.0 L 472.6 42.0 L 472.7 42.0 L 472.7 42.0 L 472.8 42.0 L 472.8 42.0 L 472.9 42.0 L 473.0 42.0 L 473.0 42.0 L 473.1 42.0 L 473.2 42.0 L 473.2 42.0 L 473.3 42.0 L 473.4 42.0 L 473.4 42.0 L 473.5 42.0 L 473.6 42.0 L 473.6 42.0 L 473.7 42.0 L 473.8 42.0 L 473.8 42.0 L 473.9 42.0 L 474.0 42.0 L 474.0 113.2 L 474.1 187.3 L 474.2 192.0 L 474.2 192.0 L 474.3 192.0 L 474.4 192.0 L 474.4 192.0 L 474.5 192.0 L 474.6 192.0 L 474.6 192.0 L 474.7 192.0 L 474.8 192.0 L 474.8 192.0 L 474.9 192.0 L 474.9 192.0 L 475.0 192.0 L 475.1 192.0 L 475.1 192.0 L 475.2 192.0 L 475.3 192.0 L 475.3 192.0 L 475.4 192.0 L 475.5 192.0 L 475.5 192.0 L 475.6 192.0 L 475.7 192.0 L 475.7 192.0 L 475.8 192.0 L 475.9 192.0 L 475.9 192.0 L 476.0 192.0 L 476.1 192.0 L 476.1 192.0 L 476.2 192.0 L 476.3 192.0 L 476.3 192.0 L 476.4 192.0 L 476.5 192.0 L 476.5 192.0 L 476.6 192.0 L 476.7 192.0 L 476.7 192.0 L 476.8 192.0 L 476.9 192.0 L 476.9 192.0 L 477.0 192.0 L 477.0 192.0 L 477.1 192.0 L 477.2 192.0 L 477.2 192.0 L 477.3 192.0 L 477.4 192.0 L 477.4 192.0 L 477.5 192.0 L 477.6 192.0 L 477.6 192.0 L 477.7 192.0 L 477.8 192.0 L 477.8 192.0 L 477.9 192.0 L 478.0 192.0 L 478.0 192.0 L 478.1 192.0 L 478.2 192.0 L 478.2 192.0 L 478.3 192.0 L 478.4 192.0 L 478.4 192.0 L 478.5 192.0 L 478.6 192.0 L 478.6 192.0 L 478.7 192.0 L 478.8 192.0 L 478.8 192.0 L 478.9 192.0 L 479.0 192.0 L 479.0 192.0 L 479.1 192.0 L 479.1 192.0 L 479.2 192.0 L 479.3 192.0 L 479.3 192.0 L 479.4 192.0 L 479.5 192.0 L 479.5 192.0 L 479.6 192.0 L 479.7 192.0 L 479.7 192.0 L 479.8 192.0 L 479.9 192.0 L 479.9 192.0 L 480.0 192.0" fill="none" stroke="#e11d48" stroke-width="2.0"/>
<text x="439.0" y="207" text-anchor="middle" font-family="system-ui,-apple-system,Segoe UI,Roboto,sans-serif" font-size="9.5" font-weight="650" fill="#e11d48">runaway</text>
<text x="439.0" y="220" text-anchor="middle" font-family="system-ui,-apple-system,Segoe UI,Roboto,sans-serif" font-size="8" font-weight="400" fill="#64748b">diverges</text>
<line x1="22" y1="232" x2="480" y2="232" stroke="#64748b" stroke-width="2" marker-end="url(#ah)"/>
<text x="22" y="246" text-anchor="start" font-family="system-ui,-apple-system,Segoe UI,Roboto,sans-serif" font-size="8.5" font-weight="400" fill="#64748b">weaker</text>
<text x="480" y="246" text-anchor="end" font-family="system-ui,-apple-system,Segoe UI,Roboto,sans-serif" font-size="8.5" font-weight="400" fill="#64748b">stronger correction</text>
</svg>
