<svg viewBox="0 0 470 240" xmlns="http://www.w3.org/2000/svg" role="img" aria-label="Two panels on the same fast reference: feedback reacts so the actual trails the reference, while feedforward computed from the plan keeps the actual on the reference with the command built from acceleration and velocity feedforward">
<title>Two panels on the same fast reference: feedback reacts so the actual trails the reference, while feedforward computed from the plan keeps the actual on the reference with the command built from acceleration and velocity feedforward</title>
<rect width="470" height="240" fill="white"/>
<text x="235" y="24" text-anchor="middle" font-family="system-ui,-apple-system,Segoe UI,Roboto,sans-serif" font-size="13.5" font-weight="650" fill="#0f172a">Feedback reacts  •  Feedforward anticipates</text>
<rect x="40" y="44" width="180" height="150" fill="#f8fafc" stroke="#e2e8f0"/>
<line x1="40.0" y1="194.0" x2="40.0" y2="194.0" stroke="#e11d48" stroke-width="1" opacity="0.15"/>
<line x1="41.2" y1="194.0" x2="41.2" y2="194.0" stroke="#e11d48" stroke-width="1" opacity="0.15"/>
<line x1="42.4" y1="194.0" x2="42.4" y2="194.1" stroke="#e11d48" stroke-width="1" opacity="0.15"/>
<line x1="43.6" y1="194.0" x2="43.6" y2="194.2" stroke="#e11d48" stroke-width="1" opacity="0.15"/>
<line x1="44.8" y1="194.0" x2="44.8" y2="194.3" stroke="#e11d48" stroke-width="1" opacity="0.15"/>
<line x1="46.0" y1="194.0" x2="46.0" y2="194.4" stroke="#e11d48" stroke-width="1" opacity="0.15"/>
<line x1="47.2" y1="193.9" x2="47.2" y2="194.6" stroke="#e11d48" stroke-width="1" opacity="0.15"/>
<line x1="48.4" y1="193.9" x2="48.4" y2="194.7" stroke="#e11d48" stroke-width="1" opacity="0.15"/>
<line x1="49.6" y1="193.8" x2="49.6" y2="194.9" stroke="#e11d48" stroke-width="1" opacity="0.15"/>
<line x1="50.8" y1="193.7" x2="50.8" y2="195.0" stroke="#e11d48" stroke-width="1" opacity="0.15"/>
<line x1="52.0" y1="193.6" x2="52.0" y2="195.2" stroke="#e11d48" stroke-width="1" opacity="0.15"/>
<line x1="53.2" y1="193.5" x2="53.2" y2="195.3" stroke="#e11d48" stroke-width="1" opacity="0.15"/>
<line x1="54.4" y1="193.4" x2="54.4" y2="195.5" stroke="#e11d48" stroke-width="1" opacity="0.15"/>
<line x1="55.6" y1="193.2" x2="55.6" y2="195.6" stroke="#e11d48" stroke-width="1" opacity="0.15"/>
<line x1="56.8" y1="193.1" x2="56.8" y2="195.7" stroke="#e11d48" stroke-width="1" opacity="0.15"/>
<line x1="58.0" y1="192.9" x2="58.0" y2="195.8" stroke="#e11d48" stroke-width="1" opacity="0.15"/>
<line x1="59.2" y1="192.6" x2="59.2" y2="195.9" stroke="#e11d48" stroke-width="1" opacity="0.15"/>
<line x1="60.4" y1="192.4" x2="60.4" y2="195.9" stroke="#e11d48" stroke-width="1" opacity="0.15"/>
<line x1="61.6" y1="192.1" x2="61.6" y2="195.9" stroke="#e11d48" stroke-width="1" opacity="0.15"/>
<line x1="62.8" y1="191.8" x2="62.8" y2="195.9" stroke="#e11d48" stroke-width="1" opacity="0.15"/>
<line x1="64.0" y1="191.4" x2="64.0" y2="195.9" stroke="#e11d48" stroke-width="1" opacity="0.15"/>
<line x1="65.2" y1="191.1" x2="65.2" y2="195.8" stroke="#e11d48" stroke-width="1" opacity="0.15"/>
<line x1="66.4" y1="190.7" x2="66.4" y2="195.7" stroke="#e11d48" stroke-width="1" opacity="0.15"/>
<line x1="67.6" y1="190.2" x2="67.6" y2="195.6" stroke="#e11d48" stroke-width="1" opacity="0.15"/>
<line x1="68.8" y1="189.8" x2="68.8" y2="195.4" stroke="#e11d48" stroke-width="1" opacity="0.15"/>
<line x1="70.0" y1="189.3" x2="70.0" y2="195.2" stroke="#e11d48" stroke-width="1" opacity="0.15"/>
<line x1="71.2" y1="188.7" x2="71.2" y2="194.9" stroke="#e11d48" stroke-width="1" opacity="0.15"/>
<line x1="72.4" y1="188.2" x2="72.4" y2="194.7" stroke="#e11d48" stroke-width="1" opacity="0.15"/>
<line x1="73.6" y1="187.6" x2="73.6" y2="194.3" stroke="#e11d48" stroke-width="1" opacity="0.15"/>
<line x1="74.8" y1="186.9" x2="74.8" y2="194.0" stroke="#e11d48" stroke-width="1" opacity="0.15"/>
<line x1="76.0" y1="186.3" x2="76.0" y2="193.6" stroke="#e11d48" stroke-width="1" opacity="0.15"/>
<line x1="77.2" y1="185.6" x2="77.2" y2="193.2" stroke="#e11d48" stroke-width="1" opacity="0.15"/>
<line x1="78.4" y1="184.8" x2="78.4" y2="192.7" stroke="#e11d48" stroke-width="1" opacity="0.15"/>
<line x1="79.6" y1="184.1" x2="79.6" y2="192.2" stroke="#e11d48" stroke-width="1" opacity="0.15"/>
<line x1="80.8" y1="183.3" x2="80.8" y2="191.6" stroke="#e11d48" stroke-width="1" opacity="0.15"/>
<line x1="82.0" y1="182.4" x2="82.0" y2="191.1" stroke="#e11d48" stroke-width="1" opacity="0.15"/>
<line x1="83.2" y1="181.6" x2="83.2" y2="190.4" stroke="#e11d48" stroke-width="1" opacity="0.15"/>
<line x1="84.4" y1="180.7" x2="84.4" y2="189.8" stroke="#e11d48" stroke-width="1" opacity="0.15"/>
<line x1="85.6" y1="179.7" x2="85.6" y2="189.1" stroke="#e11d48" stroke-width="1" opacity="0.15"/>
<line x1="86.8" y1="178.8" x2="86.8" y2="188.3" stroke="#e11d48" stroke-width="1" opacity="0.15"/>
<line x1="88.0" y1="177.8" x2="88.0" y2="187.5" stroke="#e11d48" stroke-width="1" opacity="0.15"/>
<line x1="89.2" y1="176.7" x2="89.2" y2="186.7" stroke="#e11d48" stroke-width="1" opacity="0.15"/>
<line x1="90.4" y1="175.6" x2="90.4" y2="185.8" stroke="#e11d48" stroke-width="1" opacity="0.15"/>
<line x1="91.6" y1="174.5" x2="91.6" y2="184.9" stroke="#e11d48" stroke-width="1" opacity="0.15"/>
<line x1="92.8" y1="173.4" x2="92.8" y2="184.0" stroke="#e11d48" stroke-width="1" opacity="0.15"/>
<line x1="94.0" y1="172.3" x2="94.0" y2="183.0" stroke="#e11d48" stroke-width="1" opacity="0.15"/>
<line x1="95.2" y1="171.1" x2="95.2" y2="182.0" stroke="#e11d48" stroke-width="1" opacity="0.15"/>
<line x1="96.4" y1="169.8" x2="96.4" y2="180.9" stroke="#e11d48" stroke-width="1" opacity="0.15"/>
<line x1="97.6" y1="168.6" x2="97.6" y2="179.8" stroke="#e11d48" stroke-width="1" opacity="0.15"/>
<line x1="98.8" y1="167.3" x2="98.8" y2="178.7" stroke="#e11d48" stroke-width="1" opacity="0.15"/>
<line x1="100.0" y1="166.0" x2="100.0" y2="177.5" stroke="#e11d48" stroke-width="1" opacity="0.15"/>
<line x1="101.2" y1="164.7" x2="101.2" y2="176.3" stroke="#e11d48" stroke-width="1" opacity="0.15"/>
<line x1="102.4" y1="163.3" x2="102.4" y2="175.1" stroke="#e11d48" stroke-width="1" opacity="0.15"/>
<line x1="103.6" y1="162.0" x2="103.6" y2="173.8" stroke="#e11d48" stroke-width="1" opacity="0.15"/>
<line x1="104.8" y1="160.5" x2="104.8" y2="172.5" stroke="#e11d48" stroke-width="1" opacity="0.15"/>
<line x1="106.0" y1="159.1" x2="106.0" y2="171.2" stroke="#e11d48" stroke-width="1" opacity="0.15"/>
<line x1="107.2" y1="157.7" x2="107.2" y2="169.8" stroke="#e11d48" stroke-width="1" opacity="0.15"/>
<line x1="108.4" y1="156.2" x2="108.4" y2="168.5" stroke="#e11d48" stroke-width="1" opacity="0.15"/>
<line x1="109.6" y1="154.7" x2="109.6" y2="167.0" stroke="#e11d48" stroke-width="1" opacity="0.15"/>
<line x1="110.8" y1="153.2" x2="110.8" y2="165.6" stroke="#e11d48" stroke-width="1" opacity="0.15"/>
<line x1="112.0" y1="151.7" x2="112.0" y2="164.1" stroke="#e11d48" stroke-width="1" opacity="0.15"/>
<line x1="113.2" y1="150.1" x2="113.2" y2="162.6" stroke="#e11d48" stroke-width="1" opacity="0.15"/>
<line x1="114.4" y1="148.6" x2="114.4" y2="161.1" stroke="#e11d48" stroke-width="1" opacity="0.15"/>
<line x1="115.6" y1="147.0" x2="115.6" y2="159.6" stroke="#e11d48" stroke-width="1" opacity="0.15"/>
<line x1="116.8" y1="145.4" x2="116.8" y2="158.0" stroke="#e11d48" stroke-width="1" opacity="0.15"/>
<line x1="118.0" y1="143.8" x2="118.0" y2="156.4" stroke="#e11d48" stroke-width="1" opacity="0.15"/>
<line x1="119.2" y1="142.2" x2="119.2" y2="154.8" stroke="#e11d48" stroke-width="1" opacity="0.15"/>
<line x1="120.4" y1="140.6" x2="120.4" y2="153.2" stroke="#e11d48" stroke-width="1" opacity="0.15"/>
<line x1="121.6" y1="138.9" x2="121.6" y2="151.6" stroke="#e11d48" stroke-width="1" opacity="0.15"/>
<line x1="122.8" y1="137.3" x2="122.8" y2="149.9" stroke="#e11d48" stroke-width="1" opacity="0.15"/>
<line x1="124.0" y1="135.6" x2="124.0" y2="148.2" stroke="#e11d48" stroke-width="1" opacity="0.15"/>
<line x1="125.2" y1="134.0" x2="125.2" y2="146.6" stroke="#e11d48" stroke-width="1" opacity="0.15"/>
<line x1="126.4" y1="132.3" x2="126.4" y2="144.9" stroke="#e11d48" stroke-width="1" opacity="0.15"/>
<line x1="127.6" y1="130.7" x2="127.6" y2="143.2" stroke="#e11d48" stroke-width="1" opacity="0.15"/>
<line x1="128.8" y1="129.0" x2="128.8" y2="141.4" stroke="#e11d48" stroke-width="1" opacity="0.15"/>
<line x1="130.0" y1="127.3" x2="130.0" y2="139.7" stroke="#e11d48" stroke-width="1" opacity="0.15"/>
<line x1="131.2" y1="125.7" x2="131.2" y2="138.0" stroke="#e11d48" stroke-width="1" opacity="0.15"/>
<line x1="132.4" y1="124.0" x2="132.4" y2="136.2" stroke="#e11d48" stroke-width="1" opacity="0.15"/>
<line x1="133.6" y1="122.3" x2="133.6" y2="134.5" stroke="#e11d48" stroke-width="1" opacity="0.15"/>
<line x1="134.8" y1="120.7" x2="134.8" y2="132.8" stroke="#e11d48" stroke-width="1" opacity="0.15"/>
<line x1="136.0" y1="119.0" x2="136.0" y2="131.0" stroke="#e11d48" stroke-width="1" opacity="0.15"/>
<line x1="137.2" y1="117.4" x2="137.2" y2="129.3" stroke="#e11d48" stroke-width="1" opacity="0.15"/>
<line x1="138.4" y1="115.7" x2="138.4" y2="127.5" stroke="#e11d48" stroke-width="1" opacity="0.15"/>
<line x1="139.6" y1="114.1" x2="139.6" y2="125.8" stroke="#e11d48" stroke-width="1" opacity="0.15"/>
<line x1="140.8" y1="112.5" x2="140.8" y2="124.0" stroke="#e11d48" stroke-width="1" opacity="0.15"/>
<line x1="142.0" y1="110.9" x2="142.0" y2="122.3" stroke="#e11d48" stroke-width="1" opacity="0.15"/>
<line x1="143.2" y1="109.3" x2="143.2" y2="120.6" stroke="#e11d48" stroke-width="1" opacity="0.15"/>
<line x1="144.4" y1="107.7" x2="144.4" y2="118.9" stroke="#e11d48" stroke-width="1" opacity="0.15"/>
<line x1="145.6" y1="106.1" x2="145.6" y2="117.1" stroke="#e11d48" stroke-width="1" opacity="0.15"/>
<line x1="146.8" y1="104.5" x2="146.8" y2="115.4" stroke="#e11d48" stroke-width="1" opacity="0.15"/>
<line x1="148.0" y1="103.0" x2="148.0" y2="113.8" stroke="#e11d48" stroke-width="1" opacity="0.15"/>
<line x1="149.2" y1="101.5" x2="149.2" y2="112.1" stroke="#e11d48" stroke-width="1" opacity="0.15"/>
<line x1="150.4" y1="100.0" x2="150.4" y2="110.4" stroke="#e11d48" stroke-width="1" opacity="0.15"/>
<line x1="151.6" y1="98.5" x2="151.6" y2="108.8" stroke="#e11d48" stroke-width="1" opacity="0.15"/>
<line x1="152.8" y1="97.0" x2="152.8" y2="107.1" stroke="#e11d48" stroke-width="1" opacity="0.15"/>
<line x1="154.0" y1="95.5" x2="154.0" y2="105.5" stroke="#e11d48" stroke-width="1" opacity="0.15"/>
<line x1="155.2" y1="94.1" x2="155.2" y2="103.9" stroke="#e11d48" stroke-width="1" opacity="0.15"/>
<line x1="156.4" y1="92.7" x2="156.4" y2="102.3" stroke="#e11d48" stroke-width="1" opacity="0.15"/>
<line x1="157.6" y1="91.3" x2="157.6" y2="100.8" stroke="#e11d48" stroke-width="1" opacity="0.15"/>
<line x1="158.8" y1="90.0" x2="158.8" y2="99.2" stroke="#e11d48" stroke-width="1" opacity="0.15"/>
<line x1="160.0" y1="88.7" x2="160.0" y2="97.7" stroke="#e11d48" stroke-width="1" opacity="0.15"/>
<line x1="161.2" y1="87.3" x2="161.2" y2="96.2" stroke="#e11d48" stroke-width="1" opacity="0.15"/>
<line x1="162.4" y1="86.1" x2="162.4" y2="94.7" stroke="#e11d48" stroke-width="1" opacity="0.15"/>
<line x1="163.6" y1="84.8" x2="163.6" y2="93.3" stroke="#e11d48" stroke-width="1" opacity="0.15"/>
<line x1="164.8" y1="83.6" x2="164.8" y2="91.9" stroke="#e11d48" stroke-width="1" opacity="0.15"/>
<line x1="166.0" y1="82.4" x2="166.0" y2="90.5" stroke="#e11d48" stroke-width="1" opacity="0.15"/>
<line x1="167.2" y1="81.2" x2="167.2" y2="89.1" stroke="#e11d48" stroke-width="1" opacity="0.15"/>
<line x1="168.4" y1="80.1" x2="168.4" y2="87.8" stroke="#e11d48" stroke-width="1" opacity="0.15"/>
<line x1="169.6" y1="79.0" x2="169.6" y2="86.5" stroke="#e11d48" stroke-width="1" opacity="0.15"/>
<line x1="170.8" y1="78.0" x2="170.8" y2="85.2" stroke="#e11d48" stroke-width="1" opacity="0.15"/>
<line x1="172.0" y1="76.9" x2="172.0" y2="84.0" stroke="#e11d48" stroke-width="1" opacity="0.15"/>
<line x1="173.2" y1="75.9" x2="173.2" y2="82.8" stroke="#e11d48" stroke-width="1" opacity="0.15"/>
<line x1="174.4" y1="74.9" x2="174.4" y2="81.6" stroke="#e11d48" stroke-width="1" opacity="0.15"/>
<line x1="175.6" y1="74.0" x2="175.6" y2="80.4" stroke="#e11d48" stroke-width="1" opacity="0.15"/>
<line x1="176.8" y1="73.1" x2="176.8" y2="79.3" stroke="#e11d48" stroke-width="1" opacity="0.15"/>
<line x1="178.0" y1="72.2" x2="178.0" y2="78.3" stroke="#e11d48" stroke-width="1" opacity="0.15"/>
<line x1="179.2" y1="71.4" x2="179.2" y2="77.2" stroke="#e11d48" stroke-width="1" opacity="0.15"/>
<line x1="180.4" y1="70.6" x2="180.4" y2="76.2" stroke="#e11d48" stroke-width="1" opacity="0.15"/>
<line x1="181.6" y1="69.8" x2="181.6" y2="75.2" stroke="#e11d48" stroke-width="1" opacity="0.15"/>
<line x1="182.8" y1="69.1" x2="182.8" y2="74.3" stroke="#e11d48" stroke-width="1" opacity="0.15"/>
<line x1="184.0" y1="68.4" x2="184.0" y2="73.4" stroke="#e11d48" stroke-width="1" opacity="0.15"/>
<line x1="185.2" y1="67.7" x2="185.2" y2="72.5" stroke="#e11d48" stroke-width="1" opacity="0.15"/>
<line x1="186.4" y1="67.1" x2="186.4" y2="71.7" stroke="#e11d48" stroke-width="1" opacity="0.15"/>
<line x1="187.6" y1="66.5" x2="187.6" y2="70.9" stroke="#e11d48" stroke-width="1" opacity="0.15"/>
<line x1="188.8" y1="65.9" x2="188.8" y2="70.2" stroke="#e11d48" stroke-width="1" opacity="0.15"/>
<line x1="190.0" y1="65.4" x2="190.0" y2="69.4" stroke="#e11d48" stroke-width="1" opacity="0.15"/>
<line x1="191.2" y1="64.9" x2="191.2" y2="68.8" stroke="#e11d48" stroke-width="1" opacity="0.15"/>
<line x1="192.4" y1="64.4" x2="192.4" y2="68.1" stroke="#e11d48" stroke-width="1" opacity="0.15"/>
<line x1="193.6" y1="64.0" x2="193.6" y2="67.5" stroke="#e11d48" stroke-width="1" opacity="0.15"/>
<line x1="194.8" y1="63.6" x2="194.8" y2="66.9" stroke="#e11d48" stroke-width="1" opacity="0.15"/>
<line x1="196.0" y1="63.2" x2="196.0" y2="66.4" stroke="#e11d48" stroke-width="1" opacity="0.15"/>
<line x1="197.2" y1="62.9" x2="197.2" y2="65.9" stroke="#e11d48" stroke-width="1" opacity="0.15"/>
<line x1="198.4" y1="62.6" x2="198.4" y2="65.4" stroke="#e11d48" stroke-width="1" opacity="0.15"/>
<line x1="199.6" y1="62.3" x2="199.6" y2="65.0" stroke="#e11d48" stroke-width="1" opacity="0.15"/>
<line x1="200.8" y1="62.0" x2="200.8" y2="64.6" stroke="#e11d48" stroke-width="1" opacity="0.15"/>
<line x1="202.0" y1="61.8" x2="202.0" y2="64.2" stroke="#e11d48" stroke-width="1" opacity="0.15"/>
<line x1="203.2" y1="61.6" x2="203.2" y2="63.9" stroke="#e11d48" stroke-width="1" opacity="0.15"/>
<line x1="204.4" y1="61.4" x2="204.4" y2="63.6" stroke="#e11d48" stroke-width="1" opacity="0.15"/>
<line x1="205.6" y1="61.3" x2="205.6" y2="63.3" stroke="#e11d48" stroke-width="1" opacity="0.15"/>
<line x1="206.8" y1="61.1" x2="206.8" y2="63.1" stroke="#e11d48" stroke-width="1" opacity="0.15"/>
<line x1="208.0" y1="61.0" x2="208.0" y2="62.8" stroke="#e11d48" stroke-width="1" opacity="0.15"/>
<line x1="209.2" y1="60.9" x2="209.2" y2="62.6" stroke="#e11d48" stroke-width="1" opacity="0.15"/>
<line x1="210.4" y1="60.9" x2="210.4" y2="62.5" stroke="#e11d48" stroke-width="1" opacity="0.15"/>
<line x1="211.6" y1="60.8" x2="211.6" y2="62.3" stroke="#e11d48" stroke-width="1" opacity="0.15"/>
<line x1="212.8" y1="60.7" x2="212.8" y2="62.2" stroke="#e11d48" stroke-width="1" opacity="0.15"/>
<line x1="214.0" y1="60.7" x2="214.0" y2="62.1" stroke="#e11d48" stroke-width="1" opacity="0.15"/>
<line x1="215.2" y1="60.7" x2="215.2" y2="62.1" stroke="#e11d48" stroke-width="1" opacity="0.15"/>
<line x1="216.4" y1="60.7" x2="216.4" y2="62.0" stroke="#e11d48" stroke-width="1" opacity="0.15"/>
<line x1="217.6" y1="60.7" x2="217.6" y2="62.0" stroke="#e11d48" stroke-width="1" opacity="0.15"/>
<line x1="218.8" y1="60.7" x2="218.8" y2="61.9" stroke="#e11d48" stroke-width="1" opacity="0.15"/>
<line x1="220.0" y1="60.7" x2="220.0" y2="61.9" stroke="#e11d48" stroke-width="1" opacity="0.15"/>
<path d="M 40.0 194.0 L 40.2 194.0 L 40.5 194.0 L 40.7 194.0 L 41.0 194.0 L 41.2 194.0 L 41.4 194.0 L 41.7 194.0 L 41.9 194.0 L 42.2 194.0 L 42.4 194.0 L 42.6 194.0 L 42.9 194.0 L 43.1 194.0 L 43.4 194.0 L 43.6 194.0 L 43.8 194.0 L 44.1 194.0 L 44.3 194.0 L 44.6 194.0 L 44.8 194.0 L 45.0 194.0 L 45.3 194.0 L 45.5 194.0 L 45.8 194.0 L 46.0 194.0 L 46.2 193.9 L 46.5 193.9 L 46.7 193.9 L 47.0 193.9 L 47.2 193.9 L 47.4 193.9 L 47.7 193.9 L 47.9 193.9 L 48.2 193.9 L 48.4 193.9 L 48.6 193.9 L 48.9 193.9 L 49.1 193.8 L 49.4 193.8 L 49.6 193.8 L 49.8 193.8 L 50.1 193.8 L 50.3 193.8 L 50.6 193.8 L 50.8 193.7 L 51.0 193.7 L 51.3 193.7 L 51.5 193.7 L 51.8 193.7 L 52.0 193.6 L 52.2 193.6 L 52.5 193.6 L 52.7 193.6 L 53.0 193.6 L 53.2 193.5 L 53.4 193.5 L 53.7 193.5 L 53.9 193.5 L 54.2 193.4 L 54.4 193.4 L 54.6 193.4 L 54.9 193.3 L 55.1 193.3 L 55.4 193.3 L 55.6 193.2 L 55.8 193.2 L 56.1 193.2 L 56.3 193.1 L 56.6 193.1 L 56.8 193.1 L 57.0 193.0 L 57.3 193.0 L 57.5 192.9 L 57.8 192.9 L 58.0 192.9 L 58.2 192.8 L 58.5 192.8 L 58.7 192.7 L 59.0 192.7 L 59.2 192.6 L 59.4 192.6 L 59.7 192.5 L 59.9 192.5 L 60.2 192.4 L 60.4 192.4 L 60.6 192.3 L 60.9 192.3 L 61.1 192.2 L 61.4 192.1 L 61.6 192.1 L 61.8 192.0 L 62.1 192.0 L 62.3 191.9 L 62.6 191.8 L 62.8 191.8 L 63.0 191.7 L 63.3 191.6 L 63.5 191.6 L 63.8 191.5 L 64.0 191.4 L 64.2 191.4 L 64.5 191.3 L 64.7 191.2 L 65.0 191.1 L 65.2 191.1 L 65.4 191.0 L 65.7 190.9 L 65.9 190.8 L 66.2 190.7 L 66.4 190.7 L 66.6 190.6 L 66.9 190.5 L 67.1 190.4 L 67.4 190.3 L 67.6 190.2 L 67.8 190.1 L 68.1 190.0 L 68.3 190.0 L 68.6 189.9 L 68.8 189.8 L 69.0 189.7 L 69.3 189.6 L 69.5 189.5 L 69.8 189.4 L 70.0 189.3 L 70.2 189.2 L 70.5 189.1 L 70.7 189.0 L 71.0 188.8 L 71.2 188.7 L 71.4 188.6 L 71.7 188.5 L 71.9 188.4 L 72.2 188.3 L 72.4 188.2 L 72.6 188.1 L 72.9 187.9 L 73.1 187.8 L 73.4 187.7 L 73.6 187.6 L 73.8 187.5 L 74.1 187.3 L 74.3 187.2 L 74.6 187.1 L 74.8 186.9 L 75.0 186.8 L 75.3 186.7 L 75.5 186.5 L 75.8 186.4 L 76.0 186.3 L 76.2 186.1 L 76.5 186.0 L 76.7 185.9 L 77.0 185.7 L 77.2 185.6 L 77.4 185.4 L 77.7 185.3 L 77.9 185.1 L 78.2 185.0 L 78.4 184.8 L 78.6 184.7 L 78.9 184.5 L 79.1 184.4 L 79.4 184.2 L 79.6 184.1 L 79.8 183.9 L 80.1 183.8 L 80.3 183.6 L 80.6 183.4 L 80.8 183.3 L 81.0 183.1 L 81.3 182.9 L 81.5 182.8 L 81.8 182.6 L 82.0 182.4 L 82.2 182.3 L 82.5 182.1 L 82.7 181.9 L 83.0 181.7 L 83.2 181.6 L 83.4 181.4 L 83.7 181.2 L 83.9 181.0 L 84.2 180.8 L 84.4 180.7 L 84.6 180.5 L 84.9 180.3 L 85.1 180.1 L 85.4 179.9 L 85.6 179.7 L 85.8 179.5 L 86.1 179.3 L 86.3 179.1 L 86.6 179.0 L 86.8 178.8 L 87.0 178.6 L 87.3 178.4 L 87.5 178.2 L 87.8 178.0 L 88.0 177.8 L 88.2 177.5 L 88.5 177.3 L 88.7 177.1 L 89.0 176.9 L 89.2 176.7 L 89.4 176.5 L 89.7 176.3 L 89.9 176.1 L 90.2 175.9 L 90.4 175.6 L 90.6 175.4 L 90.9 175.2 L 91.1 175.0 L 91.4 174.8 L 91.6 174.5 L 91.8 174.3 L 92.1 174.1 L 92.3 173.9 L 92.6 173.6 L 92.8 173.4 L 93.0 173.2 L 93.3 173.0 L 93.5 172.7 L 93.8 172.5 L 94.0 172.3 L 94.2 172.0 L 94.5 171.8 L 94.7 171.5 L 95.0 171.3 L 95.2 171.1 L 95.4 170.8 L 95.7 170.6 L 95.9 170.3 L 96.2 170.1 L 96.4 169.8 L 96.6 169.6 L 96.9 169.3 L 97.1 169.1 L 97.4 168.8 L 97.6 168.6 L 97.8 168.3 L 98.1 168.1 L 98.3 167.8 L 98.6 167.6 L 98.8 167.3 L 99.0 167.1 L 99.3 166.8 L 99.5 166.5 L 99.8 166.3 L 100.0 166.0 L 100.2 165.8 L 100.5 165.5 L 100.7 165.2 L 101.0 165.0 L 101.2 164.7 L 101.4 164.4 L 101.7 164.1 L 101.9 163.9 L 102.2 163.6 L 102.4 163.3 L 102.6 163.1 L 102.9 162.8 L 103.1 162.5 L 103.4 162.2 L 103.6 162.0 L 103.8 161.7 L 104.1 161.4 L 104.3 161.1 L 104.6 160.8 L 104.8 160.5 L 105.0 160.3 L 105.3 160.0 L 105.5 159.7 L 105.8 159.4 L 106.0 159.1 L 106.2 158.8 L 106.5 158.5 L 106.7 158.3 L 107.0 158.0 L 107.2 157.7 L 107.4 157.4 L 107.7 157.1 L 107.9 156.8 L 108.2 156.5 L 108.4 156.2 L 108.6 155.9 L 108.9 155.6 L 109.1 155.3 L 109.4 155.0 L 109.6 154.7 L 109.8 154.4 L 110.1 154.1 L 110.3 153.8 L 110.6 153.5 L 110.8 153.2 L 111.0 152.9 L 111.3 152.6 L 111.5 152.3 L 111.8 152.0 L 112.0 151.7 L 112.2 151.4 L 112.5 151.1 L 112.7 150.8 L 113.0 150.4 L 113.2 150.1 L 113.4 149.8 L 113.7 149.5 L 113.9 149.2 L 114.2 148.9 L 114.4 148.6 L 114.6 148.3 L 114.9 147.9 L 115.1 147.6 L 115.4 147.3 L 115.6 147.0 L 115.8 146.7 L 116.1 146.4 L 116.3 146.0 L 116.6 145.7 L 116.8 145.4 L 117.0 145.1 L 117.3 144.8 L 117.5 144.4 L 117.8 144.1 L 118.0 143.8 L 118.2 143.5 L 118.5 143.2 L 118.7 142.8 L 119.0 142.5 L 119.2 142.2 L 119.4 141.9 L 119.7 141.5 L 119.9 141.2 L 120.2 140.9 L 120.4 140.6 L 120.6 140.2 L 120.9 139.9 L 121.1 139.6 L 121.4 139.3 L 121.6 138.9 L 121.8 138.6 L 122.1 138.3 L 122.3 137.9 L 122.6 137.6 L 122.8 137.3 L 123.0 137.0 L 123.3 136.6 L 123.5 136.3 L 123.8 136.0 L 124.0 135.6 L 124.2 135.3 L 124.5 135.0 L 124.7 134.6 L 125.0 134.3 L 125.2 134.0 L 125.4 133.7 L 125.7 133.3 L 125.9 133.0 L 126.2 132.7 L 126.4 132.3 L 126.6 132.0 L 126.9 131.7 L 127.1 131.3 L 127.4 131.0 L 127.6 130.7 L 127.8 130.3 L 128.1 130.0 L 128.3 129.7 L 128.6 129.3 L 128.8 129.0 L 129.0 128.7 L 129.3 128.3 L 129.5 128.0 L 129.8 127.7 L 130.0 127.3 L 130.2 127.0 L 130.5 126.7 L 130.7 126.3 L 131.0 126.0 L 131.2 125.7 L 131.4 125.3 L 131.7 125.0 L 131.9 124.7 L 132.2 124.3 L 132.4 124.0 L 132.6 123.7 L 132.9 123.3 L 133.1 123.0 L 133.4 122.7 L 133.6 122.3 L 133.8 122.0 L 134.1 121.7 L 134.3 121.3 L 134.6 121.0 L 134.8 120.7 L 135.0 120.3 L 135.3 120.0 L 135.5 119.7 L 135.8 119.4 L 136.0 119.0 L 136.2 118.7 L 136.5 118.4 L 136.7 118.0 L 137.0 117.7 L 137.2 117.4 L 137.4 117.0 L 137.7 116.7 L 137.9 116.4 L 138.2 116.1 L 138.4 115.7 L 138.6 115.4 L 138.9 115.1 L 139.1 114.8 L 139.4 114.4 L 139.6 114.1 L 139.8 113.8 L 140.1 113.4 L 140.3 113.1 L 140.6 112.8 L 140.8 112.5 L 141.0 112.2 L 141.3 111.8 L 141.5 111.5 L 141.8 111.2 L 142.0 110.9 L 142.2 110.5 L 142.5 110.2 L 142.7 109.9 L 143.0 109.6 L 143.2 109.3 L 143.4 108.9 L 143.7 108.6 L 143.9 108.3 L 144.2 108.0 L 144.4 107.7 L 144.6 107.4 L 144.9 107.0 L 145.1 106.7 L 145.4 106.4 L 145.6 106.1 L 145.8 105.8 L 146.1 105.5 L 146.3 105.2 L 146.6 104.8 L 146.8 104.5 L 147.0 104.2 L 147.3 103.9 L 147.5 103.6 L 147.8 103.3 L 148.0 103.0 L 148.2 102.7 L 148.5 102.4 L 148.7 102.1 L 149.0 101.8 L 149.2 101.5 L 149.4 101.2 L 149.7 100.9 L 149.9 100.6 L 150.2 100.3 L 150.4 100.0 L 150.6 99.7 L 150.9 99.4 L 151.1 99.1 L 151.4 98.8 L 151.6 98.5 L 151.8 98.2 L 152.1 97.9 L 152.3 97.6 L 152.6 97.3 L 152.8 97.0 L 153.0 96.7 L 153.3 96.4 L 153.5 96.1 L 153.8 95.8 L 154.0 95.5 L 154.2 95.3 L 154.5 95.0 L 154.7 94.7 L 155.0 94.4 L 155.2 94.1 L 155.4 93.8 L 155.7 93.6 L 155.9 93.3 L 156.2 93.0 L 156.4 92.7 L 156.6 92.4 L 156.9 92.2 L 157.1 91.9 L 157.4 91.6 L 157.6 91.3 L 157.8 91.1 L 158.1 90.8 L 158.3 90.5 L 158.6 90.2 L 158.8 90.0 L 159.0 89.7 L 159.3 89.4 L 159.5 89.2 L 159.8 88.9 L 160.0 88.7 L 160.2 88.4 L 160.5 88.1 L 160.7 87.9 L 161.0 87.6 L 161.2 87.3 L 161.4 87.1 L 161.7 86.8 L 161.9 86.6 L 162.2 86.3 L 162.4 86.1 L 162.6 85.8 L 162.9 85.6 L 163.1 85.3 L 163.4 85.1 L 163.6 84.8 L 163.8 84.6 L 164.1 84.3 L 164.3 84.1 L 164.6 83.8 L 164.8 83.6 L 165.0 83.4 L 165.3 83.1 L 165.5 82.9 L 165.8 82.6 L 166.0 82.4 L 166.2 82.2 L 166.5 81.9 L 166.7 81.7 L 167.0 81.5 L 167.2 81.2 L 167.4 81.0 L 167.7 80.8 L 167.9 80.6 L 168.2 80.3 L 168.4 80.1 L 168.6 79.9 L 168.9 79.7 L 169.1 79.5 L 169.4 79.2 L 169.6 79.0 L 169.8 78.8 L 170.1 78.6 L 170.3 78.4 L 170.6 78.2 L 170.8 78.0 L 171.0 77.7 L 171.3 77.5 L 171.5 77.3 L 171.8 77.1 L 172.0 76.9 L 172.2 76.7 L 172.5 76.5 L 172.7 76.3 L 173.0 76.1 L 173.2 75.9 L 173.4 75.7 L 173.7 75.5 L 173.9 75.3 L 174.2 75.1 L 174.4 74.9 L 174.6 74.8 L 174.9 74.6 L 175.1 74.4 L 175.4 74.2 L 175.6 74.0 L 175.8 73.8 L 176.1 73.6 L 176.3 73.5 L 176.6 73.3 L 176.8 73.1 L 177.0 72.9 L 177.3 72.7 L 177.5 72.6 L 177.8 72.4 L 178.0 72.2 L 178.2 72.1 L 178.5 71.9 L 178.7 71.7 L 179.0 71.6 L 179.2 71.4 L 179.4 71.2 L 179.7 71.1 L 179.9 70.9 L 180.2 70.7 L 180.4 70.6 L 180.6 70.4 L 180.9 70.3 L 181.1 70.1 L 181.4 70.0 L 181.6 69.8 L 181.8 69.7 L 182.1 69.5 L 182.3 69.4 L 182.6 69.2 L 182.8 69.1 L 183.0 68.9 L 183.3 68.8 L 183.5 68.7 L 183.8 68.5 L 184.0 68.4 L 184.2 68.3 L 184.5 68.1 L 184.7 68.0 L 185.0 67.9 L 185.2 67.7 L 185.4 67.6 L 185.7 67.5 L 185.9 67.3 L 186.2 67.2 L 186.4 67.1 L 186.6 67.0 L 186.9 66.8 L 187.1 66.7 L 187.4 66.6 L 187.6 66.5 L 187.8 66.4 L 188.1 66.3 L 188.3 66.2 L 188.6 66.0 L 188.8 65.9 L 189.0 65.8 L 189.3 65.7 L 189.5 65.6 L 189.8 65.5 L 190.0 65.4 L 190.2 65.3 L 190.5 65.2 L 190.7 65.1 L 191.0 65.0 L 191.2 64.9 L 191.4 64.8 L 191.7 64.7 L 191.9 64.6 L 192.2 64.5 L 192.4 64.4 L 192.6 64.3 L 192.9 64.3 L 193.1 64.2 L 193.4 64.1 L 193.6 64.0 L 193.8 63.9 L 194.1 63.8 L 194.3 63.8 L 194.6 63.7 L 194.8 63.6 L 195.0 63.5 L 195.3 63.4 L 195.5 63.4 L 195.8 63.3 L 196.0 63.2 L 196.2 63.2 L 196.5 63.1 L 196.7 63.0 L 197.0 63.0 L 197.2 62.9 L 197.4 62.8 L 197.7 62.8 L 197.9 62.7 L 198.2 62.6 L 198.4 62.6 L 198.6 62.5 L 198.9 62.5 L 199.1 62.4 L 199.4 62.3 L 199.6 62.3 L 199.8 62.2 L 200.1 62.2 L 200.3 62.1 L 200.6 62.1 L 200.8 62.0 L 201.0 62.0 L 201.3 61.9 L 201.5 61.9 L 201.8 61.9 L 202.0 61.8 L 202.2 61.8 L 202.5 61.7 L 202.7 61.7 L 203.0 61.6 L 203.2 61.6 L 203.4 61.6 L 203.7 61.5 L 203.9 61.5 L 204.2 61.5 L 204.4 61.4 L 204.6 61.4 L 204.9 61.4 L 205.1 61.3 L 205.4 61.3 L 205.6 61.3 L 205.8 61.2 L 206.1 61.2 L 206.3 61.2 L 206.6 61.2 L 206.8 61.1 L 207.0 61.1 L 207.3 61.1 L 207.5 61.1 L 207.8 61.0 L 208.0 61.0 L 208.2 61.0 L 208.5 61.0 L 208.7 61.0 L 209.0 60.9 L 209.2 60.9 L 209.4 60.9 L 209.7 60.9 L 209.9 60.9 L 210.2 60.9 L 210.4 60.9 L 210.6 60.8 L 210.9 60.8 L 211.1 60.8 L 211.4 60.8 L 211.6 60.8 L 211.8 60.8 L 212.1 60.8 L 212.3 60.8 L 212.6 60.8 L 212.8 60.7 L 213.0 60.7 L 213.3 60.7 L 213.5 60.7 L 213.8 60.7 L 214.0 60.7 L 214.2 60.7 L 214.5 60.7 L 214.7 60.7 L 215.0 60.7 L 215.2 60.7 L 215.4 60.7 L 215.7 60.7 L 215.9 60.7 L 216.2 60.7 L 216.4 60.7 L 216.6 60.7 L 216.9 60.7 L 217.1 60.7 L 217.4 60.7 L 217.6 60.7 L 217.8 60.7 L 218.1 60.7 L 218.3 60.7 L 218.6 60.7 L 218.8 60.7 L 219.0 60.7 L 219.3 60.7 L 219.5 60.7 L 219.8 60.7 L 220.0 60.7" fill="none" stroke="#0d9488" stroke-width="2.2"/>
<path d="M 40.0 194.0 L 40.2 194.0 L 40.5 194.0 L 40.7 194.0 L 41.0 194.0 L 41.2 194.0 L 41.4 194.0 L 41.7 194.0 L 41.9 194.1 L 42.2 194.1 L 42.4 194.1 L 42.6 194.1 L 42.9 194.1 L 43.1 194.1 L 43.4 194.2 L 43.6 194.2 L 43.8 194.2 L 44.1 194.2 L 44.3 194.2 L 44.6 194.3 L 44.8 194.3 L 45.0 194.3 L 45.3 194.3 L 45.5 194.4 L 45.8 194.4 L 46.0 194.4 L 46.2 194.5 L 46.5 194.5 L 46.7 194.5 L 47.0 194.5 L 47.2 194.6 L 47.4 194.6 L 47.7 194.6 L 47.9 194.7 L 48.2 194.7 L 48.4 194.7 L 48.6 194.8 L 48.9 194.8 L 49.1 194.8 L 49.4 194.9 L 49.6 194.9 L 49.8 194.9 L 50.1 195.0 L 50.3 195.0 L 50.6 195.0 L 50.8 195.0 L 51.0 195.1 L 51.3 195.1 L 51.5 195.1 L 51.8 195.2 L 52.0 195.2 L 52.2 195.2 L 52.5 195.3 L 52.7 195.3 L 53.0 195.3 L 53.2 195.3 L 53.4 195.4 L 53.7 195.4 L 53.9 195.4 L 54.2 195.5 L 54.4 195.5 L 54.6 195.5 L 54.9 195.5 L 55.1 195.6 L 55.4 195.6 L 55.6 195.6 L 55.8 195.6 L 56.1 195.6 L 56.3 195.7 L 56.6 195.7 L 56.8 195.7 L 57.0 195.7 L 57.3 195.7 L 57.5 195.8 L 57.8 195.8 L 58.0 195.8 L 58.2 195.8 L 58.5 195.8 L 58.7 195.8 L 59.0 195.8 L 59.2 195.9 L 59.4 195.9 L 59.7 195.9 L 59.9 195.9 L 60.2 195.9 L 60.4 195.9 L 60.6 195.9 L 60.9 195.9 L 61.1 195.9 L 61.4 195.9 L 61.6 195.9 L 61.8 195.9 L 62.1 195.9 L 62.3 195.9 L 62.6 195.9 L 62.8 195.9 L 63.0 195.9 L 63.3 195.9 L 63.5 195.9 L 63.8 195.9 L 64.0 195.9 L 64.2 195.8 L 64.5 195.8 L 64.7 195.8 L 65.0 195.8 L 65.2 195.8 L 65.4 195.8 L 65.7 195.8 L 65.9 195.7 L 66.2 195.7 L 66.4 195.7 L 66.6 195.7 L 66.9 195.6 L 67.1 195.6 L 67.4 195.6 L 67.6 195.6 L 67.8 195.5 L 68.1 195.5 L 68.3 195.5 L 68.6 195.4 L 68.8 195.4 L 69.0 195.3 L 69.3 195.3 L 69.5 195.3 L 69.8 195.2 L 70.0 195.2 L 70.2 195.1 L 70.5 195.1 L 70.7 195.0 L 71.0 195.0 L 71.2 194.9 L 71.4 194.9 L 71.7 194.8 L 71.9 194.8 L 72.2 194.7 L 72.4 194.7 L 72.6 194.6 L 72.9 194.5 L 73.1 194.5 L 73.4 194.4 L 73.6 194.3 L 73.8 194.3 L 74.1 194.2 L 74.3 194.1 L 74.6 194.1 L 74.8 194.0 L 75.0 193.9 L 75.3 193.8 L 75.5 193.8 L 75.8 193.7 L 76.0 193.6 L 76.2 193.5 L 76.5 193.4 L 76.7 193.4 L 77.0 193.3 L 77.2 193.2 L 77.4 193.1 L 77.7 193.0 L 77.9 192.9 L 78.2 192.8 L 78.4 192.7 L 78.6 192.6 L 78.9 192.5 L 79.1 192.4 L 79.4 192.3 L 79.6 192.2 L 79.8 192.1 L 80.1 192.0 L 80.3 191.9 L 80.6 191.8 L 80.8 191.6 L 81.0 191.5 L 81.3 191.4 L 81.5 191.3 L 81.8 191.2 L 82.0 191.1 L 82.2 190.9 L 82.5 190.8 L 82.7 190.7 L 83.0 190.6 L 83.2 190.4 L 83.4 190.3 L 83.7 190.2 L 83.9 190.0 L 84.2 189.9 L 84.4 189.8 L 84.6 189.6 L 84.9 189.5 L 85.1 189.3 L 85.4 189.2 L 85.6 189.1 L 85.8 188.9 L 86.1 188.8 L 86.3 188.6 L 86.6 188.5 L 86.8 188.3 L 87.0 188.2 L 87.3 188.0 L 87.5 187.8 L 87.8 187.7 L 88.0 187.5 L 88.2 187.4 L 88.5 187.2 L 88.7 187.0 L 89.0 186.9 L 89.2 186.7 L 89.4 186.5 L 89.7 186.3 L 89.9 186.2 L 90.2 186.0 L 90.4 185.8 L 90.6 185.6 L 90.9 185.5 L 91.1 185.3 L 91.4 185.1 L 91.6 184.9 L 91.8 184.7 L 92.1 184.5 L 92.3 184.4 L 92.6 184.2 L 92.8 184.0 L 93.0 183.8 L 93.3 183.6 L 93.5 183.4 L 93.8 183.2 L 94.0 183.0 L 94.2 182.8 L 94.5 182.6 L 94.7 182.4 L 95.0 182.2 L 95.2 182.0 L 95.4 181.8 L 95.7 181.5 L 95.9 181.3 L 96.2 181.1 L 96.4 180.9 L 96.6 180.7 L 96.9 180.5 L 97.1 180.3 L 97.4 180.0 L 97.6 179.8 L 97.8 179.6 L 98.1 179.4 L 98.3 179.1 L 98.6 178.9 L 98.8 178.7 L 99.0 178.5 L 99.3 178.2 L 99.5 178.0 L 99.8 177.8 L 100.0 177.5 L 100.2 177.3 L 100.5 177.0 L 100.7 176.8 L 101.0 176.6 L 101.2 176.3 L 101.4 176.1 L 101.7 175.8 L 101.9 175.6 L 102.2 175.3 L 102.4 175.1 L 102.6 174.8 L 102.9 174.6 L 103.1 174.3 L 103.4 174.1 L 103.6 173.8 L 103.8 173.6 L 104.1 173.3 L 104.3 173.0 L 104.6 172.8 L 104.8 172.5 L 105.0 172.3 L 105.3 172.0 L 105.5 171.7 L 105.8 171.5 L 106.0 171.2 L 106.2 170.9 L 106.5 170.7 L 106.7 170.4 L 107.0 170.1 L 107.2 169.8 L 107.4 169.6 L 107.7 169.3 L 107.9 169.0 L 108.2 168.7 L 108.4 168.5 L 108.6 168.2 L 108.9 167.9 L 109.1 167.6 L 109.4 167.3 L 109.6 167.0 L 109.8 166.7 L 110.1 166.5 L 110.3 166.2 L 110.6 165.9 L 110.8 165.6 L 111.0 165.3 L 111.3 165.0 L 111.5 164.7 L 111.8 164.4 L 112.0 164.1 L 112.2 163.8 L 112.5 163.5 L 112.7 163.2 L 113.0 162.9 L 113.2 162.6 L 113.4 162.3 L 113.7 162.0 L 113.9 161.7 L 114.2 161.4 L 114.4 161.1 L 114.6 160.8 L 114.9 160.5 L 115.1 160.2 L 115.4 159.9 L 115.6 159.6 L 115.8 159.3 L 116.1 158.9 L 116.3 158.6 L 116.6 158.3 L 116.8 158.0 L 117.0 157.7 L 117.3 157.4 L 117.5 157.1 L 117.8 156.7 L 118.0 156.4 L 118.2 156.1 L 118.5 155.8 L 118.7 155.5 L 119.0 155.1 L 119.2 154.8 L 119.4 154.5 L 119.7 154.2 L 119.9 153.8 L 120.2 153.5 L 120.4 153.2 L 120.6 152.9 L 120.9 152.5 L 121.1 152.2 L 121.4 151.9 L 121.6 151.6 L 121.8 151.2 L 122.1 150.9 L 122.3 150.6 L 122.6 150.2 L 122.8 149.9 L 123.0 149.6 L 123.3 149.2 L 123.5 148.9 L 123.8 148.6 L 124.0 148.2 L 124.2 147.9 L 124.5 147.6 L 124.7 147.2 L 125.0 146.9 L 125.2 146.6 L 125.4 146.2 L 125.7 145.9 L 125.9 145.5 L 126.2 145.2 L 126.4 144.9 L 126.6 144.5 L 126.9 144.2 L 127.1 143.8 L 127.4 143.5 L 127.6 143.2 L 127.8 142.8 L 128.1 142.5 L 128.3 142.1 L 128.6 141.8 L 128.8 141.4 L 129.0 141.1 L 129.3 140.7 L 129.5 140.4 L 129.8 140.1 L 130.0 139.7 L 130.2 139.4 L 130.5 139.0 L 130.7 138.7 L 131.0 138.3 L 131.2 138.0 L 131.4 137.6 L 131.7 137.3 L 131.9 136.9 L 132.2 136.6 L 132.4 136.2 L 132.6 135.9 L 132.9 135.5 L 133.1 135.2 L 133.4 134.9 L 133.6 134.5 L 133.8 134.2 L 134.1 133.8 L 134.3 133.5 L 134.6 133.1 L 134.8 132.8 L 135.0 132.4 L 135.3 132.1 L 135.5 131.7 L 135.8 131.4 L 136.0 131.0 L 136.2 130.7 L 136.5 130.3 L 136.7 130.0 L 137.0 129.6 L 137.2 129.3 L 137.4 128.9 L 137.7 128.6 L 137.9 128.2 L 138.2 127.9 L 138.4 127.5 L 138.6 127.2 L 138.9 126.8 L 139.1 126.5 L 139.4 126.1 L 139.6 125.8 L 139.8 125.4 L 140.1 125.1 L 140.3 124.7 L 140.6 124.4 L 140.8 124.0 L 141.0 123.7 L 141.3 123.3 L 141.5 123.0 L 141.8 122.7 L 142.0 122.3 L 142.2 122.0 L 142.5 121.6 L 142.7 121.3 L 143.0 120.9 L 143.2 120.6 L 143.4 120.2 L 143.7 119.9 L 143.9 119.5 L 144.2 119.2 L 144.4 118.9 L 144.6 118.5 L 144.9 118.2 L 145.1 117.8 L 145.4 117.5 L 145.6 117.1 L 145.8 116.8 L 146.1 116.5 L 146.3 116.1 L 146.6 115.8 L 146.8 115.4 L 147.0 115.1 L 147.3 114.8 L 147.5 114.4 L 147.8 114.1 L 148.0 113.8 L 148.2 113.4 L 148.5 113.1 L 148.7 112.7 L 149.0 112.4 L 149.2 112.1 L 149.4 111.7 L 149.7 111.4 L 149.9 111.1 L 150.2 110.7 L 150.4 110.4 L 150.6 110.1 L 150.9 109.7 L 151.1 109.4 L 151.4 109.1 L 151.6 108.8 L 151.8 108.4 L 152.1 108.1 L 152.3 107.8 L 152.6 107.4 L 152.8 107.1 L 153.0 106.8 L 153.3 106.5 L 153.5 106.1 L 153.8 105.8 L 154.0 105.5 L 154.2 105.2 L 154.5 104.9 L 154.7 104.5 L 155.0 104.2 L 155.2 103.9 L 155.4 103.6 L 155.7 103.3 L 155.9 102.9 L 156.2 102.6 L 156.4 102.3 L 156.6 102.0 L 156.9 101.7 L 157.1 101.4 L 157.4 101.1 L 157.6 100.8 L 157.8 100.4 L 158.1 100.1 L 158.3 99.8 L 158.6 99.5 L 158.8 99.2 L 159.0 98.9 L 159.3 98.6 L 159.5 98.3 L 159.8 98.0 L 160.0 97.7 L 160.2 97.4 L 160.5 97.1 L 160.7 96.8 L 161.0 96.5 L 161.2 96.2 L 161.4 95.9 L 161.7 95.6 L 161.9 95.3 L 162.2 95.0 L 162.4 94.7 L 162.6 94.4 L 162.9 94.2 L 163.1 93.9 L 163.4 93.6 L 163.6 93.3 L 163.8 93.0 L 164.1 92.7 L 164.3 92.4 L 164.6 92.2 L 164.8 91.9 L 165.0 91.6 L 165.3 91.3 L 165.5 91.0 L 165.8 90.8 L 166.0 90.5 L 166.2 90.2 L 166.5 89.9 L 166.7 89.7 L 167.0 89.4 L 167.2 89.1 L 167.4 88.9 L 167.7 88.6 L 167.9 88.3 L 168.2 88.1 L 168.4 87.8 L 168.6 87.5 L 168.9 87.3 L 169.1 87.0 L 169.4 86.7 L 169.6 86.5 L 169.8 86.2 L 170.1 86.0 L 170.3 85.7 L 170.6 85.5 L 170.8 85.2 L 171.0 85.0 L 171.3 84.7 L 171.5 84.5 L 171.8 84.2 L 172.0 84.0 L 172.2 83.7 L 172.5 83.5 L 172.7 83.2 L 173.0 83.0 L 173.2 82.8 L 173.4 82.5 L 173.7 82.3 L 173.9 82.1 L 174.2 81.8 L 174.4 81.6 L 174.6 81.4 L 174.9 81.1 L 175.1 80.9 L 175.4 80.7 L 175.6 80.4 L 175.8 80.2 L 176.1 80.0 L 176.3 79.8 L 176.6 79.6 L 176.8 79.3 L 177.0 79.1 L 177.3 78.9 L 177.5 78.7 L 177.8 78.5 L 178.0 78.3 L 178.2 78.0 L 178.5 77.8 L 178.7 77.6 L 179.0 77.4 L 179.2 77.2 L 179.4 77.0 L 179.7 76.8 L 179.9 76.6 L 180.2 76.4 L 180.4 76.2 L 180.6 76.0 L 180.9 75.8 L 181.1 75.6 L 181.4 75.4 L 181.6 75.2 L 181.8 75.0 L 182.1 74.9 L 182.3 74.7 L 182.6 74.5 L 182.8 74.3 L 183.0 74.1 L 183.3 73.9 L 183.5 73.8 L 183.8 73.6 L 184.0 73.4 L 184.2 73.2 L 184.5 73.1 L 184.7 72.9 L 185.0 72.7 L 185.2 72.5 L 185.4 72.4 L 185.7 72.2 L 185.9 72.0 L 186.2 71.9 L 186.4 71.7 L 186.6 71.5 L 186.9 71.4 L 187.1 71.2 L 187.4 71.1 L 187.6 70.9 L 187.8 70.8 L 188.1 70.6 L 188.3 70.5 L 188.6 70.3 L 188.8 70.2 L 189.0 70.0 L 189.3 69.9 L 189.5 69.7 L 189.8 69.6 L 190.0 69.4 L 190.2 69.3 L 190.5 69.2 L 190.7 69.0 L 191.0 68.9 L 191.2 68.8 L 191.4 68.6 L 191.7 68.5 L 191.9 68.4 L 192.2 68.2 L 192.4 68.1 L 192.6 68.0 L 192.9 67.9 L 193.1 67.7 L 193.4 67.6 L 193.6 67.5 L 193.8 67.4 L 194.1 67.3 L 194.3 67.2 L 194.6 67.0 L 194.8 66.9 L 195.0 66.8 L 195.3 66.7 L 195.5 66.6 L 195.8 66.5 L 196.0 66.4 L 196.2 66.3 L 196.5 66.2 L 196.7 66.1 L 197.0 66.0 L 197.2 65.9 L 197.4 65.8 L 197.7 65.7 L 197.9 65.6 L 198.2 65.5 L 198.4 65.4 L 198.6 65.3 L 198.9 65.2 L 199.1 65.2 L 199.4 65.1 L 199.6 65.0 L 199.8 64.9 L 200.1 64.8 L 200.3 64.7 L 200.6 64.7 L 200.8 64.6 L 201.0 64.5 L 201.3 64.4 L 201.5 64.4 L 201.8 64.3 L 202.0 64.2 L 202.2 64.1 L 202.5 64.1 L 202.7 64.0 L 203.0 63.9 L 203.2 63.9 L 203.4 63.8 L 203.7 63.8 L 203.9 63.7 L 204.2 63.6 L 204.4 63.6 L 204.6 63.5 L 204.9 63.5 L 205.1 63.4 L 205.4 63.4 L 205.6 63.3 L 205.8 63.2 L 206.1 63.2 L 206.3 63.2 L 206.6 63.1 L 206.8 63.1 L 207.0 63.0 L 207.3 63.0 L 207.5 62.9 L 207.8 62.9 L 208.0 62.8 L 208.2 62.8 L 208.5 62.8 L 208.7 62.7 L 209.0 62.7 L 209.2 62.6 L 209.4 62.6 L 209.7 62.6 L 209.9 62.5 L 210.2 62.5 L 210.4 62.5 L 210.6 62.5 L 210.9 62.4 L 211.1 62.4 L 211.4 62.4 L 211.6 62.3 L 211.8 62.3 L 212.1 62.3 L 212.3 62.3 L 212.6 62.2 L 212.8 62.2 L 213.0 62.2 L 213.3 62.2 L 213.5 62.2 L 213.8 62.2 L 214.0 62.1 L 214.2 62.1 L 214.5 62.1 L 214.7 62.1 L 215.0 62.1 L 215.2 62.1 L 215.4 62.0 L 215.7 62.0 L 215.9 62.0 L 216.2 62.0 L 216.4 62.0 L 216.6 62.0 L 216.9 62.0 L 217.1 62.0 L 217.4 62.0 L 217.6 62.0 L 217.8 62.0 L 218.1 62.0 L 218.3 62.0 L 218.6 61.9 L 218.8 61.9 L 219.0 61.9 L 219.3 61.9 L 219.5 61.9 L 219.8 61.9 L 220.0 61.9" fill="none" stroke="#e11d48" stroke-width="2.4"/>
<text x="130.0" y="38" text-anchor="middle" font-family="system-ui,-apple-system,Segoe UI,Roboto,sans-serif" font-size="10.5" font-weight="650" fill="#e11d48">feedback reacts</text>
<text x="130.0" y="210" text-anchor="middle" font-family="system-ui,-apple-system,Segoe UI,Roboto,sans-serif" font-size="9" font-weight="400" fill="#64748b">actual lags</text>
<rect x="250" y="44" width="180" height="150" fill="#f8fafc" stroke="#e2e8f0"/>
<path d="M 250.0 194.0 L 250.2 194.0 L 250.5 194.0 L 250.7 194.0 L 251.0 194.0 L 251.2 194.0 L 251.4 194.0 L 251.7 194.0 L 251.9 194.0 L 252.2 194.0 L 252.4 194.0 L 252.6 194.0 L 252.9 194.0 L 253.1 194.0 L 253.4 194.0 L 253.6 194.0 L 253.8 194.0 L 254.1 194.0 L 254.3 194.0 L 254.6 194.0 L 254.8 194.0 L 255.0 194.0 L 255.3 194.0 L 255.5 194.0 L 255.8 194.0 L 256.0 194.0 L 256.2 193.9 L 256.5 193.9 L 256.7 193.9 L 257.0 193.9 L 257.2 193.9 L 257.4 193.9 L 257.7 193.9 L 257.9 193.9 L 258.2 193.9 L 258.4 193.9 L 258.6 193.9 L 258.9 193.9 L 259.1 193.8 L 259.4 193.8 L 259.6 193.8 L 259.8 193.8 L 260.1 193.8 L 260.3 193.8 L 260.6 193.8 L 260.8 193.7 L 261.0 193.7 L 261.3 193.7 L 261.5 193.7 L 261.8 193.7 L 262.0 193.6 L 262.2 193.6 L 262.5 193.6 L 262.7 193.6 L 263.0 193.6 L 263.2 193.5 L 263.4 193.5 L 263.7 193.5 L 263.9 193.5 L 264.2 193.4 L 264.4 193.4 L 264.6 193.4 L 264.9 193.3 L 265.1 193.3 L 265.4 193.3 L 265.6 193.2 L 265.8 193.2 L 266.1 193.2 L 266.3 193.1 L 266.6 193.1 L 266.8 193.1 L 267.0 193.0 L 267.3 193.0 L 267.5 192.9 L 267.8 192.9 L 268.0 192.9 L 268.2 192.8 L 268.5 192.8 L 268.7 192.7 L 269.0 192.7 L 269.2 192.6 L 269.4 192.6 L 269.7 192.5 L 269.9 192.5 L 270.2 192.4 L 270.4 192.4 L 270.6 192.3 L 270.9 192.3 L 271.1 192.2 L 271.4 192.1 L 271.6 192.1 L 271.8 192.0 L 272.1 192.0 L 272.3 191.9 L 272.6 191.8 L 272.8 191.8 L 273.0 191.7 L 273.3 191.6 L 273.5 191.6 L 273.8 191.5 L 274.0 191.4 L 274.2 191.4 L 274.5 191.3 L 274.7 191.2 L 275.0 191.1 L 275.2 191.1 L 275.4 191.0 L 275.7 190.9 L 275.9 190.8 L 276.2 190.7 L 276.4 190.7 L 276.6 190.6 L 276.9 190.5 L 277.1 190.4 L 277.4 190.3 L 277.6 190.2 L 277.8 190.1 L 278.1 190.0 L 278.3 190.0 L 278.6 189.9 L 278.8 189.8 L 279.0 189.7 L 279.3 189.6 L 279.5 189.5 L 279.8 189.4 L 280.0 189.3 L 280.2 189.2 L 280.5 189.1 L 280.7 189.0 L 281.0 188.8 L 281.2 188.7 L 281.4 188.6 L 281.7 188.5 L 281.9 188.4 L 282.2 188.3 L 282.4 188.2 L 282.6 188.1 L 282.9 187.9 L 283.1 187.8 L 283.4 187.7 L 283.6 187.6 L 283.8 187.5 L 284.1 187.3 L 284.3 187.2 L 284.6 187.1 L 284.8 186.9 L 285.0 186.8 L 285.3 186.7 L 285.5 186.5 L 285.8 186.4 L 286.0 186.3 L 286.2 186.1 L 286.5 186.0 L 286.7 185.9 L 287.0 185.7 L 287.2 185.6 L 287.4 185.4 L 287.7 185.3 L 287.9 185.1 L 288.2 185.0 L 288.4 184.8 L 288.6 184.7 L 288.9 184.5 L 289.1 184.4 L 289.4 184.2 L 289.6 184.1 L 289.8 183.9 L 290.1 183.8 L 290.3 183.6 L 290.6 183.4 L 290.8 183.3 L 291.0 183.1 L 291.3 182.9 L 291.5 182.8 L 291.8 182.6 L 292.0 182.4 L 292.2 182.3 L 292.5 182.1 L 292.7 181.9 L 293.0 181.7 L 293.2 181.6 L 293.4 181.4 L 293.7 181.2 L 293.9 181.0 L 294.2 180.8 L 294.4 180.7 L 294.6 180.5 L 294.9 180.3 L 295.1 180.1 L 295.4 179.9 L 295.6 179.7 L 295.8 179.5 L 296.1 179.3 L 296.3 179.1 L 296.6 179.0 L 296.8 178.8 L 297.0 178.6 L 297.3 178.4 L 297.5 178.2 L 297.8 178.0 L 298.0 177.8 L 298.2 177.5 L 298.5 177.3 L 298.7 177.1 L 299.0 176.9 L 299.2 176.7 L 299.4 176.5 L 299.7 176.3 L 299.9 176.1 L 300.2 175.9 L 300.4 175.6 L 300.6 175.4 L 300.9 175.2 L 301.1 175.0 L 301.4 174.8 L 301.6 174.5 L 301.8 174.3 L 302.1 174.1 L 302.3 173.9 L 302.6 173.6 L 302.8 173.4 L 303.0 173.2 L 303.3 173.0 L 303.5 172.7 L 303.8 172.5 L 304.0 172.3 L 304.2 172.0 L 304.5 171.8 L 304.7 171.5 L 305.0 171.3 L 305.2 171.1 L 305.4 170.8 L 305.7 170.6 L 305.9 170.3 L 306.2 170.1 L 306.4 169.8 L 306.6 169.6 L 306.9 169.3 L 307.1 169.1 L 307.4 168.8 L 307.6 168.6 L 307.8 168.3 L 308.1 168.1 L 308.3 167.8 L 308.6 167.6 L 308.8 167.3 L 309.0 167.1 L 309.3 166.8 L 309.5 166.5 L 309.8 166.3 L 310.0 166.0 L 310.2 165.8 L 310.5 165.5 L 310.7 165.2 L 311.0 165.0 L 311.2 164.7 L 311.4 164.4 L 311.7 164.1 L 311.9 163.9 L 312.2 163.6 L 312.4 163.3 L 312.6 163.1 L 312.9 162.8 L 313.1 162.5 L 313.4 162.2 L 313.6 162.0 L 313.8 161.7 L 314.1 161.4 L 314.3 161.1 L 314.6 160.8 L 314.8 160.5 L 315.0 160.3 L 315.3 160.0 L 315.5 159.7 L 315.8 159.4 L 316.0 159.1 L 316.2 158.8 L 316.5 158.5 L 316.7 158.3 L 317.0 158.0 L 317.2 157.7 L 317.4 157.4 L 317.7 157.1 L 317.9 156.8 L 318.2 156.5 L 318.4 156.2 L 318.6 155.9 L 318.9 155.6 L 319.1 155.3 L 319.4 155.0 L 319.6 154.7 L 319.8 154.4 L 320.1 154.1 L 320.3 153.8 L 320.6 153.5 L 320.8 153.2 L 321.0 152.9 L 321.3 152.6 L 321.5 152.3 L 321.8 152.0 L 322.0 151.7 L 322.2 151.4 L 322.5 151.1 L 322.7 150.8 L 323.0 150.4 L 323.2 150.1 L 323.4 149.8 L 323.7 149.5 L 323.9 149.2 L 324.2 148.9 L 324.4 148.6 L 324.6 148.3 L 324.9 147.9 L 325.1 147.6 L 325.4 147.3 L 325.6 147.0 L 325.8 146.7 L 326.1 146.4 L 326.3 146.0 L 326.6 145.7 L 326.8 145.4 L 327.0 145.1 L 327.3 144.8 L 327.5 144.4 L 327.8 144.1 L 328.0 143.8 L 328.2 143.5 L 328.5 143.2 L 328.7 142.8 L 329.0 142.5 L 329.2 142.2 L 329.4 141.9 L 329.7 141.5 L 329.9 141.2 L 330.2 140.9 L 330.4 140.6 L 330.6 140.2 L 330.9 139.9 L 331.1 139.6 L 331.4 139.3 L 331.6 138.9 L 331.8 138.6 L 332.1 138.3 L 332.3 137.9 L 332.6 137.6 L 332.8 137.3 L 333.0 137.0 L 333.3 136.6 L 333.5 136.3 L 333.8 136.0 L 334.0 135.6 L 334.2 135.3 L 334.5 135.0 L 334.7 134.6 L 335.0 134.3 L 335.2 134.0 L 335.4 133.7 L 335.7 133.3 L 335.9 133.0 L 336.2 132.7 L 336.4 132.3 L 336.6 132.0 L 336.9 131.7 L 337.1 131.3 L 337.4 131.0 L 337.6 130.7 L 337.8 130.3 L 338.1 130.0 L 338.3 129.7 L 338.6 129.3 L 338.8 129.0 L 339.0 128.7 L 339.3 128.3 L 339.5 128.0 L 339.8 127.7 L 340.0 127.3 L 340.2 127.0 L 340.5 126.7 L 340.7 126.3 L 341.0 126.0 L 341.2 125.7 L 341.4 125.3 L 341.7 125.0 L 341.9 124.7 L 342.2 124.3 L 342.4 124.0 L 342.6 123.7 L 342.9 123.3 L 343.1 123.0 L 343.4 122.7 L 343.6 122.3 L 343.8 122.0 L 344.1 121.7 L 344.3 121.3 L 344.6 121.0 L 344.8 120.7 L 345.0 120.3 L 345.3 120.0 L 345.5 119.7 L 345.8 119.4 L 346.0 119.0 L 346.2 118.7 L 346.5 118.4 L 346.7 118.0 L 347.0 117.7 L 347.2 117.4 L 347.4 117.0 L 347.7 116.7 L 347.9 116.4 L 348.2 116.1 L 348.4 115.7 L 348.6 115.4 L 348.9 115.1 L 349.1 114.8 L 349.4 114.4 L 349.6 114.1 L 349.8 113.8 L 350.1 113.4 L 350.3 113.1 L 350.6 112.8 L 350.8 112.5 L 351.0 112.2 L 351.3 111.8 L 351.5 111.5 L 351.8 111.2 L 352.0 110.9 L 352.2 110.5 L 352.5 110.2 L 352.7 109.9 L 353.0 109.6 L 353.2 109.3 L 353.4 108.9 L 353.7 108.6 L 353.9 108.3 L 354.2 108.0 L 354.4 107.7 L 354.6 107.4 L 354.9 107.0 L 355.1 106.7 L 355.4 106.4 L 355.6 106.1 L 355.8 105.8 L 356.1 105.5 L 356.3 105.2 L 356.6 104.8 L 356.8 104.5 L 357.0 104.2 L 357.3 103.9 L 357.5 103.6 L 357.8 103.3 L 358.0 103.0 L 358.2 102.7 L 358.5 102.4 L 358.7 102.1 L 359.0 101.8 L 359.2 101.5 L 359.4 101.2 L 359.7 100.9 L 359.9 100.6 L 360.2 100.3 L 360.4 100.0 L 360.6 99.7 L 360.9 99.4 L 361.1 99.1 L 361.4 98.8 L 361.6 98.5 L 361.8 98.2 L 362.1 97.9 L 362.3 97.6 L 362.6 97.3 L 362.8 97.0 L 363.0 96.7 L 363.3 96.4 L 363.5 96.1 L 363.8 95.8 L 364.0 95.5 L 364.2 95.3 L 364.5 95.0 L 364.7 94.7 L 365.0 94.4 L 365.2 94.1 L 365.4 93.8 L 365.7 93.6 L 365.9 93.3 L 366.2 93.0 L 366.4 92.7 L 366.6 92.4 L 366.9 92.2 L 367.1 91.9 L 367.4 91.6 L 367.6 91.3 L 367.8 91.1 L 368.1 90.8 L 368.3 90.5 L 368.6 90.2 L 368.8 90.0 L 369.0 89.7 L 369.3 89.4 L 369.5 89.2 L 369.8 88.9 L 370.0 88.7 L 370.2 88.4 L 370.5 88.1 L 370.7 87.9 L 371.0 87.6 L 371.2 87.3 L 371.4 87.1 L 371.7 86.8 L 371.9 86.6 L 372.2 86.3 L 372.4 86.1 L 372.6 85.8 L 372.9 85.6 L 373.1 85.3 L 373.4 85.1 L 373.6 84.8 L 373.8 84.6 L 374.1 84.3 L 374.3 84.1 L 374.6 83.8 L 374.8 83.6 L 375.0 83.4 L 375.3 83.1 L 375.5 82.9 L 375.8 82.6 L 376.0 82.4 L 376.2 82.2 L 376.5 81.9 L 376.7 81.7 L 377.0 81.5 L 377.2 81.2 L 377.4 81.0 L 377.7 80.8 L 377.9 80.6 L 378.2 80.3 L 378.4 80.1 L 378.6 79.9 L 378.9 79.7 L 379.1 79.5 L 379.4 79.2 L 379.6 79.0 L 379.8 78.8 L 380.1 78.6 L 380.3 78.4 L 380.6 78.2 L 380.8 78.0 L 381.0 77.7 L 381.3 77.5 L 381.5 77.3 L 381.8 77.1 L 382.0 76.9 L 382.2 76.7 L 382.5 76.5 L 382.7 76.3 L 383.0 76.1 L 383.2 75.9 L 383.4 75.7 L 383.7 75.5 L 383.9 75.3 L 384.2 75.1 L 384.4 74.9 L 384.6 74.8 L 384.9 74.6 L 385.1 74.4 L 385.4 74.2 L 385.6 74.0 L 385.8 73.8 L 386.1 73.6 L 386.3 73.5 L 386.6 73.3 L 386.8 73.1 L 387.0 72.9 L 387.3 72.7 L 387.5 72.6 L 387.8 72.4 L 388.0 72.2 L 388.2 72.1 L 388.5 71.9 L 388.7 71.7 L 389.0 71.6 L 389.2 71.4 L 389.4 71.2 L 389.7 71.1 L 389.9 70.9 L 390.2 70.7 L 390.4 70.6 L 390.6 70.4 L 390.9 70.3 L 391.1 70.1 L 391.4 70.0 L 391.6 69.8 L 391.8 69.7 L 392.1 69.5 L 392.3 69.4 L 392.6 69.2 L 392.8 69.1 L 393.0 68.9 L 393.3 68.8 L 393.5 68.7 L 393.8 68.5 L 394.0 68.4 L 394.2 68.3 L 394.5 68.1 L 394.7 68.0 L 395.0 67.9 L 395.2 67.7 L 395.4 67.6 L 395.7 67.5 L 395.9 67.3 L 396.2 67.2 L 396.4 67.1 L 396.6 67.0 L 396.9 66.8 L 397.1 66.7 L 397.4 66.6 L 397.6 66.5 L 397.8 66.4 L 398.1 66.3 L 398.3 66.2 L 398.6 66.0 L 398.8 65.9 L 399.0 65.8 L 399.3 65.7 L 399.5 65.6 L 399.8 65.5 L 400.0 65.4 L 400.2 65.3 L 400.5 65.2 L 400.7 65.1 L 401.0 65.0 L 401.2 64.9 L 401.4 64.8 L 401.7 64.7 L 401.9 64.6 L 402.2 64.5 L 402.4 64.4 L 402.6 64.3 L 402.9 64.3 L 403.1 64.2 L 403.4 64.1 L 403.6 64.0 L 403.8 63.9 L 404.1 63.8 L 404.3 63.8 L 404.6 63.7 L 404.8 63.6 L 405.0 63.5 L 405.3 63.4 L 405.5 63.4 L 405.8 63.3 L 406.0 63.2 L 406.2 63.2 L 406.5 63.1 L 406.7 63.0 L 407.0 63.0 L 407.2 62.9 L 407.4 62.8 L 407.7 62.8 L 407.9 62.7 L 408.2 62.6 L 408.4 62.6 L 408.6 62.5 L 408.9 62.5 L 409.1 62.4 L 409.4 62.3 L 409.6 62.3 L 409.8 62.2 L 410.1 62.2 L 410.3 62.1 L 410.6 62.1 L 410.8 62.0 L 411.0 62.0 L 411.3 61.9 L 411.5 61.9 L 411.8 61.9 L 412.0 61.8 L 412.2 61.8 L 412.5 61.7 L 412.7 61.7 L 413.0 61.6 L 413.2 61.6 L 413.4 61.6 L 413.7 61.5 L 413.9 61.5 L 414.2 61.5 L 414.4 61.4 L 414.6 61.4 L 414.9 61.4 L 415.1 61.3 L 415.4 61.3 L 415.6 61.3 L 415.8 61.2 L 416.1 61.2 L 416.3 61.2 L 416.6 61.2 L 416.8 61.1 L 417.0 61.1 L 417.3 61.1 L 417.5 61.1 L 417.8 61.0 L 418.0 61.0 L 418.2 61.0 L 418.5 61.0 L 418.7 61.0 L 419.0 60.9 L 419.2 60.9 L 419.4 60.9 L 419.7 60.9 L 419.9 60.9 L 420.2 60.9 L 420.4 60.9 L 420.6 60.8 L 420.9 60.8 L 421.1 60.8 L 421.4 60.8 L 421.6 60.8 L 421.8 60.8 L 422.1 60.8 L 422.3 60.8 L 422.6 60.8 L 422.8 60.7 L 423.0 60.7 L 423.3 60.7 L 423.5 60.7 L 423.8 60.7 L 424.0 60.7 L 424.2 60.7 L 424.5 60.7 L 424.7 60.7 L 425.0 60.7 L 425.2 60.7 L 425.4 60.7 L 425.7 60.7 L 425.9 60.7 L 426.2 60.7 L 426.4 60.7 L 426.6 60.7 L 426.9 60.7 L 427.1 60.7 L 427.4 60.7 L 427.6 60.7 L 427.8 60.7 L 428.1 60.7 L 428.3 60.7 L 428.6 60.7 L 428.8 60.7 L 429.0 60.7 L 429.3 60.7 L 429.5 60.7 L 429.8 60.7 L 430.0 60.7" fill="none" stroke="#0d9488" stroke-width="2.2"/>
<path d="M 250.0 194.0 L 250.2 194.0 L 250.5 194.0 L 250.7 194.0 L 251.0 194.0 L 251.2 194.0 L 251.4 194.0 L 251.7 194.0 L 251.9 194.0 L 252.2 194.0 L 252.4 194.0 L 252.6 194.0 L 252.9 194.0 L 253.1 194.0 L 253.4 194.0 L 253.6 194.0 L 253.8 194.0 L 254.1 194.0 L 254.3 194.0 L 254.6 194.0 L 254.8 194.0 L 255.0 194.0 L 255.3 194.0 L 255.5 194.0 L 255.8 194.0 L 256.0 194.0 L 256.2 193.9 L 256.5 193.9 L 256.7 193.9 L 257.0 193.9 L 257.2 193.9 L 257.4 193.9 L 257.7 193.9 L 257.9 193.9 L 258.2 193.9 L 258.4 193.9 L 258.6 193.9 L 258.9 193.9 L 259.1 193.8 L 259.4 193.8 L 259.6 193.8 L 259.8 193.8 L 260.1 193.8 L 260.3 193.8 L 260.6 193.8 L 260.8 193.7 L 261.0 193.7 L 261.3 193.7 L 261.5 193.7 L 261.8 193.7 L 262.0 193.7 L 262.2 193.6 L 262.5 193.6 L 262.7 193.6 L 263.0 193.6 L 263.2 193.5 L 263.4 193.5 L 263.7 193.5 L 263.9 193.5 L 264.2 193.4 L 264.4 193.4 L 264.6 193.4 L 264.9 193.3 L 265.1 193.3 L 265.4 193.3 L 265.6 193.3 L 265.8 193.2 L 266.1 193.2 L 266.3 193.2 L 266.6 193.1 L 266.8 193.1 L 267.0 193.0 L 267.3 193.0 L 267.5 193.0 L 267.8 192.9 L 268.0 192.9 L 268.2 192.8 L 268.5 192.8 L 268.7 192.7 L 269.0 192.7 L 269.2 192.7 L 269.4 192.6 L 269.7 192.6 L 269.9 192.5 L 270.2 192.5 L 270.4 192.4 L 270.6 192.4 L 270.9 192.3 L 271.1 192.2 L 271.4 192.2 L 271.6 192.1 L 271.8 192.1 L 272.1 192.0 L 272.3 191.9 L 272.6 191.9 L 272.8 191.8 L 273.0 191.8 L 273.3 191.7 L 273.5 191.6 L 273.8 191.6 L 274.0 191.5 L 274.2 191.4 L 274.5 191.3 L 274.7 191.3 L 275.0 191.2 L 275.2 191.1 L 275.4 191.0 L 275.7 191.0 L 275.9 190.9 L 276.2 190.8 L 276.4 190.7 L 276.6 190.6 L 276.9 190.6 L 277.1 190.5 L 277.4 190.4 L 277.6 190.3 L 277.8 190.2 L 278.1 190.1 L 278.3 190.0 L 278.6 189.9 L 278.8 189.8 L 279.0 189.8 L 279.3 189.7 L 279.5 189.6 L 279.8 189.5 L 280.0 189.4 L 280.2 189.3 L 280.5 189.2 L 280.7 189.0 L 281.0 188.9 L 281.2 188.8 L 281.4 188.7 L 281.7 188.6 L 281.9 188.5 L 282.2 188.4 L 282.4 188.3 L 282.6 188.2 L 282.9 188.1 L 283.1 187.9 L 283.4 187.8 L 283.6 187.7 L 283.8 187.6 L 284.1 187.5 L 284.3 187.3 L 284.6 187.2 L 284.8 187.1 L 285.0 187.0 L 285.3 186.8 L 285.5 186.7 L 285.8 186.6 L 286.0 186.4 L 286.2 186.3 L 286.5 186.2 L 286.7 186.0 L 287.0 185.9 L 287.2 185.7 L 287.4 185.6 L 287.7 185.5 L 287.9 185.3 L 288.2 185.2 L 288.4 185.0 L 288.6 184.9 L 288.9 184.7 L 289.1 184.6 L 289.4 184.4 L 289.6 184.3 L 289.8 184.1 L 290.1 184.0 L 290.3 183.8 L 290.6 183.6 L 290.8 183.5 L 291.0 183.3 L 291.3 183.2 L 291.5 183.0 L 291.8 182.8 L 292.0 182.7 L 292.2 182.5 L 292.5 182.3 L 292.7 182.2 L 293.0 182.0 L 293.2 181.8 L 293.4 181.6 L 293.7 181.5 L 293.9 181.3 L 294.2 181.1 L 294.4 180.9 L 294.6 180.7 L 294.9 180.6 L 295.1 180.4 L 295.4 180.2 L 295.6 180.0 L 295.8 179.8 L 296.1 179.6 L 296.3 179.4 L 296.6 179.2 L 296.8 179.1 L 297.0 178.9 L 297.3 178.7 L 297.5 178.5 L 297.8 178.3 L 298.0 178.1 L 298.2 177.9 L 298.5 177.7 L 298.7 177.5 L 299.0 177.3 L 299.2 177.1 L 299.4 176.8 L 299.7 176.6 L 299.9 176.4 L 300.2 176.2 L 300.4 176.0 L 300.6 175.8 L 300.9 175.6 L 301.1 175.4 L 301.4 175.1 L 301.6 174.9 L 301.8 174.7 L 302.1 174.5 L 302.3 174.3 L 302.6 174.0 L 302.8 173.8 L 303.0 173.6 L 303.3 173.4 L 303.5 173.1 L 303.8 172.9 L 304.0 172.7 L 304.2 172.5 L 304.5 172.2 L 304.7 172.0 L 305.0 171.8 L 305.2 171.5 L 305.4 171.3 L 305.7 171.0 L 305.9 170.8 L 306.2 170.6 L 306.4 170.3 L 306.6 170.1 L 306.9 169.8 L 307.1 169.6 L 307.4 169.3 L 307.6 169.1 L 307.8 168.8 L 308.1 168.6 L 308.3 168.3 L 308.6 168.1 L 308.8 167.8 L 309.0 167.6 L 309.3 167.3 L 309.5 167.1 L 309.8 166.8 L 310.0 166.6 L 310.2 166.3 L 310.5 166.0 L 310.7 165.8 L 311.0 165.5 L 311.2 165.3 L 311.4 165.0 L 311.7 164.7 L 311.9 164.5 L 312.2 164.2 L 312.4 163.9 L 312.6 163.7 L 312.9 163.4 L 313.1 163.1 L 313.4 162.9 L 313.6 162.6 L 313.8 162.3 L 314.1 162.0 L 314.3 161.8 L 314.6 161.5 L 314.8 161.2 L 315.0 160.9 L 315.3 160.7 L 315.5 160.4 L 315.8 160.1 L 316.0 159.8 L 316.2 159.5 L 316.5 159.2 L 316.7 159.0 L 317.0 158.7 L 317.2 158.4 L 317.4 158.1 L 317.7 157.8 L 317.9 157.5 L 318.2 157.2 L 318.4 157.0 L 318.6 156.7 L 318.9 156.4 L 319.1 156.1 L 319.4 155.8 L 319.6 155.5 L 319.8 155.2 L 320.1 154.9 L 320.3 154.6 L 320.6 154.3 L 320.8 154.0 L 321.0 153.7 L 321.3 153.4 L 321.5 153.1 L 321.8 152.8 L 322.0 152.5 L 322.2 152.2 L 322.5 151.9 L 322.7 151.6 L 323.0 151.3 L 323.2 151.0 L 323.4 150.7 L 323.7 150.4 L 323.9 150.1 L 324.2 149.8 L 324.4 149.5 L 324.6 149.2 L 324.9 148.9 L 325.1 148.6 L 325.4 148.2 L 325.6 147.9 L 325.8 147.6 L 326.1 147.3 L 326.3 147.0 L 326.6 146.7 L 326.8 146.4 L 327.0 146.1 L 327.3 145.8 L 327.5 145.4 L 327.8 145.1 L 328.0 144.8 L 328.2 144.5 L 328.5 144.2 L 328.7 143.9 L 329.0 143.5 L 329.2 143.2 L 329.4 142.9 L 329.7 142.6 L 329.9 142.3 L 330.2 142.0 L 330.4 141.6 L 330.6 141.3 L 330.9 141.0 L 331.1 140.7 L 331.4 140.4 L 331.6 140.0 L 331.8 139.7 L 332.1 139.4 L 332.3 139.1 L 332.6 138.8 L 332.8 138.4 L 333.0 138.1 L 333.3 137.8 L 333.5 137.5 L 333.8 137.1 L 334.0 136.8 L 334.2 136.5 L 334.5 136.2 L 334.7 135.9 L 335.0 135.5 L 335.2 135.2 L 335.4 134.9 L 335.7 134.6 L 335.9 134.2 L 336.2 133.9 L 336.4 133.6 L 336.6 133.3 L 336.9 132.9 L 337.1 132.6 L 337.4 132.3 L 337.6 132.0 L 337.8 131.6 L 338.1 131.3 L 338.3 131.0 L 338.6 130.6 L 338.8 130.3 L 339.0 130.0 L 339.3 129.7 L 339.5 129.3 L 339.8 129.0 L 340.0 128.7 L 340.2 128.4 L 340.5 128.0 L 340.7 127.7 L 341.0 127.4 L 341.2 127.1 L 341.4 126.7 L 341.7 126.4 L 341.9 126.1 L 342.2 125.8 L 342.4 125.4 L 342.6 125.1 L 342.9 124.8 L 343.1 124.5 L 343.4 124.1 L 343.6 123.8 L 343.8 123.5 L 344.1 123.2 L 344.3 122.8 L 344.6 122.5 L 344.8 122.2 L 345.0 121.9 L 345.3 121.5 L 345.5 121.2 L 345.8 120.9 L 346.0 120.6 L 346.2 120.2 L 346.5 119.9 L 346.7 119.6 L 347.0 119.3 L 347.2 118.9 L 347.4 118.6 L 347.7 118.3 L 347.9 118.0 L 348.2 117.7 L 348.4 117.3 L 348.6 117.0 L 348.9 116.7 L 349.1 116.4 L 349.4 116.1 L 349.6 115.7 L 349.8 115.4 L 350.1 115.1 L 350.3 114.8 L 350.6 114.5 L 350.8 114.2 L 351.0 113.8 L 351.3 113.5 L 351.5 113.2 L 351.8 112.9 L 352.0 112.6 L 352.2 112.3 L 352.5 111.9 L 352.7 111.6 L 353.0 111.3 L 353.2 111.0 L 353.4 110.7 L 353.7 110.4 L 353.9 110.1 L 354.2 109.8 L 354.4 109.5 L 354.6 109.1 L 354.9 108.8 L 355.1 108.5 L 355.4 108.2 L 355.6 107.9 L 355.8 107.6 L 356.1 107.3 L 356.3 107.0 L 356.6 106.7 L 356.8 106.4 L 357.0 106.1 L 357.3 105.8 L 357.5 105.5 L 357.8 105.2 L 358.0 104.9 L 358.2 104.6 L 358.5 104.3 L 358.7 104.0 L 359.0 103.7 L 359.2 103.4 L 359.4 103.1 L 359.7 102.8 L 359.9 102.5 L 360.2 102.2 L 360.4 101.9 L 360.6 101.6 L 360.9 101.3 L 361.1 101.0 L 361.4 100.7 L 361.6 100.5 L 361.8 100.2 L 362.1 99.9 L 362.3 99.6 L 362.6 99.3 L 362.8 99.0 L 363.0 98.7 L 363.3 98.5 L 363.5 98.2 L 363.8 97.9 L 364.0 97.6 L 364.2 97.3 L 364.5 97.0 L 364.7 96.8 L 365.0 96.5 L 365.2 96.2 L 365.4 95.9 L 365.7 95.7 L 365.9 95.4 L 366.2 95.1 L 366.4 94.8 L 366.6 94.6 L 366.9 94.3 L 367.1 94.0 L 367.4 93.8 L 367.6 93.5 L 367.8 93.2 L 368.1 93.0 L 368.3 92.7 L 368.6 92.4 L 368.8 92.2 L 369.0 91.9 L 369.3 91.6 L 369.5 91.4 L 369.8 91.1 L 370.0 90.9 L 370.2 90.6 L 370.5 90.4 L 370.7 90.1 L 371.0 89.8 L 371.2 89.6 L 371.4 89.3 L 371.7 89.1 L 371.9 88.8 L 372.2 88.6 L 372.4 88.3 L 372.6 88.1 L 372.9 87.9 L 373.1 87.6 L 373.4 87.4 L 373.6 87.1 L 373.8 86.9 L 374.1 86.7 L 374.3 86.4 L 374.6 86.2 L 374.8 85.9 L 375.0 85.7 L 375.3 85.5 L 375.5 85.2 L 375.8 85.0 L 376.0 84.8 L 376.2 84.5 L 376.5 84.3 L 376.7 84.1 L 377.0 83.9 L 377.2 83.6 L 377.4 83.4 L 377.7 83.2 L 377.9 83.0 L 378.2 82.8 L 378.4 82.5 L 378.6 82.3 L 378.9 82.1 L 379.1 81.9 L 379.4 81.7 L 379.6 81.5 L 379.8 81.3 L 380.1 81.0 L 380.3 80.8 L 380.6 80.6 L 380.8 80.4 L 381.0 80.2 L 381.3 80.0 L 381.5 79.8 L 381.8 79.6 L 382.0 79.4 L 382.2 79.2 L 382.5 79.0 L 382.7 78.8 L 383.0 78.6 L 383.2 78.4 L 383.4 78.2 L 383.7 78.1 L 383.9 77.9 L 384.2 77.7 L 384.4 77.5 L 384.6 77.3 L 384.9 77.1 L 385.1 76.9 L 385.4 76.8 L 385.6 76.6 L 385.8 76.4 L 386.1 76.2 L 386.3 76.0 L 386.6 75.9 L 386.8 75.7 L 387.0 75.5 L 387.3 75.4 L 387.5 75.2 L 387.8 75.0 L 388.0 74.9 L 388.2 74.7 L 388.5 74.5 L 388.7 74.4 L 389.0 74.2 L 389.2 74.0 L 389.4 73.9 L 389.7 73.7 L 389.9 73.6 L 390.2 73.4 L 390.4 73.3 L 390.6 73.1 L 390.9 73.0 L 391.1 72.8 L 391.4 72.7 L 391.6 72.5 L 391.8 72.4 L 392.1 72.2 L 392.3 72.1 L 392.6 71.9 L 392.8 71.8 L 393.0 71.7 L 393.3 71.5 L 393.5 71.4 L 393.8 71.2 L 394.0 71.1 L 394.2 71.0 L 394.5 70.9 L 394.7 70.7 L 395.0 70.6 L 395.2 70.5 L 395.4 70.3 L 395.7 70.2 L 395.9 70.1 L 396.2 70.0 L 396.4 69.9 L 396.6 69.7 L 396.9 69.6 L 397.1 69.5 L 397.4 69.4 L 397.6 69.3 L 397.8 69.2 L 398.1 69.1 L 398.3 68.9 L 398.6 68.8 L 398.8 68.7 L 399.0 68.6 L 399.3 68.5 L 399.5 68.4 L 399.8 68.3 L 400.0 68.2 L 400.2 68.1 L 400.5 68.0 L 400.7 67.9 L 401.0 67.8 L 401.2 67.7 L 401.4 67.6 L 401.7 67.5 L 401.9 67.5 L 402.2 67.4 L 402.4 67.3 L 402.6 67.2 L 402.9 67.1 L 403.1 67.0 L 403.4 66.9 L 403.6 66.9 L 403.8 66.8 L 404.1 66.7 L 404.3 66.6 L 404.6 66.5 L 404.8 66.5 L 405.0 66.4 L 405.3 66.3 L 405.5 66.3 L 405.8 66.2 L 406.0 66.1 L 406.2 66.0 L 406.5 66.0 L 406.7 65.9 L 407.0 65.8 L 407.2 65.8 L 407.4 65.7 L 407.7 65.7 L 407.9 65.6 L 408.2 65.5 L 408.4 65.5 L 408.6 65.4 L 408.9 65.4 L 409.1 65.3 L 409.4 65.3 L 409.6 65.2 L 409.8 65.2 L 410.1 65.1 L 410.3 65.1 L 410.6 65.0 L 410.8 65.0 L 411.0 64.9 L 411.3 64.9 L 411.5 64.8 L 411.8 64.8 L 412.0 64.8 L 412.2 64.7 L 412.5 64.7 L 412.7 64.6 L 413.0 64.6 L 413.2 64.6 L 413.4 64.5 L 413.7 64.5 L 413.9 64.5 L 414.2 64.4 L 414.4 64.4 L 414.6 64.4 L 414.9 64.3 L 415.1 64.3 L 415.4 64.3 L 415.6 64.2 L 415.8 64.2 L 416.1 64.2 L 416.3 64.2 L 416.6 64.1 L 416.8 64.1 L 417.0 64.1 L 417.3 64.1 L 417.5 64.0 L 417.8 64.0 L 418.0 64.0 L 418.2 64.0 L 418.5 64.0 L 418.7 64.0 L 419.0 63.9 L 419.2 63.9 L 419.4 63.9 L 419.7 63.9 L 419.9 63.9 L 420.2 63.9 L 420.4 63.9 L 420.6 63.8 L 420.9 63.8 L 421.1 63.8 L 421.4 63.8 L 421.6 63.8 L 421.8 63.8 L 422.1 63.8 L 422.3 63.8 L 422.6 63.8 L 422.8 63.8 L 423.0 63.8 L 423.3 63.7 L 423.5 63.7 L 423.8 63.7 L 424.0 63.7 L 424.2 63.7 L 424.5 63.7 L 424.7 63.7 L 425.0 63.7 L 425.2 63.7 L 425.4 63.7 L 425.7 63.7 L 425.9 63.7 L 426.2 63.7 L 426.4 63.7 L 426.6 63.7 L 426.9 63.7 L 427.1 63.7 L 427.4 63.7 L 427.6 63.7 L 427.8 63.7 L 428.1 63.7 L 428.3 63.7 L 428.6 63.7 L 428.8 63.7 L 429.0 63.7 L 429.3 63.7 L 429.5 63.7 L 429.8 63.7 L 430.0 63.7" fill="none" stroke="#10b981" stroke-width="2.4"/>
<text x="340.0" y="38" text-anchor="middle" font-family="system-ui,-apple-system,Segoe UI,Roboto,sans-serif" font-size="10.5" font-weight="650" fill="#10b981">feedforward anticipates</text>
<text x="340.0" y="210" text-anchor="middle" font-family="system-ui,-apple-system,Segoe UI,Roboto,sans-serif" font-size="9" font-weight="400" fill="#64748b">actual on reference</text>
<text x="340.0" y="224" text-anchor="middle" font-family="system-ui,-apple-system,Segoe UI,Roboto,sans-serif" font-size="9" font-weight="400" fill="#10b981">u_ff = m·q̈_d + b·q̇_d + ℓ  (from Module 7)</text>
</svg>
