<svg xmlns="http://www.w3.org/2000/svg" viewBox="0 0 760 300" font-family="Segoe UI, Helvetica, Arial, sans-serif">
  <defs><marker id="a" markerWidth="10" markerHeight="10" refX="7" refY="3" orient="auto"><path d="M0,0 L7,3 L0,6 Z" fill="#7c3aed"/></marker>
  <style>.t{font-size:18px;font-weight:700;fill:#0f172a}.c{font-size:11px;fill:#94a3b8}.p{font-size:12px;font-weight:700}.s{font-size:12.5px;font-weight:700;fill:#334155}</style></defs>
  <text x="380.0" y="28" text-anchor="middle" class="t">One Tomato Through Ten Modules</text>
  <text x="380.0" y="46" text-anchor="middle" class="c">math represents → frames place → perception sees → kinematics reaches → control moves → integrate → twin</text>
  <rect x="22" y="110" width="66" height="66" rx="12" fill="#eef2ff" stroke="#6366f1" stroke-width="2.2"/>
  <text x="55.0" y="138" text-anchor="middle" class="p" fill="#6366f1">M1</text>
  <text x="55.0" y="158" text-anchor="middle" class="c">vector</text>
  <path d="M88,143 L96,143" fill="none" stroke="#7c3aed" stroke-width="2" marker-end="url(#a)"/>
  <rect x="96" y="110" width="66" height="66" rx="12" fill="#eef2ff" stroke="#6366f1" stroke-width="2.2"/>
  <text x="129.0" y="138" text-anchor="middle" class="p" fill="#6366f1">M2</text>
  <text x="129.0" y="158" text-anchor="middle" class="c">frames</text>
  <path d="M162,143 L170,143" fill="none" stroke="#7c3aed" stroke-width="2" marker-end="url(#a)"/>
  <rect x="170" y="110" width="66" height="66" rx="12" fill="#eef2ff" stroke="#6366f1" stroke-width="2.2"/>
  <text x="203.0" y="138" text-anchor="middle" class="p" fill="#6366f1">M3</text>
  <text x="203.0" y="158" text-anchor="middle" class="c">perceive</text>
  <path d="M236,143 L244,143" fill="none" stroke="#7c3aed" stroke-width="2" marker-end="url(#a)"/>
  <rect x="244" y="110" width="66" height="66" rx="12" fill="#eef2ff" stroke="#6366f1" stroke-width="2.2"/>
  <text x="277.0" y="138" text-anchor="middle" class="p" fill="#6366f1">M4</text>
  <text x="277.0" y="158" text-anchor="middle" class="c">FK</text>
  <path d="M310,143 L318,143" fill="none" stroke="#7c3aed" stroke-width="2" marker-end="url(#a)"/>
  <rect x="318" y="110" width="66" height="66" rx="12" fill="#eef2ff" stroke="#6366f1" stroke-width="2.2"/>
  <text x="351.0" y="138" text-anchor="middle" class="p" fill="#6366f1">M5</text>
  <text x="351.0" y="158" text-anchor="middle" class="c">IK</text>
  <path d="M384,143 L392,143" fill="none" stroke="#7c3aed" stroke-width="2" marker-end="url(#a)"/>
  <rect x="392" y="110" width="66" height="66" rx="12" fill="#eef2ff" stroke="#6366f1" stroke-width="2.2"/>
  <text x="425.0" y="138" text-anchor="middle" class="p" fill="#6366f1">M6</text>
  <text x="425.0" y="158" text-anchor="middle" class="c">Jacobian</text>
  <path d="M458,143 L466,143" fill="none" stroke="#7c3aed" stroke-width="2" marker-end="url(#a)"/>
  <rect x="466" y="110" width="66" height="66" rx="12" fill="#eef2ff" stroke="#6366f1" stroke-width="2.2"/>
  <text x="499.0" y="138" text-anchor="middle" class="p" fill="#6366f1">M7</text>
  <text x="499.0" y="158" text-anchor="middle" class="c">trajectory</text>
  <path d="M532,143 L540,143" fill="none" stroke="#7c3aed" stroke-width="2" marker-end="url(#a)"/>
  <rect x="540" y="110" width="66" height="66" rx="12" fill="#eef2ff" stroke="#6366f1" stroke-width="2.2"/>
  <text x="573.0" y="138" text-anchor="middle" class="p" fill="#6366f1">M8</text>
  <text x="573.0" y="158" text-anchor="middle" class="c">control</text>
  <path d="M606,143 L614,143" fill="none" stroke="#7c3aed" stroke-width="2" marker-end="url(#a)"/>
  <rect x="614" y="110" width="66" height="66" rx="12" fill="#eef2ff" stroke="#6366f1" stroke-width="2.2"/>
  <text x="647.0" y="138" text-anchor="middle" class="p" fill="#6366f1">M9</text>
  <text x="647.0" y="158" text-anchor="middle" class="c">integrate</text>
  <path d="M680,143 L688,143" fill="none" stroke="#7c3aed" stroke-width="2" marker-end="url(#a)"/>
  <rect x="688" y="110" width="66" height="66" rx="12" fill="#f5f3ff" stroke="#7c3aed" stroke-width="2.2"/>
  <text x="721.0" y="138" text-anchor="middle" class="p" fill="#7c3aed">M10</text>
  <text x="721.0" y="158" text-anchor="middle" class="c">twin</text>
  <text x="48" y="104" text-anchor="middle" class="c" fill="#dc2626">tomato</text>
  <text x="722" y="104" text-anchor="middle" class="c" fill="#15803d">basket</text>
  <text x="380.0" y="236" text-anchor="middle" class="s">each stage’s output is the next stage’s input — ten modules, one pipeline</text>
  <text x="380.0" y="262" text-anchor="middle" class="c">one fruit silently exercises the entire curriculum</text>
</svg>
