<svg viewBox="0 0 420 320" xmlns="http://www.w3.org/2000/svg" role="img" aria-label="Trapezoidal and S-curve velocity and acceleration profiles overlaid; the trapezoid shows stepped acceleration with marked jerk spikes while the S-curve is continuous">
<title>Trapezoidal and S-curve velocity and acceleration profiles overlaid; the trapezoid shows stepped acceleration with marked jerk spikes while the S-curve is continuous</title>
<rect width="420" height="320" fill="white"/><text x="210" y="22" text-anchor="middle" font-family="system-ui,-apple-system,Segoe UI,Roboto,sans-serif" font-size="16" font-weight="650" fill="#0f172a">Trapezoidal vs S-curve</text><rect x="40" y="40" width="340" height="100" fill="#f8fafc" stroke="#e2e8f0"/><line x1="40" y1="125.7" x2="380" y2="125.7" stroke="#334155" stroke-dasharray="3 3"/><path d="M 40.0 125.7 L 44.2 122.1 L 48.5 118.6 L 52.8 115.0 L 57.0 111.4 L 61.2 107.9 L 65.5 104.3 L 69.8 100.7 L 74.0 97.1 L 78.2 93.6 L 82.5 90.0 L 86.8 86.4 L 91.0 82.9 L 95.2 79.3 L 99.5 75.7 L 103.8 72.1 L 108.0 68.6 L 112.2 65.0 L 116.5 61.4 L 120.8 57.9 L 125.0 54.3 L 129.2 54.3 L 133.5 54.3 L 137.8 54.3 L 142.0 54.3 L 146.2 54.3 L 150.5 54.3 L 154.8 54.3 L 159.0 54.3 L 163.2 54.3 L 167.5 54.3 L 171.8 54.3 L 176.0 54.3 L 180.2 54.3 L 184.5 54.3 L 188.8 54.3 L 193.0 54.3 L 197.2 54.3 L 201.5 54.3 L 205.8 54.3 L 210.0 54.3 L 214.2 54.3 L 218.5 54.3 L 222.8 54.3 L 227.0 54.3 L 231.2 54.3 L 235.5 54.3 L 239.8 54.3 L 244.0 54.3 L 248.3 54.3 L 252.5 54.3 L 256.8 54.3 L 261.0 54.3 L 265.2 54.3 L 269.5 54.3 L 273.8 54.3 L 278.0 54.3 L 282.2 54.3 L 286.5 54.3 L 290.8 54.3 L 295.0 54.3 L 299.2 57.9 L 303.5 61.4 L 307.8 65.0 L 312.0 68.6 L 316.2 72.1 L 320.5 75.7 L 324.8 79.3 L 329.0 82.9 L 333.2 86.4 L 337.5 90.0 L 341.8 93.6 L 346.0 97.1 L 350.2 100.7 L 354.5 104.3 L 358.8 107.9 L 363.0 111.4 L 367.2 115.0 L 371.5 118.6 L 375.8 122.1 L 380.0 125.7" fill="none" stroke="#b91c1c" stroke-width="2.3"/><path d="M 40.0 125.7 L 44.2 125.4 L 48.5 124.3 L 52.8 122.6 L 57.0 120.4 L 61.2 117.7 L 65.5 114.6 L 69.8 111.0 L 74.0 107.2 L 78.2 103.1 L 82.5 98.8 L 86.8 94.5 L 91.0 90.0 L 95.2 85.5 L 99.5 81.2 L 103.8 76.9 L 108.0 72.8 L 112.2 69.0 L 116.5 65.4 L 120.8 62.3 L 125.0 59.6 L 129.2 57.4 L 133.5 55.7 L 137.8 54.6 L 142.0 54.3 L 146.2 54.3 L 150.5 54.3 L 154.8 54.3 L 159.0 54.3 L 163.2 54.3 L 167.5 54.3 L 171.8 54.3 L 176.0 54.3 L 180.2 54.3 L 184.5 54.3 L 188.8 54.3 L 193.0 54.3 L 197.2 54.3 L 201.5 54.3 L 205.8 54.3 L 210.0 54.3 L 214.2 54.3 L 218.5 54.3 L 222.8 54.3 L 227.0 54.3 L 231.2 54.3 L 235.5 54.3 L 239.8 54.3 L 244.0 54.3 L 248.3 54.3 L 252.5 54.3 L 256.8 54.3 L 261.0 54.3 L 265.2 54.3 L 269.5 54.3 L 273.8 54.3 L 278.0 54.3 L 282.2 54.6 L 286.5 55.7 L 290.8 57.4 L 295.0 59.6 L 299.2 62.3 L 303.5 65.4 L 307.8 69.0 L 312.0 72.8 L 316.2 76.9 L 320.5 81.2 L 324.8 85.5 L 329.0 90.0 L 333.2 94.5 L 337.5 98.8 L 341.8 103.1 L 346.0 107.2 L 350.2 111.0 L 354.5 114.6 L 358.8 117.7 L 363.0 120.4 L 367.2 122.6 L 371.5 124.3 L 375.8 125.4 L 380.0 125.7" fill="none" stroke="#10b981" stroke-width="2.3"/><text x="48" y="55" font-family="system-ui,-apple-system,Segoe UI,Roboto,sans-serif" font-size="11.5" font-weight="600" fill="#0f172a">velocity — sharp corners vs rounded</text><rect x="40" y="155" width="340" height="100" fill="#f8fafc" stroke="#e2e8f0"/><line x1="40" y1="205.0" x2="380" y2="205.0" stroke="#334155" stroke-dasharray="3 3"/><path d="M 40.0 176.4 L 44.2 176.4 L 48.5 176.4 L 52.8 176.4 L 57.0 176.4 L 61.2 176.4 L 65.5 176.4 L 69.8 176.4 L 74.0 176.4 L 78.2 176.4 L 82.5 176.4 L 86.8 176.4 L 91.0 176.4 L 95.2 176.4 L 99.5 176.4 L 103.8 176.4 L 108.0 176.4 L 112.2 176.4 L 116.5 176.4 L 120.8 176.4 L 125.0 205.0 L 129.2 205.0 L 133.5 205.0 L 137.8 205.0 L 142.0 205.0 L 146.2 205.0 L 150.5 205.0 L 154.8 205.0 L 159.0 205.0 L 163.2 205.0 L 167.5 205.0 L 171.8 205.0 L 176.0 205.0 L 180.2 205.0 L 184.5 205.0 L 188.8 205.0 L 193.0 205.0 L 197.2 205.0 L 201.5 205.0 L 205.8 205.0 L 210.0 205.0 L 214.2 205.0 L 218.5 205.0 L 222.8 205.0 L 227.0 205.0 L 231.2 205.0 L 235.5 205.0 L 239.8 205.0 L 244.0 205.0 L 248.3 205.0 L 252.5 205.0 L 256.8 205.0 L 261.0 205.0 L 265.2 205.0 L 269.5 205.0 L 273.8 205.0 L 278.0 205.0 L 282.2 205.0 L 286.5 205.0 L 290.8 205.0 L 295.0 233.6 L 299.2 233.6 L 303.5 233.6 L 307.8 233.6 L 312.0 233.6 L 316.2 233.6 L 320.5 233.6 L 324.8 233.6 L 329.0 233.6 L 333.2 233.6 L 337.5 233.6 L 341.8 233.6 L 346.0 233.6 L 350.2 233.6 L 354.5 233.6 L 358.8 233.6 L 363.0 233.6 L 367.2 233.6 L 371.5 233.6 L 375.8 233.6 L 380.0 233.6" fill="none" stroke="#b91c1c" stroke-width="2.3"/><path d="M 40.0 204.9 L 44.2 199.3 L 48.5 194.1 L 52.8 189.4 L 57.0 185.2 L 61.2 181.4 L 65.5 178.2 L 69.8 175.5 L 74.0 173.3 L 78.2 171.5 L 82.5 170.3 L 86.8 169.5 L 91.0 169.3 L 95.2 169.5 L 99.5 170.3 L 103.8 171.5 L 108.0 173.3 L 112.2 175.5 L 116.5 178.2 L 120.8 181.4 L 125.0 185.2 L 129.2 189.4 L 133.5 194.1 L 137.8 199.3 L 142.0 204.9 L 146.2 205.0 L 150.5 205.0 L 154.8 205.0 L 159.0 205.0 L 163.2 205.0 L 167.5 205.0 L 171.8 205.0 L 176.0 205.0 L 180.2 205.0 L 184.5 205.0 L 188.8 205.0 L 193.0 205.0 L 197.2 205.0 L 201.5 205.0 L 205.8 205.0 L 210.0 205.0 L 214.2 205.0 L 218.5 205.0 L 222.8 205.0 L 227.0 205.0 L 231.2 205.0 L 235.5 205.0 L 239.8 205.0 L 244.0 205.0 L 248.3 205.0 L 252.5 205.0 L 256.8 205.0 L 261.0 205.0 L 265.2 205.0 L 269.5 205.0 L 273.8 205.0 L 278.0 205.1 L 282.2 210.7 L 286.5 215.9 L 290.8 220.6 L 295.0 224.8 L 299.2 228.6 L 303.5 231.8 L 307.8 234.5 L 312.0 236.7 L 316.2 238.5 L 320.5 239.7 L 324.8 240.5 L 329.0 240.7 L 333.2 240.5 L 337.5 239.7 L 341.8 238.5 L 346.0 236.7 L 350.2 234.5 L 354.5 231.8 L 358.8 228.6 L 363.0 224.8 L 367.2 220.6 L 371.5 215.9 L 375.8 210.7 L 380.0 205.1" fill="none" stroke="#10b981" stroke-width="2.3"/><text x="48" y="170" font-family="system-ui,-apple-system,Segoe UI,Roboto,sans-serif" font-size="11.5" font-weight="600" fill="#0f172a">acceleration — steps (jerk spikes) vs continuous</text><circle cx="125.0" cy="205.0" r="3.5" fill="#b91c1c"/><circle cx="295.0" cy="233.6" r="3.5" fill="#b91c1c"/><g font-family="system-ui,-apple-system,Segoe UI,Roboto,sans-serif" font-size="11.5"><line x1="70" y1="280" x2="94" y2="280" stroke="#b91c1c" stroke-width="2.3"/><text x="100" y="284" fill="#334155">trapezoidal (C¹, time-optimal)</text><line x1="70" y1="300" x2="94" y2="300" stroke="#10b981" stroke-width="2.3"/><text x="100" y="304" fill="#334155">S-curve (C², jerk-limited)</text></g>
</svg>
