<svg viewBox="0 0 520 260" xmlns="http://www.w3.org/2000/svg" role="img" aria-label="The pipeline from a jagged RRT path to a shortcut-smoothed shorter path to a time-scaled trajectory within limits, labeled Obstacle to Constraint to Safe Path to Feasible Trajectory">
<title>The pipeline from a jagged RRT path to a shortcut-smoothed shorter path to a time-scaled trajectory within limits, labeled Obstacle to Constraint to Safe Path to Feasible Trajectory</title>
<rect width="520" height="260" fill="white"/>
<text x="260" y="22" text-anchor="middle" font-family="system-ui,-apple-system,Segoe UI,Roboto,sans-serif" font-size="13" font-weight="650" fill="#0f172a">Safe path → feasible trajectory: smooth, then time-scale</text>
<text x="100" y="44" text-anchor="middle" font-family="system-ui,-apple-system,Segoe UI,Roboto,sans-serif" font-size="11" font-weight="600" fill="#64748b">RRT (jagged)</text>
<rect x="40" y="54" width="120" height="120" fill="#f8fafc" stroke="#e2e8f0"/><rect x="87.7" y="99.3" width="3.6" height="3.6" fill="#e11d48" opacity="0.4"/><rect x="87.7" y="96.2" width="3.6" height="3.6" fill="#e11d48" opacity="0.4"/><rect x="90.8" y="105.4" width="3.6" height="3.6" fill="#e11d48" opacity="0.4"/><rect x="90.8" y="102.3" width="3.6" height="3.6" fill="#e11d48" opacity="0.4"/><rect x="90.8" y="99.3" width="3.6" height="3.6" fill="#e11d48" opacity="0.4"/><rect x="93.9" y="111.6" width="3.6" height="3.6" fill="#e11d48" opacity="0.4"/><rect x="93.9" y="108.5" width="3.6" height="3.6" fill="#e11d48" opacity="0.4"/><rect x="93.9" y="105.4" width="3.6" height="3.6" fill="#e11d48" opacity="0.4"/><rect x="93.9" y="102.3" width="3.6" height="3.6" fill="#e11d48" opacity="0.4"/><rect x="97.0" y="120.8" width="3.6" height="3.6" fill="#e11d48" opacity="0.4"/><rect x="97.0" y="117.7" width="3.6" height="3.6" fill="#e11d48" opacity="0.4"/><rect x="97.0" y="114.7" width="3.6" height="3.6" fill="#e11d48" opacity="0.4"/><rect x="97.0" y="111.6" width="3.6" height="3.6" fill="#e11d48" opacity="0.4"/><rect x="97.0" y="108.5" width="3.6" height="3.6" fill="#e11d48" opacity="0.4"/><rect x="97.0" y="105.4" width="3.6" height="3.6" fill="#e11d48" opacity="0.4"/><rect x="100.0" y="136.2" width="3.6" height="3.6" fill="#e11d48" opacity="0.4"/><rect x="100.0" y="133.1" width="3.6" height="3.6" fill="#e11d48" opacity="0.4"/><rect x="100.0" y="130.0" width="3.6" height="3.6" fill="#e11d48" opacity="0.4"/><rect x="100.0" y="127.0" width="3.6" height="3.6" fill="#e11d48" opacity="0.4"/><rect x="100.0" y="123.9" width="3.6" height="3.6" fill="#e11d48" opacity="0.4"/><rect x="100.0" y="120.8" width="3.6" height="3.6" fill="#e11d48" opacity="0.4"/><rect x="100.0" y="117.7" width="3.6" height="3.6" fill="#e11d48" opacity="0.4"/><rect x="103.1" y="148.5" width="3.6" height="3.6" fill="#e11d48" opacity="0.4"/><rect x="103.1" y="145.4" width="3.6" height="3.6" fill="#e11d48" opacity="0.4"/><rect x="103.1" y="142.3" width="3.6" height="3.6" fill="#e11d48" opacity="0.4"/><rect x="103.1" y="139.3" width="3.6" height="3.6" fill="#e11d48" opacity="0.4"/><rect x="103.1" y="136.2" width="3.6" height="3.6" fill="#e11d48" opacity="0.4"/><rect x="103.1" y="133.1" width="3.6" height="3.6" fill="#e11d48" opacity="0.4"/><rect x="106.2" y="154.7" width="3.6" height="3.6" fill="#e11d48" opacity="0.4"/><rect x="106.2" y="151.6" width="3.6" height="3.6" fill="#e11d48" opacity="0.4"/><rect x="106.2" y="148.5" width="3.6" height="3.6" fill="#e11d48" opacity="0.4"/><rect x="106.2" y="145.4" width="3.6" height="3.6" fill="#e11d48" opacity="0.4"/><rect x="106.2" y="142.3" width="3.6" height="3.6" fill="#e11d48" opacity="0.4"/><rect x="109.3" y="157.7" width="3.6" height="3.6" fill="#e11d48" opacity="0.4"/><rect x="109.3" y="154.7" width="3.6" height="3.6" fill="#e11d48" opacity="0.4"/><rect x="109.3" y="151.6" width="3.6" height="3.6" fill="#e11d48" opacity="0.4"/><rect x="112.3" y="160.8" width="3.6" height="3.6" fill="#e11d48" opacity="0.4"/><rect x="112.3" y="157.7" width="3.6" height="3.6" fill="#e11d48" opacity="0.4"/><rect x="112.3" y="154.7" width="3.6" height="3.6" fill="#e11d48" opacity="0.4"/><rect x="115.4" y="160.8" width="3.6" height="3.6" fill="#e11d48" opacity="0.4"/><path d="M 97.8 101.2 L 94.8 98.9 L 95.0 95.1 L 97.6 92.3 L 99.2 88.9 L 96.8 85.9 L 93.5 84.1 L 89.8 83.0 L 86.0 82.6 L 83.0 80.3 L 79.2 79.8 L 76.0 81.9 L 73.3 84.6 L 74.5 88.2 L 75.6 91.8 L 76.7 95.5 L 77.8 99.1 L 78.5 101.2" fill="none" stroke="#64748b" stroke-width="2"/>
<text x="260" y="44" text-anchor="middle" font-family="system-ui,-apple-system,Segoe UI,Roboto,sans-serif" font-size="11" font-weight="600" fill="#10b981">smoothed (shorter)</text>
<rect x="200" y="54" width="120" height="120" fill="#f8fafc" stroke="#e2e8f0"/><rect x="247.7" y="99.3" width="3.6" height="3.6" fill="#e11d48" opacity="0.4"/><rect x="247.7" y="96.2" width="3.6" height="3.6" fill="#e11d48" opacity="0.4"/><rect x="250.8" y="105.4" width="3.6" height="3.6" fill="#e11d48" opacity="0.4"/><rect x="250.8" y="102.3" width="3.6" height="3.6" fill="#e11d48" opacity="0.4"/><rect x="250.8" y="99.3" width="3.6" height="3.6" fill="#e11d48" opacity="0.4"/><rect x="253.9" y="111.6" width="3.6" height="3.6" fill="#e11d48" opacity="0.4"/><rect x="253.9" y="108.5" width="3.6" height="3.6" fill="#e11d48" opacity="0.4"/><rect x="253.9" y="105.4" width="3.6" height="3.6" fill="#e11d48" opacity="0.4"/><rect x="253.9" y="102.3" width="3.6" height="3.6" fill="#e11d48" opacity="0.4"/><rect x="257.0" y="120.8" width="3.6" height="3.6" fill="#e11d48" opacity="0.4"/><rect x="257.0" y="117.7" width="3.6" height="3.6" fill="#e11d48" opacity="0.4"/><rect x="257.0" y="114.7" width="3.6" height="3.6" fill="#e11d48" opacity="0.4"/><rect x="257.0" y="111.6" width="3.6" height="3.6" fill="#e11d48" opacity="0.4"/><rect x="257.0" y="108.5" width="3.6" height="3.6" fill="#e11d48" opacity="0.4"/><rect x="257.0" y="105.4" width="3.6" height="3.6" fill="#e11d48" opacity="0.4"/><rect x="260.0" y="136.2" width="3.6" height="3.6" fill="#e11d48" opacity="0.4"/><rect x="260.0" y="133.1" width="3.6" height="3.6" fill="#e11d48" opacity="0.4"/><rect x="260.0" y="130.0" width="3.6" height="3.6" fill="#e11d48" opacity="0.4"/><rect x="260.0" y="127.0" width="3.6" height="3.6" fill="#e11d48" opacity="0.4"/><rect x="260.0" y="123.9" width="3.6" height="3.6" fill="#e11d48" opacity="0.4"/><rect x="260.0" y="120.8" width="3.6" height="3.6" fill="#e11d48" opacity="0.4"/><rect x="260.0" y="117.7" width="3.6" height="3.6" fill="#e11d48" opacity="0.4"/><rect x="263.1" y="148.5" width="3.6" height="3.6" fill="#e11d48" opacity="0.4"/><rect x="263.1" y="145.4" width="3.6" height="3.6" fill="#e11d48" opacity="0.4"/><rect x="263.1" y="142.3" width="3.6" height="3.6" fill="#e11d48" opacity="0.4"/><rect x="263.1" y="139.3" width="3.6" height="3.6" fill="#e11d48" opacity="0.4"/><rect x="263.1" y="136.2" width="3.6" height="3.6" fill="#e11d48" opacity="0.4"/><rect x="263.1" y="133.1" width="3.6" height="3.6" fill="#e11d48" opacity="0.4"/><rect x="266.2" y="154.7" width="3.6" height="3.6" fill="#e11d48" opacity="0.4"/><rect x="266.2" y="151.6" width="3.6" height="3.6" fill="#e11d48" opacity="0.4"/><rect x="266.2" y="148.5" width="3.6" height="3.6" fill="#e11d48" opacity="0.4"/><rect x="266.2" y="145.4" width="3.6" height="3.6" fill="#e11d48" opacity="0.4"/><rect x="266.2" y="142.3" width="3.6" height="3.6" fill="#e11d48" opacity="0.4"/><rect x="269.3" y="157.7" width="3.6" height="3.6" fill="#e11d48" opacity="0.4"/><rect x="269.3" y="154.7" width="3.6" height="3.6" fill="#e11d48" opacity="0.4"/><rect x="269.3" y="151.6" width="3.6" height="3.6" fill="#e11d48" opacity="0.4"/><rect x="272.3" y="160.8" width="3.6" height="3.6" fill="#e11d48" opacity="0.4"/><rect x="272.3" y="157.7" width="3.6" height="3.6" fill="#e11d48" opacity="0.4"/><rect x="272.3" y="154.7" width="3.6" height="3.6" fill="#e11d48" opacity="0.4"/><rect x="275.4" y="160.8" width="3.6" height="3.6" fill="#e11d48" opacity="0.4"/><path d="M 257.8 101.2 L 249.8 83.0 L 238.5 101.2" fill="none" stroke="#10b981" stroke-width="2.5"/>
<text x="432" y="44" text-anchor="middle" font-family="system-ui,-apple-system,Segoe UI,Roboto,sans-serif" font-size="11" font-weight="600" fill="#0d9488">time-scaled</text>
<rect x="372" y="54" width="120" height="120" fill="#f8fafc" stroke="#e2e8f0"/>
<line x1="372" y1="125" x2="492" y2="125" stroke="#64748b" stroke-width="1.2" stroke-dasharray="4 3"/><text x="488" y="121" text-anchor="end" font-family="system-ui,-apple-system,Segoe UI,Roboto,sans-serif" font-size="8" font-weight="400" fill="#64748b">limit</text>
<path d="M 372.0 190.0 L 374.0 186.4 L 376.1 182.9 L 378.1 179.3 L 380.1 175.8 L 382.2 172.2 L 384.2 168.6 L 386.2 165.1 L 388.3 161.5 L 390.3 158.0 L 392.3 154.4 L 394.4 150.8 L 396.4 147.3 L 398.4 143.7 L 400.5 141.0 L 402.5 141.0 L 404.5 141.0 L 406.6 141.0 L 408.6 141.0 L 410.6 141.0 L 412.7 141.0 L 414.7 141.0 L 416.7 141.0 L 418.8 141.0 L 420.8 141.0 L 422.8 141.0 L 424.9 141.0 L 426.9 141.0 L 428.9 141.0 L 431.0 141.0 L 433.0 141.0 L 435.1 141.0 L 437.1 141.0 L 439.1 141.0 L 441.2 141.0 L 443.2 141.0 L 445.2 141.0 L 447.3 141.0 L 449.3 141.0 L 451.3 141.0 L 453.4 141.0 L 455.4 141.0 L 457.4 141.0 L 459.5 141.0 L 461.5 141.0 L 463.5 141.0 L 465.6 143.7 L 467.6 147.3 L 469.6 150.8 L 471.7 154.4 L 473.7 158.0 L 475.7 161.5 L 477.8 165.1 L 479.8 168.6 L 481.8 172.2 L 483.9 175.8 L 485.9 179.3 L 487.9 182.9 L 490.0 186.4 L 492.0 190.0" fill="none" stroke="#0d9488" stroke-width="2.5"/><text x="432" y="168" text-anchor="middle" font-family="system-ui,-apple-system,Segoe UI,Roboto,sans-serif" font-size="9" font-weight="400" fill="#0d9488">peaks under limits</text>
<text x="260" y="210" text-anchor="middle" font-family="system-ui,-apple-system,Segoe UI,Roboto,sans-serif" font-size="12" font-weight="650" fill="#0f172a">Obstacle → Constraint → Safe Path → Feasible Trajectory</text>
<text x="260" y="232" text-anchor="middle" font-family="system-ui,-apple-system,Segoe UI,Roboto,sans-serif" font-size="10" font-weight="400" fill="#64748b">plan (RRT) · smooth (shortcut) · time-scale (limits) — plan-then-time</text>
</svg>
