<svg viewBox="0 0 360 430" xmlns="http://www.w3.org/2000/svg" role="img" aria-label="Four stacked plots of a smooth time scaling and its first three derivatives, each the slope of the one above">
<title>Four stacked plots of a smooth time scaling and its first three derivatives, each the slope of the one above</title>
<rect width="360" height="430" fill="white"/><text x="180" y="24" text-anchor="middle" font-family="system-ui,-apple-system,Segoe UI,Roboto,sans-serif" font-size="16" font-weight="650" fill="#0f172a">Derivative ladder of a time scaling</text><rect x="40" y="40" width="280" height="80" fill="#f8fafc" stroke="#e2e8f0"/><line x1="40" y1="108.6" x2="320" y2="108.6" stroke="#334155" stroke-dasharray="3 3"/><path d="M 40.0 108.6 L 44.7 108.5 L 49.3 108.4 L 54.0 108.2 L 58.7 107.8 L 63.3 107.4 L 68.0 107.0 L 72.7 106.4 L 77.3 105.8 L 82.0 105.1 L 86.7 104.3 L 91.3 103.5 L 96.0 102.6 L 100.7 101.7 L 105.3 100.7 L 110.0 99.6 L 114.7 98.5 L 119.3 97.4 L 124.0 96.2 L 128.7 95.0 L 133.3 93.8 L 138.0 92.5 L 142.7 91.2 L 147.3 89.8 L 152.0 88.5 L 156.7 87.1 L 161.3 85.7 L 166.0 84.3 L 170.7 82.9 L 175.3 81.4 L 180.0 80.0 L 184.7 78.6 L 189.3 77.1 L 194.0 75.7 L 198.7 74.3 L 203.3 72.9 L 208.0 71.5 L 212.7 70.2 L 217.3 68.8 L 222.0 67.5 L 226.7 66.2 L 231.3 65.0 L 236.0 63.8 L 240.7 62.6 L 245.3 61.5 L 250.0 60.4 L 254.7 59.3 L 259.3 58.3 L 264.0 57.4 L 268.7 56.5 L 273.3 55.7 L 278.0 54.9 L 282.7 54.2 L 287.3 53.6 L 292.0 53.0 L 296.7 52.6 L 301.3 52.2 L 306.0 51.8 L 310.7 51.6 L 315.3 51.5 L 320.0 51.4" fill="none" stroke="#0d9488" stroke-width="2.5"/><text x="48" y="56" font-family="system-ui,-apple-system,Segoe UI,Roboto,sans-serif" font-size="11.5" fill="#0f172a" font-weight="600">s(t): 0 → 1</text><rect x="40" y="135" width="280" height="80" fill="#f8fafc" stroke="#e2e8f0"/><line x1="40" y1="203.6" x2="320" y2="203.6" stroke="#334155" stroke-dasharray="3 3"/><path d="M 40.0 203.6 L 44.7 199.8 L 49.3 196.2 L 54.0 192.7 L 58.7 189.3 L 63.3 186.1 L 68.0 183.0 L 72.7 180.0 L 77.3 177.2 L 82.0 174.4 L 86.7 171.8 L 91.3 169.3 L 96.0 167.0 L 100.7 164.8 L 105.3 162.7 L 110.0 160.7 L 114.7 158.9 L 119.3 157.2 L 124.0 155.6 L 128.7 154.1 L 133.3 152.8 L 138.0 151.6 L 142.7 150.5 L 147.3 149.5 L 152.0 148.7 L 156.7 148.0 L 161.3 147.4 L 166.0 147.0 L 170.7 146.7 L 175.3 146.5 L 180.0 146.4 L 184.7 146.5 L 189.3 146.7 L 194.0 147.0 L 198.7 147.4 L 203.3 148.0 L 208.0 148.7 L 212.7 149.5 L 217.3 150.5 L 222.0 151.6 L 226.7 152.8 L 231.3 154.1 L 236.0 155.6 L 240.7 157.2 L 245.3 158.9 L 250.0 160.7 L 254.7 162.7 L 259.3 164.8 L 264.0 167.0 L 268.7 169.3 L 273.3 171.8 L 278.0 174.4 L 282.7 177.2 L 287.3 180.0 L 292.0 183.0 L 296.7 186.1 L 301.3 189.3 L 306.0 192.7 L 310.7 196.2 L 315.3 199.8 L 320.0 203.6" fill="none" stroke="#0d9488" stroke-width="2.5"/><text x="48" y="151" font-family="system-ui,-apple-system,Segoe UI,Roboto,sans-serif" font-size="11.5" fill="#0f172a" font-weight="600">ṡ(t): 0 at both ends</text><rect x="40" y="230" width="280" height="80" fill="#f8fafc" stroke="#e2e8f0"/><line x1="40" y1="270.0" x2="320" y2="270.0" stroke="#334155" stroke-dasharray="3 3"/><path d="M 40.0 241.4 L 44.7 242.4 L 49.3 243.3 L 54.0 244.3 L 58.7 245.2 L 63.3 246.2 L 68.0 247.1 L 72.7 248.1 L 77.3 249.0 L 82.0 250.0 L 86.7 251.0 L 91.3 251.9 L 96.0 252.9 L 100.7 253.8 L 105.3 254.8 L 110.0 255.7 L 114.7 256.7 L 119.3 257.6 L 124.0 258.6 L 128.7 259.5 L 133.3 260.5 L 138.0 261.4 L 142.7 262.4 L 147.3 263.3 L 152.0 264.3 L 156.7 265.2 L 161.3 266.2 L 166.0 267.1 L 170.7 268.1 L 175.3 269.0 L 180.0 270.0 L 184.7 271.0 L 189.3 271.9 L 194.0 272.9 L 198.7 273.8 L 203.3 274.8 L 208.0 275.7 L 212.7 276.7 L 217.3 277.6 L 222.0 278.6 L 226.7 279.5 L 231.3 280.5 L 236.0 281.4 L 240.7 282.4 L 245.3 283.3 L 250.0 284.3 L 254.7 285.2 L 259.3 286.2 L 264.0 287.1 L 268.7 288.1 L 273.3 289.0 L 278.0 290.0 L 282.7 291.0 L 287.3 291.9 L 292.0 292.9 L 296.7 293.8 L 301.3 294.8 L 306.0 295.7 L 310.7 296.7 L 315.3 297.6 L 320.0 298.6" fill="none" stroke="#0d9488" stroke-width="2.5"/><text x="48" y="246" font-family="system-ui,-apple-system,Segoe UI,Roboto,sans-serif" font-size="11.5" fill="#0f172a" font-weight="600">s̈(t): one + lobe, one − lobe</text><rect x="40" y="325" width="280" height="80" fill="#f8fafc" stroke="#e2e8f0"/><path d="M 40.0 365.0 L 44.7 365.0 L 49.3 365.0 L 54.0 365.0 L 58.7 365.0 L 63.3 365.0 L 68.0 365.0 L 72.7 365.0 L 77.3 365.0 L 82.0 365.0 L 86.7 365.0 L 91.3 365.0 L 96.0 365.0 L 100.7 365.0 L 105.3 365.0 L 110.0 365.0 L 114.7 365.0 L 119.3 365.0 L 124.0 365.0 L 128.7 365.0 L 133.3 365.0 L 138.0 365.0 L 142.7 365.0 L 147.3 365.0 L 152.0 365.0 L 156.7 365.0 L 161.3 365.0 L 166.0 365.0 L 170.7 365.0 L 175.3 365.0 L 180.0 365.0 L 184.7 365.0 L 189.3 365.0 L 194.0 365.0 L 198.7 365.0 L 203.3 365.0 L 208.0 365.0 L 212.7 365.0 L 217.3 365.0 L 222.0 365.0 L 226.7 365.0 L 231.3 365.0 L 236.0 365.0 L 240.7 365.0 L 245.3 365.0 L 250.0 365.0 L 254.7 365.0 L 259.3 365.0 L 264.0 365.0 L 268.7 365.0 L 273.3 365.0 L 278.0 365.0 L 282.7 365.0 L 287.3 365.0 L 292.0 365.0 L 296.7 365.0 L 301.3 365.0 L 306.0 365.0 L 310.7 365.0 L 315.3 365.0 L 320.0 365.0" fill="none" stroke="#0d9488" stroke-width="2.5"/><text x="48" y="341" font-family="system-ui,-apple-system,Segoe UI,Roboto,sans-serif" font-size="11.5" fill="#0f172a" font-weight="600">s⃛(t): jerk (bounded)</text><text x="180" y="422" text-anchor="middle" font-family="system-ui,-apple-system,Segoe UI,Roboto,sans-serif" font-size="11.5" fill="#64748b">each panel is the slope of the one above</text>
</svg>
