<svg viewBox="0 0 560 330" xmlns="http://www.w3.org/2000/svg" role="img" aria-label="Position, velocity and acceleration of a cubic spline through a via-point, with continuous acceleration versus the stop-at-each jump">
<title>Position, velocity and acceleration of a cubic spline through a via-point, with continuous acceleration versus the stop-at-each jump</title>
<rect width="560" height="330" fill="white"/>
<text x="280" y="24" text-anchor="middle" font-family="system-ui,-apple-system,Segoe UI,Roboto,sans-serif" font-size="15" font-weight="650" fill="#0f172a">Cubic spline: C² flow-through (no jumps at the seams)</text>
<text x="98" y="56" text-anchor="start" font-family="system-ui,-apple-system,Segoe UI,Roboto,sans-serif" font-size="11" font-weight="400" fill="#64748b">position</text>
<rect x="60" y="60" width="440" height="72" fill="#f8fafc" stroke="#e2e8f0"/><path d="M 60.0 132.0 L 62.2 131.1 L 64.4 130.1 L 66.6 129.2 L 68.8 128.3 L 71.1 127.3 L 73.3 126.4 L 75.5 125.4 L 77.7 124.5 L 79.9 123.6 L 82.1 122.7 L 84.3 121.7 L 86.5 120.8 L 88.7 119.9 L 91.0 118.9 L 93.2 118.0 L 95.4 117.1 L 97.6 116.2 L 99.8 115.3 L 102.0 114.4 L 104.2 113.4 L 106.4 112.5 L 108.6 111.6 L 110.9 110.7 L 113.1 109.8 L 115.3 108.9 L 117.5 108.1 L 119.7 107.2 L 121.9 106.3 L 124.1 105.4 L 126.3 104.5 L 128.5 103.7 L 130.8 102.8 L 133.0 101.9 L 135.2 101.1 L 137.4 100.2 L 139.6 99.4 L 141.8 98.5 L 144.0 97.7 L 146.2 96.9 L 148.4 96.0 L 150.7 95.2 L 152.9 94.4 L 155.1 93.6 L 157.3 92.8 L 159.5 92.0 L 161.7 91.2 L 163.9 90.4 L 166.1 89.6 L 168.3 88.9 L 170.6 88.1 L 172.8 87.3 L 175.0 86.6 L 177.2 85.9 L 179.4 85.1 L 181.6 84.4 L 183.8 83.7 L 186.0 83.0 L 188.2 82.3 L 190.5 81.6 L 192.7 80.9 L 194.9 80.2 L 197.1 79.5 L 199.3 78.9 L 201.5 78.2 L 203.7 77.6 L 205.9 77.0 L 208.1 76.3 L 210.4 75.7 L 212.6 75.1 L 214.8 74.5 L 217.0 73.9 L 219.2 73.4 L 221.4 72.8 L 223.6 72.2 L 225.8 71.7 L 228.0 71.2 L 230.3 70.6 L 232.5 70.1 L 234.7 69.6 L 236.9 69.1 L 239.1 68.7 L 241.3 68.2 L 243.5 67.7 L 245.7 67.3 L 247.9 66.9 L 250.2 66.5 L 252.4 66.1 L 254.6 65.7 L 256.8 65.3 L 259.0 64.9 L 261.2 64.6 L 263.4 64.2 L 265.6 63.9 L 267.8 63.6 L 270.1 63.3 L 272.3 63.0 L 274.5 62.7 L 276.7 62.4 L 278.9 62.2 L 281.1 62.0 L 283.3 61.7 L 285.5 61.5 L 287.7 61.3 L 289.9 61.2 L 292.2 61.0 L 294.4 60.8 L 296.6 60.7 L 298.8 60.6 L 301.0 60.5 L 303.2 60.4 L 305.4 60.3 L 307.6 60.2 L 309.8 60.1 L 312.1 60.1 L 314.3 60.0 L 316.5 60.0 L 318.7 60.0 L 320.9 60.0 L 323.1 60.0 L 325.3 60.0 L 327.5 60.1 L 329.7 60.1 L 332.0 60.2 L 334.2 60.2 L 336.4 60.3 L 338.6 60.4 L 340.8 60.5 L 343.0 60.6 L 345.2 60.7 L 347.4 60.8 L 349.6 61.0 L 351.9 61.1 L 354.1 61.3 L 356.3 61.4 L 358.5 61.6 L 360.7 61.8 L 362.9 62.0 L 365.1 62.2 L 367.3 62.4 L 369.5 62.6 L 371.8 62.8 L 374.0 63.1 L 376.2 63.3 L 378.4 63.5 L 380.6 63.8 L 382.8 64.1 L 385.0 64.3 L 387.2 64.6 L 389.4 64.9 L 391.7 65.2 L 393.9 65.5 L 396.1 65.8 L 398.3 66.1 L 400.5 66.4 L 402.7 66.8 L 404.9 67.1 L 407.1 67.5 L 409.3 67.8 L 411.6 68.1 L 413.8 68.5 L 416.0 68.9 L 418.2 69.2 L 420.4 69.6 L 422.6 70.0 L 424.8 70.4 L 427.0 70.8 L 429.2 71.2 L 431.5 71.6 L 433.7 72.0 L 435.9 72.4 L 438.1 72.8 L 440.3 73.2 L 442.5 73.6 L 444.7 74.0 L 446.9 74.5 L 449.1 74.9 L 451.4 75.3 L 453.6 75.8 L 455.8 76.2 L 458.0 76.6 L 460.2 77.1 L 462.4 77.5 L 464.6 78.0 L 466.8 78.4 L 469.0 78.9 L 471.3 79.3 L 473.5 79.8 L 475.7 80.3 L 477.9 80.7 L 480.1 81.2 L 482.3 81.6 L 484.5 82.1 L 486.7 82.6 L 488.9 83.0 L 491.2 83.5 L 493.4 84.0 L 495.6 84.4 L 497.8 84.9 L 500.0 85.4" fill="none" stroke="#10b981" stroke-width="2.4"/>
<circle cx="280" cy="62" r="4" fill="#8b5cf6"/><text x="280.0" y="52" text-anchor="middle" font-family="system-ui,-apple-system,Segoe UI,Roboto,sans-serif" font-size="10" font-weight="400" fill="#8b5cf6">via</text>
<text x="98" y="146" text-anchor="start" font-family="system-ui,-apple-system,Segoe UI,Roboto,sans-serif" font-size="11" font-weight="400" fill="#64748b">velocity (continuous)</text>
<rect x="60" y="150" width="440" height="64" fill="#f8fafc" stroke="#e2e8f0"/><line x1="60" y1="182" x2="500" y2="182" stroke="#e2e8f0"/><path d="M 60.0 150.0 L 62.2 150.0 L 64.4 150.0 L 66.6 150.0 L 68.8 150.0 L 71.1 150.1 L 73.3 150.1 L 75.5 150.1 L 77.7 150.2 L 79.9 150.2 L 82.1 150.2 L 84.3 150.3 L 86.5 150.3 L 88.7 150.4 L 91.0 150.5 L 93.2 150.5 L 95.4 150.6 L 97.6 150.7 L 99.8 150.8 L 102.0 150.9 L 104.2 151.0 L 106.4 151.1 L 108.6 151.2 L 110.9 151.3 L 113.1 151.4 L 115.3 151.5 L 117.5 151.6 L 119.7 151.8 L 121.9 151.9 L 124.1 152.0 L 126.3 152.2 L 128.5 152.3 L 130.8 152.5 L 133.0 152.6 L 135.2 152.8 L 137.4 153.0 L 139.6 153.1 L 141.8 153.3 L 144.0 153.5 L 146.2 153.7 L 148.4 153.9 L 150.7 154.1 L 152.9 154.3 L 155.1 154.5 L 157.3 154.7 L 159.5 154.9 L 161.7 155.1 L 163.9 155.4 L 166.1 155.6 L 168.3 155.8 L 170.6 156.1 L 172.8 156.3 L 175.0 156.6 L 177.2 156.8 L 179.4 157.1 L 181.6 157.3 L 183.8 157.6 L 186.0 157.9 L 188.2 158.2 L 190.5 158.4 L 192.7 158.7 L 194.9 159.0 L 197.1 159.3 L 199.3 159.6 L 201.5 159.9 L 203.7 160.2 L 205.9 160.6 L 208.1 160.9 L 210.4 161.2 L 212.6 161.5 L 214.8 161.9 L 217.0 162.2 L 219.2 162.6 L 221.4 162.9 L 223.6 163.3 L 225.8 163.6 L 228.0 164.0 L 230.3 164.4 L 232.5 164.7 L 234.7 165.1 L 236.9 165.5 L 239.1 165.9 L 241.3 166.3 L 243.5 166.7 L 245.7 167.1 L 247.9 167.5 L 250.2 167.9 L 252.4 168.3 L 254.6 168.8 L 256.8 169.2 L 259.0 169.6 L 261.2 170.1 L 263.4 170.5 L 265.6 171.0 L 267.8 171.4 L 270.1 171.9 L 272.3 172.3 L 274.5 172.8 L 276.7 173.3 L 278.9 173.8 L 281.1 174.2 L 283.3 174.7 L 285.5 175.2 L 287.7 175.7 L 289.9 176.1 L 292.2 176.6 L 294.4 177.0 L 296.6 177.5 L 298.8 177.9 L 301.0 178.4 L 303.2 178.8 L 305.4 179.2 L 307.6 179.7 L 309.8 180.1 L 312.1 180.5 L 314.3 180.9 L 316.5 181.3 L 318.7 181.7 L 320.9 182.1 L 323.1 182.5 L 325.3 182.9 L 327.5 183.3 L 329.7 183.6 L 332.0 184.0 L 334.2 184.4 L 336.4 184.7 L 338.6 185.1 L 340.8 185.4 L 343.0 185.8 L 345.2 186.1 L 347.4 186.5 L 349.6 186.8 L 351.9 187.1 L 354.1 187.4 L 356.3 187.8 L 358.5 188.1 L 360.7 188.4 L 362.9 188.7 L 365.1 189.0 L 367.3 189.3 L 369.5 189.6 L 371.8 189.8 L 374.0 190.1 L 376.2 190.4 L 378.4 190.7 L 380.6 190.9 L 382.8 191.2 L 385.0 191.4 L 387.2 191.7 L 389.4 191.9 L 391.7 192.2 L 393.9 192.4 L 396.1 192.6 L 398.3 192.9 L 400.5 193.1 L 402.7 193.3 L 404.9 193.5 L 407.1 193.7 L 409.3 193.9 L 411.6 194.1 L 413.8 194.3 L 416.0 194.5 L 418.2 194.7 L 420.4 194.9 L 422.6 195.0 L 424.8 195.2 L 427.0 195.4 L 429.2 195.5 L 431.5 195.7 L 433.7 195.8 L 435.9 196.0 L 438.1 196.1 L 440.3 196.2 L 442.5 196.4 L 444.7 196.5 L 446.9 196.6 L 449.1 196.7 L 451.4 196.8 L 453.6 196.9 L 455.8 197.0 L 458.0 197.1 L 460.2 197.2 L 462.4 197.3 L 464.6 197.4 L 466.8 197.5 L 469.0 197.5 L 471.3 197.6 L 473.5 197.7 L 475.7 197.7 L 477.9 197.8 L 480.1 197.8 L 482.3 197.8 L 484.5 197.9 L 486.7 197.9 L 488.9 197.9 L 491.2 198.0 L 493.4 198.0 L 495.6 198.0 L 497.8 198.0 L 500.0 198.0" fill="none" stroke="#10b981" stroke-width="2.4"/>
<text x="98" y="228" text-anchor="start" font-family="system-ui,-apple-system,Segoe UI,Roboto,sans-serif" font-size="11" font-weight="400" fill="#64748b">acceleration</text>
<rect x="60" y="232" width="440" height="72" fill="#f8fafc" stroke="#e2e8f0"/><line x1="60" y1="268" x2="500" y2="268" stroke="#e2e8f0"/><path d="M 60.0 232.0 L 62.2 232.7 L 64.4 233.4 L 66.6 234.2 L 68.8 234.9 L 71.1 235.6 L 73.3 236.3 L 75.5 237.1 L 77.7 237.8 L 79.9 238.5 L 82.1 239.2 L 84.3 240.0 L 86.5 240.7 L 88.7 241.4 L 91.0 242.1 L 93.2 242.9 L 95.4 243.6 L 97.6 244.3 L 99.8 245.0 L 102.0 245.7 L 104.2 246.5 L 106.4 247.2 L 108.6 247.9 L 110.9 248.6 L 113.1 249.4 L 115.3 250.1 L 117.5 250.8 L 119.7 251.5 L 121.9 252.3 L 124.1 253.0 L 126.3 253.7 L 128.5 254.4 L 130.8 255.2 L 133.0 255.9 L 135.2 256.6 L 137.4 257.3 L 139.6 258.1 L 141.8 258.8 L 144.0 259.5 L 146.2 260.2 L 148.4 260.9 L 150.7 261.7 L 152.9 262.4 L 155.1 263.1 L 157.3 263.8 L 159.5 264.6 L 161.7 265.3 L 163.9 266.0 L 166.1 266.7 L 168.3 267.5 L 170.6 268.2 L 172.8 268.9 L 175.0 269.6 L 177.2 270.4 L 179.4 271.1 L 181.6 271.8 L 183.8 272.5 L 186.0 273.2 L 188.2 274.0 L 190.5 274.7 L 192.7 275.4 L 194.9 276.1 L 197.1 276.9 L 199.3 277.6 L 201.5 278.3 L 203.7 279.0 L 205.9 279.8 L 208.1 280.5 L 210.4 281.2 L 212.6 281.9 L 214.8 282.7 L 217.0 283.4 L 219.2 284.1 L 221.4 284.8 L 223.6 285.5 L 225.8 286.3 L 228.0 287.0 L 230.3 287.7 L 232.5 288.4 L 234.7 289.2 L 236.9 289.9 L 239.1 290.6 L 241.3 291.3 L 243.5 292.1 L 245.7 292.8 L 247.9 293.5 L 250.2 294.2 L 252.4 295.0 L 254.6 295.7 L 256.8 296.4 L 259.0 297.1 L 261.2 297.8 L 263.4 298.6 L 265.6 299.3 L 267.8 300.0 L 270.1 300.7 L 272.3 301.5 L 274.5 302.2 L 276.7 302.9 L 278.9 303.6 L 281.1 279.9 L 283.3 279.6 L 285.5 279.4 L 287.7 279.2 L 289.9 278.9 L 292.2 278.7 L 294.4 278.4 L 296.6 278.2 L 298.8 277.9 L 301.0 277.7 L 303.2 277.5 L 305.4 277.2 L 307.6 277.0 L 309.8 276.7 L 312.1 276.5 L 314.3 276.3 L 316.5 276.0 L 318.7 275.8 L 320.9 275.5 L 323.1 275.3 L 325.3 275.1 L 327.5 274.8 L 329.7 274.6 L 332.0 274.3 L 334.2 274.1 L 336.4 273.8 L 338.6 273.6 L 340.8 273.4 L 343.0 273.1 L 345.2 272.9 L 347.4 272.6 L 349.6 272.4 L 351.9 272.2 L 354.1 271.9 L 356.3 271.7 L 358.5 271.4 L 360.7 271.2 L 362.9 271.0 L 365.1 270.7 L 367.3 270.5 L 369.5 270.2 L 371.8 270.0 L 374.0 269.7 L 376.2 269.5 L 378.4 269.3 L 380.6 269.0 L 382.8 268.8 L 385.0 268.5 L 387.2 268.3 L 389.4 268.1 L 391.7 267.8 L 393.9 267.6 L 396.1 267.3 L 398.3 267.1 L 400.5 266.9 L 402.7 266.6 L 404.9 266.4 L 407.1 266.1 L 409.3 265.9 L 411.6 265.6 L 413.8 265.4 L 416.0 265.2 L 418.2 264.9 L 420.4 264.7 L 422.6 264.4 L 424.8 264.2 L 427.0 264.0 L 429.2 263.7 L 431.5 263.5 L 433.7 263.2 L 435.9 263.0 L 438.1 262.8 L 440.3 262.5 L 442.5 262.3 L 444.7 262.0 L 446.9 261.8 L 449.1 261.5 L 451.4 261.3 L 453.6 261.1 L 455.8 260.8 L 458.0 260.6 L 460.2 260.3 L 462.4 260.1 L 464.6 259.9 L 466.8 259.6 L 469.0 259.4 L 471.3 259.1 L 473.5 258.9 L 475.7 258.7 L 477.9 258.4 L 480.1 258.2 L 482.3 257.9 L 484.5 257.7 L 486.7 257.4 L 488.9 257.2 L 491.2 257.0 L 493.4 256.7 L 495.6 256.5 L 497.8 256.2 L 500.0 256.0" fill="none" stroke="#b91c1c" stroke-width="2.4" stroke-dasharray="5 4"/><path d="M 60.0 268.0 L 62.2 268.4 L 64.4 268.7 L 66.6 269.1 L 68.8 269.5 L 71.1 269.8 L 73.3 270.2 L 75.5 270.5 L 77.7 270.9 L 79.9 271.3 L 82.1 271.6 L 84.3 272.0 L 86.5 272.4 L 88.7 272.7 L 91.0 273.1 L 93.2 273.5 L 95.4 273.8 L 97.6 274.2 L 99.8 274.5 L 102.0 274.9 L 104.2 275.3 L 106.4 275.6 L 108.6 276.0 L 110.9 276.4 L 113.1 276.7 L 115.3 277.1 L 117.5 277.5 L 119.7 277.8 L 121.9 278.2 L 124.1 278.5 L 126.3 278.9 L 128.5 279.3 L 130.8 279.6 L 133.0 280.0 L 135.2 280.4 L 137.4 280.7 L 139.6 281.1 L 141.8 281.5 L 144.0 281.8 L 146.2 282.2 L 148.4 282.5 L 150.7 282.9 L 152.9 283.3 L 155.1 283.6 L 157.3 284.0 L 159.5 284.4 L 161.7 284.7 L 163.9 285.1 L 166.1 285.5 L 168.3 285.8 L 170.6 286.2 L 172.8 286.5 L 175.0 286.9 L 177.2 287.3 L 179.4 287.6 L 181.6 288.0 L 183.8 288.4 L 186.0 288.7 L 188.2 289.1 L 190.5 289.5 L 192.7 289.8 L 194.9 290.2 L 197.1 290.5 L 199.3 290.9 L 201.5 291.3 L 203.7 291.6 L 205.9 292.0 L 208.1 292.4 L 210.4 292.7 L 212.6 293.1 L 214.8 293.5 L 217.0 293.8 L 219.2 294.2 L 221.4 294.5 L 223.6 294.9 L 225.8 295.3 L 228.0 295.6 L 230.3 296.0 L 232.5 296.4 L 234.7 296.7 L 236.9 297.1 L 239.1 297.5 L 241.3 297.8 L 243.5 298.2 L 245.7 298.5 L 247.9 298.9 L 250.2 299.3 L 252.4 299.6 L 254.6 300.0 L 256.8 300.4 L 259.0 300.7 L 261.2 301.1 L 263.4 301.5 L 265.6 301.8 L 267.8 302.2 L 270.1 302.5 L 272.3 302.9 L 274.5 303.3 L 276.7 303.6 L 278.9 304.0 L 281.1 304.0 L 283.3 303.6 L 285.5 303.3 L 287.7 302.9 L 289.9 302.5 L 292.2 302.2 L 294.4 301.8 L 296.6 301.5 L 298.8 301.1 L 301.0 300.7 L 303.2 300.4 L 305.4 300.0 L 307.6 299.6 L 309.8 299.3 L 312.1 298.9 L 314.3 298.5 L 316.5 298.2 L 318.7 297.8 L 320.9 297.5 L 323.1 297.1 L 325.3 296.7 L 327.5 296.4 L 329.7 296.0 L 332.0 295.6 L 334.2 295.3 L 336.4 294.9 L 338.6 294.5 L 340.8 294.2 L 343.0 293.8 L 345.2 293.5 L 347.4 293.1 L 349.6 292.7 L 351.9 292.4 L 354.1 292.0 L 356.3 291.6 L 358.5 291.3 L 360.7 290.9 L 362.9 290.5 L 365.1 290.2 L 367.3 289.8 L 369.5 289.5 L 371.8 289.1 L 374.0 288.7 L 376.2 288.4 L 378.4 288.0 L 380.6 287.6 L 382.8 287.3 L 385.0 286.9 L 387.2 286.5 L 389.4 286.2 L 391.7 285.8 L 393.9 285.5 L 396.1 285.1 L 398.3 284.7 L 400.5 284.4 L 402.7 284.0 L 404.9 283.6 L 407.1 283.3 L 409.3 282.9 L 411.6 282.5 L 413.8 282.2 L 416.0 281.8 L 418.2 281.5 L 420.4 281.1 L 422.6 280.7 L 424.8 280.4 L 427.0 280.0 L 429.2 279.6 L 431.5 279.3 L 433.7 278.9 L 435.9 278.5 L 438.1 278.2 L 440.3 277.8 L 442.5 277.5 L 444.7 277.1 L 446.9 276.7 L 449.1 276.4 L 451.4 276.0 L 453.6 275.6 L 455.8 275.3 L 458.0 274.9 L 460.2 274.5 L 462.4 274.2 L 464.6 273.8 L 466.8 273.5 L 469.0 273.1 L 471.3 272.7 L 473.5 272.4 L 475.7 272.0 L 477.9 271.6 L 480.1 271.3 L 482.3 270.9 L 484.5 270.5 L 486.7 270.2 L 488.9 269.8 L 491.2 269.5 L 493.4 269.1 L 495.6 268.7 L 497.8 268.4 L 500.0 268.0" fill="none" stroke="#10b981" stroke-width="2.4"/>
<line x1="280" y1="232" x2="280" y2="304" stroke="#8b5cf6" stroke-width="1" stroke-dasharray="2 2"/>
<text x="470" y="248" text-anchor="end" font-family="system-ui,-apple-system,Segoe UI,Roboto,sans-serif" font-size="10" font-weight="400" fill="#10b981">spline: C² (no jump)</text>
<text x="470" y="300" text-anchor="end" font-family="system-ui,-apple-system,Segoe UI,Roboto,sans-serif" font-size="10" font-weight="400" fill="#b91c1c">stop-at-each: accel jump</text>
</svg>
