<svg viewBox="0 0 520 260" xmlns="http://www.w3.org/2000/svg" role="img" aria-label="Trapezoidal velocity profile for a long move (ramp up, cruise at v_max, ramp down) and the triangular profile for a short move that never reaches v_max">
<title>Trapezoidal velocity profile for a long move (ramp up, cruise at v_max, ramp down) and the triangular profile for a short move that never reaches v_max</title>
<rect width="520" height="260" fill="white"/>
<text x="260" y="24" text-anchor="middle" font-family="system-ui,-apple-system,Segoe UI,Roboto,sans-serif" font-size="14" font-weight="650" fill="#0f172a">Fastest feasible timing: trapezoidal (and triangular)</text>
<text x="160" y="48" text-anchor="middle" font-family="system-ui,-apple-system,Segoe UI,Roboto,sans-serif" font-size="12" font-weight="600" fill="#0d9488">long move: trapezoid</text>
<rect x="40" y="58" width="240" height="150" fill="#f8fafc" stroke="#e2e8f0"/>
<line x1="40" y1="88" x2="280" y2="88" stroke="#64748b" stroke-width="1.3" stroke-dasharray="5 3"/><text x="276" y="84" text-anchor="end" font-family="system-ui,-apple-system,Segoe UI,Roboto,sans-serif" font-size="9" font-weight="400" fill="#64748b">v_max</text>
<path d="M 40.0 208.0 L 42.0 205.5 L 44.0 203.0 L 46.1 200.4 L 48.1 197.9 L 50.1 195.4 L 52.1 192.9 L 54.1 190.4 L 56.1 187.8 L 58.2 185.3 L 60.2 182.8 L 62.2 180.3 L 64.2 177.7 L 66.2 175.2 L 68.2 172.7 L 70.3 170.2 L 72.3 167.7 L 74.3 165.1 L 76.3 162.6 L 78.3 160.1 L 80.3 157.6 L 82.4 155.1 L 84.4 152.5 L 86.4 150.0 L 88.4 147.5 L 90.4 145.0 L 92.4 142.5 L 94.5 139.9 L 96.5 137.4 L 98.5 134.9 L 100.5 132.4 L 102.5 129.8 L 104.5 127.3 L 106.6 124.8 L 108.6 122.3 L 110.6 119.8 L 112.6 117.2 L 114.6 114.7 L 116.6 112.2 L 118.7 109.7 L 120.7 107.2 L 122.7 104.6 L 124.7 102.1 L 126.7 99.6 L 128.7 97.1 L 130.8 94.6 L 132.8 92.0 L 134.8 89.5 L 136.8 88.0 L 138.8 88.0 L 140.8 88.0 L 142.9 88.0 L 144.9 88.0 L 146.9 88.0 L 148.9 88.0 L 150.9 88.0 L 152.9 88.0 L 155.0 88.0 L 157.0 88.0 L 159.0 88.0 L 161.0 88.0 L 163.0 88.0 L 165.0 88.0 L 167.1 88.0 L 169.1 88.0 L 171.1 88.0 L 173.1 88.0 L 175.1 88.0 L 177.1 88.0 L 179.2 88.0 L 181.2 88.0 L 183.2 88.0 L 185.2 89.5 L 187.2 92.0 L 189.2 94.6 L 191.3 97.1 L 193.3 99.6 L 195.3 102.1 L 197.3 104.6 L 199.3 107.2 L 201.3 109.7 L 203.4 112.2 L 205.4 114.7 L 207.4 117.2 L 209.4 119.8 L 211.4 122.3 L 213.4 124.8 L 215.5 127.3 L 217.5 129.8 L 219.5 132.4 L 221.5 134.9 L 223.5 137.4 L 225.5 139.9 L 227.6 142.5 L 229.6 145.0 L 231.6 147.5 L 233.6 150.0 L 235.6 152.5 L 237.6 155.1 L 239.7 157.6 L 241.7 160.1 L 243.7 162.6 L 245.7 165.1 L 247.7 167.7 L 249.7 170.2 L 251.8 172.7 L 253.8 175.2 L 255.8 177.7 L 257.8 180.3 L 259.8 182.8 L 261.8 185.3 L 263.9 187.8 L 265.9 190.4 L 267.9 192.9 L 269.9 195.4 L 271.9 197.9 L 273.9 200.4 L 276.0 203.0 L 278.0 205.5 L 280.0 208.0" fill="none" stroke="#0d9488" stroke-width="3"/>
<text x="80" y="150" text-anchor="start" font-family="system-ui,-apple-system,Segoe UI,Roboto,sans-serif" font-size="9" font-weight="400" fill="#d97706">a_max</text><text x="160" y="80" text-anchor="middle" font-family="system-ui,-apple-system,Segoe UI,Roboto,sans-serif" font-size="9" font-weight="400" fill="#64748b">cruise v_max</text>
<text x="160" y="224" text-anchor="middle" font-family="system-ui,-apple-system,Segoe UI,Roboto,sans-serif" font-size="10" font-weight="400" fill="#64748b">ramp up · cruise · ramp down</text>
<!-- triangular inset -->
<text x="400" y="48" text-anchor="middle" font-family="system-ui,-apple-system,Segoe UI,Roboto,sans-serif" font-size="12" font-weight="600" fill="#8b5cf6">short move: triangle</text>
<rect x="300" y="58" width="180" height="150" fill="#f8fafc" stroke="#e2e8f0"/>
<line x1="300" y1="88" x2="480" y2="88" stroke="#64748b" stroke-width="1.3" stroke-dasharray="5 3"/><text x="476" y="84" text-anchor="end" font-family="system-ui,-apple-system,Segoe UI,Roboto,sans-serif" font-size="9" font-weight="400" fill="#64748b">v_max</text>
<path d="M 300.0 208.0 L 301.5 206.6 L 303.0 205.3 L 304.5 203.9 L 306.1 202.6 L 307.6 201.2 L 309.1 199.9 L 310.6 198.5 L 312.1 197.2 L 313.6 195.8 L 315.1 194.5 L 316.6 193.1 L 318.2 191.8 L 319.7 190.4 L 321.2 189.1 L 322.7 187.7 L 324.2 186.4 L 325.7 185.0 L 327.2 183.6 L 328.7 182.3 L 330.3 180.9 L 331.8 179.6 L 333.3 178.2 L 334.8 176.9 L 336.3 175.5 L 337.8 174.2 L 339.3 172.8 L 340.8 171.5 L 342.4 170.1 L 343.9 168.8 L 345.4 167.4 L 346.9 166.1 L 348.4 164.7 L 349.9 163.4 L 351.4 162.0 L 352.9 160.6 L 354.5 159.3 L 356.0 157.9 L 357.5 156.6 L 359.0 155.2 L 360.5 153.9 L 362.0 152.5 L 363.5 151.2 L 365.0 149.8 L 366.6 148.5 L 368.1 147.1 L 369.6 145.8 L 371.1 144.4 L 372.6 143.1 L 374.1 141.7 L 375.6 140.4 L 377.1 139.0 L 378.7 137.6 L 380.2 136.3 L 381.7 134.9 L 383.2 133.6 L 384.7 132.2 L 386.2 130.9 L 387.7 129.5 L 389.2 128.2 L 390.8 128.2 L 392.3 129.5 L 393.8 130.9 L 395.3 132.2 L 396.8 133.6 L 398.3 134.9 L 399.8 136.3 L 401.3 137.6 L 402.9 139.0 L 404.4 140.4 L 405.9 141.7 L 407.4 143.1 L 408.9 144.4 L 410.4 145.8 L 411.9 147.1 L 413.4 148.5 L 415.0 149.8 L 416.5 151.2 L 418.0 152.5 L 419.5 153.9 L 421.0 155.2 L 422.5 156.6 L 424.0 157.9 L 425.5 159.3 L 427.1 160.6 L 428.6 162.0 L 430.1 163.4 L 431.6 164.7 L 433.1 166.1 L 434.6 167.4 L 436.1 168.8 L 437.6 170.1 L 439.2 171.5 L 440.7 172.8 L 442.2 174.2 L 443.7 175.5 L 445.2 176.9 L 446.7 178.2 L 448.2 179.6 L 449.7 180.9 L 451.3 182.3 L 452.8 183.6 L 454.3 185.0 L 455.8 186.4 L 457.3 187.7 L 458.8 189.1 L 460.3 190.4 L 461.8 191.8 L 463.4 193.1 L 464.9 194.5 L 466.4 195.8 L 467.9 197.2 L 469.4 198.5 L 470.9 199.9 L 472.4 201.2 L 473.9 202.6 L 475.5 203.9 L 477.0 205.3 L 478.5 206.6 L 480.0 208.0" fill="none" stroke="#8b5cf6" stroke-width="3"/>
<text x="390" y="224" text-anchor="middle" font-family="system-ui,-apple-system,Segoe UI,Roboto,sans-serif" font-size="10" font-weight="400" fill="#8b5cf6">never reaches v_max</text>
</svg>
