<svg viewBox="0 0 560 350" xmlns="http://www.w3.org/2000/svg" role="img" aria-label="Full-pose interpolation comparing a constant-twist screw motion with decoupled straight-position-plus-SLERP, agreeing at the endpoints and differing between">
<title>Full-pose interpolation comparing a constant-twist screw motion with decoupled straight-position-plus-SLERP, agreeing at the endpoints and differing between</title>
<rect width="560" height="350" fill="white"/>
<text x="280" y="26" text-anchor="middle" font-family="system-ui,-apple-system,Segoe UI,Roboto,sans-serif" font-size="15" font-weight="650" fill="#0f172a">Full-pose interpolation: screw vs decoupled</text>
<text x="280" y="48" text-anchor="middle" font-family="system-ui,-apple-system,Segoe UI,Roboto,sans-serif" font-size="12" font-weight="400" fill="#64748b">agree at the endpoints, differ in between</text>
<rect x="40" y="58" width="480" height="276" fill="#f8fafc" stroke="#e2e8f0"/>
<path d="M 278.0 300.0 L 264.0 275.5 L 250.0 251.0 L 236.0 226.5 L 222.0 202.0 L 208.0 177.5 L 194.0 153.0" fill="none" stroke="#8b5cf6" stroke-width="1.6" stroke-dasharray="4 3"/>
<path d="M 278.0 300.0 L 282.2 269.0 L 278.3 238.0 L 266.4 209.1 L 247.5 184.2 L 222.8 165.1 L 194.0 153.0" fill="none" stroke="#10b981" stroke-width="2"/>
<line x1="278.0" y1="300.0" x2="298.0" y2="300.0" stroke="#8b5cf6" stroke-width="3"/><circle cx="278.0" cy="300.0" r="4" fill="#8b5cf6"/><line x1="264.0" y1="275.5" x2="283.3" y2="270.3" stroke="#8b5cf6" stroke-width="3"/><circle cx="264.0" cy="275.5" r="4" fill="#8b5cf6"/><line x1="250.0" y1="251.0" x2="267.3" y2="241.0" stroke="#8b5cf6" stroke-width="3"/><circle cx="250.0" cy="251.0" r="4" fill="#8b5cf6"/><line x1="236.0" y1="226.5" x2="250.1" y2="212.4" stroke="#8b5cf6" stroke-width="3"/><circle cx="236.0" cy="226.5" r="4" fill="#8b5cf6"/><line x1="222.0" y1="202.0" x2="232.0" y2="184.7" stroke="#8b5cf6" stroke-width="3"/><circle cx="222.0" cy="202.0" r="4" fill="#8b5cf6"/><line x1="208.0" y1="177.5" x2="213.2" y2="158.2" stroke="#8b5cf6" stroke-width="3"/><circle cx="208.0" cy="177.5" r="4" fill="#8b5cf6"/><line x1="194.0" y1="153.0" x2="194.0" y2="133.0" stroke="#8b5cf6" stroke-width="3"/><circle cx="194.0" cy="153.0" r="4" fill="#8b5cf6"/>
<line x1="278.0" y1="300.0" x2="304.0" y2="300.0" stroke="#10b981" stroke-width="3"/><circle cx="278.0" cy="300.0" r="4" fill="#10b981"/><line x1="282.2" y1="269.0" x2="307.3" y2="262.3" stroke="#10b981" stroke-width="3"/><circle cx="282.2" cy="269.0" r="4" fill="#10b981"/><line x1="278.3" y1="238.0" x2="300.8" y2="225.0" stroke="#10b981" stroke-width="3"/><circle cx="278.3" cy="238.0" r="4" fill="#10b981"/><line x1="266.4" y1="209.1" x2="284.8" y2="190.7" stroke="#10b981" stroke-width="3"/><circle cx="266.4" cy="209.1" r="4" fill="#10b981"/><line x1="247.5" y1="184.2" x2="260.5" y2="161.7" stroke="#10b981" stroke-width="3"/><circle cx="247.5" cy="184.2" r="4" fill="#10b981"/><line x1="222.8" y1="165.1" x2="229.5" y2="140.0" stroke="#10b981" stroke-width="3"/><circle cx="222.8" cy="165.1" r="4" fill="#10b981"/><line x1="194.0" y1="153.0" x2="194.0" y2="127.0" stroke="#10b981" stroke-width="3"/><circle cx="194.0" cy="153.0" r="4" fill="#10b981"/>
<text x="276.44469683442253" y="199.10303038033004" text-anchor="start" font-family="system-ui,-apple-system,Segoe UI,Roboto,sans-serif" font-size="11" font-weight="400" fill="#10b981">screw (constant twist)</text>
<text x="226.0" y="248.5" text-anchor="end" font-family="system-ui,-apple-system,Segoe UI,Roboto,sans-serif" font-size="11" font-weight="400" fill="#8b5cf6">decoupled (line + SLERP)</text>
<text x="270.0" y="306.0" text-anchor="end" font-family="system-ui,-apple-system,Segoe UI,Roboto,sans-serif" font-size="12" font-weight="400" fill="#0f172a">A</text><text x="202.0" y="153.0" text-anchor="start" font-family="system-ui,-apple-system,Segoe UI,Roboto,sans-serif" font-size="12" font-weight="400" fill="#0f172a">B</text>
</svg>
