<svg viewBox="0 0 380 320" xmlns="http://www.w3.org/2000/svg" role="img" aria-label="A Rapidly-exploring Random Tree growing through configuration space free of the shaded C-obstacle, with the recovered collision-free path from start to goal">
<title>A Rapidly-exploring Random Tree growing through configuration space free of the shaded C-obstacle, with the recovered collision-free path from start to goal</title>
<rect width="380" height="320" fill="white"/>
<text x="190" y="24" text-anchor="middle" font-family="system-ui,-apple-system,Segoe UI,Roboto,sans-serif" font-size="14" font-weight="650" fill="#0f172a">RRT: a tree explores free space to the goal</text>
<rect x="70" y="50" width="220" height="220" fill="#f8fafc" stroke="#e2e8f0"/>
<rect x="154.5" y="99.4" width="3.7" height="3.7" fill="#e11d48" opacity="0.45"/><rect x="157.7" y="105.8" width="3.7" height="3.7" fill="#e11d48" opacity="0.45"/><rect x="157.7" y="102.6" width="3.7" height="3.7" fill="#e11d48" opacity="0.45"/><rect x="157.7" y="99.4" width="3.7" height="3.7" fill="#e11d48" opacity="0.45"/><rect x="157.7" y="96.3" width="3.7" height="3.7" fill="#e11d48" opacity="0.45"/><rect x="160.9" y="112.2" width="3.7" height="3.7" fill="#e11d48" opacity="0.45"/><rect x="160.9" y="109.0" width="3.7" height="3.7" fill="#e11d48" opacity="0.45"/><rect x="160.9" y="105.8" width="3.7" height="3.7" fill="#e11d48" opacity="0.45"/><rect x="160.9" y="102.6" width="3.7" height="3.7" fill="#e11d48" opacity="0.45"/><rect x="160.9" y="99.4" width="3.7" height="3.7" fill="#e11d48" opacity="0.45"/><rect x="164.1" y="115.4" width="3.7" height="3.7" fill="#e11d48" opacity="0.45"/><rect x="164.1" y="112.2" width="3.7" height="3.7" fill="#e11d48" opacity="0.45"/><rect x="164.1" y="109.0" width="3.7" height="3.7" fill="#e11d48" opacity="0.45"/><rect x="164.1" y="105.8" width="3.7" height="3.7" fill="#e11d48" opacity="0.45"/><rect x="164.1" y="102.6" width="3.7" height="3.7" fill="#e11d48" opacity="0.45"/><rect x="167.3" y="121.8" width="3.7" height="3.7" fill="#e11d48" opacity="0.45"/><rect x="167.3" y="118.6" width="3.7" height="3.7" fill="#e11d48" opacity="0.45"/><rect x="167.3" y="115.4" width="3.7" height="3.7" fill="#e11d48" opacity="0.45"/><rect x="167.3" y="112.2" width="3.7" height="3.7" fill="#e11d48" opacity="0.45"/><rect x="167.3" y="109.0" width="3.7" height="3.7" fill="#e11d48" opacity="0.45"/><rect x="167.3" y="105.8" width="3.7" height="3.7" fill="#e11d48" opacity="0.45"/><rect x="170.5" y="128.1" width="3.7" height="3.7" fill="#e11d48" opacity="0.45"/><rect x="170.5" y="125.0" width="3.7" height="3.7" fill="#e11d48" opacity="0.45"/><rect x="170.5" y="121.8" width="3.7" height="3.7" fill="#e11d48" opacity="0.45"/><rect x="170.5" y="118.6" width="3.7" height="3.7" fill="#e11d48" opacity="0.45"/><rect x="170.5" y="115.4" width="3.7" height="3.7" fill="#e11d48" opacity="0.45"/><rect x="170.5" y="112.2" width="3.7" height="3.7" fill="#e11d48" opacity="0.45"/><rect x="170.5" y="109.0" width="3.7" height="3.7" fill="#e11d48" opacity="0.45"/><rect x="173.6" y="137.7" width="3.7" height="3.7" fill="#e11d48" opacity="0.45"/><rect x="173.6" y="134.5" width="3.7" height="3.7" fill="#e11d48" opacity="0.45"/><rect x="173.6" y="131.3" width="3.7" height="3.7" fill="#e11d48" opacity="0.45"/><rect x="173.6" y="128.1" width="3.7" height="3.7" fill="#e11d48" opacity="0.45"/><rect x="173.6" y="125.0" width="3.7" height="3.7" fill="#e11d48" opacity="0.45"/><rect x="173.6" y="121.8" width="3.7" height="3.7" fill="#e11d48" opacity="0.45"/><rect x="173.6" y="118.6" width="3.7" height="3.7" fill="#e11d48" opacity="0.45"/><rect x="173.6" y="115.4" width="3.7" height="3.7" fill="#e11d48" opacity="0.45"/><rect x="173.6" y="112.2" width="3.7" height="3.7" fill="#e11d48" opacity="0.45"/><rect x="176.8" y="153.6" width="3.7" height="3.7" fill="#e11d48" opacity="0.45"/><rect x="176.8" y="150.5" width="3.7" height="3.7" fill="#e11d48" opacity="0.45"/><rect x="176.8" y="147.3" width="3.7" height="3.7" fill="#e11d48" opacity="0.45"/><rect x="176.8" y="144.1" width="3.7" height="3.7" fill="#e11d48" opacity="0.45"/><rect x="176.8" y="140.9" width="3.7" height="3.7" fill="#e11d48" opacity="0.45"/><rect x="176.8" y="137.7" width="3.7" height="3.7" fill="#e11d48" opacity="0.45"/><rect x="176.8" y="134.5" width="3.7" height="3.7" fill="#e11d48" opacity="0.45"/><rect x="176.8" y="131.3" width="3.7" height="3.7" fill="#e11d48" opacity="0.45"/><rect x="176.8" y="128.1" width="3.7" height="3.7" fill="#e11d48" opacity="0.45"/><rect x="176.8" y="125.0" width="3.7" height="3.7" fill="#e11d48" opacity="0.45"/><rect x="176.8" y="121.8" width="3.7" height="3.7" fill="#e11d48" opacity="0.45"/><rect x="176.8" y="118.6" width="3.7" height="3.7" fill="#e11d48" opacity="0.45"/><rect x="180.0" y="169.6" width="3.7" height="3.7" fill="#e11d48" opacity="0.45"/><rect x="180.0" y="166.4" width="3.7" height="3.7" fill="#e11d48" opacity="0.45"/><rect x="180.0" y="163.2" width="3.7" height="3.7" fill="#e11d48" opacity="0.45"/><rect x="180.0" y="160.0" width="3.7" height="3.7" fill="#e11d48" opacity="0.45"/><rect x="180.0" y="156.8" width="3.7" height="3.7" fill="#e11d48" opacity="0.45"/><rect x="180.0" y="153.6" width="3.7" height="3.7" fill="#e11d48" opacity="0.45"/><rect x="180.0" y="150.5" width="3.7" height="3.7" fill="#e11d48" opacity="0.45"/><rect x="180.0" y="147.3" width="3.7" height="3.7" fill="#e11d48" opacity="0.45"/><rect x="180.0" y="144.1" width="3.7" height="3.7" fill="#e11d48" opacity="0.45"/><rect x="180.0" y="140.9" width="3.7" height="3.7" fill="#e11d48" opacity="0.45"/><rect x="180.0" y="137.7" width="3.7" height="3.7" fill="#e11d48" opacity="0.45"/><rect x="180.0" y="134.5" width="3.7" height="3.7" fill="#e11d48" opacity="0.45"/><rect x="180.0" y="131.3" width="3.7" height="3.7" fill="#e11d48" opacity="0.45"/><rect x="180.0" y="128.1" width="3.7" height="3.7" fill="#e11d48" opacity="0.45"/><rect x="183.2" y="185.5" width="3.7" height="3.7" fill="#e11d48" opacity="0.45"/><rect x="183.2" y="182.3" width="3.7" height="3.7" fill="#e11d48" opacity="0.45"/><rect x="183.2" y="179.2" width="3.7" height="3.7" fill="#e11d48" opacity="0.45"/><rect x="183.2" y="176.0" width="3.7" height="3.7" fill="#e11d48" opacity="0.45"/><rect x="183.2" y="172.8" width="3.7" height="3.7" fill="#e11d48" opacity="0.45"/><rect x="183.2" y="169.6" width="3.7" height="3.7" fill="#e11d48" opacity="0.45"/><rect x="183.2" y="166.4" width="3.7" height="3.7" fill="#e11d48" opacity="0.45"/><rect x="183.2" y="163.2" width="3.7" height="3.7" fill="#e11d48" opacity="0.45"/><rect x="183.2" y="160.0" width="3.7" height="3.7" fill="#e11d48" opacity="0.45"/><rect x="183.2" y="156.8" width="3.7" height="3.7" fill="#e11d48" opacity="0.45"/><rect x="183.2" y="153.6" width="3.7" height="3.7" fill="#e11d48" opacity="0.45"/><rect x="183.2" y="150.5" width="3.7" height="3.7" fill="#e11d48" opacity="0.45"/><rect x="183.2" y="147.3" width="3.7" height="3.7" fill="#e11d48" opacity="0.45"/><rect x="183.2" y="144.1" width="3.7" height="3.7" fill="#e11d48" opacity="0.45"/><rect x="186.4" y="195.1" width="3.7" height="3.7" fill="#e11d48" opacity="0.45"/><rect x="186.4" y="191.9" width="3.7" height="3.7" fill="#e11d48" opacity="0.45"/><rect x="186.4" y="188.7" width="3.7" height="3.7" fill="#e11d48" opacity="0.45"/><rect x="186.4" y="185.5" width="3.7" height="3.7" fill="#e11d48" opacity="0.45"/><rect x="186.4" y="182.3" width="3.7" height="3.7" fill="#e11d48" opacity="0.45"/><rect x="186.4" y="179.2" width="3.7" height="3.7" fill="#e11d48" opacity="0.45"/><rect x="186.4" y="176.0" width="3.7" height="3.7" fill="#e11d48" opacity="0.45"/><rect x="186.4" y="172.8" width="3.7" height="3.7" fill="#e11d48" opacity="0.45"/><rect x="186.4" y="169.6" width="3.7" height="3.7" fill="#e11d48" opacity="0.45"/><rect x="186.4" y="166.4" width="3.7" height="3.7" fill="#e11d48" opacity="0.45"/><rect x="186.4" y="163.2" width="3.7" height="3.7" fill="#e11d48" opacity="0.45"/><rect x="186.4" y="160.0" width="3.7" height="3.7" fill="#e11d48" opacity="0.45"/><rect x="189.6" y="201.5" width="3.7" height="3.7" fill="#e11d48" opacity="0.45"/><rect x="189.6" y="198.3" width="3.7" height="3.7" fill="#e11d48" opacity="0.45"/><rect x="189.6" y="195.1" width="3.7" height="3.7" fill="#e11d48" opacity="0.45"/><rect x="189.6" y="191.9" width="3.7" height="3.7" fill="#e11d48" opacity="0.45"/><rect x="189.6" y="188.7" width="3.7" height="3.7" fill="#e11d48" opacity="0.45"/><rect x="189.6" y="185.5" width="3.7" height="3.7" fill="#e11d48" opacity="0.45"/><rect x="189.6" y="182.3" width="3.7" height="3.7" fill="#e11d48" opacity="0.45"/><rect x="189.6" y="179.2" width="3.7" height="3.7" fill="#e11d48" opacity="0.45"/><rect x="189.6" y="176.0" width="3.7" height="3.7" fill="#e11d48" opacity="0.45"/><rect x="192.8" y="207.8" width="3.7" height="3.7" fill="#e11d48" opacity="0.45"/><rect x="192.8" y="204.7" width="3.7" height="3.7" fill="#e11d48" opacity="0.45"/><rect x="192.8" y="201.5" width="3.7" height="3.7" fill="#e11d48" opacity="0.45"/><rect x="192.8" y="198.3" width="3.7" height="3.7" fill="#e11d48" opacity="0.45"/><rect x="192.8" y="195.1" width="3.7" height="3.7" fill="#e11d48" opacity="0.45"/><rect x="192.8" y="191.9" width="3.7" height="3.7" fill="#e11d48" opacity="0.45"/><rect x="192.8" y="188.7" width="3.7" height="3.7" fill="#e11d48" opacity="0.45"/><rect x="192.8" y="185.5" width="3.7" height="3.7" fill="#e11d48" opacity="0.45"/><rect x="196.0" y="211.0" width="3.7" height="3.7" fill="#e11d48" opacity="0.45"/><rect x="196.0" y="207.8" width="3.7" height="3.7" fill="#e11d48" opacity="0.45"/><rect x="196.0" y="204.7" width="3.7" height="3.7" fill="#e11d48" opacity="0.45"/><rect x="196.0" y="201.5" width="3.7" height="3.7" fill="#e11d48" opacity="0.45"/><rect x="196.0" y="198.3" width="3.7" height="3.7" fill="#e11d48" opacity="0.45"/><rect x="196.0" y="195.1" width="3.7" height="3.7" fill="#e11d48" opacity="0.45"/><rect x="199.2" y="214.2" width="3.7" height="3.7" fill="#e11d48" opacity="0.45"/><rect x="199.2" y="211.0" width="3.7" height="3.7" fill="#e11d48" opacity="0.45"/><rect x="199.2" y="207.8" width="3.7" height="3.7" fill="#e11d48" opacity="0.45"/><rect x="199.2" y="204.7" width="3.7" height="3.7" fill="#e11d48" opacity="0.45"/><rect x="199.2" y="201.5" width="3.7" height="3.7" fill="#e11d48" opacity="0.45"/><rect x="202.3" y="217.4" width="3.7" height="3.7" fill="#e11d48" opacity="0.45"/><rect x="202.3" y="214.2" width="3.7" height="3.7" fill="#e11d48" opacity="0.45"/><rect x="202.3" y="211.0" width="3.7" height="3.7" fill="#e11d48" opacity="0.45"/><rect x="202.3" y="207.8" width="3.7" height="3.7" fill="#e11d48" opacity="0.45"/><rect x="202.3" y="204.7" width="3.7" height="3.7" fill="#e11d48" opacity="0.45"/><rect x="205.5" y="220.6" width="3.7" height="3.7" fill="#e11d48" opacity="0.45"/><rect x="205.5" y="217.4" width="3.7" height="3.7" fill="#e11d48" opacity="0.45"/><rect x="205.5" y="214.2" width="3.7" height="3.7" fill="#e11d48" opacity="0.45"/><rect x="205.5" y="211.0" width="3.7" height="3.7" fill="#e11d48" opacity="0.45"/><rect x="205.5" y="207.8" width="3.7" height="3.7" fill="#e11d48" opacity="0.45"/><rect x="208.7" y="220.6" width="3.7" height="3.7" fill="#e11d48" opacity="0.45"/><rect x="208.7" y="217.4" width="3.7" height="3.7" fill="#e11d48" opacity="0.45"/><rect x="208.7" y="214.2" width="3.7" height="3.7" fill="#e11d48" opacity="0.45"/>
<line x1="176.0" y1="107.2" x2="169.5" y2="104.6" stroke="#64748b" stroke-width="0.8"/><line x1="176.0" y1="107.2" x2="178.9" y2="113.6" stroke="#64748b" stroke-width="0.8"/><line x1="178.9" y1="113.6" x2="184.0" y2="118.3" stroke="#64748b" stroke-width="0.8"/><line x1="176.0" y1="107.2" x2="179.9" y2="101.4" stroke="#64748b" stroke-width="0.8"/><line x1="184.0" y1="118.3" x2="182.3" y2="125.1" stroke="#64748b" stroke-width="0.8"/><line x1="179.9" y1="101.4" x2="180.5" y2="94.4" stroke="#64748b" stroke-width="0.8"/><line x1="169.5" y1="104.6" x2="165.2" y2="99.0" stroke="#64748b" stroke-width="0.8"/><line x1="182.3" y1="125.1" x2="184.5" y2="131.7" stroke="#64748b" stroke-width="0.8"/><line x1="184.0" y1="118.3" x2="191.0" y2="118.5" stroke="#64748b" stroke-width="0.8"/><line x1="184.5" y1="131.7" x2="188.0" y2="137.9" stroke="#64748b" stroke-width="0.8"/><line x1="180.5" y1="94.4" x2="186.3" y2="90.4" stroke="#64748b" stroke-width="0.8"/><line x1="191.0" y1="118.5" x2="197.9" y2="120.0" stroke="#64748b" stroke-width="0.8"/><line x1="178.9" y1="113.6" x2="179.6" y2="117.6" stroke="#64748b" stroke-width="0.8"/><line x1="188.0" y1="137.9" x2="187.7" y2="144.9" stroke="#64748b" stroke-width="0.8"/><line x1="186.3" y1="90.4" x2="181.6" y2="85.1" stroke="#64748b" stroke-width="0.8"/><line x1="181.6" y1="85.1" x2="176.9" y2="80.0" stroke="#64748b" stroke-width="0.8"/><line x1="187.7" y1="144.9" x2="193.4" y2="148.9" stroke="#64748b" stroke-width="0.8"/><line x1="193.4" y1="148.9" x2="198.9" y2="153.2" stroke="#64748b" stroke-width="0.8"/><line x1="198.9" y1="153.2" x2="205.7" y2="151.4" stroke="#64748b" stroke-width="0.8"/><line x1="176.9" y1="80.0" x2="178.3" y2="73.1" stroke="#64748b" stroke-width="0.8"/><line x1="205.7" y1="151.4" x2="212.6" y2="149.9" stroke="#64748b" stroke-width="0.8"/><line x1="197.9" y1="120.0" x2="204.6" y2="118.0" stroke="#64748b" stroke-width="0.8"/><line x1="198.9" y1="153.2" x2="195.1" y2="159.1" stroke="#64748b" stroke-width="0.8"/><line x1="195.1" y1="159.1" x2="191.3" y2="165.0" stroke="#64748b" stroke-width="0.8"/><line x1="165.2" y1="99.0" x2="160.0" y2="94.4" stroke="#64748b" stroke-width="0.8"/><line x1="191.3" y1="165.0" x2="194.6" y2="171.2" stroke="#64748b" stroke-width="0.8"/><line x1="204.6" y1="118.0" x2="211.1" y2="115.4" stroke="#64748b" stroke-width="0.8"/><line x1="160.0" y1="94.4" x2="154.2" y2="98.2" stroke="#64748b" stroke-width="0.8"/><line x1="194.6" y1="171.2" x2="195.5" y2="178.1" stroke="#64748b" stroke-width="0.8"/><line x1="195.5" y1="178.1" x2="201.4" y2="181.9" stroke="#64748b" stroke-width="0.8"/><line x1="211.1" y1="115.4" x2="216.7" y2="111.2" stroke="#64748b" stroke-width="0.8"/><line x1="201.4" y1="181.9" x2="208.4" y2="181.7" stroke="#64748b" stroke-width="0.8"/><line x1="178.3" y1="73.1" x2="184.2" y2="69.3" stroke="#64748b" stroke-width="0.8"/><line x1="154.2" y1="98.2" x2="148.3" y2="102.1" stroke="#64748b" stroke-width="0.8"/><line x1="191.0" y1="118.5" x2="193.1" y2="113.0" stroke="#64748b" stroke-width="0.8"/><line x1="201.4" y1="181.9" x2="198.6" y2="188.3" stroke="#64748b" stroke-width="0.8"/><line x1="148.3" y1="102.1" x2="142.5" y2="105.9" stroke="#64748b" stroke-width="0.8"/>
<path d="M 176.0 107.2 L 169.5 104.6 L 165.2 99.0 L 160.0 94.4 L 154.2 98.2 L 148.3 102.1 L 142.5 105.9 L 140.5 107.2" fill="none" stroke="#10b981" stroke-width="2.5"/>
<circle cx="176" cy="107" r="5" fill="#10b981"/><text x="168.0211659706332" y="107.18980770462176" text-anchor="end" font-family="system-ui,-apple-system,Segoe UI,Roboto,sans-serif" font-size="9" font-weight="400" fill="#10b981">start</text>
<circle cx="141" cy="107" r="5" fill="#0f172a"/><text x="148.50998318287225" y="107.18980770462176" text-anchor="start" font-family="system-ui,-apple-system,Segoe UI,Roboto,sans-serif" font-size="9" font-weight="400" fill="#0f172a">goal</text>
<text x="190" y="290" text-anchor="middle" font-family="system-ui,-apple-system,Segoe UI,Roboto,sans-serif" font-size="10" font-weight="400" fill="#64748b">tree avoids the C-obstacle (shaded); path recovered (green)</text>
<text x="190" y="306" text-anchor="middle" font-family="system-ui,-apple-system,Segoe UI,Roboto,sans-serif" font-size="10" font-weight="400" fill="#10b981">edges never enter the forbidden region</text>
</svg>
