<svg viewBox="0 0 480 240" xmlns="http://www.w3.org/2000/svg" role="img" aria-label="The identical fast reference tracked two ways: feedback only trails with a following-error gap while feedforward plus feedback rides on the reference, with a bar chart showing the combined controller several times lower tracking RMS">
<title>The identical fast reference tracked two ways: feedback only trails with a following-error gap while feedforward plus feedback rides on the reference, with a bar chart showing the combined controller several times lower tracking RMS</title>
<rect width="480" height="240" fill="white"/>
<text x="240" y="24" text-anchor="middle" font-family="system-ui,-apple-system,Segoe UI,Roboto,sans-serif" font-size="13.5" font-weight="650" fill="#0f172a">Feedback only  vs  feedforward + feedback</text>
<rect x="50" y="46" width="270" height="150" fill="#f8fafc" stroke="#e2e8f0"/>
<line x1="50.0" y1="196.0" x2="50.0" y2="196.0" stroke="#e11d48" stroke-width="1" opacity="0.10"/>
<line x1="51.8" y1="196.0" x2="51.8" y2="196.0" stroke="#e11d48" stroke-width="1" opacity="0.10"/>
<line x1="53.6" y1="196.0" x2="53.6" y2="196.1" stroke="#e11d48" stroke-width="1" opacity="0.10"/>
<line x1="55.4" y1="196.0" x2="55.4" y2="196.2" stroke="#e11d48" stroke-width="1" opacity="0.10"/>
<line x1="57.2" y1="196.0" x2="57.2" y2="196.3" stroke="#e11d48" stroke-width="1" opacity="0.10"/>
<line x1="59.0" y1="196.0" x2="59.0" y2="196.4" stroke="#e11d48" stroke-width="1" opacity="0.10"/>
<line x1="60.8" y1="195.9" x2="60.8" y2="196.6" stroke="#e11d48" stroke-width="1" opacity="0.10"/>
<line x1="62.6" y1="195.9" x2="62.6" y2="196.7" stroke="#e11d48" stroke-width="1" opacity="0.10"/>
<line x1="64.4" y1="195.8" x2="64.4" y2="196.9" stroke="#e11d48" stroke-width="1" opacity="0.10"/>
<line x1="66.2" y1="195.7" x2="66.2" y2="197.0" stroke="#e11d48" stroke-width="1" opacity="0.10"/>
<line x1="68.0" y1="195.6" x2="68.0" y2="197.2" stroke="#e11d48" stroke-width="1" opacity="0.10"/>
<line x1="69.8" y1="195.5" x2="69.8" y2="197.3" stroke="#e11d48" stroke-width="1" opacity="0.10"/>
<line x1="71.6" y1="195.4" x2="71.6" y2="197.5" stroke="#e11d48" stroke-width="1" opacity="0.10"/>
<line x1="73.4" y1="195.2" x2="73.4" y2="197.6" stroke="#e11d48" stroke-width="1" opacity="0.10"/>
<line x1="75.2" y1="195.1" x2="75.2" y2="197.7" stroke="#e11d48" stroke-width="1" opacity="0.10"/>
<line x1="77.0" y1="194.9" x2="77.0" y2="197.8" stroke="#e11d48" stroke-width="1" opacity="0.10"/>
<line x1="78.8" y1="194.6" x2="78.8" y2="197.9" stroke="#e11d48" stroke-width="1" opacity="0.10"/>
<line x1="80.6" y1="194.4" x2="80.6" y2="197.9" stroke="#e11d48" stroke-width="1" opacity="0.10"/>
<line x1="82.4" y1="194.1" x2="82.4" y2="197.9" stroke="#e11d48" stroke-width="1" opacity="0.10"/>
<line x1="84.2" y1="193.8" x2="84.2" y2="197.9" stroke="#e11d48" stroke-width="1" opacity="0.10"/>
<line x1="86.0" y1="193.4" x2="86.0" y2="197.9" stroke="#e11d48" stroke-width="1" opacity="0.10"/>
<line x1="87.8" y1="193.1" x2="87.8" y2="197.8" stroke="#e11d48" stroke-width="1" opacity="0.10"/>
<line x1="89.6" y1="192.7" x2="89.6" y2="197.7" stroke="#e11d48" stroke-width="1" opacity="0.10"/>
<line x1="91.4" y1="192.2" x2="91.4" y2="197.6" stroke="#e11d48" stroke-width="1" opacity="0.10"/>
<line x1="93.2" y1="191.8" x2="93.2" y2="197.4" stroke="#e11d48" stroke-width="1" opacity="0.10"/>
<line x1="95.0" y1="191.3" x2="95.0" y2="197.2" stroke="#e11d48" stroke-width="1" opacity="0.10"/>
<line x1="96.8" y1="190.7" x2="96.8" y2="196.9" stroke="#e11d48" stroke-width="1" opacity="0.10"/>
<line x1="98.6" y1="190.2" x2="98.6" y2="196.7" stroke="#e11d48" stroke-width="1" opacity="0.10"/>
<line x1="100.4" y1="189.6" x2="100.4" y2="196.3" stroke="#e11d48" stroke-width="1" opacity="0.10"/>
<line x1="102.2" y1="188.9" x2="102.2" y2="196.0" stroke="#e11d48" stroke-width="1" opacity="0.10"/>
<line x1="104.0" y1="188.3" x2="104.0" y2="195.6" stroke="#e11d48" stroke-width="1" opacity="0.10"/>
<line x1="105.8" y1="187.6" x2="105.8" y2="195.2" stroke="#e11d48" stroke-width="1" opacity="0.10"/>
<line x1="107.6" y1="186.8" x2="107.6" y2="194.7" stroke="#e11d48" stroke-width="1" opacity="0.10"/>
<line x1="109.4" y1="186.1" x2="109.4" y2="194.2" stroke="#e11d48" stroke-width="1" opacity="0.10"/>
<line x1="111.2" y1="185.3" x2="111.2" y2="193.6" stroke="#e11d48" stroke-width="1" opacity="0.10"/>
<line x1="113.0" y1="184.4" x2="113.0" y2="193.1" stroke="#e11d48" stroke-width="1" opacity="0.10"/>
<line x1="114.8" y1="183.6" x2="114.8" y2="192.4" stroke="#e11d48" stroke-width="1" opacity="0.10"/>
<line x1="116.6" y1="182.7" x2="116.6" y2="191.8" stroke="#e11d48" stroke-width="1" opacity="0.10"/>
<line x1="118.4" y1="181.7" x2="118.4" y2="191.1" stroke="#e11d48" stroke-width="1" opacity="0.10"/>
<line x1="120.2" y1="180.8" x2="120.2" y2="190.3" stroke="#e11d48" stroke-width="1" opacity="0.10"/>
<line x1="122.0" y1="179.8" x2="122.0" y2="189.5" stroke="#e11d48" stroke-width="1" opacity="0.10"/>
<line x1="123.8" y1="178.7" x2="123.8" y2="188.7" stroke="#e11d48" stroke-width="1" opacity="0.10"/>
<line x1="125.6" y1="177.6" x2="125.6" y2="187.8" stroke="#e11d48" stroke-width="1" opacity="0.10"/>
<line x1="127.4" y1="176.5" x2="127.4" y2="186.9" stroke="#e11d48" stroke-width="1" opacity="0.10"/>
<line x1="129.2" y1="175.4" x2="129.2" y2="186.0" stroke="#e11d48" stroke-width="1" opacity="0.10"/>
<line x1="131.0" y1="174.3" x2="131.0" y2="185.0" stroke="#e11d48" stroke-width="1" opacity="0.10"/>
<line x1="132.8" y1="173.1" x2="132.8" y2="184.0" stroke="#e11d48" stroke-width="1" opacity="0.10"/>
<line x1="134.6" y1="171.8" x2="134.6" y2="182.9" stroke="#e11d48" stroke-width="1" opacity="0.10"/>
<line x1="136.4" y1="170.6" x2="136.4" y2="181.8" stroke="#e11d48" stroke-width="1" opacity="0.10"/>
<line x1="138.2" y1="169.3" x2="138.2" y2="180.7" stroke="#e11d48" stroke-width="1" opacity="0.10"/>
<line x1="140.0" y1="168.0" x2="140.0" y2="179.5" stroke="#e11d48" stroke-width="1" opacity="0.10"/>
<line x1="141.8" y1="166.7" x2="141.8" y2="178.3" stroke="#e11d48" stroke-width="1" opacity="0.10"/>
<line x1="143.6" y1="165.3" x2="143.6" y2="177.1" stroke="#e11d48" stroke-width="1" opacity="0.10"/>
<line x1="145.4" y1="164.0" x2="145.4" y2="175.8" stroke="#e11d48" stroke-width="1" opacity="0.10"/>
<line x1="147.2" y1="162.5" x2="147.2" y2="174.5" stroke="#e11d48" stroke-width="1" opacity="0.10"/>
<line x1="149.0" y1="161.1" x2="149.0" y2="173.2" stroke="#e11d48" stroke-width="1" opacity="0.10"/>
<line x1="150.8" y1="159.7" x2="150.8" y2="171.8" stroke="#e11d48" stroke-width="1" opacity="0.10"/>
<line x1="152.6" y1="158.2" x2="152.6" y2="170.5" stroke="#e11d48" stroke-width="1" opacity="0.10"/>
<line x1="154.4" y1="156.7" x2="154.4" y2="169.0" stroke="#e11d48" stroke-width="1" opacity="0.10"/>
<line x1="156.2" y1="155.2" x2="156.2" y2="167.6" stroke="#e11d48" stroke-width="1" opacity="0.10"/>
<line x1="158.0" y1="153.7" x2="158.0" y2="166.1" stroke="#e11d48" stroke-width="1" opacity="0.10"/>
<line x1="159.8" y1="152.1" x2="159.8" y2="164.6" stroke="#e11d48" stroke-width="1" opacity="0.10"/>
<line x1="161.6" y1="150.6" x2="161.6" y2="163.1" stroke="#e11d48" stroke-width="1" opacity="0.10"/>
<line x1="163.4" y1="149.0" x2="163.4" y2="161.6" stroke="#e11d48" stroke-width="1" opacity="0.10"/>
<line x1="165.2" y1="147.4" x2="165.2" y2="160.0" stroke="#e11d48" stroke-width="1" opacity="0.10"/>
<line x1="167.0" y1="145.8" x2="167.0" y2="158.4" stroke="#e11d48" stroke-width="1" opacity="0.10"/>
<line x1="168.8" y1="144.2" x2="168.8" y2="156.8" stroke="#e11d48" stroke-width="1" opacity="0.10"/>
<line x1="170.6" y1="142.6" x2="170.6" y2="155.2" stroke="#e11d48" stroke-width="1" opacity="0.10"/>
<line x1="172.4" y1="140.9" x2="172.4" y2="153.6" stroke="#e11d48" stroke-width="1" opacity="0.10"/>
<line x1="174.2" y1="139.3" x2="174.2" y2="151.9" stroke="#e11d48" stroke-width="1" opacity="0.10"/>
<line x1="176.0" y1="137.6" x2="176.0" y2="150.2" stroke="#e11d48" stroke-width="1" opacity="0.10"/>
<line x1="177.8" y1="136.0" x2="177.8" y2="148.6" stroke="#e11d48" stroke-width="1" opacity="0.10"/>
<line x1="179.6" y1="134.3" x2="179.6" y2="146.9" stroke="#e11d48" stroke-width="1" opacity="0.10"/>
<line x1="181.4" y1="132.7" x2="181.4" y2="145.2" stroke="#e11d48" stroke-width="1" opacity="0.10"/>
<line x1="183.2" y1="131.0" x2="183.2" y2="143.4" stroke="#e11d48" stroke-width="1" opacity="0.10"/>
<line x1="185.0" y1="129.3" x2="185.0" y2="141.7" stroke="#e11d48" stroke-width="1" opacity="0.10"/>
<line x1="186.8" y1="127.7" x2="186.8" y2="140.0" stroke="#e11d48" stroke-width="1" opacity="0.10"/>
<line x1="188.6" y1="126.0" x2="188.6" y2="138.2" stroke="#e11d48" stroke-width="1" opacity="0.10"/>
<line x1="190.4" y1="124.3" x2="190.4" y2="136.5" stroke="#e11d48" stroke-width="1" opacity="0.10"/>
<line x1="192.2" y1="122.7" x2="192.2" y2="134.8" stroke="#e11d48" stroke-width="1" opacity="0.10"/>
<line x1="194.0" y1="121.0" x2="194.0" y2="133.0" stroke="#e11d48" stroke-width="1" opacity="0.10"/>
<line x1="195.8" y1="119.4" x2="195.8" y2="131.3" stroke="#e11d48" stroke-width="1" opacity="0.10"/>
<line x1="197.6" y1="117.7" x2="197.6" y2="129.5" stroke="#e11d48" stroke-width="1" opacity="0.10"/>
<line x1="199.4" y1="116.1" x2="199.4" y2="127.8" stroke="#e11d48" stroke-width="1" opacity="0.10"/>
<line x1="201.2" y1="114.5" x2="201.2" y2="126.0" stroke="#e11d48" stroke-width="1" opacity="0.10"/>
<line x1="203.0" y1="112.9" x2="203.0" y2="124.3" stroke="#e11d48" stroke-width="1" opacity="0.10"/>
<line x1="204.8" y1="111.3" x2="204.8" y2="122.6" stroke="#e11d48" stroke-width="1" opacity="0.10"/>
<line x1="206.6" y1="109.7" x2="206.6" y2="120.9" stroke="#e11d48" stroke-width="1" opacity="0.10"/>
<line x1="208.4" y1="108.1" x2="208.4" y2="119.1" stroke="#e11d48" stroke-width="1" opacity="0.10"/>
<line x1="210.2" y1="106.5" x2="210.2" y2="117.4" stroke="#e11d48" stroke-width="1" opacity="0.10"/>
<line x1="212.0" y1="105.0" x2="212.0" y2="115.8" stroke="#e11d48" stroke-width="1" opacity="0.10"/>
<line x1="213.8" y1="103.5" x2="213.8" y2="114.1" stroke="#e11d48" stroke-width="1" opacity="0.10"/>
<line x1="215.6" y1="102.0" x2="215.6" y2="112.4" stroke="#e11d48" stroke-width="1" opacity="0.10"/>
<line x1="217.4" y1="100.5" x2="217.4" y2="110.8" stroke="#e11d48" stroke-width="1" opacity="0.10"/>
<line x1="219.2" y1="99.0" x2="219.2" y2="109.1" stroke="#e11d48" stroke-width="1" opacity="0.10"/>
<line x1="221.0" y1="97.5" x2="221.0" y2="107.5" stroke="#e11d48" stroke-width="1" opacity="0.10"/>
<line x1="222.8" y1="96.1" x2="222.8" y2="105.9" stroke="#e11d48" stroke-width="1" opacity="0.10"/>
<line x1="224.6" y1="94.7" x2="224.6" y2="104.3" stroke="#e11d48" stroke-width="1" opacity="0.10"/>
<line x1="226.4" y1="93.3" x2="226.4" y2="102.8" stroke="#e11d48" stroke-width="1" opacity="0.10"/>
<line x1="228.2" y1="92.0" x2="228.2" y2="101.2" stroke="#e11d48" stroke-width="1" opacity="0.10"/>
<line x1="230.0" y1="90.7" x2="230.0" y2="99.7" stroke="#e11d48" stroke-width="1" opacity="0.10"/>
<line x1="231.8" y1="89.3" x2="231.8" y2="98.2" stroke="#e11d48" stroke-width="1" opacity="0.10"/>
<line x1="233.6" y1="88.1" x2="233.6" y2="96.7" stroke="#e11d48" stroke-width="1" opacity="0.10"/>
<line x1="235.4" y1="86.8" x2="235.4" y2="95.3" stroke="#e11d48" stroke-width="1" opacity="0.10"/>
<line x1="237.2" y1="85.6" x2="237.2" y2="93.9" stroke="#e11d48" stroke-width="1" opacity="0.10"/>
<line x1="239.0" y1="84.4" x2="239.0" y2="92.5" stroke="#e11d48" stroke-width="1" opacity="0.10"/>
<line x1="240.8" y1="83.2" x2="240.8" y2="91.1" stroke="#e11d48" stroke-width="1" opacity="0.10"/>
<line x1="242.6" y1="82.1" x2="242.6" y2="89.8" stroke="#e11d48" stroke-width="1" opacity="0.10"/>
<line x1="244.4" y1="81.0" x2="244.4" y2="88.5" stroke="#e11d48" stroke-width="1" opacity="0.10"/>
<line x1="246.2" y1="80.0" x2="246.2" y2="87.2" stroke="#e11d48" stroke-width="1" opacity="0.10"/>
<line x1="248.0" y1="78.9" x2="248.0" y2="86.0" stroke="#e11d48" stroke-width="1" opacity="0.10"/>
<line x1="249.8" y1="77.9" x2="249.8" y2="84.8" stroke="#e11d48" stroke-width="1" opacity="0.10"/>
<line x1="251.6" y1="76.9" x2="251.6" y2="83.6" stroke="#e11d48" stroke-width="1" opacity="0.10"/>
<line x1="253.4" y1="76.0" x2="253.4" y2="82.4" stroke="#e11d48" stroke-width="1" opacity="0.10"/>
<line x1="255.2" y1="75.1" x2="255.2" y2="81.3" stroke="#e11d48" stroke-width="1" opacity="0.10"/>
<line x1="257.0" y1="74.2" x2="257.0" y2="80.3" stroke="#e11d48" stroke-width="1" opacity="0.10"/>
<line x1="258.8" y1="73.4" x2="258.8" y2="79.2" stroke="#e11d48" stroke-width="1" opacity="0.10"/>
<line x1="260.6" y1="72.6" x2="260.6" y2="78.2" stroke="#e11d48" stroke-width="1" opacity="0.10"/>
<line x1="262.4" y1="71.8" x2="262.4" y2="77.2" stroke="#e11d48" stroke-width="1" opacity="0.10"/>
<line x1="264.2" y1="71.1" x2="264.2" y2="76.3" stroke="#e11d48" stroke-width="1" opacity="0.10"/>
<line x1="266.0" y1="70.4" x2="266.0" y2="75.4" stroke="#e11d48" stroke-width="1" opacity="0.10"/>
<line x1="267.8" y1="69.7" x2="267.8" y2="74.5" stroke="#e11d48" stroke-width="1" opacity="0.10"/>
<line x1="269.6" y1="69.1" x2="269.6" y2="73.7" stroke="#e11d48" stroke-width="1" opacity="0.10"/>
<line x1="271.4" y1="68.5" x2="271.4" y2="72.9" stroke="#e11d48" stroke-width="1" opacity="0.10"/>
<line x1="273.2" y1="67.9" x2="273.2" y2="72.2" stroke="#e11d48" stroke-width="1" opacity="0.10"/>
<line x1="275.0" y1="67.4" x2="275.0" y2="71.4" stroke="#e11d48" stroke-width="1" opacity="0.10"/>
<line x1="276.8" y1="66.9" x2="276.8" y2="70.8" stroke="#e11d48" stroke-width="1" opacity="0.10"/>
<line x1="278.6" y1="66.4" x2="278.6" y2="70.1" stroke="#e11d48" stroke-width="1" opacity="0.10"/>
<line x1="280.4" y1="66.0" x2="280.4" y2="69.5" stroke="#e11d48" stroke-width="1" opacity="0.10"/>
<line x1="282.2" y1="65.6" x2="282.2" y2="68.9" stroke="#e11d48" stroke-width="1" opacity="0.10"/>
<line x1="284.0" y1="65.2" x2="284.0" y2="68.4" stroke="#e11d48" stroke-width="1" opacity="0.10"/>
<line x1="285.8" y1="64.9" x2="285.8" y2="67.9" stroke="#e11d48" stroke-width="1" opacity="0.10"/>
<line x1="287.6" y1="64.6" x2="287.6" y2="67.4" stroke="#e11d48" stroke-width="1" opacity="0.10"/>
<line x1="289.4" y1="64.3" x2="289.4" y2="67.0" stroke="#e11d48" stroke-width="1" opacity="0.10"/>
<line x1="291.2" y1="64.0" x2="291.2" y2="66.6" stroke="#e11d48" stroke-width="1" opacity="0.10"/>
<line x1="293.0" y1="63.8" x2="293.0" y2="66.2" stroke="#e11d48" stroke-width="1" opacity="0.10"/>
<line x1="294.8" y1="63.6" x2="294.8" y2="65.9" stroke="#e11d48" stroke-width="1" opacity="0.10"/>
<line x1="296.6" y1="63.4" x2="296.6" y2="65.6" stroke="#e11d48" stroke-width="1" opacity="0.10"/>
<line x1="298.4" y1="63.3" x2="298.4" y2="65.3" stroke="#e11d48" stroke-width="1" opacity="0.10"/>
<line x1="300.2" y1="63.1" x2="300.2" y2="65.1" stroke="#e11d48" stroke-width="1" opacity="0.10"/>
<line x1="302.0" y1="63.0" x2="302.0" y2="64.8" stroke="#e11d48" stroke-width="1" opacity="0.10"/>
<line x1="303.8" y1="62.9" x2="303.8" y2="64.6" stroke="#e11d48" stroke-width="1" opacity="0.10"/>
<line x1="305.6" y1="62.9" x2="305.6" y2="64.5" stroke="#e11d48" stroke-width="1" opacity="0.10"/>
<line x1="307.4" y1="62.8" x2="307.4" y2="64.3" stroke="#e11d48" stroke-width="1" opacity="0.10"/>
<line x1="309.2" y1="62.7" x2="309.2" y2="64.2" stroke="#e11d48" stroke-width="1" opacity="0.10"/>
<line x1="311.0" y1="62.7" x2="311.0" y2="64.1" stroke="#e11d48" stroke-width="1" opacity="0.10"/>
<line x1="312.8" y1="62.7" x2="312.8" y2="64.1" stroke="#e11d48" stroke-width="1" opacity="0.10"/>
<line x1="314.6" y1="62.7" x2="314.6" y2="64.0" stroke="#e11d48" stroke-width="1" opacity="0.10"/>
<line x1="316.4" y1="62.7" x2="316.4" y2="64.0" stroke="#e11d48" stroke-width="1" opacity="0.10"/>
<line x1="318.2" y1="62.7" x2="318.2" y2="63.9" stroke="#e11d48" stroke-width="1" opacity="0.10"/>
<line x1="320.0" y1="62.7" x2="320.0" y2="63.9" stroke="#e11d48" stroke-width="1" opacity="0.10"/>
<path d="M 50.0 196.0 L 50.4 196.0 L 50.7 196.0 L 51.1 196.0 L 51.4 196.0 L 51.8 196.0 L 52.2 196.0 L 52.5 196.0 L 52.9 196.0 L 53.2 196.0 L 53.6 196.0 L 54.0 196.0 L 54.3 196.0 L 54.7 196.0 L 55.0 196.0 L 55.4 196.0 L 55.8 196.0 L 56.1 196.0 L 56.5 196.0 L 56.8 196.0 L 57.2 196.0 L 57.6 196.0 L 57.9 196.0 L 58.3 196.0 L 58.6 196.0 L 59.0 196.0 L 59.4 195.9 L 59.7 195.9 L 60.1 195.9 L 60.4 195.9 L 60.8 195.9 L 61.2 195.9 L 61.5 195.9 L 61.9 195.9 L 62.2 195.9 L 62.6 195.9 L 63.0 195.9 L 63.3 195.9 L 63.7 195.8 L 64.0 195.8 L 64.4 195.8 L 64.8 195.8 L 65.1 195.8 L 65.5 195.8 L 65.8 195.8 L 66.2 195.7 L 66.6 195.7 L 66.9 195.7 L 67.3 195.7 L 67.6 195.7 L 68.0 195.6 L 68.4 195.6 L 68.7 195.6 L 69.1 195.6 L 69.4 195.6 L 69.8 195.5 L 70.2 195.5 L 70.5 195.5 L 70.9 195.5 L 71.2 195.4 L 71.6 195.4 L 72.0 195.4 L 72.3 195.3 L 72.7 195.3 L 73.0 195.3 L 73.4 195.2 L 73.8 195.2 L 74.1 195.2 L 74.5 195.1 L 74.8 195.1 L 75.2 195.1 L 75.6 195.0 L 75.9 195.0 L 76.3 194.9 L 76.6 194.9 L 77.0 194.9 L 77.4 194.8 L 77.7 194.8 L 78.1 194.7 L 78.4 194.7 L 78.8 194.6 L 79.2 194.6 L 79.5 194.5 L 79.9 194.5 L 80.2 194.4 L 80.6 194.4 L 81.0 194.3 L 81.3 194.3 L 81.7 194.2 L 82.0 194.1 L 82.4 194.1 L 82.8 194.0 L 83.1 194.0 L 83.5 193.9 L 83.8 193.8 L 84.2 193.8 L 84.6 193.7 L 84.9 193.6 L 85.3 193.6 L 85.6 193.5 L 86.0 193.4 L 86.4 193.4 L 86.7 193.3 L 87.1 193.2 L 87.4 193.1 L 87.8 193.1 L 88.2 193.0 L 88.5 192.9 L 88.9 192.8 L 89.2 192.7 L 89.6 192.7 L 90.0 192.6 L 90.3 192.5 L 90.7 192.4 L 91.0 192.3 L 91.4 192.2 L 91.8 192.1 L 92.1 192.0 L 92.5 192.0 L 92.8 191.9 L 93.2 191.8 L 93.6 191.7 L 93.9 191.6 L 94.3 191.5 L 94.6 191.4 L 95.0 191.3 L 95.4 191.2 L 95.7 191.1 L 96.1 191.0 L 96.4 190.8 L 96.8 190.7 L 97.2 190.6 L 97.5 190.5 L 97.9 190.4 L 98.2 190.3 L 98.6 190.2 L 99.0 190.1 L 99.3 189.9 L 99.7 189.8 L 100.0 189.7 L 100.4 189.6 L 100.8 189.5 L 101.1 189.3 L 101.5 189.2 L 101.8 189.1 L 102.2 188.9 L 102.6 188.8 L 102.9 188.7 L 103.3 188.5 L 103.6 188.4 L 104.0 188.3 L 104.4 188.1 L 104.7 188.0 L 105.1 187.9 L 105.4 187.7 L 105.8 187.6 L 106.2 187.4 L 106.5 187.3 L 106.9 187.1 L 107.2 187.0 L 107.6 186.8 L 108.0 186.7 L 108.3 186.5 L 108.7 186.4 L 109.0 186.2 L 109.4 186.1 L 109.8 185.9 L 110.1 185.8 L 110.5 185.6 L 110.8 185.4 L 111.2 185.3 L 111.6 185.1 L 111.9 184.9 L 112.3 184.8 L 112.6 184.6 L 113.0 184.4 L 113.4 184.3 L 113.7 184.1 L 114.1 183.9 L 114.4 183.7 L 114.8 183.6 L 115.2 183.4 L 115.5 183.2 L 115.9 183.0 L 116.2 182.8 L 116.6 182.7 L 117.0 182.5 L 117.3 182.3 L 117.7 182.1 L 118.0 181.9 L 118.4 181.7 L 118.8 181.5 L 119.1 181.3 L 119.5 181.1 L 119.8 181.0 L 120.2 180.8 L 120.6 180.6 L 120.9 180.4 L 121.3 180.2 L 121.6 180.0 L 122.0 179.8 L 122.4 179.5 L 122.7 179.3 L 123.1 179.1 L 123.4 178.9 L 123.8 178.7 L 124.2 178.5 L 124.5 178.3 L 124.9 178.1 L 125.2 177.9 L 125.6 177.6 L 126.0 177.4 L 126.3 177.2 L 126.7 177.0 L 127.0 176.8 L 127.4 176.5 L 127.8 176.3 L 128.1 176.1 L 128.5 175.9 L 128.8 175.6 L 129.2 175.4 L 129.6 175.2 L 129.9 175.0 L 130.3 174.7 L 130.6 174.5 L 131.0 174.3 L 131.4 174.0 L 131.7 173.8 L 132.1 173.5 L 132.4 173.3 L 132.8 173.1 L 133.2 172.8 L 133.5 172.6 L 133.9 172.3 L 134.2 172.1 L 134.6 171.8 L 135.0 171.6 L 135.3 171.3 L 135.7 171.1 L 136.0 170.8 L 136.4 170.6 L 136.8 170.3 L 137.1 170.1 L 137.5 169.8 L 137.8 169.6 L 138.2 169.3 L 138.6 169.1 L 138.9 168.8 L 139.3 168.5 L 139.6 168.3 L 140.0 168.0 L 140.4 167.8 L 140.7 167.5 L 141.1 167.2 L 141.4 167.0 L 141.8 166.7 L 142.2 166.4 L 142.5 166.1 L 142.9 165.9 L 143.2 165.6 L 143.6 165.3 L 144.0 165.1 L 144.3 164.8 L 144.7 164.5 L 145.0 164.2 L 145.4 164.0 L 145.8 163.7 L 146.1 163.4 L 146.5 163.1 L 146.8 162.8 L 147.2 162.5 L 147.6 162.3 L 147.9 162.0 L 148.3 161.7 L 148.6 161.4 L 149.0 161.1 L 149.4 160.8 L 149.7 160.5 L 150.1 160.3 L 150.4 160.0 L 150.8 159.7 L 151.2 159.4 L 151.5 159.1 L 151.9 158.8 L 152.2 158.5 L 152.6 158.2 L 153.0 157.9 L 153.3 157.6 L 153.7 157.3 L 154.0 157.0 L 154.4 156.7 L 154.8 156.4 L 155.1 156.1 L 155.5 155.8 L 155.8 155.5 L 156.2 155.2 L 156.6 154.9 L 156.9 154.6 L 157.3 154.3 L 157.6 154.0 L 158.0 153.7 L 158.4 153.4 L 158.7 153.1 L 159.1 152.8 L 159.4 152.4 L 159.8 152.1 L 160.2 151.8 L 160.5 151.5 L 160.9 151.2 L 161.2 150.9 L 161.6 150.6 L 162.0 150.3 L 162.3 149.9 L 162.7 149.6 L 163.0 149.3 L 163.4 149.0 L 163.8 148.7 L 164.1 148.4 L 164.5 148.0 L 164.8 147.7 L 165.2 147.4 L 165.6 147.1 L 165.9 146.8 L 166.3 146.4 L 166.6 146.1 L 167.0 145.8 L 167.4 145.5 L 167.7 145.2 L 168.1 144.8 L 168.4 144.5 L 168.8 144.2 L 169.2 143.9 L 169.5 143.5 L 169.9 143.2 L 170.2 142.9 L 170.6 142.6 L 171.0 142.2 L 171.3 141.9 L 171.7 141.6 L 172.0 141.3 L 172.4 140.9 L 172.8 140.6 L 173.1 140.3 L 173.5 139.9 L 173.8 139.6 L 174.2 139.3 L 174.6 139.0 L 174.9 138.6 L 175.3 138.3 L 175.6 138.0 L 176.0 137.6 L 176.4 137.3 L 176.7 137.0 L 177.1 136.6 L 177.4 136.3 L 177.8 136.0 L 178.2 135.7 L 178.5 135.3 L 178.9 135.0 L 179.2 134.7 L 179.6 134.3 L 180.0 134.0 L 180.3 133.7 L 180.7 133.3 L 181.0 133.0 L 181.4 132.7 L 181.8 132.3 L 182.1 132.0 L 182.5 131.7 L 182.8 131.3 L 183.2 131.0 L 183.6 130.7 L 183.9 130.3 L 184.3 130.0 L 184.6 129.7 L 185.0 129.3 L 185.4 129.0 L 185.7 128.7 L 186.1 128.3 L 186.4 128.0 L 186.8 127.7 L 187.2 127.3 L 187.5 127.0 L 187.9 126.7 L 188.2 126.3 L 188.6 126.0 L 189.0 125.7 L 189.3 125.3 L 189.7 125.0 L 190.0 124.7 L 190.4 124.3 L 190.8 124.0 L 191.1 123.7 L 191.5 123.3 L 191.8 123.0 L 192.2 122.7 L 192.6 122.3 L 192.9 122.0 L 193.3 121.7 L 193.6 121.4 L 194.0 121.0 L 194.4 120.7 L 194.7 120.4 L 195.1 120.0 L 195.4 119.7 L 195.8 119.4 L 196.2 119.0 L 196.5 118.7 L 196.9 118.4 L 197.2 118.1 L 197.6 117.7 L 198.0 117.4 L 198.3 117.1 L 198.7 116.8 L 199.0 116.4 L 199.4 116.1 L 199.8 115.8 L 200.1 115.4 L 200.5 115.1 L 200.8 114.8 L 201.2 114.5 L 201.6 114.2 L 201.9 113.8 L 202.3 113.5 L 202.6 113.2 L 203.0 112.9 L 203.4 112.5 L 203.7 112.2 L 204.1 111.9 L 204.4 111.6 L 204.8 111.3 L 205.2 110.9 L 205.5 110.6 L 205.9 110.3 L 206.2 110.0 L 206.6 109.7 L 207.0 109.4 L 207.3 109.0 L 207.7 108.7 L 208.0 108.4 L 208.4 108.1 L 208.8 107.8 L 209.1 107.5 L 209.5 107.2 L 209.8 106.8 L 210.2 106.5 L 210.6 106.2 L 210.9 105.9 L 211.3 105.6 L 211.6 105.3 L 212.0 105.0 L 212.4 104.7 L 212.7 104.4 L 213.1 104.1 L 213.4 103.8 L 213.8 103.5 L 214.2 103.2 L 214.5 102.9 L 214.9 102.6 L 215.2 102.3 L 215.6 102.0 L 216.0 101.7 L 216.3 101.4 L 216.7 101.1 L 217.0 100.8 L 217.4 100.5 L 217.8 100.2 L 218.1 99.9 L 218.5 99.6 L 218.8 99.3 L 219.2 99.0 L 219.6 98.7 L 219.9 98.4 L 220.3 98.1 L 220.6 97.8 L 221.0 97.5 L 221.4 97.3 L 221.7 97.0 L 222.1 96.7 L 222.4 96.4 L 222.8 96.1 L 223.2 95.8 L 223.5 95.6 L 223.9 95.3 L 224.2 95.0 L 224.6 94.7 L 225.0 94.4 L 225.3 94.2 L 225.7 93.9 L 226.0 93.6 L 226.4 93.3 L 226.8 93.1 L 227.1 92.8 L 227.5 92.5 L 227.8 92.2 L 228.2 92.0 L 228.6 91.7 L 228.9 91.4 L 229.3 91.2 L 229.6 90.9 L 230.0 90.7 L 230.4 90.4 L 230.7 90.1 L 231.1 89.9 L 231.4 89.6 L 231.8 89.3 L 232.2 89.1 L 232.5 88.8 L 232.9 88.6 L 233.2 88.3 L 233.6 88.1 L 234.0 87.8 L 234.3 87.6 L 234.7 87.3 L 235.0 87.1 L 235.4 86.8 L 235.8 86.6 L 236.1 86.3 L 236.5 86.1 L 236.8 85.8 L 237.2 85.6 L 237.6 85.4 L 237.9 85.1 L 238.3 84.9 L 238.6 84.6 L 239.0 84.4 L 239.4 84.2 L 239.7 83.9 L 240.1 83.7 L 240.4 83.5 L 240.8 83.2 L 241.2 83.0 L 241.5 82.8 L 241.9 82.6 L 242.2 82.3 L 242.6 82.1 L 243.0 81.9 L 243.3 81.7 L 243.7 81.5 L 244.0 81.2 L 244.4 81.0 L 244.8 80.8 L 245.1 80.6 L 245.5 80.4 L 245.8 80.2 L 246.2 80.0 L 246.6 79.7 L 246.9 79.5 L 247.3 79.3 L 247.6 79.1 L 248.0 78.9 L 248.4 78.7 L 248.7 78.5 L 249.1 78.3 L 249.4 78.1 L 249.8 77.9 L 250.2 77.7 L 250.5 77.5 L 250.9 77.3 L 251.2 77.1 L 251.6 76.9 L 252.0 76.8 L 252.3 76.6 L 252.7 76.4 L 253.0 76.2 L 253.4 76.0 L 253.8 75.8 L 254.1 75.6 L 254.5 75.5 L 254.8 75.3 L 255.2 75.1 L 255.6 74.9 L 255.9 74.7 L 256.3 74.6 L 256.6 74.4 L 257.0 74.2 L 257.4 74.1 L 257.7 73.9 L 258.1 73.7 L 258.4 73.6 L 258.8 73.4 L 259.2 73.2 L 259.5 73.1 L 259.9 72.9 L 260.2 72.7 L 260.6 72.6 L 261.0 72.4 L 261.3 72.3 L 261.7 72.1 L 262.0 72.0 L 262.4 71.8 L 262.8 71.7 L 263.1 71.5 L 263.5 71.4 L 263.8 71.2 L 264.2 71.1 L 264.6 70.9 L 264.9 70.8 L 265.3 70.7 L 265.6 70.5 L 266.0 70.4 L 266.4 70.3 L 266.7 70.1 L 267.1 70.0 L 267.4 69.9 L 267.8 69.7 L 268.2 69.6 L 268.5 69.5 L 268.9 69.3 L 269.2 69.2 L 269.6 69.1 L 270.0 69.0 L 270.3 68.8 L 270.7 68.7 L 271.0 68.6 L 271.4 68.5 L 271.8 68.4 L 272.1 68.3 L 272.5 68.2 L 272.8 68.0 L 273.2 67.9 L 273.6 67.8 L 273.9 67.7 L 274.3 67.6 L 274.6 67.5 L 275.0 67.4 L 275.4 67.3 L 275.7 67.2 L 276.1 67.1 L 276.4 67.0 L 276.8 66.9 L 277.2 66.8 L 277.5 66.7 L 277.9 66.6 L 278.2 66.5 L 278.6 66.4 L 279.0 66.3 L 279.3 66.3 L 279.7 66.2 L 280.0 66.1 L 280.4 66.0 L 280.8 65.9 L 281.1 65.8 L 281.5 65.8 L 281.8 65.7 L 282.2 65.6 L 282.6 65.5 L 282.9 65.4 L 283.3 65.4 L 283.6 65.3 L 284.0 65.2 L 284.4 65.2 L 284.7 65.1 L 285.1 65.0 L 285.4 65.0 L 285.8 64.9 L 286.2 64.8 L 286.5 64.8 L 286.9 64.7 L 287.2 64.6 L 287.6 64.6 L 288.0 64.5 L 288.3 64.5 L 288.7 64.4 L 289.0 64.3 L 289.4 64.3 L 289.8 64.2 L 290.1 64.2 L 290.5 64.1 L 290.8 64.1 L 291.2 64.0 L 291.6 64.0 L 291.9 63.9 L 292.3 63.9 L 292.6 63.9 L 293.0 63.8 L 293.4 63.8 L 293.7 63.7 L 294.1 63.7 L 294.4 63.6 L 294.8 63.6 L 295.2 63.6 L 295.5 63.5 L 295.9 63.5 L 296.2 63.5 L 296.6 63.4 L 297.0 63.4 L 297.3 63.4 L 297.7 63.3 L 298.0 63.3 L 298.4 63.3 L 298.8 63.2 L 299.1 63.2 L 299.5 63.2 L 299.8 63.2 L 300.2 63.1 L 300.6 63.1 L 300.9 63.1 L 301.3 63.1 L 301.6 63.0 L 302.0 63.0 L 302.4 63.0 L 302.7 63.0 L 303.1 63.0 L 303.4 62.9 L 303.8 62.9 L 304.2 62.9 L 304.5 62.9 L 304.9 62.9 L 305.2 62.9 L 305.6 62.9 L 306.0 62.8 L 306.3 62.8 L 306.7 62.8 L 307.0 62.8 L 307.4 62.8 L 307.8 62.8 L 308.1 62.8 L 308.5 62.8 L 308.8 62.8 L 309.2 62.7 L 309.6 62.7 L 309.9 62.7 L 310.3 62.7 L 310.6 62.7 L 311.0 62.7 L 311.4 62.7 L 311.7 62.7 L 312.1 62.7 L 312.4 62.7 L 312.8 62.7 L 313.2 62.7 L 313.5 62.7 L 313.9 62.7 L 314.2 62.7 L 314.6 62.7 L 315.0 62.7 L 315.3 62.7 L 315.7 62.7 L 316.0 62.7 L 316.4 62.7 L 316.8 62.7 L 317.1 62.7 L 317.5 62.7 L 317.8 62.7 L 318.2 62.7 L 318.6 62.7 L 318.9 62.7 L 319.3 62.7 L 319.6 62.7 L 320.0 62.7" fill="none" stroke="#0d9488" stroke-width="2.0"/>
<path d="M 50.0 196.0 L 50.4 196.0 L 50.7 196.0 L 51.1 196.0 L 51.4 196.0 L 51.8 196.0 L 52.2 196.0 L 52.5 196.0 L 52.9 196.1 L 53.2 196.1 L 53.6 196.1 L 54.0 196.1 L 54.3 196.1 L 54.7 196.1 L 55.0 196.2 L 55.4 196.2 L 55.8 196.2 L 56.1 196.2 L 56.5 196.2 L 56.8 196.3 L 57.2 196.3 L 57.6 196.3 L 57.9 196.3 L 58.3 196.4 L 58.6 196.4 L 59.0 196.4 L 59.4 196.5 L 59.7 196.5 L 60.1 196.5 L 60.4 196.5 L 60.8 196.6 L 61.2 196.6 L 61.5 196.6 L 61.9 196.7 L 62.2 196.7 L 62.6 196.7 L 63.0 196.8 L 63.3 196.8 L 63.7 196.8 L 64.0 196.9 L 64.4 196.9 L 64.8 196.9 L 65.1 197.0 L 65.5 197.0 L 65.8 197.0 L 66.2 197.0 L 66.6 197.1 L 66.9 197.1 L 67.3 197.1 L 67.6 197.2 L 68.0 197.2 L 68.4 197.2 L 68.7 197.3 L 69.1 197.3 L 69.4 197.3 L 69.8 197.3 L 70.2 197.4 L 70.5 197.4 L 70.9 197.4 L 71.2 197.5 L 71.6 197.5 L 72.0 197.5 L 72.3 197.5 L 72.7 197.6 L 73.0 197.6 L 73.4 197.6 L 73.8 197.6 L 74.1 197.6 L 74.5 197.7 L 74.8 197.7 L 75.2 197.7 L 75.6 197.7 L 75.9 197.7 L 76.3 197.8 L 76.6 197.8 L 77.0 197.8 L 77.4 197.8 L 77.7 197.8 L 78.1 197.8 L 78.4 197.8 L 78.8 197.9 L 79.2 197.9 L 79.5 197.9 L 79.9 197.9 L 80.2 197.9 L 80.6 197.9 L 81.0 197.9 L 81.3 197.9 L 81.7 197.9 L 82.0 197.9 L 82.4 197.9 L 82.8 197.9 L 83.1 197.9 L 83.5 197.9 L 83.8 197.9 L 84.2 197.9 L 84.6 197.9 L 84.9 197.9 L 85.3 197.9 L 85.6 197.9 L 86.0 197.9 L 86.4 197.8 L 86.7 197.8 L 87.1 197.8 L 87.4 197.8 L 87.8 197.8 L 88.2 197.8 L 88.5 197.8 L 88.9 197.7 L 89.2 197.7 L 89.6 197.7 L 90.0 197.7 L 90.3 197.6 L 90.7 197.6 L 91.0 197.6 L 91.4 197.6 L 91.8 197.5 L 92.1 197.5 L 92.5 197.5 L 92.8 197.4 L 93.2 197.4 L 93.6 197.3 L 93.9 197.3 L 94.3 197.3 L 94.6 197.2 L 95.0 197.2 L 95.4 197.1 L 95.7 197.1 L 96.1 197.0 L 96.4 197.0 L 96.8 196.9 L 97.2 196.9 L 97.5 196.8 L 97.9 196.8 L 98.2 196.7 L 98.6 196.7 L 99.0 196.6 L 99.3 196.5 L 99.7 196.5 L 100.0 196.4 L 100.4 196.3 L 100.8 196.3 L 101.1 196.2 L 101.5 196.1 L 101.8 196.1 L 102.2 196.0 L 102.6 195.9 L 102.9 195.8 L 103.3 195.8 L 103.6 195.7 L 104.0 195.6 L 104.4 195.5 L 104.7 195.4 L 105.1 195.4 L 105.4 195.3 L 105.8 195.2 L 106.2 195.1 L 106.5 195.0 L 106.9 194.9 L 107.2 194.8 L 107.6 194.7 L 108.0 194.6 L 108.3 194.5 L 108.7 194.4 L 109.0 194.3 L 109.4 194.2 L 109.8 194.1 L 110.1 194.0 L 110.5 193.9 L 110.8 193.8 L 111.2 193.6 L 111.6 193.5 L 111.9 193.4 L 112.3 193.3 L 112.6 193.2 L 113.0 193.1 L 113.4 192.9 L 113.7 192.8 L 114.1 192.7 L 114.4 192.6 L 114.8 192.4 L 115.2 192.3 L 115.5 192.2 L 115.9 192.0 L 116.2 191.9 L 116.6 191.8 L 117.0 191.6 L 117.3 191.5 L 117.7 191.3 L 118.0 191.2 L 118.4 191.1 L 118.8 190.9 L 119.1 190.8 L 119.5 190.6 L 119.8 190.5 L 120.2 190.3 L 120.6 190.2 L 120.9 190.0 L 121.3 189.8 L 121.6 189.7 L 122.0 189.5 L 122.4 189.4 L 122.7 189.2 L 123.1 189.0 L 123.4 188.9 L 123.8 188.7 L 124.2 188.5 L 124.5 188.3 L 124.9 188.2 L 125.2 188.0 L 125.6 187.8 L 126.0 187.6 L 126.3 187.5 L 126.7 187.3 L 127.0 187.1 L 127.4 186.9 L 127.8 186.7 L 128.1 186.5 L 128.5 186.4 L 128.8 186.2 L 129.2 186.0 L 129.6 185.8 L 129.9 185.6 L 130.3 185.4 L 130.6 185.2 L 131.0 185.0 L 131.4 184.8 L 131.7 184.6 L 132.1 184.4 L 132.4 184.2 L 132.8 184.0 L 133.2 183.8 L 133.5 183.5 L 133.9 183.3 L 134.2 183.1 L 134.6 182.9 L 135.0 182.7 L 135.3 182.5 L 135.7 182.3 L 136.0 182.0 L 136.4 181.8 L 136.8 181.6 L 137.1 181.4 L 137.5 181.1 L 137.8 180.9 L 138.2 180.7 L 138.6 180.5 L 138.9 180.2 L 139.3 180.0 L 139.6 179.8 L 140.0 179.5 L 140.4 179.3 L 140.7 179.0 L 141.1 178.8 L 141.4 178.6 L 141.8 178.3 L 142.2 178.1 L 142.5 177.8 L 142.9 177.6 L 143.2 177.3 L 143.6 177.1 L 144.0 176.8 L 144.3 176.6 L 144.7 176.3 L 145.0 176.1 L 145.4 175.8 L 145.8 175.6 L 146.1 175.3 L 146.5 175.0 L 146.8 174.8 L 147.2 174.5 L 147.6 174.3 L 147.9 174.0 L 148.3 173.7 L 148.6 173.5 L 149.0 173.2 L 149.4 172.9 L 149.7 172.7 L 150.1 172.4 L 150.4 172.1 L 150.8 171.8 L 151.2 171.6 L 151.5 171.3 L 151.9 171.0 L 152.2 170.7 L 152.6 170.5 L 153.0 170.2 L 153.3 169.9 L 153.7 169.6 L 154.0 169.3 L 154.4 169.0 L 154.8 168.7 L 155.1 168.5 L 155.5 168.2 L 155.8 167.9 L 156.2 167.6 L 156.6 167.3 L 156.9 167.0 L 157.3 166.7 L 157.6 166.4 L 158.0 166.1 L 158.4 165.8 L 158.7 165.5 L 159.1 165.2 L 159.4 164.9 L 159.8 164.6 L 160.2 164.3 L 160.5 164.0 L 160.9 163.7 L 161.2 163.4 L 161.6 163.1 L 162.0 162.8 L 162.3 162.5 L 162.7 162.2 L 163.0 161.9 L 163.4 161.6 L 163.8 161.3 L 164.1 160.9 L 164.5 160.6 L 164.8 160.3 L 165.2 160.0 L 165.6 159.7 L 165.9 159.4 L 166.3 159.1 L 166.6 158.7 L 167.0 158.4 L 167.4 158.1 L 167.7 157.8 L 168.1 157.5 L 168.4 157.1 L 168.8 156.8 L 169.2 156.5 L 169.5 156.2 L 169.9 155.8 L 170.2 155.5 L 170.6 155.2 L 171.0 154.9 L 171.3 154.5 L 171.7 154.2 L 172.0 153.9 L 172.4 153.6 L 172.8 153.2 L 173.1 152.9 L 173.5 152.6 L 173.8 152.2 L 174.2 151.9 L 174.6 151.6 L 174.9 151.2 L 175.3 150.9 L 175.6 150.6 L 176.0 150.2 L 176.4 149.9 L 176.7 149.6 L 177.1 149.2 L 177.4 148.9 L 177.8 148.6 L 178.2 148.2 L 178.5 147.9 L 178.9 147.5 L 179.2 147.2 L 179.6 146.9 L 180.0 146.5 L 180.3 146.2 L 180.7 145.8 L 181.0 145.5 L 181.4 145.2 L 181.8 144.8 L 182.1 144.5 L 182.5 144.1 L 182.8 143.8 L 183.2 143.4 L 183.6 143.1 L 183.9 142.7 L 184.3 142.4 L 184.6 142.1 L 185.0 141.7 L 185.4 141.4 L 185.7 141.0 L 186.1 140.7 L 186.4 140.3 L 186.8 140.0 L 187.2 139.6 L 187.5 139.3 L 187.9 138.9 L 188.2 138.6 L 188.6 138.2 L 189.0 137.9 L 189.3 137.5 L 189.7 137.2 L 190.0 136.9 L 190.4 136.5 L 190.8 136.2 L 191.1 135.8 L 191.5 135.5 L 191.8 135.1 L 192.2 134.8 L 192.6 134.4 L 192.9 134.1 L 193.3 133.7 L 193.6 133.4 L 194.0 133.0 L 194.4 132.7 L 194.7 132.3 L 195.1 132.0 L 195.4 131.6 L 195.8 131.3 L 196.2 130.9 L 196.5 130.6 L 196.9 130.2 L 197.2 129.9 L 197.6 129.5 L 198.0 129.2 L 198.3 128.8 L 198.7 128.5 L 199.0 128.1 L 199.4 127.8 L 199.8 127.4 L 200.1 127.1 L 200.5 126.7 L 200.8 126.4 L 201.2 126.0 L 201.6 125.7 L 201.9 125.3 L 202.3 125.0 L 202.6 124.7 L 203.0 124.3 L 203.4 124.0 L 203.7 123.6 L 204.1 123.3 L 204.4 122.9 L 204.8 122.6 L 205.2 122.2 L 205.5 121.9 L 205.9 121.5 L 206.2 121.2 L 206.6 120.9 L 207.0 120.5 L 207.3 120.2 L 207.7 119.8 L 208.0 119.5 L 208.4 119.1 L 208.8 118.8 L 209.1 118.5 L 209.5 118.1 L 209.8 117.8 L 210.2 117.4 L 210.6 117.1 L 210.9 116.8 L 211.3 116.4 L 211.6 116.1 L 212.0 115.8 L 212.4 115.4 L 212.7 115.1 L 213.1 114.7 L 213.4 114.4 L 213.8 114.1 L 214.2 113.7 L 214.5 113.4 L 214.9 113.1 L 215.2 112.7 L 215.6 112.4 L 216.0 112.1 L 216.3 111.7 L 216.7 111.4 L 217.0 111.1 L 217.4 110.8 L 217.8 110.4 L 218.1 110.1 L 218.5 109.8 L 218.8 109.4 L 219.2 109.1 L 219.6 108.8 L 219.9 108.5 L 220.3 108.1 L 220.6 107.8 L 221.0 107.5 L 221.4 107.2 L 221.7 106.9 L 222.1 106.5 L 222.4 106.2 L 222.8 105.9 L 223.2 105.6 L 223.5 105.3 L 223.9 104.9 L 224.2 104.6 L 224.6 104.3 L 225.0 104.0 L 225.3 103.7 L 225.7 103.4 L 226.0 103.1 L 226.4 102.8 L 226.8 102.4 L 227.1 102.1 L 227.5 101.8 L 227.8 101.5 L 228.2 101.2 L 228.6 100.9 L 228.9 100.6 L 229.3 100.3 L 229.6 100.0 L 230.0 99.7 L 230.4 99.4 L 230.7 99.1 L 231.1 98.8 L 231.4 98.5 L 231.8 98.2 L 232.2 97.9 L 232.5 97.6 L 232.9 97.3 L 233.2 97.0 L 233.6 96.7 L 234.0 96.4 L 234.3 96.2 L 234.7 95.9 L 235.0 95.6 L 235.4 95.3 L 235.8 95.0 L 236.1 94.7 L 236.5 94.4 L 236.8 94.2 L 237.2 93.9 L 237.6 93.6 L 237.9 93.3 L 238.3 93.0 L 238.6 92.8 L 239.0 92.5 L 239.4 92.2 L 239.7 91.9 L 240.1 91.7 L 240.4 91.4 L 240.8 91.1 L 241.2 90.9 L 241.5 90.6 L 241.9 90.3 L 242.2 90.1 L 242.6 89.8 L 243.0 89.5 L 243.3 89.3 L 243.7 89.0 L 244.0 88.7 L 244.4 88.5 L 244.8 88.2 L 245.1 88.0 L 245.5 87.7 L 245.8 87.5 L 246.2 87.2 L 246.6 87.0 L 246.9 86.7 L 247.3 86.5 L 247.6 86.2 L 248.0 86.0 L 248.4 85.7 L 248.7 85.5 L 249.1 85.2 L 249.4 85.0 L 249.8 84.8 L 250.2 84.5 L 250.5 84.3 L 250.9 84.1 L 251.2 83.8 L 251.6 83.6 L 252.0 83.4 L 252.3 83.1 L 252.7 82.9 L 253.0 82.7 L 253.4 82.4 L 253.8 82.2 L 254.1 82.0 L 254.5 81.8 L 254.8 81.6 L 255.2 81.3 L 255.6 81.1 L 255.9 80.9 L 256.3 80.7 L 256.6 80.5 L 257.0 80.3 L 257.4 80.0 L 257.7 79.8 L 258.1 79.6 L 258.4 79.4 L 258.8 79.2 L 259.2 79.0 L 259.5 78.8 L 259.9 78.6 L 260.2 78.4 L 260.6 78.2 L 261.0 78.0 L 261.3 77.8 L 261.7 77.6 L 262.0 77.4 L 262.4 77.2 L 262.8 77.0 L 263.1 76.9 L 263.5 76.7 L 263.8 76.5 L 264.2 76.3 L 264.6 76.1 L 264.9 75.9 L 265.3 75.8 L 265.6 75.6 L 266.0 75.4 L 266.4 75.2 L 266.7 75.1 L 267.1 74.9 L 267.4 74.7 L 267.8 74.5 L 268.2 74.4 L 268.5 74.2 L 268.9 74.0 L 269.2 73.9 L 269.6 73.7 L 270.0 73.5 L 270.3 73.4 L 270.7 73.2 L 271.0 73.1 L 271.4 72.9 L 271.8 72.8 L 272.1 72.6 L 272.5 72.5 L 272.8 72.3 L 273.2 72.2 L 273.6 72.0 L 273.9 71.9 L 274.3 71.7 L 274.6 71.6 L 275.0 71.4 L 275.4 71.3 L 275.7 71.2 L 276.1 71.0 L 276.4 70.9 L 276.8 70.8 L 277.2 70.6 L 277.5 70.5 L 277.9 70.4 L 278.2 70.2 L 278.6 70.1 L 279.0 70.0 L 279.3 69.9 L 279.7 69.7 L 280.0 69.6 L 280.4 69.5 L 280.8 69.4 L 281.1 69.3 L 281.5 69.2 L 281.8 69.0 L 282.2 68.9 L 282.6 68.8 L 282.9 68.7 L 283.3 68.6 L 283.6 68.5 L 284.0 68.4 L 284.4 68.3 L 284.7 68.2 L 285.1 68.1 L 285.4 68.0 L 285.8 67.9 L 286.2 67.8 L 286.5 67.7 L 286.9 67.6 L 287.2 67.5 L 287.6 67.4 L 288.0 67.3 L 288.3 67.2 L 288.7 67.2 L 289.0 67.1 L 289.4 67.0 L 289.8 66.9 L 290.1 66.8 L 290.5 66.7 L 290.8 66.7 L 291.2 66.6 L 291.6 66.5 L 291.9 66.4 L 292.3 66.4 L 292.6 66.3 L 293.0 66.2 L 293.4 66.1 L 293.7 66.1 L 294.1 66.0 L 294.4 65.9 L 294.8 65.9 L 295.2 65.8 L 295.5 65.8 L 295.9 65.7 L 296.2 65.6 L 296.6 65.6 L 297.0 65.5 L 297.3 65.5 L 297.7 65.4 L 298.0 65.4 L 298.4 65.3 L 298.8 65.2 L 299.1 65.2 L 299.5 65.2 L 299.8 65.1 L 300.2 65.1 L 300.6 65.0 L 300.9 65.0 L 301.3 64.9 L 301.6 64.9 L 302.0 64.8 L 302.4 64.8 L 302.7 64.8 L 303.1 64.7 L 303.4 64.7 L 303.8 64.6 L 304.2 64.6 L 304.5 64.6 L 304.9 64.5 L 305.2 64.5 L 305.6 64.5 L 306.0 64.5 L 306.3 64.4 L 306.7 64.4 L 307.0 64.4 L 307.4 64.3 L 307.8 64.3 L 308.1 64.3 L 308.5 64.3 L 308.8 64.2 L 309.2 64.2 L 309.6 64.2 L 309.9 64.2 L 310.3 64.2 L 310.6 64.2 L 311.0 64.1 L 311.4 64.1 L 311.7 64.1 L 312.1 64.1 L 312.4 64.1 L 312.8 64.1 L 313.2 64.0 L 313.5 64.0 L 313.9 64.0 L 314.2 64.0 L 314.6 64.0 L 315.0 64.0 L 315.3 64.0 L 315.7 64.0 L 316.0 64.0 L 316.4 64.0 L 316.8 64.0 L 317.1 64.0 L 317.5 64.0 L 317.8 63.9 L 318.2 63.9 L 318.6 63.9 L 318.9 63.9 L 319.3 63.9 L 319.6 63.9 L 320.0 63.9" fill="none" stroke="#e11d48" stroke-width="2.2" stroke-dasharray="5 3"/>
<path d="M 50.0 196.0 L 50.4 196.0 L 50.7 196.0 L 51.1 196.0 L 51.4 196.0 L 51.8 196.0 L 52.2 196.0 L 52.5 196.0 L 52.9 196.0 L 53.2 196.0 L 53.6 196.0 L 54.0 196.0 L 54.3 196.0 L 54.7 196.0 L 55.0 196.0 L 55.4 196.0 L 55.8 196.0 L 56.1 196.0 L 56.5 196.0 L 56.8 196.1 L 57.2 196.1 L 57.6 196.1 L 57.9 196.1 L 58.3 196.1 L 58.6 196.1 L 59.0 196.1 L 59.4 196.1 L 59.7 196.1 L 60.1 196.1 L 60.4 196.1 L 60.8 196.1 L 61.2 196.1 L 61.5 196.1 L 61.9 196.1 L 62.2 196.1 L 62.6 196.1 L 63.0 196.1 L 63.3 196.1 L 63.7 196.1 L 64.0 196.1 L 64.4 196.1 L 64.8 196.1 L 65.1 196.1 L 65.5 196.1 L 65.8 196.1 L 66.2 196.0 L 66.6 196.0 L 66.9 196.0 L 67.3 196.0 L 67.6 196.0 L 68.0 196.0 L 68.4 196.0 L 68.7 196.0 L 69.1 196.0 L 69.4 196.0 L 69.8 196.0 L 70.2 195.9 L 70.5 195.9 L 70.9 195.9 L 71.2 195.9 L 71.6 195.9 L 72.0 195.9 L 72.3 195.8 L 72.7 195.8 L 73.0 195.8 L 73.4 195.8 L 73.8 195.8 L 74.1 195.7 L 74.5 195.7 L 74.8 195.7 L 75.2 195.7 L 75.6 195.6 L 75.9 195.6 L 76.3 195.6 L 76.6 195.6 L 77.0 195.5 L 77.4 195.5 L 77.7 195.5 L 78.1 195.4 L 78.4 195.4 L 78.8 195.4 L 79.2 195.3 L 79.5 195.3 L 79.9 195.3 L 80.2 195.2 L 80.6 195.2 L 81.0 195.1 L 81.3 195.1 L 81.7 195.0 L 82.0 195.0 L 82.4 195.0 L 82.8 194.9 L 83.1 194.9 L 83.5 194.8 L 83.8 194.8 L 84.2 194.7 L 84.6 194.7 L 84.9 194.6 L 85.3 194.5 L 85.6 194.5 L 86.0 194.4 L 86.4 194.4 L 86.7 194.3 L 87.1 194.3 L 87.4 194.2 L 87.8 194.1 L 88.2 194.1 L 88.5 194.0 L 88.9 193.9 L 89.2 193.9 L 89.6 193.8 L 90.0 193.7 L 90.3 193.6 L 90.7 193.6 L 91.0 193.5 L 91.4 193.4 L 91.8 193.3 L 92.1 193.3 L 92.5 193.2 L 92.8 193.1 L 93.2 193.0 L 93.6 192.9 L 93.9 192.8 L 94.3 192.8 L 94.6 192.7 L 95.0 192.6 L 95.4 192.5 L 95.7 192.4 L 96.1 192.3 L 96.4 192.2 L 96.8 192.1 L 97.2 192.0 L 97.5 191.9 L 97.9 191.8 L 98.2 191.7 L 98.6 191.6 L 99.0 191.5 L 99.3 191.4 L 99.7 191.3 L 100.0 191.2 L 100.4 191.1 L 100.8 190.9 L 101.1 190.8 L 101.5 190.7 L 101.8 190.6 L 102.2 190.5 L 102.6 190.4 L 102.9 190.2 L 103.3 190.1 L 103.6 190.0 L 104.0 189.9 L 104.4 189.7 L 104.7 189.6 L 105.1 189.5 L 105.4 189.4 L 105.8 189.2 L 106.2 189.1 L 106.5 189.0 L 106.9 188.8 L 107.2 188.7 L 107.6 188.5 L 108.0 188.4 L 108.3 188.3 L 108.7 188.1 L 109.0 188.0 L 109.4 187.8 L 109.8 187.7 L 110.1 187.5 L 110.5 187.4 L 110.8 187.2 L 111.2 187.1 L 111.6 186.9 L 111.9 186.8 L 112.3 186.6 L 112.6 186.4 L 113.0 186.3 L 113.4 186.1 L 113.7 186.0 L 114.1 185.8 L 114.4 185.6 L 114.8 185.5 L 115.2 185.3 L 115.5 185.1 L 115.9 185.0 L 116.2 184.8 L 116.6 184.6 L 117.0 184.4 L 117.3 184.3 L 117.7 184.1 L 118.0 183.9 L 118.4 183.7 L 118.8 183.5 L 119.1 183.3 L 119.5 183.2 L 119.8 183.0 L 120.2 182.8 L 120.6 182.6 L 120.9 182.4 L 121.3 182.2 L 121.6 182.0 L 122.0 181.8 L 122.4 181.6 L 122.7 181.4 L 123.1 181.2 L 123.4 181.0 L 123.8 180.8 L 124.2 180.6 L 124.5 180.4 L 124.9 180.2 L 125.2 180.0 L 125.6 179.8 L 126.0 179.6 L 126.3 179.4 L 126.7 179.2 L 127.0 179.0 L 127.4 178.7 L 127.8 178.5 L 128.1 178.3 L 128.5 178.1 L 128.8 177.9 L 129.2 177.6 L 129.6 177.4 L 129.9 177.2 L 130.3 177.0 L 130.6 176.8 L 131.0 176.5 L 131.4 176.3 L 131.7 176.1 L 132.1 175.8 L 132.4 175.6 L 132.8 175.4 L 133.2 175.1 L 133.5 174.9 L 133.9 174.7 L 134.2 174.4 L 134.6 174.2 L 135.0 173.9 L 135.3 173.7 L 135.7 173.4 L 136.0 173.2 L 136.4 173.0 L 136.8 172.7 L 137.1 172.5 L 137.5 172.2 L 137.8 172.0 L 138.2 171.7 L 138.6 171.5 L 138.9 171.2 L 139.3 170.9 L 139.6 170.7 L 140.0 170.4 L 140.4 170.2 L 140.7 169.9 L 141.1 169.7 L 141.4 169.4 L 141.8 169.1 L 142.2 168.9 L 142.5 168.6 L 142.9 168.3 L 143.2 168.1 L 143.6 167.8 L 144.0 167.5 L 144.3 167.3 L 144.7 167.0 L 145.0 166.7 L 145.4 166.4 L 145.8 166.2 L 146.1 165.9 L 146.5 165.6 L 146.8 165.3 L 147.2 165.1 L 147.6 164.8 L 147.9 164.5 L 148.3 164.2 L 148.6 163.9 L 149.0 163.7 L 149.4 163.4 L 149.7 163.1 L 150.1 162.8 L 150.4 162.5 L 150.8 162.2 L 151.2 161.9 L 151.5 161.6 L 151.9 161.4 L 152.2 161.1 L 152.6 160.8 L 153.0 160.5 L 153.3 160.2 L 153.7 159.9 L 154.0 159.6 L 154.4 159.3 L 154.8 159.0 L 155.1 158.7 L 155.5 158.4 L 155.8 158.1 L 156.2 157.8 L 156.6 157.5 L 156.9 157.2 L 157.3 156.9 L 157.6 156.6 L 158.0 156.3 L 158.4 156.0 L 158.7 155.7 L 159.1 155.4 L 159.4 155.1 L 159.8 154.8 L 160.2 154.4 L 160.5 154.1 L 160.9 153.8 L 161.2 153.5 L 161.6 153.2 L 162.0 152.9 L 162.3 152.6 L 162.7 152.3 L 163.0 151.9 L 163.4 151.6 L 163.8 151.3 L 164.1 151.0 L 164.5 150.7 L 164.8 150.4 L 165.2 150.1 L 165.6 149.7 L 165.9 149.4 L 166.3 149.1 L 166.6 148.8 L 167.0 148.5 L 167.4 148.1 L 167.7 147.8 L 168.1 147.5 L 168.4 147.2 L 168.8 146.8 L 169.2 146.5 L 169.5 146.2 L 169.9 145.9 L 170.2 145.5 L 170.6 145.2 L 171.0 144.9 L 171.3 144.6 L 171.7 144.2 L 172.0 143.9 L 172.4 143.6 L 172.8 143.3 L 173.1 142.9 L 173.5 142.6 L 173.8 142.3 L 174.2 142.0 L 174.6 141.6 L 174.9 141.3 L 175.3 141.0 L 175.6 140.6 L 176.0 140.3 L 176.4 140.0 L 176.7 139.6 L 177.1 139.3 L 177.4 139.0 L 177.8 138.6 L 178.2 138.3 L 178.5 138.0 L 178.9 137.6 L 179.2 137.3 L 179.6 137.0 L 180.0 136.6 L 180.3 136.3 L 180.7 136.0 L 181.0 135.6 L 181.4 135.3 L 181.8 135.0 L 182.1 134.6 L 182.5 134.3 L 182.8 134.0 L 183.2 133.6 L 183.6 133.3 L 183.9 133.0 L 184.3 132.6 L 184.6 132.3 L 185.0 132.0 L 185.4 131.6 L 185.7 131.3 L 186.1 131.0 L 186.4 130.6 L 186.8 130.3 L 187.2 130.0 L 187.5 129.6 L 187.9 129.3 L 188.2 128.9 L 188.6 128.6 L 189.0 128.3 L 189.3 127.9 L 189.7 127.6 L 190.0 127.3 L 190.4 126.9 L 190.8 126.6 L 191.1 126.3 L 191.5 125.9 L 191.8 125.6 L 192.2 125.3 L 192.6 124.9 L 192.9 124.6 L 193.3 124.3 L 193.6 123.9 L 194.0 123.6 L 194.4 123.3 L 194.7 122.9 L 195.1 122.6 L 195.4 122.3 L 195.8 121.9 L 196.2 121.6 L 196.5 121.3 L 196.9 120.9 L 197.2 120.6 L 197.6 120.3 L 198.0 119.9 L 198.3 119.6 L 198.7 119.3 L 199.0 119.0 L 199.4 118.6 L 199.8 118.3 L 200.1 118.0 L 200.5 117.6 L 200.8 117.3 L 201.2 117.0 L 201.6 116.7 L 201.9 116.3 L 202.3 116.0 L 202.6 115.7 L 203.0 115.3 L 203.4 115.0 L 203.7 114.7 L 204.1 114.4 L 204.4 114.1 L 204.8 113.7 L 205.2 113.4 L 205.5 113.1 L 205.9 112.8 L 206.2 112.4 L 206.6 112.1 L 207.0 111.8 L 207.3 111.5 L 207.7 111.2 L 208.0 110.8 L 208.4 110.5 L 208.8 110.2 L 209.1 109.9 L 209.5 109.6 L 209.8 109.3 L 210.2 108.9 L 210.6 108.6 L 210.9 108.3 L 211.3 108.0 L 211.6 107.7 L 212.0 107.4 L 212.4 107.1 L 212.7 106.7 L 213.1 106.4 L 213.4 106.1 L 213.8 105.8 L 214.2 105.5 L 214.5 105.2 L 214.9 104.9 L 215.2 104.6 L 215.6 104.3 L 216.0 104.0 L 216.3 103.7 L 216.7 103.4 L 217.0 103.1 L 217.4 102.8 L 217.8 102.5 L 218.1 102.2 L 218.5 101.9 L 218.8 101.6 L 219.2 101.3 L 219.6 101.0 L 219.9 100.7 L 220.3 100.4 L 220.6 100.1 L 221.0 99.8 L 221.4 99.5 L 221.7 99.2 L 222.1 98.9 L 222.4 98.6 L 222.8 98.3 L 223.2 98.0 L 223.5 97.8 L 223.9 97.5 L 224.2 97.2 L 224.6 96.9 L 225.0 96.6 L 225.3 96.3 L 225.7 96.0 L 226.0 95.8 L 226.4 95.5 L 226.8 95.2 L 227.1 94.9 L 227.5 94.7 L 227.8 94.4 L 228.2 94.1 L 228.6 93.8 L 228.9 93.6 L 229.3 93.3 L 229.6 93.0 L 230.0 92.7 L 230.4 92.5 L 230.7 92.2 L 231.1 91.9 L 231.4 91.7 L 231.8 91.4 L 232.2 91.1 L 232.5 90.9 L 232.9 90.6 L 233.2 90.4 L 233.6 90.1 L 234.0 89.8 L 234.3 89.6 L 234.7 89.3 L 235.0 89.1 L 235.4 88.8 L 235.8 88.6 L 236.1 88.3 L 236.5 88.1 L 236.8 87.8 L 237.2 87.6 L 237.6 87.3 L 237.9 87.1 L 238.3 86.8 L 238.6 86.6 L 239.0 86.3 L 239.4 86.1 L 239.7 85.9 L 240.1 85.6 L 240.4 85.4 L 240.8 85.1 L 241.2 84.9 L 241.5 84.7 L 241.9 84.4 L 242.2 84.2 L 242.6 84.0 L 243.0 83.7 L 243.3 83.5 L 243.7 83.3 L 244.0 83.1 L 244.4 82.8 L 244.8 82.6 L 245.1 82.4 L 245.5 82.2 L 245.8 82.0 L 246.2 81.7 L 246.6 81.5 L 246.9 81.3 L 247.3 81.1 L 247.6 80.9 L 248.0 80.7 L 248.4 80.5 L 248.7 80.2 L 249.1 80.0 L 249.4 79.8 L 249.8 79.6 L 250.2 79.4 L 250.5 79.2 L 250.9 79.0 L 251.2 78.8 L 251.6 78.6 L 252.0 78.4 L 252.3 78.2 L 252.7 78.0 L 253.0 77.8 L 253.4 77.6 L 253.8 77.5 L 254.1 77.3 L 254.5 77.1 L 254.8 76.9 L 255.2 76.7 L 255.6 76.5 L 255.9 76.3 L 256.3 76.2 L 256.6 76.0 L 257.0 75.8 L 257.4 75.6 L 257.7 75.4 L 258.1 75.3 L 258.4 75.1 L 258.8 74.9 L 259.2 74.8 L 259.5 74.6 L 259.9 74.4 L 260.2 74.3 L 260.6 74.1 L 261.0 73.9 L 261.3 73.8 L 261.7 73.6 L 262.0 73.4 L 262.4 73.3 L 262.8 73.1 L 263.1 73.0 L 263.5 72.8 L 263.8 72.7 L 264.2 72.5 L 264.6 72.4 L 264.9 72.2 L 265.3 72.1 L 265.6 71.9 L 266.0 71.8 L 266.4 71.6 L 266.7 71.5 L 267.1 71.4 L 267.4 71.2 L 267.8 71.1 L 268.2 70.9 L 268.5 70.8 L 268.9 70.7 L 269.2 70.5 L 269.6 70.4 L 270.0 70.3 L 270.3 70.2 L 270.7 70.0 L 271.0 69.9 L 271.4 69.8 L 271.8 69.7 L 272.1 69.5 L 272.5 69.4 L 272.8 69.3 L 273.2 69.2 L 273.6 69.1 L 273.9 69.0 L 274.3 68.8 L 274.6 68.7 L 275.0 68.6 L 275.4 68.5 L 275.7 68.4 L 276.1 68.3 L 276.4 68.2 L 276.8 68.1 L 277.2 68.0 L 277.5 67.9 L 277.9 67.8 L 278.2 67.7 L 278.6 67.6 L 279.0 67.5 L 279.3 67.4 L 279.7 67.3 L 280.0 67.2 L 280.4 67.1 L 280.8 67.0 L 281.1 66.9 L 281.5 66.9 L 281.8 66.8 L 282.2 66.7 L 282.6 66.6 L 282.9 66.5 L 283.3 66.4 L 283.6 66.4 L 284.0 66.3 L 284.4 66.2 L 284.7 66.1 L 285.1 66.1 L 285.4 66.0 L 285.8 65.9 L 286.2 65.8 L 286.5 65.8 L 286.9 65.7 L 287.2 65.6 L 287.6 65.6 L 288.0 65.5 L 288.3 65.4 L 288.7 65.4 L 289.0 65.3 L 289.4 65.3 L 289.8 65.2 L 290.1 65.1 L 290.5 65.1 L 290.8 65.0 L 291.2 65.0 L 291.6 64.9 L 291.9 64.9 L 292.3 64.8 L 292.6 64.8 L 293.0 64.7 L 293.4 64.7 L 293.7 64.6 L 294.1 64.6 L 294.4 64.5 L 294.8 64.5 L 295.2 64.5 L 295.5 64.4 L 295.9 64.4 L 296.2 64.3 L 296.6 64.3 L 297.0 64.3 L 297.3 64.2 L 297.7 64.2 L 298.0 64.2 L 298.4 64.1 L 298.8 64.1 L 299.1 64.1 L 299.5 64.0 L 299.8 64.0 L 300.2 64.0 L 300.6 63.9 L 300.9 63.9 L 301.3 63.9 L 301.6 63.9 L 302.0 63.8 L 302.4 63.8 L 302.7 63.8 L 303.1 63.8 L 303.4 63.7 L 303.8 63.7 L 304.2 63.7 L 304.5 63.7 L 304.9 63.7 L 305.2 63.6 L 305.6 63.6 L 306.0 63.6 L 306.3 63.6 L 306.7 63.6 L 307.0 63.6 L 307.4 63.5 L 307.8 63.5 L 308.1 63.5 L 308.5 63.5 L 308.8 63.5 L 309.2 63.5 L 309.6 63.5 L 309.9 63.5 L 310.3 63.5 L 310.6 63.4 L 311.0 63.4 L 311.4 63.4 L 311.7 63.4 L 312.1 63.4 L 312.4 63.4 L 312.8 63.4 L 313.2 63.4 L 313.5 63.4 L 313.9 63.4 L 314.2 63.4 L 314.6 63.4 L 315.0 63.4 L 315.3 63.4 L 315.7 63.4 L 316.0 63.4 L 316.4 63.4 L 316.8 63.4 L 317.1 63.4 L 317.5 63.4 L 317.8 63.4 L 318.2 63.3 L 318.6 63.3 L 318.9 63.3 L 319.3 63.3 L 319.6 63.3 L 320.0 63.3" fill="none" stroke="#10b981" stroke-width="2.4"/>
<text x="316" y="60" text-anchor="end" font-family="system-ui,-apple-system,Segoe UI,Roboto,sans-serif" font-size="9" font-weight="400" fill="#0d9488">reference</text>
<text x="316" y="73" text-anchor="end" font-family="system-ui,-apple-system,Segoe UI,Roboto,sans-serif" font-size="9" font-weight="400" fill="#e11d48">feedback only (lags)</text>
<text x="316" y="86" text-anchor="end" font-family="system-ui,-apple-system,Segoe UI,Roboto,sans-serif" font-size="9" font-weight="400" fill="#10b981">ff + feedback (tracks)</text>
<text x="395.0" y="60" text-anchor="middle" font-family="system-ui,-apple-system,Segoe UI,Roboto,sans-serif" font-size="9.5" font-weight="650" fill="#0f172a">tracking RMS</text>
<rect x="350" y="84.6" width="30" height="95.4" fill="#e11d48"/>
<text x="365" y="192" text-anchor="middle" font-family="system-ui,-apple-system,Segoe UI,Roboto,sans-serif" font-size="8.5" font-weight="400" fill="#e11d48">fb only</text>
<text x="365" y="80.6" text-anchor="middle" font-family="system-ui,-apple-system,Segoe UI,Roboto,sans-serif" font-size="8" font-weight="400" fill="#e11d48">0.075</text>
<rect x="398" y="158.87848487820733" width="30" height="21.1" fill="#10b981"/>
<text x="413" y="192" text-anchor="middle" font-family="system-ui,-apple-system,Segoe UI,Roboto,sans-serif" font-size="8.5" font-weight="400" fill="#10b981">ff+fb</text>
<text x="413" y="154.87848487820733" text-anchor="middle" font-family="system-ui,-apple-system,Segoe UI,Roboto,sans-serif" font-size="8" font-weight="400" fill="#10b981">0.017</text>
<text x="395.0" y="206" text-anchor="middle" font-family="system-ui,-apple-system,Segoe UI,Roboto,sans-serif" font-size="9" font-weight="650" fill="#10b981">~4.5x tighter</text>
</svg>
