<svg viewBox="0 0 680 360" xmlns="http://www.w3.org/2000/svg" role="img" aria-label="Actuator transfer characteristic: requested command on the horizontal axis and delivered effort on the vertical axis, flat at zero across the central deadband, rising linearly, then flat at plus or minus the saturation ceiling; one requested value maps to three different delivered values for ideal, deadband and saturated actuators; an inset shows a rate-limited step ramping rather than jumping">
<title>Actuator transfer characteristic: requested command on the horizontal axis and delivered effort on the vertical axis, flat at zero across the central deadband, rising linearly, then flat at plus or minus the saturation ceiling; one requested value maps to three different delivered values for ideal, deadband and saturated actuators; an inset shows a rate-limited step ramping rather than jumping</title>
<rect width="680" height="360" fill="white"/>
<defs><marker id="ah" markerWidth="9" markerHeight="9" refX="6" refY="3" orient="auto"><path d="M0,0 L6,3 L0,6 z" fill="#64748b"/></marker><marker id="ahs" markerWidth="9" markerHeight="9" refX="6" refY="3" orient="auto"><path d="M0,0 L6,3 L0,6 z" fill="#0ea5e9"/></marker><marker id="ahe" markerWidth="9" markerHeight="9" refX="6" refY="3" orient="auto"><path d="M0,0 L6,3 L0,6 z" fill="#10b981"/></marker></defs>
<text x="230" y="24" text-anchor="middle" font-family="system-ui,-apple-system,Segoe UI,Roboto,sans-serif" font-size="15" font-weight="650" fill="#0f172a">The actuator: requested command → delivered effort</text>
<line x1="70" y1="185.0" x2="370" y2="185.0" stroke="#64748b" stroke-width="1.4"/>
<line x1="220.0" y1="300" x2="220.0" y2="70" stroke="#64748b" stroke-width="1.4"/>
<text x="370" y="203.0" text-anchor="end" font-family="system-ui,-apple-system,Segoe UI,Roboto,sans-serif" font-size="11" font-weight="400" fill="#64748b">requested command</text>
<text x="70" y="52" text-anchor="start" font-family="system-ui,-apple-system,Segoe UI,Roboto,sans-serif" font-size="11" font-weight="600" fill="#64748b">delivered effort</text>
<rect x="195.0" y="70.0" width="50.0" height="230" fill="#f1f5f9"/>
<line x1="70" y1="98.75" x2="370" y2="98.75" stroke="#d97706" stroke-width="1.2" stroke-dasharray="5 4"/>
<line x1="70" y1="271.25" x2="370" y2="271.25" stroke="#d97706" stroke-width="1.2" stroke-dasharray="5 4"/>
<text x="370" y="92.75" text-anchor="end" font-family="system-ui,-apple-system,Segoe UI,Roboto,sans-serif" font-size="10" font-weight="600" fill="#d97706">+u_max ceiling</text>
<polyline points="70.0,300.0 370.0,70.0" fill="none" stroke="#0d9488" stroke-width="1.6" stroke-dasharray="4 4"/>
<polyline points="70.0,271.2 76.2,271.2 82.5,271.2 88.8,271.2 95.0,271.2 101.2,271.2 107.5,271.2 113.8,271.2 120.0,271.2 126.2,264.1 132.5,256.9 138.8,249.7 145.0,242.5 151.2,235.3 157.5,228.1 163.8,220.9 170.0,213.8 176.2,206.6 182.5,199.4 188.8,192.2 195.0,185.0 201.2,185.0 207.5,185.0 213.8,185.0 220.0,185.0 226.2,185.0 232.5,185.0 238.8,185.0 245.0,185.0 251.2,177.8 257.5,170.6 263.8,163.4 270.0,156.2 276.2,149.1 282.5,141.9 288.8,134.7 295.0,127.5 301.2,120.3 307.5,113.1 313.8,105.9 320.0,98.8 326.2,98.8 332.5,98.8 338.8,98.8 345.0,98.8 351.2,98.8 357.5,98.8 363.8,98.8 370.0,98.8" fill="none" stroke="#0f172a" stroke-width="2.8"/>
<line x1="307.5" y1="185.0" x2="307.5" y2="113.125" stroke="#64748b" stroke-width="1.2" stroke-dasharray="3 3"/>
<circle cx="307.5" cy="84.375" r="4" fill="#0d9488" stroke="#0d9488" stroke-width="1.8"/>
<circle cx="307.5" cy="113.125" r="4" fill="#0f172a" stroke="#0f172a" stroke-width="1.8"/>
<text x="315.5" y="80.375" text-anchor="start" font-family="system-ui,-apple-system,Segoe UI,Roboto,sans-serif" font-size="9.5" font-weight="600" fill="#0d9488">ideal</text>
<text x="315.5" y="127.125" text-anchor="start" font-family="system-ui,-apple-system,Segoe UI,Roboto,sans-serif" font-size="9.5" font-weight="600" fill="#0f172a">delivered</text>
<text x="307.5" y="316" text-anchor="middle" font-family="system-ui,-apple-system,Segoe UI,Roboto,sans-serif" font-size="10" font-weight="400" fill="#64748b">a request</text>
<text x="220.0" y="292" text-anchor="middle" font-family="system-ui,-apple-system,Segoe UI,Roboto,sans-serif" font-size="9.5" font-weight="600" fill="#64748b">deadband</text>
<rect x="440" y="90" width="200" height="150" rx="8" fill="#f8fafc" stroke="#64748b" stroke-width="1.2"/>
<text x="540.0" y="84" text-anchor="middle" font-family="system-ui,-apple-system,Segoe UI,Roboto,sans-serif" font-size="10" font-weight="600" fill="#64748b">rate limit: effort ramps, doesn't jump</text>
<polyline points="455.0,220.0 500.0,220.0 500.0,115.0 625.0,115.0" fill="none" stroke="#8b5cf6" stroke-width="1.6" stroke-dasharray="4 3"/>
<polyline points="455.0,220.0 500.0,220.0 615.0,120.0" fill="none" stroke="#0f172a" stroke-width="2.4"/>
<text x="622" y="120" text-anchor="end" font-family="system-ui,-apple-system,Segoe UI,Roboto,sans-serif" font-size="9" font-weight="600" fill="#0f172a">delivered</text>
<text x="498" y="232" text-anchor="middle" font-family="system-ui,-apple-system,Segoe UI,Roboto,sans-serif" font-size="9" font-weight="600" fill="#8b5cf6">requested</text>
</svg>
