<svg viewBox="0 0 460 250" xmlns="http://www.w3.org/2000/svg" role="img" aria-label="Top panel shows desired and actual joint angle converging; bottom panel shows the error signal starting large, crossing zero at overshoot, and settling, with transient and steady-state regions labeled">
<title>Top panel shows desired and actual joint angle converging; bottom panel shows the error signal starting large, crossing zero at overshoot, and settling, with transient and steady-state regions labeled</title>
<rect width="460" height="250" fill="white"/>
<text x="230" y="22" text-anchor="middle" font-family="system-ui,-apple-system,Segoe UI,Roboto,sans-serif" font-size="13.5" font-weight="650" fill="#0f172a">Tracking error e(t) = q_d − q: transient then steady state</text>
<rect x="60" y="46" width="340" height="70" fill="#f8fafc" stroke="#e2e8f0"/>
<path d="M 60.0 60.0 L 60.7 60.0 L 61.4 60.0 L 62.0 60.0 L 62.7 60.0 L 63.4 60.0 L 64.1 60.0 L 64.8 60.0 L 65.4 60.0 L 66.1 60.0 L 66.8 60.0 L 67.5 60.0 L 68.2 60.0 L 68.8 60.0 L 69.5 60.0 L 70.2 60.0 L 70.9 60.0 L 71.6 60.0 L 72.2 60.0 L 72.9 60.0 L 73.6 60.0 L 74.3 60.0 L 75.0 60.0 L 75.6 60.0 L 76.3 60.0 L 77.0 60.0 L 77.7 60.0 L 78.4 60.0 L 79.0 60.0 L 79.7 60.0 L 80.4 60.0 L 81.1 60.0 L 81.8 60.0 L 82.4 60.0 L 83.1 60.0 L 83.8 60.0 L 84.5 60.0 L 85.2 60.0 L 85.8 60.0 L 86.5 60.0 L 87.2 60.0 L 87.9 60.0 L 88.6 60.0 L 89.2 60.0 L 89.9 60.0 L 90.6 60.0 L 91.3 60.0 L 92.0 60.0 L 92.6 60.0 L 93.3 60.0 L 94.0 60.0 L 94.7 60.0 L 95.4 60.0 L 96.0 60.0 L 96.7 60.0 L 97.4 60.0 L 98.1 60.0 L 98.8 60.0 L 99.4 60.0 L 100.1 60.0 L 100.8 60.0 L 101.5 60.0 L 102.2 60.0 L 102.8 60.0 L 103.5 60.0 L 104.2 60.0 L 104.9 60.0 L 105.6 60.0 L 106.2 60.0 L 106.9 60.0 L 107.6 60.0 L 108.3 60.0 L 109.0 60.0 L 109.6 60.0 L 110.3 60.0 L 111.0 60.0 L 111.7 60.0 L 112.4 60.0 L 113.0 60.0 L 113.7 60.0 L 114.4 60.0 L 115.1 60.0 L 115.8 60.0 L 116.4 60.0 L 117.1 60.0 L 117.8 60.0 L 118.5 60.0 L 119.2 60.0 L 119.8 60.0 L 120.5 60.0 L 121.2 60.0 L 121.9 60.0 L 122.6 60.0 L 123.2 60.0 L 123.9 60.0 L 124.6 60.0 L 125.3 60.0 L 126.0 60.0 L 126.6 60.0 L 127.3 60.0 L 128.0 60.0 L 128.7 60.0 L 129.4 60.0 L 130.0 60.0 L 130.7 60.0 L 131.4 60.0 L 132.1 60.0 L 132.8 60.0 L 133.4 60.0 L 134.1 60.0 L 134.8 60.0 L 135.5 60.0 L 136.2 60.0 L 136.8 60.0 L 137.5 60.0 L 138.2 60.0 L 138.9 60.0 L 139.6 60.0 L 140.2 60.0 L 140.9 60.0 L 141.6 60.0 L 142.3 60.0 L 143.0 60.0 L 143.6 60.0 L 144.3 60.0 L 145.0 60.0 L 145.7 60.0 L 146.4 60.0 L 147.0 60.0 L 147.7 60.0 L 148.4 60.0 L 149.1 60.0 L 149.8 60.0 L 150.4 60.0 L 151.1 60.0 L 151.8 60.0 L 152.5 60.0 L 153.2 60.0 L 153.8 60.0 L 154.5 60.0 L 155.2 60.0 L 155.9 60.0 L 156.6 60.0 L 157.2 60.0 L 157.9 60.0 L 158.6 60.0 L 159.3 60.0 L 160.0 60.0 L 160.6 60.0 L 161.3 60.0 L 162.0 60.0 L 162.7 60.0 L 163.4 60.0 L 164.0 60.0 L 164.7 60.0 L 165.4 60.0 L 166.1 60.0 L 166.8 60.0 L 167.4 60.0 L 168.1 60.0 L 168.8 60.0 L 169.5 60.0 L 170.2 60.0 L 170.8 60.0 L 171.5 60.0 L 172.2 60.0 L 172.9 60.0 L 173.6 60.0 L 174.2 60.0 L 174.9 60.0 L 175.6 60.0 L 176.3 60.0 L 177.0 60.0 L 177.6 60.0 L 178.3 60.0 L 179.0 60.0 L 179.7 60.0 L 180.4 60.0 L 181.0 60.0 L 181.7 60.0 L 182.4 60.0 L 183.1 60.0 L 183.8 60.0 L 184.4 60.0 L 185.1 60.0 L 185.8 60.0 L 186.5 60.0 L 187.2 60.0 L 187.8 60.0 L 188.5 60.0 L 189.2 60.0 L 189.9 60.0 L 190.6 60.0 L 191.2 60.0 L 191.9 60.0 L 192.6 60.0 L 193.3 60.0 L 194.0 60.0 L 194.6 60.0 L 195.3 60.0 L 196.0 60.0 L 196.7 60.0 L 197.4 60.0 L 198.0 60.0 L 198.7 60.0 L 199.4 60.0 L 200.1 60.0 L 200.8 60.0 L 201.4 60.0 L 202.1 60.0 L 202.8 60.0 L 203.5 60.0 L 204.2 60.0 L 204.8 60.0 L 205.5 60.0 L 206.2 60.0 L 206.9 60.0 L 207.6 60.0 L 208.2 60.0 L 208.9 60.0 L 209.6 60.0 L 210.3 60.0 L 211.0 60.0 L 211.6 60.0 L 212.3 60.0 L 213.0 60.0 L 213.7 60.0 L 214.4 60.0 L 215.0 60.0 L 215.7 60.0 L 216.4 60.0 L 217.1 60.0 L 217.8 60.0 L 218.4 60.0 L 219.1 60.0 L 219.8 60.0 L 220.5 60.0 L 221.2 60.0 L 221.8 60.0 L 222.5 60.0 L 223.2 60.0 L 223.9 60.0 L 224.6 60.0 L 225.2 60.0 L 225.9 60.0 L 226.6 60.0 L 227.3 60.0 L 228.0 60.0 L 228.6 60.0 L 229.3 60.0 L 230.0 60.0 L 230.7 60.0 L 231.4 60.0 L 232.0 60.0 L 232.7 60.0 L 233.4 60.0 L 234.1 60.0 L 234.8 60.0 L 235.4 60.0 L 236.1 60.0 L 236.8 60.0 L 237.5 60.0 L 238.2 60.0 L 238.8 60.0 L 239.5 60.0 L 240.2 60.0 L 240.9 60.0 L 241.6 60.0 L 242.2 60.0 L 242.9 60.0 L 243.6 60.0 L 244.3 60.0 L 245.0 60.0 L 245.6 60.0 L 246.3 60.0 L 247.0 60.0 L 247.7 60.0 L 248.4 60.0 L 249.0 60.0 L 249.7 60.0 L 250.4 60.0 L 251.1 60.0 L 251.8 60.0 L 252.4 60.0 L 253.1 60.0 L 253.8 60.0 L 254.5 60.0 L 255.2 60.0 L 255.8 60.0 L 256.5 60.0 L 257.2 60.0 L 257.9 60.0 L 258.6 60.0 L 259.2 60.0 L 259.9 60.0 L 260.6 60.0 L 261.3 60.0 L 262.0 60.0 L 262.6 60.0 L 263.3 60.0 L 264.0 60.0 L 264.7 60.0 L 265.4 60.0 L 266.0 60.0 L 266.7 60.0 L 267.4 60.0 L 268.1 60.0 L 268.8 60.0 L 269.4 60.0 L 270.1 60.0 L 270.8 60.0 L 271.5 60.0 L 272.2 60.0 L 272.8 60.0 L 273.5 60.0 L 274.2 60.0 L 274.9 60.0 L 275.6 60.0 L 276.2 60.0 L 276.9 60.0 L 277.6 60.0 L 278.3 60.0 L 279.0 60.0 L 279.6 60.0 L 280.3 60.0 L 281.0 60.0 L 281.7 60.0 L 282.4 60.0 L 283.0 60.0 L 283.7 60.0 L 284.4 60.0 L 285.1 60.0 L 285.8 60.0 L 286.4 60.0 L 287.1 60.0 L 287.8 60.0 L 288.5 60.0 L 289.2 60.0 L 289.8 60.0 L 290.5 60.0 L 291.2 60.0 L 291.9 60.0 L 292.6 60.0 L 293.2 60.0 L 293.9 60.0 L 294.6 60.0 L 295.3 60.0 L 296.0 60.0 L 296.6 60.0 L 297.3 60.0 L 298.0 60.0 L 298.7 60.0 L 299.4 60.0 L 300.0 60.0 L 300.7 60.0 L 301.4 60.0 L 302.1 60.0 L 302.8 60.0 L 303.4 60.0 L 304.1 60.0 L 304.8 60.0 L 305.5 60.0 L 306.2 60.0 L 306.8 60.0 L 307.5 60.0 L 308.2 60.0 L 308.9 60.0 L 309.6 60.0 L 310.2 60.0 L 310.9 60.0 L 311.6 60.0 L 312.3 60.0 L 313.0 60.0 L 313.6 60.0 L 314.3 60.0 L 315.0 60.0 L 315.7 60.0 L 316.4 60.0 L 317.0 60.0 L 317.7 60.0 L 318.4 60.0 L 319.1 60.0 L 319.8 60.0 L 320.4 60.0 L 321.1 60.0 L 321.8 60.0 L 322.5 60.0 L 323.2 60.0 L 323.8 60.0 L 324.5 60.0 L 325.2 60.0 L 325.9 60.0 L 326.6 60.0 L 327.2 60.0 L 327.9 60.0 L 328.6 60.0 L 329.3 60.0 L 330.0 60.0 L 330.6 60.0 L 331.3 60.0 L 332.0 60.0 L 332.7 60.0 L 333.4 60.0 L 334.0 60.0 L 334.7 60.0 L 335.4 60.0 L 336.1 60.0 L 336.8 60.0 L 337.4 60.0 L 338.1 60.0 L 338.8 60.0 L 339.5 60.0 L 340.2 60.0 L 340.8 60.0 L 341.5 60.0 L 342.2 60.0 L 342.9 60.0 L 343.6 60.0 L 344.2 60.0 L 344.9 60.0 L 345.6 60.0 L 346.3 60.0 L 347.0 60.0 L 347.6 60.0 L 348.3 60.0 L 349.0 60.0 L 349.7 60.0 L 350.4 60.0 L 351.0 60.0 L 351.7 60.0 L 352.4 60.0 L 353.1 60.0 L 353.8 60.0 L 354.4 60.0 L 355.1 60.0 L 355.8 60.0 L 356.5 60.0 L 357.2 60.0 L 357.8 60.0 L 358.5 60.0 L 359.2 60.0 L 359.9 60.0 L 360.6 60.0 L 361.2 60.0 L 361.9 60.0 L 362.6 60.0 L 363.3 60.0 L 364.0 60.0 L 364.6 60.0 L 365.3 60.0 L 366.0 60.0 L 366.7 60.0 L 367.4 60.0 L 368.0 60.0 L 368.7 60.0 L 369.4 60.0 L 370.1 60.0 L 370.8 60.0 L 371.4 60.0 L 372.1 60.0 L 372.8 60.0 L 373.5 60.0 L 374.2 60.0 L 374.8 60.0 L 375.5 60.0 L 376.2 60.0 L 376.9 60.0 L 377.6 60.0 L 378.2 60.0 L 378.9 60.0 L 379.6 60.0 L 380.3 60.0 L 381.0 60.0 L 381.6 60.0 L 382.3 60.0 L 383.0 60.0 L 383.7 60.0 L 384.4 60.0 L 385.0 60.0 L 385.7 60.0 L 386.4 60.0 L 387.1 60.0 L 387.8 60.0 L 388.4 60.0 L 389.1 60.0 L 389.8 60.0 L 390.5 60.0 L 391.2 60.0 L 391.8 60.0 L 392.5 60.0 L 393.2 60.0 L 393.9 60.0 L 394.6 60.0 L 395.2 60.0 L 395.9 60.0 L 396.6 60.0 L 397.3 60.0 L 398.0 60.0 L 398.6 60.0 L 399.3 60.0 L 400.0 60.0 L 400.7 60.0 L 401.4 60.0 L 402.0 60.0 L 402.7 60.0 L 403.4 60.0 L 404.1 60.0 L 404.8 60.0 L 405.4 60.0 L 406.1 60.0 L 406.8 60.0 L 407.5 60.0 L 408.2 60.0 L 408.8 60.0 L 409.5 60.0 L 410.2 60.0 L 410.9 60.0 L 411.6 60.0 L 412.2 60.0 L 412.9 60.0 L 413.6 60.0 L 414.3 60.0 L 415.0 60.0 L 415.6 60.0 L 416.3 60.0 L 417.0 60.0 L 417.7 60.0 L 418.4 60.0 L 419.0 60.0 L 419.7 60.0 L 420.4 60.0 L 421.1 60.0 L 421.8 60.0 L 422.4 60.0 L 423.1 60.0 L 423.8 60.0 L 424.5 60.0 L 425.2 60.0 L 425.8 60.0 L 426.5 60.0 L 427.2 60.0 L 427.9 60.0 L 428.6 60.0 L 429.2 60.0 L 429.9 60.0 L 430.6 60.0 L 431.3 60.0 L 432.0 60.0 L 432.6 60.0 L 433.3 60.0 L 434.0 60.0 L 434.7 60.0 L 435.4 60.0 L 436.0 60.0 L 436.7 60.0 L 437.4 60.0 L 438.1 60.0 L 438.8 60.0 L 439.4 60.0 L 440.1 60.0 L 440.8 60.0 L 441.5 60.0 L 442.2 60.0 L 442.8 60.0 L 443.5 60.0 L 444.2 60.0 L 444.9 60.0 L 445.6 60.0 L 446.2 60.0 L 446.9 60.0 L 447.6 60.0 L 448.3 60.0 L 449.0 60.0 L 449.6 60.0 L 450.3 60.0 L 451.0 60.0 L 451.7 60.0 L 452.4 60.0 L 453.0 60.0 L 453.7 60.0 L 454.4 60.0 L 455.1 60.0 L 455.8 60.0 L 456.4 60.0 L 457.1 60.0 L 457.8 60.0 L 458.5 60.0 L 459.2 60.0 L 459.8 60.0 L 460.5 60.0 L 461.2 60.0 L 461.9 60.0 L 462.6 60.0 L 463.2 60.0 L 463.9 60.0 L 464.6 60.0 L 465.3 60.0 L 466.0 60.0 L 466.6 60.0 L 467.3 60.0 L 468.0 60.0 L 468.7 60.0 L 469.4 60.0 L 470.0 60.0 L 470.7 60.0 L 471.4 60.0 L 472.1 60.0 L 472.8 60.0 L 473.4 60.0 L 474.1 60.0 L 474.8 60.0 L 475.5 60.0 L 476.2 60.0 L 476.8 60.0 L 477.5 60.0 L 478.2 60.0 L 478.9 60.0 L 479.6 60.0 L 480.2 60.0 L 480.9 60.0 L 481.6 60.0 L 482.3 60.0 L 483.0 60.0 L 483.6 60.0 L 484.3 60.0 L 485.0 60.0 L 485.7 60.0 L 486.4 60.0 L 487.0 60.0 L 487.7 60.0 L 488.4 60.0 L 489.1 60.0 L 489.8 60.0 L 490.4 60.0 L 491.1 60.0 L 491.8 60.0 L 492.5 60.0 L 493.2 60.0 L 493.8 60.0 L 494.5 60.0 L 495.2 60.0 L 495.9 60.0 L 496.6 60.0 L 497.2 60.0 L 497.9 60.0 L 498.6 60.0 L 499.3 60.0 L 500.0 60.0 L 500.6 60.0 L 501.3 60.0 L 502.0 60.0 L 502.7 60.0 L 503.4 60.0 L 504.0 60.0 L 504.7 60.0 L 505.4 60.0 L 506.1 60.0 L 506.8 60.0 L 507.4 60.0 L 508.1 60.0 L 508.8 60.0 L 509.5 60.0 L 510.2 60.0 L 510.8 60.0 L 511.5 60.0 L 512.2 60.0 L 512.9 60.0 L 513.6 60.0 L 514.2 60.0 L 514.9 60.0 L 515.6 60.0 L 516.3 60.0 L 517.0 60.0 L 517.6 60.0 L 518.3 60.0 L 519.0 60.0 L 519.7 60.0 L 520.4 60.0 L 521.0 60.0 L 521.7 60.0 L 522.4 60.0 L 523.1 60.0 L 523.8 60.0 L 524.4 60.0 L 525.1 60.0 L 525.8 60.0 L 526.5 60.0 L 527.2 60.0 L 527.8 60.0 L 528.5 60.0 L 529.2 60.0 L 529.9 60.0 L 530.6 60.0 L 531.2 60.0 L 531.9 60.0 L 532.6 60.0 L 533.3 60.0 L 534.0 60.0 L 534.6 60.0 L 535.3 60.0 L 536.0 60.0 L 536.7 60.0 L 537.4 60.0 L 538.0 60.0 L 538.7 60.0 L 539.4 60.0 L 540.1 60.0 L 540.8 60.0 L 541.4 60.0 L 542.1 60.0 L 542.8 60.0 L 543.5 60.0 L 544.2 60.0 L 544.8 60.0 L 545.5 60.0 L 546.2 60.0 L 546.9 60.0 L 547.6 60.0 L 548.2 60.0 L 548.9 60.0 L 549.6 60.0 L 550.3 60.0 L 551.0 60.0 L 551.6 60.0 L 552.3 60.0 L 553.0 60.0 L 553.7 60.0 L 554.4 60.0 L 555.0 60.0 L 555.7 60.0 L 556.4 60.0 L 557.1 60.0 L 557.8 60.0 L 558.4 60.0 L 559.1 60.0 L 559.8 60.0 L 560.5 60.0 L 561.2 60.0 L 561.8 60.0 L 562.5 60.0 L 563.2 60.0 L 563.9 60.0 L 564.6 60.0 L 565.2 60.0 L 565.9 60.0 L 566.6 60.0 L 567.3 60.0 L 568.0 60.0 L 568.6 60.0 L 569.3 60.0 L 570.0 60.0 L 570.7 60.0 L 571.4 60.0 L 572.0 60.0 L 572.7 60.0 L 573.4 60.0 L 574.1 60.0 L 574.8 60.0 L 575.4 60.0 L 576.1 60.0 L 576.8 60.0 L 577.5 60.0 L 578.2 60.0 L 578.8 60.0 L 579.5 60.0 L 580.2 60.0 L 580.9 60.0 L 581.6 60.0 L 582.2 60.0 L 582.9 60.0 L 583.6 60.0 L 584.3 60.0 L 585.0 60.0 L 585.6 60.0 L 586.3 60.0 L 587.0 60.0 L 587.7 60.0 L 588.4 60.0 L 589.0 60.0 L 589.7 60.0 L 590.4 60.0 L 591.1 60.0 L 591.8 60.0 L 592.4 60.0 L 593.1 60.0 L 593.8 60.0 L 594.5 60.0 L 595.2 60.0 L 595.8 60.0 L 596.5 60.0 L 597.2 60.0 L 597.9 60.0 L 598.6 60.0 L 599.2 60.0 L 599.9 60.0 L 600.6 60.0 L 601.3 60.0 L 602.0 60.0 L 602.6 60.0 L 603.3 60.0 L 604.0 60.0 L 604.7 60.0 L 605.4 60.0 L 606.0 60.0 L 606.7 60.0 L 607.4 60.0 L 608.1 60.0 L 608.8 60.0 L 609.4 60.0 L 610.1 60.0 L 610.8 60.0 L 611.5 60.0 L 612.2 60.0 L 612.8 60.0 L 613.5 60.0 L 614.2 60.0 L 614.9 60.0 L 615.6 60.0 L 616.2 60.0 L 616.9 60.0 L 617.6 60.0 L 618.3 60.0 L 619.0 60.0 L 619.6 60.0 L 620.3 60.0 L 621.0 60.0 L 621.7 60.0 L 622.4 60.0 L 623.0 60.0 L 623.7 60.0 L 624.4 60.0 L 625.1 60.0 L 625.8 60.0 L 626.4 60.0 L 627.1 60.0 L 627.8 60.0 L 628.5 60.0 L 629.2 60.0 L 629.8 60.0 L 630.5 60.0 L 631.2 60.0 L 631.9 60.0 L 632.6 60.0 L 633.2 60.0 L 633.9 60.0 L 634.6 60.0 L 635.3 60.0 L 636.0 60.0 L 636.6 60.0 L 637.3 60.0 L 638.0 60.0 L 638.7 60.0 L 639.4 60.0 L 640.0 60.0 L 640.7 60.0 L 641.4 60.0 L 642.1 60.0 L 642.8 60.0 L 643.4 60.0 L 644.1 60.0 L 644.8 60.0 L 645.5 60.0 L 646.2 60.0 L 646.8 60.0 L 647.5 60.0 L 648.2 60.0 L 648.9 60.0 L 649.6 60.0 L 650.2 60.0 L 650.9 60.0 L 651.6 60.0 L 652.3 60.0 L 653.0 60.0 L 653.6 60.0 L 654.3 60.0 L 655.0 60.0 L 655.7 60.0 L 656.4 60.0 L 657.0 60.0 L 657.7 60.0 L 658.4 60.0 L 659.1 60.0 L 659.8 60.0 L 660.4 60.0 L 661.1 60.0 L 661.8 60.0 L 662.5 60.0 L 663.2 60.0 L 663.8 60.0 L 664.5 60.0 L 665.2 60.0 L 665.9 60.0 L 666.6 60.0 L 667.2 60.0 L 667.9 60.0 L 668.6 60.0 L 669.3 60.0 L 670.0 60.0 L 670.6 60.0 L 671.3 60.0 L 672.0 60.0 L 672.7 60.0 L 673.4 60.0 L 674.0 60.0 L 674.7 60.0 L 675.4 60.0 L 676.1 60.0 L 676.8 60.0 L 677.4 60.0 L 678.1 60.0 L 678.8 60.0 L 679.5 60.0 L 680.2 60.0 L 680.8 60.0 L 681.5 60.0 L 682.2 60.0 L 682.9 60.0 L 683.6 60.0 L 684.2 60.0 L 684.9 60.0 L 685.6 60.0 L 686.3 60.0 L 687.0 60.0 L 687.6 60.0 L 688.3 60.0 L 689.0 60.0 L 689.7 60.0 L 690.4 60.0 L 691.0 60.0 L 691.7 60.0 L 692.4 60.0 L 693.1 60.0 L 693.8 60.0 L 694.4 60.0 L 695.1 60.0 L 695.8 60.0 L 696.5 60.0 L 697.2 60.0 L 697.8 60.0 L 698.5 60.0 L 699.2 60.0 L 699.9 60.0 L 700.6 60.0 L 701.2 60.0 L 701.9 60.0 L 702.6 60.0 L 703.3 60.0 L 704.0 60.0 L 704.6 60.0 L 705.3 60.0 L 706.0 60.0 L 706.7 60.0 L 707.4 60.0 L 708.0 60.0 L 708.7 60.0 L 709.4 60.0 L 710.1 60.0 L 710.8 60.0 L 711.4 60.0 L 712.1 60.0 L 712.8 60.0 L 713.5 60.0 L 714.2 60.0 L 714.8 60.0 L 715.5 60.0 L 716.2 60.0 L 716.9 60.0 L 717.6 60.0 L 718.2 60.0 L 718.9 60.0 L 719.6 60.0 L 720.3 60.0 L 721.0 60.0 L 721.6 60.0 L 722.3 60.0 L 723.0 60.0 L 723.7 60.0 L 724.4 60.0 L 725.0 60.0 L 725.7 60.0 L 726.4 60.0 L 727.1 60.0 L 727.8 60.0 L 728.4 60.0 L 729.1 60.0 L 729.8 60.0 L 730.5 60.0 L 731.2 60.0 L 731.8 60.0 L 732.5 60.0 L 733.2 60.0 L 733.9 60.0 L 734.6 60.0 L 735.2 60.0 L 735.9 60.0 L 736.6 60.0 L 737.3 60.0 L 738.0 60.0 L 738.6 60.0 L 739.3 60.0 L 740.0 60.0" fill="none" stroke="#0d9488" stroke-width="2" stroke-dasharray="5 4"/><path d="M 60.0 106.7 L 60.7 106.7 L 61.4 106.6 L 62.0 106.6 L 62.7 106.5 L 63.4 106.5 L 64.1 106.4 L 64.8 106.3 L 65.4 106.2 L 66.1 106.1 L 66.8 105.9 L 67.5 105.8 L 68.2 105.7 L 68.8 105.5 L 69.5 105.4 L 70.2 105.2 L 70.9 105.0 L 71.6 104.8 L 72.2 104.6 L 72.9 104.4 L 73.6 104.2 L 74.3 104.0 L 75.0 103.8 L 75.6 103.6 L 76.3 103.4 L 77.0 103.2 L 77.7 102.9 L 78.4 102.7 L 79.0 102.4 L 79.7 102.2 L 80.4 101.9 L 81.1 101.7 L 81.8 101.4 L 82.4 101.2 L 83.1 100.9 L 83.8 100.7 L 84.5 100.4 L 85.2 100.1 L 85.8 99.9 L 86.5 99.6 L 87.2 99.3 L 87.9 99.0 L 88.6 98.8 L 89.2 98.5 L 89.9 98.2 L 90.6 97.9 L 91.3 97.6 L 92.0 97.4 L 92.6 97.1 L 93.3 96.8 L 94.0 96.5 L 94.7 96.2 L 95.4 95.9 L 96.0 95.6 L 96.7 95.4 L 97.4 95.1 L 98.1 94.8 L 98.8 94.5 L 99.4 94.2 L 100.1 93.9 L 100.8 93.6 L 101.5 93.3 L 102.2 93.1 L 102.8 92.8 L 103.5 92.5 L 104.2 92.2 L 104.9 91.9 L 105.6 91.6 L 106.2 91.3 L 106.9 91.1 L 107.6 90.8 L 108.3 90.5 L 109.0 90.2 L 109.6 89.9 L 110.3 89.6 L 111.0 89.4 L 111.7 89.1 L 112.4 88.8 L 113.0 88.5 L 113.7 88.3 L 114.4 88.0 L 115.1 87.7 L 115.8 87.4 L 116.4 87.2 L 117.1 86.9 L 117.8 86.6 L 118.5 86.4 L 119.2 86.1 L 119.8 85.8 L 120.5 85.6 L 121.2 85.3 L 121.9 85.0 L 122.6 84.8 L 123.2 84.5 L 123.9 84.2 L 124.6 84.0 L 125.3 83.7 L 126.0 83.5 L 126.6 83.2 L 127.3 83.0 L 128.0 82.7 L 128.7 82.5 L 129.4 82.2 L 130.0 82.0 L 130.7 81.7 L 131.4 81.5 L 132.1 81.2 L 132.8 81.0 L 133.4 80.7 L 134.1 80.5 L 134.8 80.3 L 135.5 80.0 L 136.2 79.8 L 136.8 79.6 L 137.5 79.3 L 138.2 79.1 L 138.9 78.9 L 139.6 78.6 L 140.2 78.4 L 140.9 78.2 L 141.6 78.0 L 142.3 77.7 L 143.0 77.5 L 143.6 77.3 L 144.3 77.1 L 145.0 76.8 L 145.7 76.6 L 146.4 76.4 L 147.0 76.2 L 147.7 76.0 L 148.4 75.8 L 149.1 75.6 L 149.8 75.4 L 150.4 75.2 L 151.1 74.9 L 151.8 74.7 L 152.5 74.5 L 153.2 74.3 L 153.8 74.1 L 154.5 73.9 L 155.2 73.7 L 155.9 73.5 L 156.6 73.3 L 157.2 73.2 L 157.9 73.0 L 158.6 72.8 L 159.3 72.6 L 160.0 72.4 L 160.6 72.2 L 161.3 72.0 L 162.0 71.8 L 162.7 71.6 L 163.4 71.5 L 164.0 71.3 L 164.7 71.1 L 165.4 70.9 L 166.1 70.7 L 166.8 70.6 L 167.4 70.4 L 168.1 70.2 L 168.8 70.0 L 169.5 69.9 L 170.2 69.7 L 170.8 69.5 L 171.5 69.4 L 172.2 69.2 L 172.9 69.0 L 173.6 68.9 L 174.2 68.7 L 174.9 68.6 L 175.6 68.4 L 176.3 68.2 L 177.0 68.1 L 177.6 67.9 L 178.3 67.8 L 179.0 67.6 L 179.7 67.5 L 180.4 67.3 L 181.0 67.2 L 181.7 67.0 L 182.4 66.9 L 183.1 66.7 L 183.8 66.6 L 184.4 66.4 L 185.1 66.3 L 185.8 66.1 L 186.5 66.0 L 187.2 65.9 L 187.8 65.7 L 188.5 65.6 L 189.2 65.4 L 189.9 65.3 L 190.6 65.2 L 191.2 65.0 L 191.9 64.9 L 192.6 64.8 L 193.3 64.6 L 194.0 64.5 L 194.6 64.4 L 195.3 64.3 L 196.0 64.1 L 196.7 64.0 L 197.4 63.9 L 198.0 63.8 L 198.7 63.6 L 199.4 63.5 L 200.1 63.4 L 200.8 63.3 L 201.4 63.2 L 202.1 63.0 L 202.8 62.9 L 203.5 62.8 L 204.2 62.7 L 204.8 62.6 L 205.5 62.5 L 206.2 62.4 L 206.9 62.2 L 207.6 62.1 L 208.2 62.0 L 208.9 61.9 L 209.6 61.8 L 210.3 61.7 L 211.0 61.6 L 211.6 61.5 L 212.3 61.4 L 213.0 61.3 L 213.7 61.2 L 214.4 61.1 L 215.0 61.0 L 215.7 60.9 L 216.4 60.8 L 217.1 60.7 L 217.8 60.6 L 218.4 60.5 L 219.1 60.4 L 219.8 60.3 L 220.5 60.2 L 221.2 60.1 L 221.8 60.0 L 222.5 60.0 L 223.2 59.9 L 223.9 59.8 L 224.6 59.7 L 225.2 59.6 L 225.9 59.5 L 226.6 59.4 L 227.3 59.3 L 228.0 59.3 L 228.6 59.2 L 229.3 59.1 L 230.0 59.0 L 230.7 58.9 L 231.4 58.9 L 232.0 58.8 L 232.7 58.7 L 233.4 58.6 L 234.1 58.6 L 234.8 58.5 L 235.4 58.4 L 236.1 58.3 L 236.8 58.3 L 237.5 58.2 L 238.2 58.1 L 238.8 58.0 L 239.5 58.0 L 240.2 57.9 L 240.9 57.8 L 241.6 57.8 L 242.2 57.7 L 242.9 57.6 L 243.6 57.6 L 244.3 57.5 L 245.0 57.4 L 245.6 57.4 L 246.3 57.3 L 247.0 57.3 L 247.7 57.2 L 248.4 57.1 L 249.0 57.1 L 249.7 57.0 L 250.4 56.9 L 251.1 56.9 L 251.8 56.8 L 252.4 56.8 L 253.1 56.7 L 253.8 56.7 L 254.5 56.6 L 255.2 56.6 L 255.8 56.5 L 256.5 56.4 L 257.2 56.4 L 257.9 56.3 L 258.6 56.3 L 259.2 56.2 L 259.9 56.2 L 260.6 56.1 L 261.3 56.1 L 262.0 56.0 L 262.6 56.0 L 263.3 56.0 L 264.0 55.9 L 264.7 55.9 L 265.4 55.8 L 266.0 55.8 L 266.7 55.7 L 267.4 55.7 L 268.1 55.6 L 268.8 55.6 L 269.4 55.6 L 270.1 55.5 L 270.8 55.5 L 271.5 55.4 L 272.2 55.4 L 272.8 55.4 L 273.5 55.3 L 274.2 55.3 L 274.9 55.2 L 275.6 55.2 L 276.2 55.2 L 276.9 55.1 L 277.6 55.1 L 278.3 55.1 L 279.0 55.0 L 279.6 55.0 L 280.3 55.0 L 281.0 54.9 L 281.7 54.9 L 282.4 54.9 L 283.0 54.8 L 283.7 54.8 L 284.4 54.8 L 285.1 54.7 L 285.8 54.7 L 286.4 54.7 L 287.1 54.6 L 287.8 54.6 L 288.5 54.6 L 289.2 54.6 L 289.8 54.5 L 290.5 54.5 L 291.2 54.5 L 291.9 54.5 L 292.6 54.4 L 293.2 54.4 L 293.9 54.4 L 294.6 54.4 L 295.3 54.3 L 296.0 54.3 L 296.6 54.3 L 297.3 54.3 L 298.0 54.2 L 298.7 54.2 L 299.4 54.2 L 300.0 54.2 L 300.7 54.2 L 301.4 54.1 L 302.1 54.1 L 302.8 54.1 L 303.4 54.1 L 304.1 54.1 L 304.8 54.0 L 305.5 54.0 L 306.2 54.0 L 306.8 54.0 L 307.5 54.0 L 308.2 54.0 L 308.9 53.9 L 309.6 53.9 L 310.2 53.9 L 310.9 53.9 L 311.6 53.9 L 312.3 53.9 L 313.0 53.8 L 313.6 53.8 L 314.3 53.8 L 315.0 53.8 L 315.7 53.8 L 316.4 53.8 L 317.0 53.8 L 317.7 53.8 L 318.4 53.8 L 319.1 53.7 L 319.8 53.7 L 320.4 53.7 L 321.1 53.7 L 321.8 53.7 L 322.5 53.7 L 323.2 53.7 L 323.8 53.7 L 324.5 53.7 L 325.2 53.7 L 325.9 53.6 L 326.6 53.6 L 327.2 53.6 L 327.9 53.6 L 328.6 53.6 L 329.3 53.6 L 330.0 53.6 L 330.6 53.6 L 331.3 53.6 L 332.0 53.6 L 332.7 53.6 L 333.4 53.6 L 334.0 53.6 L 334.7 53.6 L 335.4 53.6 L 336.1 53.6 L 336.8 53.6 L 337.4 53.6 L 338.1 53.6 L 338.8 53.6 L 339.5 53.6 L 340.2 53.5 L 340.8 53.5 L 341.5 53.5 L 342.2 53.5 L 342.9 53.5 L 343.6 53.5 L 344.2 53.5 L 344.9 53.5 L 345.6 53.5 L 346.3 53.5 L 347.0 53.5 L 347.6 53.5 L 348.3 53.5 L 349.0 53.5 L 349.7 53.5 L 350.4 53.5 L 351.0 53.5 L 351.7 53.5 L 352.4 53.5 L 353.1 53.5 L 353.8 53.6 L 354.4 53.6 L 355.1 53.6 L 355.8 53.6 L 356.5 53.6 L 357.2 53.6 L 357.8 53.6 L 358.5 53.6 L 359.2 53.6 L 359.9 53.6 L 360.6 53.6 L 361.2 53.6 L 361.9 53.6 L 362.6 53.6 L 363.3 53.6 L 364.0 53.6 L 364.6 53.6 L 365.3 53.6 L 366.0 53.6 L 366.7 53.6 L 367.4 53.6 L 368.0 53.6 L 368.7 53.6 L 369.4 53.7 L 370.1 53.7 L 370.8 53.7 L 371.4 53.7 L 372.1 53.7 L 372.8 53.7 L 373.5 53.7 L 374.2 53.7 L 374.8 53.7 L 375.5 53.7 L 376.2 53.7 L 376.9 53.7 L 377.6 53.7 L 378.2 53.8 L 378.9 53.8 L 379.6 53.8 L 380.3 53.8 L 381.0 53.8 L 381.6 53.8 L 382.3 53.8 L 383.0 53.8 L 383.7 53.8 L 384.4 53.8 L 385.0 53.8 L 385.7 53.9 L 386.4 53.9 L 387.1 53.9 L 387.8 53.9 L 388.4 53.9 L 389.1 53.9 L 389.8 53.9 L 390.5 53.9 L 391.2 53.9 L 391.8 53.9 L 392.5 54.0 L 393.2 54.0 L 393.9 54.0 L 394.6 54.0 L 395.2 54.0 L 395.9 54.0 L 396.6 54.0 L 397.3 54.0 L 398.0 54.0 L 398.6 54.1 L 399.3 54.1 L 400.0 54.1 L 400.7 54.1 L 401.4 54.1 L 402.0 54.1 L 402.7 54.1 L 403.4 54.1 L 404.1 54.2 L 404.8 54.2 L 405.4 54.2 L 406.1 54.2 L 406.8 54.2 L 407.5 54.2 L 408.2 54.2 L 408.8 54.2 L 409.5 54.3 L 410.2 54.3 L 410.9 54.3 L 411.6 54.3 L 412.2 54.3 L 412.9 54.3 L 413.6 54.3 L 414.3 54.3 L 415.0 54.4 L 415.6 54.4 L 416.3 54.4 L 417.0 54.4 L 417.7 54.4 L 418.4 54.4 L 419.0 54.4 L 419.7 54.5 L 420.4 54.5 L 421.1 54.5 L 421.8 54.5 L 422.4 54.5 L 423.1 54.5 L 423.8 54.5 L 424.5 54.6 L 425.2 54.6 L 425.8 54.6 L 426.5 54.6 L 427.2 54.6 L 427.9 54.6 L 428.6 54.6 L 429.2 54.7 L 429.9 54.7 L 430.6 54.7 L 431.3 54.7 L 432.0 54.7 L 432.6 54.7 L 433.3 54.8 L 434.0 54.8 L 434.7 54.8 L 435.4 54.8 L 436.0 54.8 L 436.7 54.8 L 437.4 54.8 L 438.1 54.9 L 438.8 54.9 L 439.4 54.9 L 440.1 54.9 L 440.8 54.9 L 441.5 54.9 L 442.2 54.9 L 442.8 55.0 L 443.5 55.0 L 444.2 55.0 L 444.9 55.0 L 445.6 55.0 L 446.2 55.0 L 446.9 55.1 L 447.6 55.1 L 448.3 55.1 L 449.0 55.1 L 449.6 55.1 L 450.3 55.1 L 451.0 55.2 L 451.7 55.2 L 452.4 55.2 L 453.0 55.2 L 453.7 55.2 L 454.4 55.2 L 455.1 55.2 L 455.8 55.3 L 456.4 55.3 L 457.1 55.3 L 457.8 55.3 L 458.5 55.3 L 459.2 55.3 L 459.8 55.4 L 460.5 55.4 L 461.2 55.4 L 461.9 55.4 L 462.6 55.4 L 463.2 55.4 L 463.9 55.5 L 464.6 55.5 L 465.3 55.5 L 466.0 55.5 L 466.6 55.5 L 467.3 55.5 L 468.0 55.6 L 468.7 55.6 L 469.4 55.6 L 470.0 55.6 L 470.7 55.6 L 471.4 55.6 L 472.1 55.6 L 472.8 55.7 L 473.4 55.7 L 474.1 55.7 L 474.8 55.7 L 475.5 55.7 L 476.2 55.7 L 476.8 55.8 L 477.5 55.8 L 478.2 55.8 L 478.9 55.8 L 479.6 55.8 L 480.2 55.8 L 480.9 55.9 L 481.6 55.9 L 482.3 55.9 L 483.0 55.9 L 483.6 55.9 L 484.3 55.9 L 485.0 56.0 L 485.7 56.0 L 486.4 56.0 L 487.0 56.0 L 487.7 56.0 L 488.4 56.0 L 489.1 56.0 L 489.8 56.1 L 490.4 56.1 L 491.1 56.1 L 491.8 56.1 L 492.5 56.1 L 493.2 56.1 L 493.8 56.2 L 494.5 56.2 L 495.2 56.2 L 495.9 56.2 L 496.6 56.2 L 497.2 56.2 L 497.9 56.3 L 498.6 56.3 L 499.3 56.3 L 500.0 56.3 L 500.6 56.3 L 501.3 56.3 L 502.0 56.3 L 502.7 56.4 L 503.4 56.4 L 504.0 56.4 L 504.7 56.4 L 505.4 56.4 L 506.1 56.4 L 506.8 56.5 L 507.4 56.5 L 508.1 56.5 L 508.8 56.5 L 509.5 56.5 L 510.2 56.5 L 510.8 56.5 L 511.5 56.6 L 512.2 56.6 L 512.9 56.6 L 513.6 56.6 L 514.2 56.6 L 514.9 56.6 L 515.6 56.6 L 516.3 56.7 L 517.0 56.7 L 517.6 56.7 L 518.3 56.7 L 519.0 56.7 L 519.7 56.7 L 520.4 56.8 L 521.0 56.8 L 521.7 56.8 L 522.4 56.8 L 523.1 56.8 L 523.8 56.8 L 524.4 56.8 L 525.1 56.9 L 525.8 56.9 L 526.5 56.9 L 527.2 56.9 L 527.8 56.9 L 528.5 56.9 L 529.2 56.9 L 529.9 57.0 L 530.6 57.0 L 531.2 57.0 L 531.9 57.0 L 532.6 57.0 L 533.3 57.0 L 534.0 57.0 L 534.6 57.1 L 535.3 57.1 L 536.0 57.1 L 536.7 57.1 L 537.4 57.1 L 538.0 57.1 L 538.7 57.1 L 539.4 57.2 L 540.1 57.2 L 540.8 57.2 L 541.4 57.2 L 542.1 57.2 L 542.8 57.2 L 543.5 57.2 L 544.2 57.3 L 544.8 57.3 L 545.5 57.3 L 546.2 57.3 L 546.9 57.3 L 547.6 57.3 L 548.2 57.3 L 548.9 57.3 L 549.6 57.4 L 550.3 57.4 L 551.0 57.4 L 551.6 57.4 L 552.3 57.4 L 553.0 57.4 L 553.7 57.4 L 554.4 57.5 L 555.0 57.5 L 555.7 57.5 L 556.4 57.5 L 557.1 57.5 L 557.8 57.5 L 558.4 57.5 L 559.1 57.5 L 559.8 57.6 L 560.5 57.6 L 561.2 57.6 L 561.8 57.6 L 562.5 57.6 L 563.2 57.6 L 563.9 57.6 L 564.6 57.6 L 565.2 57.7 L 565.9 57.7 L 566.6 57.7 L 567.3 57.7 L 568.0 57.7 L 568.6 57.7 L 569.3 57.7 L 570.0 57.7 L 570.7 57.8 L 571.4 57.8 L 572.0 57.8 L 572.7 57.8 L 573.4 57.8 L 574.1 57.8 L 574.8 57.8 L 575.4 57.8 L 576.1 57.9 L 576.8 57.9 L 577.5 57.9 L 578.2 57.9 L 578.8 57.9 L 579.5 57.9 L 580.2 57.9 L 580.9 57.9 L 581.6 58.0 L 582.2 58.0 L 582.9 58.0 L 583.6 58.0 L 584.3 58.0 L 585.0 58.0 L 585.6 58.0 L 586.3 58.0 L 587.0 58.0 L 587.7 58.1 L 588.4 58.1 L 589.0 58.1 L 589.7 58.1 L 590.4 58.1 L 591.1 58.1 L 591.8 58.1 L 592.4 58.1 L 593.1 58.1 L 593.8 58.2 L 594.5 58.2 L 595.2 58.2 L 595.8 58.2 L 596.5 58.2 L 597.2 58.2 L 597.9 58.2 L 598.6 58.2 L 599.2 58.2 L 599.9 58.3 L 600.6 58.3 L 601.3 58.3 L 602.0 58.3 L 602.6 58.3 L 603.3 58.3 L 604.0 58.3 L 604.7 58.3 L 605.4 58.3 L 606.0 58.3 L 606.7 58.4 L 607.4 58.4 L 608.1 58.4 L 608.8 58.4 L 609.4 58.4 L 610.1 58.4 L 610.8 58.4 L 611.5 58.4 L 612.2 58.4 L 612.8 58.4 L 613.5 58.5 L 614.2 58.5 L 614.9 58.5 L 615.6 58.5 L 616.2 58.5 L 616.9 58.5 L 617.6 58.5 L 618.3 58.5 L 619.0 58.5 L 619.6 58.5 L 620.3 58.6 L 621.0 58.6 L 621.7 58.6 L 622.4 58.6 L 623.0 58.6 L 623.7 58.6 L 624.4 58.6 L 625.1 58.6 L 625.8 58.6 L 626.4 58.6 L 627.1 58.6 L 627.8 58.7 L 628.5 58.7 L 629.2 58.7 L 629.8 58.7 L 630.5 58.7 L 631.2 58.7 L 631.9 58.7 L 632.6 58.7 L 633.2 58.7 L 633.9 58.7 L 634.6 58.7 L 635.3 58.7 L 636.0 58.8 L 636.6 58.8 L 637.3 58.8 L 638.0 58.8 L 638.7 58.8 L 639.4 58.8 L 640.0 58.8 L 640.7 58.8 L 641.4 58.8 L 642.1 58.8 L 642.8 58.8 L 643.4 58.8 L 644.1 58.9 L 644.8 58.9 L 645.5 58.9 L 646.2 58.9 L 646.8 58.9 L 647.5 58.9 L 648.2 58.9 L 648.9 58.9 L 649.6 58.9 L 650.2 58.9 L 650.9 58.9 L 651.6 58.9 L 652.3 59.0 L 653.0 59.0 L 653.6 59.0 L 654.3 59.0 L 655.0 59.0 L 655.7 59.0 L 656.4 59.0 L 657.0 59.0 L 657.7 59.0 L 658.4 59.0 L 659.1 59.0 L 659.8 59.0 L 660.4 59.0 L 661.1 59.0 L 661.8 59.1 L 662.5 59.1 L 663.2 59.1 L 663.8 59.1 L 664.5 59.1 L 665.2 59.1 L 665.9 59.1 L 666.6 59.1 L 667.2 59.1 L 667.9 59.1 L 668.6 59.1 L 669.3 59.1 L 670.0 59.1 L 670.6 59.1 L 671.3 59.2 L 672.0 59.2 L 672.7 59.2 L 673.4 59.2 L 674.0 59.2 L 674.7 59.2 L 675.4 59.2 L 676.1 59.2 L 676.8 59.2 L 677.4 59.2 L 678.1 59.2 L 678.8 59.2 L 679.5 59.2 L 680.2 59.2 L 680.8 59.2 L 681.5 59.2 L 682.2 59.3 L 682.9 59.3 L 683.6 59.3 L 684.2 59.3 L 684.9 59.3 L 685.6 59.3 L 686.3 59.3 L 687.0 59.3 L 687.6 59.3 L 688.3 59.3 L 689.0 59.3 L 689.7 59.3 L 690.4 59.3 L 691.0 59.3 L 691.7 59.3 L 692.4 59.3 L 693.1 59.3 L 693.8 59.4 L 694.4 59.4 L 695.1 59.4 L 695.8 59.4 L 696.5 59.4 L 697.2 59.4 L 697.8 59.4 L 698.5 59.4 L 699.2 59.4 L 699.9 59.4 L 700.6 59.4 L 701.2 59.4 L 701.9 59.4 L 702.6 59.4 L 703.3 59.4 L 704.0 59.4 L 704.6 59.4 L 705.3 59.4 L 706.0 59.4 L 706.7 59.5 L 707.4 59.5 L 708.0 59.5 L 708.7 59.5 L 709.4 59.5 L 710.1 59.5 L 710.8 59.5 L 711.4 59.5 L 712.1 59.5 L 712.8 59.5 L 713.5 59.5 L 714.2 59.5 L 714.8 59.5 L 715.5 59.5 L 716.2 59.5 L 716.9 59.5 L 717.6 59.5 L 718.2 59.5 L 718.9 59.5 L 719.6 59.5 L 720.3 59.5 L 721.0 59.6 L 721.6 59.6 L 722.3 59.6 L 723.0 59.6 L 723.7 59.6 L 724.4 59.6 L 725.0 59.6 L 725.7 59.6 L 726.4 59.6 L 727.1 59.6 L 727.8 59.6 L 728.4 59.6 L 729.1 59.6 L 729.8 59.6 L 730.5 59.6 L 731.2 59.6 L 731.8 59.6 L 732.5 59.6 L 733.2 59.6 L 733.9 59.6 L 734.6 59.6 L 735.2 59.6 L 735.9 59.6 L 736.6 59.6 L 737.3 59.7 L 738.0 59.7 L 738.6 59.7 L 739.3 59.7 L 740.0 59.7" fill="none" stroke="#0ea5e9" stroke-width="2.4"/>
<text x="396" y="56.0" text-anchor="end" font-family="system-ui,-apple-system,Segoe UI,Roboto,sans-serif" font-size="10" font-weight="400" fill="#0d9488">q_d</text><text x="396" y="71.66848966868622" text-anchor="end" font-family="system-ui,-apple-system,Segoe UI,Roboto,sans-serif" font-size="10" font-weight="400" fill="#0ea5e9">q</text>
<line x1="60" y1="180" x2="400" y2="180" stroke="#64748b" stroke-width="1"/>
<text x="54" y="183" text-anchor="end" font-family="system-ui,-apple-system,Segoe UI,Roboto,sans-serif" font-size="9" font-weight="400" fill="#64748b">0</text>
<path d="M 60.0 152.0 L 60.3 152.0 L 60.7 152.0 L 61.0 152.1 L 61.4 152.1 L 61.7 152.1 L 62.0 152.2 L 62.4 152.2 L 62.7 152.3 L 63.1 152.4 L 63.4 152.4 L 63.7 152.5 L 64.1 152.6 L 64.4 152.7 L 64.8 152.8 L 65.1 152.9 L 65.4 153.0 L 65.8 153.1 L 66.1 153.2 L 66.5 153.3 L 66.8 153.5 L 67.1 153.6 L 67.5 153.7 L 67.8 153.8 L 68.2 154.0 L 68.5 154.1 L 68.8 154.2 L 69.2 154.4 L 69.5 154.5 L 69.9 154.7 L 70.2 154.8 L 70.5 155.0 L 70.9 155.1 L 71.2 155.3 L 71.6 155.4 L 71.9 155.6 L 72.2 155.8 L 72.6 155.9 L 72.9 156.1 L 73.3 156.2 L 73.6 156.4 L 73.9 156.6 L 74.3 156.7 L 74.6 156.9 L 75.0 157.1 L 75.3 157.2 L 75.6 157.4 L 76.0 157.6 L 76.3 157.8 L 76.7 157.9 L 77.0 158.1 L 77.3 158.3 L 77.7 158.4 L 78.0 158.6 L 78.4 158.8 L 78.7 159.0 L 79.0 159.1 L 79.4 159.3 L 79.7 159.5 L 80.1 159.7 L 80.4 159.8 L 80.7 160.0 L 81.1 160.2 L 81.4 160.3 L 81.8 160.5 L 82.1 160.7 L 82.4 160.9 L 82.8 161.0 L 83.1 161.2 L 83.5 161.4 L 83.8 161.5 L 84.1 161.7 L 84.5 161.9 L 84.8 162.0 L 85.2 162.2 L 85.5 162.4 L 85.8 162.5 L 86.2 162.7 L 86.5 162.9 L 86.9 163.0 L 87.2 163.2 L 87.5 163.4 L 87.9 163.5 L 88.2 163.7 L 88.6 163.9 L 88.9 164.0 L 89.2 164.2 L 89.6 164.4 L 89.9 164.5 L 90.3 164.7 L 90.6 164.8 L 90.9 165.0 L 91.3 165.1 L 91.6 165.3 L 92.0 165.5 L 92.3 165.6 L 92.6 165.8 L 93.0 165.9 L 93.3 166.1 L 93.7 166.2 L 94.0 166.4 L 94.3 166.5 L 94.7 166.7 L 95.0 166.8 L 95.4 167.0 L 95.7 167.1 L 96.0 167.3 L 96.4 167.4 L 96.7 167.6 L 97.1 167.7 L 97.4 167.8 L 97.7 168.0 L 98.1 168.1 L 98.4 168.3 L 98.8 168.4 L 99.1 168.5 L 99.4 168.7 L 99.8 168.8 L 100.1 169.0 L 100.5 169.1 L 100.8 169.2 L 101.1 169.4 L 101.5 169.5 L 101.8 169.6 L 102.2 169.8 L 102.5 169.9 L 102.8 170.0 L 103.2 170.1 L 103.5 170.3 L 103.9 170.4 L 104.2 170.5 L 104.5 170.7 L 104.9 170.8 L 105.2 170.9 L 105.6 171.0 L 105.9 171.2 L 106.2 171.3 L 106.6 171.4 L 106.9 171.5 L 107.3 171.6 L 107.6 171.8 L 107.9 171.9 L 108.3 172.0 L 108.6 172.1 L 109.0 172.2 L 109.3 172.3 L 109.6 172.5 L 110.0 172.6 L 110.3 172.7 L 110.7 172.8 L 111.0 172.9 L 111.3 173.0 L 111.7 173.1 L 112.0 173.2 L 112.4 173.3 L 112.7 173.4 L 113.0 173.6 L 113.4 173.7 L 113.7 173.8 L 114.1 173.9 L 114.4 174.0 L 114.7 174.1 L 115.1 174.2 L 115.4 174.3 L 115.8 174.4 L 116.1 174.5 L 116.4 174.6 L 116.8 174.7 L 117.1 174.8 L 117.5 174.9 L 117.8 175.0 L 118.1 175.1 L 118.5 175.2 L 118.8 175.2 L 119.2 175.3 L 119.5 175.4 L 119.8 175.5 L 120.2 175.6 L 120.5 175.7 L 120.9 175.8 L 121.2 175.9 L 121.5 176.0 L 121.9 176.1 L 122.2 176.1 L 122.6 176.2 L 122.9 176.3 L 123.2 176.4 L 123.6 176.5 L 123.9 176.6 L 124.3 176.7 L 124.6 176.7 L 124.9 176.8 L 125.3 176.9 L 125.6 177.0 L 126.0 177.1 L 126.3 177.1 L 126.6 177.2 L 127.0 177.3 L 127.3 177.4 L 127.7 177.4 L 128.0 177.5 L 128.3 177.6 L 128.7 177.7 L 129.0 177.7 L 129.4 177.8 L 129.7 177.9 L 130.0 178.0 L 130.4 178.0 L 130.7 178.1 L 131.1 178.2 L 131.4 178.2 L 131.7 178.3 L 132.1 178.4 L 132.4 178.5 L 132.8 178.5 L 133.1 178.6 L 133.4 178.7 L 133.8 178.7 L 134.1 178.8 L 134.5 178.9 L 134.8 178.9 L 135.1 179.0 L 135.5 179.0 L 135.8 179.1 L 136.2 179.2 L 136.5 179.2 L 136.8 179.3 L 137.2 179.3 L 137.5 179.4 L 137.9 179.5 L 138.2 179.5 L 138.5 179.6 L 138.9 179.6 L 139.2 179.7 L 139.6 179.8 L 139.9 179.8 L 140.2 179.9 L 140.6 179.9 L 140.9 180.0 L 141.3 180.0 L 141.6 180.1 L 141.9 180.1 L 142.3 180.2 L 142.6 180.2 L 143.0 180.3 L 143.3 180.3 L 143.6 180.4 L 144.0 180.4 L 144.3 180.5 L 144.7 180.5 L 145.0 180.6 L 145.3 180.6 L 145.7 180.7 L 146.0 180.7 L 146.4 180.8 L 146.7 180.8 L 147.0 180.9 L 147.4 180.9 L 147.7 181.0 L 148.1 181.0 L 148.4 181.0 L 148.7 181.1 L 149.1 181.1 L 149.4 181.2 L 149.8 181.2 L 150.1 181.3 L 150.4 181.3 L 150.8 181.3 L 151.1 181.4 L 151.5 181.4 L 151.8 181.5 L 152.1 181.5 L 152.5 181.5 L 152.8 181.6 L 153.2 181.6 L 153.5 181.6 L 153.8 181.7 L 154.2 181.7 L 154.5 181.8 L 154.9 181.8 L 155.2 181.8 L 155.5 181.9 L 155.9 181.9 L 156.2 181.9 L 156.6 182.0 L 156.9 182.0 L 157.2 182.0 L 157.6 182.1 L 157.9 182.1 L 158.3 182.1 L 158.6 182.2 L 158.9 182.2 L 159.3 182.2 L 159.6 182.3 L 160.0 182.3 L 160.3 182.3 L 160.6 182.3 L 161.0 182.4 L 161.3 182.4 L 161.7 182.4 L 162.0 182.5 L 162.3 182.5 L 162.7 182.5 L 163.0 182.5 L 163.4 182.6 L 163.7 182.6 L 164.0 182.6 L 164.4 182.6 L 164.7 182.7 L 165.1 182.7 L 165.4 182.7 L 165.7 182.7 L 166.1 182.8 L 166.4 182.8 L 166.8 182.8 L 167.1 182.8 L 167.4 182.9 L 167.8 182.9 L 168.1 182.9 L 168.5 182.9 L 168.8 182.9 L 169.1 183.0 L 169.5 183.0 L 169.8 183.0 L 170.2 183.0 L 170.5 183.0 L 170.8 183.1 L 171.2 183.1 L 171.5 183.1 L 171.9 183.1 L 172.2 183.1 L 172.5 183.2 L 172.9 183.2 L 173.2 183.2 L 173.6 183.2 L 173.9 183.2 L 174.2 183.2 L 174.6 183.3 L 174.9 183.3 L 175.3 183.3 L 175.6 183.3 L 175.9 183.3 L 176.3 183.3 L 176.6 183.4 L 177.0 183.4 L 177.3 183.4 L 177.6 183.4 L 178.0 183.4 L 178.3 183.4 L 178.7 183.4 L 179.0 183.5 L 179.3 183.5 L 179.7 183.5 L 180.0 183.5 L 180.4 183.5 L 180.7 183.5 L 181.0 183.5 L 181.4 183.5 L 181.7 183.6 L 182.1 183.6 L 182.4 183.6 L 182.7 183.6 L 183.1 183.6 L 183.4 183.6 L 183.8 183.6 L 184.1 183.6 L 184.4 183.6 L 184.8 183.6 L 185.1 183.7 L 185.5 183.7 L 185.8 183.7 L 186.1 183.7 L 186.5 183.7 L 186.8 183.7 L 187.2 183.7 L 187.5 183.7 L 187.8 183.7 L 188.2 183.7 L 188.5 183.7 L 188.9 183.7 L 189.2 183.7 L 189.5 183.8 L 189.9 183.8 L 190.2 183.8 L 190.6 183.8 L 190.9 183.8 L 191.2 183.8 L 191.6 183.8 L 191.9 183.8 L 192.3 183.8 L 192.6 183.8 L 192.9 183.8 L 193.3 183.8 L 193.6 183.8 L 194.0 183.8 L 194.3 183.8 L 194.6 183.8 L 195.0 183.8 L 195.3 183.8 L 195.7 183.8 L 196.0 183.8 L 196.3 183.8 L 196.7 183.9 L 197.0 183.9 L 197.4 183.9 L 197.7 183.9 L 198.0 183.9 L 198.4 183.9 L 198.7 183.9 L 199.1 183.9 L 199.4 183.9 L 199.7 183.9 L 200.1 183.9 L 200.4 183.9 L 200.8 183.9 L 201.1 183.9 L 201.4 183.9 L 201.8 183.9 L 202.1 183.9 L 202.5 183.9 L 202.8 183.9 L 203.1 183.9 L 203.5 183.9 L 203.8 183.9 L 204.2 183.9 L 204.5 183.9 L 204.8 183.9 L 205.2 183.9 L 205.5 183.9 L 205.9 183.9 L 206.2 183.9 L 206.5 183.9 L 206.9 183.9 L 207.2 183.9 L 207.6 183.9 L 207.9 183.9 L 208.2 183.9 L 208.6 183.9 L 208.9 183.9 L 209.3 183.9 L 209.6 183.9 L 209.9 183.9 L 210.3 183.8 L 210.6 183.8 L 211.0 183.8 L 211.3 183.8 L 211.6 183.8 L 212.0 183.8 L 212.3 183.8 L 212.7 183.8 L 213.0 183.8 L 213.3 183.8 L 213.7 183.8 L 214.0 183.8 L 214.4 183.8 L 214.7 183.8 L 215.0 183.8 L 215.4 183.8 L 215.7 183.8 L 216.1 183.8 L 216.4 183.8 L 216.7 183.8 L 217.1 183.8 L 217.4 183.8 L 217.8 183.8 L 218.1 183.8 L 218.4 183.8 L 218.8 183.8 L 219.1 183.7 L 219.5 183.7 L 219.8 183.7 L 220.1 183.7 L 220.5 183.7 L 220.8 183.7 L 221.2 183.7 L 221.5 183.7 L 221.8 183.7 L 222.2 183.7 L 222.5 183.7 L 222.9 183.7 L 223.2 183.7 L 223.5 183.7 L 223.9 183.7 L 224.2 183.7 L 224.6 183.7 L 224.9 183.7 L 225.2 183.6 L 225.6 183.6 L 225.9 183.6 L 226.3 183.6 L 226.6 183.6 L 226.9 183.6 L 227.3 183.6 L 227.6 183.6 L 228.0 183.6 L 228.3 183.6 L 228.6 183.6 L 229.0 183.6 L 229.3 183.6 L 229.7 183.6 L 230.0 183.6 L 230.3 183.5 L 230.7 183.5 L 231.0 183.5 L 231.4 183.5 L 231.7 183.5 L 232.0 183.5 L 232.4 183.5 L 232.7 183.5 L 233.1 183.5 L 233.4 183.5 L 233.7 183.5 L 234.1 183.5 L 234.4 183.5 L 234.8 183.4 L 235.1 183.4 L 235.4 183.4 L 235.8 183.4 L 236.1 183.4 L 236.5 183.4 L 236.8 183.4 L 237.1 183.4 L 237.5 183.4 L 237.8 183.4 L 238.2 183.4 L 238.5 183.4 L 238.8 183.3 L 239.2 183.3 L 239.5 183.3 L 239.9 183.3 L 240.2 183.3 L 240.5 183.3 L 240.9 183.3 L 241.2 183.3 L 241.6 183.3 L 241.9 183.3 L 242.2 183.3 L 242.6 183.3 L 242.9 183.2 L 243.3 183.2 L 243.6 183.2 L 243.9 183.2 L 244.3 183.2 L 244.6 183.2 L 245.0 183.2 L 245.3 183.2 L 245.6 183.2 L 246.0 183.2 L 246.3 183.2 L 246.7 183.1 L 247.0 183.1 L 247.3 183.1 L 247.7 183.1 L 248.0 183.1 L 248.4 183.1 L 248.7 183.1 L 249.0 183.1 L 249.4 183.1 L 249.7 183.1 L 250.1 183.1 L 250.4 183.0 L 250.7 183.0 L 251.1 183.0 L 251.4 183.0 L 251.8 183.0 L 252.1 183.0 L 252.4 183.0 L 252.8 183.0 L 253.1 183.0 L 253.5 183.0 L 253.8 183.0 L 254.1 182.9 L 254.5 182.9 L 254.8 182.9 L 255.2 182.9 L 255.5 182.9 L 255.8 182.9 L 256.2 182.9 L 256.5 182.9 L 256.9 182.9 L 257.2 182.9 L 257.5 182.9 L 257.9 182.8 L 258.2 182.8 L 258.6 182.8 L 258.9 182.8 L 259.2 182.8 L 259.6 182.8 L 259.9 182.8 L 260.3 182.8 L 260.6 182.8 L 260.9 182.8 L 261.3 182.7 L 261.6 182.7 L 262.0 182.7 L 262.3 182.7 L 262.6 182.7 L 263.0 182.7 L 263.3 182.7 L 263.7 182.7 L 264.0 182.7 L 264.3 182.7 L 264.7 182.6 L 265.0 182.6 L 265.4 182.6 L 265.7 182.6 L 266.0 182.6 L 266.4 182.6 L 266.7 182.6 L 267.1 182.6 L 267.4 182.6 L 267.7 182.6 L 268.1 182.6 L 268.4 182.5 L 268.8 182.5 L 269.1 182.5 L 269.4 182.5 L 269.8 182.5 L 270.1 182.5 L 270.5 182.5 L 270.8 182.5 L 271.1 182.5 L 271.5 182.5 L 271.8 182.4 L 272.2 182.4 L 272.5 182.4 L 272.8 182.4 L 273.2 182.4 L 273.5 182.4 L 273.9 182.4 L 274.2 182.4 L 274.5 182.4 L 274.9 182.4 L 275.2 182.4 L 275.6 182.3 L 275.9 182.3 L 276.2 182.3 L 276.6 182.3 L 276.9 182.3 L 277.3 182.3 L 277.6 182.3 L 277.9 182.3 L 278.3 182.3 L 278.6 182.3 L 279.0 182.2 L 279.3 182.2 L 279.6 182.2 L 280.0 182.2 L 280.3 182.2 L 280.7 182.2 L 281.0 182.2 L 281.3 182.2 L 281.7 182.2 L 282.0 182.2 L 282.4 182.2 L 282.7 182.1 L 283.0 182.1 L 283.4 182.1 L 283.7 182.1 L 284.1 182.1 L 284.4 182.1 L 284.7 182.1 L 285.1 182.1 L 285.4 182.1 L 285.8 182.1 L 286.1 182.1 L 286.4 182.0 L 286.8 182.0 L 287.1 182.0 L 287.5 182.0 L 287.8 182.0 L 288.1 182.0 L 288.5 182.0 L 288.8 182.0 L 289.2 182.0 L 289.5 182.0 L 289.8 182.0 L 290.2 181.9 L 290.5 181.9 L 290.9 181.9 L 291.2 181.9 L 291.5 181.9 L 291.9 181.9 L 292.2 181.9 L 292.6 181.9 L 292.9 181.9 L 293.2 181.9 L 293.6 181.9 L 293.9 181.9 L 294.3 181.8 L 294.6 181.8 L 294.9 181.8 L 295.3 181.8 L 295.6 181.8 L 296.0 181.8 L 296.3 181.8 L 296.6 181.8 L 297.0 181.8 L 297.3 181.8 L 297.7 181.8 L 298.0 181.7 L 298.3 181.7 L 298.7 181.7 L 299.0 181.7 L 299.4 181.7 L 299.7 181.7 L 300.0 181.7 L 300.4 181.7 L 300.7 181.7 L 301.1 181.7 L 301.4 181.7 L 301.7 181.7 L 302.1 181.6 L 302.4 181.6 L 302.8 181.6 L 303.1 181.6 L 303.4 181.6 L 303.8 181.6 L 304.1 181.6 L 304.5 181.6 L 304.8 181.6 L 305.1 181.6 L 305.5 181.6 L 305.8 181.6 L 306.2 181.5 L 306.5 181.5 L 306.8 181.5 L 307.2 181.5 L 307.5 181.5 L 307.9 181.5 L 308.2 181.5 L 308.5 181.5 L 308.9 181.5 L 309.2 181.5 L 309.6 181.5 L 309.9 181.5 L 310.2 181.5 L 310.6 181.4 L 310.9 181.4 L 311.3 181.4 L 311.6 181.4 L 311.9 181.4 L 312.3 181.4 L 312.6 181.4 L 313.0 181.4 L 313.3 181.4 L 313.6 181.4 L 314.0 181.4 L 314.3 181.4 L 314.7 181.4 L 315.0 181.4 L 315.3 181.3 L 315.7 181.3 L 316.0 181.3 L 316.4 181.3 L 316.7 181.3 L 317.0 181.3 L 317.4 181.3 L 317.7 181.3 L 318.1 181.3 L 318.4 181.3 L 318.7 181.3 L 319.1 181.3 L 319.4 181.3 L 319.8 181.2 L 320.1 181.2 L 320.4 181.2 L 320.8 181.2 L 321.1 181.2 L 321.5 181.2 L 321.8 181.2 L 322.1 181.2 L 322.5 181.2 L 322.8 181.2 L 323.2 181.2 L 323.5 181.2 L 323.8 181.2 L 324.2 181.2 L 324.5 181.2 L 324.9 181.1 L 325.2 181.1 L 325.5 181.1 L 325.9 181.1 L 326.2 181.1 L 326.6 181.1 L 326.9 181.1 L 327.2 181.1 L 327.6 181.1 L 327.9 181.1 L 328.3 181.1 L 328.6 181.1 L 328.9 181.1 L 329.3 181.1 L 329.6 181.1 L 330.0 181.0 L 330.3 181.0 L 330.6 181.0 L 331.0 181.0 L 331.3 181.0 L 331.7 181.0 L 332.0 181.0 L 332.3 181.0 L 332.7 181.0 L 333.0 181.0 L 333.4 181.0 L 333.7 181.0 L 334.0 181.0 L 334.4 181.0 L 334.7 181.0 L 335.1 181.0 L 335.4 180.9 L 335.7 180.9 L 336.1 180.9 L 336.4 180.9 L 336.8 180.9 L 337.1 180.9 L 337.4 180.9 L 337.8 180.9 L 338.1 180.9 L 338.5 180.9 L 338.8 180.9 L 339.1 180.9 L 339.5 180.9 L 339.8 180.9 L 340.2 180.9 L 340.5 180.9 L 340.8 180.9 L 341.2 180.9 L 341.5 180.8 L 341.9 180.8 L 342.2 180.8 L 342.5 180.8 L 342.9 180.8 L 343.2 180.8 L 343.6 180.8 L 343.9 180.8 L 344.2 180.8 L 344.6 180.8 L 344.9 180.8 L 345.3 180.8 L 345.6 180.8 L 345.9 180.8 L 346.3 180.8 L 346.6 180.8 L 347.0 180.8 L 347.3 180.8 L 347.6 180.8 L 348.0 180.7 L 348.3 180.7 L 348.7 180.7 L 349.0 180.7 L 349.3 180.7 L 349.7 180.7 L 350.0 180.7 L 350.4 180.7 L 350.7 180.7 L 351.0 180.7 L 351.4 180.7 L 351.7 180.7 L 352.1 180.7 L 352.4 180.7 L 352.7 180.7 L 353.1 180.7 L 353.4 180.7 L 353.8 180.7 L 354.1 180.7 L 354.4 180.7 L 354.8 180.6 L 355.1 180.6 L 355.5 180.6 L 355.8 180.6 L 356.1 180.6 L 356.5 180.6 L 356.8 180.6 L 357.2 180.6 L 357.5 180.6 L 357.8 180.6 L 358.2 180.6 L 358.5 180.6 L 358.9 180.6 L 359.2 180.6 L 359.5 180.6 L 359.9 180.6 L 360.2 180.6 L 360.6 180.6 L 360.9 180.6 L 361.2 180.6 L 361.6 180.6 L 361.9 180.6 L 362.3 180.5 L 362.6 180.5 L 362.9 180.5 L 363.3 180.5 L 363.6 180.5 L 364.0 180.5 L 364.3 180.5 L 364.6 180.5 L 365.0 180.5 L 365.3 180.5 L 365.7 180.5 L 366.0 180.5 L 366.3 180.5 L 366.7 180.5 L 367.0 180.5 L 367.4 180.5 L 367.7 180.5 L 368.0 180.5 L 368.4 180.5 L 368.7 180.5 L 369.1 180.5 L 369.4 180.5 L 369.7 180.5 L 370.1 180.5 L 370.4 180.5 L 370.8 180.5 L 371.1 180.4 L 371.4 180.4 L 371.8 180.4 L 372.1 180.4 L 372.5 180.4 L 372.8 180.4 L 373.1 180.4 L 373.5 180.4 L 373.8 180.4 L 374.2 180.4 L 374.5 180.4 L 374.8 180.4 L 375.2 180.4 L 375.5 180.4 L 375.9 180.4 L 376.2 180.4 L 376.5 180.4 L 376.9 180.4 L 377.2 180.4 L 377.6 180.4 L 377.9 180.4 L 378.2 180.4 L 378.6 180.4 L 378.9 180.4 L 379.3 180.4 L 379.6 180.4 L 379.9 180.4 L 380.3 180.4 L 380.6 180.4 L 381.0 180.3 L 381.3 180.3 L 381.6 180.3 L 382.0 180.3 L 382.3 180.3 L 382.7 180.3 L 383.0 180.3 L 383.3 180.3 L 383.7 180.3 L 384.0 180.3 L 384.4 180.3 L 384.7 180.3 L 385.0 180.3 L 385.4 180.3 L 385.7 180.3 L 386.1 180.3 L 386.4 180.3 L 386.7 180.3 L 387.1 180.3 L 387.4 180.3 L 387.8 180.3 L 388.1 180.3 L 388.4 180.3 L 388.8 180.3 L 389.1 180.3 L 389.5 180.3 L 389.8 180.3 L 390.1 180.3 L 390.5 180.3 L 390.8 180.3 L 391.2 180.3 L 391.5 180.3 L 391.8 180.3 L 392.2 180.3 L 392.5 180.3 L 392.9 180.2 L 393.2 180.2 L 393.5 180.2 L 393.9 180.2 L 394.2 180.2 L 394.6 180.2 L 394.9 180.2 L 395.2 180.2 L 395.6 180.2 L 395.9 180.2 L 396.3 180.2 L 396.6 180.2 L 396.9 180.2 L 397.3 180.2 L 397.6 180.2 L 398.0 180.2 L 398.3 180.2 L 398.6 180.2 L 399.0 180.2 L 399.3 180.2 L 399.7 180.2 L 400.0 180.2" fill="none" stroke="#b91c1c" stroke-width="2.4"/>
<text x="396" y="160" text-anchor="end" font-family="system-ui,-apple-system,Segoe UI,Roboto,sans-serif" font-size="10" font-weight="400" fill="#b91c1c">e(t)</text>
<line x1="155" y1="122" x2="155" y2="208" stroke="#64748b" stroke-width="1" stroke-dasharray="3 3"/>
<text x="108" y="204" text-anchor="middle" font-family="system-ui,-apple-system,Segoe UI,Roboto,sans-serif" font-size="9" font-weight="400" fill="#64748b">transient</text><text x="280" y="204" text-anchor="middle" font-family="system-ui,-apple-system,Segoe UI,Roboto,sans-serif" font-size="9" font-weight="400" fill="#64748b">steady state (≈0)</text>
<text x="210" y="158" text-anchor="start" font-family="system-ui,-apple-system,Segoe UI,Roboto,sans-serif" font-size="9" font-weight="400" fill="#64748b">error starts large, may cross zero (overshoot), then settles</text>
</svg>
