<svg viewBox="0 0 460 240" xmlns="http://www.w3.org/2000/svg" role="img" aria-label="A reference trajectory and the open-loop actual response start together then steadily diverge, the growing shaded gap being the tracking error as load and disturbance pull the actual motion away">
<title>A reference trajectory and the open-loop actual response start together then steadily diverge, the growing shaded gap being the tracking error as load and disturbance pull the actual motion away</title>
<rect width="460" height="240" fill="white"/>
<text x="230" y="24" text-anchor="middle" font-family="system-ui,-apple-system,Segoe UI,Roboto,sans-serif" font-size="14" font-weight="650" fill="#0f172a">Open-loop: the actual motion drifts from the reference</text>
<rect x="60" y="40" width="340" height="150" fill="#f8fafc" stroke="#e2e8f0"/>
<line x1="60.0" y1="80.9" x2="60.0" y2="80.9" stroke="#b91c1c" stroke-width="1" opacity="0.10"/><line x1="61.0" y1="80.9" x2="61.0" y2="80.9" stroke="#b91c1c" stroke-width="1" opacity="0.10"/><line x1="62.0" y1="80.9" x2="62.0" y2="80.9" stroke="#b91c1c" stroke-width="1" opacity="0.10"/><line x1="63.1" y1="80.9" x2="63.1" y2="81.0" stroke="#b91c1c" stroke-width="1" opacity="0.10"/><line x1="64.1" y1="80.9" x2="64.1" y2="81.0" stroke="#b91c1c" stroke-width="1" opacity="0.10"/><line x1="65.1" y1="80.9" x2="65.1" y2="81.0" stroke="#b91c1c" stroke-width="1" opacity="0.10"/><line x1="66.1" y1="80.9" x2="66.1" y2="81.0" stroke="#b91c1c" stroke-width="1" opacity="0.10"/><line x1="67.1" y1="80.9" x2="67.1" y2="81.0" stroke="#b91c1c" stroke-width="1" opacity="0.10"/><line x1="68.2" y1="80.9" x2="68.2" y2="81.1" stroke="#b91c1c" stroke-width="1" opacity="0.10"/><line x1="69.2" y1="80.9" x2="69.2" y2="81.1" stroke="#b91c1c" stroke-width="1" opacity="0.10"/><line x1="70.2" y1="80.9" x2="70.2" y2="81.1" stroke="#b91c1c" stroke-width="1" opacity="0.10"/><line x1="71.2" y1="80.9" x2="71.2" y2="81.2" stroke="#b91c1c" stroke-width="1" opacity="0.10"/><line x1="72.2" y1="80.9" x2="72.2" y2="81.2" stroke="#b91c1c" stroke-width="1" opacity="0.10"/><line x1="73.3" y1="80.9" x2="73.3" y2="81.3" stroke="#b91c1c" stroke-width="1" opacity="0.10"/><line x1="74.3" y1="80.9" x2="74.3" y2="81.3" stroke="#b91c1c" stroke-width="1" opacity="0.10"/><line x1="75.3" y1="80.9" x2="75.3" y2="81.4" stroke="#b91c1c" stroke-width="1" opacity="0.10"/><line x1="76.3" y1="80.9" x2="76.3" y2="81.5" stroke="#b91c1c" stroke-width="1" opacity="0.10"/><line x1="77.3" y1="80.9" x2="77.3" y2="81.5" stroke="#b91c1c" stroke-width="1" opacity="0.10"/><line x1="78.4" y1="80.9" x2="78.4" y2="81.6" stroke="#b91c1c" stroke-width="1" opacity="0.10"/><line x1="79.4" y1="80.9" x2="79.4" y2="81.7" stroke="#b91c1c" stroke-width="1" opacity="0.10"/><line x1="80.4" y1="80.9" x2="80.4" y2="81.7" stroke="#b91c1c" stroke-width="1" opacity="0.10"/><line x1="81.4" y1="80.9" x2="81.4" y2="81.8" stroke="#b91c1c" stroke-width="1" opacity="0.10"/><line x1="82.4" y1="80.8" x2="82.4" y2="81.9" stroke="#b91c1c" stroke-width="1" opacity="0.10"/><line x1="83.5" y1="80.8" x2="83.5" y2="82.0" stroke="#b91c1c" stroke-width="1" opacity="0.10"/><line x1="84.5" y1="80.8" x2="84.5" y2="82.1" stroke="#b91c1c" stroke-width="1" opacity="0.10"/><line x1="85.5" y1="80.8" x2="85.5" y2="82.1" stroke="#b91c1c" stroke-width="1" opacity="0.10"/><line x1="86.5" y1="80.8" x2="86.5" y2="82.2" stroke="#b91c1c" stroke-width="1" opacity="0.10"/><line x1="87.5" y1="80.8" x2="87.5" y2="82.3" stroke="#b91c1c" stroke-width="1" opacity="0.10"/><line x1="88.6" y1="80.8" x2="88.6" y2="82.4" stroke="#b91c1c" stroke-width="1" opacity="0.10"/><line x1="89.6" y1="80.7" x2="89.6" y2="82.5" stroke="#b91c1c" stroke-width="1" opacity="0.10"/><line x1="90.6" y1="80.7" x2="90.6" y2="82.6" stroke="#b91c1c" stroke-width="1" opacity="0.10"/><line x1="91.6" y1="80.7" x2="91.6" y2="82.7" stroke="#b91c1c" stroke-width="1" opacity="0.10"/><line x1="92.6" y1="80.7" x2="92.6" y2="82.8" stroke="#b91c1c" stroke-width="1" opacity="0.10"/><line x1="93.7" y1="80.7" x2="93.7" y2="82.9" stroke="#b91c1c" stroke-width="1" opacity="0.10"/><line x1="94.7" y1="80.6" x2="94.7" y2="83.0" stroke="#b91c1c" stroke-width="1" opacity="0.10"/><line x1="95.7" y1="80.6" x2="95.7" y2="83.2" stroke="#b91c1c" stroke-width="1" opacity="0.10"/><line x1="96.7" y1="80.6" x2="96.7" y2="83.3" stroke="#b91c1c" stroke-width="1" opacity="0.10"/><line x1="97.7" y1="80.6" x2="97.7" y2="83.4" stroke="#b91c1c" stroke-width="1" opacity="0.10"/><line x1="98.8" y1="80.5" x2="98.8" y2="83.5" stroke="#b91c1c" stroke-width="1" opacity="0.10"/><line x1="99.8" y1="80.5" x2="99.8" y2="83.6" stroke="#b91c1c" stroke-width="1" opacity="0.10"/><line x1="100.8" y1="80.5" x2="100.8" y2="83.8" stroke="#b91c1c" stroke-width="1" opacity="0.10"/><line x1="101.8" y1="80.4" x2="101.8" y2="83.9" stroke="#b91c1c" stroke-width="1" opacity="0.10"/><line x1="102.8" y1="80.4" x2="102.8" y2="84.0" stroke="#b91c1c" stroke-width="1" opacity="0.10"/><line x1="103.9" y1="80.4" x2="103.9" y2="84.1" stroke="#b91c1c" stroke-width="1" opacity="0.10"/><line x1="104.9" y1="80.3" x2="104.9" y2="84.3" stroke="#b91c1c" stroke-width="1" opacity="0.10"/><line x1="105.9" y1="80.3" x2="105.9" y2="84.4" stroke="#b91c1c" stroke-width="1" opacity="0.10"/><line x1="106.9" y1="80.3" x2="106.9" y2="84.5" stroke="#b91c1c" stroke-width="1" opacity="0.10"/><line x1="107.9" y1="80.2" x2="107.9" y2="84.7" stroke="#b91c1c" stroke-width="1" opacity="0.10"/><line x1="109.0" y1="80.2" x2="109.0" y2="84.8" stroke="#b91c1c" stroke-width="1" opacity="0.10"/><line x1="110.0" y1="80.1" x2="110.0" y2="84.9" stroke="#b91c1c" stroke-width="1" opacity="0.10"/><line x1="111.0" y1="80.1" x2="111.0" y2="85.1" stroke="#b91c1c" stroke-width="1" opacity="0.10"/><line x1="112.0" y1="80.0" x2="112.0" y2="85.2" stroke="#b91c1c" stroke-width="1" opacity="0.10"/><line x1="113.0" y1="80.0" x2="113.0" y2="85.4" stroke="#b91c1c" stroke-width="1" opacity="0.10"/><line x1="114.1" y1="79.9" x2="114.1" y2="85.5" stroke="#b91c1c" stroke-width="1" opacity="0.10"/><line x1="115.1" y1="79.9" x2="115.1" y2="85.7" stroke="#b91c1c" stroke-width="1" opacity="0.10"/><line x1="116.1" y1="79.8" x2="116.1" y2="85.8" stroke="#b91c1c" stroke-width="1" opacity="0.10"/><line x1="117.1" y1="79.8" x2="117.1" y2="86.0" stroke="#b91c1c" stroke-width="1" opacity="0.10"/><line x1="118.1" y1="79.7" x2="118.1" y2="86.1" stroke="#b91c1c" stroke-width="1" opacity="0.10"/><line x1="119.2" y1="79.7" x2="119.2" y2="86.3" stroke="#b91c1c" stroke-width="1" opacity="0.10"/><line x1="120.2" y1="79.6" x2="120.2" y2="86.4" stroke="#b91c1c" stroke-width="1" opacity="0.10"/><line x1="121.2" y1="79.6" x2="121.2" y2="86.6" stroke="#b91c1c" stroke-width="1" opacity="0.10"/><line x1="122.2" y1="79.5" x2="122.2" y2="86.7" stroke="#b91c1c" stroke-width="1" opacity="0.10"/><line x1="123.2" y1="79.4" x2="123.2" y2="86.9" stroke="#b91c1c" stroke-width="1" opacity="0.10"/><line x1="124.3" y1="79.4" x2="124.3" y2="87.1" stroke="#b91c1c" stroke-width="1" opacity="0.10"/><line x1="125.3" y1="79.3" x2="125.3" y2="87.2" stroke="#b91c1c" stroke-width="1" opacity="0.10"/><line x1="126.3" y1="79.2" x2="126.3" y2="87.4" stroke="#b91c1c" stroke-width="1" opacity="0.10"/><line x1="127.3" y1="79.2" x2="127.3" y2="87.5" stroke="#b91c1c" stroke-width="1" opacity="0.10"/><line x1="128.3" y1="79.1" x2="128.3" y2="87.7" stroke="#b91c1c" stroke-width="1" opacity="0.10"/><line x1="129.4" y1="79.0" x2="129.4" y2="87.9" stroke="#b91c1c" stroke-width="1" opacity="0.10"/><line x1="130.4" y1="78.9" x2="130.4" y2="88.0" stroke="#b91c1c" stroke-width="1" opacity="0.10"/><line x1="131.4" y1="78.9" x2="131.4" y2="88.2" stroke="#b91c1c" stroke-width="1" opacity="0.10"/><line x1="132.4" y1="78.8" x2="132.4" y2="88.4" stroke="#b91c1c" stroke-width="1" opacity="0.10"/><line x1="133.4" y1="78.7" x2="133.4" y2="88.6" stroke="#b91c1c" stroke-width="1" opacity="0.10"/><line x1="134.5" y1="78.6" x2="134.5" y2="88.7" stroke="#b91c1c" stroke-width="1" opacity="0.10"/><line x1="135.5" y1="78.5" x2="135.5" y2="88.9" stroke="#b91c1c" stroke-width="1" opacity="0.10"/><line x1="136.5" y1="78.4" x2="136.5" y2="89.1" stroke="#b91c1c" stroke-width="1" opacity="0.10"/><line x1="137.5" y1="78.4" x2="137.5" y2="89.3" stroke="#b91c1c" stroke-width="1" opacity="0.10"/><line x1="138.5" y1="78.3" x2="138.5" y2="89.4" stroke="#b91c1c" stroke-width="1" opacity="0.10"/><line x1="139.6" y1="78.2" x2="139.6" y2="89.6" stroke="#b91c1c" stroke-width="1" opacity="0.10"/><line x1="140.6" y1="78.1" x2="140.6" y2="89.8" stroke="#b91c1c" stroke-width="1" opacity="0.10"/><line x1="141.6" y1="78.0" x2="141.6" y2="90.0" stroke="#b91c1c" stroke-width="1" opacity="0.10"/><line x1="142.6" y1="77.9" x2="142.6" y2="90.2" stroke="#b91c1c" stroke-width="1" opacity="0.10"/><line x1="143.6" y1="77.8" x2="143.6" y2="90.4" stroke="#b91c1c" stroke-width="1" opacity="0.10"/><line x1="144.7" y1="77.7" x2="144.7" y2="90.5" stroke="#b91c1c" stroke-width="1" opacity="0.10"/><line x1="145.7" y1="77.6" x2="145.7" y2="90.7" stroke="#b91c1c" stroke-width="1" opacity="0.10"/><line x1="146.7" y1="77.5" x2="146.7" y2="90.9" stroke="#b91c1c" stroke-width="1" opacity="0.10"/><line x1="147.7" y1="77.4" x2="147.7" y2="91.1" stroke="#b91c1c" stroke-width="1" opacity="0.10"/><line x1="148.7" y1="77.3" x2="148.7" y2="91.3" stroke="#b91c1c" stroke-width="1" opacity="0.10"/><line x1="149.8" y1="77.2" x2="149.8" y2="91.5" stroke="#b91c1c" stroke-width="1" opacity="0.10"/><line x1="150.8" y1="77.1" x2="150.8" y2="91.7" stroke="#b91c1c" stroke-width="1" opacity="0.10"/><line x1="151.8" y1="77.0" x2="151.8" y2="91.9" stroke="#b91c1c" stroke-width="1" opacity="0.10"/><line x1="152.8" y1="76.9" x2="152.8" y2="92.1" stroke="#b91c1c" stroke-width="1" opacity="0.10"/><line x1="153.8" y1="76.7" x2="153.8" y2="92.3" stroke="#b91c1c" stroke-width="1" opacity="0.10"/><line x1="154.9" y1="76.6" x2="154.9" y2="92.5" stroke="#b91c1c" stroke-width="1" opacity="0.10"/><line x1="155.9" y1="76.5" x2="155.9" y2="92.7" stroke="#b91c1c" stroke-width="1" opacity="0.10"/><line x1="156.9" y1="76.4" x2="156.9" y2="92.9" stroke="#b91c1c" stroke-width="1" opacity="0.10"/><line x1="157.9" y1="76.3" x2="157.9" y2="93.1" stroke="#b91c1c" stroke-width="1" opacity="0.10"/><line x1="158.9" y1="76.2" x2="158.9" y2="93.3" stroke="#b91c1c" stroke-width="1" opacity="0.10"/><line x1="160.0" y1="76.0" x2="160.0" y2="93.5" stroke="#b91c1c" stroke-width="1" opacity="0.10"/><line x1="161.0" y1="75.9" x2="161.0" y2="93.7" stroke="#b91c1c" stroke-width="1" opacity="0.10"/><line x1="162.0" y1="75.8" x2="162.0" y2="93.9" stroke="#b91c1c" stroke-width="1" opacity="0.10"/><line x1="163.0" y1="75.7" x2="163.0" y2="94.1" stroke="#b91c1c" stroke-width="1" opacity="0.10"/><line x1="164.0" y1="75.5" x2="164.0" y2="94.3" stroke="#b91c1c" stroke-width="1" opacity="0.10"/><line x1="165.1" y1="75.4" x2="165.1" y2="94.5" stroke="#b91c1c" stroke-width="1" opacity="0.10"/><line x1="166.1" y1="75.3" x2="166.1" y2="94.7" stroke="#b91c1c" stroke-width="1" opacity="0.10"/><line x1="167.1" y1="75.2" x2="167.1" y2="94.9" stroke="#b91c1c" stroke-width="1" opacity="0.10"/><line x1="168.1" y1="75.0" x2="168.1" y2="95.1" stroke="#b91c1c" stroke-width="1" opacity="0.10"/><line x1="169.1" y1="74.9" x2="169.1" y2="95.3" stroke="#b91c1c" stroke-width="1" opacity="0.10"/><line x1="170.2" y1="74.8" x2="170.2" y2="95.5" stroke="#b91c1c" stroke-width="1" opacity="0.10"/><line x1="171.2" y1="74.6" x2="171.2" y2="95.8" stroke="#b91c1c" stroke-width="1" opacity="0.10"/><line x1="172.2" y1="74.5" x2="172.2" y2="96.0" stroke="#b91c1c" stroke-width="1" opacity="0.10"/><line x1="173.2" y1="74.3" x2="173.2" y2="96.2" stroke="#b91c1c" stroke-width="1" opacity="0.10"/><line x1="174.2" y1="74.2" x2="174.2" y2="96.4" stroke="#b91c1c" stroke-width="1" opacity="0.10"/><line x1="175.3" y1="74.1" x2="175.3" y2="96.6" stroke="#b91c1c" stroke-width="1" opacity="0.10"/><line x1="176.3" y1="73.9" x2="176.3" y2="96.9" stroke="#b91c1c" stroke-width="1" opacity="0.10"/><line x1="177.3" y1="73.8" x2="177.3" y2="97.1" stroke="#b91c1c" stroke-width="1" opacity="0.10"/><line x1="178.3" y1="73.6" x2="178.3" y2="97.3" stroke="#b91c1c" stroke-width="1" opacity="0.10"/><line x1="179.3" y1="73.5" x2="179.3" y2="97.5" stroke="#b91c1c" stroke-width="1" opacity="0.10"/><line x1="180.4" y1="73.3" x2="180.4" y2="97.7" stroke="#b91c1c" stroke-width="1" opacity="0.10"/><line x1="181.4" y1="73.2" x2="181.4" y2="98.0" stroke="#b91c1c" stroke-width="1" opacity="0.10"/><line x1="182.4" y1="73.0" x2="182.4" y2="98.2" stroke="#b91c1c" stroke-width="1" opacity="0.10"/><line x1="183.4" y1="72.9" x2="183.4" y2="98.4" stroke="#b91c1c" stroke-width="1" opacity="0.10"/><line x1="184.4" y1="72.7" x2="184.4" y2="98.7" stroke="#b91c1c" stroke-width="1" opacity="0.10"/><line x1="185.5" y1="72.6" x2="185.5" y2="98.9" stroke="#b91c1c" stroke-width="1" opacity="0.10"/><line x1="186.5" y1="72.4" x2="186.5" y2="99.1" stroke="#b91c1c" stroke-width="1" opacity="0.10"/><line x1="187.5" y1="72.3" x2="187.5" y2="99.4" stroke="#b91c1c" stroke-width="1" opacity="0.10"/><line x1="188.5" y1="72.1" x2="188.5" y2="99.6" stroke="#b91c1c" stroke-width="1" opacity="0.10"/><line x1="189.5" y1="72.0" x2="189.5" y2="99.8" stroke="#b91c1c" stroke-width="1" opacity="0.10"/><line x1="190.6" y1="71.8" x2="190.6" y2="100.1" stroke="#b91c1c" stroke-width="1" opacity="0.10"/><line x1="191.6" y1="71.6" x2="191.6" y2="100.3" stroke="#b91c1c" stroke-width="1" opacity="0.10"/><line x1="192.6" y1="71.5" x2="192.6" y2="100.6" stroke="#b91c1c" stroke-width="1" opacity="0.10"/><line x1="193.6" y1="71.3" x2="193.6" y2="100.8" stroke="#b91c1c" stroke-width="1" opacity="0.10"/><line x1="194.6" y1="71.2" x2="194.6" y2="101.0" stroke="#b91c1c" stroke-width="1" opacity="0.10"/><line x1="195.7" y1="71.0" x2="195.7" y2="101.3" stroke="#b91c1c" stroke-width="1" opacity="0.10"/><line x1="196.7" y1="70.8" x2="196.7" y2="101.5" stroke="#b91c1c" stroke-width="1" opacity="0.10"/><line x1="197.7" y1="70.7" x2="197.7" y2="101.8" stroke="#b91c1c" stroke-width="1" opacity="0.10"/><line x1="198.7" y1="70.5" x2="198.7" y2="102.0" stroke="#b91c1c" stroke-width="1" opacity="0.10"/><line x1="199.7" y1="70.3" x2="199.7" y2="102.3" stroke="#b91c1c" stroke-width="1" opacity="0.10"/><line x1="200.8" y1="70.2" x2="200.8" y2="102.5" stroke="#b91c1c" stroke-width="1" opacity="0.10"/><line x1="201.8" y1="70.0" x2="201.8" y2="102.8" stroke="#b91c1c" stroke-width="1" opacity="0.10"/><line x1="202.8" y1="69.8" x2="202.8" y2="103.0" stroke="#b91c1c" stroke-width="1" opacity="0.10"/><line x1="203.8" y1="69.7" x2="203.8" y2="103.3" stroke="#b91c1c" stroke-width="1" opacity="0.10"/><line x1="204.8" y1="69.5" x2="204.8" y2="103.6" stroke="#b91c1c" stroke-width="1" opacity="0.10"/><line x1="205.9" y1="69.3" x2="205.9" y2="103.8" stroke="#b91c1c" stroke-width="1" opacity="0.10"/><line x1="206.9" y1="69.2" x2="206.9" y2="104.1" stroke="#b91c1c" stroke-width="1" opacity="0.10"/><line x1="207.9" y1="69.0" x2="207.9" y2="104.3" stroke="#b91c1c" stroke-width="1" opacity="0.10"/><line x1="208.9" y1="68.8" x2="208.9" y2="104.6" stroke="#b91c1c" stroke-width="1" opacity="0.10"/><line x1="209.9" y1="68.6" x2="209.9" y2="104.9" stroke="#b91c1c" stroke-width="1" opacity="0.10"/><line x1="211.0" y1="68.5" x2="211.0" y2="105.1" stroke="#b91c1c" stroke-width="1" opacity="0.10"/><line x1="212.0" y1="68.3" x2="212.0" y2="105.4" stroke="#b91c1c" stroke-width="1" opacity="0.10"/><line x1="213.0" y1="68.1" x2="213.0" y2="105.7" stroke="#b91c1c" stroke-width="1" opacity="0.10"/><line x1="214.0" y1="67.9" x2="214.0" y2="105.9" stroke="#b91c1c" stroke-width="1" opacity="0.10"/><line x1="215.0" y1="67.8" x2="215.0" y2="106.2" stroke="#b91c1c" stroke-width="1" opacity="0.10"/><line x1="216.1" y1="67.6" x2="216.1" y2="106.5" stroke="#b91c1c" stroke-width="1" opacity="0.10"/><line x1="217.1" y1="67.4" x2="217.1" y2="106.8" stroke="#b91c1c" stroke-width="1" opacity="0.10"/><line x1="218.1" y1="67.2" x2="218.1" y2="107.0" stroke="#b91c1c" stroke-width="1" opacity="0.10"/><line x1="219.1" y1="67.1" x2="219.1" y2="107.3" stroke="#b91c1c" stroke-width="1" opacity="0.10"/><line x1="220.1" y1="66.9" x2="220.1" y2="107.6" stroke="#b91c1c" stroke-width="1" opacity="0.10"/><line x1="221.2" y1="66.7" x2="221.2" y2="107.9" stroke="#b91c1c" stroke-width="1" opacity="0.10"/><line x1="222.2" y1="66.5" x2="222.2" y2="108.2" stroke="#b91c1c" stroke-width="1" opacity="0.10"/><line x1="223.2" y1="66.4" x2="223.2" y2="108.4" stroke="#b91c1c" stroke-width="1" opacity="0.10"/><line x1="224.2" y1="66.2" x2="224.2" y2="108.7" stroke="#b91c1c" stroke-width="1" opacity="0.10"/><line x1="225.2" y1="66.0" x2="225.2" y2="109.0" stroke="#b91c1c" stroke-width="1" opacity="0.10"/><line x1="226.3" y1="65.8" x2="226.3" y2="109.3" stroke="#b91c1c" stroke-width="1" opacity="0.10"/><line x1="227.3" y1="65.7" x2="227.3" y2="109.6" stroke="#b91c1c" stroke-width="1" opacity="0.10"/><line x1="228.3" y1="65.5" x2="228.3" y2="109.9" stroke="#b91c1c" stroke-width="1" opacity="0.10"/><line x1="229.3" y1="65.3" x2="229.3" y2="110.2" stroke="#b91c1c" stroke-width="1" opacity="0.10"/><line x1="230.3" y1="65.1" x2="230.3" y2="110.5" stroke="#b91c1c" stroke-width="1" opacity="0.10"/><line x1="231.4" y1="65.0" x2="231.4" y2="110.8" stroke="#b91c1c" stroke-width="1" opacity="0.10"/><line x1="232.4" y1="64.8" x2="232.4" y2="111.1" stroke="#b91c1c" stroke-width="1" opacity="0.10"/><line x1="233.4" y1="64.6" x2="233.4" y2="111.4" stroke="#b91c1c" stroke-width="1" opacity="0.10"/><line x1="234.4" y1="64.4" x2="234.4" y2="111.7" stroke="#b91c1c" stroke-width="1" opacity="0.10"/><line x1="235.4" y1="64.2" x2="235.4" y2="112.0" stroke="#b91c1c" stroke-width="1" opacity="0.10"/><line x1="236.5" y1="64.1" x2="236.5" y2="112.3" stroke="#b91c1c" stroke-width="1" opacity="0.10"/><line x1="237.5" y1="63.9" x2="237.5" y2="112.6" stroke="#b91c1c" stroke-width="1" opacity="0.10"/><line x1="238.5" y1="63.7" x2="238.5" y2="112.9" stroke="#b91c1c" stroke-width="1" opacity="0.10"/><line x1="239.5" y1="63.5" x2="239.5" y2="113.2" stroke="#b91c1c" stroke-width="1" opacity="0.10"/><line x1="240.5" y1="63.4" x2="240.5" y2="113.6" stroke="#b91c1c" stroke-width="1" opacity="0.10"/><line x1="241.6" y1="63.2" x2="241.6" y2="113.9" stroke="#b91c1c" stroke-width="1" opacity="0.10"/><line x1="242.6" y1="63.0" x2="242.6" y2="114.2" stroke="#b91c1c" stroke-width="1" opacity="0.10"/><line x1="243.6" y1="62.8" x2="243.6" y2="114.5" stroke="#b91c1c" stroke-width="1" opacity="0.10"/><line x1="244.6" y1="62.7" x2="244.6" y2="114.8" stroke="#b91c1c" stroke-width="1" opacity="0.10"/><line x1="245.6" y1="62.5" x2="245.6" y2="115.1" stroke="#b91c1c" stroke-width="1" opacity="0.10"/><line x1="246.7" y1="62.3" x2="246.7" y2="115.5" stroke="#b91c1c" stroke-width="1" opacity="0.10"/><line x1="247.7" y1="62.1" x2="247.7" y2="115.8" stroke="#b91c1c" stroke-width="1" opacity="0.10"/><line x1="248.7" y1="62.0" x2="248.7" y2="116.1" stroke="#b91c1c" stroke-width="1" opacity="0.10"/><line x1="249.7" y1="61.8" x2="249.7" y2="116.5" stroke="#b91c1c" stroke-width="1" opacity="0.10"/><line x1="250.7" y1="61.6" x2="250.7" y2="116.8" stroke="#b91c1c" stroke-width="1" opacity="0.10"/><line x1="251.8" y1="61.5" x2="251.8" y2="117.1" stroke="#b91c1c" stroke-width="1" opacity="0.10"/><line x1="252.8" y1="61.3" x2="252.8" y2="117.5" stroke="#b91c1c" stroke-width="1" opacity="0.10"/><line x1="253.8" y1="61.1" x2="253.8" y2="117.8" stroke="#b91c1c" stroke-width="1" opacity="0.10"/><line x1="254.8" y1="60.9" x2="254.8" y2="118.1" stroke="#b91c1c" stroke-width="1" opacity="0.10"/><line x1="255.8" y1="60.8" x2="255.8" y2="118.5" stroke="#b91c1c" stroke-width="1" opacity="0.10"/><line x1="256.9" y1="60.6" x2="256.9" y2="118.8" stroke="#b91c1c" stroke-width="1" opacity="0.10"/><line x1="257.9" y1="60.4" x2="257.9" y2="119.2" stroke="#b91c1c" stroke-width="1" opacity="0.10"/><line x1="258.9" y1="60.3" x2="258.9" y2="119.5" stroke="#b91c1c" stroke-width="1" opacity="0.10"/><line x1="259.9" y1="60.1" x2="259.9" y2="119.9" stroke="#b91c1c" stroke-width="1" opacity="0.10"/><line x1="260.9" y1="59.9" x2="260.9" y2="120.2" stroke="#b91c1c" stroke-width="1" opacity="0.10"/><line x1="262.0" y1="59.8" x2="262.0" y2="120.6" stroke="#b91c1c" stroke-width="1" opacity="0.10"/><line x1="263.0" y1="59.6" x2="263.0" y2="120.9" stroke="#b91c1c" stroke-width="1" opacity="0.10"/><line x1="264.0" y1="59.4" x2="264.0" y2="121.3" stroke="#b91c1c" stroke-width="1" opacity="0.10"/><line x1="265.0" y1="59.3" x2="265.0" y2="121.6" stroke="#b91c1c" stroke-width="1" opacity="0.10"/><line x1="266.0" y1="59.1" x2="266.0" y2="122.0" stroke="#b91c1c" stroke-width="1" opacity="0.10"/><line x1="267.1" y1="59.0" x2="267.1" y2="122.4" stroke="#b91c1c" stroke-width="1" opacity="0.10"/><line x1="268.1" y1="58.8" x2="268.1" y2="122.7" stroke="#b91c1c" stroke-width="1" opacity="0.10"/><line x1="269.1" y1="58.6" x2="269.1" y2="123.1" stroke="#b91c1c" stroke-width="1" opacity="0.10"/><line x1="270.1" y1="58.5" x2="270.1" y2="123.5" stroke="#b91c1c" stroke-width="1" opacity="0.10"/><line x1="271.1" y1="58.3" x2="271.1" y2="123.8" stroke="#b91c1c" stroke-width="1" opacity="0.10"/><line x1="272.2" y1="58.2" x2="272.2" y2="124.2" stroke="#b91c1c" stroke-width="1" opacity="0.10"/><line x1="273.2" y1="58.0" x2="273.2" y2="124.6" stroke="#b91c1c" stroke-width="1" opacity="0.10"/><line x1="274.2" y1="57.9" x2="274.2" y2="124.9" stroke="#b91c1c" stroke-width="1" opacity="0.10"/><line x1="275.2" y1="57.7" x2="275.2" y2="125.3" stroke="#b91c1c" stroke-width="1" opacity="0.10"/><line x1="276.2" y1="57.5" x2="276.2" y2="125.7" stroke="#b91c1c" stroke-width="1" opacity="0.10"/><line x1="277.3" y1="57.4" x2="277.3" y2="126.1" stroke="#b91c1c" stroke-width="1" opacity="0.10"/><line x1="278.3" y1="57.2" x2="278.3" y2="126.5" stroke="#b91c1c" stroke-width="1" opacity="0.10"/><line x1="279.3" y1="57.1" x2="279.3" y2="126.9" stroke="#b91c1c" stroke-width="1" opacity="0.10"/><line x1="280.3" y1="56.9" x2="280.3" y2="127.2" stroke="#b91c1c" stroke-width="1" opacity="0.10"/><line x1="281.3" y1="56.8" x2="281.3" y2="127.6" stroke="#b91c1c" stroke-width="1" opacity="0.10"/><line x1="282.4" y1="56.7" x2="282.4" y2="128.0" stroke="#b91c1c" stroke-width="1" opacity="0.10"/><line x1="283.4" y1="56.5" x2="283.4" y2="128.4" stroke="#b91c1c" stroke-width="1" opacity="0.10"/><line x1="284.4" y1="56.4" x2="284.4" y2="128.8" stroke="#b91c1c" stroke-width="1" opacity="0.10"/><line x1="285.4" y1="56.2" x2="285.4" y2="129.2" stroke="#b91c1c" stroke-width="1" opacity="0.10"/><line x1="286.4" y1="56.1" x2="286.4" y2="129.6" stroke="#b91c1c" stroke-width="1" opacity="0.10"/><line x1="287.5" y1="55.9" x2="287.5" y2="130.0" stroke="#b91c1c" stroke-width="1" opacity="0.10"/><line x1="288.5" y1="55.8" x2="288.5" y2="130.4" stroke="#b91c1c" stroke-width="1" opacity="0.10"/><line x1="289.5" y1="55.7" x2="289.5" y2="130.8" stroke="#b91c1c" stroke-width="1" opacity="0.10"/><line x1="290.5" y1="55.5" x2="290.5" y2="131.2" stroke="#b91c1c" stroke-width="1" opacity="0.10"/><line x1="291.5" y1="55.4" x2="291.5" y2="131.6" stroke="#b91c1c" stroke-width="1" opacity="0.10"/><line x1="292.6" y1="55.3" x2="292.6" y2="132.0" stroke="#b91c1c" stroke-width="1" opacity="0.10"/><line x1="293.6" y1="55.1" x2="293.6" y2="132.5" stroke="#b91c1c" stroke-width="1" opacity="0.10"/><line x1="294.6" y1="55.0" x2="294.6" y2="132.9" stroke="#b91c1c" stroke-width="1" opacity="0.10"/><line x1="295.6" y1="54.9" x2="295.6" y2="133.3" stroke="#b91c1c" stroke-width="1" opacity="0.10"/><line x1="296.6" y1="54.7" x2="296.6" y2="133.7" stroke="#b91c1c" stroke-width="1" opacity="0.10"/><line x1="297.7" y1="54.6" x2="297.7" y2="134.1" stroke="#b91c1c" stroke-width="1" opacity="0.10"/><line x1="298.7" y1="54.5" x2="298.7" y2="134.6" stroke="#b91c1c" stroke-width="1" opacity="0.10"/><line x1="299.7" y1="54.4" x2="299.7" y2="135.0" stroke="#b91c1c" stroke-width="1" opacity="0.10"/><line x1="300.7" y1="54.3" x2="300.7" y2="135.4" stroke="#b91c1c" stroke-width="1" opacity="0.10"/><line x1="301.7" y1="54.1" x2="301.7" y2="135.8" stroke="#b91c1c" stroke-width="1" opacity="0.10"/><line x1="302.8" y1="54.0" x2="302.8" y2="136.3" stroke="#b91c1c" stroke-width="1" opacity="0.10"/><line x1="303.8" y1="53.9" x2="303.8" y2="136.7" stroke="#b91c1c" stroke-width="1" opacity="0.10"/><line x1="304.8" y1="53.8" x2="304.8" y2="137.1" stroke="#b91c1c" stroke-width="1" opacity="0.10"/><line x1="305.8" y1="53.7" x2="305.8" y2="137.6" stroke="#b91c1c" stroke-width="1" opacity="0.10"/><line x1="306.8" y1="53.6" x2="306.8" y2="138.0" stroke="#b91c1c" stroke-width="1" opacity="0.10"/><line x1="307.9" y1="53.4" x2="307.9" y2="138.4" stroke="#b91c1c" stroke-width="1" opacity="0.10"/><line x1="308.9" y1="53.3" x2="308.9" y2="138.9" stroke="#b91c1c" stroke-width="1" opacity="0.10"/><line x1="309.9" y1="53.2" x2="309.9" y2="139.3" stroke="#b91c1c" stroke-width="1" opacity="0.10"/><line x1="310.9" y1="53.1" x2="310.9" y2="139.8" stroke="#b91c1c" stroke-width="1" opacity="0.10"/><line x1="311.9" y1="53.0" x2="311.9" y2="140.2" stroke="#b91c1c" stroke-width="1" opacity="0.10"/><line x1="313.0" y1="52.9" x2="313.0" y2="140.7" stroke="#b91c1c" stroke-width="1" opacity="0.10"/><line x1="314.0" y1="52.8" x2="314.0" y2="141.1" stroke="#b91c1c" stroke-width="1" opacity="0.10"/><line x1="315.0" y1="52.7" x2="315.0" y2="141.6" stroke="#b91c1c" stroke-width="1" opacity="0.10"/><line x1="316.0" y1="52.6" x2="316.0" y2="142.0" stroke="#b91c1c" stroke-width="1" opacity="0.10"/><line x1="317.0" y1="52.5" x2="317.0" y2="142.5" stroke="#b91c1c" stroke-width="1" opacity="0.10"/><line x1="318.1" y1="52.4" x2="318.1" y2="142.9" stroke="#b91c1c" stroke-width="1" opacity="0.10"/><line x1="319.1" y1="52.3" x2="319.1" y2="143.4" stroke="#b91c1c" stroke-width="1" opacity="0.10"/><line x1="320.1" y1="52.2" x2="320.1" y2="143.9" stroke="#b91c1c" stroke-width="1" opacity="0.10"/><line x1="321.1" y1="52.1" x2="321.1" y2="144.3" stroke="#b91c1c" stroke-width="1" opacity="0.10"/><line x1="322.1" y1="52.0" x2="322.1" y2="144.8" stroke="#b91c1c" stroke-width="1" opacity="0.10"/><line x1="323.2" y1="52.0" x2="323.2" y2="145.3" stroke="#b91c1c" stroke-width="1" opacity="0.10"/><line x1="324.2" y1="51.9" x2="324.2" y2="145.7" stroke="#b91c1c" stroke-width="1" opacity="0.10"/><line x1="325.2" y1="51.8" x2="325.2" y2="146.2" stroke="#b91c1c" stroke-width="1" opacity="0.10"/><line x1="326.2" y1="51.7" x2="326.2" y2="146.7" stroke="#b91c1c" stroke-width="1" opacity="0.10"/><line x1="327.2" y1="51.6" x2="327.2" y2="147.1" stroke="#b91c1c" stroke-width="1" opacity="0.10"/><line x1="328.3" y1="51.5" x2="328.3" y2="147.6" stroke="#b91c1c" stroke-width="1" opacity="0.10"/><line x1="329.3" y1="51.5" x2="329.3" y2="148.1" stroke="#b91c1c" stroke-width="1" opacity="0.10"/><line x1="330.3" y1="51.4" x2="330.3" y2="148.6" stroke="#b91c1c" stroke-width="1" opacity="0.10"/><line x1="331.3" y1="51.3" x2="331.3" y2="149.0" stroke="#b91c1c" stroke-width="1" opacity="0.10"/><line x1="332.3" y1="51.2" x2="332.3" y2="149.5" stroke="#b91c1c" stroke-width="1" opacity="0.10"/><line x1="333.4" y1="51.2" x2="333.4" y2="150.0" stroke="#b91c1c" stroke-width="1" opacity="0.10"/><line x1="334.4" y1="51.1" x2="334.4" y2="150.5" stroke="#b91c1c" stroke-width="1" opacity="0.10"/><line x1="335.4" y1="51.0" x2="335.4" y2="151.0" stroke="#b91c1c" stroke-width="1" opacity="0.10"/><line x1="336.4" y1="51.0" x2="336.4" y2="151.5" stroke="#b91c1c" stroke-width="1" opacity="0.10"/><line x1="337.4" y1="50.9" x2="337.4" y2="151.9" stroke="#b91c1c" stroke-width="1" opacity="0.10"/><line x1="338.5" y1="50.8" x2="338.5" y2="152.4" stroke="#b91c1c" stroke-width="1" opacity="0.10"/><line x1="339.5" y1="50.8" x2="339.5" y2="152.9" stroke="#b91c1c" stroke-width="1" opacity="0.10"/><line x1="340.5" y1="50.7" x2="340.5" y2="153.4" stroke="#b91c1c" stroke-width="1" opacity="0.10"/><line x1="341.5" y1="50.7" x2="341.5" y2="153.9" stroke="#b91c1c" stroke-width="1" opacity="0.10"/><line x1="342.5" y1="50.6" x2="342.5" y2="154.4" stroke="#b91c1c" stroke-width="1" opacity="0.10"/><line x1="343.6" y1="50.6" x2="343.6" y2="154.9" stroke="#b91c1c" stroke-width="1" opacity="0.10"/><line x1="344.6" y1="50.5" x2="344.6" y2="155.4" stroke="#b91c1c" stroke-width="1" opacity="0.10"/><line x1="345.6" y1="50.4" x2="345.6" y2="155.9" stroke="#b91c1c" stroke-width="1" opacity="0.10"/><line x1="346.6" y1="50.4" x2="346.6" y2="156.4" stroke="#b91c1c" stroke-width="1" opacity="0.10"/><line x1="347.6" y1="50.3" x2="347.6" y2="156.9" stroke="#b91c1c" stroke-width="1" opacity="0.10"/><line x1="348.7" y1="50.3" x2="348.7" y2="157.4" stroke="#b91c1c" stroke-width="1" opacity="0.10"/><line x1="349.7" y1="50.3" x2="349.7" y2="157.9" stroke="#b91c1c" stroke-width="1" opacity="0.10"/><line x1="350.7" y1="50.2" x2="350.7" y2="158.4" stroke="#b91c1c" stroke-width="1" opacity="0.10"/><line x1="351.7" y1="50.2" x2="351.7" y2="158.9" stroke="#b91c1c" stroke-width="1" opacity="0.10"/><line x1="352.7" y1="50.1" x2="352.7" y2="159.4" stroke="#b91c1c" stroke-width="1" opacity="0.10"/><line x1="353.8" y1="50.1" x2="353.8" y2="159.9" stroke="#b91c1c" stroke-width="1" opacity="0.10"/><line x1="354.8" y1="50.0" x2="354.8" y2="160.5" stroke="#b91c1c" stroke-width="1" opacity="0.10"/><line x1="355.8" y1="50.0" x2="355.8" y2="161.0" stroke="#b91c1c" stroke-width="1" opacity="0.10"/><line x1="356.8" y1="50.0" x2="356.8" y2="161.5" stroke="#b91c1c" stroke-width="1" opacity="0.10"/><line x1="357.8" y1="49.9" x2="357.8" y2="162.0" stroke="#b91c1c" stroke-width="1" opacity="0.10"/><line x1="358.9" y1="49.9" x2="358.9" y2="162.5" stroke="#b91c1c" stroke-width="1" opacity="0.10"/><line x1="359.9" y1="49.9" x2="359.9" y2="163.0" stroke="#b91c1c" stroke-width="1" opacity="0.10"/><line x1="360.9" y1="49.8" x2="360.9" y2="163.5" stroke="#b91c1c" stroke-width="1" opacity="0.10"/><line x1="361.9" y1="49.8" x2="361.9" y2="164.1" stroke="#b91c1c" stroke-width="1" opacity="0.10"/><line x1="362.9" y1="49.8" x2="362.9" y2="164.6" stroke="#b91c1c" stroke-width="1" opacity="0.10"/><line x1="364.0" y1="49.8" x2="364.0" y2="165.1" stroke="#b91c1c" stroke-width="1" opacity="0.10"/><line x1="365.0" y1="49.7" x2="365.0" y2="165.6" stroke="#b91c1c" stroke-width="1" opacity="0.10"/><line x1="366.0" y1="49.7" x2="366.0" y2="166.1" stroke="#b91c1c" stroke-width="1" opacity="0.10"/><line x1="367.0" y1="49.7" x2="367.0" y2="166.7" stroke="#b91c1c" stroke-width="1" opacity="0.10"/><line x1="368.0" y1="49.7" x2="368.0" y2="167.2" stroke="#b91c1c" stroke-width="1" opacity="0.10"/><line x1="369.1" y1="49.7" x2="369.1" y2="167.7" stroke="#b91c1c" stroke-width="1" opacity="0.10"/><line x1="370.1" y1="49.6" x2="370.1" y2="168.2" stroke="#b91c1c" stroke-width="1" opacity="0.10"/><line x1="371.1" y1="49.6" x2="371.1" y2="168.7" stroke="#b91c1c" stroke-width="1" opacity="0.10"/><line x1="372.1" y1="49.6" x2="372.1" y2="169.3" stroke="#b91c1c" stroke-width="1" opacity="0.10"/><line x1="373.1" y1="49.6" x2="373.1" y2="169.8" stroke="#b91c1c" stroke-width="1" opacity="0.10"/><line x1="374.2" y1="49.6" x2="374.2" y2="170.3" stroke="#b91c1c" stroke-width="1" opacity="0.10"/><line x1="375.2" y1="49.6" x2="375.2" y2="170.8" stroke="#b91c1c" stroke-width="1" opacity="0.10"/><line x1="376.2" y1="49.5" x2="376.2" y2="171.4" stroke="#b91c1c" stroke-width="1" opacity="0.10"/><line x1="377.2" y1="49.5" x2="377.2" y2="171.9" stroke="#b91c1c" stroke-width="1" opacity="0.10"/><line x1="378.2" y1="49.5" x2="378.2" y2="172.4" stroke="#b91c1c" stroke-width="1" opacity="0.10"/><line x1="379.3" y1="49.5" x2="379.3" y2="173.0" stroke="#b91c1c" stroke-width="1" opacity="0.10"/><line x1="380.3" y1="49.5" x2="380.3" y2="173.5" stroke="#b91c1c" stroke-width="1" opacity="0.10"/><line x1="381.3" y1="49.5" x2="381.3" y2="174.0" stroke="#b91c1c" stroke-width="1" opacity="0.10"/><line x1="382.3" y1="49.5" x2="382.3" y2="174.5" stroke="#b91c1c" stroke-width="1" opacity="0.10"/><line x1="383.3" y1="49.5" x2="383.3" y2="175.1" stroke="#b91c1c" stroke-width="1" opacity="0.10"/><line x1="384.4" y1="49.5" x2="384.4" y2="175.6" stroke="#b91c1c" stroke-width="1" opacity="0.10"/><line x1="385.4" y1="49.5" x2="385.4" y2="176.1" stroke="#b91c1c" stroke-width="1" opacity="0.10"/><line x1="386.4" y1="49.5" x2="386.4" y2="176.7" stroke="#b91c1c" stroke-width="1" opacity="0.10"/><line x1="387.4" y1="49.5" x2="387.4" y2="177.2" stroke="#b91c1c" stroke-width="1" opacity="0.10"/><line x1="388.4" y1="49.5" x2="388.4" y2="177.7" stroke="#b91c1c" stroke-width="1" opacity="0.10"/><line x1="389.5" y1="49.5" x2="389.5" y2="178.2" stroke="#b91c1c" stroke-width="1" opacity="0.10"/><line x1="390.5" y1="49.5" x2="390.5" y2="178.8" stroke="#b91c1c" stroke-width="1" opacity="0.10"/><line x1="391.5" y1="49.5" x2="391.5" y2="179.3" stroke="#b91c1c" stroke-width="1" opacity="0.10"/><line x1="392.5" y1="49.4" x2="392.5" y2="179.8" stroke="#b91c1c" stroke-width="1" opacity="0.10"/><line x1="393.5" y1="49.4" x2="393.5" y2="180.4" stroke="#b91c1c" stroke-width="1" opacity="0.10"/><line x1="394.6" y1="49.4" x2="394.6" y2="180.9" stroke="#b91c1c" stroke-width="1" opacity="0.10"/><line x1="395.6" y1="49.4" x2="395.6" y2="181.4" stroke="#b91c1c" stroke-width="1" opacity="0.10"/><line x1="396.6" y1="49.4" x2="396.6" y2="181.9" stroke="#b91c1c" stroke-width="1" opacity="0.10"/><line x1="397.6" y1="49.4" x2="397.6" y2="182.5" stroke="#b91c1c" stroke-width="1" opacity="0.10"/><line x1="398.6" y1="49.4" x2="398.6" y2="183.0" stroke="#b91c1c" stroke-width="1" opacity="0.10"/><line x1="399.7" y1="49.4" x2="399.7" y2="183.5" stroke="#b91c1c" stroke-width="1" opacity="0.10"/>
<path d="M 60.0 80.9 L 60.3 80.9 L 60.7 80.9 L 61.0 80.9 L 61.4 80.9 L 61.7 80.9 L 62.0 80.9 L 62.4 80.9 L 62.7 80.9 L 63.1 80.9 L 63.4 80.9 L 63.7 80.9 L 64.1 80.9 L 64.4 80.9 L 64.8 80.9 L 65.1 80.9 L 65.4 80.9 L 65.8 80.9 L 66.1 80.9 L 66.5 80.9 L 66.8 80.9 L 67.1 80.9 L 67.5 80.9 L 67.8 80.9 L 68.2 80.9 L 68.5 80.9 L 68.8 80.9 L 69.2 80.9 L 69.5 80.9 L 69.9 80.9 L 70.2 80.9 L 70.5 80.9 L 70.9 80.9 L 71.2 80.9 L 71.6 80.9 L 71.9 80.9 L 72.2 80.9 L 72.6 80.9 L 72.9 80.9 L 73.3 80.9 L 73.6 80.9 L 73.9 80.9 L 74.3 80.9 L 74.6 80.9 L 75.0 80.9 L 75.3 80.9 L 75.6 80.9 L 76.0 80.9 L 76.3 80.9 L 76.7 80.9 L 77.0 80.9 L 77.3 80.9 L 77.7 80.9 L 78.0 80.9 L 78.4 80.9 L 78.7 80.9 L 79.0 80.9 L 79.4 80.9 L 79.7 80.9 L 80.1 80.9 L 80.4 80.9 L 80.7 80.9 L 81.1 80.9 L 81.4 80.9 L 81.8 80.9 L 82.1 80.9 L 82.4 80.8 L 82.8 80.8 L 83.1 80.8 L 83.5 80.8 L 83.8 80.8 L 84.1 80.8 L 84.5 80.8 L 84.8 80.8 L 85.2 80.8 L 85.5 80.8 L 85.8 80.8 L 86.2 80.8 L 86.5 80.8 L 86.9 80.8 L 87.2 80.8 L 87.5 80.8 L 87.9 80.8 L 88.2 80.8 L 88.6 80.8 L 88.9 80.8 L 89.2 80.8 L 89.6 80.7 L 89.9 80.7 L 90.3 80.7 L 90.6 80.7 L 90.9 80.7 L 91.3 80.7 L 91.6 80.7 L 92.0 80.7 L 92.3 80.7 L 92.6 80.7 L 93.0 80.7 L 93.3 80.7 L 93.7 80.7 L 94.0 80.7 L 94.3 80.7 L 94.7 80.6 L 95.0 80.6 L 95.4 80.6 L 95.7 80.6 L 96.0 80.6 L 96.4 80.6 L 96.7 80.6 L 97.1 80.6 L 97.4 80.6 L 97.7 80.6 L 98.1 80.6 L 98.4 80.5 L 98.8 80.5 L 99.1 80.5 L 99.4 80.5 L 99.8 80.5 L 100.1 80.5 L 100.5 80.5 L 100.8 80.5 L 101.1 80.5 L 101.5 80.5 L 101.8 80.4 L 102.2 80.4 L 102.5 80.4 L 102.8 80.4 L 103.2 80.4 L 103.5 80.4 L 103.9 80.4 L 104.2 80.4 L 104.5 80.4 L 104.9 80.3 L 105.2 80.3 L 105.6 80.3 L 105.9 80.3 L 106.2 80.3 L 106.6 80.3 L 106.9 80.3 L 107.3 80.3 L 107.6 80.2 L 107.9 80.2 L 108.3 80.2 L 108.6 80.2 L 109.0 80.2 L 109.3 80.2 L 109.6 80.2 L 110.0 80.1 L 110.3 80.1 L 110.7 80.1 L 111.0 80.1 L 111.3 80.1 L 111.7 80.1 L 112.0 80.0 L 112.4 80.0 L 112.7 80.0 L 113.0 80.0 L 113.4 80.0 L 113.7 80.0 L 114.1 79.9 L 114.4 79.9 L 114.7 79.9 L 115.1 79.9 L 115.4 79.9 L 115.8 79.9 L 116.1 79.8 L 116.4 79.8 L 116.8 79.8 L 117.1 79.8 L 117.5 79.8 L 117.8 79.8 L 118.1 79.7 L 118.5 79.7 L 118.8 79.7 L 119.2 79.7 L 119.5 79.7 L 119.8 79.6 L 120.2 79.6 L 120.5 79.6 L 120.9 79.6 L 121.2 79.6 L 121.5 79.5 L 121.9 79.5 L 122.2 79.5 L 122.6 79.5 L 122.9 79.4 L 123.2 79.4 L 123.6 79.4 L 123.9 79.4 L 124.3 79.4 L 124.6 79.3 L 124.9 79.3 L 125.3 79.3 L 125.6 79.3 L 126.0 79.2 L 126.3 79.2 L 126.6 79.2 L 127.0 79.2 L 127.3 79.2 L 127.7 79.1 L 128.0 79.1 L 128.3 79.1 L 128.7 79.1 L 129.0 79.0 L 129.4 79.0 L 129.7 79.0 L 130.0 79.0 L 130.4 78.9 L 130.7 78.9 L 131.1 78.9 L 131.4 78.9 L 131.7 78.8 L 132.1 78.8 L 132.4 78.8 L 132.8 78.8 L 133.1 78.7 L 133.4 78.7 L 133.8 78.7 L 134.1 78.6 L 134.5 78.6 L 134.8 78.6 L 135.1 78.6 L 135.5 78.5 L 135.8 78.5 L 136.2 78.5 L 136.5 78.4 L 136.8 78.4 L 137.2 78.4 L 137.5 78.4 L 137.9 78.3 L 138.2 78.3 L 138.5 78.3 L 138.9 78.2 L 139.2 78.2 L 139.6 78.2 L 139.9 78.1 L 140.2 78.1 L 140.6 78.1 L 140.9 78.1 L 141.3 78.0 L 141.6 78.0 L 141.9 78.0 L 142.3 77.9 L 142.6 77.9 L 143.0 77.9 L 143.3 77.8 L 143.6 77.8 L 144.0 77.8 L 144.3 77.7 L 144.7 77.7 L 145.0 77.7 L 145.3 77.6 L 145.7 77.6 L 146.0 77.6 L 146.4 77.5 L 146.7 77.5 L 147.0 77.5 L 147.4 77.4 L 147.7 77.4 L 148.1 77.4 L 148.4 77.3 L 148.7 77.3 L 149.1 77.3 L 149.4 77.2 L 149.8 77.2 L 150.1 77.2 L 150.4 77.1 L 150.8 77.1 L 151.1 77.0 L 151.5 77.0 L 151.8 77.0 L 152.1 76.9 L 152.5 76.9 L 152.8 76.9 L 153.2 76.8 L 153.5 76.8 L 153.8 76.7 L 154.2 76.7 L 154.5 76.7 L 154.9 76.6 L 155.2 76.6 L 155.5 76.6 L 155.9 76.5 L 156.2 76.5 L 156.6 76.4 L 156.9 76.4 L 157.2 76.4 L 157.6 76.3 L 157.9 76.3 L 158.3 76.2 L 158.6 76.2 L 158.9 76.2 L 159.3 76.1 L 159.6 76.1 L 160.0 76.0 L 160.3 76.0 L 160.6 76.0 L 161.0 75.9 L 161.3 75.9 L 161.7 75.8 L 162.0 75.8 L 162.3 75.8 L 162.7 75.7 L 163.0 75.7 L 163.4 75.6 L 163.7 75.6 L 164.0 75.5 L 164.4 75.5 L 164.7 75.5 L 165.1 75.4 L 165.4 75.4 L 165.7 75.3 L 166.1 75.3 L 166.4 75.2 L 166.8 75.2 L 167.1 75.2 L 167.4 75.1 L 167.8 75.1 L 168.1 75.0 L 168.5 75.0 L 168.8 74.9 L 169.1 74.9 L 169.5 74.8 L 169.8 74.8 L 170.2 74.8 L 170.5 74.7 L 170.8 74.7 L 171.2 74.6 L 171.5 74.6 L 171.9 74.5 L 172.2 74.5 L 172.5 74.4 L 172.9 74.4 L 173.2 74.3 L 173.6 74.3 L 173.9 74.2 L 174.2 74.2 L 174.6 74.2 L 174.9 74.1 L 175.3 74.1 L 175.6 74.0 L 175.9 74.0 L 176.3 73.9 L 176.6 73.9 L 177.0 73.8 L 177.3 73.8 L 177.6 73.7 L 178.0 73.7 L 178.3 73.6 L 178.7 73.6 L 179.0 73.5 L 179.3 73.5 L 179.7 73.4 L 180.0 73.4 L 180.4 73.3 L 180.7 73.3 L 181.0 73.2 L 181.4 73.2 L 181.7 73.1 L 182.1 73.1 L 182.4 73.0 L 182.7 73.0 L 183.1 72.9 L 183.4 72.9 L 183.8 72.8 L 184.1 72.8 L 184.4 72.7 L 184.8 72.7 L 185.1 72.6 L 185.5 72.6 L 185.8 72.5 L 186.1 72.5 L 186.5 72.4 L 186.8 72.4 L 187.2 72.3 L 187.5 72.3 L 187.8 72.2 L 188.2 72.2 L 188.5 72.1 L 188.9 72.1 L 189.2 72.0 L 189.5 72.0 L 189.9 71.9 L 190.2 71.8 L 190.6 71.8 L 190.9 71.7 L 191.2 71.7 L 191.6 71.6 L 191.9 71.6 L 192.3 71.5 L 192.6 71.5 L 192.9 71.4 L 193.3 71.4 L 193.6 71.3 L 194.0 71.3 L 194.3 71.2 L 194.6 71.2 L 195.0 71.1 L 195.3 71.0 L 195.7 71.0 L 196.0 70.9 L 196.3 70.9 L 196.7 70.8 L 197.0 70.8 L 197.4 70.7 L 197.7 70.7 L 198.0 70.6 L 198.4 70.6 L 198.7 70.5 L 199.1 70.4 L 199.4 70.4 L 199.7 70.3 L 200.1 70.3 L 200.4 70.2 L 200.8 70.2 L 201.1 70.1 L 201.4 70.1 L 201.8 70.0 L 202.1 69.9 L 202.5 69.9 L 202.8 69.8 L 203.1 69.8 L 203.5 69.7 L 203.8 69.7 L 204.2 69.6 L 204.5 69.5 L 204.8 69.5 L 205.2 69.4 L 205.5 69.4 L 205.9 69.3 L 206.2 69.3 L 206.5 69.2 L 206.9 69.2 L 207.2 69.1 L 207.6 69.0 L 207.9 69.0 L 208.2 68.9 L 208.6 68.9 L 208.9 68.8 L 209.3 68.8 L 209.6 68.7 L 209.9 68.6 L 210.3 68.6 L 210.6 68.5 L 211.0 68.5 L 211.3 68.4 L 211.6 68.4 L 212.0 68.3 L 212.3 68.2 L 212.7 68.2 L 213.0 68.1 L 213.3 68.1 L 213.7 68.0 L 214.0 67.9 L 214.4 67.9 L 214.7 67.8 L 215.0 67.8 L 215.4 67.7 L 215.7 67.7 L 216.1 67.6 L 216.4 67.5 L 216.7 67.5 L 217.1 67.4 L 217.4 67.4 L 217.8 67.3 L 218.1 67.2 L 218.4 67.2 L 218.8 67.1 L 219.1 67.1 L 219.5 67.0 L 219.8 67.0 L 220.1 66.9 L 220.5 66.8 L 220.8 66.8 L 221.2 66.7 L 221.5 66.7 L 221.8 66.6 L 222.2 66.5 L 222.5 66.5 L 222.9 66.4 L 223.2 66.4 L 223.5 66.3 L 223.9 66.2 L 224.2 66.2 L 224.6 66.1 L 224.9 66.1 L 225.2 66.0 L 225.6 66.0 L 225.9 65.9 L 226.3 65.8 L 226.6 65.8 L 226.9 65.7 L 227.3 65.7 L 227.6 65.6 L 228.0 65.5 L 228.3 65.5 L 228.6 65.4 L 229.0 65.4 L 229.3 65.3 L 229.7 65.2 L 230.0 65.2 L 230.3 65.1 L 230.7 65.1 L 231.0 65.0 L 231.4 65.0 L 231.7 64.9 L 232.0 64.8 L 232.4 64.8 L 232.7 64.7 L 233.1 64.7 L 233.4 64.6 L 233.7 64.5 L 234.1 64.5 L 234.4 64.4 L 234.8 64.4 L 235.1 64.3 L 235.4 64.2 L 235.8 64.2 L 236.1 64.1 L 236.5 64.1 L 236.8 64.0 L 237.1 63.9 L 237.5 63.9 L 237.8 63.8 L 238.2 63.8 L 238.5 63.7 L 238.8 63.7 L 239.2 63.6 L 239.5 63.5 L 239.9 63.5 L 240.2 63.4 L 240.5 63.4 L 240.9 63.3 L 241.2 63.2 L 241.6 63.2 L 241.9 63.1 L 242.2 63.1 L 242.6 63.0 L 242.9 63.0 L 243.3 62.9 L 243.6 62.8 L 243.9 62.8 L 244.3 62.7 L 244.6 62.7 L 245.0 62.6 L 245.3 62.5 L 245.6 62.5 L 246.0 62.4 L 246.3 62.4 L 246.7 62.3 L 247.0 62.3 L 247.3 62.2 L 247.7 62.1 L 248.0 62.1 L 248.4 62.0 L 248.7 62.0 L 249.0 61.9 L 249.4 61.9 L 249.7 61.8 L 250.1 61.7 L 250.4 61.7 L 250.7 61.6 L 251.1 61.6 L 251.4 61.5 L 251.8 61.5 L 252.1 61.4 L 252.4 61.3 L 252.8 61.3 L 253.1 61.2 L 253.5 61.2 L 253.8 61.1 L 254.1 61.1 L 254.5 61.0 L 254.8 60.9 L 255.2 60.9 L 255.5 60.8 L 255.8 60.8 L 256.2 60.7 L 256.5 60.7 L 256.9 60.6 L 257.2 60.5 L 257.5 60.5 L 257.9 60.4 L 258.2 60.4 L 258.6 60.3 L 258.9 60.3 L 259.2 60.2 L 259.6 60.2 L 259.9 60.1 L 260.3 60.0 L 260.6 60.0 L 260.9 59.9 L 261.3 59.9 L 261.6 59.8 L 262.0 59.8 L 262.3 59.7 L 262.6 59.7 L 263.0 59.6 L 263.3 59.5 L 263.7 59.5 L 264.0 59.4 L 264.3 59.4 L 264.7 59.3 L 265.0 59.3 L 265.4 59.2 L 265.7 59.2 L 266.0 59.1 L 266.4 59.1 L 266.7 59.0 L 267.1 59.0 L 267.4 58.9 L 267.7 58.8 L 268.1 58.8 L 268.4 58.7 L 268.8 58.7 L 269.1 58.6 L 269.4 58.6 L 269.8 58.5 L 270.1 58.5 L 270.5 58.4 L 270.8 58.4 L 271.1 58.3 L 271.5 58.3 L 271.8 58.2 L 272.2 58.2 L 272.5 58.1 L 272.8 58.1 L 273.2 58.0 L 273.5 58.0 L 273.9 57.9 L 274.2 57.9 L 274.5 57.8 L 274.9 57.7 L 275.2 57.7 L 275.6 57.6 L 275.9 57.6 L 276.2 57.5 L 276.6 57.5 L 276.9 57.4 L 277.3 57.4 L 277.6 57.3 L 277.9 57.3 L 278.3 57.2 L 278.6 57.2 L 279.0 57.1 L 279.3 57.1 L 279.6 57.0 L 280.0 57.0 L 280.3 56.9 L 280.7 56.9 L 281.0 56.8 L 281.3 56.8 L 281.7 56.8 L 282.0 56.7 L 282.4 56.7 L 282.7 56.6 L 283.0 56.6 L 283.4 56.5 L 283.7 56.5 L 284.1 56.4 L 284.4 56.4 L 284.7 56.3 L 285.1 56.3 L 285.4 56.2 L 285.8 56.2 L 286.1 56.1 L 286.4 56.1 L 286.8 56.0 L 287.1 56.0 L 287.5 55.9 L 287.8 55.9 L 288.1 55.9 L 288.5 55.8 L 288.8 55.8 L 289.2 55.7 L 289.5 55.7 L 289.8 55.6 L 290.2 55.6 L 290.5 55.5 L 290.9 55.5 L 291.2 55.4 L 291.5 55.4 L 291.9 55.4 L 292.2 55.3 L 292.6 55.3 L 292.9 55.2 L 293.2 55.2 L 293.6 55.1 L 293.9 55.1 L 294.3 55.0 L 294.6 55.0 L 294.9 55.0 L 295.3 54.9 L 295.6 54.9 L 296.0 54.8 L 296.3 54.8 L 296.6 54.7 L 297.0 54.7 L 297.3 54.7 L 297.7 54.6 L 298.0 54.6 L 298.3 54.5 L 298.7 54.5 L 299.0 54.5 L 299.4 54.4 L 299.7 54.4 L 300.0 54.3 L 300.4 54.3 L 300.7 54.3 L 301.1 54.2 L 301.4 54.2 L 301.7 54.1 L 302.1 54.1 L 302.4 54.1 L 302.8 54.0 L 303.1 54.0 L 303.4 53.9 L 303.8 53.9 L 304.1 53.9 L 304.5 53.8 L 304.8 53.8 L 305.1 53.7 L 305.5 53.7 L 305.8 53.7 L 306.2 53.6 L 306.5 53.6 L 306.8 53.6 L 307.2 53.5 L 307.5 53.5 L 307.9 53.4 L 308.2 53.4 L 308.5 53.4 L 308.9 53.3 L 309.2 53.3 L 309.6 53.3 L 309.9 53.2 L 310.2 53.2 L 310.6 53.2 L 310.9 53.1 L 311.3 53.1 L 311.6 53.0 L 311.9 53.0 L 312.3 53.0 L 312.6 52.9 L 313.0 52.9 L 313.3 52.9 L 313.6 52.8 L 314.0 52.8 L 314.3 52.8 L 314.7 52.7 L 315.0 52.7 L 315.3 52.7 L 315.7 52.6 L 316.0 52.6 L 316.4 52.6 L 316.7 52.5 L 317.0 52.5 L 317.4 52.5 L 317.7 52.4 L 318.1 52.4 L 318.4 52.4 L 318.7 52.4 L 319.1 52.3 L 319.4 52.3 L 319.8 52.3 L 320.1 52.2 L 320.4 52.2 L 320.8 52.2 L 321.1 52.1 L 321.5 52.1 L 321.8 52.1 L 322.1 52.0 L 322.5 52.0 L 322.8 52.0 L 323.2 52.0 L 323.5 51.9 L 323.8 51.9 L 324.2 51.9 L 324.5 51.8 L 324.9 51.8 L 325.2 51.8 L 325.5 51.8 L 325.9 51.7 L 326.2 51.7 L 326.6 51.7 L 326.9 51.7 L 327.2 51.6 L 327.6 51.6 L 327.9 51.6 L 328.3 51.5 L 328.6 51.5 L 328.9 51.5 L 329.3 51.5 L 329.6 51.4 L 330.0 51.4 L 330.3 51.4 L 330.6 51.4 L 331.0 51.3 L 331.3 51.3 L 331.7 51.3 L 332.0 51.3 L 332.3 51.2 L 332.7 51.2 L 333.0 51.2 L 333.4 51.2 L 333.7 51.2 L 334.0 51.1 L 334.4 51.1 L 334.7 51.1 L 335.1 51.1 L 335.4 51.0 L 335.7 51.0 L 336.1 51.0 L 336.4 51.0 L 336.8 50.9 L 337.1 50.9 L 337.4 50.9 L 337.8 50.9 L 338.1 50.9 L 338.5 50.8 L 338.8 50.8 L 339.1 50.8 L 339.5 50.8 L 339.8 50.8 L 340.2 50.7 L 340.5 50.7 L 340.8 50.7 L 341.2 50.7 L 341.5 50.7 L 341.9 50.6 L 342.2 50.6 L 342.5 50.6 L 342.9 50.6 L 343.2 50.6 L 343.6 50.6 L 343.9 50.5 L 344.2 50.5 L 344.6 50.5 L 344.9 50.5 L 345.3 50.5 L 345.6 50.4 L 345.9 50.4 L 346.3 50.4 L 346.6 50.4 L 347.0 50.4 L 347.3 50.4 L 347.6 50.3 L 348.0 50.3 L 348.3 50.3 L 348.7 50.3 L 349.0 50.3 L 349.3 50.3 L 349.7 50.3 L 350.0 50.2 L 350.4 50.2 L 350.7 50.2 L 351.0 50.2 L 351.4 50.2 L 351.7 50.2 L 352.1 50.2 L 352.4 50.1 L 352.7 50.1 L 353.1 50.1 L 353.4 50.1 L 353.8 50.1 L 354.1 50.1 L 354.4 50.1 L 354.8 50.0 L 355.1 50.0 L 355.5 50.0 L 355.8 50.0 L 356.1 50.0 L 356.5 50.0 L 356.8 50.0 L 357.2 50.0 L 357.5 50.0 L 357.8 49.9 L 358.2 49.9 L 358.5 49.9 L 358.9 49.9 L 359.2 49.9 L 359.5 49.9 L 359.9 49.9 L 360.2 49.9 L 360.6 49.9 L 360.9 49.8 L 361.2 49.8 L 361.6 49.8 L 361.9 49.8 L 362.3 49.8 L 362.6 49.8 L 362.9 49.8 L 363.3 49.8 L 363.6 49.8 L 364.0 49.8 L 364.3 49.8 L 364.6 49.7 L 365.0 49.7 L 365.3 49.7 L 365.7 49.7 L 366.0 49.7 L 366.3 49.7 L 366.7 49.7 L 367.0 49.7 L 367.4 49.7 L 367.7 49.7 L 368.0 49.7 L 368.4 49.7 L 368.7 49.7 L 369.1 49.7 L 369.4 49.6 L 369.7 49.6 L 370.1 49.6 L 370.4 49.6 L 370.8 49.6 L 371.1 49.6 L 371.4 49.6 L 371.8 49.6 L 372.1 49.6 L 372.5 49.6 L 372.8 49.6 L 373.1 49.6 L 373.5 49.6 L 373.8 49.6 L 374.2 49.6 L 374.5 49.6 L 374.8 49.6 L 375.2 49.6 L 375.5 49.6 L 375.9 49.5 L 376.2 49.5 L 376.5 49.5 L 376.9 49.5 L 377.2 49.5 L 377.6 49.5 L 377.9 49.5 L 378.2 49.5 L 378.6 49.5 L 378.9 49.5 L 379.3 49.5 L 379.6 49.5 L 379.9 49.5 L 380.3 49.5 L 380.6 49.5 L 381.0 49.5 L 381.3 49.5 L 381.6 49.5 L 382.0 49.5 L 382.3 49.5 L 382.7 49.5 L 383.0 49.5 L 383.3 49.5 L 383.7 49.5 L 384.0 49.5 L 384.4 49.5 L 384.7 49.5 L 385.0 49.5 L 385.4 49.5 L 385.7 49.5 L 386.1 49.5 L 386.4 49.5 L 386.7 49.5 L 387.1 49.5 L 387.4 49.5 L 387.8 49.5 L 388.1 49.5 L 388.4 49.5 L 388.8 49.5 L 389.1 49.5 L 389.5 49.5 L 389.8 49.5 L 390.1 49.5 L 390.5 49.5 L 390.8 49.5 L 391.2 49.5 L 391.5 49.5 L 391.8 49.4 L 392.2 49.4 L 392.5 49.4 L 392.9 49.4 L 393.2 49.4 L 393.5 49.4 L 393.9 49.4 L 394.2 49.4 L 394.6 49.4 L 394.9 49.4 L 395.2 49.4 L 395.6 49.4 L 395.9 49.4 L 396.3 49.4 L 396.6 49.4 L 396.9 49.4 L 397.3 49.4 L 397.6 49.4 L 398.0 49.4 L 398.3 49.4 L 398.6 49.4 L 399.0 49.4 L 399.3 49.4 L 399.7 49.4 L 400.0 49.4" fill="none" stroke="#0d9488" stroke-width="2.6"/><path d="M 60.0 80.9 L 60.3 80.9 L 60.7 80.9 L 61.0 80.9 L 61.4 80.9 L 61.7 80.9 L 62.0 80.9 L 62.4 80.9 L 62.7 80.9 L 63.1 81.0 L 63.4 81.0 L 63.7 81.0 L 64.1 81.0 L 64.4 81.0 L 64.8 81.0 L 65.1 81.0 L 65.4 81.0 L 65.8 81.0 L 66.1 81.0 L 66.5 81.0 L 66.8 81.0 L 67.1 81.0 L 67.5 81.1 L 67.8 81.1 L 68.2 81.1 L 68.5 81.1 L 68.8 81.1 L 69.2 81.1 L 69.5 81.1 L 69.9 81.1 L 70.2 81.1 L 70.5 81.2 L 70.9 81.2 L 71.2 81.2 L 71.6 81.2 L 71.9 81.2 L 72.2 81.2 L 72.6 81.3 L 72.9 81.3 L 73.3 81.3 L 73.6 81.3 L 73.9 81.3 L 74.3 81.3 L 74.6 81.4 L 75.0 81.4 L 75.3 81.4 L 75.6 81.4 L 76.0 81.4 L 76.3 81.5 L 76.7 81.5 L 77.0 81.5 L 77.3 81.5 L 77.7 81.5 L 78.0 81.6 L 78.4 81.6 L 78.7 81.6 L 79.0 81.6 L 79.4 81.7 L 79.7 81.7 L 80.1 81.7 L 80.4 81.7 L 80.7 81.8 L 81.1 81.8 L 81.4 81.8 L 81.8 81.8 L 82.1 81.9 L 82.4 81.9 L 82.8 81.9 L 83.1 81.9 L 83.5 82.0 L 83.8 82.0 L 84.1 82.0 L 84.5 82.1 L 84.8 82.1 L 85.2 82.1 L 85.5 82.1 L 85.8 82.2 L 86.2 82.2 L 86.5 82.2 L 86.9 82.3 L 87.2 82.3 L 87.5 82.3 L 87.9 82.4 L 88.2 82.4 L 88.6 82.4 L 88.9 82.5 L 89.2 82.5 L 89.6 82.5 L 89.9 82.6 L 90.3 82.6 L 90.6 82.6 L 90.9 82.7 L 91.3 82.7 L 91.6 82.7 L 92.0 82.8 L 92.3 82.8 L 92.6 82.8 L 93.0 82.9 L 93.3 82.9 L 93.7 82.9 L 94.0 83.0 L 94.3 83.0 L 94.7 83.0 L 95.0 83.1 L 95.4 83.1 L 95.7 83.2 L 96.0 83.2 L 96.4 83.2 L 96.7 83.3 L 97.1 83.3 L 97.4 83.4 L 97.7 83.4 L 98.1 83.4 L 98.4 83.5 L 98.8 83.5 L 99.1 83.6 L 99.4 83.6 L 99.8 83.6 L 100.1 83.7 L 100.5 83.7 L 100.8 83.8 L 101.1 83.8 L 101.5 83.8 L 101.8 83.9 L 102.2 83.9 L 102.5 84.0 L 102.8 84.0 L 103.2 84.0 L 103.5 84.1 L 103.9 84.1 L 104.2 84.2 L 104.5 84.2 L 104.9 84.3 L 105.2 84.3 L 105.6 84.4 L 105.9 84.4 L 106.2 84.4 L 106.6 84.5 L 106.9 84.5 L 107.3 84.6 L 107.6 84.6 L 107.9 84.7 L 108.3 84.7 L 108.6 84.8 L 109.0 84.8 L 109.3 84.8 L 109.6 84.9 L 110.0 84.9 L 110.3 85.0 L 110.7 85.0 L 111.0 85.1 L 111.3 85.1 L 111.7 85.2 L 112.0 85.2 L 112.4 85.3 L 112.7 85.3 L 113.0 85.4 L 113.4 85.4 L 113.7 85.5 L 114.1 85.5 L 114.4 85.6 L 114.7 85.6 L 115.1 85.7 L 115.4 85.7 L 115.8 85.8 L 116.1 85.8 L 116.4 85.9 L 116.8 85.9 L 117.1 86.0 L 117.5 86.0 L 117.8 86.1 L 118.1 86.1 L 118.5 86.2 L 118.8 86.2 L 119.2 86.3 L 119.5 86.3 L 119.8 86.4 L 120.2 86.4 L 120.5 86.5 L 120.9 86.5 L 121.2 86.6 L 121.5 86.6 L 121.9 86.7 L 122.2 86.7 L 122.6 86.8 L 122.9 86.8 L 123.2 86.9 L 123.6 86.9 L 123.9 87.0 L 124.3 87.1 L 124.6 87.1 L 124.9 87.2 L 125.3 87.2 L 125.6 87.3 L 126.0 87.3 L 126.3 87.4 L 126.6 87.4 L 127.0 87.5 L 127.3 87.5 L 127.7 87.6 L 128.0 87.7 L 128.3 87.7 L 128.7 87.8 L 129.0 87.8 L 129.4 87.9 L 129.7 87.9 L 130.0 88.0 L 130.4 88.0 L 130.7 88.1 L 131.1 88.2 L 131.4 88.2 L 131.7 88.3 L 132.1 88.3 L 132.4 88.4 L 132.8 88.4 L 133.1 88.5 L 133.4 88.6 L 133.8 88.6 L 134.1 88.7 L 134.5 88.7 L 134.8 88.8 L 135.1 88.9 L 135.5 88.9 L 135.8 89.0 L 136.2 89.0 L 136.5 89.1 L 136.8 89.1 L 137.2 89.2 L 137.5 89.3 L 137.9 89.3 L 138.2 89.4 L 138.5 89.4 L 138.9 89.5 L 139.2 89.6 L 139.6 89.6 L 139.9 89.7 L 140.2 89.7 L 140.6 89.8 L 140.9 89.9 L 141.3 89.9 L 141.6 90.0 L 141.9 90.0 L 142.3 90.1 L 142.6 90.2 L 143.0 90.2 L 143.3 90.3 L 143.6 90.4 L 144.0 90.4 L 144.3 90.5 L 144.7 90.5 L 145.0 90.6 L 145.3 90.7 L 145.7 90.7 L 146.0 90.8 L 146.4 90.8 L 146.7 90.9 L 147.0 91.0 L 147.4 91.0 L 147.7 91.1 L 148.1 91.2 L 148.4 91.2 L 148.7 91.3 L 149.1 91.4 L 149.4 91.4 L 149.8 91.5 L 150.1 91.5 L 150.4 91.6 L 150.8 91.7 L 151.1 91.7 L 151.5 91.8 L 151.8 91.9 L 152.1 91.9 L 152.5 92.0 L 152.8 92.1 L 153.2 92.1 L 153.5 92.2 L 153.8 92.3 L 154.2 92.3 L 154.5 92.4 L 154.9 92.5 L 155.2 92.5 L 155.5 92.6 L 155.9 92.7 L 156.2 92.7 L 156.6 92.8 L 156.9 92.9 L 157.2 92.9 L 157.6 93.0 L 157.9 93.1 L 158.3 93.1 L 158.6 93.2 L 158.9 93.3 L 159.3 93.3 L 159.6 93.4 L 160.0 93.5 L 160.3 93.5 L 160.6 93.6 L 161.0 93.7 L 161.3 93.7 L 161.7 93.8 L 162.0 93.9 L 162.3 93.9 L 162.7 94.0 L 163.0 94.1 L 163.4 94.1 L 163.7 94.2 L 164.0 94.3 L 164.4 94.3 L 164.7 94.4 L 165.1 94.5 L 165.4 94.6 L 165.7 94.6 L 166.1 94.7 L 166.4 94.8 L 166.8 94.8 L 167.1 94.9 L 167.4 95.0 L 167.8 95.0 L 168.1 95.1 L 168.5 95.2 L 168.8 95.3 L 169.1 95.3 L 169.5 95.4 L 169.8 95.5 L 170.2 95.5 L 170.5 95.6 L 170.8 95.7 L 171.2 95.8 L 171.5 95.8 L 171.9 95.9 L 172.2 96.0 L 172.5 96.0 L 172.9 96.1 L 173.2 96.2 L 173.6 96.3 L 173.9 96.3 L 174.2 96.4 L 174.6 96.5 L 174.9 96.6 L 175.3 96.6 L 175.6 96.7 L 175.9 96.8 L 176.3 96.9 L 176.6 96.9 L 177.0 97.0 L 177.3 97.1 L 177.6 97.1 L 178.0 97.2 L 178.3 97.3 L 178.7 97.4 L 179.0 97.4 L 179.3 97.5 L 179.7 97.6 L 180.0 97.7 L 180.4 97.7 L 180.7 97.8 L 181.0 97.9 L 181.4 98.0 L 181.7 98.1 L 182.1 98.1 L 182.4 98.2 L 182.7 98.3 L 183.1 98.4 L 183.4 98.4 L 183.8 98.5 L 184.1 98.6 L 184.4 98.7 L 184.8 98.7 L 185.1 98.8 L 185.5 98.9 L 185.8 99.0 L 186.1 99.1 L 186.5 99.1 L 186.8 99.2 L 187.2 99.3 L 187.5 99.4 L 187.8 99.4 L 188.2 99.5 L 188.5 99.6 L 188.9 99.7 L 189.2 99.8 L 189.5 99.8 L 189.9 99.9 L 190.2 100.0 L 190.6 100.1 L 190.9 100.2 L 191.2 100.2 L 191.6 100.3 L 191.9 100.4 L 192.3 100.5 L 192.6 100.6 L 192.9 100.6 L 193.3 100.7 L 193.6 100.8 L 194.0 100.9 L 194.3 101.0 L 194.6 101.0 L 195.0 101.1 L 195.3 101.2 L 195.7 101.3 L 196.0 101.4 L 196.3 101.5 L 196.7 101.5 L 197.0 101.6 L 197.4 101.7 L 197.7 101.8 L 198.0 101.9 L 198.4 101.9 L 198.7 102.0 L 199.1 102.1 L 199.4 102.2 L 199.7 102.3 L 200.1 102.4 L 200.4 102.4 L 200.8 102.5 L 201.1 102.6 L 201.4 102.7 L 201.8 102.8 L 202.1 102.9 L 202.5 103.0 L 202.8 103.0 L 203.1 103.1 L 203.5 103.2 L 203.8 103.3 L 204.2 103.4 L 204.5 103.5 L 204.8 103.6 L 205.2 103.6 L 205.5 103.7 L 205.9 103.8 L 206.2 103.9 L 206.5 104.0 L 206.9 104.1 L 207.2 104.2 L 207.6 104.2 L 207.9 104.3 L 208.2 104.4 L 208.6 104.5 L 208.9 104.6 L 209.3 104.7 L 209.6 104.8 L 209.9 104.9 L 210.3 105.0 L 210.6 105.0 L 211.0 105.1 L 211.3 105.2 L 211.6 105.3 L 212.0 105.4 L 212.3 105.5 L 212.7 105.6 L 213.0 105.7 L 213.3 105.8 L 213.7 105.8 L 214.0 105.9 L 214.4 106.0 L 214.7 106.1 L 215.0 106.2 L 215.4 106.3 L 215.7 106.4 L 216.1 106.5 L 216.4 106.6 L 216.7 106.7 L 217.1 106.8 L 217.4 106.9 L 217.8 106.9 L 218.1 107.0 L 218.4 107.1 L 218.8 107.2 L 219.1 107.3 L 219.5 107.4 L 219.8 107.5 L 220.1 107.6 L 220.5 107.7 L 220.8 107.8 L 221.2 107.9 L 221.5 108.0 L 221.8 108.1 L 222.2 108.2 L 222.5 108.3 L 222.9 108.4 L 223.2 108.4 L 223.5 108.5 L 223.9 108.6 L 224.2 108.7 L 224.6 108.8 L 224.9 108.9 L 225.2 109.0 L 225.6 109.1 L 225.9 109.2 L 226.3 109.3 L 226.6 109.4 L 226.9 109.5 L 227.3 109.6 L 227.6 109.7 L 228.0 109.8 L 228.3 109.9 L 228.6 110.0 L 229.0 110.1 L 229.3 110.2 L 229.7 110.3 L 230.0 110.4 L 230.3 110.5 L 230.7 110.6 L 231.0 110.7 L 231.4 110.8 L 231.7 110.9 L 232.0 111.0 L 232.4 111.1 L 232.7 111.2 L 233.1 111.3 L 233.4 111.4 L 233.7 111.5 L 234.1 111.6 L 234.4 111.7 L 234.8 111.8 L 235.1 111.9 L 235.4 112.0 L 235.8 112.1 L 236.1 112.2 L 236.5 112.3 L 236.8 112.4 L 237.1 112.5 L 237.5 112.6 L 237.8 112.7 L 238.2 112.8 L 238.5 112.9 L 238.8 113.0 L 239.2 113.1 L 239.5 113.2 L 239.9 113.3 L 240.2 113.4 L 240.5 113.6 L 240.9 113.7 L 241.2 113.8 L 241.6 113.9 L 241.9 114.0 L 242.2 114.1 L 242.6 114.2 L 242.9 114.3 L 243.3 114.4 L 243.6 114.5 L 243.9 114.6 L 244.3 114.7 L 244.6 114.8 L 245.0 114.9 L 245.3 115.0 L 245.6 115.1 L 246.0 115.3 L 246.3 115.4 L 246.7 115.5 L 247.0 115.6 L 247.3 115.7 L 247.7 115.8 L 248.0 115.9 L 248.4 116.0 L 248.7 116.1 L 249.0 116.2 L 249.4 116.3 L 249.7 116.5 L 250.1 116.6 L 250.4 116.7 L 250.7 116.8 L 251.1 116.9 L 251.4 117.0 L 251.8 117.1 L 252.1 117.2 L 252.4 117.3 L 252.8 117.5 L 253.1 117.6 L 253.5 117.7 L 253.8 117.8 L 254.1 117.9 L 254.5 118.0 L 254.8 118.1 L 255.2 118.3 L 255.5 118.4 L 255.8 118.5 L 256.2 118.6 L 256.5 118.7 L 256.9 118.8 L 257.2 118.9 L 257.5 119.1 L 257.9 119.2 L 258.2 119.3 L 258.6 119.4 L 258.9 119.5 L 259.2 119.6 L 259.6 119.7 L 259.9 119.9 L 260.3 120.0 L 260.6 120.1 L 260.9 120.2 L 261.3 120.3 L 261.6 120.4 L 262.0 120.6 L 262.3 120.7 L 262.6 120.8 L 263.0 120.9 L 263.3 121.0 L 263.7 121.2 L 264.0 121.3 L 264.3 121.4 L 264.7 121.5 L 265.0 121.6 L 265.4 121.8 L 265.7 121.9 L 266.0 122.0 L 266.4 122.1 L 266.7 122.2 L 267.1 122.4 L 267.4 122.5 L 267.7 122.6 L 268.1 122.7 L 268.4 122.8 L 268.8 123.0 L 269.1 123.1 L 269.4 123.2 L 269.8 123.3 L 270.1 123.5 L 270.5 123.6 L 270.8 123.7 L 271.1 123.8 L 271.5 124.0 L 271.8 124.1 L 272.2 124.2 L 272.5 124.3 L 272.8 124.4 L 273.2 124.6 L 273.5 124.7 L 273.9 124.8 L 274.2 124.9 L 274.5 125.1 L 274.9 125.2 L 275.2 125.3 L 275.6 125.5 L 275.9 125.6 L 276.2 125.7 L 276.6 125.8 L 276.9 126.0 L 277.3 126.1 L 277.6 126.2 L 277.9 126.3 L 278.3 126.5 L 278.6 126.6 L 279.0 126.7 L 279.3 126.9 L 279.6 127.0 L 280.0 127.1 L 280.3 127.2 L 280.7 127.4 L 281.0 127.5 L 281.3 127.6 L 281.7 127.8 L 282.0 127.9 L 282.4 128.0 L 282.7 128.2 L 283.0 128.3 L 283.4 128.4 L 283.7 128.6 L 284.1 128.7 L 284.4 128.8 L 284.7 128.9 L 285.1 129.1 L 285.4 129.2 L 285.8 129.3 L 286.1 129.5 L 286.4 129.6 L 286.8 129.7 L 287.1 129.9 L 287.5 130.0 L 287.8 130.1 L 288.1 130.3 L 288.5 130.4 L 288.8 130.6 L 289.2 130.7 L 289.5 130.8 L 289.8 131.0 L 290.2 131.1 L 290.5 131.2 L 290.9 131.4 L 291.2 131.5 L 291.5 131.6 L 291.9 131.8 L 292.2 131.9 L 292.6 132.0 L 292.9 132.2 L 293.2 132.3 L 293.6 132.5 L 293.9 132.6 L 294.3 132.7 L 294.6 132.9 L 294.9 133.0 L 295.3 133.2 L 295.6 133.3 L 296.0 133.4 L 296.3 133.6 L 296.6 133.7 L 297.0 133.9 L 297.3 134.0 L 297.7 134.1 L 298.0 134.3 L 298.3 134.4 L 298.7 134.6 L 299.0 134.7 L 299.4 134.8 L 299.7 135.0 L 300.0 135.1 L 300.4 135.3 L 300.7 135.4 L 301.1 135.5 L 301.4 135.7 L 301.7 135.8 L 302.1 136.0 L 302.4 136.1 L 302.8 136.3 L 303.1 136.4 L 303.4 136.6 L 303.8 136.7 L 304.1 136.8 L 304.5 137.0 L 304.8 137.1 L 305.1 137.3 L 305.5 137.4 L 305.8 137.6 L 306.2 137.7 L 306.5 137.9 L 306.8 138.0 L 307.2 138.2 L 307.5 138.3 L 307.9 138.4 L 308.2 138.6 L 308.5 138.7 L 308.9 138.9 L 309.2 139.0 L 309.6 139.2 L 309.9 139.3 L 310.2 139.5 L 310.6 139.6 L 310.9 139.8 L 311.3 139.9 L 311.6 140.1 L 311.9 140.2 L 312.3 140.4 L 312.6 140.5 L 313.0 140.7 L 313.3 140.8 L 313.6 141.0 L 314.0 141.1 L 314.3 141.3 L 314.7 141.4 L 315.0 141.6 L 315.3 141.7 L 315.7 141.9 L 316.0 142.0 L 316.4 142.2 L 316.7 142.3 L 317.0 142.5 L 317.4 142.6 L 317.7 142.8 L 318.1 142.9 L 318.4 143.1 L 318.7 143.2 L 319.1 143.4 L 319.4 143.6 L 319.8 143.7 L 320.1 143.9 L 320.4 144.0 L 320.8 144.2 L 321.1 144.3 L 321.5 144.5 L 321.8 144.6 L 322.1 144.8 L 322.5 144.9 L 322.8 145.1 L 323.2 145.3 L 323.5 145.4 L 323.8 145.6 L 324.2 145.7 L 324.5 145.9 L 324.9 146.0 L 325.2 146.2 L 325.5 146.3 L 325.9 146.5 L 326.2 146.7 L 326.6 146.8 L 326.9 147.0 L 327.2 147.1 L 327.6 147.3 L 327.9 147.5 L 328.3 147.6 L 328.6 147.8 L 328.9 147.9 L 329.3 148.1 L 329.6 148.2 L 330.0 148.4 L 330.3 148.6 L 330.6 148.7 L 331.0 148.9 L 331.3 149.0 L 331.7 149.2 L 332.0 149.4 L 332.3 149.5 L 332.7 149.7 L 333.0 149.8 L 333.4 150.0 L 333.7 150.2 L 334.0 150.3 L 334.4 150.5 L 334.7 150.7 L 335.1 150.8 L 335.4 151.0 L 335.7 151.1 L 336.1 151.3 L 336.4 151.5 L 336.8 151.6 L 337.1 151.8 L 337.4 151.9 L 337.8 152.1 L 338.1 152.3 L 338.5 152.4 L 338.8 152.6 L 339.1 152.8 L 339.5 152.9 L 339.8 153.1 L 340.2 153.3 L 340.5 153.4 L 340.8 153.6 L 341.2 153.8 L 341.5 153.9 L 341.9 154.1 L 342.2 154.2 L 342.5 154.4 L 342.9 154.6 L 343.2 154.7 L 343.6 154.9 L 343.9 155.1 L 344.2 155.2 L 344.6 155.4 L 344.9 155.6 L 345.3 155.7 L 345.6 155.9 L 345.9 156.1 L 346.3 156.2 L 346.6 156.4 L 347.0 156.6 L 347.3 156.7 L 347.6 156.9 L 348.0 157.1 L 348.3 157.2 L 348.7 157.4 L 349.0 157.6 L 349.3 157.7 L 349.7 157.9 L 350.0 158.1 L 350.4 158.3 L 350.7 158.4 L 351.0 158.6 L 351.4 158.8 L 351.7 158.9 L 352.1 159.1 L 352.4 159.3 L 352.7 159.4 L 353.1 159.6 L 353.4 159.8 L 353.8 159.9 L 354.1 160.1 L 354.4 160.3 L 354.8 160.5 L 355.1 160.6 L 355.5 160.8 L 355.8 161.0 L 356.1 161.1 L 356.5 161.3 L 356.8 161.5 L 357.2 161.7 L 357.5 161.8 L 357.8 162.0 L 358.2 162.2 L 358.5 162.3 L 358.9 162.5 L 359.2 162.7 L 359.5 162.9 L 359.9 163.0 L 360.2 163.2 L 360.6 163.4 L 360.9 163.5 L 361.2 163.7 L 361.6 163.9 L 361.9 164.1 L 362.3 164.2 L 362.6 164.4 L 362.9 164.6 L 363.3 164.7 L 363.6 164.9 L 364.0 165.1 L 364.3 165.3 L 364.6 165.4 L 365.0 165.6 L 365.3 165.8 L 365.7 166.0 L 366.0 166.1 L 366.3 166.3 L 366.7 166.5 L 367.0 166.7 L 367.4 166.8 L 367.7 167.0 L 368.0 167.2 L 368.4 167.4 L 368.7 167.5 L 369.1 167.7 L 369.4 167.9 L 369.7 168.0 L 370.1 168.2 L 370.4 168.4 L 370.8 168.6 L 371.1 168.7 L 371.4 168.9 L 371.8 169.1 L 372.1 169.3 L 372.5 169.4 L 372.8 169.6 L 373.1 169.8 L 373.5 170.0 L 373.8 170.1 L 374.2 170.3 L 374.5 170.5 L 374.8 170.7 L 375.2 170.8 L 375.5 171.0 L 375.9 171.2 L 376.2 171.4 L 376.5 171.6 L 376.9 171.7 L 377.2 171.9 L 377.6 172.1 L 377.9 172.3 L 378.2 172.4 L 378.6 172.6 L 378.9 172.8 L 379.3 173.0 L 379.6 173.1 L 379.9 173.3 L 380.3 173.5 L 380.6 173.7 L 381.0 173.8 L 381.3 174.0 L 381.6 174.2 L 382.0 174.4 L 382.3 174.5 L 382.7 174.7 L 383.0 174.9 L 383.3 175.1 L 383.7 175.2 L 384.0 175.4 L 384.4 175.6 L 384.7 175.8 L 385.0 176.0 L 385.4 176.1 L 385.7 176.3 L 386.1 176.5 L 386.4 176.7 L 386.7 176.8 L 387.1 177.0 L 387.4 177.2 L 387.8 177.4 L 388.1 177.5 L 388.4 177.7 L 388.8 177.9 L 389.1 178.1 L 389.5 178.2 L 389.8 178.4 L 390.1 178.6 L 390.5 178.8 L 390.8 179.0 L 391.2 179.1 L 391.5 179.3 L 391.8 179.5 L 392.2 179.7 L 392.5 179.8 L 392.9 180.0 L 393.2 180.2 L 393.5 180.4 L 393.9 180.5 L 394.2 180.7 L 394.6 180.9 L 394.9 181.1 L 395.2 181.2 L 395.6 181.4 L 395.9 181.6 L 396.3 181.8 L 396.6 181.9 L 396.9 182.1 L 397.3 182.3 L 397.6 182.5 L 398.0 182.6 L 398.3 182.8 L 398.6 183.0 L 399.0 183.2 L 399.3 183.4 L 399.7 183.5 L 400.0 183.7" fill="none" stroke="#b91c1c" stroke-width="2.6" stroke-dasharray="6 4"/>
<text x="396" y="43.44541630600611" text-anchor="end" font-family="system-ui,-apple-system,Segoe UI,Roboto,sans-serif" font-size="11" font-weight="400" fill="#0d9488">q_d(t) reference</text>
<text x="396" y="197.70305579599594" text-anchor="end" font-family="system-ui,-apple-system,Segoe UI,Roboto,sans-serif" font-size="11" font-weight="400" fill="#b91c1c">q(t) actual (open-loop)</text>
<text x="150" y="115.0" text-anchor="middle" font-family="system-ui,-apple-system,Segoe UI,Roboto,sans-serif" font-size="10" font-weight="400" fill="#b91c1c">growing gap = tracking error</text>
<text x="100" y="208" text-anchor="start" font-family="system-ui,-apple-system,Segoe UI,Roboto,sans-serif" font-size="10" font-weight="400" fill="#64748b">load / friction / disturbance pull q away — nothing corrects it</text>
<text x="60" y="224" text-anchor="middle" font-family="system-ui,-apple-system,Segoe UI,Roboto,sans-serif" font-size="10" font-weight="400" fill="#64748b">t</text>
</svg>
