<svg viewBox="0 0 480 240" xmlns="http://www.w3.org/2000/svg" role="img" aria-label="Step responses comparing a PI controller that overshoots and rings versus a PID controller that the derivative term damps to a clean settle, with an inset showing a smooth proportional command but a jagged derivative command under measurement noise">
<title>Step responses comparing a PI controller that overshoots and rings versus a PID controller that the derivative term damps to a clean settle, with an inset showing a smooth proportional command but a jagged derivative command under measurement noise</title>
<rect width="480" height="240" fill="white"/>
<text x="240" y="22" text-anchor="middle" font-family="system-ui,-apple-system,Segoe UI,Roboto,sans-serif" font-size="13.5" font-weight="650" fill="#0f172a">Derivative control damps overshoot (PI vs PID)</text>
<rect x="60" y="46" width="250" height="150" fill="#f8fafc" stroke="#e2e8f0"/>
<line x1="60" y1="96.0" x2="310" y2="96.0" stroke="#0f172a" stroke-width="1.2" stroke-dasharray="5 4"/>
<path d="M 60.0 196.0 L 60.2 196.0 L 60.4 195.9 L 60.6 195.8 L 60.8 195.6 L 61.0 195.4 L 61.2 195.2 L 61.4 194.9 L 61.6 194.6 L 61.8 194.3 L 62.0 193.9 L 62.2 193.5 L 62.4 193.0 L 62.6 192.5 L 62.8 192.0 L 63.0 191.4 L 63.2 190.8 L 63.4 190.1 L 63.6 189.4 L 63.8 188.7 L 64.0 187.9 L 64.2 187.2 L 64.4 186.3 L 64.6 185.5 L 64.8 184.6 L 65.0 183.6 L 65.2 182.6 L 65.4 181.6 L 65.6 180.6 L 65.8 179.5 L 66.0 178.4 L 66.2 177.3 L 66.4 176.1 L 66.6 174.9 L 66.8 173.7 L 67.0 172.4 L 67.2 171.1 L 67.4 169.8 L 67.6 168.4 L 67.8 167.1 L 68.0 165.6 L 68.2 164.2 L 68.4 162.7 L 68.6 161.3 L 68.8 159.7 L 69.0 158.2 L 69.2 156.6 L 69.4 155.1 L 69.6 153.4 L 69.8 151.8 L 70.0 150.2 L 70.2 148.5 L 70.4 146.8 L 70.6 145.1 L 70.8 143.3 L 71.0 141.6 L 71.2 139.8 L 71.4 138.1 L 71.6 136.3 L 71.8 134.4 L 72.0 132.6 L 72.2 130.8 L 72.4 128.9 L 72.6 127.1 L 72.8 125.2 L 73.0 123.3 L 73.2 121.4 L 73.4 119.5 L 73.6 117.6 L 73.8 115.7 L 74.0 113.8 L 74.2 111.8 L 74.4 109.9 L 74.6 108.0 L 74.8 106.0 L 75.0 104.1 L 75.2 102.2 L 75.4 100.2 L 75.6 98.3 L 75.8 96.4 L 76.0 94.4 L 76.2 92.5 L 76.4 90.6 L 76.6 88.7 L 76.8 86.7 L 77.0 84.8 L 77.2 82.9 L 77.4 81.1 L 77.6 79.2 L 77.8 77.3 L 78.0 75.5 L 78.2 73.6 L 78.4 71.8 L 78.6 70.0 L 78.8 68.2 L 79.0 66.4 L 79.2 64.6 L 79.4 62.9 L 79.6 61.1 L 79.8 59.4 L 80.0 57.7 L 80.2 56.0 L 80.4 54.4 L 80.6 52.8 L 80.8 51.1 L 81.0 49.6 L 81.2 48.0 L 81.4 46.5 L 81.6 44.9 L 81.8 43.5 L 82.0 42.0 L 82.2 40.6 L 82.4 39.2 L 82.6 37.8 L 82.8 36.4 L 83.0 35.1 L 83.2 33.8 L 83.4 32.6 L 83.6 31.4 L 83.8 30.2 L 84.0 29.0 L 84.2 27.9 L 84.4 26.8 L 84.6 25.8 L 84.8 24.8 L 85.0 23.8 L 85.2 22.8 L 85.4 21.9 L 85.6 21.0 L 85.8 20.2 L 86.0 19.4 L 86.2 18.7 L 86.4 17.9 L 86.6 17.3 L 86.8 16.6 L 87.0 16.0 L 87.2 15.5 L 87.4 14.9 L 87.6 14.5 L 87.8 14.0 L 88.0 13.6 L 88.2 13.3 L 88.4 13.0 L 88.6 12.7 L 88.8 12.5 L 89.0 12.3 L 89.2 12.1 L 89.4 12.0 L 89.6 12.0 L 89.8 11.9 L 90.0 12.0 L 90.2 12.0 L 90.4 12.1 L 90.6 12.3 L 90.8 12.5 L 91.0 12.7 L 91.2 13.0 L 91.4 13.3 L 91.6 13.7 L 91.8 14.1 L 92.0 14.5 L 92.2 15.0 L 92.4 15.5 L 92.6 16.1 L 92.8 16.7 L 93.0 17.4 L 93.2 18.1 L 93.4 18.8 L 93.6 19.6 L 93.8 20.4 L 94.0 21.3 L 94.2 22.1 L 94.4 23.1 L 94.6 24.0 L 94.8 25.1 L 95.0 26.1 L 95.2 27.2 L 95.4 28.3 L 95.6 29.5 L 95.8 30.6 L 96.0 31.9 L 96.2 33.1 L 96.4 34.4 L 96.6 35.7 L 96.8 37.1 L 97.0 38.5 L 97.2 39.9 L 97.4 41.4 L 97.6 42.9 L 97.8 44.4 L 98.0 45.9 L 98.2 47.5 L 98.4 49.1 L 98.6 50.7 L 98.8 52.4 L 99.0 54.1 L 99.2 55.8 L 99.4 57.5 L 99.6 59.3 L 99.8 61.0 L 100.0 62.8 L 100.2 64.6 L 100.4 66.5 L 100.6 68.3 L 100.8 70.2 L 101.0 72.1 L 101.2 74.0 L 101.4 76.0 L 101.6 77.9 L 101.8 79.9 L 102.0 81.8 L 102.2 83.8 L 102.4 85.8 L 102.6 87.8 L 102.8 89.8 L 103.0 91.8 L 103.2 93.9 L 103.4 95.9 L 103.6 98.0 L 103.8 100.0 L 104.0 102.1 L 104.2 104.1 L 104.4 106.2 L 104.6 108.3 L 104.8 110.3 L 105.0 112.4 L 105.2 114.4 L 105.4 116.5 L 105.6 118.6 L 105.8 120.6 L 106.0 122.7 L 106.2 124.7 L 106.4 126.7 L 106.6 128.8 L 106.8 130.8 L 107.0 132.8 L 107.2 134.8 L 107.4 136.8 L 107.6 138.7 L 107.8 140.7 L 108.0 142.6 L 108.2 144.6 L 108.4 146.5 L 108.6 148.4 L 108.8 150.3 L 109.0 152.1 L 109.2 154.0 L 109.4 155.8 L 109.6 157.6 L 109.8 159.3 L 110.0 161.1 L 110.2 162.8 L 110.4 164.5 L 110.6 166.2 L 110.8 167.9 L 111.0 169.5 L 111.2 171.1 L 111.4 172.6 L 111.6 174.2 L 111.8 175.7 L 112.0 177.2 L 112.2 178.6 L 112.4 180.0 L 112.6 181.4 L 112.8 182.8 L 113.0 184.1 L 113.2 185.3 L 113.4 186.6 L 113.6 187.8 L 113.8 188.9 L 114.0 190.1 L 114.2 191.2 L 114.4 192.2 L 114.6 193.2 L 114.8 194.2 L 115.0 195.1 L 115.2 196.0 L 115.4 196.9 L 115.6 197.7 L 115.8 198.5 L 116.0 199.2 L 116.2 199.9 L 116.4 200.5 L 116.6 201.1 L 116.8 201.7 L 117.0 202.2 L 117.2 202.6 L 117.4 203.1 L 117.6 203.4 L 117.8 203.8 L 118.0 204.0 L 118.2 204.3 L 118.4 204.5 L 118.6 204.6 L 118.8 204.7 L 119.0 204.8 L 119.2 204.8 L 119.4 204.8 L 119.6 204.7 L 119.8 204.5 L 120.0 204.4 L 120.2 204.1 L 120.4 203.9 L 120.6 203.5 L 120.8 203.2 L 121.0 202.8 L 121.2 202.3 L 121.4 201.8 L 121.6 201.3 L 121.8 200.7 L 122.0 200.0 L 122.2 199.4 L 122.4 198.6 L 122.6 197.9 L 122.8 197.1 L 123.0 196.2 L 123.2 195.3 L 123.4 194.3 L 123.6 193.4 L 123.8 192.3 L 124.0 191.2 L 124.2 190.1 L 124.4 189.0 L 124.6 187.8 L 124.8 186.5 L 125.0 185.3 L 125.2 183.9 L 125.4 182.6 L 125.6 181.2 L 125.8 179.8 L 126.0 178.3 L 126.2 176.8 L 126.4 175.2 L 126.6 173.7 L 126.8 172.1 L 127.0 170.4 L 127.2 168.7 L 127.4 167.0 L 127.6 165.3 L 127.8 163.5 L 128.0 161.7 L 128.2 159.9 L 128.4 158.0 L 128.6 156.1 L 128.8 154.2 L 129.0 152.3 L 129.2 150.3 L 129.4 148.3 L 129.6 146.3 L 129.8 144.2 L 130.0 142.2 L 130.2 140.1 L 130.4 138.0 L 130.6 135.9 L 130.8 133.7 L 131.0 131.6 L 131.2 129.4 L 131.4 127.2 L 131.6 125.0 L 131.8 122.8 L 132.0 120.6 L 132.2 118.4 L 132.4 116.1 L 132.6 113.8 L 132.8 111.6 L 133.0 109.3 L 133.2 107.0 L 133.4 104.7 L 133.6 102.4 L 133.8 100.2 L 134.0 97.9 L 134.2 95.6 L 134.4 93.3 L 134.6 91.0 L 134.8 88.7 L 135.0 86.4 L 135.2 84.1 L 135.4 81.8 L 135.6 79.5 L 135.8 77.3 L 136.0 75.0 L 136.2 72.7 L 136.4 70.5 L 136.6 68.3 L 136.8 66.0 L 137.0 63.8 L 137.2 61.6 L 137.4 59.5 L 137.6 57.3 L 137.8 55.2 L 138.0 53.0 L 138.2 50.9 L 138.4 48.8 L 138.6 46.8 L 138.8 44.7 L 139.0 42.7 L 139.2 40.7 L 139.4 38.7 L 139.6 36.8 L 139.8 34.9 L 140.0 33.0 L 140.2 31.1 L 140.4 29.3 L 140.6 27.5 L 140.8 25.7 L 141.0 23.9 L 141.2 22.2 L 141.4 20.6 L 141.6 18.9 L 141.8 17.3 L 142.0 15.7 L 142.2 14.2 L 142.4 12.7 L 142.6 11.2 L 142.8 9.8 L 143.0 8.4 L 143.2 7.1 L 143.4 5.8 L 143.6 4.5 L 143.8 3.3 L 144.0 2.1 L 144.2 1.0 L 144.4 -0.1 L 144.6 -1.1 L 144.8 -2.1 L 145.0 -3.1 L 145.2 -4.0 L 145.4 -4.9 L 145.6 -5.7 L 145.8 -6.4 L 146.0 -7.2 L 146.2 -7.8 L 146.4 -8.5 L 146.6 -9.0 L 146.8 -9.6 L 147.0 -10.1 L 147.2 -10.5 L 147.4 -10.9 L 147.6 -11.2 L 147.8 -11.5 L 148.0 -11.7 L 148.2 -11.9 L 148.4 -12.0 L 148.6 -12.1 L 148.8 -12.1 L 149.0 -12.1 L 149.2 -12.0 L 149.4 -11.9 L 149.6 -11.7 L 149.8 -11.5 L 150.0 -11.2 L 150.2 -10.9 L 150.4 -10.5 L 150.6 -10.1 L 150.8 -9.6 L 151.0 -9.1 L 151.2 -8.5 L 151.4 -7.9 L 151.6 -7.2 L 151.8 -6.4 L 152.0 -5.7 L 152.2 -4.8 L 152.4 -4.0 L 152.6 -3.0 L 152.8 -2.1 L 153.0 -1.0 L 153.2 0.0 L 153.4 1.1 L 153.6 2.3 L 153.8 3.5 L 154.0 4.7 L 154.2 6.0 L 154.4 7.4 L 154.6 8.8 L 154.8 10.2 L 155.0 11.7 L 155.2 13.2 L 155.4 14.7 L 155.6 16.3 L 155.8 17.9 L 156.0 19.6 L 156.2 21.3 L 156.4 23.1 L 156.6 24.8 L 156.8 26.7 L 157.0 28.5 L 157.2 30.4 L 157.4 32.3 L 157.6 34.3 L 157.8 36.3 L 158.0 38.3 L 158.2 40.3 L 158.4 42.4 L 158.6 44.5 L 158.8 46.6 L 159.0 48.8 L 159.2 51.0 L 159.4 53.2 L 159.6 55.4 L 159.8 57.7 L 160.0 60.0 L 160.2 62.3 L 160.4 64.6 L 160.6 66.9 L 160.8 69.3 L 161.0 71.7 L 161.2 74.1 L 161.4 76.5 L 161.6 78.9 L 161.8 81.3 L 162.0 83.7 L 162.2 86.2 L 162.4 88.7 L 162.6 91.1 L 162.8 93.6 L 163.0 96.1 L 163.2 98.6 L 163.4 101.0 L 163.6 103.5 L 163.8 106.0 L 164.0 108.5 L 164.2 111.0 L 164.4 113.5 L 164.6 116.0 L 164.8 118.5 L 165.0 120.9 L 165.2 123.4 L 165.4 125.9 L 165.6 128.3 L 165.8 130.8 L 166.0 133.2 L 166.2 135.6 L 166.4 138.0 L 166.6 140.4 L 166.8 142.8 L 167.0 145.1 L 167.2 147.5 L 167.4 149.8 L 167.6 152.1 L 167.8 154.4 L 168.0 156.6 L 168.2 158.9 L 168.4 161.1 L 168.6 163.2 L 168.8 165.4 L 169.0 167.5 L 169.2 169.6 L 169.4 171.7 L 169.6 173.8 L 169.8 175.8 L 170.0 177.7 L 170.2 179.7 L 170.4 181.6 L 170.6 183.5 L 170.8 185.3 L 171.0 187.1 L 171.2 188.9 L 171.4 190.6 L 171.6 192.3 L 171.8 194.0 L 172.0 195.6 L 172.2 197.1 L 172.4 198.7 L 172.6 200.1 L 172.8 201.6 L 173.0 203.0 L 173.2 204.3 L 173.4 205.6 L 173.6 206.9 L 173.8 208.1 L 174.0 209.2 L 174.2 210.3 L 174.4 211.4 L 174.6 212.4 L 174.8 213.4 L 175.0 214.3 L 175.2 215.1 L 175.4 216.0 L 175.6 216.7 L 175.8 217.4 L 176.0 218.1 L 176.2 218.7 L 176.4 219.2 L 176.6 219.7 L 176.8 220.1 L 177.0 220.5 L 177.2 220.8 L 177.4 221.1 L 177.6 221.3 L 177.8 221.5 L 178.0 221.6 L 178.2 221.6 L 178.4 221.6 L 178.6 221.6 L 178.8 221.5 L 179.0 221.3 L 179.2 221.1 L 179.4 220.8 L 179.6 220.4 L 179.8 220.1 L 180.0 219.6 L 180.2 219.1 L 180.4 218.5 L 180.6 217.9 L 180.8 217.3 L 181.0 216.5 L 181.2 215.8 L 181.4 214.9 L 181.6 214.0 L 181.8 213.1 L 182.0 212.1 L 182.2 211.1 L 182.4 210.0 L 182.6 208.8 L 182.8 207.6 L 183.0 206.4 L 183.2 205.1 L 183.4 203.7 L 183.6 202.3 L 183.8 200.9 L 184.0 199.4 L 184.2 197.8 L 184.4 196.2 L 184.6 194.6 L 184.8 192.9 L 185.0 191.2 L 185.2 189.4 L 185.4 187.6 L 185.6 185.7 L 185.8 183.8 L 186.0 181.9 L 186.2 179.9 L 186.4 177.9 L 186.6 175.8 L 186.8 173.7 L 187.0 171.6 L 187.2 169.4 L 187.4 167.2 L 187.6 165.0 L 187.8 162.7 L 188.0 160.4 L 188.2 158.1 L 188.4 155.7 L 188.6 153.3 L 188.8 150.9 L 189.0 148.5 L 189.2 146.0 L 189.4 143.5 L 189.6 141.0 L 189.8 138.5 L 190.0 135.9 L 190.2 133.3 L 190.4 130.7 L 190.6 128.1 L 190.8 125.4 L 191.0 122.8 L 191.2 120.1 L 191.4 117.5 L 191.6 114.8 L 191.8 112.1 L 192.0 109.3 L 192.2 106.6 L 192.4 103.9 L 192.6 101.2 L 192.8 98.4 L 193.0 95.7 L 193.2 92.9 L 193.4 90.2 L 193.6 87.4 L 193.8 84.7 L 194.0 82.0 L 194.2 79.2 L 194.4 76.5 L 194.6 73.8 L 194.8 71.1 L 195.0 68.3 L 195.2 65.7 L 195.4 63.0 L 195.6 60.3 L 195.8 57.6 L 196.0 55.0 L 196.2 52.4 L 196.4 49.7 L 196.6 47.2 L 196.8 44.6 L 197.0 42.0 L 197.2 39.5 L 197.4 37.0 L 197.6 34.5 L 197.8 32.1 L 198.0 29.6 L 198.2 27.2 L 198.4 24.9 L 198.6 22.5 L 198.8 20.2 L 199.0 17.9 L 199.2 15.7 L 199.4 13.5 L 199.6 11.3 L 199.8 9.2 L 200.0 7.1 L 200.2 5.0 L 200.4 3.0 L 200.6 1.0 L 200.8 -0.9 L 201.0 -2.8 L 201.2 -4.7 L 201.4 -6.5 L 201.6 -8.3 L 201.8 -10.0 L 202.0 -11.6 L 202.2 -13.3 L 202.4 -14.8 L 202.6 -16.4 L 202.8 -17.8 L 203.0 -19.3 L 203.2 -20.6 L 203.4 -22.0 L 203.6 -23.2 L 203.8 -24.5 L 204.0 -25.6 L 204.2 -26.7 L 204.4 -27.8 L 204.6 -28.8 L 204.8 -29.7 L 205.0 -30.6 L 205.2 -31.4 L 205.4 -32.2 L 205.6 -32.9 L 205.8 -33.6 L 206.0 -34.2 L 206.2 -34.7 L 206.4 -35.2 L 206.6 -35.6 L 206.8 -35.9 L 207.0 -36.2 L 207.2 -36.5 L 207.4 -36.7 L 207.6 -36.8 L 207.8 -36.8 L 208.0 -36.8 L 208.2 -36.7 L 208.4 -36.6 L 208.6 -36.4 L 208.8 -36.2 L 209.0 -35.9 L 209.2 -35.5 L 209.4 -35.1 L 209.6 -34.6 L 209.8 -34.0 L 210.0 -33.4 L 210.2 -32.7 L 210.4 -32.0 L 210.6 -31.2 L 210.8 -30.3 L 211.0 -29.4 L 211.2 -28.5 L 211.4 -27.4 L 211.6 -26.3 L 211.8 -25.2 L 212.0 -24.0 L 212.2 -22.7 L 212.4 -21.4 L 212.6 -20.0 L 212.8 -18.6 L 213.0 -17.1 L 213.2 -15.6 L 213.4 -14.0 L 213.6 -12.4 L 213.8 -10.7 L 214.0 -8.9 L 214.2 -7.1 L 214.4 -5.3 L 214.6 -3.4 L 214.8 -1.5 L 215.0 0.5 L 215.2 2.5 L 215.4 4.6 L 215.6 6.7 L 215.8 8.9 L 216.0 11.1 L 216.2 13.4 L 216.4 15.7 L 216.6 18.0 L 216.8 20.4 L 217.0 22.8 L 217.2 25.2 L 217.4 27.7 L 217.6 30.2 L 217.8 32.8 L 218.0 35.4 L 218.2 38.0 L 218.4 40.6 L 218.6 43.3 L 218.8 46.0 L 219.0 48.7 L 219.2 51.5 L 219.4 54.3 L 219.6 57.1 L 219.8 59.9 L 220.0 62.7 L 220.2 65.6 L 220.4 68.5 L 220.6 71.4 L 220.8 74.3 L 221.0 77.2 L 221.2 80.2 L 221.4 83.1 L 221.6 86.1 L 221.8 89.0 L 222.0 92.0 L 222.2 95.0 L 222.4 98.0 L 222.6 101.0 L 222.8 104.0 L 223.0 107.0 L 223.2 110.0 L 223.4 113.0 L 223.6 115.9 L 223.8 118.9 L 224.0 121.9 L 224.2 124.9 L 224.4 127.8 L 224.6 130.8 L 224.8 133.7 L 225.0 136.7 L 225.2 139.6 L 225.4 142.5 L 225.6 145.4 L 225.8 148.2 L 226.0 151.1 L 226.2 153.9 L 226.4 156.7 L 226.6 159.5 L 226.8 162.2 L 227.0 164.9 L 227.2 167.6 L 227.4 170.3 L 227.6 173.0 L 227.8 175.6 L 228.0 178.1 L 228.2 180.7 L 228.4 183.2 L 228.6 185.7 L 228.8 188.1 L 229.0 190.5 L 229.2 192.9 L 229.4 195.2 L 229.6 197.5 L 229.8 199.7 L 230.0 201.9 L 230.2 204.0 L 230.4 206.1 L 230.6 208.2 L 230.8 210.2 L 231.0 212.2 L 231.2 214.1 L 231.4 215.9 L 231.6 217.7 L 231.8 219.5 L 232.0 221.2 L 232.2 222.9 L 232.4 224.4 L 232.6 226.0 L 232.8 227.5 L 233.0 228.9 L 233.2 230.3 L 233.4 231.6 L 233.6 232.8 L 233.8 234.0 L 234.0 235.1 L 234.2 236.2 L 234.4 237.2 L 234.6 238.2 L 234.8 239.1 L 235.0 239.9 L 235.2 240.7 L 235.4 241.4 L 235.6 242.0 L 235.8 242.6 L 236.0 243.2 L 236.2 243.7 L 236.4 244.1 L 236.6 244.4 L 236.8 244.7 L 237.0 245.0 L 237.2 245.2 L 237.4 245.3 L 237.6 245.4 L 237.8 245.4 L 238.0 245.4 L 238.2 245.3 L 238.4 245.1 L 238.6 244.9 L 238.8 244.6 L 239.0 244.3 L 239.2 243.9 L 239.4 243.5 L 239.6 243.0 L 239.8 242.4 L 240.0 241.8 L 240.2 241.1 L 240.4 240.4 L 240.6 239.6 L 240.8 238.8 L 241.0 237.9 L 241.2 237.0 L 241.4 236.0 L 241.6 234.9 L 241.8 233.8 L 242.0 232.6 L 242.2 231.4 L 242.4 230.1 L 242.6 228.7 L 242.8 227.3 L 243.0 225.9 L 243.2 224.4 L 243.4 222.8 L 243.6 221.2 L 243.8 219.5 L 244.0 217.8 L 244.2 216.0 L 244.4 214.2 L 244.6 212.3 L 244.8 210.3 L 245.0 208.3 L 245.2 206.3 L 245.4 204.2 L 245.6 202.0 L 245.8 199.8 L 246.0 197.6 L 246.2 195.2 L 246.4 192.9 L 246.6 190.5 L 246.8 188.0 L 247.0 185.5 L 247.2 183.0 L 247.4 180.4 L 247.6 177.8 L 247.8 175.1 L 248.0 172.4 L 248.2 169.7 L 248.4 166.9 L 248.6 164.1 L 248.8 161.2 L 249.0 158.3 L 249.2 155.4 L 249.4 152.4 L 249.6 149.5 L 249.8 146.5 L 250.0 143.4 L 250.2 140.4 L 250.4 137.3 L 250.6 134.2 L 250.8 131.0 L 251.0 127.9 L 251.2 124.7 L 251.4 121.5 L 251.6 118.3 L 251.8 115.1 L 252.0 111.9 L 252.2 108.6 L 252.4 105.4 L 252.6 102.1 L 252.8 98.9 L 253.0 95.6 L 253.2 92.3 L 253.4 89.0 L 253.6 85.7 L 253.8 82.5 L 254.0 79.2 L 254.2 75.9 L 254.4 72.6 L 254.6 69.4 L 254.8 66.1 L 255.0 62.9 L 255.2 59.6 L 255.4 56.4 L 255.6 53.2 L 255.8 50.0 L 256.0 46.8 L 256.2 43.6 L 256.4 40.5 L 256.6 37.4 L 256.8 34.3 L 257.0 31.2 L 257.2 28.1 L 257.4 25.1 L 257.6 22.1 L 257.8 19.1 L 258.0 16.2 L 258.2 13.3 L 258.4 10.4 L 258.6 7.6 L 258.8 4.8 L 259.0 2.0 L 259.2 -0.7 L 259.4 -3.4 L 259.6 -6.1 L 259.8 -8.7 L 260.0 -11.2 L 260.2 -13.7 L 260.4 -16.2 L 260.6 -18.6 L 260.8 -21.0 L 261.0 -23.3 L 261.2 -25.6 L 261.4 -27.8 L 261.6 -30.0 L 261.8 -32.1 L 262.0 -34.1 L 262.2 -36.1 L 262.4 -38.1 L 262.6 -40.0 L 262.8 -41.8 L 263.0 -43.6 L 263.2 -45.3 L 263.4 -46.9 L 263.6 -48.5 L 263.8 -50.0 L 264.0 -51.5 L 264.2 -52.9 L 264.4 -54.2 L 264.6 -55.5 L 264.8 -56.7 L 265.0 -57.8 L 265.2 -58.9 L 265.4 -59.9 L 265.6 -60.8 L 265.8 -61.6 L 266.0 -62.4 L 266.2 -63.1 L 266.4 -63.8 L 266.6 -64.3 L 266.8 -64.8 L 267.0 -65.3 L 267.2 -65.6 L 267.4 -65.9 L 267.6 -66.1 L 267.8 -66.3 L 268.0 -66.3 L 268.2 -66.3 L 268.4 -66.3 L 268.6 -66.1 L 268.8 -65.9 L 269.0 -65.7 L 269.2 -65.3 L 269.4 -64.9 L 269.6 -64.4 L 269.8 -63.9 L 270.0 -63.2 L 270.2 -62.5 L 270.4 -61.8 L 270.6 -60.9 L 270.8 -60.0 L 271.0 -59.1 L 271.2 -58.0 L 271.4 -56.9 L 271.6 -55.7 L 271.8 -54.5 L 272.0 -53.2 L 272.2 -51.8 L 272.4 -50.3 L 272.6 -48.8 L 272.8 -47.2 L 273.0 -45.6 L 273.2 -43.9 L 273.4 -42.1 L 273.6 -40.2 L 273.8 -38.3 L 274.0 -36.3 L 274.2 -34.3 L 274.4 -32.2 L 274.6 -30.0 L 274.8 -27.8 L 275.0 -25.5 L 275.2 -23.2 L 275.4 -20.8 L 275.6 -18.4 L 275.8 -15.9 L 276.0 -13.3 L 276.2 -10.7 L 276.4 -8.0 L 276.6 -5.3 L 276.8 -2.6 L 277.0 0.2 L 277.2 3.1 L 277.4 6.0 L 277.6 8.9 L 277.8 11.9 L 278.0 14.9 L 278.2 18.0 L 278.4 21.1 L 278.6 24.3 L 278.8 27.4 L 279.0 30.6 L 279.2 33.9 L 279.4 37.2 L 279.6 40.5 L 279.8 43.8 L 280.0 47.2 L 280.2 50.6 L 280.4 54.0 L 280.6 57.4 L 280.8 60.9 L 281.0 64.4 L 281.2 67.9 L 281.4 71.4 L 281.6 74.9 L 281.8 78.5 L 282.0 82.0 L 282.2 85.6 L 282.4 89.2 L 282.6 92.8 L 282.8 96.4 L 283.0 100.0 L 283.2 103.6 L 283.4 107.2 L 283.6 110.8 L 283.8 114.4 L 284.0 118.0 L 284.2 121.5 L 284.4 125.1 L 284.6 128.7 L 284.8 132.2 L 285.0 135.8 L 285.2 139.3 L 285.4 142.8 L 285.6 146.3 L 285.8 149.8 L 286.0 153.3 L 286.2 156.7 L 286.4 160.1 L 286.6 163.5 L 286.8 166.9 L 287.0 170.2 L 287.2 173.5 L 287.4 176.8 L 287.6 180.1 L 287.8 183.3 L 288.0 186.4 L 288.2 189.6 L 288.4 192.7 L 288.6 195.7 L 288.8 198.7 L 289.0 201.7 L 289.2 204.6 L 289.4 207.5 L 289.6 210.4 L 289.8 213.2 L 290.0 215.9 L 290.2 218.6 L 290.4 221.2 L 290.6 223.8 L 290.8 226.3 L 291.0 228.8 L 291.2 231.2 L 291.4 233.6 L 291.6 235.8 L 291.8 238.1 L 292.0 240.3 L 292.2 242.4 L 292.4 244.4 L 292.6 246.4 L 292.8 248.3 L 293.0 250.2 L 293.2 252.0 L 293.4 253.8 L 293.6 255.4 L 293.8 257.1 L 294.0 258.6 L 294.2 260.1 L 294.4 261.6 L 294.6 263.0 L 294.8 264.3 L 295.0 265.6 L 295.2 266.8 L 295.4 267.9 L 295.6 269.0 L 295.8 270.0 L 296.0 271.0 L 296.2 271.9 L 296.4 272.8 L 296.6 273.6 L 296.8 274.3 L 297.0 275.0 L 297.2 275.6 L 297.4 276.1 L 297.6 276.6 L 297.8 277.1 L 298.0 277.5 L 298.2 277.8 L 298.4 278.1 L 298.6 278.3 L 298.8 278.4 L 299.0 278.5 L 299.2 278.5 L 299.4 278.5 L 299.6 278.4 L 299.8 278.3 L 300.0 278.1 L 300.2 277.8 L 300.4 277.5 L 300.6 277.2 L 300.8 276.7 L 301.0 276.3 L 301.2 275.7 L 301.4 275.1 L 301.6 274.5 L 301.8 273.8 L 302.0 273.0 L 302.2 272.2 L 302.4 271.3 L 302.6 270.4 L 302.8 269.4 L 303.0 268.3 L 303.2 267.2 L 303.4 266.1 L 303.6 264.9 L 303.8 263.6 L 304.0 262.3 L 304.2 260.9 L 304.4 259.5 L 304.6 258.0 L 304.8 256.4 L 305.0 254.8 L 305.2 253.2 L 305.4 251.5 L 305.6 249.7 L 305.8 247.9 L 306.0 246.0 L 306.2 244.1 L 306.4 242.1 L 306.6 240.0 L 306.8 237.9 L 307.0 235.8 L 307.2 233.6 L 307.4 231.3 L 307.6 229.0 L 307.8 226.7 L 308.0 224.2 L 308.2 221.8 L 308.4 219.3 L 308.6 216.7 L 308.8 214.0 L 309.0 211.4 L 309.2 208.6 L 309.4 205.8 L 309.6 203.0 L 309.8 200.1 L 310.0 197.1" fill="none" stroke="#e11d48" stroke-width="2.3"/>
<path d="M 60.0 196.0 L 60.2 196.0 L 60.4 195.9 L 60.6 195.8 L 60.8 195.6 L 61.0 195.5 L 61.2 195.3 L 61.4 195.0 L 61.6 194.8 L 61.8 194.5 L 62.0 194.2 L 62.2 193.9 L 62.4 193.5 L 62.6 193.2 L 62.8 192.8 L 63.0 192.4 L 63.2 192.0 L 63.4 191.5 L 63.6 191.1 L 63.8 190.6 L 64.0 190.2 L 64.2 189.7 L 64.4 189.2 L 64.6 188.7 L 64.8 188.2 L 65.0 187.7 L 65.2 187.2 L 65.4 186.6 L 65.6 186.1 L 65.8 185.5 L 66.0 185.0 L 66.2 184.4 L 66.4 183.9 L 66.6 183.3 L 66.8 182.7 L 67.0 182.1 L 67.2 181.6 L 67.4 181.0 L 67.6 180.4 L 67.8 179.8 L 68.0 179.2 L 68.2 178.6 L 68.4 178.0 L 68.6 177.4 L 68.8 176.8 L 69.0 176.3 L 69.2 175.7 L 69.4 175.1 L 69.6 174.5 L 69.8 173.9 L 70.0 173.3 L 70.2 172.7 L 70.4 172.1 L 70.6 171.5 L 70.8 170.9 L 71.0 170.3 L 71.2 169.7 L 71.4 169.1 L 71.6 168.5 L 71.8 167.9 L 72.0 167.3 L 72.2 166.7 L 72.4 166.2 L 72.6 165.6 L 72.8 165.0 L 73.0 164.4 L 73.2 163.8 L 73.4 163.3 L 73.6 162.7 L 73.8 162.1 L 74.0 161.5 L 74.2 161.0 L 74.4 160.4 L 74.6 159.8 L 74.8 159.3 L 75.0 158.7 L 75.2 158.2 L 75.4 157.6 L 75.6 157.1 L 75.8 156.5 L 76.0 156.0 L 76.2 155.4 L 76.4 154.9 L 76.6 154.3 L 76.8 153.8 L 77.0 153.3 L 77.2 152.7 L 77.4 152.2 L 77.6 151.7 L 77.8 151.2 L 78.0 150.6 L 78.2 150.1 L 78.4 149.6 L 78.6 149.1 L 78.8 148.6 L 79.0 148.1 L 79.2 147.6 L 79.4 147.1 L 79.6 146.6 L 79.8 146.1 L 80.0 145.6 L 80.2 145.1 L 80.4 144.6 L 80.6 144.1 L 80.8 143.6 L 81.0 143.1 L 81.2 142.7 L 81.4 142.2 L 81.6 141.7 L 81.8 141.2 L 82.0 140.8 L 82.2 140.3 L 82.4 139.9 L 82.6 139.4 L 82.8 138.9 L 83.0 138.5 L 83.2 138.0 L 83.4 137.6 L 83.6 137.1 L 83.8 136.7 L 84.0 136.3 L 84.2 135.8 L 84.4 135.4 L 84.6 134.9 L 84.8 134.5 L 85.0 134.1 L 85.2 133.7 L 85.4 133.2 L 85.6 132.8 L 85.8 132.4 L 86.0 132.0 L 86.2 131.6 L 86.4 131.2 L 86.6 130.8 L 86.8 130.4 L 87.0 130.0 L 87.2 129.6 L 87.4 129.2 L 87.6 128.8 L 87.8 128.4 L 88.0 128.0 L 88.2 127.6 L 88.4 127.2 L 88.6 126.8 L 88.8 126.5 L 89.0 126.1 L 89.2 125.7 L 89.4 125.3 L 89.6 125.0 L 89.8 124.6 L 90.0 124.2 L 90.2 123.9 L 90.4 123.5 L 90.6 123.2 L 90.8 122.8 L 91.0 122.5 L 91.2 122.1 L 91.4 121.8 L 91.6 121.4 L 91.8 121.1 L 92.0 120.7 L 92.2 120.4 L 92.4 120.0 L 92.6 119.7 L 92.8 119.4 L 93.0 119.1 L 93.2 118.7 L 93.4 118.4 L 93.6 118.1 L 93.8 117.8 L 94.0 117.4 L 94.2 117.1 L 94.4 116.8 L 94.6 116.5 L 94.8 116.2 L 95.0 115.9 L 95.2 115.6 L 95.4 115.3 L 95.6 115.0 L 95.8 114.7 L 96.0 114.4 L 96.2 114.1 L 96.4 113.8 L 96.6 113.5 L 96.8 113.2 L 97.0 112.9 L 97.2 112.6 L 97.4 112.3 L 97.6 112.1 L 97.8 111.8 L 98.0 111.5 L 98.2 111.2 L 98.4 110.9 L 98.6 110.7 L 98.8 110.4 L 99.0 110.1 L 99.2 109.9 L 99.4 109.6 L 99.6 109.3 L 99.8 109.1 L 100.0 108.8 L 100.2 108.6 L 100.4 108.3 L 100.6 108.1 L 100.8 107.8 L 101.0 107.6 L 101.2 107.3 L 101.4 107.1 L 101.6 106.8 L 101.8 106.6 L 102.0 106.3 L 102.2 106.1 L 102.4 105.9 L 102.6 105.6 L 102.8 105.4 L 103.0 105.2 L 103.2 104.9 L 103.4 104.7 L 103.6 104.5 L 103.8 104.3 L 104.0 104.0 L 104.2 103.8 L 104.4 103.6 L 104.6 103.4 L 104.8 103.2 L 105.0 103.0 L 105.2 102.7 L 105.4 102.5 L 105.6 102.3 L 105.8 102.1 L 106.0 101.9 L 106.2 101.7 L 106.4 101.5 L 106.6 101.3 L 106.8 101.1 L 107.0 100.9 L 107.2 100.7 L 107.4 100.5 L 107.6 100.3 L 107.8 100.1 L 108.0 99.9 L 108.2 99.8 L 108.4 99.6 L 108.6 99.4 L 108.8 99.2 L 109.0 99.0 L 109.2 98.8 L 109.4 98.7 L 109.6 98.5 L 109.8 98.3 L 110.0 98.1 L 110.2 97.9 L 110.4 97.8 L 110.6 97.6 L 110.8 97.4 L 111.0 97.3 L 111.2 97.1 L 111.4 96.9 L 111.6 96.8 L 111.8 96.6 L 112.0 96.4 L 112.2 96.3 L 112.4 96.1 L 112.6 96.0 L 112.8 95.8 L 113.0 95.7 L 113.2 95.5 L 113.4 95.4 L 113.6 95.2 L 113.8 95.1 L 114.0 94.9 L 114.2 94.8 L 114.4 94.6 L 114.6 94.5 L 114.8 94.3 L 115.0 94.2 L 115.2 94.1 L 115.4 93.9 L 115.6 93.8 L 115.8 93.6 L 116.0 93.5 L 116.2 93.4 L 116.4 93.2 L 116.6 93.1 L 116.8 93.0 L 117.0 92.8 L 117.2 92.7 L 117.4 92.6 L 117.6 92.5 L 117.8 92.3 L 118.0 92.2 L 118.2 92.1 L 118.4 92.0 L 118.6 91.9 L 118.8 91.7 L 119.0 91.6 L 119.2 91.5 L 119.4 91.4 L 119.6 91.3 L 119.8 91.2 L 120.0 91.0 L 120.2 90.9 L 120.4 90.8 L 120.6 90.7 L 120.8 90.6 L 121.0 90.5 L 121.2 90.4 L 121.4 90.3 L 121.6 90.2 L 121.8 90.1 L 122.0 90.0 L 122.2 89.9 L 122.4 89.8 L 122.6 89.7 L 122.8 89.6 L 123.0 89.5 L 123.2 89.4 L 123.4 89.3 L 123.6 89.2 L 123.8 89.1 L 124.0 89.0 L 124.2 88.9 L 124.4 88.8 L 124.6 88.8 L 124.8 88.7 L 125.0 88.6 L 125.2 88.5 L 125.4 88.4 L 125.6 88.3 L 125.8 88.2 L 126.0 88.2 L 126.2 88.1 L 126.4 88.0 L 126.6 87.9 L 126.8 87.8 L 127.0 87.8 L 127.2 87.7 L 127.4 87.6 L 127.6 87.5 L 127.8 87.5 L 128.0 87.4 L 128.2 87.3 L 128.4 87.2 L 128.6 87.2 L 128.8 87.1 L 129.0 87.0 L 129.2 87.0 L 129.4 86.9 L 129.6 86.8 L 129.8 86.8 L 130.0 86.7 L 130.2 86.6 L 130.4 86.6 L 130.6 86.5 L 130.8 86.4 L 131.0 86.4 L 131.2 86.3 L 131.4 86.3 L 131.6 86.2 L 131.8 86.2 L 132.0 86.1 L 132.2 86.0 L 132.4 86.0 L 132.6 85.9 L 132.8 85.9 L 133.0 85.8 L 133.2 85.8 L 133.4 85.7 L 133.6 85.7 L 133.8 85.6 L 134.0 85.6 L 134.2 85.5 L 134.4 85.5 L 134.6 85.4 L 134.8 85.4 L 135.0 85.3 L 135.2 85.3 L 135.4 85.2 L 135.6 85.2 L 135.8 85.1 L 136.0 85.1 L 136.2 85.1 L 136.4 85.0 L 136.6 85.0 L 136.8 84.9 L 137.0 84.9 L 137.2 84.9 L 137.4 84.8 L 137.6 84.8 L 137.8 84.7 L 138.0 84.7 L 138.2 84.7 L 138.4 84.6 L 138.6 84.6 L 138.8 84.6 L 139.0 84.5 L 139.2 84.5 L 139.4 84.5 L 139.6 84.4 L 139.8 84.4 L 140.0 84.4 L 140.2 84.3 L 140.4 84.3 L 140.6 84.3 L 140.8 84.2 L 141.0 84.2 L 141.2 84.2 L 141.4 84.2 L 141.6 84.1 L 141.8 84.1 L 142.0 84.1 L 142.2 84.1 L 142.4 84.0 L 142.6 84.0 L 142.8 84.0 L 143.0 84.0 L 143.2 83.9 L 143.4 83.9 L 143.6 83.9 L 143.8 83.9 L 144.0 83.9 L 144.2 83.8 L 144.4 83.8 L 144.6 83.8 L 144.8 83.8 L 145.0 83.8 L 145.2 83.7 L 145.4 83.7 L 145.6 83.7 L 145.8 83.7 L 146.0 83.7 L 146.2 83.7 L 146.4 83.6 L 146.6 83.6 L 146.8 83.6 L 147.0 83.6 L 147.2 83.6 L 147.4 83.6 L 147.6 83.6 L 147.8 83.6 L 148.0 83.5 L 148.2 83.5 L 148.4 83.5 L 148.6 83.5 L 148.8 83.5 L 149.0 83.5 L 149.2 83.5 L 149.4 83.5 L 149.6 83.5 L 149.8 83.5 L 150.0 83.5 L 150.2 83.4 L 150.4 83.4 L 150.6 83.4 L 150.8 83.4 L 151.0 83.4 L 151.2 83.4 L 151.4 83.4 L 151.6 83.4 L 151.8 83.4 L 152.0 83.4 L 152.2 83.4 L 152.4 83.4 L 152.6 83.4 L 152.8 83.4 L 153.0 83.4 L 153.2 83.4 L 153.4 83.4 L 153.6 83.4 L 153.8 83.4 L 154.0 83.4 L 154.2 83.4 L 154.4 83.4 L 154.6 83.4 L 154.8 83.4 L 155.0 83.4 L 155.2 83.4 L 155.4 83.4 L 155.6 83.4 L 155.8 83.4 L 156.0 83.4 L 156.2 83.4 L 156.4 83.4 L 156.6 83.4 L 156.8 83.4 L 157.0 83.4 L 157.2 83.4 L 157.4 83.4 L 157.6 83.4 L 157.8 83.4 L 158.0 83.4 L 158.2 83.5 L 158.4 83.5 L 158.6 83.5 L 158.8 83.5 L 159.0 83.5 L 159.2 83.5 L 159.4 83.5 L 159.6 83.5 L 159.8 83.5 L 160.0 83.5 L 160.2 83.5 L 160.4 83.5 L 160.6 83.5 L 160.8 83.6 L 161.0 83.6 L 161.2 83.6 L 161.4 83.6 L 161.6 83.6 L 161.8 83.6 L 162.0 83.6 L 162.2 83.6 L 162.4 83.6 L 162.6 83.7 L 162.8 83.7 L 163.0 83.7 L 163.2 83.7 L 163.4 83.7 L 163.6 83.7 L 163.8 83.7 L 164.0 83.7 L 164.2 83.8 L 164.4 83.8 L 164.6 83.8 L 164.8 83.8 L 165.0 83.8 L 165.2 83.8 L 165.4 83.8 L 165.6 83.9 L 165.8 83.9 L 166.0 83.9 L 166.2 83.9 L 166.4 83.9 L 166.6 83.9 L 166.8 83.9 L 167.0 84.0 L 167.2 84.0 L 167.4 84.0 L 167.6 84.0 L 167.8 84.0 L 168.0 84.0 L 168.2 84.1 L 168.4 84.1 L 168.6 84.1 L 168.8 84.1 L 169.0 84.1 L 169.2 84.1 L 169.4 84.2 L 169.6 84.2 L 169.8 84.2 L 170.0 84.2 L 170.2 84.2 L 170.4 84.3 L 170.6 84.3 L 170.8 84.3 L 171.0 84.3 L 171.2 84.3 L 171.4 84.4 L 171.6 84.4 L 171.8 84.4 L 172.0 84.4 L 172.2 84.4 L 172.4 84.5 L 172.6 84.5 L 172.8 84.5 L 173.0 84.5 L 173.2 84.5 L 173.4 84.6 L 173.6 84.6 L 173.8 84.6 L 174.0 84.6 L 174.2 84.6 L 174.4 84.7 L 174.6 84.7 L 174.8 84.7 L 175.0 84.7 L 175.2 84.7 L 175.4 84.8 L 175.6 84.8 L 175.8 84.8 L 176.0 84.8 L 176.2 84.9 L 176.4 84.9 L 176.6 84.9 L 176.8 84.9 L 177.0 84.9 L 177.2 85.0 L 177.4 85.0 L 177.6 85.0 L 177.8 85.0 L 178.0 85.1 L 178.2 85.1 L 178.4 85.1 L 178.6 85.1 L 178.8 85.2 L 179.0 85.2 L 179.2 85.2 L 179.4 85.2 L 179.6 85.2 L 179.8 85.3 L 180.0 85.3 L 180.2 85.3 L 180.4 85.3 L 180.6 85.4 L 180.8 85.4 L 181.0 85.4 L 181.2 85.4 L 181.4 85.5 L 181.6 85.5 L 181.8 85.5 L 182.0 85.5 L 182.2 85.6 L 182.4 85.6 L 182.6 85.6 L 182.8 85.6 L 183.0 85.7 L 183.2 85.7 L 183.4 85.7 L 183.6 85.7 L 183.8 85.8 L 184.0 85.8 L 184.2 85.8 L 184.4 85.8 L 184.6 85.9 L 184.8 85.9 L 185.0 85.9 L 185.2 85.9 L 185.4 86.0 L 185.6 86.0 L 185.8 86.0 L 186.0 86.0 L 186.2 86.1 L 186.4 86.1 L 186.6 86.1 L 186.8 86.1 L 187.0 86.2 L 187.2 86.2 L 187.4 86.2 L 187.6 86.2 L 187.8 86.3 L 188.0 86.3 L 188.2 86.3 L 188.4 86.3 L 188.6 86.4 L 188.8 86.4 L 189.0 86.4 L 189.2 86.4 L 189.4 86.5 L 189.6 86.5 L 189.8 86.5 L 190.0 86.6 L 190.2 86.6 L 190.4 86.6 L 190.6 86.6 L 190.8 86.7 L 191.0 86.7 L 191.2 86.7 L 191.4 86.7 L 191.6 86.8 L 191.8 86.8 L 192.0 86.8 L 192.2 86.8 L 192.4 86.9 L 192.6 86.9 L 192.8 86.9 L 193.0 86.9 L 193.2 87.0 L 193.4 87.0 L 193.6 87.0 L 193.8 87.1 L 194.0 87.1 L 194.2 87.1 L 194.4 87.1 L 194.6 87.2 L 194.8 87.2 L 195.0 87.2 L 195.2 87.2 L 195.4 87.3 L 195.6 87.3 L 195.8 87.3 L 196.0 87.3 L 196.2 87.4 L 196.4 87.4 L 196.6 87.4 L 196.8 87.4 L 197.0 87.5 L 197.2 87.5 L 197.4 87.5 L 197.6 87.6 L 197.8 87.6 L 198.0 87.6 L 198.2 87.6 L 198.4 87.7 L 198.6 87.7 L 198.8 87.7 L 199.0 87.7 L 199.2 87.8 L 199.4 87.8 L 199.6 87.8 L 199.8 87.8 L 200.0 87.9 L 200.2 87.9 L 200.4 87.9 L 200.6 87.9 L 200.8 88.0 L 201.0 88.0 L 201.2 88.0 L 201.4 88.1 L 201.6 88.1 L 201.8 88.1 L 202.0 88.1 L 202.2 88.2 L 202.4 88.2 L 202.6 88.2 L 202.8 88.2 L 203.0 88.3 L 203.2 88.3 L 203.4 88.3 L 203.6 88.3 L 203.8 88.4 L 204.0 88.4 L 204.2 88.4 L 204.4 88.4 L 204.6 88.5 L 204.8 88.5 L 205.0 88.5 L 205.2 88.5 L 205.4 88.6 L 205.6 88.6 L 205.8 88.6 L 206.0 88.6 L 206.2 88.7 L 206.4 88.7 L 206.6 88.7 L 206.8 88.8 L 207.0 88.8 L 207.2 88.8 L 207.4 88.8 L 207.6 88.9 L 207.8 88.9 L 208.0 88.9 L 208.2 88.9 L 208.4 89.0 L 208.6 89.0 L 208.8 89.0 L 209.0 89.0 L 209.2 89.1 L 209.4 89.1 L 209.6 89.1 L 209.8 89.1 L 210.0 89.2 L 210.2 89.2 L 210.4 89.2 L 210.6 89.2 L 210.8 89.3 L 211.0 89.3 L 211.2 89.3 L 211.4 89.3 L 211.6 89.4 L 211.8 89.4 L 212.0 89.4 L 212.2 89.4 L 212.4 89.5 L 212.6 89.5 L 212.8 89.5 L 213.0 89.5 L 213.2 89.5 L 213.4 89.6 L 213.6 89.6 L 213.8 89.6 L 214.0 89.6 L 214.2 89.7 L 214.4 89.7 L 214.6 89.7 L 214.8 89.7 L 215.0 89.8 L 215.2 89.8 L 215.4 89.8 L 215.6 89.8 L 215.8 89.9 L 216.0 89.9 L 216.2 89.9 L 216.4 89.9 L 216.6 90.0 L 216.8 90.0 L 217.0 90.0 L 217.2 90.0 L 217.4 90.0 L 217.6 90.1 L 217.8 90.1 L 218.0 90.1 L 218.2 90.1 L 218.4 90.2 L 218.6 90.2 L 218.8 90.2 L 219.0 90.2 L 219.2 90.3 L 219.4 90.3 L 219.6 90.3 L 219.8 90.3 L 220.0 90.3 L 220.2 90.4 L 220.4 90.4 L 220.6 90.4 L 220.8 90.4 L 221.0 90.5 L 221.2 90.5 L 221.4 90.5 L 221.6 90.5 L 221.8 90.6 L 222.0 90.6 L 222.2 90.6 L 222.4 90.6 L 222.6 90.6 L 222.8 90.7 L 223.0 90.7 L 223.2 90.7 L 223.4 90.7 L 223.6 90.8 L 223.8 90.8 L 224.0 90.8 L 224.2 90.8 L 224.4 90.8 L 224.6 90.9 L 224.8 90.9 L 225.0 90.9 L 225.2 90.9 L 225.4 90.9 L 225.6 91.0 L 225.8 91.0 L 226.0 91.0 L 226.2 91.0 L 226.4 91.1 L 226.6 91.1 L 226.8 91.1 L 227.0 91.1 L 227.2 91.1 L 227.4 91.2 L 227.6 91.2 L 227.8 91.2 L 228.0 91.2 L 228.2 91.2 L 228.4 91.3 L 228.6 91.3 L 228.8 91.3 L 229.0 91.3 L 229.2 91.3 L 229.4 91.4 L 229.6 91.4 L 229.8 91.4 L 230.0 91.4 L 230.2 91.4 L 230.4 91.5 L 230.6 91.5 L 230.8 91.5 L 231.0 91.5 L 231.2 91.5 L 231.4 91.6 L 231.6 91.6 L 231.8 91.6 L 232.0 91.6 L 232.2 91.6 L 232.4 91.7 L 232.6 91.7 L 232.8 91.7 L 233.0 91.7 L 233.2 91.7 L 233.4 91.8 L 233.6 91.8 L 233.8 91.8 L 234.0 91.8 L 234.2 91.8 L 234.4 91.9 L 234.6 91.9 L 234.8 91.9 L 235.0 91.9 L 235.2 91.9 L 235.4 91.9 L 235.6 92.0 L 235.8 92.0 L 236.0 92.0 L 236.2 92.0 L 236.4 92.0 L 236.6 92.1 L 236.8 92.1 L 237.0 92.1 L 237.2 92.1 L 237.4 92.1 L 237.6 92.1 L 237.8 92.2 L 238.0 92.2 L 238.2 92.2 L 238.4 92.2 L 238.6 92.2 L 238.8 92.3 L 239.0 92.3 L 239.2 92.3 L 239.4 92.3 L 239.6 92.3 L 239.8 92.3 L 240.0 92.4 L 240.2 92.4 L 240.4 92.4 L 240.6 92.4 L 240.8 92.4 L 241.0 92.4 L 241.2 92.5 L 241.4 92.5 L 241.6 92.5 L 241.8 92.5 L 242.0 92.5 L 242.2 92.6 L 242.4 92.6 L 242.6 92.6 L 242.8 92.6 L 243.0 92.6 L 243.2 92.6 L 243.4 92.7 L 243.6 92.7 L 243.8 92.7 L 244.0 92.7 L 244.2 92.7 L 244.4 92.7 L 244.6 92.7 L 244.8 92.8 L 245.0 92.8 L 245.2 92.8 L 245.4 92.8 L 245.6 92.8 L 245.8 92.8 L 246.0 92.9 L 246.2 92.9 L 246.4 92.9 L 246.6 92.9 L 246.8 92.9 L 247.0 92.9 L 247.2 93.0 L 247.4 93.0 L 247.6 93.0 L 247.8 93.0 L 248.0 93.0 L 248.2 93.0 L 248.4 93.0 L 248.6 93.1 L 248.8 93.1 L 249.0 93.1 L 249.2 93.1 L 249.4 93.1 L 249.6 93.1 L 249.8 93.1 L 250.0 93.2 L 250.2 93.2 L 250.4 93.2 L 250.6 93.2 L 250.8 93.2 L 251.0 93.2 L 251.2 93.3 L 251.4 93.3 L 251.6 93.3 L 251.8 93.3 L 252.0 93.3 L 252.2 93.3 L 252.4 93.3 L 252.6 93.4 L 252.8 93.4 L 253.0 93.4 L 253.2 93.4 L 253.4 93.4 L 253.6 93.4 L 253.8 93.4 L 254.0 93.4 L 254.2 93.5 L 254.4 93.5 L 254.6 93.5 L 254.8 93.5 L 255.0 93.5 L 255.2 93.5 L 255.4 93.5 L 255.6 93.6 L 255.8 93.6 L 256.0 93.6 L 256.2 93.6 L 256.4 93.6 L 256.6 93.6 L 256.8 93.6 L 257.0 93.6 L 257.2 93.7 L 257.4 93.7 L 257.6 93.7 L 257.8 93.7 L 258.0 93.7 L 258.2 93.7 L 258.4 93.7 L 258.6 93.7 L 258.8 93.8 L 259.0 93.8 L 259.2 93.8 L 259.4 93.8 L 259.6 93.8 L 259.8 93.8 L 260.0 93.8 L 260.2 93.8 L 260.4 93.9 L 260.6 93.9 L 260.8 93.9 L 261.0 93.9 L 261.2 93.9 L 261.4 93.9 L 261.6 93.9 L 261.8 93.9 L 262.0 94.0 L 262.2 94.0 L 262.4 94.0 L 262.6 94.0 L 262.8 94.0 L 263.0 94.0 L 263.2 94.0 L 263.4 94.0 L 263.6 94.0 L 263.8 94.1 L 264.0 94.1 L 264.2 94.1 L 264.4 94.1 L 264.6 94.1 L 264.8 94.1 L 265.0 94.1 L 265.2 94.1 L 265.4 94.1 L 265.6 94.2 L 265.8 94.2 L 266.0 94.2 L 266.2 94.2 L 266.4 94.2 L 266.6 94.2 L 266.8 94.2 L 267.0 94.2 L 267.2 94.2 L 267.4 94.3 L 267.6 94.3 L 267.8 94.3 L 268.0 94.3 L 268.2 94.3 L 268.4 94.3 L 268.6 94.3 L 268.8 94.3 L 269.0 94.3 L 269.2 94.3 L 269.4 94.4 L 269.6 94.4 L 269.8 94.4 L 270.0 94.4 L 270.2 94.4 L 270.4 94.4 L 270.6 94.4 L 270.8 94.4 L 271.0 94.4 L 271.2 94.4 L 271.4 94.5 L 271.6 94.5 L 271.8 94.5 L 272.0 94.5 L 272.2 94.5 L 272.4 94.5 L 272.6 94.5 L 272.8 94.5 L 273.0 94.5 L 273.2 94.5 L 273.4 94.5 L 273.6 94.6 L 273.8 94.6 L 274.0 94.6 L 274.2 94.6 L 274.4 94.6 L 274.6 94.6 L 274.8 94.6 L 275.0 94.6 L 275.2 94.6 L 275.4 94.6 L 275.6 94.6 L 275.8 94.7 L 276.0 94.7 L 276.2 94.7 L 276.4 94.7 L 276.6 94.7 L 276.8 94.7 L 277.0 94.7 L 277.2 94.7 L 277.4 94.7 L 277.6 94.7 L 277.8 94.7 L 278.0 94.7 L 278.2 94.8 L 278.4 94.8 L 278.6 94.8 L 278.8 94.8 L 279.0 94.8 L 279.2 94.8 L 279.4 94.8 L 279.6 94.8 L 279.8 94.8 L 280.0 94.8 L 280.2 94.8 L 280.4 94.8 L 280.6 94.9 L 280.8 94.9 L 281.0 94.9 L 281.2 94.9 L 281.4 94.9 L 281.6 94.9 L 281.8 94.9 L 282.0 94.9 L 282.2 94.9 L 282.4 94.9 L 282.6 94.9 L 282.8 94.9 L 283.0 94.9 L 283.2 94.9 L 283.4 95.0 L 283.6 95.0 L 283.8 95.0 L 284.0 95.0 L 284.2 95.0 L 284.4 95.0 L 284.6 95.0 L 284.8 95.0 L 285.0 95.0 L 285.2 95.0 L 285.4 95.0 L 285.6 95.0 L 285.8 95.0 L 286.0 95.0 L 286.2 95.1 L 286.4 95.1 L 286.6 95.1 L 286.8 95.1 L 287.0 95.1 L 287.2 95.1 L 287.4 95.1 L 287.6 95.1 L 287.8 95.1 L 288.0 95.1 L 288.2 95.1 L 288.4 95.1 L 288.6 95.1 L 288.8 95.1 L 289.0 95.1 L 289.2 95.2 L 289.4 95.2 L 289.6 95.2 L 289.8 95.2 L 290.0 95.2 L 290.2 95.2 L 290.4 95.2 L 290.6 95.2 L 290.8 95.2 L 291.0 95.2 L 291.2 95.2 L 291.4 95.2 L 291.6 95.2 L 291.8 95.2 L 292.0 95.2 L 292.2 95.2 L 292.4 95.2 L 292.6 95.3 L 292.8 95.3 L 293.0 95.3 L 293.2 95.3 L 293.4 95.3 L 293.6 95.3 L 293.8 95.3 L 294.0 95.3 L 294.2 95.3 L 294.4 95.3 L 294.6 95.3 L 294.8 95.3 L 295.0 95.3 L 295.2 95.3 L 295.4 95.3 L 295.6 95.3 L 295.8 95.3 L 296.0 95.3 L 296.2 95.4 L 296.4 95.4 L 296.6 95.4 L 296.8 95.4 L 297.0 95.4 L 297.2 95.4 L 297.4 95.4 L 297.6 95.4 L 297.8 95.4 L 298.0 95.4 L 298.2 95.4 L 298.4 95.4 L 298.6 95.4 L 298.8 95.4 L 299.0 95.4 L 299.2 95.4 L 299.4 95.4 L 299.6 95.4 L 299.8 95.4 L 300.0 95.4 L 300.2 95.5 L 300.4 95.5 L 300.6 95.5 L 300.8 95.5 L 301.0 95.5 L 301.2 95.5 L 301.4 95.5 L 301.6 95.5 L 301.8 95.5 L 302.0 95.5 L 302.2 95.5 L 302.4 95.5 L 302.6 95.5 L 302.8 95.5 L 303.0 95.5 L 303.2 95.5 L 303.4 95.5 L 303.6 95.5 L 303.8 95.5 L 304.0 95.5 L 304.2 95.5 L 304.4 95.5 L 304.6 95.6 L 304.8 95.6 L 305.0 95.6 L 305.2 95.6 L 305.4 95.6 L 305.6 95.6 L 305.8 95.6 L 306.0 95.6 L 306.2 95.6 L 306.4 95.6 L 306.6 95.6 L 306.8 95.6 L 307.0 95.6 L 307.2 95.6 L 307.4 95.6 L 307.6 95.6 L 307.8 95.6 L 308.0 95.6 L 308.2 95.6 L 308.4 95.6 L 308.6 95.6 L 308.8 95.6 L 309.0 95.6 L 309.2 95.6 L 309.4 95.6 L 309.6 95.6 L 309.8 95.7 L 310.0 95.7" fill="none" stroke="#10b981" stroke-width="2.4"/>
<text x="306" y="62" text-anchor="end" font-family="system-ui,-apple-system,Segoe UI,Roboto,sans-serif" font-size="10" font-weight="400" fill="#e11d48">PI: overshoot, ringing</text>
<text x="306" y="78" text-anchor="end" font-family="system-ui,-apple-system,Segoe UI,Roboto,sans-serif" font-size="10" font-weight="400" fill="#10b981">PID: damped, clean</text>
<rect x="330" y="52" width="130" height="150" fill="white" stroke="#d97706" stroke-width="1.5" rx="6"/>
<text x="395.0" y="68" text-anchor="middle" font-family="system-ui,-apple-system,Segoe UI,Roboto,sans-serif" font-size="10" font-weight="650" fill="#d97706">noise (inset)</text>
<text x="395.0" y="86" text-anchor="middle" font-family="system-ui,-apple-system,Segoe UI,Roboto,sans-serif" font-size="7.5" font-weight="400" fill="#0ea5e9">P cmd (smooth)</text>
<path d="M 338.0 96.0 L 339.9 96.0 L 341.9 96.0 L 343.8 96.0 L 345.7 96.0 L 347.7 96.0 L 349.6 96.0 L 351.5 96.0 L 353.5 96.0 L 355.4 96.0 L 357.3 96.0 L 359.3 96.0 L 361.2 96.0 L 363.1 96.0 L 365.1 96.0 L 367.0 96.0 L 368.9 96.0 L 370.8 96.0 L 372.8 96.0 L 374.7 96.0 L 376.6 96.0 L 378.6 96.0 L 380.5 96.0 L 382.4 96.0 L 384.4 96.0 L 386.3 96.0 L 388.2 96.0 L 390.2 96.0 L 392.1 96.0 L 394.0 96.0 L 396.0 96.0 L 397.9 96.0 L 399.8 96.0 L 401.8 96.0 L 403.7 96.0 L 405.6 96.0 L 407.6 96.0 L 409.5 96.0 L 411.4 96.0 L 413.4 96.0 L 415.3 96.0 L 417.2 96.0 L 419.2 96.0 L 421.1 96.0 L 423.0 96.0 L 424.9 96.0 L 426.9 96.0 L 428.8 96.0 L 430.7 96.0 L 432.7 96.0 L 434.6 96.0 L 436.5 96.0 L 438.5 96.0 L 440.4 96.0 L 442.3 96.0 L 444.3 96.0 L 446.2 96.0 L 448.1 96.0 L 450.1 96.0 L 452.0 96.0 L 452.0 96.0" fill="none" stroke="#0ea5e9" stroke-width="1.4"/>
<text x="395.0" y="144" text-anchor="middle" font-family="system-ui,-apple-system,Segoe UI,Roboto,sans-serif" font-size="7.5" font-weight="400" fill="#b91c1c">D cmd (jagged)</text>
<path d="M 338.0 166.8 L 340.0 169.1 L 341.9 171.9 L 343.9 162.7 L 345.9 169.1 L 347.8 170.3 L 349.8 165.3 L 351.8 168.5 L 353.7 168.1 L 355.7 168.6 L 357.7 166.7 L 359.6 171.0 L 361.6 166.6 L 363.6 168.7 L 365.5 165.4 L 367.5 169.3 L 369.4 168.8 L 371.4 169.1 L 373.4 166.7 L 375.3 167.3 L 377.3 168.6 L 379.3 164.2 L 381.2 168.7 L 383.2 176.9 L 385.2 166.0 L 387.1 163.9 L 389.1 168.6 L 391.1 166.4 L 393.0 168.0 L 395.0 163.4 L 397.0 175.7 L 398.9 166.2 L 400.9 162.2 L 402.9 171.3 L 404.8 167.9 L 406.8 170.8 L 408.8 170.7 L 410.7 163.6 L 412.7 168.1 L 414.7 171.2 L 416.6 166.7 L 418.6 166.5 L 420.6 170.1 L 422.5 165.9 L 424.5 167.5 L 426.4 168.1 L 428.4 169.3 L 430.4 165.3 L 432.3 167.3 L 434.3 169.3 L 436.3 170.7 L 438.2 164.2 L 440.2 170.9 L 442.2 164.7 L 444.1 172.6 L 446.1 163.2 L 448.1 170.2 L 450.0 170.9 L 452.0 165.7" fill="none" stroke="#b91c1c" stroke-width="1.2"/>
<text x="395.0" y="198" text-anchor="middle" font-family="system-ui,-apple-system,Segoe UI,Roboto,sans-serif" font-size="7.5" font-weight="400" fill="#64748b">D amplifies sensor noise</text>
</svg>
