<svg xmlns="http://www.w3.org/2000/svg" viewBox="0 0 700 210" font-family="Segoe UI, Helvetica, Arial, sans-serif" role="img" aria-label="DH table to dh fk to T 0 n to position and orientation, with arrows forward to workspace and to T world from arm the perception bridge.">
  <defs>
    <marker id="r24" markerWidth="10" markerHeight="10" refX="8" refY="3" orient="auto"><path d="M0,0 L8,3 L0,6 Z" fill="#10b981"/></marker>
    <style>.t{font-size:15.5px;font-weight:700;fill:#0f172a}.c{font-size:10.5px;fill:#64748b}.b{font-size:11px;font-weight:700;fill:#334155}</style>
  </defs>
  <text x="350" y="22" text-anchor="middle" class="t">From table to gripper pose — and onward</text>
  <rect x="30" y="55" width="110" height="44" rx="9" fill="#f5f3ff" stroke="#ddd6fe"/><text x="85" y="82" text-anchor="middle" class="b">DH table</text>
  <line x1="140" y1="77" x2="172" y2="77" stroke="#10b981" stroke-width="2" marker-end="url(#r24)"/>
  <rect x="176" y="55" width="90" height="44" rx="9" fill="#f8fafc" stroke="#e2e8f0"/><text x="221" y="82" text-anchor="middle" class="b">dh_fk</text>
  <line x1="266" y1="77" x2="298" y2="77" stroke="#10b981" stroke-width="2" marker-end="url(#r24)"/>
  <rect x="302" y="55" width="150" height="44" rx="9" fill="#ecfdf5" stroke="#a7f3d0"/><text x="377" y="82" text-anchor="middle" class="b">T₀ⁿ (pos + orient)</text>
  <line x1="452" y1="68" x2="520" y2="50" stroke="#10b981" stroke-width="2" marker-end="url(#r24)"/>
  <line x1="452" y1="86" x2="520" y2="104" stroke="#10b981" stroke-width="2" marker-end="url(#r24)"/>
  <rect x="524" y="34" width="150" height="30" rx="8" fill="#fff" stroke="#e2e8f0"/><text x="599" y="54" text-anchor="middle" class="b">reachable workspace</text>
  <rect x="524" y="92" width="150" height="30" rx="8" fill="#fff" stroke="#e2e8f0"/><text x="599" y="112" text-anchor="middle" class="b">T₀ⁿ = T(world←arm)</text>
  <text x="350" y="178" text-anchor="middle" class="c">Unit 7: interpret the pose, the workspace, and reconnect to perception. Unit 8: capstone.</text>
</svg>
